<svg width="1600" height="42" viewBox="0 0 1600 42" fill="none" xmlns="http://www.w3.org/2000/svg">
<g clip-path="url(#clip0_2809_4267)">
<line y1="32.5" x2="1155" y2="32.5" stroke="#4B4B4B" stroke-dasharray="4 4"/>
<path d="M1149.8 13H1142V11.2H1145V1.6H1143.8V-0.200001H1148V1.6H1146.8V11.2H1149.8V13ZM1158.2 13H1156.4V6.4H1155.8V7.6H1155.2V8.8H1154.6V10H1154V8.8H1153.4V7.6H1152.8V6.4H1152.2V13H1150.4V-0.200001H1151V1H1151.6V2.2H1152.2V3.4H1152.8V4.6H1153.4V5.8H1154V7H1154.6V5.8H1155.2V4.6H1155.8V3.4H1156.4V2.2H1157V1H1157.6V-0.200001H1158.2V13ZM1166.61 5.8H1166.01V6.4H1165.41V7H1164.81V7.6H1160.61V13H1158.81V-0.200001H1164.81V0.399999H1165.41V1H1166.01V1.6H1166.61V5.8ZM1164.81 5.2V2.2H1164.21V1.6H1160.61V5.8H1164.21V5.2H1164.81ZM1175.01 13H1173.21V10H1169.01V13H1167.21V8.2V7.6V6.4H1167.81V5.2H1168.41V4H1169.01V2.8H1169.61V1.6H1170.21V0.399999H1170.81V-0.200001H1171.41V0.399999H1172.01V1.6H1172.61V2.8H1173.21V4H1173.81V5.2H1174.41V6.4H1175.01V7.6V8.2V13ZM1173.21 8.2V7.6V7H1172.61V5.8H1172.01V4.6H1171.41V3.4H1170.81V4.6H1170.21V5.8H1169.61V7H1169.01V7.6V8.2H1173.21ZM1183.42 11.2H1182.82V11.8H1182.22V12.4H1181.62V13H1178.02V12.4H1177.42V11.8H1176.82V11.2H1176.22V10.6H1175.62V2.2H1176.22V1.6H1176.82V1H1177.42V0.399999H1178.02V-0.200001H1181.62V0.399999H1182.22V1H1182.82V1.6H1183.42V3.4H1181.62V2.2H1181.02V1.6H1178.62V2.2H1178.02V2.8H1177.42V10H1178.02V10.6H1178.62V11.2H1181.02V10.6H1181.62V9.4H1183.42V11.2ZM1191.82 1.6H1188.82V13H1187.02V1.6H1184.02V-0.200001H1191.82V1.6ZM1208.63 10.6H1208.03V11.2H1207.43V11.8H1206.83V12.4H1206.23V13H1203.23V12.4H1202.63V11.8H1202.03V11.2H1201.43V10.6H1200.83V2.2H1201.43V1.6H1202.03V1H1202.63V0.399999H1203.23V-0.200001H1206.23V0.399999H1206.83V1H1207.43V1.6H1208.03V2.2H1208.63V10.6ZM1206.83 10V2.8H1206.23V2.2H1205.63V1.6H1203.83V2.2H1203.23V2.8H1202.63V10H1203.23V10.6H1203.83V11.2H1205.63V10.6H1206.23V10H1206.83ZM1217.03 1.6H1211.03V5.2H1215.23V7H1211.03V13H1209.23V-0.200001H1217.03V1.6ZM1149.8 24.6H1149.2V25.2H1148.6V25.8H1148V26.4H1147.4V27H1144.4V26.4H1143.8V25.8H1143.2V25.2H1142.6V24.6H1142V16.2H1142.6V15.6H1143.2V15H1143.8V14.4H1144.4V13.8H1147.4V14.4H1148V15H1148.6V15.6H1149.2V16.2H1149.8V24.6ZM1148 24V16.8H1147.4V16.2H1146.8V15.6H1145V16.2H1144.4V16.8H1143.8V24H1144.4V24.6H1145V25.2H1146.8V24.6H1147.4V24H1148ZM1158.2 25.2H1157.6V25.8H1157V26.4H1156.4V27H1152.2V26.4H1151.6V25.8H1151V25.2H1150.4V13.8H1152.2V24.6H1152.8V25.2H1155.8V24.6H1156.4V13.8H1158.2V25.2ZM1166.61 27H1164.81V24.6H1164.21V23.4H1163.61V22.2H1163.01V21H1160.61V27H1158.81V13.8H1164.81V14.4H1165.41V15H1166.01V15.6H1166.61V19.2H1166.01V19.8H1165.41V20.4H1164.81V21.6H1165.41V22.8H1166.01V24H1166.61V27ZM1164.81 18.6V16.2H1164.21V15.6H1160.61V19.2H1164.21V18.6H1164.81ZM1183.42 27H1182.82V25.8H1182.22V24.6H1181.62V23.4H1181.02V22.2H1180.42V21H1179.82V19.8H1179.22V21H1178.62V22.2H1178.02V23.4H1177.42V24.6H1176.82V25.8H1176.22V27H1175.62V13.8H1177.42V20.4H1178.02V19.2H1178.62V18H1179.22V16.8H1179.82V18H1180.42V19.2H1181.02V20.4H1181.62V13.8H1183.42V27ZM1191.82 24.6H1191.22V25.2H1190.62V25.8H1190.02V26.4H1189.42V27H1186.42V26.4H1185.82V25.8H1185.22V25.2H1184.62V24.6H1184.02V16.2H1184.62V15.6H1185.22V15H1185.82V14.4H1186.42V13.8H1189.42V14.4H1190.02V15H1190.62V15.6H1191.22V16.2H1191.82V24.6ZM1190.02 24V16.8H1189.42V16.2H1188.82V15.6H1187.02V16.2H1186.42V16.8H1185.82V24H1186.42V24.6H1187.02V25.2H1188.82V24.6H1189.42V24H1190.02ZM1200.22 27H1198.42V24.6H1197.82V23.4H1197.22V22.2H1196.62V21H1194.22V27H1192.42V13.8H1198.42V14.4H1199.02V15H1199.62V15.6H1200.22V19.2H1199.62V19.8H1199.02V20.4H1198.42V21.6H1199.02V22.8H1199.62V24H1200.22V27ZM1198.42 18.6V16.2H1197.82V15.6H1194.22V19.2H1197.82V18.6H1198.42ZM1208.63 27H1206.83V25.8H1206.23V24.6H1205.63V23.4H1205.03V22.2H1204.43V21H1203.23V21.6H1202.63V27H1200.83V13.8H1202.63V19.2H1203.23V18.6H1203.83V18H1204.43V17.4H1205.03V16.8H1205.63V16.2H1206.23V15.58H1206.83V15H1207.43V14.4H1208.03V13.8H1208.63V16.2H1208.03V16.8H1207.43V17.4H1206.83V17.98H1206.23V18.6H1205.63V19.2H1205.03V19.8H1205.63V20.4H1206.23V21.6H1206.83V22.8H1207.43V24H1208.03V25.2H1208.63V27Z" fill="#4B4B4B"/>
<line x1="1155" y1="32.5" x2="1599" y2="32.5" stroke="#4B4B4B" stroke-dasharray="4 4"/>
<path d="M1421.09 12.34C1421.09 12.66 1421.2 12.9333 1421.43 13.16C1421.65 13.3733 1421.92 13.48 1422.23 13.48C1422.55 13.48 1422.82 13.3733 1423.05 13.16C1423.27 12.9333 1423.39 12.66 1423.39 12.34C1423.39 12.02 1423.27 11.7467 1423.05 11.52C1422.82 11.2933 1422.55 11.18 1422.23 11.18C1421.92 11.18 1421.65 11.2933 1421.43 11.52C1421.2 11.7467 1421.09 12.02 1421.09 12.34ZM1419.85 12.34C1419.85 11.9 1419.95 11.5 1420.17 11.14C1420.39 10.7667 1420.69 10.4733 1421.05 10.26C1421.41 10.0467 1421.8 9.94 1422.23 9.94C1422.67 9.94 1423.07 10.0467 1423.43 10.26C1423.8 10.4733 1424.09 10.7667 1424.31 11.14C1424.52 11.5 1424.63 11.9 1424.63 12.34C1424.63 12.7667 1424.52 13.16 1424.31 13.52C1424.09 13.88 1423.8 14.1733 1423.43 14.4C1423.07 14.6133 1422.67 14.72 1422.23 14.72C1421.8 14.72 1421.41 14.6133 1421.05 14.4C1420.69 14.1733 1420.39 13.88 1420.17 13.52C1419.95 13.16 1419.85 12.7667 1419.85 12.34ZM1422.27 13.92C1422.17 14.1067 1422.09 14.3333 1422.03 14.6C1421.96 14.8533 1421.89 15.0867 1421.83 15.3C1421.72 15.7933 1421.58 16.3467 1421.41 16.96C1421.23 17.56 1421.03 18.1867 1420.79 18.84C1420.55 19.4933 1420.26 20.14 1419.93 20.78C1419.61 21.42 1419.24 22.02 1418.83 22.58C1418.23 23.38 1417.53 24.1267 1416.73 24.82C1415.93 25.5133 1415.03 26.14 1414.05 26.7C1413.06 27.26 1411.97 27.7333 1410.79 28.12L1408.61 25.72C1409.94 25.4 1411.09 25.0067 1412.05 24.54C1413.01 24.0733 1413.84 23.54 1414.55 22.94C1415.27 22.34 1415.9 21.7 1416.45 21.02C1416.89 20.46 1417.26 19.8533 1417.57 19.2C1417.89 18.5467 1418.15 17.8933 1418.35 17.24C1418.56 16.5733 1418.71 15.9533 1418.79 15.38C1418.59 15.38 1418.25 15.38 1417.79 15.38C1417.33 15.38 1416.79 15.38 1416.17 15.38C1415.55 15.38 1414.91 15.38 1414.23 15.38C1413.56 15.38 1412.91 15.38 1412.29 15.38C1411.66 15.38 1411.09 15.38 1410.59 15.38C1410.09 15.38 1409.73 15.38 1409.49 15.38C1409.02 15.38 1408.57 15.3867 1408.13 15.4C1407.7 15.4133 1407.36 15.4333 1407.11 15.46V12.64C1407.31 12.6667 1407.55 12.6933 1407.83 12.72C1408.12 12.7467 1408.41 12.7667 1408.71 12.78C1409.01 12.7933 1409.27 12.8 1409.49 12.8C1409.7 12.8 1410 12.8 1410.39 12.8C1410.79 12.8 1411.25 12.8 1411.77 12.8C1412.29 12.8 1412.83 12.8 1413.39 12.8C1413.96 12.8 1414.53 12.8 1415.09 12.8C1415.66 12.8 1416.19 12.8 1416.69 12.8C1417.18 12.8 1417.61 12.8 1417.97 12.8C1418.33 12.8 1418.59 12.8 1418.75 12.8C1418.95 12.8 1419.19 12.7933 1419.47 12.78C1419.76 12.7667 1420.04 12.72 1420.31 12.64L1422.27 13.92ZM1426.93 12.82C1427.34 12.8333 1427.73 12.8467 1428.09 12.86C1428.46 12.86 1428.78 12.86 1429.05 12.86C1429.26 12.86 1429.59 12.86 1430.03 12.86C1430.48 12.86 1431.01 12.86 1431.61 12.86C1432.21 12.86 1432.85 12.86 1433.53 12.86C1434.21 12.86 1434.89 12.86 1435.57 12.86C1436.26 12.86 1436.91 12.86 1437.51 12.86C1438.11 12.86 1438.63 12.86 1439.07 12.86C1439.52 12.86 1439.85 12.86 1440.05 12.86C1440.3 12.86 1440.6 12.86 1440.95 12.86C1441.31 12.8467 1441.67 12.8333 1442.03 12.82C1442.01 13.1267 1442 13.4533 1441.99 13.8C1441.99 14.1333 1441.99 14.4533 1441.99 14.76C1441.99 14.9467 1441.99 15.24 1441.99 15.64C1441.99 16.0267 1441.99 16.4933 1441.99 17.04C1441.99 17.5733 1441.99 18.1467 1441.99 18.76C1441.99 19.36 1441.99 19.9667 1441.99 20.58C1441.99 21.1933 1441.99 21.7733 1441.99 22.32C1441.99 22.8533 1441.99 23.32 1441.99 23.72C1441.99 24.1067 1441.99 24.3867 1441.99 24.56C1441.99 24.76 1441.99 25.0133 1441.99 25.32C1442 25.6133 1442.01 25.9133 1442.01 26.22C1442.01 26.5133 1442.01 26.7733 1442.01 27C1442.02 27.2133 1442.03 27.3267 1442.03 27.34H1439.27C1439.27 27.3133 1439.27 27.1533 1439.27 26.86C1439.28 26.5533 1439.29 26.1933 1439.29 25.78C1439.3 25.3667 1439.31 24.98 1439.31 24.62C1439.31 24.4467 1439.31 24.1533 1439.31 23.74C1439.31 23.3267 1439.31 22.84 1439.31 22.28C1439.31 21.72 1439.31 21.1267 1439.31 20.5C1439.31 19.8733 1439.31 19.26 1439.31 18.66C1439.31 18.06 1439.31 17.5133 1439.31 17.02C1439.31 16.5267 1439.31 16.1333 1439.31 15.84C1439.31 15.5467 1439.31 15.4 1439.31 15.4H1429.65C1429.65 15.4 1429.65 15.5467 1429.65 15.84C1429.65 16.1333 1429.65 16.5267 1429.65 17.02C1429.65 17.5 1429.65 18.0467 1429.65 18.66C1429.65 19.26 1429.65 19.8733 1429.65 20.5C1429.65 21.1133 1429.65 21.7067 1429.65 22.28C1429.65 22.84 1429.65 23.3267 1429.65 23.74C1429.65 24.1533 1429.65 24.4467 1429.65 24.62C1429.65 24.86 1429.65 25.1333 1429.65 25.44C1429.65 25.7333 1429.65 26.02 1429.65 26.3C1429.66 26.58 1429.67 26.8133 1429.67 27C1429.67 27.2 1429.67 27.3133 1429.67 27.34H1426.91C1426.91 27.3133 1426.91 27.2 1426.91 27C1426.92 26.8 1426.93 26.5533 1426.93 26.26C1426.94 25.9667 1426.95 25.6667 1426.95 25.36C1426.96 25.0533 1426.97 24.78 1426.97 24.54C1426.97 24.3667 1426.97 24.0867 1426.97 23.7C1426.97 23.3 1426.97 22.8267 1426.97 22.28C1426.97 21.7333 1426.97 21.16 1426.97 20.56C1426.97 19.9467 1426.97 19.3333 1426.97 18.72C1426.97 18.1067 1426.97 17.5333 1426.97 17C1426.97 16.4533 1426.97 15.9867 1426.97 15.6C1426.97 15.2133 1426.97 14.9333 1426.97 14.76C1426.97 14.48 1426.97 14.16 1426.97 13.8C1426.97 13.4267 1426.95 13.1 1426.93 12.82ZM1440.31 23.7V26.26H1428.29V23.7H1440.31ZM1458.41 11.64C1458.59 11.92 1458.79 12.2467 1459.01 12.62C1459.23 12.98 1459.45 13.3467 1459.67 13.72C1459.88 14.08 1460.07 14.42 1460.23 14.74L1458.49 15.48C1458.29 15.0533 1458.1 14.6733 1457.93 14.34C1457.75 13.9933 1457.57 13.66 1457.37 13.34C1457.18 13.0067 1456.97 12.6733 1456.73 12.34L1458.41 11.64ZM1461.15 10.68C1461.36 10.9333 1461.58 11.24 1461.81 11.6C1462.03 11.96 1462.25 12.32 1462.47 12.68C1462.68 13.04 1462.87 13.3667 1463.03 13.66L1461.33 14.42C1461.11 14.0067 1460.91 13.6333 1460.71 13.3C1460.52 12.9667 1460.33 12.6467 1460.13 12.34C1459.93 12.0333 1459.7 11.7133 1459.45 11.38L1461.15 10.68ZM1449.71 11.26C1450.04 11.4333 1450.41 11.6467 1450.83 11.9C1451.24 12.1533 1451.66 12.42 1452.09 12.7C1452.51 12.9667 1452.92 13.2267 1453.31 13.48C1453.69 13.72 1454.01 13.9333 1454.27 14.12L1452.79 16.32C1452.51 16.1333 1452.17 15.9133 1451.79 15.66C1451.41 15.4067 1451.01 15.1467 1450.59 14.88C1450.17 14.6133 1449.76 14.36 1449.35 14.12C1448.95 13.8667 1448.59 13.6467 1448.27 13.46L1449.71 11.26ZM1446.01 25.46C1446.75 25.3267 1447.51 25.16 1448.29 24.96C1449.06 24.76 1449.83 24.52 1450.59 24.24C1451.35 23.9467 1452.09 23.6 1452.81 23.2C1453.94 22.56 1454.99 21.84 1455.97 21.04C1456.95 20.24 1457.84 19.3933 1458.63 18.5C1459.41 17.5933 1460.07 16.66 1460.59 15.7L1462.13 18.42C1461.21 19.8067 1460.06 21.12 1458.69 22.36C1457.33 23.5867 1455.83 24.6733 1454.19 25.62C1453.51 25.9933 1452.76 26.3533 1451.95 26.7C1451.13 27.0333 1450.33 27.32 1449.55 27.56C1448.77 27.8 1448.09 27.9733 1447.51 28.08L1446.01 25.46ZM1446.63 15.82C1446.96 15.9933 1447.34 16.2067 1447.77 16.46C1448.19 16.7133 1448.62 16.9733 1449.05 17.24C1449.47 17.4933 1449.87 17.7467 1450.25 18C1450.63 18.24 1450.95 18.4533 1451.21 18.64L1449.75 20.88C1449.45 20.68 1449.11 20.4533 1448.73 20.2C1448.35 19.9467 1447.95 19.6867 1447.53 19.42C1447.11 19.1533 1446.7 18.9 1446.29 18.66C1445.89 18.4067 1445.52 18.1933 1445.19 18.02L1446.63 15.82ZM1467.15 16.16C1467.37 16.2 1467.64 16.2267 1467.95 16.24C1468.25 16.2533 1468.51 16.26 1468.73 16.26H1477.89C1478.13 16.26 1478.39 16.2533 1478.67 16.24C1478.95 16.2267 1479.21 16.2 1479.45 16.16V18.68C1479.19 18.6533 1478.93 18.6333 1478.65 18.62C1478.37 18.6067 1478.11 18.6 1477.89 18.6H1468.73C1468.51 18.6 1468.25 18.6067 1467.95 18.62C1467.64 18.6333 1467.37 18.6533 1467.15 18.68V16.16ZM1471.85 26.4V17.54H1474.47V26.4H1471.85ZM1466.13 24.92C1466.38 24.9467 1466.65 24.9733 1466.95 25C1467.24 25.0267 1467.51 25.04 1467.77 25.04H1478.83C1479.11 25.04 1479.37 25.0267 1479.63 25C1479.89 24.96 1480.13 24.9333 1480.35 24.92V27.54C1480.13 27.5 1479.87 27.4733 1479.55 27.46C1479.24 27.4467 1479 27.44 1478.83 27.44H1467.77C1467.53 27.44 1467.26 27.4467 1466.97 27.46C1466.67 27.4733 1466.39 27.5 1466.13 27.54V24.92ZM1500.59 14.56C1500.48 14.7467 1500.37 14.9733 1500.25 15.24C1500.13 15.4933 1500.02 15.7467 1499.93 16C1499.75 16.5867 1499.51 17.26 1499.19 18.02C1498.88 18.7667 1498.49 19.5467 1498.03 20.36C1497.57 21.16 1497.05 21.9333 1496.45 22.68C1495.49 23.8267 1494.37 24.8667 1493.09 25.8C1491.82 26.7333 1490.25 27.5733 1488.37 28.32L1486.01 26.2C1487.37 25.8 1488.54 25.34 1489.53 24.82C1490.51 24.3 1491.37 23.7467 1492.11 23.16C1492.84 22.56 1493.49 21.9267 1494.07 21.26C1494.53 20.74 1494.96 20.1533 1495.35 19.5C1495.73 18.8333 1496.07 18.1733 1496.35 17.52C1496.63 16.8667 1496.81 16.2933 1496.91 15.8H1490.17L1491.09 13.54C1491.27 13.54 1491.56 13.54 1491.95 13.54C1492.35 13.54 1492.79 13.54 1493.29 13.54C1493.79 13.54 1494.29 13.54 1494.77 13.54C1495.26 13.54 1495.69 13.54 1496.05 13.54C1496.42 13.54 1496.67 13.54 1496.81 13.54C1497.11 13.54 1497.42 13.52 1497.73 13.48C1498.05 13.44 1498.32 13.38 1498.55 13.3L1500.59 14.56ZM1494.07 11.4C1493.83 11.7467 1493.59 12.12 1493.37 12.52C1493.14 12.92 1492.97 13.2267 1492.85 13.44C1492.39 14.24 1491.83 15.0733 1491.17 15.94C1490.51 16.7933 1489.77 17.6267 1488.93 18.44C1488.09 19.24 1487.19 19.9733 1486.25 20.64L1483.99 18.98C1484.87 18.4333 1485.64 17.8733 1486.31 17.3C1486.99 16.7267 1487.57 16.16 1488.07 15.6C1488.56 15.0267 1488.98 14.48 1489.33 13.96C1489.69 13.4267 1489.99 12.9533 1490.25 12.54C1490.41 12.2867 1490.57 11.96 1490.75 11.56C1490.92 11.1467 1491.05 10.7733 1491.15 10.44L1494.07 11.4ZM1508.29 25.08C1508.29 24.8267 1508.29 24.4133 1508.29 23.84C1508.29 23.2533 1508.29 22.58 1508.29 21.82C1508.29 21.0467 1508.29 20.24 1508.29 19.4C1508.29 18.56 1508.29 17.7533 1508.29 16.98C1508.29 16.1933 1508.29 15.5 1508.29 14.9C1508.29 14.3 1508.29 13.86 1508.29 13.58C1508.29 13.2333 1508.27 12.8333 1508.23 12.38C1508.2 11.9267 1508.15 11.5267 1508.09 11.18H1511.21C1511.17 11.5267 1511.13 11.9133 1511.09 12.34C1511.05 12.7533 1511.03 13.1667 1511.03 13.58C1511.03 13.9533 1511.03 14.46 1511.03 15.1C1511.03 15.74 1511.03 16.4533 1511.03 17.24C1511.03 18.0133 1511.03 18.8067 1511.03 19.62C1511.03 20.42 1511.03 21.1933 1511.03 21.94C1511.03 22.6867 1511.03 23.34 1511.03 23.9C1511.03 24.4467 1511.03 24.84 1511.03 25.08C1511.03 25.2667 1511.03 25.5333 1511.05 25.88C1511.06 26.2133 1511.09 26.56 1511.13 26.92C1511.17 27.28 1511.19 27.6 1511.21 27.88H1508.09C1508.14 27.48 1508.19 27.0133 1508.23 26.48C1508.27 25.9467 1508.29 25.48 1508.29 25.08ZM1510.43 16.36C1511.09 16.5333 1511.84 16.76 1512.67 17.04C1513.49 17.3067 1514.33 17.5933 1515.17 17.9C1516.01 18.2067 1516.79 18.5133 1517.53 18.82C1518.27 19.1133 1518.89 19.3867 1519.39 19.64L1518.25 22.4C1517.69 22.1067 1517.07 21.8133 1516.39 21.52C1515.71 21.2133 1515.01 20.92 1514.31 20.64C1513.61 20.36 1512.93 20.1 1512.25 19.86C1511.58 19.62 1510.97 19.4067 1510.43 19.22V16.36ZM1530.37 13.02C1530.98 13.1 1531.67 13.16 1532.43 13.2C1533.2 13.2267 1533.98 13.24 1534.77 13.24C1535.57 13.2267 1536.33 13.2 1537.07 13.16C1537.8 13.1067 1538.43 13.0533 1538.97 13V15.58C1538.35 15.6333 1537.68 15.68 1536.95 15.72C1536.21 15.7467 1535.46 15.76 1534.69 15.76C1533.91 15.76 1533.15 15.7467 1532.41 15.72C1531.67 15.68 1530.99 15.6333 1530.37 15.58V13.02ZM1531.97 21.56C1531.89 21.8933 1531.83 22.1933 1531.79 22.46C1531.75 22.7133 1531.73 22.9733 1531.73 23.24C1531.73 23.4533 1531.78 23.6533 1531.89 23.84C1531.99 24.0133 1532.15 24.1667 1532.37 24.3C1532.59 24.42 1532.88 24.5133 1533.23 24.58C1533.59 24.6333 1534.02 24.66 1534.53 24.66C1535.42 24.66 1536.26 24.62 1537.05 24.54C1537.83 24.4467 1538.67 24.3133 1539.55 24.14L1539.59 26.84C1538.95 26.96 1538.21 27.0533 1537.37 27.12C1536.54 27.1867 1535.56 27.22 1534.43 27.22C1532.71 27.22 1531.43 26.9333 1530.59 26.36C1529.75 25.7733 1529.33 24.9667 1529.33 23.94C1529.33 23.5533 1529.35 23.1533 1529.41 22.74C1529.47 22.3133 1529.56 21.8467 1529.67 21.34L1531.97 21.56ZM1527.29 11.68C1527.23 11.8133 1527.17 12 1527.11 12.24C1527.04 12.48 1526.97 12.7133 1526.91 12.94C1526.85 13.1667 1526.81 13.34 1526.79 13.46C1526.75 13.74 1526.68 14.1067 1526.59 14.56C1526.51 15 1526.42 15.5 1526.33 16.06C1526.25 16.6067 1526.17 17.1667 1526.09 17.74C1526.01 18.3133 1525.94 18.8667 1525.89 19.4C1525.85 19.9333 1525.83 20.4 1525.83 20.8C1525.83 20.9867 1525.83 21.2 1525.83 21.44C1525.84 21.68 1525.87 21.9 1525.91 22.1C1526 21.8733 1526.1 21.6467 1526.21 21.42C1526.31 21.1933 1526.42 20.9667 1526.53 20.74C1526.63 20.5 1526.73 20.2733 1526.81 20.06L1528.05 21.04C1527.86 21.5867 1527.67 22.1733 1527.47 22.8C1527.28 23.4267 1527.11 24.02 1526.95 24.58C1526.8 25.1267 1526.69 25.58 1526.61 25.94C1526.58 26.0867 1526.55 26.2533 1526.53 26.44C1526.51 26.6267 1526.51 26.7733 1526.51 26.88C1526.51 26.9867 1526.51 27.1133 1526.51 27.26C1526.52 27.42 1526.53 27.5667 1526.55 27.7L1524.23 27.86C1524.03 27.1667 1523.85 26.2467 1523.69 25.1C1523.53 23.94 1523.45 22.68 1523.45 21.32C1523.45 20.5733 1523.48 19.8133 1523.55 19.04C1523.61 18.2667 1523.69 17.5267 1523.79 16.82C1523.88 16.1 1523.97 15.4467 1524.05 14.86C1524.14 14.2733 1524.22 13.7867 1524.29 13.4C1524.31 13.12 1524.35 12.8067 1524.39 12.46C1524.44 12.1 1524.47 11.76 1524.49 11.44L1527.29 11.68ZM1541.89 16.04C1542.26 15.9733 1542.67 15.88 1543.13 15.76C1543.58 15.64 1543.99 15.5333 1544.35 15.44C1544.73 15.32 1545.25 15.1533 1545.91 14.94C1546.57 14.7267 1547.31 14.5133 1548.11 14.3C1548.91 14.0867 1549.72 13.9067 1550.55 13.76C1551.39 13.6 1552.17 13.52 1552.89 13.52C1554.1 13.52 1555.19 13.7467 1556.17 14.2C1557.14 14.6533 1557.91 15.3067 1558.49 16.16C1559.06 17.0133 1559.35 18.06 1559.35 19.3C1559.35 20.2067 1559.18 21.0467 1558.85 21.82C1558.51 22.5933 1558.02 23.2867 1557.37 23.9C1556.73 24.5133 1555.95 25.0467 1555.03 25.5C1554.11 25.9533 1553.05 26.32 1551.87 26.6C1550.69 26.8667 1549.4 27.0333 1547.99 27.1L1546.83 24.44C1548.19 24.4133 1549.45 24.2933 1550.61 24.08C1551.78 23.8533 1552.81 23.5333 1553.69 23.12C1554.57 22.6933 1555.25 22.16 1555.75 21.52C1556.24 20.88 1556.49 20.1267 1556.49 19.26C1556.49 18.6333 1556.35 18.0733 1556.07 17.58C1555.79 17.0733 1555.37 16.6733 1554.81 16.38C1554.26 16.0867 1553.59 15.94 1552.79 15.94C1552.2 15.94 1551.55 16.0133 1550.85 16.16C1550.14 16.2933 1549.41 16.4733 1548.67 16.7C1547.93 16.9267 1547.21 17.1733 1546.51 17.44C1545.8 17.6933 1545.15 17.9467 1544.55 18.2C1543.95 18.4533 1543.44 18.6667 1543.03 18.84L1541.89 16.04ZM1565.41 12.7C1565.35 12.94 1565.31 13.2133 1565.27 13.52C1565.24 13.8267 1565.21 14.1267 1565.19 14.42C1565.17 14.7133 1565.17 14.9533 1565.17 15.14C1565.15 15.58 1565.15 16.0333 1565.15 16.5C1565.16 16.9667 1565.17 17.4467 1565.19 17.94C1565.21 18.42 1565.25 18.9 1565.29 19.38C1565.38 20.34 1565.51 21.1867 1565.69 21.92C1565.86 22.6533 1566.09 23.2267 1566.37 23.64C1566.65 24.04 1567 24.24 1567.43 24.24C1567.65 24.24 1567.87 24.1133 1568.09 23.86C1568.31 23.6067 1568.51 23.28 1568.69 22.88C1568.87 22.4667 1569.03 22.0333 1569.17 21.58C1569.31 21.1267 1569.44 20.7 1569.55 20.3L1571.55 22.74C1571.11 23.9 1570.67 24.8267 1570.23 25.52C1569.8 26.2 1569.35 26.6933 1568.89 27C1568.42 27.2933 1567.91 27.44 1567.37 27.44C1566.65 27.44 1565.96 27.2 1565.31 26.72C1564.67 26.24 1564.12 25.4667 1563.67 24.4C1563.21 23.32 1562.89 21.8867 1562.71 20.1C1562.64 19.4867 1562.59 18.84 1562.55 18.16C1562.52 17.48 1562.5 16.8333 1562.49 16.22C1562.49 15.6067 1562.49 15.1 1562.49 14.7C1562.49 14.42 1562.47 14.0867 1562.45 13.7C1562.42 13.3133 1562.38 12.9667 1562.33 12.66L1565.41 12.7ZM1575.41 13.16C1575.78 13.6133 1576.14 14.1667 1576.49 14.82C1576.83 15.4733 1577.15 16.1733 1577.45 16.92C1577.74 17.6667 1578 18.4333 1578.23 19.22C1578.45 19.9933 1578.63 20.7533 1578.77 21.5C1578.91 22.2333 1579.01 22.9067 1579.05 23.52L1576.41 24.54C1576.34 23.7267 1576.22 22.84 1576.05 21.88C1575.87 20.92 1575.64 19.9533 1575.35 18.98C1575.05 18.0067 1574.7 17.0867 1574.29 16.22C1573.89 15.3533 1573.41 14.6067 1572.87 13.98L1575.41 13.16ZM1580.42 13.24C1580.82 13.2267 1581.2 13.2133 1581.56 13.2C1581.92 13.1733 1582.2 13.1533 1582.4 13.14C1582.81 13.1 1583.32 13.0533 1583.92 13C1584.52 12.9467 1585.19 12.8867 1585.94 12.82C1586.7 12.7533 1587.51 12.6867 1588.36 12.62C1589.21 12.54 1590.1 12.46 1591.02 12.38C1591.71 12.3267 1592.41 12.28 1593.1 12.24C1593.79 12.1867 1594.45 12.1467 1595.06 12.12C1595.69 12.08 1596.23 12.0533 1596.68 12.04L1596.7 14.6C1596.34 14.6 1595.93 14.6067 1595.46 14.62C1594.99 14.6333 1594.53 14.66 1594.06 14.7C1593.61 14.7267 1593.2 14.78 1592.84 14.86C1592.24 15.02 1591.68 15.2933 1591.16 15.68C1590.65 16.0533 1590.21 16.5 1589.82 17.02C1589.43 17.54 1589.13 18.1 1588.92 18.7C1588.72 19.2867 1588.62 19.88 1588.62 20.48C1588.62 21.1333 1588.73 21.7133 1588.96 22.22C1589.19 22.7133 1589.5 23.14 1589.9 23.5C1590.31 23.8467 1590.79 24.14 1591.34 24.38C1591.89 24.6067 1592.47 24.78 1593.1 24.9C1593.74 25.02 1594.4 25.1 1595.08 25.14L1594.14 27.88C1593.3 27.8267 1592.48 27.6933 1591.68 27.48C1590.89 27.2667 1590.15 26.9733 1589.46 26.6C1588.78 26.2267 1588.18 25.7733 1587.66 25.24C1587.14 24.6933 1586.73 24.0733 1586.44 23.38C1586.15 22.6733 1586 21.8867 1586 21.02C1586 20.0467 1586.15 19.16 1586.46 18.36C1586.77 17.56 1587.15 16.86 1587.6 16.26C1588.05 15.6467 1588.51 15.1733 1588.96 14.84C1588.59 14.88 1588.13 14.9333 1587.6 15C1587.08 15.0533 1586.51 15.12 1585.9 15.2C1585.3 15.2667 1584.69 15.34 1584.06 15.42C1583.43 15.5 1582.83 15.5933 1582.24 15.7C1581.67 15.7933 1581.15 15.8867 1580.68 15.98L1580.42 13.24Z" fill="#4B4B4B"/>
</g>
<defs>
<clipPath id="clip0_2809_4267">
<rect width="1600" height="42" fill="white"/>
</clipPath>
</defs>
</svg>
