<svg width="1600" height="51" viewBox="0 0 1600 51" fill="none" xmlns="http://www.w3.org/2000/svg">
<g clip-path="url(#clip0_2809_4303)">
<path d="M7.8 13H0V11.2H3V1.6H1.8V-0.200001H6V1.6H4.8V11.2H7.8V13ZM16.2039 13H14.4039V6.4H13.8039V7.6H13.2039V8.8H12.6039V10H12.0039V8.8H11.4039V7.6H10.8039V6.4H10.2039V13H8.40391V-0.200001H9.00391V1H9.60391V2.2H10.2039V3.4H10.8039V4.6H11.4039V5.8H12.0039V7H12.6039V5.8H13.2039V4.6H13.8039V3.4H14.4039V2.2H15.0039V1H15.6039V-0.200001H16.2039V13ZM24.6078 5.8H24.0078V6.4H23.4078V7H22.8078V7.6H18.6078V13H16.8078V-0.200001H22.8078V0.399999H23.4078V1H24.0078V1.6H24.6078V5.8ZM22.8078 5.2V2.2H22.2078V1.6H18.6078V5.8H22.2078V5.2H22.8078ZM33.0117 13H31.2117V10H27.0117V13H25.2117V8.2V7.6V6.4H25.8117V5.2H26.4117V4H27.0117V2.8H27.6117V1.6H28.2117V0.399999H28.8117V-0.200001H29.4117V0.399999H30.0117V1.6H30.6117V2.8H31.2117V4H31.8117V5.2H32.4117V6.4H33.0117V7.6V8.2V13ZM31.2117 8.2V7.6V7H30.6117V5.8H30.0117V4.6H29.4117V3.4H28.8117V4.6H28.2117V5.8H27.6117V7H27.0117V7.6V8.2H31.2117ZM41.4156 11.2H40.8156V11.8H40.2156V12.4H39.6156V13H36.0156V12.4H35.4156V11.8H34.8156V11.2H34.2156V10.6H33.6156V2.2H34.2156V1.6H34.8156V1H35.4156V0.399999H36.0156V-0.200001H39.6156V0.399999H40.2156V1H40.8156V1.6H41.4156V3.4H39.6156V2.2H39.0156V1.6H36.6156V2.2H36.0156V2.8H35.4156V10H36.0156V10.6H36.6156V11.2H39.0156V10.6H39.6156V9.4H41.4156V11.2ZM49.8195 1.6H46.8195V13H45.0195V1.6H42.0195V-0.200001H49.8195V1.6ZM66.6273 10.6H66.0273V11.2H65.4273V11.8H64.8273V12.4H64.2273V13H61.2273V12.4H60.6273V11.8H60.0273V11.2H59.4273V10.6H58.8273V2.2H59.4273V1.6H60.0273V1H60.6273V0.399999H61.2273V-0.200001H64.2273V0.399999H64.8273V1H65.4273V1.6H66.0273V2.2H66.6273V10.6ZM64.8273 10V2.8H64.2273V2.2H63.6273V1.6H61.8273V2.2H61.2273V2.8H60.6273V10H61.2273V10.6H61.8273V11.2H63.6273V10.6H64.2273V10H64.8273ZM75.0312 1.6H69.0312V5.2H73.2312V7H69.0312V13H67.2312V-0.200001H75.0312V1.6ZM7.8 24.6H7.2V25.2H6.6V25.8H6V26.4H5.4V27H2.4V26.4H1.8V25.8H1.2V25.2H0.6V24.6H0V16.2H0.6V15.6H1.2V15H1.8V14.4H2.4V13.8H5.4V14.4H6V15H6.6V15.6H7.2V16.2H7.8V24.6ZM6 24V16.8H5.4V16.2H4.8V15.6H3V16.2H2.4V16.8H1.8V24H2.4V24.6H3V25.2H4.8V24.6H5.4V24H6ZM16.2039 25.2H15.6039V25.8H15.0039V26.4H14.4039V27H10.2039V26.4H9.60391V25.8H9.00391V25.2H8.40391V13.8H10.2039V24.6H10.8039V25.2H13.8039V24.6H14.4039V13.8H16.2039V25.2ZM24.6078 27H22.8078V24.6H22.2078V23.4H21.6078V22.2H21.0078V21H18.6078V27H16.8078V13.8H22.8078V14.4H23.4078V15H24.0078V15.6H24.6078V19.2H24.0078V19.8H23.4078V20.4H22.8078V21.6H23.4078V22.8H24.0078V24H24.6078V27ZM22.8078 18.6V16.2H22.2078V15.6H18.6078V19.2H22.2078V18.6H22.8078ZM41.4156 27H40.8156V25.8H40.2156V24.6H39.6156V23.4H39.0156V22.2H38.4156V21H37.8156V19.8H37.2156V21H36.6156V22.2H36.0156V23.4H35.4156V24.6H34.8156V25.8H34.2156V27H33.6156V13.8H35.4156V20.4H36.0156V19.2H36.6156V18H37.2156V16.8H37.8156V18H38.4156V19.2H39.0156V20.4H39.6156V13.8H41.4156V27ZM49.8195 24.6H49.2195V25.2H48.6195V25.8H48.0195V26.4H47.4195V27H44.4195V26.4H43.8195V25.8H43.2195V25.2H42.6195V24.6H42.0195V16.2H42.6195V15.6H43.2195V15H43.8195V14.4H44.4195V13.8H47.4195V14.4H48.0195V15H48.6195V15.6H49.2195V16.2H49.8195V24.6ZM48.0195 24V16.8H47.4195V16.2H46.8195V15.6H45.0195V16.2H44.4195V16.8H43.8195V24H44.4195V24.6H45.0195V25.2H46.8195V24.6H47.4195V24H48.0195ZM58.2234 27H56.4234V24.6H55.8234V23.4H55.2234V22.2H54.6234V21H52.2234V27H50.4234V13.8H56.4234V14.4H57.0234V15H57.6234V15.6H58.2234V19.2H57.6234V19.8H57.0234V20.4H56.4234V21.6H57.0234V22.8H57.6234V24H58.2234V27ZM56.4234 18.6V16.2H55.8234V15.6H52.2234V19.2H55.8234V18.6H56.4234ZM66.6273 27H64.8273V25.8H64.2273V24.6H63.6273V23.4H63.0273V22.2H62.4273V21H61.2273V21.6H60.6273V27H58.8273V13.8H60.6273V19.2H61.2273V18.6H61.8273V18H62.4273V17.4H63.0273V16.8H63.6273V16.2H64.2273V15.58H64.8273V15H65.4273V14.4H66.0273V13.8H66.6273V16.2H66.0273V16.8H65.4273V17.4H64.8273V17.98H64.2273V18.6H63.6273V19.2H63.0273V19.8H63.6273V20.4H64.2273V21.6H64.8273V22.8H65.4273V24H66.0273V25.2H66.6273V27Z" fill="#4B4B4B"/>
<path d="M1422.09 12.34C1422.09 12.66 1422.2 12.9333 1422.43 13.16C1422.65 13.3733 1422.92 13.48 1423.23 13.48C1423.55 13.48 1423.82 13.3733 1424.05 13.16C1424.27 12.9333 1424.39 12.66 1424.39 12.34C1424.39 12.02 1424.27 11.7467 1424.05 11.52C1423.82 11.2933 1423.55 11.18 1423.23 11.18C1422.92 11.18 1422.65 11.2933 1422.43 11.52C1422.2 11.7467 1422.09 12.02 1422.09 12.34ZM1420.85 12.34C1420.85 11.9 1420.95 11.5 1421.17 11.14C1421.39 10.7667 1421.69 10.4733 1422.05 10.26C1422.41 10.0467 1422.8 9.94 1423.23 9.94C1423.67 9.94 1424.07 10.0467 1424.43 10.26C1424.8 10.4733 1425.09 10.7667 1425.31 11.14C1425.52 11.5 1425.63 11.9 1425.63 12.34C1425.63 12.7667 1425.52 13.16 1425.31 13.52C1425.09 13.88 1424.8 14.1733 1424.43 14.4C1424.07 14.6133 1423.67 14.72 1423.23 14.72C1422.8 14.72 1422.41 14.6133 1422.05 14.4C1421.69 14.1733 1421.39 13.88 1421.17 13.52C1420.95 13.16 1420.85 12.7667 1420.85 12.34ZM1423.27 13.92C1423.17 14.1067 1423.09 14.3333 1423.03 14.6C1422.96 14.8533 1422.89 15.0867 1422.83 15.3C1422.72 15.7933 1422.58 16.3467 1422.41 16.96C1422.23 17.56 1422.03 18.1867 1421.79 18.84C1421.55 19.4933 1421.26 20.14 1420.93 20.78C1420.61 21.42 1420.24 22.02 1419.83 22.58C1419.23 23.38 1418.53 24.1267 1417.73 24.82C1416.93 25.5133 1416.03 26.14 1415.05 26.7C1414.06 27.26 1412.97 27.7333 1411.79 28.12L1409.61 25.72C1410.94 25.4 1412.09 25.0067 1413.05 24.54C1414.01 24.0733 1414.84 23.54 1415.55 22.94C1416.27 22.34 1416.9 21.7 1417.45 21.02C1417.89 20.46 1418.26 19.8533 1418.57 19.2C1418.89 18.5467 1419.15 17.8933 1419.35 17.24C1419.56 16.5733 1419.71 15.9533 1419.79 15.38C1419.59 15.38 1419.25 15.38 1418.79 15.38C1418.33 15.38 1417.79 15.38 1417.17 15.38C1416.55 15.38 1415.91 15.38 1415.23 15.38C1414.56 15.38 1413.91 15.38 1413.29 15.38C1412.66 15.38 1412.09 15.38 1411.59 15.38C1411.09 15.38 1410.73 15.38 1410.49 15.38C1410.02 15.38 1409.57 15.3867 1409.13 15.4C1408.7 15.4133 1408.36 15.4333 1408.11 15.46V12.64C1408.31 12.6667 1408.55 12.6933 1408.83 12.72C1409.12 12.7467 1409.41 12.7667 1409.71 12.78C1410.01 12.7933 1410.27 12.8 1410.49 12.8C1410.7 12.8 1411 12.8 1411.39 12.8C1411.79 12.8 1412.25 12.8 1412.77 12.8C1413.29 12.8 1413.83 12.8 1414.39 12.8C1414.96 12.8 1415.53 12.8 1416.09 12.8C1416.66 12.8 1417.19 12.8 1417.69 12.8C1418.18 12.8 1418.61 12.8 1418.97 12.8C1419.33 12.8 1419.59 12.8 1419.75 12.8C1419.95 12.8 1420.19 12.7933 1420.47 12.78C1420.76 12.7667 1421.04 12.72 1421.31 12.64L1423.27 13.92ZM1427.93 12.82C1428.34 12.8333 1428.73 12.8467 1429.09 12.86C1429.46 12.86 1429.78 12.86 1430.05 12.86C1430.26 12.86 1430.59 12.86 1431.03 12.86C1431.48 12.86 1432.01 12.86 1432.61 12.86C1433.21 12.86 1433.85 12.86 1434.53 12.86C1435.21 12.86 1435.89 12.86 1436.57 12.86C1437.26 12.86 1437.91 12.86 1438.51 12.86C1439.11 12.86 1439.63 12.86 1440.07 12.86C1440.52 12.86 1440.85 12.86 1441.05 12.86C1441.3 12.86 1441.6 12.86 1441.95 12.86C1442.31 12.8467 1442.67 12.8333 1443.03 12.82C1443.01 13.1267 1443 13.4533 1442.99 13.8C1442.99 14.1333 1442.99 14.4533 1442.99 14.76C1442.99 14.9467 1442.99 15.24 1442.99 15.64C1442.99 16.0267 1442.99 16.4933 1442.99 17.04C1442.99 17.5733 1442.99 18.1467 1442.99 18.76C1442.99 19.36 1442.99 19.9667 1442.99 20.58C1442.99 21.1933 1442.99 21.7733 1442.99 22.32C1442.99 22.8533 1442.99 23.32 1442.99 23.72C1442.99 24.1067 1442.99 24.3867 1442.99 24.56C1442.99 24.76 1442.99 25.0133 1442.99 25.32C1443 25.6133 1443.01 25.9133 1443.01 26.22C1443.01 26.5133 1443.01 26.7733 1443.01 27C1443.02 27.2133 1443.03 27.3267 1443.03 27.34H1440.27C1440.27 27.3133 1440.27 27.1533 1440.27 26.86C1440.28 26.5533 1440.29 26.1933 1440.29 25.78C1440.3 25.3667 1440.31 24.98 1440.31 24.62C1440.31 24.4467 1440.31 24.1533 1440.31 23.74C1440.31 23.3267 1440.31 22.84 1440.31 22.28C1440.31 21.72 1440.31 21.1267 1440.31 20.5C1440.31 19.8733 1440.31 19.26 1440.31 18.66C1440.31 18.06 1440.31 17.5133 1440.31 17.02C1440.31 16.5267 1440.31 16.1333 1440.31 15.84C1440.31 15.5467 1440.31 15.4 1440.31 15.4H1430.65C1430.65 15.4 1430.65 15.5467 1430.65 15.84C1430.65 16.1333 1430.65 16.5267 1430.65 17.02C1430.65 17.5 1430.65 18.0467 1430.65 18.66C1430.65 19.26 1430.65 19.8733 1430.65 20.5C1430.65 21.1133 1430.65 21.7067 1430.65 22.28C1430.65 22.84 1430.65 23.3267 1430.65 23.74C1430.65 24.1533 1430.65 24.4467 1430.65 24.62C1430.65 24.86 1430.65 25.1333 1430.65 25.44C1430.65 25.7333 1430.65 26.02 1430.65 26.3C1430.66 26.58 1430.67 26.8133 1430.67 27C1430.67 27.2 1430.67 27.3133 1430.67 27.34H1427.91C1427.91 27.3133 1427.91 27.2 1427.91 27C1427.92 26.8 1427.93 26.5533 1427.93 26.26C1427.94 25.9667 1427.95 25.6667 1427.95 25.36C1427.96 25.0533 1427.97 24.78 1427.97 24.54C1427.97 24.3667 1427.97 24.0867 1427.97 23.7C1427.97 23.3 1427.97 22.8267 1427.97 22.28C1427.97 21.7333 1427.97 21.16 1427.97 20.56C1427.97 19.9467 1427.97 19.3333 1427.97 18.72C1427.97 18.1067 1427.97 17.5333 1427.97 17C1427.97 16.4533 1427.97 15.9867 1427.97 15.6C1427.97 15.2133 1427.97 14.9333 1427.97 14.76C1427.97 14.48 1427.97 14.16 1427.97 13.8C1427.97 13.4267 1427.95 13.1 1427.93 12.82ZM1441.31 23.7V26.26H1429.29V23.7H1441.31ZM1459.41 11.64C1459.59 11.92 1459.79 12.2467 1460.01 12.62C1460.23 12.98 1460.45 13.3467 1460.67 13.72C1460.88 14.08 1461.07 14.42 1461.23 14.74L1459.49 15.48C1459.29 15.0533 1459.1 14.6733 1458.93 14.34C1458.75 13.9933 1458.57 13.66 1458.37 13.34C1458.18 13.0067 1457.97 12.6733 1457.73 12.34L1459.41 11.64ZM1462.15 10.68C1462.36 10.9333 1462.58 11.24 1462.81 11.6C1463.03 11.96 1463.25 12.32 1463.47 12.68C1463.68 13.04 1463.87 13.3667 1464.03 13.66L1462.33 14.42C1462.11 14.0067 1461.91 13.6333 1461.71 13.3C1461.52 12.9667 1461.33 12.6467 1461.13 12.34C1460.93 12.0333 1460.7 11.7133 1460.45 11.38L1462.15 10.68ZM1450.71 11.26C1451.04 11.4333 1451.41 11.6467 1451.83 11.9C1452.24 12.1533 1452.66 12.42 1453.09 12.7C1453.51 12.9667 1453.92 13.2267 1454.31 13.48C1454.69 13.72 1455.01 13.9333 1455.27 14.12L1453.79 16.32C1453.51 16.1333 1453.17 15.9133 1452.79 15.66C1452.41 15.4067 1452.01 15.1467 1451.59 14.88C1451.17 14.6133 1450.76 14.36 1450.35 14.12C1449.95 13.8667 1449.59 13.6467 1449.27 13.46L1450.71 11.26ZM1447.01 25.46C1447.75 25.3267 1448.51 25.16 1449.29 24.96C1450.06 24.76 1450.83 24.52 1451.59 24.24C1452.35 23.9467 1453.09 23.6 1453.81 23.2C1454.94 22.56 1455.99 21.84 1456.97 21.04C1457.95 20.24 1458.84 19.3933 1459.63 18.5C1460.41 17.5933 1461.07 16.66 1461.59 15.7L1463.13 18.42C1462.21 19.8067 1461.06 21.12 1459.69 22.36C1458.33 23.5867 1456.83 24.6733 1455.19 25.62C1454.51 25.9933 1453.76 26.3533 1452.95 26.7C1452.13 27.0333 1451.33 27.32 1450.55 27.56C1449.77 27.8 1449.09 27.9733 1448.51 28.08L1447.01 25.46ZM1447.63 15.82C1447.96 15.9933 1448.34 16.2067 1448.77 16.46C1449.19 16.7133 1449.62 16.9733 1450.05 17.24C1450.47 17.4933 1450.87 17.7467 1451.25 18C1451.63 18.24 1451.95 18.4533 1452.21 18.64L1450.75 20.88C1450.45 20.68 1450.11 20.4533 1449.73 20.2C1449.35 19.9467 1448.95 19.6867 1448.53 19.42C1448.11 19.1533 1447.7 18.9 1447.29 18.66C1446.89 18.4067 1446.52 18.1933 1446.19 18.02L1447.63 15.82ZM1468.15 16.16C1468.37 16.2 1468.64 16.2267 1468.95 16.24C1469.25 16.2533 1469.51 16.26 1469.73 16.26H1478.89C1479.13 16.26 1479.39 16.2533 1479.67 16.24C1479.95 16.2267 1480.21 16.2 1480.45 16.16V18.68C1480.19 18.6533 1479.93 18.6333 1479.65 18.62C1479.37 18.6067 1479.11 18.6 1478.89 18.6H1469.73C1469.51 18.6 1469.25 18.6067 1468.95 18.62C1468.64 18.6333 1468.37 18.6533 1468.15 18.68V16.16ZM1472.85 26.4V17.54H1475.47V26.4H1472.85ZM1467.13 24.92C1467.38 24.9467 1467.65 24.9733 1467.95 25C1468.24 25.0267 1468.51 25.04 1468.77 25.04H1479.83C1480.11 25.04 1480.37 25.0267 1480.63 25C1480.89 24.96 1481.13 24.9333 1481.35 24.92V27.54C1481.13 27.5 1480.87 27.4733 1480.55 27.46C1480.24 27.4467 1480 27.44 1479.83 27.44H1468.77C1468.53 27.44 1468.26 27.4467 1467.97 27.46C1467.67 27.4733 1467.39 27.5 1467.13 27.54V24.92ZM1501.59 14.56C1501.48 14.7467 1501.37 14.9733 1501.25 15.24C1501.13 15.4933 1501.02 15.7467 1500.93 16C1500.75 16.5867 1500.51 17.26 1500.19 18.02C1499.88 18.7667 1499.49 19.5467 1499.03 20.36C1498.57 21.16 1498.05 21.9333 1497.45 22.68C1496.49 23.8267 1495.37 24.8667 1494.09 25.8C1492.82 26.7333 1491.25 27.5733 1489.37 28.32L1487.01 26.2C1488.37 25.8 1489.54 25.34 1490.53 24.82C1491.51 24.3 1492.37 23.7467 1493.11 23.16C1493.84 22.56 1494.49 21.9267 1495.07 21.26C1495.53 20.74 1495.96 20.1533 1496.35 19.5C1496.73 18.8333 1497.07 18.1733 1497.35 17.52C1497.63 16.8667 1497.81 16.2933 1497.91 15.8H1491.17L1492.09 13.54C1492.27 13.54 1492.56 13.54 1492.95 13.54C1493.35 13.54 1493.79 13.54 1494.29 13.54C1494.79 13.54 1495.29 13.54 1495.77 13.54C1496.26 13.54 1496.69 13.54 1497.05 13.54C1497.42 13.54 1497.67 13.54 1497.81 13.54C1498.11 13.54 1498.42 13.52 1498.73 13.48C1499.05 13.44 1499.32 13.38 1499.55 13.3L1501.59 14.56ZM1495.07 11.4C1494.83 11.7467 1494.59 12.12 1494.37 12.52C1494.14 12.92 1493.97 13.2267 1493.85 13.44C1493.39 14.24 1492.83 15.0733 1492.17 15.94C1491.51 16.7933 1490.77 17.6267 1489.93 18.44C1489.09 19.24 1488.19 19.9733 1487.25 20.64L1484.99 18.98C1485.87 18.4333 1486.64 17.8733 1487.31 17.3C1487.99 16.7267 1488.57 16.16 1489.07 15.6C1489.56 15.0267 1489.98 14.48 1490.33 13.96C1490.69 13.4267 1490.99 12.9533 1491.25 12.54C1491.41 12.2867 1491.57 11.96 1491.75 11.56C1491.92 11.1467 1492.05 10.7733 1492.15 10.44L1495.07 11.4ZM1509.29 25.08C1509.29 24.8267 1509.29 24.4133 1509.29 23.84C1509.29 23.2533 1509.29 22.58 1509.29 21.82C1509.29 21.0467 1509.29 20.24 1509.29 19.4C1509.29 18.56 1509.29 17.7533 1509.29 16.98C1509.29 16.1933 1509.29 15.5 1509.29 14.9C1509.29 14.3 1509.29 13.86 1509.29 13.58C1509.29 13.2333 1509.27 12.8333 1509.23 12.38C1509.2 11.9267 1509.15 11.5267 1509.09 11.18H1512.21C1512.17 11.5267 1512.13 11.9133 1512.09 12.34C1512.05 12.7533 1512.03 13.1667 1512.03 13.58C1512.03 13.9533 1512.03 14.46 1512.03 15.1C1512.03 15.74 1512.03 16.4533 1512.03 17.24C1512.03 18.0133 1512.03 18.8067 1512.03 19.62C1512.03 20.42 1512.03 21.1933 1512.03 21.94C1512.03 22.6867 1512.03 23.34 1512.03 23.9C1512.03 24.4467 1512.03 24.84 1512.03 25.08C1512.03 25.2667 1512.03 25.5333 1512.05 25.88C1512.06 26.2133 1512.09 26.56 1512.13 26.92C1512.17 27.28 1512.19 27.6 1512.21 27.88H1509.09C1509.14 27.48 1509.19 27.0133 1509.23 26.48C1509.27 25.9467 1509.29 25.48 1509.29 25.08ZM1511.43 16.36C1512.09 16.5333 1512.84 16.76 1513.67 17.04C1514.49 17.3067 1515.33 17.5933 1516.17 17.9C1517.01 18.2067 1517.79 18.5133 1518.53 18.82C1519.27 19.1133 1519.89 19.3867 1520.39 19.64L1519.25 22.4C1518.69 22.1067 1518.07 21.8133 1517.39 21.52C1516.71 21.2133 1516.01 20.92 1515.31 20.64C1514.61 20.36 1513.93 20.1 1513.25 19.86C1512.58 19.62 1511.97 19.4067 1511.43 19.22V16.36ZM1531.37 13.02C1531.98 13.1 1532.67 13.16 1533.43 13.2C1534.2 13.2267 1534.98 13.24 1535.77 13.24C1536.57 13.2267 1537.33 13.2 1538.07 13.16C1538.8 13.1067 1539.43 13.0533 1539.97 13V15.58C1539.35 15.6333 1538.68 15.68 1537.95 15.72C1537.21 15.7467 1536.46 15.76 1535.69 15.76C1534.91 15.76 1534.15 15.7467 1533.41 15.72C1532.67 15.68 1531.99 15.6333 1531.37 15.58V13.02ZM1532.97 21.56C1532.89 21.8933 1532.83 22.1933 1532.79 22.46C1532.75 22.7133 1532.73 22.9733 1532.73 23.24C1532.73 23.4533 1532.78 23.6533 1532.89 23.84C1532.99 24.0133 1533.15 24.1667 1533.37 24.3C1533.59 24.42 1533.88 24.5133 1534.23 24.58C1534.59 24.6333 1535.02 24.66 1535.53 24.66C1536.42 24.66 1537.26 24.62 1538.05 24.54C1538.83 24.4467 1539.67 24.3133 1540.55 24.14L1540.59 26.84C1539.95 26.96 1539.21 27.0533 1538.37 27.12C1537.54 27.1867 1536.56 27.22 1535.43 27.22C1533.71 27.22 1532.43 26.9333 1531.59 26.36C1530.75 25.7733 1530.33 24.9667 1530.33 23.94C1530.33 23.5533 1530.35 23.1533 1530.41 22.74C1530.47 22.3133 1530.56 21.8467 1530.67 21.34L1532.97 21.56ZM1528.29 11.68C1528.23 11.8133 1528.17 12 1528.11 12.24C1528.04 12.48 1527.97 12.7133 1527.91 12.94C1527.85 13.1667 1527.81 13.34 1527.79 13.46C1527.75 13.74 1527.68 14.1067 1527.59 14.56C1527.51 15 1527.42 15.5 1527.33 16.06C1527.25 16.6067 1527.17 17.1667 1527.09 17.74C1527.01 18.3133 1526.94 18.8667 1526.89 19.4C1526.85 19.9333 1526.83 20.4 1526.83 20.8C1526.83 20.9867 1526.83 21.2 1526.83 21.44C1526.84 21.68 1526.87 21.9 1526.91 22.1C1527 21.8733 1527.1 21.6467 1527.21 21.42C1527.31 21.1933 1527.42 20.9667 1527.53 20.74C1527.63 20.5 1527.73 20.2733 1527.81 20.06L1529.05 21.04C1528.86 21.5867 1528.67 22.1733 1528.47 22.8C1528.28 23.4267 1528.11 24.02 1527.95 24.58C1527.8 25.1267 1527.69 25.58 1527.61 25.94C1527.58 26.0867 1527.55 26.2533 1527.53 26.44C1527.51 26.6267 1527.51 26.7733 1527.51 26.88C1527.51 26.9867 1527.51 27.1133 1527.51 27.26C1527.52 27.42 1527.53 27.5667 1527.55 27.7L1525.23 27.86C1525.03 27.1667 1524.85 26.2467 1524.69 25.1C1524.53 23.94 1524.45 22.68 1524.45 21.32C1524.45 20.5733 1524.48 19.8133 1524.55 19.04C1524.61 18.2667 1524.69 17.5267 1524.79 16.82C1524.88 16.1 1524.97 15.4467 1525.05 14.86C1525.14 14.2733 1525.22 13.7867 1525.29 13.4C1525.31 13.12 1525.35 12.8067 1525.39 12.46C1525.44 12.1 1525.47 11.76 1525.49 11.44L1528.29 11.68ZM1542.89 16.04C1543.26 15.9733 1543.67 15.88 1544.13 15.76C1544.58 15.64 1544.99 15.5333 1545.35 15.44C1545.73 15.32 1546.25 15.1533 1546.91 14.94C1547.57 14.7267 1548.31 14.5133 1549.11 14.3C1549.91 14.0867 1550.72 13.9067 1551.55 13.76C1552.39 13.6 1553.17 13.52 1553.89 13.52C1555.1 13.52 1556.19 13.7467 1557.17 14.2C1558.14 14.6533 1558.91 15.3067 1559.49 16.16C1560.06 17.0133 1560.35 18.06 1560.35 19.3C1560.35 20.2067 1560.18 21.0467 1559.85 21.82C1559.51 22.5933 1559.02 23.2867 1558.37 23.9C1557.73 24.5133 1556.95 25.0467 1556.03 25.5C1555.11 25.9533 1554.05 26.32 1552.87 26.6C1551.69 26.8667 1550.4 27.0333 1548.99 27.1L1547.83 24.44C1549.19 24.4133 1550.45 24.2933 1551.61 24.08C1552.78 23.8533 1553.81 23.5333 1554.69 23.12C1555.57 22.6933 1556.25 22.16 1556.75 21.52C1557.24 20.88 1557.49 20.1267 1557.49 19.26C1557.49 18.6333 1557.35 18.0733 1557.07 17.58C1556.79 17.0733 1556.37 16.6733 1555.81 16.38C1555.26 16.0867 1554.59 15.94 1553.79 15.94C1553.2 15.94 1552.55 16.0133 1551.85 16.16C1551.14 16.2933 1550.41 16.4733 1549.67 16.7C1548.93 16.9267 1548.21 17.1733 1547.51 17.44C1546.8 17.6933 1546.15 17.9467 1545.55 18.2C1544.95 18.4533 1544.44 18.6667 1544.03 18.84L1542.89 16.04ZM1566.41 12.7C1566.35 12.94 1566.31 13.2133 1566.27 13.52C1566.24 13.8267 1566.21 14.1267 1566.19 14.42C1566.17 14.7133 1566.17 14.9533 1566.17 15.14C1566.15 15.58 1566.15 16.0333 1566.15 16.5C1566.16 16.9667 1566.17 17.4467 1566.19 17.94C1566.21 18.42 1566.25 18.9 1566.29 19.38C1566.38 20.34 1566.51 21.1867 1566.69 21.92C1566.86 22.6533 1567.09 23.2267 1567.37 23.64C1567.65 24.04 1568 24.24 1568.43 24.24C1568.65 24.24 1568.87 24.1133 1569.09 23.86C1569.31 23.6067 1569.51 23.28 1569.69 22.88C1569.87 22.4667 1570.03 22.0333 1570.17 21.58C1570.31 21.1267 1570.44 20.7 1570.55 20.3L1572.55 22.74C1572.11 23.9 1571.67 24.8267 1571.23 25.52C1570.8 26.2 1570.35 26.6933 1569.89 27C1569.42 27.2933 1568.91 27.44 1568.37 27.44C1567.65 27.44 1566.96 27.2 1566.31 26.72C1565.67 26.24 1565.12 25.4667 1564.67 24.4C1564.21 23.32 1563.89 21.8867 1563.71 20.1C1563.64 19.4867 1563.59 18.84 1563.55 18.16C1563.52 17.48 1563.5 16.8333 1563.49 16.22C1563.49 15.6067 1563.49 15.1 1563.49 14.7C1563.49 14.42 1563.47 14.0867 1563.45 13.7C1563.42 13.3133 1563.38 12.9667 1563.33 12.66L1566.41 12.7ZM1576.41 13.16C1576.78 13.6133 1577.14 14.1667 1577.49 14.82C1577.83 15.4733 1578.15 16.1733 1578.45 16.92C1578.74 17.6667 1579 18.4333 1579.23 19.22C1579.45 19.9933 1579.63 20.7533 1579.77 21.5C1579.91 22.2333 1580.01 22.9067 1580.05 23.52L1577.41 24.54C1577.34 23.7267 1577.22 22.84 1577.05 21.88C1576.87 20.92 1576.64 19.9533 1576.35 18.98C1576.05 18.0067 1575.7 17.0867 1575.29 16.22C1574.89 15.3533 1574.41 14.6067 1573.87 13.98L1576.41 13.16ZM1581.42 13.24C1581.82 13.2267 1582.2 13.2133 1582.56 13.2C1582.92 13.1733 1583.2 13.1533 1583.4 13.14C1583.81 13.1 1584.32 13.0533 1584.92 13C1585.52 12.9467 1586.19 12.8867 1586.94 12.82C1587.7 12.7533 1588.51 12.6867 1589.36 12.62C1590.21 12.54 1591.1 12.46 1592.02 12.38C1592.71 12.3267 1593.41 12.28 1594.1 12.24C1594.79 12.1867 1595.45 12.1467 1596.06 12.12C1596.69 12.08 1597.23 12.0533 1597.68 12.04L1597.7 14.6C1597.34 14.6 1596.93 14.6067 1596.46 14.62C1595.99 14.6333 1595.53 14.66 1595.06 14.7C1594.61 14.7267 1594.2 14.78 1593.84 14.86C1593.24 15.02 1592.68 15.2933 1592.16 15.68C1591.65 16.0533 1591.21 16.5 1590.82 17.02C1590.43 17.54 1590.13 18.1 1589.92 18.7C1589.72 19.2867 1589.62 19.88 1589.62 20.48C1589.62 21.1333 1589.73 21.7133 1589.96 22.22C1590.19 22.7133 1590.5 23.14 1590.9 23.5C1591.31 23.8467 1591.79 24.14 1592.34 24.38C1592.89 24.6067 1593.47 24.78 1594.1 24.9C1594.74 25.02 1595.4 25.1 1596.08 25.14L1595.14 27.88C1594.3 27.8267 1593.48 27.6933 1592.68 27.48C1591.89 27.2667 1591.15 26.9733 1590.46 26.6C1589.78 26.2267 1589.18 25.7733 1588.66 25.24C1588.14 24.6933 1587.73 24.0733 1587.44 23.38C1587.15 22.6733 1587 21.8867 1587 21.02C1587 20.0467 1587.15 19.16 1587.46 18.36C1587.77 17.56 1588.15 16.86 1588.6 16.26C1589.05 15.6467 1589.51 15.1733 1589.96 14.84C1589.59 14.88 1589.13 14.9333 1588.6 15C1588.08 15.0533 1587.51 15.12 1586.9 15.2C1586.3 15.2667 1585.69 15.34 1585.06 15.42C1584.43 15.5 1583.83 15.5933 1583.24 15.7C1582.67 15.7933 1582.15 15.8867 1581.68 15.98L1581.42 13.24Z" fill="#4B4B4B"/>
<line y1="32.5" x2="1600" y2="32.5" stroke="#4B4B4B" stroke-dasharray="4 4"/>
</g>
<defs>
<clipPath id="clip0_2809_4303">
<rect width="1600" height="51" fill="white"/>
</clipPath>
</defs>
</svg>
