<svg width="294" height="65" viewBox="0 0 294 65" fill="none" xmlns="http://www.w3.org/2000/svg">
<path d="M5.01855 0.5H96.9014C98.3697 0.500008 99.7478 1.21809 100.595 2.42676L110.408 16.4316C112.608 19.5711 117.241 19.5676 119.437 16.4248L129.212 2.43164C130.058 1.22018 131.438 0.500129 132.908 0.5H168.158C170.651 0.500207 172.677 2.53339 172.677 5.04688V41.2432C172.677 44.3036 175.145 46.7891 178.195 46.7891H198.303C201.353 46.7889 203.821 44.3036 203.821 41.2432V5.04688C203.821 2.53327 205.847 0.5 208.34 0.5H248.245C263.626 0.500023 274.985 3.12812 282.402 8.30371C289.786 13.4559 293.5 21.2593 293.5 31.8047V33.1973C293.5 43.7414 289.772 51.5438 282.357 56.6963L282.356 56.6973C274.939 61.8728 263.595 64.5 248.245 64.5H149.522C147.03 64.5 145.004 62.4667 145.004 59.9531V37.4004C145.004 32.104 138.314 29.8136 135.104 34.0293L129.506 41.3789C128.769 42.3468 128.369 43.5315 128.369 44.75V59.9531C128.369 62.4667 126.343 64.4999 123.851 64.5H105.216C102.723 64.4998 100.697 62.4666 100.697 59.9531V44.8398C100.697 43.6233 100.3 42.4398 99.5645 41.4727L87.8975 26.123C87.2523 25.2742 86.2626 24.9483 85.3066 25.0117C84.3563 25.0748 83.3951 25.5214 82.7324 26.2734C82.2143 26.8616 81.8705 27.7048 81.6631 28.6191C81.4536 29.5426 81.3726 30.5844 81.4121 31.6113C81.4517 32.6379 81.6134 33.6668 81.8984 34.5645C82.1807 35.4531 82.5991 36.2594 83.1865 36.7891C83.4519 37.0283 83.7039 37.2761 83.9424 37.5312L83.9463 37.5361C86.2709 39.9625 87.456 43.2179 87.4561 47.3574V48.333C87.4559 53.7148 85.3318 57.7123 81.0859 60.3994L81.085 60.4004C76.8312 63.1115 70.4792 64.5 61.9619 64.5H5.01855C2.52564 64.5 0.5 62.4667 0.5 59.9531V5.04688C0.5 2.53327 2.52564 0.5 5.01855 0.5ZM33.2432 38.5469C30.236 38.5469 27.8027 40.9976 27.8027 44.0146C27.8028 47.0317 30.2361 49.4824 33.2432 49.4824H52.4512C55.1178 49.4824 57.1358 49.113 58.4023 48.2871L58.4053 48.2852C59.7371 47.4039 60.3837 46.041 60.3838 44.293V43.8291C60.3838 42.0598 59.7602 40.6796 58.457 39.7939L58.21 39.6377C56.9303 38.8849 54.9807 38.5469 52.4512 38.5469H33.2432ZM237.058 18.0723C234.007 18.0725 231.539 20.5578 231.539 23.6182V41.3828C231.539 44.4433 234.007 46.9295 237.058 46.9297H245.891C251.899 46.9297 256.453 45.9354 259.47 43.8701C262.522 41.7804 264.028 38.594 264.028 34.4043V30.5967C264.028 26.4069 262.522 23.2206 259.47 21.1309C256.453 19.0657 251.899 18.0723 245.891 18.0723H237.058ZM32.8506 15.4717C30.0602 15.4719 27.8028 17.7458 27.8027 20.5449C27.8027 23.3442 30.0602 25.618 32.8506 25.6182H51.5732C54.0562 25.6181 55.9411 25.2644 57.1182 24.4639C58.3232 23.6439 58.9062 22.3919 58.9062 20.8008V20.3359C58.9062 18.7183 58.3265 17.4491 57.1182 16.627C55.9405 15.8259 54.0396 15.4717 51.5273 15.4717H32.8506Z" stroke="#FF4000"/>
</svg>
