<svg width="84" height="91" viewBox="0 0 84 91" fill="none" xmlns="http://www.w3.org/2000/svg">
<path d="M3.9 1.3H0.9V3.1H3V4H0.9V7H0V0.4H3.9V1.3ZM8.10195 7H7.20195V5.5H5.10195V7H4.20195V4.6V4.3V3.7H4.50195V3.1H4.80195V2.5H5.10195V1.9H5.40195V1.3H5.70195V0.699999H6.00195V0.4H6.30195V0.699999H6.60195V1.3H6.90195V1.9H7.20195V2.5H7.50195V3.1H7.80195V3.7H8.10195V4.3V4.6V7ZM7.20195 4.6V4.3V4H6.90195V3.4H6.60195V2.8H6.30195V2.2H6.00195V2.8H5.70195V3.4H5.40195V4H5.10195V4.3V4.6H7.20195ZM12.3039 6.1H12.0039V6.4H11.7039V6.7H11.4039V7H8.40391V0.4H11.4039V0.699999H11.7039V1H12.0039V1.3H12.3039V2.8H12.0039V3.1H11.7039V3.4H11.4039V3.7H11.7039V4H12.0039V4.3H12.3039V6.1ZM11.4039 2.5V1.6H11.1039V1.3H9.30391V3.1H10.8039V2.8H11.1039V2.5H11.4039ZM11.4039 5.8V4.6H11.1039V4.3H10.8039V4H9.30391V6.1H11.1039V5.8H11.4039ZM15.0059 4.6H13.8059V3.4H15.0059V4.6ZM15.0059 7H13.8059V5.8H15.0059V7ZM24.9098 6.1H24.6098V6.4H24.3098V6.7H24.0098V7H21.0098V0.4H24.0098V0.699999H24.3098V1H24.6098V1.3H24.9098V2.8H24.6098V3.1H24.3098V3.4H24.0098V3.7H24.3098V4H24.6098V4.3H24.9098V6.1ZM24.0098 2.5V1.6H23.7098V1.3H21.9098V3.1H23.4098V2.8H23.7098V2.5H24.0098ZM24.0098 5.8V4.6H23.7098V4.3H23.4098V4H21.9098V6.1H23.7098V5.8H24.0098ZM29.1117 1.3H28.8117V1.9H28.5117V2.5H28.2117V3.1H27.9117V3.7H27.6117V7H26.7117V3.7H26.4117V3.1H26.1117V2.5H25.8117V1.9H25.5117V1.3H25.2117V0.4H26.1117V1H26.4117V1.6H26.7117V2.2H27.0117V2.8H27.3117V2.2H27.6117V1.6H27.9117V1H28.2117V0.4H29.1117V1.3ZM33.3137 7H29.4137V0.4H30.3137V6.1H33.3137V7ZM37.5156 5.5H37.2156V5.8H36.9156V6.1H36.6156V6.4H36.3156V6.7H36.0056V7H33.6156V0.4H36.0156V0.699999H36.3156V1H36.6156V1.3H36.9156V1.6H37.2156V1.9H37.5156V5.5ZM36.6156 5.2V2.2H36.3156V1.9H36.0156V1.6H35.7156V1.3H34.5156V6.1H35.7156V5.8H36.0156V5.5H36.3156V5.2H36.6156ZM45.9195 7H42.0195V6.1H43.5195V1.3H42.9195V0.4H45.0195V1.3H44.4195V6.1H45.9195V7ZM50.1215 7H49.2215V6.7H48.9215V6.1H48.6215V5.5H48.3215V4.9H48.0215V4.3H47.7215V3.7H47.4215V3.1H47.1215V7H46.2215V0.4H46.8215V1H47.1215V1.6H47.4215V2.2H47.7215V2.8H48.0215V3.4H48.3215V4H48.6215V4.6H48.9215V5.2H49.2215V0.4H50.1215V7ZM54.3234 5.5H54.0234V5.8H53.7234V6.1H53.4234V6.4H53.1234V6.7H52.8134V7H50.4234V0.4H52.8234V0.699999H53.1234V1H53.4234V1.3H53.7234V1.6H54.0234V1.9H54.3234V5.5ZM53.4234 5.2V2.2H53.1234V1.9H52.8234V1.6H52.5234V1.3H51.3234V6.1H52.5234V5.8H52.8234V5.5H53.1234V5.2H53.4234ZM58.5254 6.1H58.2254V6.4H57.9254V6.7H57.6254V7H55.5254V6.7H55.2254V6.4H54.9254V6.1H54.6254V0.4H55.5254V5.8H55.8254V6.1H57.3254V5.8H57.6254V0.4H58.5254V6.1ZM62.7273 6.1H62.4273V6.4H62.1273V6.7H61.8273V7H59.7273V6.7H59.4273V6.4H59.1273V6.1H58.8273V5.2H59.7273V5.8H60.0273V6.1H61.5273V5.8H61.8273V4.3H61.5273V4H59.7273V3.7H59.4273V3.4H59.1273V3.1H58.8273V1.3H59.1273V1H59.4273V0.699999H59.7273V0.4H61.8273V0.699999H62.1273V1H62.4273V1.3H62.7273V2.2H61.8273V1.6H61.5273V1.3H60.0273V1.6H59.7273V2.8H60.0273V3.1H61.8273V3.4H62.1273V3.7H62.4273V4H62.7273V6.1ZM66.9293 1.3H65.4293V7H64.5293V1.3H63.0293V0.4H66.9293V1.3ZM71.1312 7H70.2312V5.8H69.9312V5.2H69.6312V4.6H69.3312V4H68.1312V7H67.2312V0.4H70.2312V0.699999H70.5312V1H70.8312V1.3H71.1312V3.1H70.8312V3.4H70.5312V3.7H70.2312V4.3H70.5312V4.9H70.8312V5.5H71.1312V7ZM70.2312 2.8V1.6H69.9312V1.3H68.1312V3.1H69.9312V2.8H70.2312ZM75.3332 7H71.4332V6.1H72.9332V1.3H72.3332V0.4H74.4332V1.3H73.8332V6.1H75.3332V7ZM79.5352 7H75.6352V0.4H79.5352V1.3H76.5352V3.1H78.9352V4H76.5352V6.1H79.5352V7ZM83.7371 6.1H83.4371V6.4H83.1371V6.7H82.8371V7H80.7371V6.7H80.4371V6.4H80.1371V6.1H79.8371V5.2H80.7371V5.8H81.0371V6.1H82.5371V5.8H82.8371V4.3H82.5371V4H80.7371V3.7H80.4371V3.4H80.1371V3.1H79.8371V1.3H80.1371V1H80.4371V0.699999H80.7371V0.4H82.8371V0.699999H83.1371V1H83.4371V1.3H83.7371V2.2H82.8371V1.6H82.5371V1.3H81.0371V1.6H80.7371V2.8H81.0371V3.1H82.8371V3.4H83.1371V3.7H83.4371V4H83.7371V6.1ZM3.9 19H0V18.1H1.5V13.3H0.9V12.4H3V13.3H2.4V18.1H3.9V19ZM8.10195 19H7.20195V18.7H6.90195V18.1H6.60195V17.5H6.30195V16.9H6.00195V16.3H5.70195V15.7H5.40195V15.1H5.10195V19H4.20195V12.4H4.80195V13H5.10195V13.6H5.40195V14.2H5.70195V14.8H6.00195V15.4H6.30195V16H6.60195V16.6H6.90195V17.2H7.20195V12.4H8.10195V19ZM12.3039 18.1H12.0039V18.4H11.7039V18.7H11.4039V19H9.30391V18.7H9.00391V18.4H8.70391V18.1H8.40391V17.2H9.30391V17.8H9.60391V18.1H11.1039V17.8H11.4039V16.3H11.1039V16H9.30391V15.7H9.00391V15.4H8.70391V15.1H8.40391V13.3H8.70391V13H9.00391V12.7H9.30391V12.4H11.4039V12.7H11.7039V13H12.0039V13.3H12.3039V14.2H11.4039V13.6H11.1039V13.3H9.60391V13.6H9.30391V14.8H9.60391V15.1H11.4039V15.4H11.7039V15.7H12.0039V16H12.3039V18.1ZM16.5059 15.4H16.2059V15.7H15.9059V16H15.6059V16.3H13.5059V19H12.6059V12.4H15.6059V12.7H15.9059V13H16.2059V13.3H16.5059V15.4ZM15.6059 15.1V13.6H15.3059V13.3H13.5059V15.4H15.3059V15.1H15.6059ZM20.7078 19H16.8078V12.4H20.7078V13.3H17.7078V15.1H20.1078V16H17.7078V18.1H20.7078V19ZM24.9098 18.1H24.6098V18.4H24.3098V18.7H24.0098V19H22.2098V18.7H21.9098V18.4H21.6098V18.1H21.3098V17.8H21.0098V13.6H21.3098V13.3H21.6098V13H21.9098V12.7H22.2098V12.4H24.0098V12.7H24.3098V13H24.6098V13.3H24.9098V14.2H24.0098V13.6H23.7098V13.3H22.5098V13.6H22.2098V13.9H21.9098V17.5H22.2098V17.8H22.5098V18.1H23.7098V17.8H24.0098V17.2H24.9098V18.1ZM29.1117 13.3H27.6117V19H26.7117V13.3H25.2117V12.4H29.1117V13.3ZM37.5156 18.1H37.2156V18.4H36.9156V18.7H36.6156V19H33.6156V12.4H36.6156V12.7H36.9156V13H37.2156V13.3H37.5156V14.8H37.2156V15.1H36.9156V15.4H36.6156V15.7H36.9156V16H37.2156V16.3H37.5156V18.1ZM36.6156 14.5V13.6H36.3156V13.3H34.5156V15.1H36.0156V14.8H36.3156V14.5H36.6156ZM36.6156 17.8V16.6H36.3156V16.3H36.0156V16H34.5156V18.1H36.3156V17.8H36.6156ZM41.7176 19H37.8176V12.4H41.7176V13.3H38.7176V15.1H41.1176V16H38.7176V18.1H41.7176V19ZM45.9195 13.3H42.9195V15.1H45.0195V16H42.9195V19H42.0195V12.4H45.9195V13.3ZM50.1215 17.8H49.8215V18.1H49.5215V18.4H49.2215V18.7H48.9215V19H47.4215V18.7H47.1215V18.4H46.8215V18.1H46.5215V17.8H46.2215V13.6H46.5215V13.3H46.8215V13H47.1215V12.7H47.4215V12.4H48.9215V12.7H49.2215V13H49.5215V13.3H49.8215V13.6H50.1215V17.8ZM49.2215 17.5V13.9H48.9215V13.6H48.6215V13.3H47.7215V13.6H47.4215V13.9H47.1215V17.5H47.4215V17.8H47.7215V18.1H48.6215V17.8H48.9215V17.5H49.2215ZM54.3234 19H53.4234V17.8H53.1234V17.2H52.8234V16.6H52.5234V16H51.3234V19H50.4234V12.4H53.4234V12.7H53.7234V13H54.0234V13.3H54.3234V15.1H54.0234V15.4H53.7234V15.7H53.4234V16.3H53.7234V16.9H54.0234V17.5H54.3234V19ZM53.4234 14.8V13.6H53.1234V13.3H51.3234V15.1H53.1234V14.8H53.4234ZM58.5254 19H54.6254V12.4H58.5254V13.3H55.5254V15.1H57.9254V16H55.5254V18.1H58.5254V19ZM66.9293 18.1H66.6293V18.4H66.3293V18.7H66.0293V19H63.9293V18.7H63.6293V18.4H63.3293V18.1H63.0293V12.4H63.9293V17.8H64.2293V18.1H65.7293V17.8H66.0293V12.4H66.9293V18.1ZM71.1312 18.1H70.8312V18.4H70.5312V18.7H70.2312V19H68.1312V18.7H67.8312V18.4H67.5312V18.1H67.2312V17.2H68.1312V17.8H68.4312V18.1H69.9312V17.8H70.2312V16.3H69.9312V16H68.1312V15.7H67.8312V15.4H67.5312V15.1H67.2312V13.3H67.5312V13H67.8312V12.7H68.1312V12.4H70.2312V12.7H70.5312V13H70.8312V13.3H71.1312V14.2H70.2312V13.6H69.9312V13.3H68.4312V13.6H68.1312V14.8H68.4312V15.1H70.2312V15.4H70.5312V15.7H70.8312V16H71.1312V18.1ZM75.3332 19H71.4332V12.4H75.3332V13.3H72.3332V15.1H74.7332V16H72.3332V18.1H75.3332V19ZM3.9 42.1H3.6V42.4H3.3V42.7H3V43H0.9V42.7H0.6V42.4H0.3V42.1H0V41.2H0.9V41.8H1.2V42.1H2.7V41.8H3V40.3H2.7V40H0.9V39.7H0.6V39.4H0.3V39.1H0V37.3H0.3V37H0.6V36.7H0.9V36.4H3V36.7H3.3V37H3.6V37.3H3.9V38.2H3V37.6H2.7V37.3H1.2V37.6H0.9V38.8H1.2V39.1H3V39.4H3.3V39.7H3.6V40H3.9V42.1ZM8.10195 43H7.20195V42.7H6.90195V42.1H6.60195V41.5H6.30195V40.9H6.00195V40.3H5.70195V39.7H5.40195V39.1H5.10195V43H4.20195V36.4H4.80195V37H5.10195V37.6H5.40195V38.2H5.70195V38.8H6.00195V39.4H6.30195V40H6.60195V40.6H6.90195V41.2H7.20195V36.4H8.10195V43ZM10.8039 40.6H9.60391V39.4H10.8039V40.6ZM10.8039 43H9.60391V41.8H10.8039V43ZM20.7078 41.8H20.4078V42.1H20.1078V42.4H19.8078V42.7H19.5078V43H18.0078V42.7H17.7078V42.4H17.4078V42.1H17.1078V41.8H16.8078V37.6H17.1078V37.3H17.4078V37H17.7078V36.7H18.0078V36.4H19.5078V36.7H19.8078V37H20.1078V37.3H20.4078V37.6H20.7078V41.8ZM19.5078 37.9V37.6V37.3H18.0078V37.6H17.7078V40.9H18.0078V40.3H18.3078V39.7H18.6078V39.1H18.9078V38.5H19.2078V37.9H19.5078ZM19.8078 41.8V38.8H19.5078V39.4H19.2078V40H18.9078V40.6H18.6078V41.2H18.3078V41.8H18.0078V42.1H19.5078V41.8H19.8078ZM24.9098 41.8H24.6098V42.1H24.3098V42.4H24.0098V42.7H23.7098V43H22.2098V42.7H21.9098V42.4H21.6098V42.1H21.3098V41.8H21.0098V37.6H21.3098V37.3H21.6098V37H21.9098V36.7H22.2098V36.4H23.7098V36.7H24.0098V37H24.3098V37.3H24.6098V37.6H24.9098V41.8ZM23.7098 37.9V37.6V37.3H22.2098V37.6H21.9098V40.9H22.2098V40.3H22.5098V39.7H22.8098V39.1H23.1098V38.5H23.4098V37.9H23.7098ZM24.0098 41.8V38.8H23.7098V39.4H23.4098V40H23.1098V40.6H22.8098V41.2H22.5098V41.8H22.2098V42.1H23.7098V41.8H24.0098ZM29.1117 43H25.2117V40.6H25.5117V40.3H25.8117V40H26.1117V39.7H26.4117V39.4H27.6117V39.1H27.9117V38.8H28.2117V37.6H27.9117V37.3H26.4117V37.6H26.1117V38.2H25.2117V37.3H25.5117V37H25.8117V36.7H26.1117V36.4H28.2117V36.7H28.5117V37H28.8117V37.3H29.1117V39.1H28.8117V39.4H28.5117V39.7H28.2117V40H27.9117V40.3H26.7117V40.6H26.4117V40.9H26.1117V42.1H29.1117V43ZM33.3137 43H29.4137V42.1H30.9137V37.3H30.0137V36.4H31.8137V42.1H33.3137V43ZM37.5156 40H37.2156V40.6H36.9156V40.9H36.6156V41.2H36.3156V41.5H36.0156V41.8H35.7156V42.1H35.4156V42.4H35.1156V42.7H34.8156V43H33.9156V42.4H34.2156V42.1H34.5156V41.8H34.8156V41.5H35.1156V41.2H35.4156V40.9H35.7156V40.6H36.0156V40.3H34.5156V40H34.2156V39.7H33.9156V39.4H33.6156V37.3H33.9156V37H34.2156V36.7H34.5156V36.4H36.6156V36.7H36.9156V37H37.2156V37.3H37.5156V40ZM36.6156 39.1V37.6H36.3156V37.3H34.8156V37.6H34.5156V39.1H34.8156V39.4H36.3156V39.1H36.6156ZM41.7176 41.8H41.1176V43H40.2176V41.8H37.8176V41.5V41.2H38.1176V40.6H38.4176V40H38.7176V39.4H39.0176V38.8H39.3176V38.2H39.6176V37.6H39.9176V37H40.2176V36.4H41.1176V40.9H41.7176V41.8ZM40.2176 40.9V38.5H39.9176V39.1H39.6176V39.7H39.3176V40.3H39.0176V40.9H40.2176ZM45.3195 40.9H42.6195V40H45.3195V40.9ZM50.1215 42.1H49.8215V42.4H49.5215V42.7H49.2215V43H47.4215V42.7H47.1215V42.4H46.8215V42.1H46.5215V41.8H46.2215V37.6H46.5215V37.3H46.8215V37H47.1215V36.7H47.4215V36.4H49.2215V36.7H49.5215V37H49.8215V37.3H50.1215V38.2H49.2215V37.6H48.9215V37.3H47.7215V37.6H47.4215V37.9H47.1215V41.5H47.4215V41.8H47.7215V42.1H48.9215V41.8H49.2215V41.2H50.1215V42.1ZM3.9 55H3V51.7H2.7V52.3H2.4V52.9H2.1V53.5H1.8V52.9H1.5V52.3H1.2V51.7H0.9V55H0V48.4H0.3V49H0.6V49.6H0.9V50.2H1.2V50.8H1.5V51.4H1.8V52H2.1V51.4H2.4V50.8H2.7V50.2H3V49.6H3.3V49H3.6V48.4H3.9V55ZM8.10195 55H7.20195V53.5H5.10195V55H4.20195V52.6V52.3V51.7H4.50195V51.1H4.80195V50.5H5.10195V49.9H5.40195V49.3H5.70195V48.7H6.00195V48.4H6.30195V48.7H6.60195V49.3H6.90195V49.9H7.20195V50.5H7.50195V51.1H7.80195V51.7H8.10195V52.3V52.6V55ZM7.20195 52.6V52.3V52H6.90195V51.4H6.60195V50.8H6.30195V50.2H6.00195V50.8H5.70195V51.4H5.40195V52H5.10195V52.3V52.6H7.20195ZM12.3039 49.3H10.8039V55H9.90391V49.3H8.40391V48.4H12.3039V49.3ZM15.0059 52.6H13.8059V51.4H15.0059V52.6ZM15.0059 55H13.8059V53.8H15.0059V55ZM24.9098 55H24.0098V53.5H21.9098V55H21.0098V52.6V52.3V51.7H21.3098V51.1H21.6098V50.5H21.9098V49.9H22.2098V49.3H22.5098V48.7H22.8098V48.4H23.1098V48.7H23.4098V49.3H23.7098V49.9H24.0098V50.5H24.3098V51.1H24.6098V51.7H24.9098V52.3V52.6V55ZM24.0098 52.6V52.3V52H23.7098V51.4H23.4098V50.8H23.1098V50.2H22.8098V50.8H22.5098V51.4H22.2098V52H21.9098V52.3V52.6H24.0098ZM29.1117 55H25.2117V48.4H26.1117V54.1H29.1117V55ZM33.3137 54.1H33.0137V54.4H32.7137V54.7H32.4137V55H30.3137V54.7H30.0137V54.4H29.7137V54.1H29.4137V51.4H29.7137V50.8H30.0137V50.5H30.3137V50.2H30.6137V49.9H30.9137V49.6H31.2137V49.3H31.5137V49H31.8137V48.7H32.1137V48.4H33.0137V49H32.7137V49.3H32.4137V49.6H32.1137V49.9H31.8137V50.2H31.5137V50.5H31.2137V50.8H30.9137V51.1H32.4137V51.4H32.7137V51.7H33.0137V52H33.3137V54.1ZM32.4137 53.8V52.3H32.1137V52H30.6137V52.3H30.3137V53.8H30.6137V54.1H32.1137V53.8H32.4137ZM37.5156 53.8H37.2156V54.1H36.9156V54.4H36.6156V54.7H36.3156V55H34.8156V54.7H34.5156V54.4H34.2156V54.1H33.9156V53.8H33.6156V49.6H33.9156V49.3H34.2156V49H34.5156V48.7H34.8156V48.4H36.3156V48.7H36.6156V49H36.9156V49.3H37.2156V49.6H37.5156V53.8ZM36.3156 49.9V49.6V49.3H34.8156V49.6H34.5156V52.9H34.8156V52.3H35.1156V51.7H35.4156V51.1H35.7156V50.5H36.0156V49.9H36.3156ZM36.6156 53.8V50.8H36.3156V51.4H36.0156V52H35.7156V52.6H35.4156V53.2H35.1156V53.8H34.8156V54.1H36.3156V53.8H36.6156ZM41.7176 54.1H41.4176V54.4H41.1176V54.7H40.8176V55H38.7176V54.7H38.4176V54.4H38.1176V54.1H37.8176V51.4H38.1176V50.8H38.4176V50.5H38.7176V50.2H39.0176V49.9H39.3176V49.6H39.6176V49.3H39.9176V49H40.2176V48.7H40.5176V48.4H41.4176V49H41.1176V49.3H40.8176V49.6H40.5176V49.9H40.2176V50.2H39.9176V50.5H39.6176V50.8H39.3176V51.1H40.8176V51.4H41.1176V51.7H41.4176V52H41.7176V54.1ZM40.8176 53.8V52.3H40.5176V52H39.0176V52.3H38.7176V53.8H39.0176V54.1H40.5176V53.8H40.8176ZM45.9195 55H42.0195V54.1H43.5195V49.3H42.6195V48.4H44.4195V54.1H45.9195V55ZM49.5215 52.9H46.8215V52H49.5215V52.9ZM54.3234 49.3H52.8234V55H51.9234V49.3H50.4234V48.4H54.3234V49.3ZM58.5254 54.1H58.2254V54.4H57.9254V54.7H57.6254V55H55.5254V54.7H55.2254V54.4H54.9254V54.1H54.6254V51.4H54.9254V50.8H55.2254V50.5H55.5254V50.2H55.8254V49.9H56.1254V49.6H56.4254V49.3H56.7254V49H57.0254V48.7H57.3254V48.4H58.2254V49H57.9254V49.3H57.6254V49.6H57.3254V49.9H57.0254V50.2H56.7254V50.5H56.4254V50.8H56.1254V51.1H57.6254V51.4H57.9254V51.7H58.2254V52H58.5254V54.1ZM57.6254 53.8V52.3H57.3254V52H55.8254V52.3H55.5254V53.8H55.8254V54.1H57.3254V53.8H57.6254ZM3.9 78.4H3.6V78.7H3.3V79H1.2V78.7H0.9V78.4H0.6V78.1H0.3V77.8H0V73.6H0.3V73.3H0.6V73H0.9V72.7H1.2V72.4H3.3V72.7H3.6V73H3.9V73.6H3V73.3H1.5V73.6H1.2V73.9H0.9V77.5H1.2V77.8H1.5V78.1H3V76.3H2.7V76.6H1.8V75.4H3.9V78.4ZM8.10195 79H4.20195V72.4H8.10195V73.3H5.10195V75.1H7.50195V76H5.10195V78.1H8.10195V79ZM12.3039 77.8H12.0039V78.1H11.7039V78.4H11.4039V78.7H11.1039V79H9.60391V78.7H9.30391V78.4H9.00391V78.1H8.70391V77.8H8.40391V73.6H8.70391V73.3H9.00391V73H9.30391V72.7H9.60391V72.4H11.1039V72.7H11.4039V73H11.7039V73.3H12.0039V73.6H12.3039V77.8ZM11.4039 77.5V73.9H11.1039V73.6H10.8039V73.3H9.90391V73.6H9.60391V73.9H9.30391V77.5H9.60391V77.8H9.90391V78.1H10.8039V77.8H11.1039V77.5H11.4039ZM16.5059 79H15.6059V75.7H15.3059V76.3H15.0059V76.9H14.7059V77.5H14.4059V76.9H14.1059V76.3H13.8059V75.7H13.5059V79H12.6059V72.4H12.9059V73H13.2059V73.6H13.5059V74.2H13.8059V74.8H14.1059V75.4H14.4059V76H14.7059V75.4H15.0059V74.8H15.3059V74.2H15.6059V73.6H15.9059V73H16.2059V72.4H16.5059V79ZM20.7078 80.2H16.8078V79.6H20.7078V80.2ZM24.9098 79H24.0098V76H21.9098V79H21.0098V72.4H21.9098V75.1H24.0098V72.4H24.9098V79ZM29.1117 79H28.2117V77.5H26.1117V79H25.2117V76.6V76.3V75.7H25.5117V75.1H25.8117V74.5H26.1117V73.9H26.4117V73.3H26.7117V72.7H27.0117V72.4H27.3117V72.7H27.6117V73.3H27.9117V73.9H28.2117V74.5H28.5117V75.1H28.8117V75.7H29.1117V76.3V76.6V79ZM28.2117 76.6V76.3V76H27.9117V75.4H27.6117V74.8H27.3117V74.2H27.0117V74.8H26.7117V75.4H26.4117V76H26.1117V76.3V76.6H28.2117ZM33.3137 78.1H33.0137V78.4H32.7137V78.7H32.4137V79H30.3137V78.7H30.0137V78.4H29.7137V78.1H29.4137V77.2H30.3137V77.8H30.6137V78.1H32.1137V77.8H32.4137V76.3H32.1137V76H30.3137V75.7H30.0137V75.4H29.7137V75.1H29.4137V73.3H29.7137V73H30.0137V72.7H30.3137V72.4H32.4137V72.7H32.7137V73H33.0137V73.3H33.3137V74.2H32.4137V73.6H32.1137V73.3H30.6137V73.6H30.3137V74.8H30.6137V75.1H32.4137V75.4H32.7137V75.7H33.0137V76H33.3137V78.1ZM37.5156 79H36.6156V76H34.5156V79H33.6156V72.4H34.5156V75.1H36.6156V72.4H37.5156V79ZM40.2176 76.6H39.0176V75.4H40.2176V76.6ZM40.2176 79H39.0176V77.8H40.2176V79ZM50.1215 78.1H49.8215V78.4H49.5215V78.7H49.2215V79H47.1215V78.7H46.8215V78.4H46.5215V78.1H46.2215V76H46.5215V75.7H46.8215V75.4H46.5215V75.1H46.2215V73.3H46.5215V73H46.8215V72.7H47.1215V72.4H49.2215V72.7H49.5215V73H49.8215V73.3H50.1215V75.1H49.8215V75.4H49.5215V75.7H49.8215V76H50.1215V78.1ZM49.2215 74.8V73.6H48.9215V73.3H47.4215V73.6H47.1215V74.8H47.4215V75.1H48.9215V74.8H49.2215ZM49.2215 77.8V76.3H48.9215V76H47.4215V76.3H47.1215V77.8H47.4215V78.1H48.9215V77.8H49.2215ZM54.3234 76H54.0234V76.6H53.7234V76.9H53.4234V77.2H53.1234V77.5H52.8234V77.8H52.5234V78.1H52.2234V78.4H51.9234V78.7H51.6234V79H50.7234V78.4H51.0234V78.1H51.3234V77.8H51.6234V77.5H51.9234V77.2H52.2234V76.9H52.5234V76.6H52.8234V76.3H51.3234V76H51.0234V75.7H50.7234V75.4H50.4234V73.3H50.7234V73H51.0234V72.7H51.3234V72.4H53.4234V72.7H53.7234V73H54.0234V73.3H54.3234V76ZM53.4234 75.1V73.6H53.1234V73.3H51.6234V73.6H51.3234V75.1H51.6234V75.4H53.1234V75.1H53.4234ZM58.5254 77.5H58.2254V77.8H57.9254V78.1H57.6254V78.4H57.3254V78.7H57.0154V79H54.6254V72.4H57.0254V72.7H57.3254V73H57.6254V73.3H57.9254V73.6H58.2254V73.9H58.5254V77.5ZM57.6254 77.2V74.2H57.3254V73.9H57.0254V73.6H56.7254V73.3H55.5254V78.1H56.7254V77.8H57.0254V77.5H57.3254V77.2H57.6254ZM62.7273 79H58.8273V76.6H59.1273V76.3H59.4273V76H59.7273V75.7H60.0273V75.4H61.2273V75.1H61.5273V74.8H61.8273V73.6H61.5273V73.3H60.0273V73.6H59.7273V74.2H58.8273V73.3H59.1273V73H59.4273V72.7H59.7273V72.4H61.8273V72.7H62.1273V73H62.4273V73.3H62.7273V75.1H62.4273V75.4H62.1273V75.7H61.8273V76H61.5273V76.3H60.3273V76.6H60.0273V76.9H59.7273V78.1H62.7273V79ZM66.9293 73.3H63.9293V75.1H66.0293V76H63.9293V79H63.0293V72.4H66.9293V73.3ZM71.1312 79H70.2312V77.5H68.1312V79H67.2312V76.6V76.3V75.7H67.5312V75.1H67.8312V74.5H68.1312V73.9H68.4312V73.3H68.7312V72.7H69.0312V72.4H69.3312V72.7H69.6312V73.3H69.9312V73.9H70.2312V74.5H70.5312V75.1H70.8312V75.7H71.1312V76.3V76.6V79ZM70.2312 76.6V76.3V76H69.9312V75.4H69.6312V74.8H69.3312V74.2H69.0312V74.8H68.7312V75.4H68.4312V76H68.1312V76.3V76.6H70.2312ZM3.9 90.1H3.6V90.4H3.3V90.7H3V91H1.2V90.7H0.9V90.4H0.6V90.1H0.3V89.8H0V85.6H0.3V85.3H0.6V85H0.9V84.7H1.2V84.4H3V84.7H3.3V85H3.6V85.3H3.9V86.2H3V85.6H2.7V85.3H1.5V85.6H1.2V85.9H0.9V89.5H1.2V89.8H1.5V90.1H2.7V89.8H3V89.2H3.9V90.1ZM8.10195 91H7.20195V88H5.10195V91H4.20195V84.4H5.10195V87.1H7.20195V84.4H8.10195V91ZM12.3039 91H11.4039V90.4H11.1039V89.8H10.8039V89.2H10.5039V88.6H10.2039V88H9.60391V88.3H9.30391V91H8.40391V84.4H9.30391V87.1H9.60391V86.8H9.90391V86.5H10.2039V86.2H10.5039V85.9H10.8039V85.6H11.1039V85.29H11.4039V85H11.7039V84.7H12.0039V84.4H12.3039V85.6H12.0039V85.9H11.7039V86.2H11.4039V86.49H11.1039V86.8H10.8039V87.1H10.5039V87.4H10.8039V87.7H11.1039V88.3H11.4039V88.9H11.7039V89.5H12.0039V90.1H12.3039V91ZM15.9059 88.9H13.2059V88H15.9059V88.9ZM20.7078 87.4H20.4078V88H20.1078V88.6H19.8078V89.2H19.5078V89.8H19.2078V90.4H18.9078V91H18.6078V90.4H18.3078V89.8H18.0078V89.2H17.7078V88.6H17.4078V88H17.1078V87.4H16.8078V84.4H17.7078V87.1H18.0078V87.7H18.3078V88.3H18.6078V88.9H18.9078V88.3H19.2078V87.7H19.5078V87.1H19.8078V84.4H20.7078V87.4ZM24.9098 91H24.0098V89.8H23.7098V89.2H23.4098V88.6H23.1098V88H21.9098V91H21.0098V84.4H24.0098V84.7H24.3098V85H24.6098V85.3H24.9098V87.1H24.6098V87.4H24.3098V87.7H24.0098V88.3H24.3098V88.9H24.6098V89.5H24.9098V91ZM24.0098 86.8V85.6H23.7098V85.3H21.9098V87.1H23.7098V86.8H24.0098ZM29.1117 85.3H27.6117V91H26.7117V85.3H25.2117V84.4H29.1117V85.3ZM33.3137 90.1H33.0137V90.4H32.7137V90.7H32.4137V91H30.3137V90.7H30.0137V90.4H29.7137V90.1H29.4137V89.2H30.3137V89.8H30.6137V90.1H32.1137V89.8H32.4137V88.3H32.1137V88H30.3137V87.7H30.0137V87.4H29.7137V87.1H29.4137V85.3H29.7137V85H30.0137V84.7H30.3137V84.4H32.4137V84.7H32.7137V85H33.0137V85.3H33.3137V86.2H32.4137V85.6H32.1137V85.3H30.6137V85.6H30.3137V86.8H30.6137V87.1H32.4137V87.4H32.7137V87.7H33.0137V88H33.3137V90.1ZM36.0156 88.6H34.8156V87.4H36.0156V88.6ZM36.0156 91H34.8156V89.8H36.0156V91ZM45.9195 90.1H45.6195V90.4H45.3195V90.7H45.0195V91H42.9195V90.7H42.6195V90.4H42.3195V90.1H42.0195V88H42.3195V87.7H42.6195V87.4H42.3195V87.1H42.0195V85.3H42.3195V85H42.6195V84.7H42.9195V84.4H45.0195V84.7H45.3195V85H45.6195V85.3H45.9195V87.1H45.6195V87.4H45.3195V87.7H45.6195V88H45.9195V90.1ZM45.0195 86.8V85.6H44.7195V85.3H43.2195V85.6H42.9195V86.8H43.2195V87.1H44.7195V86.8H45.0195ZM45.0195 89.8V88.3H44.7195V88H43.2195V88.3H42.9195V89.8H43.2195V90.1H44.7195V89.8H45.0195ZM50.1215 89.8H49.5215V91H48.6215V89.8H46.2215V89.5V89.2H46.5215V88.6H46.8215V88H47.1215V87.4H47.4215V86.8H47.7215V86.2H48.0215V85.6H48.3215V85H48.6215V84.4H49.5215V88.9H50.1215V89.8ZM48.6215 88.9V86.5H48.3215V87.1H48.0215V87.7H47.7215V88.3H47.4215V88.9H48.6215ZM54.3234 91H50.4234V88.6H50.7234V88.3H51.0234V88H51.3234V87.7H51.6234V87.4H52.8234V87.1H53.1234V86.8H53.4234V85.6H53.1234V85.3H51.6234V85.6H51.3234V86.2H50.4234V85.3H50.7234V85H51.0234V84.7H51.3234V84.4H53.4234V84.7H53.7234V85H54.0234V85.3H54.3234V87.1H54.0234V87.4H53.7234V87.7H53.4234V88H53.1234V88.3H51.9234V88.6H51.6234V88.9H51.3234V90.1H54.3234V91Z" fill="#4B4B4B"/>
</svg>
