<svg width="131" height="96" viewBox="0 0 131 96" fill="none" xmlns="http://www.w3.org/2000/svg">
<path d="M84.1766 51.3H82.6766V57H81.7766V51.3H80.2766V50.4H84.1766V51.3ZM88.3785 55.8H88.0785V56.1H87.7785V56.4H87.4785V56.7H87.1785V57H85.6785V56.7H85.3785V56.4H85.0785V56.1H84.7785V55.8H84.4785V51.6H84.7785V51.3H85.0785V51H85.3785V50.7H85.6785V50.4H87.1785V50.7H87.4785V51H87.7785V51.3H88.0785V51.6H88.3785V55.8ZM87.4785 55.5V51.9H87.1785V51.6H86.8785V51.3H85.9785V51.6H85.6785V51.9H85.3785V55.5H85.6785V55.8H85.9785V56.1H86.8785V55.8H87.1785V55.5H87.4785ZM92.5805 57H88.6805V50.4H89.5805V56.1H92.5805V57ZM95.2824 54.6H94.0824V53.4H95.2824V54.6ZM95.2824 57H94.0824V55.8H95.2824V57ZM105.186 53.7H103.686V55.2H102.786V53.7H101.286V52.8H102.786V51.3H103.686V52.8H105.186V53.7ZM105.186 56.7H101.286V55.8H105.186V56.7ZM109.388 55.8H109.088V56.1H108.788V56.4H108.488V56.7H108.188V57H106.688V56.7H106.388V56.4H106.088V56.1H105.788V55.8H105.488V51.6H105.788V51.3H106.088V51H106.388V50.7H106.688V50.4H108.188V50.7H108.488V51H108.788V51.3H109.088V51.6H109.388V55.8ZM108.188 51.9V51.6V51.3H106.688V51.6H106.388V54.9H106.688V54.3H106.988V53.7H107.288V53.1H107.588V52.5H107.888V51.9H108.188ZM108.488 55.8V52.8H108.188V53.4H107.888V54H107.588V54.6H107.288V55.2H106.988V55.8H106.688V56.1H108.188V55.8H108.488ZM112.09 57H110.89V55.8H112.09V57ZM117.792 55.8H117.492V56.1H117.192V56.4H116.892V56.7H116.592V57H115.092V56.7H114.792V56.4H114.492V56.1H114.192V55.8H113.892V51.6H114.192V51.3H114.492V51H114.792V50.7H115.092V50.4H116.592V50.7H116.892V51H117.192V51.3H117.492V51.6H117.792V55.8ZM116.592 51.9V51.6V51.3H115.092V51.6H114.792V54.9H115.092V54.3H115.392V53.7H115.692V53.1H115.992V52.5H116.292V51.9H116.592ZM116.892 55.8V52.8H116.592V53.4H116.292V54H115.992V54.6H115.692V55.2H115.392V55.8H115.092V56.1H116.592V55.8H116.892ZM121.994 57H118.094V54.6H118.394V54.3H118.694V54H118.994V53.7H119.294V53.4H120.494V53.1H120.794V52.8H121.094V51.6H120.794V51.3H119.294V51.6H118.994V52.2H118.094V51.3H118.394V51H118.694V50.7H118.994V50.4H121.094V50.7H121.394V51H121.694V51.3H121.994V53.1H121.694V53.4H121.394V53.7H121.094V54H120.794V54.3H119.594V54.6H119.294V54.9H118.994V56.1H121.994V57ZM126.196 57H125.296V53.7H124.996V54.3H124.696V54.9H124.396V55.5H124.096V54.9H123.796V54.3H123.496V53.7H123.196V57H122.296V50.4H122.596V51H122.896V51.6H123.196V52.2H123.496V52.8H123.796V53.4H124.096V54H124.396V53.4H124.696V52.8H124.996V52.2H125.296V51.6H125.596V51H125.896V50.4H126.196V57ZM130.398 57H129.498V53.7H129.198V54.3H128.898V54.9H128.598V55.5H128.298V54.9H127.998V54.3H127.698V53.7H127.398V57H126.498V50.4H126.798V51H127.098V51.6H127.398V52.2H127.698V52.8H127.998V53.4H128.298V54H128.598V53.4H128.898V52.8H129.198V52.2H129.498V51.6H129.798V51H130.098V50.4H130.398V57ZM84.1766 77.4H83.8766V77.7H83.5766V78H83.2766V78.3H81.1766V81H80.2766V74.4H83.2766V74.7H83.5766V75H83.8766V75.3H84.1766V77.4ZM83.2766 77.1V75.6H82.9766V75.3H81.1766V77.4H82.9766V77.1H83.2766ZM88.3785 81H87.4785V80.7H87.1785V80.1H86.8785V79.5H86.5785V78.9H86.2785V78.3H85.9785V77.7H85.6785V77.1H85.3785V81H84.4785V74.4H85.0785V75H85.3785V75.6H85.6785V76.2H85.9785V76.8H86.2785V77.4H86.5785V78H86.8785V78.6H87.1785V79.2H87.4785V74.4H88.3785V81ZM91.0805 78.6H89.8805V77.4H91.0805V78.6ZM91.0805 81H89.8805V79.8H91.0805V81ZM100.984 81H97.0844V78.6H97.3844V78.3H97.6844V78H97.9844V77.7H98.2844V77.4H99.4844V77.1H99.7844V76.8H100.084V75.6H99.7844V75.3H98.2844V75.6H97.9844V76.2H97.0844V75.3H97.3844V75H97.6844V74.7H97.9844V74.4H100.084V74.7H100.384V75H100.684V75.3H100.984V77.1H100.684V77.4H100.384V77.7H100.084V78H99.7844V78.3H98.5844V78.6H98.2844V78.9H97.9844V80.1H100.984V81ZM105.186 79.8H104.586V81H103.686V79.8H101.286V79.5V79.2H101.586V78.6H101.886V78H102.186V77.4H102.486V76.8H102.786V76.2H103.086V75.6H103.386V75H103.686V74.4H104.586V78.9H105.186V79.8ZM103.686 78.9V76.5H103.386V77.1H103.086V77.7H102.786V78.3H102.486V78.9H103.686ZM109.388 80.1H109.088V80.4H108.788V80.7H108.488V81H106.388V80.7H106.088V80.4H105.788V80.1H105.488V78H105.788V77.7H106.088V77.4H105.788V77.1H105.488V75.3H105.788V75H106.088V74.7H106.388V74.4H108.488V74.7H108.788V75H109.088V75.3H109.388V77.1H109.088V77.4H108.788V77.7H109.088V78H109.388V80.1ZM108.488 76.8V75.6H108.188V75.3H106.688V75.6H106.388V76.8H106.688V77.1H108.188V76.8H108.488ZM108.488 79.8V78.3H108.188V78H106.688V78.3H106.388V79.8H106.688V80.1H108.188V79.8H108.488ZM113.59 80.1H113.29V80.4H112.99V80.7H112.69V81H110.59V80.7H110.29V80.4H109.99V80.1H109.69V79.2H110.59V79.8H110.89V80.1H112.39V79.8H112.69V78.6H112.39V78.3H112.09V78H111.79V77.7H111.49V77.4H111.19V77.1H110.89V76.8H111.19V76.5H111.49V76.2H111.79V75.9H112.09V75.6H112.39V75.3H109.69V74.4H113.59V75.6H113.29V75.9H112.99V76.2H112.69V76.5H112.39V76.8H112.09V77.1H112.39V77.4H112.69V77.7H112.99V78H113.29V78.3H113.59V80.1ZM117.192 78.9H114.492V78H117.192V78.9ZM121.994 81H121.094V79.5H118.994V81H118.094V78.6V78.3V77.7H118.394V77.1H118.694V76.5H118.994V75.9H119.294V75.3H119.594V74.7H119.894V74.4H120.194V74.7H120.494V75.3H120.794V75.9H121.094V76.5H121.394V77.1H121.694V77.7H121.994V78.3V78.6V81ZM121.094 78.6V78.3V78H120.794V77.4H120.494V76.8H120.194V76.2H119.894V76.8H119.594V77.4H119.294V78H118.994V78.3V78.6H121.094ZM126.196 81H125.296V80.1H124.996V79.2H124.696V78.6H124.396V78.3H124.096V78.6H123.796V79.2H123.496V80.1H123.196V81H122.296V80.1H122.596V79.2H122.896V78.6H123.196V78H123.496V77.4H123.196V76.8H122.896V76.2H122.596V75.3H122.296V74.4H123.196V75.3H123.496V76.2H123.796V76.8H124.096V77.1H124.396V76.8H124.696V76.2H124.996V75.3H125.296V74.4H126.196V75.3H125.896V76.2H125.596V76.8H125.296V77.4H124.996V78H125.296V78.6H125.596V79.2H125.896V80.1H126.196V81ZM130.398 78H130.098V78.6H129.798V78.9H129.498V79.2H129.198V79.5H128.898V79.8H128.598V80.1H128.298V80.4H127.998V80.7H127.698V81H126.798V80.4H127.098V80.1H127.398V79.8H127.698V79.5H127.998V79.2H128.298V78.9H128.598V78.6H128.898V78.3H127.398V78H127.098V77.7H126.798V77.4H126.498V75.3H126.798V75H127.098V74.7H127.398V74.4H129.498V74.7H129.798V75H130.098V75.3H130.398V78ZM129.498 77.1V75.6H129.198V75.3H127.698V75.6H127.398V77.1H127.698V77.4H129.198V77.1H129.498ZM8.5414 91.5H8.2414V91.8H7.9414V92.1H7.6414V92.4H7.3414V92.7H7.0314V93H4.6414V86.4H7.0414V86.7H7.3414V87H7.6414V87.3H7.9414V87.6H8.2414V87.9H8.5414V91.5ZM7.6414 91.2V88.2H7.3414V87.9H7.0414V87.6H6.7414V87.3H5.5414V92.1H6.7414V91.8H7.0414V91.5H7.3414V91.2H7.6414ZM12.7434 91.8H12.4434V92.1H12.1434V92.4H11.8434V92.7H11.5434V93H10.0434V92.7H9.74336V92.4H9.44336V92.1H9.14336V91.8H8.84336V87.6H9.14336V87.3H9.44336V87H9.74336V86.7H10.0434V86.4H11.5434V86.7H11.8434V87H12.1434V87.3H12.4434V87.6H12.7434V91.8ZM11.8434 91.5V87.9H11.5434V87.6H11.2434V87.3H10.3434V87.6H10.0434V87.9H9.74336V91.5H10.0434V91.8H10.3434V92.1H11.2434V91.8H11.5434V91.5H11.8434ZM21.1473 93H20.2473V92.7H19.9473V92.1H19.6473V91.5H19.3473V90.9H19.0473V90.3H18.7473V89.7H18.4473V89.1H18.1473V93H17.2473V86.4H17.8473V87H18.1473V87.6H18.4473V88.2H18.7473V88.8H19.0473V89.4H19.3473V90H19.6473V90.6H19.9473V91.2H20.2473V86.4H21.1473V93ZM25.3492 91.8H25.0492V92.1H24.7492V92.4H24.4492V92.7H24.1492V93H22.6492V92.7H22.3492V92.4H22.0492V92.1H21.7492V91.8H21.4492V87.6H21.7492V87.3H22.0492V87H22.3492V86.7H22.6492V86.4H24.1492V86.7H24.4492V87H24.7492V87.3H25.0492V87.6H25.3492V91.8ZM24.4492 91.5V87.9H24.1492V87.6H23.8492V87.3H22.9492V87.6H22.6492V87.9H22.3492V91.5H22.6492V91.8H22.9492V92.1H23.8492V91.8H24.1492V91.5H24.4492ZM29.5512 87.3H28.0512V93H27.1512V87.3H25.6512V86.4H29.5512V87.3ZM37.9551 93H37.0551V91.8H36.7551V91.2H36.4551V90.6H36.1551V90H34.9551V93H34.0551V86.4H37.0551V86.7H37.3551V87H37.6551V87.3H37.9551V89.1H37.6551V89.4H37.3551V89.7H37.0551V90.3H37.3551V90.9H37.6551V91.5H37.9551V93ZM37.0551 88.8V87.6H36.7551V87.3H34.9551V89.1H36.7551V88.8H37.0551ZM42.157 93H38.257V86.4H42.157V87.3H39.157V89.1H41.557V90H39.157V92.1H42.157V93ZM46.359 93H45.459V89.7H45.159V90.3H44.859V90.9H44.559V91.5H44.259V90.9H43.959V90.3H43.659V89.7H43.359V93H42.459V86.4H42.759V87H43.059V87.6H43.359V88.2H43.659V88.8H43.959V89.4H44.259V90H44.559V89.4H44.859V88.8H45.159V88.2H45.459V87.6H45.759V87H46.059V86.4H46.359V93ZM50.5609 91.8H50.2609V92.1H49.9609V92.4H49.6609V92.7H49.3609V93H47.8609V92.7H47.5609V92.4H47.2609V92.1H46.9609V91.8H46.6609V87.6H46.9609V87.3H47.2609V87H47.5609V86.7H47.8609V86.4H49.3609V86.7H49.6609V87H49.9609V87.3H50.2609V87.6H50.5609V91.8ZM49.6609 91.5V87.9H49.3609V87.6H49.0609V87.3H48.1609V87.6H47.8609V87.9H47.5609V91.5H47.8609V91.8H48.1609V92.1H49.0609V91.8H49.3609V91.5H49.6609ZM54.7629 89.4H54.4629V90H54.1629V90.6H53.8629V91.2H53.5629V91.8H53.2629V92.4H52.9629V93H52.6629V92.4H52.3629V91.8H52.0629V91.2H51.7629V90.6H51.4629V90H51.1629V89.4H50.8629V86.4H51.7629V89.1H52.0629V89.7H52.3629V90.3H52.6629V90.9H52.9629V90.3H53.2629V89.7H53.5629V89.1H53.8629V86.4H54.7629V89.4ZM58.9648 93H55.0648V86.4H58.9648V87.3H55.9648V89.1H58.3648V90H55.9648V92.1H58.9648V93ZM67.3687 91.5H67.0687V91.8H66.7687V92.1H66.4687V92.4H66.1687V92.7H65.8587V93H63.4687V86.4H65.8687V86.7H66.1687V87H66.4687V87.3H66.7687V87.6H67.0687V87.9H67.3687V91.5ZM66.4687 91.2V88.2H66.1687V87.9H65.8687V87.6H65.5687V87.3H64.3687V92.1H65.5687V91.8H65.8687V91.5H66.1687V91.2H66.4687ZM71.5707 92.1H71.2707V92.4H70.9707V92.7H70.6707V93H68.5707V92.7H68.2707V92.4H67.9707V92.1H67.6707V86.4H68.5707V91.8H68.8707V92.1H70.3707V91.8H70.6707V86.4H71.5707V92.1ZM75.7727 93H74.8727V91.8H74.5727V91.2H74.2727V90.6H73.9727V90H72.7727V93H71.8727V86.4H74.8727V86.7H75.1727V87H75.4727V87.3H75.7727V89.1H75.4727V89.4H75.1727V89.7H74.8727V90.3H75.1727V90.9H75.4727V91.5H75.7727V93ZM74.8727 88.8V87.6H74.5727V87.3H72.7727V89.1H74.5727V88.8H74.8727ZM79.9746 93H76.0746V92.1H77.5746V87.3H76.9746V86.4H79.0746V87.3H78.4746V92.1H79.9746V93ZM84.1766 93H83.2766V92.7H82.9766V92.1H82.6766V91.5H82.3766V90.9H82.0766V90.3H81.7766V89.7H81.4766V89.1H81.1766V93H80.2766V86.4H80.8766V87H81.1766V87.6H81.4766V88.2H81.7766V88.8H82.0766V89.4H82.3766V90H82.6766V90.6H82.9766V91.2H83.2766V86.4H84.1766V93ZM88.3785 92.4H88.0785V92.7H87.7785V93H85.6785V92.7H85.3785V92.4H85.0785V92.1H84.7785V91.8H84.4785V87.6H84.7785V87.3H85.0785V87H85.3785V86.7H85.6785V86.4H87.7785V86.7H88.0785V87H88.3785V87.6H87.4785V87.3H85.9785V87.6H85.6785V87.9H85.3785V91.5H85.6785V91.8H85.9785V92.1H87.4785V90.3H87.1785V90.6H86.2785V89.4H88.3785V92.4ZM96.7824 91.8H96.4824V92.1H96.1824V92.4H95.8824V92.7H95.5824V93H94.0824V92.7H93.7824V92.4H93.4824V92.1H93.1824V91.8H92.8824V87.6H93.1824V87.3H93.4824V87H93.7824V86.7H94.0824V86.4H95.5824V86.7H95.8824V87H96.1824V87.3H96.4824V87.6H96.7824V91.8ZM95.8824 91.5V87.9H95.5824V87.6H95.2824V87.3H94.3824V87.6H94.0824V87.9H93.7824V91.5H94.0824V91.8H94.3824V92.1H95.2824V91.8H95.5824V91.5H95.8824ZM100.984 89.4H100.684V89.7H100.384V90H100.084V90.3H97.9844V93H97.0844V86.4H100.084V86.7H100.384V87H100.684V87.3H100.984V89.4ZM100.084 89.1V87.6H99.7844V87.3H97.9844V89.4H99.7844V89.1H100.084ZM105.186 93H101.286V86.4H105.186V87.3H102.186V89.1H104.586V90H102.186V92.1H105.186V93ZM109.388 93H108.488V91.8H108.188V91.2H107.888V90.6H107.588V90H106.388V93H105.488V86.4H108.488V86.7H108.788V87H109.088V87.3H109.388V89.1H109.088V89.4H108.788V89.7H108.488V90.3H108.788V90.9H109.088V91.5H109.388V93ZM108.488 88.8V87.6H108.188V87.3H106.388V89.1H108.188V88.8H108.488ZM113.59 93H112.69V91.5H110.59V93H109.69V90.6V90.3V89.7H109.99V89.1H110.29V88.5H110.59V87.9H110.89V87.3H111.19V86.7H111.49V86.4H111.79V86.7H112.09V87.3H112.39V87.9H112.69V88.5H112.99V89.1H113.29V89.7H113.59V90.3V90.6V93ZM112.69 90.6V90.3V90H112.39V89.4H112.09V88.8H111.79V88.2H111.49V88.8H111.19V89.4H110.89V90H110.59V90.3V90.6H112.69ZM117.792 87.3H116.292V93H115.392V87.3H113.892V86.4H117.792V87.3ZM121.994 93H118.094V92.1H119.594V87.3H118.994V86.4H121.094V87.3H120.494V92.1H121.994V93ZM126.196 91.8H125.896V92.1H125.596V92.4H125.296V92.7H124.996V93H123.496V92.7H123.196V92.4H122.896V92.1H122.596V91.8H122.296V87.6H122.596V87.3H122.896V87H123.196V86.7H123.496V86.4H124.996V86.7H125.296V87H125.596V87.3H125.896V87.6H126.196V91.8ZM125.296 91.5V87.9H124.996V87.6H124.696V87.3H123.796V87.6H123.496V87.9H123.196V91.5H123.496V91.8H123.796V92.1H124.696V91.8H124.996V91.5H125.296ZM130.398 93H129.498V92.7H129.198V92.1H128.898V91.5H128.598V90.9H128.298V90.3H127.998V89.7H127.698V89.1H127.398V93H126.498V86.4H127.098V87H127.398V87.6H127.698V88.2H127.998V88.8H128.298V89.4H128.598V90H128.898V90.6H129.198V91.2H129.498V86.4H130.398V93Z" fill="#4B4B4B"/>
<circle cx="118.5" cy="12.5" r="12" stroke="#4B4B4B"/>
<path d="M118.5 5.72412C121.881 5.72412 124.918 6.50292 127.092 7.73584C129.281 8.97723 130.5 10.615 130.5 12.314C130.5 14.0128 129.28 15.6508 127.092 16.8921C124.918 18.1249 121.881 18.9028 118.5 18.9028C115.119 18.9028 112.082 18.1249 109.908 16.8921C107.72 15.6508 106.5 14.0128 106.5 12.314C106.5 10.615 107.719 8.97723 109.908 7.73584C112.082 6.50292 115.119 5.72412 118.5 5.72412Z" stroke="#4B4B4B"/>
<path d="M106.375 12.5H131.002" stroke="#4B4B4B"/>
</svg>
