<?xml version="1.0" standalone="no"?>
<!DOCTYPE svg PUBLIC "-//W3C//DTD SVG 1.1//EN" "http://www.w3.org/Graphics/SVG/1.1/DTD/svg11.dtd" >
<svg xmlns="http://www.w3.org/2000/svg" xmlns:xlink="http://www.w3.org/1999/xlink" version="1.1">
<metadata>
Created by FontForge 20201107 at Wed Feb  6 10:49:22 2019
 By 
Generated by Fontographer 3.5
</metadata>
<defs>
<font id="MicrogrammaNormal" horiz-adv-x="4096" >
  <font-face 
    font-family="Microgramma"
    font-weight="400"
    font-stretch="normal"
    units-per-em="4096"
    panose-1="2 11 114 0 0 0 0 0 0 0"
    ascent="3276"
    descent="-820"
    x-height="2770"
    cap-height="2802"
    bbox="20 -561 5792 3219"
    underline-thickness="20"
    underline-position="-143"
    unicode-range="U+0001-2219"
  />
<missing-glyph horiz-adv-x="3072" 
d="M512 0v2560h2048v-2560h-2048zM2494 66v2428h-1916v-2428h1916z" />
    <glyph glyph-name=".notdef" horiz-adv-x="3072" 
d="M512 0v2560h2048v-2560h-2048zM2494 66v2428h-1916v-2428h1916z" />
    <glyph glyph-name=".null" horiz-adv-x="0" 
 />
    <glyph glyph-name="nonmarkingreturn" horiz-adv-x="2023" 
 />
    <glyph glyph-name="SOH" 
 />
    <glyph glyph-name="STX" 
 />
    <glyph glyph-name="ETX" 
 />
    <glyph glyph-name="EOT" 
 />
    <glyph glyph-name="BEL" 
 />
    <glyph glyph-name="HT" unicode="&#x9;" horiz-adv-x="2023" 
 />
    <glyph glyph-name="CR.001" unicode="&#xd;" horiz-adv-x="2023" 
 />
    <glyph glyph-name="SI" 
 />
    <glyph glyph-name="NAK" 
 />
    <glyph glyph-name="SYN" 
 />
    <glyph glyph-name="ETB" 
 />
    <glyph glyph-name="CAN" 
 />
    <glyph glyph-name="EM" 
 />
    <glyph glyph-name="SUB" 
 />
    <glyph glyph-name="ESC" 
 />
    <glyph glyph-name="FS" 
 />
    <glyph glyph-name="GS" 
 />
    <glyph glyph-name="space" unicode=" " horiz-adv-x="2023" 
 />
    <glyph glyph-name="exclam" unicode="!" horiz-adv-x="594" 
d="M98 774v2069h377v-2069h-377zM516 0h-455h455zM61 496h455v-496h-455v496z" />
    <glyph glyph-name="quotedbl" unicode="&#x22;" horiz-adv-x="1569" 
d="M201 2802h458v-766q0 -103 -90 -185t-200 -82q-70 0 -127 5q-62 0 -99 20v270q222 0 222 111q0 70 -33 102q-37 29 -131 29v496zM934 2802h459v-766q0 -103 -90.5 -185t-200.5 -82q-70 0 -131 5q-62 0 -99 20v270q226 0 226 111q0 70 -33 102q-37 29 -131 29v496z" />
    <glyph glyph-name="numbersign" unicode="#" horiz-adv-x="2130" 
d="M1376 954h533l12 164h-516l61 463h529l24 172h-528l106 754h-180l-98 -754h-488l107 754h-172l-107 -754h-512l-32 -172h520l-57 -463h-521l-24 -164h512l-119 -823h176l123 823h487l-118 -823h163zM1294 1581l-65 -463h-484l62 463h487z" />
    <glyph glyph-name="dollar" unicode="$" horiz-adv-x="3670" 
d="M1958 2466v-897q721 0 1020 -164q323 -180 323 -639q0 -504 -360 -676q-275 -131 -983 -131v-340h-418v340q-840 0 -1069 147q-270 177 -270 828h417q0 -496 308 -565q143 -33 614 -33v856q-795 0 -1094 233q-245 193 -245 635q0 512 348 672q254 115 991 115v340h418
v-340q700 0 950 -152q316 -192 316 -778h-418q0 364 -160 459q-160 90 -688 90zM618 2015q0 -233 205 -340q201 -106 717 -106v897q-577 0 -749 -82q-173 -86 -173 -369zM1958 1192v-856q553 0 741 94q185 94 185 336q0 233 -181 324q-204 102 -745 102z" />
    <glyph glyph-name="percent" unicode="%" horiz-adv-x="3502" 
d="M20 418l3118 2081v-435l-3118 -2064v418zM66 1847q0 373 114 475q115 103 541 103q422 0 541 -103q114 -106 114 -475q0 -368 -114 -471q-119 -106 -541 -106q-426 0 -541 102q-114 103 -114 475zM721 1593q147 0 209 41q86 58 86 213q0 160 -86 217q-62 41 -209 41
q-148 0 -221 -49q-78 -53 -78 -209q0 -155 86 -213q65 -41 213 -41zM1769 635q0 373 115 475t541 102q422 0 541 -102q114 -106 114 -475t-114 -471q-119 -103 -541 -103q-426 0 -541 102.5t-115 471.5zM2425 381q147 0 209 41q86 57 86 213q0 160 -86 217q-62 41 -209 41
q-148 0 -221 -49q-78 -53 -78 -209t86 -213q65 -41 213 -41z" />
    <glyph glyph-name="ampersand" unicode="&#x26;" horiz-adv-x="4805" 
d="M3760 152q-131 -197 -1528 -197q-1179 0 -1503 180q-266 148 -266 676q0 442 118.5 622.5t430.5 229.5q-86 74 -111 184q-24 111 -24 267v65q0 397 401 545q307 115 987 115q655 0 995 -123q398 -144 398 -447v-348h-414v262q0 144 -266 209q-271 66 -717 66
q-492 0 -692 -45q-275 -62 -275 -230q-4 -78 -4 -123q0 -94 25 -159q24 -70 98 -111l2097 -1106q58 53 66 209q4 151 4 352h418v-98q0 -229 -8 -389q-13 -164 -46 -295l426 -217v-389zM1487 1298q-156 78 -254 78q-205 0 -279 -114q-77 -115 -77 -451q0 -283 208 -369
q267 -110 1147 -110h258h193q188 0 385 4q192 0 336 20z" />
    <glyph glyph-name="quotesingle" unicode="'" 
 />
    <glyph glyph-name="parenleft" unicode="(" horiz-adv-x="983" 
d="M455 524v1753q0 242 114 406q115 160 283 160v290q-369 0 -590 -241q-225 -242 -225 -615v-1753q0 -372 221 -614t594 -242v291q-168 0 -283 160q-114 160 -114 405z" />
    <glyph glyph-name="parenright" unicode=")" horiz-adv-x="983" 
d="M434 524v1753q0 246 -115 406q-114 160 -282 160v290q364 0 589.5 -241.5t225.5 -614.5v-1753q0 -372 -221 -614q-225 -242 -594 -242v291q168 0 282 160q115 160 115 405z" />
    <glyph glyph-name="asterisk" unicode="*" 
 />
    <glyph glyph-name="plus" unicode="+" 
 />
    <glyph glyph-name="comma" unicode="," horiz-adv-x="815" 
d="M184 471h455v-766q0 -102 -90 -184t-201 -82q-69 0 -127 4q-61 0 -98 25v270q221 0 221 106q0 74 -33 103q-32 28 -127 28v496z" />
    <glyph glyph-name="hyphen" unicode="-" horiz-adv-x="1970" 
d="M233 1602h1409v-377h-1409v377z" />
    <glyph glyph-name="period" unicode="." horiz-adv-x="696" 
d="M139 475h459v-495h-459v495z" />
    <glyph glyph-name="slash" unicode="/" horiz-adv-x="3416" 
d="M2892 2232l-2613 -2232v537l2613 2232v-537z" />
    <glyph glyph-name="zero" unicode="0" horiz-adv-x="3797" 
d="M3383 1397q0 -1000 -241 -1217q-242 -221 -1315 -221t-1307 209q-254 225 -254 1229q0 1003 246 1224q246 222 1315 222q1061 0 1311 -222q245 -225 245 -1224zM2970 1397q0 786 -148 925q-147 140 -995 140t-996 -135q-147 -136 -147 -930q0 -803 139 -930
q135 -131 1004 -131q844 0 995 139q148 135 148 922z" />
    <glyph glyph-name="one" unicode="1" horiz-adv-x="3789" 
d="M2032 2425h-78l-873 -873l-254 279l971 971h651v-2802h-417v2425z" />
    <glyph glyph-name="two" unicode="2" horiz-adv-x="3793" 
d="M1950 1397q544 0 749 90q246 106 246 414q0 389 -176 475q-180 86 -950 86q-811 0 -967 -103q-160 -106 -160 -630h-418q0 757 299 950q254 164 1246 164q942 0 1224 -156q320 -176 320 -766q0 -586 -451 -778q-286 -123 -970 -123q-742 0 -967 -70q-283 -86 -283 -377
v-196h2671v-377h-3089v578q0 368 226 557q192 163 602 221q287 41 848 41z" />
    <glyph glyph-name="three" unicode="3" horiz-adv-x="3797" 
d="M2609 1606h-1159v-377h1159q164 0 250 -90q82 -95 82 -242q0 -385 -168 -475q-172 -90 -905 -90q-819 0 -983 94q-168 94 -168 561h-418q0 -684 274 -856q275 -176 1295 -176q909 0 1184 156q307 176 307 761q0 451 -275 541q144 86 209 209q66 123 66 369
q0 536 -344 704q-291 144 -1164 144q-921 0 -1192 -156q-315 -184 -315 -819h418q0 393 151 483q185 111 955 111q631 0 852 -82q221 -86 221 -381q0 -193 -107 -299q-90 -90 -225 -90z" />
    <glyph glyph-name="four" unicode="4" horiz-adv-x="3789" 
d="M2945 2802v-1889h471v-376h-471v-537h-418v537h-2265v684l2028 1581h655zM2527 913v1512h-98l-1749 -1372v-140h1847z" />
    <glyph glyph-name="five" unicode="5" horiz-adv-x="3789" 
d="M3248 2425h-2519v-717q53 123 324 172q270 45 766 45q934 0 1220 -164q332 -188 332 -819t-332 -819q-286 -164 -1216 -164q-1000 0 -1266 152q-287 163 -287 761h418q0 -364 184 -450q185 -86 951 -86q749 0 942 106q188 103 188 508q0 406 -176 504q-176 94 -958 94
q-668 0 -852 -45q-189 -45 -238 -213h-418v1512h2937v-377z" />
    <glyph glyph-name="six" unicode="6" horiz-adv-x="3789" 
d="M737 1872v-438q86 110 271 168q274 86 811 86q979 0 1220 -127q283 -148 283 -734q0 -565 -270 -716q-275 -152 -1233 -152q-1098 0 -1295 205q-200 201 -200 1253q0 942 200 1159q246 267 1295 267q946 0 1224 -164q279 -168 279 -733h-418q0 348 -172 434
q-172 82 -913 82h-17q-651 0 -856 -107q-209 -106 -209 -483zM1819 1311q-738 0 -910 -82t-172 -402q0 -323 176 -405q172 -86 906 -86q733 0 909 86t176 405q0 316 -176 402q-180 82 -909 82z" />
    <glyph glyph-name="seven" unicode="7" horiz-adv-x="3789" 
d="M868 0l1983 2322v103h-2540v377h2958v-578l-1860 -2224h-541z" />
    <glyph glyph-name="eight" unicode="8" horiz-adv-x="3801" 
d="M254 811q0 287 65 430q66 139 254 229q-172 111 -208 189q-50 98 -50 381q0 471 287 631q307 172 1241 172q930 0 1245 -177q287 -159 287 -626q0 -283 -45 -369q-49 -86 -217 -201q192 -90 246 -221q53 -135 53 -438q0 -528 -258 -680q-291 -172 -1311 -172t-1323 176
q-266 156 -266 676zM2957 2040q0 262 -209 344q-208 78 -905 78q-704 0 -909 -78q-205 -82 -205 -348q0 -283 189 -353q188 -73 925 -73q733 0 926 69q188 70 188 361zM2994 811q0 311 -192 397q-197 82 -959 82q-774 0 -971 -82q-200 -82 -200 -397t196 -393
q197 -82 975 -82q783 0 967 78t184 397z" />
    <glyph glyph-name="nine" unicode="9" horiz-adv-x="3789" 
d="M2904 930v426q-86 -111 -270 -164q-267 -78 -811 -78q-975 0 -1217 127q-282 148 -282 733q0 566 274 717q270 152 1225 152q1102 0 1306 -209q193 -197 193 -1250q0 -942 -201 -1159q-246 -266 -1298 -266q-942 0 -1221 168q-278 164 -278 729h413q0 -348 176 -434
q172 -86 910 -86h16q651 0 848 102q217 115 217 492zM1823 1491q737 0 909 82t172 401q0 320 -172 406q-176 82 -909 82q-738 0 -910 -82q-176 -82 -176 -406q0 -315 181 -397q176 -86 905 -86z" />
    <glyph glyph-name="colon" unicode=":" horiz-adv-x="844" 
d="M139 2802h459v-496h-459v496zM139 475h459v-495h-459v495z" />
    <glyph glyph-name="semicolon" unicode=";" horiz-adv-x="737" 
d="M160 2798h454v-496h-454v496zM160 471h454v-766q0 -102 -90 -184t-196 -82q-70 0 -131 4q-62 0 -99 25v270q226 0 226 106q0 70 -33 103q-37 28 -131 28v496z" />
    <glyph glyph-name="less" unicode="&#x3c;" 
 />
    <glyph glyph-name="equal" unicode="=" horiz-adv-x="2331" 
d="M233 1970h1680v-377h-1680v377zM233 1225h1680v-377h-1680v377z" />
    <glyph glyph-name="greater" unicode="&#x3e;" 
 />
    <glyph glyph-name="question" unicode="?" horiz-adv-x="3117" 
d="M1556 795h-417v245q0 222 221 357q221 131 516 131q303 0 422 123q115 118 115 401q0 287 -156 369t-758 82t-758 -99q-155 -102 -155 -495h-418q0 614 250 794q250 176 1081 176q782 0 1057 -159q274 -164 274 -668q0 -430 -176 -655.5t-500 -225.5q-229 0 -413.5 -81.5
t-184.5 -188.5v-106zM1081 516h496v-516h-496v516z" />
    <glyph glyph-name="at" unicode="@" 
 />
    <glyph glyph-name="A" unicode="A" horiz-adv-x="3887" 
d="M2187 2802l1479 -2802h-471l-332 623h-1999l-327 -623h-471l1474 2802h647zM2683 995l-762 1471h-106l-762 -1471h1630z" />
    <glyph glyph-name="B" unicode="B" horiz-adv-x="3838" 
d="M3310 819q0 -413 -226 -614q-229 -205 -663 -205h-2249v2802h2146q430 0 664 -205q229 -209 229 -590q0 -422 -319 -541q180 -57 286 -204q132 -181 132 -443zM2793 2007q0 197 -98 299q-115 119 -377 119h-1728v-803h1728q267 0 381 107q94 90 94 278zM590 1262v-885
h1827q233 0 356 123q119 118 119 315q0 193 -123 320t-352 127h-1827z" />
    <glyph glyph-name="C" unicode="C" horiz-adv-x="3908" 
d="M676 1397q0 -766 164 -914q164 -147 1003 -147q783 0 955 86q200 102 200 553h418q0 -668 -274 -840q-279 -176 -1299 -176q-1036 0 -1311 246q-274 246 -274 1192q0 950 274 1200q271 246 1311 246q1024 0 1298.5 -172t274.5 -844h-418q0 450 -184 545q-184 90 -971 90
q-844 0 -1003 -144q-164 -147 -164 -921z" />
    <glyph glyph-name="D" unicode="D" horiz-adv-x="4211" 
d="M2617 2802q521 0 709 -193q278 -287 278 -1208q0 -918 -278 -1204q-188 -197 -709 -197h-2351v2802h2351zM684 377h1929q336 0 455 209t119 815q0 610 -115 819q-119 205 -459 205h-1929v-2048z" />
    <glyph glyph-name="E" unicode="E" horiz-adv-x="3441" 
d="M221 2802h2683v-377h-2265v-815h2187v-377h-2187v-856h2265v-377h-2683v2802z" />
    <glyph glyph-name="F" unicode="F" horiz-adv-x="3322" 
d="M610 1171v-1171h-413v2802h2601v-377h-2188v-877h2106v-377h-2106z" />
    <glyph glyph-name="G" unicode="G" horiz-adv-x="4010" 
d="M582 1397q0 -774 168 -922q168 -147 1069 -147q880 0 1065 102q180 102 180 623h-1352v377h1770v-377q0 -725 -295 -914q-295 -192 -1368 -192q-1090 0 -1373 250q-282 249 -282 1204q0 954 282 1200q279 242 1373 242q1077 0 1372 -160q291 -164 291 -795h-418
q0 406 -197 492q-196 82 -1048 82q-910 0 -1074 -144q-163 -143 -163 -921z" />
    <glyph glyph-name="H" unicode="H" horiz-adv-x="4039" 
d="M279 2802h417v-1188h2413v1188h414v-2802h-414v1237h-2413v-1237h-417v2802z" />
    <glyph glyph-name="I" unicode="I" horiz-adv-x="1221" 
d="M754 0h-418v2802h418v-2802z" />
    <glyph glyph-name="J" unicode="J" horiz-adv-x="3322" 
d="M2445 2802h414v-1758q0 -753 -258 -933q-217 -152 -1110 -152q-868 0 -1106 176q-266 197 -266 909h418q0 -483 143 -593q143 -115 815 -115t811 110q139 111 139 598v1758z" />
    <glyph glyph-name="K" unicode="K" horiz-adv-x="3903" 
d="M229 2798h418v-1180h410l1810 1180h729l-2072 -1360l2126 -1438h-709l-1843 1241h-451v-1241h-418v2798z" />
    <glyph glyph-name="L" unicode="L" horiz-adv-x="2970" 
d="M197 2802h413v-2425h2151v-377h-2564v2802z" />
    <glyph glyph-name="M" unicode="M" horiz-adv-x="5276" 
d="M1057 2802l1450 -2302l1450 2302h745v-2802h-413v2425h-82l-1569 -2425h-262l-1569 2425h-78v-2425h-418v2802h746z" />
    <glyph glyph-name="N" unicode="N" horiz-adv-x="4297" 
d="M283 2806h610l2404 -2458v2458h418v-2806h-631l-2384 2437v-2437h-417v2806z" />
    <glyph glyph-name="O" unicode="O" horiz-adv-x="4002" 
d="M1954 -41q-873 0 -1221 115q-348 110 -442 426q-66 217 -66 897q0 692 62 897q94 319 446 434t1221 115q872 0 1220 -111q344 -115 443 -434q65 -217 65 -901q0 -688 -61 -893q-94 -320 -443 -430q-348 -115 -1224 -115zM1954 336q966 0 1138 143q173 144 173 918
q0 778 -168 921q-172 144 -1143 144t-1139 -144q-172 -143 -172 -921q0 -770 172 -914q172 -147 1139 -147z" />
    <glyph glyph-name="P" unicode="P" horiz-adv-x="3559" 
d="M193 0v2802h2281q381 0 590 -217q205 -222 205 -676q0 -451 -213 -668q-217 -221 -598 -221h-1852v-1020h-413zM606 1397h1852q184 0 290 127q103 123 103 385q0 266 -103 393q-106 123 -294 123h-1848v-1028z" />
    <glyph glyph-name="Q" unicode="Q" horiz-adv-x="4231" 
d="M3662 1417q0 -319 -8 -508q-13 -192 -50 -348l316 -205l-205 -307l-291 193q-159 -164 -676 -226q-311 -36 -815 -36q-872 0 -1220 114q-348 111 -443 426q-65 217 -65 897q0 692 61 897q94 316 447 430q352 115 1220 115q873 0 1221 -111q348 -114 442 -430
q66 -217 66 -901zM3052 496l-1000 663l201 307l966 -651q13 74 21 250q4 176 4 352q0 778 -168 922q-172 143 -1143 143q-970 0 -1138 -143q-172 -144 -172 -922q0 -770 172 -913q172 -148 1138 -148q480 0 733 25q254 25 386 115z" />
    <glyph glyph-name="R" unicode="R" horiz-adv-x="4051" 
d="M2777 2802q356 0 549 -242q192 -246 192 -651q0 -348 -110 -520q-78 -123 -250 -197q152 -62 238 -160q122 -139 122 -344v-688h-413v688q0 139 -131 234q-135 90 -324 90h-1970v-1012h-418v2802h2515zM680 1393h1929q230 0 340 82q156 114 156 434q0 319 -160 438
q-106 78 -336 78h-1929v-1032z" />
    <glyph glyph-name="S" unicode="S" horiz-adv-x="3723" 
d="M1806 1569q979 0 1233 -115q316 -143 316 -688q0 -516 -381 -676q-312 -131 -1262 -131q-1028 0 -1323 225q-225 172 -225 750h418q0 -397 176 -496q176 -102 958 -102q766 0 996 74q225 73 225 356q0 287 -168 356q-172 70 -963 70q-966 0 -1298 233q-254 177 -254 635
q0 496 307 643q303 144 1245 144q938 0 1233 -226q234 -180 234 -704h-410q0 360 -184.5 454.5t-872.5 94.5q-589 0 -725 -17q-409 -49 -409 -389q0 -286 221 -389q221 -102 913 -102z" />
    <glyph glyph-name="T" unicode="T" horiz-adv-x="3408" 
d="M213 2802h2929v-377h-1254v-2425h-418v2425h-1257v377z" />
    <glyph glyph-name="U" unicode="U" horiz-adv-x="3752" 
d="M647 815q0 -328 184 -401q181 -78 967 -78q795 0 975 78q180 73 180 401v1987h418v-1987q0 -577 -229 -709q-254 -147 -1344 -147q-1085 0 -1327 139q-242 140 -242 717v1987h418v-1987z" />
    <glyph glyph-name="V" unicode="V" horiz-adv-x="3695" 
d="M3224 2802l-1307 -2425h-62l-1306 2425h-438l1527 -2802h496l1524 2802h-434z" />
    <glyph glyph-name="W" unicode="W" horiz-adv-x="6242" 
d="M688 2798h-442l1274 -2798h532l963 2241l970 -2241h537l1270 2798h-439l-1081 -2392h-49l-1024 2392h-356l-1028 -2392h-46z" />
    <glyph glyph-name="X" unicode="X" horiz-adv-x="4051" 
d="M1913 1659l-1180 1143h-577l1429 -1360l-1458 -1442h557l1229 1225h53l1229 -1225h569l-1458 1442l1430 1360h-594l-1176 -1143h-53z" />
    <glyph glyph-name="Y" unicode="Y" horiz-adv-x="3965" 
d="M3207 2802h561l-1659 -1680v-1122h-421v1122l-1655 1680h561l1307 -1332z" />
    <glyph glyph-name="Z" unicode="Z" horiz-adv-x="3682" 
d="M344 2802h2884v-377l-2368 -2048h2368v-377h-2978v377l2396 2048h-2302v377z" />
    <glyph glyph-name="bracketleft" unicode="[" horiz-adv-x="983" 
d="M852 -41h-397v2884h397v290h-815v-3465h815v291z" />
    <glyph glyph-name="backslash" unicode="\" horiz-adv-x="3416" 
d="M279 2232l2613 -2232v537l-2613 2232v-537z" />
    <glyph glyph-name="bracketright" unicode="]" horiz-adv-x="983" 
d="M37 -41h397v2884h-397v290h815v-3465h-815v291z" />
    <glyph glyph-name="asciicircum" unicode="^" 
 />
    <glyph glyph-name="underscore" unicode="_" 
 />
    <glyph glyph-name="grave" unicode="`" 
 />
    <glyph glyph-name="a" unicode="a" horiz-adv-x="3887" 
d="M2139 2774q9 0 19.5 -7t15.5 -15l1423 -2696l-1 1q12 -20 0.5 -38.5t-34.5 -18.5h-453q-9 0 -19.5 7t-15.5 14l-309 578h-1875l-304 -578q-5 -7 -15.5 -14t-18.5 -7h-453q-12 0 -21 5t-14 13.5t-5 18.5t6 20l-1 -1l1418 2696q5 8 15 15t19 7h623zM2552 1035l-692 1338
h-55q-89 -171 -175 -337t-171.5 -331.5t-172 -332t-174.5 -337.5h1440z" />
    <glyph glyph-name="b" unicode="b" horiz-adv-x="3838" 
d="M3256 827q0 -204 -60 -360.5t-171 -259.5q-115 -97 -284.5 -152t-378.5 -55h-2164q-16 0 -27 11.5t-11 27.5v2696q0 16 11 27.5t27 11.5h2065q216 0 380.5 -52t283.5 -155q234 -212 234 -597q0 -180 -67 -311t-183 -206q66 -32 117 -76t93 -101q67 -91 101 -203.5
t34 -245.5zM2681 1970q0 174 -83 260q-50 51 -132.5 77t-202.5 26h-1624v-695h1624q241 0 339 92q79 75 79 240zM639 1214v-774h1719q207 0 316 107q51 51 77 119.5t26 156.5q0 87 -27 156t-80 124q-107 111 -312 111h-1719z" />
    <glyph glyph-name="c" unicode="c" horiz-adv-x="3908" 
d="M724 1383q0 -353 38 -566t106 -284q80 -64 315.5 -98t623.5 -34q367 0 592.5 20.5t310.5 58.5h-2q85 46 129 170t44 327q0 16 10.5 27.5t27.5 11.5h402q16 0 27.5 -11.5t11.5 -27.5q0 -328 -72 -539.5t-210 -302.5q-142 -84 -461.5 -129t-809.5 -45q-499 0 -822.5 62.5
t-462.5 183.5q-137 127 -207.5 422.5t-70.5 753.5q0 466 69 761.5t209 422.5q270 246 1285 246q999 0 1271 -172q282 -176 282 -844q0 -17 -11.5 -28t-27.5 -11h-402q-17 0 -27.5 11t-10.5 28q0 201 -39.5 323.5t-117.5 165.5h2q-91 39 -320.5 61t-598.5 22
q-398 0 -633.5 -32t-305.5 -98q-144 -130 -144 -856z" />
    <glyph glyph-name="d" unicode="d" horiz-adv-x="4211" 
d="M2554 2774q516 0 710 -198q279 -290 279 -1189q0 -444 -72 -742.5t-207 -443.5q-98 -95 -277.5 -148t-432.5 -53h-2262q-16 0 -27 11.5t-11 27.5v2696q0 16 11 27.5t27 11.5h2262zM733 440h1817q300 0 405 182q109 191 109 765q0 284 -27 477t-78 291q-53 88 -155 133
t-254 45h-1817v-1893z" />
    <glyph glyph-name="e" unicode="e" horiz-adv-x="3441" 
d="M203 2735q0 16 11.5 27.5t27.5 11.5h2581q17 0 28 -11.5t11 -27.5v-363q0 -17 -11 -28t-28 -11h-2140v-707h2065q17 0 28 -10.5t11 -27.5v-363q0 -17 -11 -28t-28 -11h-2065v-746h2140q17 0 28 -11t11 -28v-362q0 -16 -11 -27.5t-28 -11.5h-2581q-16 0 -27.5 11.5
t-11.5 27.5v2696z" />
    <glyph glyph-name="f" unicode="f" horiz-adv-x="3322" 
d="M654 1127v-1088q0 -16 -11.5 -27.5t-27.5 -11.5h-397q-16 0 -27.5 11.5t-11.5 27.5v2696q0 16 11.5 27.5t27.5 11.5h2502q17 0 28 -11.5t11 -27.5v-363q0 -17 -11 -28t-28 -11h-2066v-766h1987q16 0 27.5 -11t11.5 -28v-363q0 -17 -11.5 -27.5t-27.5 -10.5h-1987z" />
    <glyph glyph-name="g" unicode="g" horiz-adv-x="4010" 
d="M633 1383q0 -356 39 -570.5t109 -286.5q89 -60 342 -96.5t662 -36.5q415 0 666 24t338 69q70 45 110.5 177.5t43.5 349.5h-1261q-17 0 -28 11.5t-11 26.5v363q0 17 11 28.5t28 11.5h1703q17 0 27.5 -11.5t10.5 -28.5v-363q0 -719 -301 -912q-147 -95 -480.5 -142.5
t-856.5 -47.5q-527 0 -865 64t-483 186q-138 129 -210.5 427t-72.5 761q0 936 284 1184q281 242 1347 242q1044 0 1339 -160q299 -169 299 -798q0 -16 -10.5 -27t-27.5 -11h-403q-16 0 -27.5 11t-11.5 27q0 183 -42.5 292t-123.5 146l1 -1q-94 38 -342.5 57.5t-650.5 19.5
q-431 0 -683 -32t-326 -98q-143 -125 -143 -856z" />
    <glyph glyph-name="h" unicode="h" horiz-adv-x="4039" 
d="M265 2735q0 16 11.5 27.5t27.5 11.5h402q17 0 27.5 -11.5t10.5 -27.5v-1105h2244v1105q0 16 11.5 27.5t27.5 11.5h398q17 0 28 -11.5t11 -27.5v-2696q0 -16 -11 -27.5t-28 -11.5h-398q-16 0 -27.5 11.5t-11.5 27.5v1151h-2244v-1151q0 -16 -10.5 -27.5t-27.5 -11.5h-402
q-16 0 -27.5 11.5t-11.5 27.5v2696z" />
    <glyph glyph-name="i" unicode="i" horiz-adv-x="1221" 
d="M774 39q0 -16 -10.5 -27.5t-27.5 -11.5h-402q-17 0 -28 11.5t-11 27.5v2696q0 16 11 27.5t28 11.5h402q17 0 27.5 -11.5t10.5 -27.5v-2696z" />
    <glyph glyph-name="j" unicode="j" horiz-adv-x="3322" 
d="M2342 2735q0 16 11 27.5t27 11.5h398q17 0 28 -11.5t11 -27.5v-1691q0 -366 -69 -599t-196 -330q-113 -75 -387 -114.5t-702 -39.5q-847 0 -1088 176q-135 102 -203.5 327t-68.5 580q0 15 11.5 26.5t28.5 11.5h402q16 0 27.5 -11.5t11.5 -26.5q0 -448 122 -540
q127 -103 761 -103q316 0 505 25t251 73q119 92 119 545v1691z" />
    <glyph glyph-name="k" unicode="k" horiz-adv-x="3903" 
d="M218 2731q0 16 11 27.5t28 11.5h402q16 0 27.5 -11.5t11.5 -27.5v-1097h343l1742 1136h713q14 0 23 -8t12 -19.5t0 -24t-14 -21.5q-236 -155 -480.5 -315t-490.5 -321.5t-491 -322t-482 -316.5l1996 -1350h-1q13 -8 17 -20t0.5 -23.5t-13 -20t-24.5 -8.5h-696l-1772 1194
h-382v-1155q0 -16 -11.5 -27.5t-27.5 -11.5h-402q-17 0 -28 11.5t-11 27.5v2692z" />
    <glyph glyph-name="l" unicode="l" horiz-adv-x="2970" 
d="M179 2735q0 16 11 27.5t27 11.5h397q17 0 28.5 -11.5t11.5 -27.5v-2295h2030q16 0 27.5 -11t11.5 -28v-362q0 -16 -11.5 -27.5t-27.5 -11.5h-2467q-16 0 -27 11.5t-11 27.5v2696z" />
    <glyph glyph-name="m" unicode="m" horiz-adv-x="5276" 
d="M1064 2774q8 0 18.5 -6.5t15.5 -13.5l1361 -2161l1363 2163l-1 -2q4 7 14.5 13.5t18.5 6.5h717q17 0 28 -11.5t11 -27.5v-2696q0 -16 -11 -27.5t-28 -11.5h-397q-17 0 -28.5 11.5t-11.5 27.5v2294h-18l-1499 -2316q-5 -5 -14.5 -11t-17.5 -6h-252q-7 0 -17.5 6t-15.5 11
l-1497 2316h-15v-2294q0 -16 -11.5 -27.5t-27.5 -11.5h-403q-16 0 -27.5 11.5t-11.5 27.5v2696q0 16 11.5 27.5t27.5 11.5h718z" />
    <glyph glyph-name="n" unicode="n" horiz-adv-x="4297" 
d="M271 2739q0 17 11.5 27.5t27.5 10.5h587q5 0 14.5 -4t12.5 -7l2246 -2297v2270q0 17 11.5 27.5t28.5 10.5h402q16 0 27.5 -10.5t11.5 -27.5v-2700q0 -16 -11.5 -27.5t-27.5 -11.5h-607q-5 0 -15 4.5t-13 7.5l-2227 2276v-2249q0 -16 -11 -27.5t-28 -11.5h-401
q-16 0 -27.5 11.5t-11.5 27.5v2700z" />
    <glyph glyph-name="o" unicode="o" horiz-adv-x="4002" 
d="M1916 -39q-420 0 -717 28t-469 85q-79 28 -150.5 71.5t-130 99.5t-102.5 122.5t-68 140.5q-32 112 -48 331.5t-16 543.5q0 327 15.5 547t45.5 327q50 157 164.5 271.5t290.5 171.5q173 57 467.5 85t717.5 28q847 0 1186 -109q177 -60 288.5 -169t162.5 -274
q33 -109 49 -327.5t16 -550.5q0 -327 -15.5 -546t-45.5 -325q-24 -77 -66.5 -144.5t-100.5 -123.5t-129.5 -99.5t-154.5 -70.5q-173 -57 -470.5 -85t-719.5 -28zM1916 401q446 0 716 33.5t356 95.5q71 73 111.5 287t40.5 566q0 358 -38.5 572t-109.5 283q-88 61 -360 96
t-716 35q-459 0 -727 -32t-343 -98q-152 -125 -152 -856q0 -724 152 -850q154 -132 1070 -132z" />
    <glyph glyph-name="p" unicode="p" horiz-adv-x="3559" 
d="M218 0q-16 0 -27.5 11.5t-11.5 27.5v2696q0 16 11.5 27.5t27.5 11.5h2195q382 0 595 -221q209 -229 209 -678q0 -447 -217 -670q-221 -224 -603 -224h-1742v-942q0 -16 -11.5 -27.5t-27.5 -11.5h-398zM655 1421h1742q80 0 142 27.5t108 81.5t67.5 139.5t21.5 205.5
q0 241 -90 354l1 -1q-91 105 -253 105h-1739v-912z" />
    <glyph glyph-name="q" unicode="q" horiz-adv-x="4231" 
d="M3601 1402q0 -154 -2 -276.5t-6 -214.5q-6 -87 -16 -163t-27 -151l281 -183h-1q14 -8 18 -24t-5 -30l-197 -295q-8 -12 -25 -15t-29 3l-255 169q-85 -72 -252 -124.5t-399 -81.5q-149 -17 -347 -26.5t-440 -9.5q-422 0 -718.5 28t-467.5 84q-354 114 -451 436
q-65 219 -65 874q0 328 16 548t45 326q51 156 165 269.5t290 170.5q345 112 1186 112q845 0 1186 -108q174 -57 287 -170.5t164 -270.5q32 -112 48.5 -332t16.5 -545zM1992 1121q-12 8 -15 24.5t3 29.5q48 73 97 147.5t96 147.5q9 14 26 17.5t29 -6.5l-1 1l878 -592
q8 72 12 175q1 40 2 83t1.5 86.5t0.5 86v81.5q0 361 -38.5 576.5t-110.5 281.5l2 -1q-82 62 -351.5 95t-723.5 33q-921 0 -1070 -127q-152 -126 -152 -858q0 -723 152 -849q155 -133 1070 -133q231 0 404.5 6t296.5 18q188 18 302 74z" />
    <glyph glyph-name="r" unicode="r" horiz-adv-x="4051" 
d="M2707 2774q182 0 320.5 -62.5t238.5 -186.5q98 -123 145.5 -284.5t47.5 -365.5q0 -171 -29 -302t-83 -219q-29 -45 -78 -89t-105 -77q51 -27 92.5 -60t75.5 -71q63 -74 95 -161.5t32 -195.5v-661q0 -16 -11.5 -27.5t-27.5 -11.5h-397q-16 0 -27.5 11.5t-11.5 27.5v661
q0 117 -110 194l1 -1q-120 81 -290 81h-1856v-935q0 -16 -11.5 -27.5t-27.5 -11.5h-402q-17 0 -28.5 11.5t-11.5 27.5v2696q0 16 11.5 27.5t28.5 11.5h2419zM729 1418h1817q207 0 304 71q134 98 134 386q0 141 -36 239t-102 152q-47 30 -123.5 48.5t-176.5 18.5h-1817v-915z
" />
    <glyph glyph-name="s" unicode="s" horiz-adv-x="3723" 
d="M1770 1587q472 0 772 -29t430 -86q156 -77 242 -253t86 -443q0 -521 -390 -686q-155 -64 -462.5 -96.5t-767.5 -32.5q-501 0 -824.5 55t-470.5 168q-233 179 -233 754q0 17 11.5 27.5t27.5 10.5h402q16 0 27.5 -10.5t11.5 -27.5q0 -359 150 -445q160 -92 902 -92
q360 0 598 18.5t349 50.5q93 32 141 108t48 198q0 124 -35.5 200.5t-102.5 105.5l1 -1q-87 32 -316 49t-597 17q-467 0 -785 59t-486 172q-127 93 -194 253.5t-67 389.5q0 250 81 412.5t236 240.5q155 68 461 105.5t754 37.5q917 0 1210 -226q241 -185 241 -708
q0 -16 -11.5 -27.5t-27.5 -11.5h-394q-17 0 -28.5 11.5t-11.5 27.5q0 159 -40 259.5t-116 142.5q-90 42 -296 65t-526 23q-283 0 -455 -4.5t-238 -12.5q-358 -42 -358 -335q0 -122 49.5 -208t140.5 -132h-1q104 -46 320.5 -70t541.5 -24z" />
    <glyph glyph-name="t" unicode="t" horiz-adv-x="3408" 
d="M197 2735q0 16 11.5 27.5t28.5 11.5h2818q17 0 27.5 -11.5t10.5 -27.5v-363q0 -17 -10.5 -28t-27.5 -11h-1168v-2294q0 -16 -11 -27.5t-28 -11.5h-402q-17 0 -28 11.5t-11 27.5v2294h-1170q-17 0 -28.5 11t-11.5 28v363z" />
    <glyph glyph-name="u" unicode="u" horiz-adv-x="3752" 
d="M695 823q0 -291 152 -351q164 -71 917 -71q761 0 922 71q150 61 150 351v1912q0 16 11.5 27.5t27.5 11.5h402q16 0 27.5 -11.5t11.5 -27.5v-1912q0 -288 -61 -466.5t-179 -249.5q-131 -71 -460 -108.5t-852 -37.5q-526 0 -851 34.5t-446 104.5q-252 146 -252 723v1912
q0 16 11.5 27.5t27.5 11.5h403q17 0 27.5 -11.5t10.5 -27.5v-1912z" />
    <glyph glyph-name="v" unicode="v" horiz-adv-x="3695" 
d="M3555 2774q12 0 20.5 -5.5t13.5 -14t5.5 -19t-4.5 -20.5l-1467 -2695q-5 -8 -16 -14t-19 -6h-476q-9 0 -20 6t-16 14l-1469 2695h1q-6 10 -6 20.5t5 19t14 14t21 5.5h422q8 0 18.5 -7t15.5 -15l1245 -2312h14l707 1313l539 1000q5 7 14.5 14t19.5 7h418z" />
    <glyph glyph-name="w" unicode="w" horiz-adv-x="6242" 
d="M1780 475q121 283 242 562.5t243 563.5l492 1145q5 9 15 16.5t20 7.5h343q10 0 19.5 -7.5t14.5 -16.5l974 -2274l1029 2274q5 9 15 16.5t20 7.5h422q24 0 34 -15.5t5 -32.5l-1226 -2699q-4 -9 -15 -16t-20 -7h-516q-11 0 -21 7t-14 16l-899 2075l-891 -2075
q-5 -9 -15 -16t-19 -7h-512q-10 0 -21 7t-15 16l-1225 2692q-9 20 1 37.5t33 17.5h426q10 0 20 -7.5t14 -16.5z" />
    <glyph glyph-name="x" unicode="x" horiz-adv-x="4051" 
d="M1912 1673l1132 1101h587q14 0 24 -7t14 -17.5t1.5 -22t-12.5 -21.5v1l-1348 -1281l1375 -1360v1q10 -9 12 -21t-2 -22t-13.5 -17t-23.5 -7h-548q-5 0 -14 4.5t-12 7.5q-142 141 -289.5 288t-296.5 295.5t-296.5 295.5t-289.5 288h-19l-1171 -1167q-4 -3 -14 -7.5
t-13 -4.5h-536q-14 0 -23 7t-13 17t-2.5 21.5t10.5 20.5l1375 1360q-336 321 -673 640.5t-673 640.5v-1q-11 10 -13 21.5t2 22t14 17.5t24 7h570l1136 -1101h19z" />
    <glyph glyph-name="y" unicode="y" horiz-adv-x="3965" 
d="M3094 2762q3 3 13 7.5t14 4.5h540q14 0 23.5 -7t13 -17t1.5 -21.5t-11 -21.5l-1585 -1605v-1063q0 -16 -10.5 -27.5t-27.5 -11.5h-405q-17 0 -28 11.5t-11 27.5v1063l-1580 1605q-9 10 -10.5 21.5t2 21.5t12.5 17t23 7h540q4 0 14 -4.5t13 -7.5l1230 -1254z" />
    <glyph glyph-name="z" unicode="z" horiz-adv-x="3682" 
d="M324 2735q0 16 11.5 27.5t28.5 11.5h2775q17 0 27.5 -11.5t10.5 -27.5v-363q0 -6 -4 -15.5t-9 -14.5l-2199 -1902h2174q17 0 27.5 -11t10.5 -28v-362q0 -16 -10.5 -27.5t-27.5 -11.5h-2866q-16 0 -27.5 11.5t-11.5 27.5v362q0 6 4 15t9 14l2227 1903h-2110
q-17 0 -28.5 11t-11.5 28v363z" />
    <glyph glyph-name="braceleft" unicode="{" 
 />
    <glyph glyph-name="bar" unicode="|" 
 />
    <glyph glyph-name="braceright" unicode="}" 
 />
    <glyph glyph-name="asciitilde" unicode="~" 
 />
    <glyph glyph-name="c128" 
 />
    <glyph glyph-name="c129" 
 />
    <glyph glyph-name="c141" 
 />
    <glyph glyph-name="c142" 
 />
    <glyph glyph-name="c143" 
 />
    <glyph glyph-name="c144" 
 />
    <glyph glyph-name="c157" 
 />
    <glyph glyph-name="c158" 
 />
    <glyph glyph-name="nonbreakingspace" unicode="&#xa0;" horiz-adv-x="2048" 
 />
    <glyph glyph-name="exclamdown" unicode="&#xa1;" 
 />
    <glyph glyph-name="cent" unicode="&#xa2;" 
 />
    <glyph glyph-name="sterling" unicode="&#xa3;" 
 />
    <glyph glyph-name="currency" unicode="&#xa4;" 
 />
    <glyph glyph-name="yen" unicode="&#xa5;" 
 />
    <glyph glyph-name="brokenbar" unicode="&#xa6;" 
 />
    <glyph glyph-name="section" unicode="&#xa7;" 
 />
    <glyph glyph-name="dieresis" unicode="&#xa8;" 
 />
    <glyph glyph-name="copyright" unicode="&#xa9;" horiz-adv-x="897" 
d="M274 2802h455v-766q0 -103 -90 -185t-197 -82q-69 0 -131 5q-61 0 -98 20v270q225 0 225 111q0 70 -32 102q-37 29 -132 29v496z" />
    <glyph glyph-name="ordfeminine" unicode="&#xaa;" 
 />
    <glyph glyph-name="guillemotleft" unicode="&#xab;" 
 />
    <glyph glyph-name="logicalnot" unicode="&#xac;" 
 />
    <glyph glyph-name="minus" unicode="&#xad;" 
 />
    <glyph glyph-name="registered" unicode="&#xae;" 
 />
    <glyph glyph-name="macron" unicode="&#xaf;" 
 />
    <glyph glyph-name="degree" unicode="&#xb0;" 
 />
    <glyph glyph-name="plusminus" unicode="&#xb1;" 
 />
    <glyph glyph-name="twosuperior" unicode="&#xb2;" 
 />
    <glyph glyph-name="threesuperior" unicode="&#xb3;" 
 />
    <glyph glyph-name="acute" unicode="&#xb4;" 
 />
    <glyph glyph-name="mu" unicode="&#xb5;" 
 />
    <glyph glyph-name="paragraph" unicode="&#xb6;" 
 />
    <glyph glyph-name="periodcentered" unicode="&#xb7;" 
 />
    <glyph glyph-name="cedilla" unicode="&#xb8;" 
 />
    <glyph glyph-name="onesuperior" unicode="&#xb9;" 
 />
    <glyph glyph-name="ordmasculine" unicode="&#xba;" 
 />
    <glyph glyph-name="guillemotright" unicode="&#xbb;" 
 />
    <glyph glyph-name="onequarter" unicode="&#xbc;" 
 />
    <glyph glyph-name="onehalf" unicode="&#xbd;" 
 />
    <glyph glyph-name="threequarters" unicode="&#xbe;" 
 />
    <glyph glyph-name="questiondown" unicode="&#xbf;" 
 />
    <glyph glyph-name="Agrave" unicode="&#xc0;" horiz-adv-x="3887" 
d="M2187 2802l1479 -2802h-471l-332 623h-1999l-327 -623h-471l1474 2802h647zM2683 995l-762 1471h-106l-762 -1471h1630z" />
    <glyph glyph-name="Aacute" unicode="&#xc1;" horiz-adv-x="3764" 
d="M242 2802h2859v-377h-2442v-795h1852q393 0 610 -168q262 -200 262 -647q0 -455 -266 -655q-209 -160 -606 -160h-2269v2802zM2970 815q0 209 -131.5 323.5t-327.5 114.5h-1852v-876h1848q196 0 332 115q131 114 131 323z" />
    <glyph glyph-name="Acircumflex" unicode="&#xc2;" horiz-adv-x="3772" 
d="M3346 819q0 -413 -225 -614q-229 -205 -667 -205h-2249v2802h2150q430 0 659.5 -205t229.5 -590q0 -422 -315 -541q180 -61 286 -204q131 -177 131 -443zM2830 2007q0 197 -98 299q-115 119 -377 119h-1732v-795h1732q262 0 369 99q106 94 106 278zM623 1253v-876h1826
q238 0 361 123q119 118 119 315q0 193 -123 315q-123 123 -357 123h-1826z" />
    <glyph glyph-name="Atilde" unicode="&#xc3;" horiz-adv-x="2986" 
d="M197 0h413v2425h2151v377h-2564v-2802z" />
    <glyph glyph-name="Adieresis" unicode="&#xc4;" horiz-adv-x="3965" 
d="M418 377q78 254 143 753q62 496 62 734v934h2822v-2421h196v-893h-413v516h-2626v-516h-414v893h230zM864 377l2163 -4v2048h-1987v-557q0 -299 -53 -762q-53 -467 -123 -725z" />
    <glyph glyph-name="Aring" unicode="&#xc5;" horiz-adv-x="3248" 
d="M201 2802h2683v-377h-2266v-815h2188v-377h-2188v-856h2266v-377h-2683v2802z" />
    <glyph glyph-name="AE" unicode="&#xc6;" horiz-adv-x="5738" 
d="M4628 2798l-1380 -1172h-278v1172h-418v-1172h-283l-1380 1172h-627l1630 -1360l-1818 -1438h651l1548 1249h279v-1249h418v1249h274l1552 -1249h648l-1815 1438l1626 1360h-627z" />
    <glyph glyph-name="Ccedilla" unicode="&#xc7;" horiz-adv-x="3744" 
d="M3379 2036q0 372 -250 565q-209 164 -602 213q-225 29 -737 29q-1024 0 -1298.5 -172t-274.5 -844h418q0 450 184 545q185 90 971 90q704 0 938 -74q233 -78 233 -352q0 -262 -176 -357q-131 -69 -446 -69h-1290v-377h1290q299 0 442 -82q180 -102 180 -365
q0 -274 -241 -360q-246 -90 -930 -90q-782 0 -954 86q-201 102 -201 553h-418q0 -668 279 -840q278 -176 1294 -176q643 0 864 29q377 49 541 213q184 184 184 585q0 238 -74 385q-77 144 -229 226q160 94 234 229q69 135 69 410z" />
    <glyph glyph-name="Egrave" unicode="&#xc8;" horiz-adv-x="4112" 
d="M3670 2802h-610l-2405 -2458v2458h-417v-2802h630l2384 2433v-2433h418v2802z" />
    <glyph glyph-name="Eacute" unicode="&#xc9;" horiz-adv-x="4219" 
d="M3695 2806h-611l-2404 -2458v2458h-418v-2806h631l2384 2437v-2437h418v2806zM1327 3219h1253v-376h-1253v376z" />
    <glyph glyph-name="Ecircumflex" unicode="&#xca;" horiz-adv-x="3920" 
d="M291 0v2802h418v-1135h417l1696 1135h717l-1966 -1319l2093 -1483h-688l-1852 1290h-417v-1290h-418z" />
    <glyph glyph-name="Edieresis" unicode="&#xcb;" horiz-adv-x="3969" 
d="M147 377h164q144 0 221 237q95 287 95 955v65v58v45v147q-4 70 -4 135v783h2863v-2802h-418v2425h-2028v-529v-188q0 -389 -24 -680q-37 -455 -131 -704q-119 -324 -332 -324h-406v377z" />
    <glyph glyph-name="Igrave" unicode="&#xcc;" horiz-adv-x="5276" 
d="M1057 2802l1450 -2302l1450 2302h745v-2802h-413v2425h-82l-1569 -2425h-262l-1569 2425h-78v-2425h-418v2802h746z" />
    <glyph glyph-name="Iacute" unicode="&#xcd;" horiz-adv-x="3879" 
d="M238 2802h417v-1188h2413v1188h418v-2802h-418v1237h-2413v-1237h-417v2802z" />
    <glyph glyph-name="Icircumflex" unicode="&#xce;" horiz-adv-x="4076" 
d="M1954 -41q-873 0 -1221 115q-348 110 -442 426q-66 217 -66 897q0 692 62 897q94 319 446 434t1221 115q872 0 1220 -111q344 -115 443 -434q65 -217 65 -901q0 -688 -61 -893q-94 -320 -443 -430q-348 -115 -1224 -115zM1954 336q966 0 1138 143q173 144 173 918
q0 778 -168 921q-172 144 -1143 144t-1139 -144q-172 -143 -172 -921q0 -770 172 -914q172 -147 1139 -147z" />
    <glyph glyph-name="Idieresis" unicode="&#xcf;" horiz-adv-x="3936" 
d="M246 2802h3244v-2802h-418v2425h-2408v-2425h-418v2802z" />
    <glyph glyph-name="Eth" unicode="&#xd0;" horiz-adv-x="3695" 
d="M221 0v2802h2286q372 0 585 -222q209 -221 209 -671q0 -451 -213 -668q-217 -221 -598 -221h-1851v-1020h-418zM639 1397h1851q181 0 287 127q107 123 107 385q0 266 -107 393q-106 123 -291 123h-1847v-1028z" />
    <glyph glyph-name="Ntilde" unicode="&#xd1;" horiz-adv-x="3690" 
d="M606 1397q0 -766 164 -914q164 -147 1008 -147q782 0 954 86q201 102 201 553h418q0 -668 -279 -840q-279 -176 -1294 -176q-1037 0 -1311 246t-274 1192q0 954 270 1200t1315 246q1024 0 1298 -172q275 -172 275 -844h-418q0 450 -185 545q-184 90 -970 90
q-848 0 -1008 -144q-164 -147 -164 -921z" />
    <glyph glyph-name="Ograve" unicode="&#xd2;" horiz-adv-x="3256" 
d="M106 2802h2929v-377h-1253v-2425h-418v2425h-1258v377z" />
    <glyph glyph-name="Oacute" unicode="&#xd3;" horiz-adv-x="4141" 
d="M1667 377q172 0 291 49q115 49 184 176l-2040 2200h574l1696 -1864l1060 1864h476l-1319 -2306q-148 -254 -369 -373q-221 -123 -569 -123h-918v377h934z" />
    <glyph glyph-name="Ocircumflex" unicode="&#xd4;" horiz-adv-x="5165" 
d="M2273 2482h-1089q-492 0 -688 -176q-250 -225 -250 -868t250 -893q209 -209 688 -209h1089v-336h418v336h1086q479 0 688 209q249 250 249 893q0 635 -249 864q-197 180 -688 180h-1086v320h-418v-320zM2273 2105v-1388h-1089q-279 0 -398 164q-122 159 -122 557
q0 385 118 528q119 139 402 139h1089zM2691 717v1388h1086q286 0 405 -139t119 -528q0 -398 -119 -557q-123 -164 -405 -164h-1086z" />
    <glyph glyph-name="Otilde" unicode="&#xd5;" horiz-adv-x="3871" 
d="M3068 2802h577l-1437 -1401l1437 -1401h-548l-1201 1188l-1200 -1188h-553l1438 1401l-1438 1401h582l1171 -1180z" />
    <glyph glyph-name="Odieresis" unicode="&#xd6;" horiz-adv-x="4002" 
d="M299 2802h418v-2425h2408v2425h418v-2425h201v-893h-418q0 291 -45 405q-45 111 -168 111h-2814v2802z" />
    <glyph glyph-name="multiply" unicode="&#xd7;" horiz-adv-x="3805" 
d="M655 2802v-979q0 -193 160 -320q156 -131 438 -131h1688v1430h418v-2802h-418v995h-1688q-483 0 -757 242q-258 225 -258 586v979h417z" />
    <glyph glyph-name="Oslash" unicode="&#xd8;" horiz-adv-x="5276" 
d="M406 0v2802h417v-2425h1557v2425h418v-2425h1560v2425h418v-2802h-4370z" />
    <glyph glyph-name="Ugrave" unicode="&#xd9;" horiz-adv-x="5345" 
d="M393 0v2802h418v-2425h1556v2425h418v-2425h1561v2425h418v-2425h200v-893h-417q0 291 -45 405q-46 111 -173 111h-3936z" />
    <glyph glyph-name="Uacute" unicode="&#xda;" horiz-adv-x="4194" 
d="M672 2425h-512v377h930v-1024h1855q373 0 582 -213q225 -230 225 -672q0 -451 -209 -672q-213 -221 -586 -221h-2285v2425zM1090 1397v-1020h1847q184 0 291 127q106 123 106 389q0 262 -102 385q-107 119 -291 119h-1851z" />
    <glyph glyph-name="Ucircumflex" unicode="&#xdb;" horiz-adv-x="4821" 
d="M4383 0h-418v2802h418v-2802zM328 2802h413v-1024h1852q381 0 598 -217q213 -222 213 -668q0 -455 -209 -672q-213 -221 -602 -221h-2265v2802zM741 1397v-1020h1852q184 0 291 127q102 123 102 389q0 262 -102 385q-107 119 -291 119h-1852z" />
    <glyph glyph-name="Udieresis" unicode="&#xdc;" horiz-adv-x="3805" 
d="M283 2802h417v-1024h1848q377 0 598 -222q217 -221 217 -663q0 -451 -209 -672q-213 -221 -586 -221h-2285v2802zM700 1397v-1020h1848q184 0 291 127q106 123 106 389q0 262 -102 385q-107 119 -291 119h-1852z" />
    <glyph glyph-name="Yacute" unicode="&#xdd;" horiz-adv-x="3805" 
d="M1032 1610h1913q0 585 -192 721q-193 131 -975 131q-795 0 -959 -82q-201 -99 -201 -553h-417q0 667 278 844q279 172 1299 172q1040 0 1323 -271q262 -250 262 -1175q0 -918 -262 -1168q-283 -270 -1323 -270q-1024 0 -1299 172q-278 172 -278 844h417q0 -451 189 -545
q184 -94 971 -94q794 0 966 123q201 143 201 774h-1913v377z" />
    <glyph glyph-name="Thorn" unicode="&#xde;" horiz-adv-x="5108" 
d="M4637 1397q0 -688 -62 -893q-94 -320 -442 -430q-348 -115 -1225 -115q-1159 0 -1442 213q-286 213 -286 1036h-516v-1208h-418v2802h418v-1217h516q0 823 274 1032q295 226 1454 226q873 0 1221 -111q344 -115 442 -434q66 -217 66 -901zM2908 336q967 0 1139 143
q172 144 172 918q0 778 -168 921q-172 144 -1143 144t-1139 -144q-172 -143 -172 -921q0 -770 172 -914q173 -147 1139 -147z" />
    <glyph glyph-name="germandbls" unicode="&#xdf;" horiz-adv-x="3944" 
d="M3432 2802v-2802h-417v1012h-1971q-184 0 -315 -90q-135 -95 -135 -234v-688h-418v688q0 205 123 344q86 98 238 160q-172 74 -250 197q-111 172 -111 520q0 405 193 651q192 242 549 242h2514zM3015 1393v1032h-1930q-225 0 -331 -78q-160 -119 -160 -438
q0 -316 156 -434q110 -82 335 -82h1930z" />
    <glyph glyph-name="agrave" unicode="&#xe0;" horiz-adv-x="3887" 
d="M2139 2774q9 0 19.5 -7t15.5 -15l1423 -2696l-1 1q12 -20 0.5 -38.5t-34.5 -18.5h-453q-9 0 -19.5 7t-15.5 14l-309 578h-1875l-304 -578q-5 -7 -15.5 -14t-18.5 -7h-453q-12 0 -21 5t-14 13.5t-5 18.5t6 20l-1 -1l1418 2696q5 8 15 15t19 7h623zM2552 1035l-692 1338
h-55q-89 -171 -175 -337t-171.5 -331.5t-172 -332t-174.5 -337.5h1440z" />
    <glyph glyph-name="aacute" unicode="&#xe1;" horiz-adv-x="3764" 
d="M228 2735q0 16 11.5 27.5t27.5 11.5h2751q16 0 27.5 -11.5t11.5 -27.5v-363q0 -17 -11.5 -28t-27.5 -11h-2311v-687h1743q195 0 348 -43t262 -127q131 -102 199.5 -266t68.5 -387q0 -227 -69.5 -393t-202.5 -268q-105 -76 -259.5 -119t-346.5 -43h-2183q-16 0 -27.5 11.5
t-11.5 27.5v2696zM2853 823q0 183 -114 281q-57 52 -129 76.5t-160 24.5h-1743v-765h1739q84 0 160 27.5t134 73.5q53 50 83 121.5t30 160.5z" />
    <glyph glyph-name="acircumflex" unicode="&#xe2;" horiz-adv-x="3772" 
d="M3292 827q0 -206 -59 -361.5t-172 -258.5q-116 -97 -285.5 -152t-381.5 -55h-2163q-17 0 -28.5 11.5t-11.5 27.5v2696q0 16 11.5 27.5t28.5 11.5h2068q216 0 379.5 -52t279.5 -155q235 -210 235 -597q0 -90 -17.5 -168t-49.5 -143.5t-77.5 -117t-102.5 -88.5
q64 -32 116.5 -76t94.5 -101q135 -180 135 -449zM2717 1970q0 175 -82 260q-51 51 -134 77t-202 26h-1627v-687h1627q237 0 328 85q90 80 90 239zM672 1205v-765h1717q215 0 320 107q103 102 103 276q0 171 -106 276q-106 106 -317 106h-1717z" />
    <glyph glyph-name="atilde" unicode="&#xe3;" horiz-adv-x="2986" 
d="M179 2735q0 16 11 27.5t27 11.5h2467q16 0 27.5 -11.5t11.5 -27.5v-363q0 -17 -11.5 -28t-27.5 -11h-2030v-2294q0 -16 -11.5 -27.5t-28.5 -11.5h-397q-16 0 -27 11.5t-11 27.5v2696z" />
    <glyph glyph-name="adieresis" unicode="&#xe4;" horiz-adv-x="3965" 
d="M410 440q35 120 66.5 292.5t60.5 398.5v-1q29 241 44.5 414.5t15.5 287.5v899q0 16 11.5 27.5t26.5 11.5h2715q17 0 28 -11.5t11 -27.5v-2291h150q16 0 27.5 -11t11.5 -28v-858q0 -17 -11.5 -28t-27.5 -11h-398q-15 0 -26.5 11t-11.5 28v457h-2449v-457q0 -17 -11 -28
t-28 -11h-398q-16 0 -27.5 11t-11.5 28v858q0 17 11.5 28t27.5 11h193zM2910 436v1894h-1834v-498q0 -144 -13.5 -330t-37.5 -406q-23 -205 -49 -367.5t-58 -288.5z" />
    <glyph glyph-name="aring" unicode="&#xe5;" horiz-adv-x="3248" 
d="M183 2735q0 16 11.5 27.5t28.5 11.5h2581q16 0 27 -11.5t11 -27.5v-363q0 -17 -11 -28t-27 -11h-2141v-707h2066q16 0 27.5 -10.5t11.5 -27.5v-363q0 -17 -11.5 -28t-27.5 -11h-2066v-746h2141q16 0 27 -11t11 -28v-362q0 -16 -11 -27.5t-27 -11.5h-2581
q-17 0 -28.5 11.5t-11.5 27.5v2696z" />
    <glyph glyph-name="ae" unicode="&#xe6;" horiz-adv-x="5738" 
d="M5108 2770q14 0 23.5 -7t13.5 -17.5t1 -22.5t-13 -22l-1528 -1278l844 -670q217 -172 432 -342t432 -341q10 -9 13 -21t-0.5 -23t-12.5 -18.5t-24 -7.5h-638l-1494 1202h-209v-1163q0 -16 -11.5 -27.5t-26.5 -11.5h-402q-17 0 -28.5 11.5t-11.5 27.5v1163h-213
l-1490 -1202h-642q-14 0 -23 7.5t-12 18.5t0 23t12 21q210 166 424.5 336t430 340t430 339.5t425.5 336.5q-385 321 -765.5 640t-765.5 639q-11 10 -13.5 22t1 22.5t13.5 17.5t24 7h617l1328 -1128h219v1089q0 16 11.5 27.5t28.5 11.5h402q15 0 26.5 -11.5t11.5 -27.5v-1089
h215l598 508l730 620h617z" />
    <glyph glyph-name="ccedilla" unicode="&#xe7;" horiz-adv-x="3744" 
d="M3323 1998q0 -277 -70 -413q-29 -56 -77.5 -107t-108.5 -94q63 -41 105 -89.5t77 -111.5q74 -151 74 -388q0 -399 -188 -590q-85 -85 -220 -138t-323 -79q-106 -13 -315 -20t-521 -7q-490 0 -807.5 44.5t-458.5 129.5q-140 91 -213.5 302t-73.5 540q0 16 11.5 27.5
t28.5 11.5h402q16 0 27.5 -11.5t11.5 -27.5q0 -198 46 -323.5t126 -174.5q86 -37 313 -57.5t587 -20.5q325 0 545 21.5t336 63.5q207 74 207 309q0 230 -154 318q-127 73 -406 73h-1241q-17 0 -27.5 11t-10.5 28v363q0 17 10.5 27.5t27.5 10.5h1241q145 0 248.5 16.5
t163.5 46.5l-1 -1q72 41 110.5 119t38.5 191q0 118 -50.5 192.5t-147.5 108.5h1q-111 33 -334 51.5t-557 18.5q-358 0 -590.5 -22.5t-327.5 -60.5q-75 -43 -114.5 -165t-39.5 -324q0 -17 -11.5 -28t-27.5 -11h-402q-17 0 -28.5 11t-11.5 28q0 666 282 844q271 172 1271 172
q251 0 428.5 -7t285.5 -21h-1q189 -23 341 -78.5t257 -134.5q126 -100 191 -243.5t65 -330.5z" />
    <glyph glyph-name="egrave" unicode="&#xe8;" horiz-adv-x="4112" 
d="M3606 39q0 -16 -11 -27.5t-28 -11.5h-402q-16 0 -27 11.5t-11 27.5v2245l-1098 -1119q-283 -288 -565.5 -576.5t-564.5 -576.5q-3 -3 -12.5 -7.5t-14.5 -4.5h-606q-17 0 -28 11.5t-11 27.5v2696q0 16 11 27.5t28 11.5h401q16 0 27.5 -11.5t11.5 -27.5v-2270l2247 2297
q3 3 13 7.5t15 4.5h586q17 0 28 -11.5t11 -27.5v-2696z" />
    <glyph glyph-name="eacute" unicode="&#xe9;" horiz-adv-x="4219" 
d="M3606 39q0 -16 -11 -27.5t-28 -11.5h-402q-16 0 -27 11.5t-11 27.5v2245l-1098 -1119q-283 -288 -565.5 -576.5t-564.5 -576.5q-3 -3 -12.5 -7.5t-14.5 -4.5h-606q-17 0 -28 11.5t-11 27.5v2696q0 16 11 27.5t28 11.5h401q16 0 27.5 -11.5t11.5 -27.5v-2270l2247 2297
q3 3 13 7.5t15 4.5h586q17 0 28 -11.5t11 -27.5v-2696zM1275 3136q0 16 11.5 27.5t27.5 11.5h1206q15 0 26.5 -11.5t11.5 -27.5v-362q0 -17 -11.5 -27.5t-26.5 -10.5h-1206q-16 0 -27.5 10.5t-11.5 27.5v362z" />
    <glyph glyph-name="ecircumflex" unicode="&#xea;" horiz-adv-x="3920" 
d="M317 0q-16 0 -27 11.5t-11 27.5v2696q0 16 11 27.5t27 11.5h402q17 0 28 -11.5t11 -27.5v-1054h350l1631 1093h703q14 0 23 -8t12 -19.5t0 -24t-14 -21.5l-1844 -1238l1968 -1393h-1q12 -8 15 -20t0 -23t-12.5 -19t-23.5 -8h-672l-1783 1241h-352v-1202q0 -16 -11 -27.5
t-28 -11.5h-402z" />
    <glyph glyph-name="edieresis" unicode="&#xeb;" horiz-adv-x="3969" 
d="M137 401q0 17 11.5 28t27.5 11h157q57 0 100 51t77 150q42 137 65.5 366.5t23.5 541.5v301q-2 32 -3 67t-1 64v754q0 16 11.5 27.5t26.5 11.5h2755q16 0 27.5 -11.5t11.5 -27.5v-2696q0 -16 -11.5 -27.5t-27.5 -11.5h-402q-16 0 -27.5 11.5t-11.5 27.5v2294h-1873v-651
q0 -189 -6 -353.5t-17 -304.5q-18 -217 -50.5 -391.5t-77.5 -295.5q-31 -80 -69.5 -142.5t-83.5 -106t-96 -66t-107 -22.5h-391q-16 0 -27.5 11.5t-11.5 27.5v362z" />
    <glyph glyph-name="igrave" unicode="&#xec;" horiz-adv-x="5276" 
d="M1064 2774q8 0 18.5 -6.5t15.5 -13.5l1361 -2161l1363 2163l-1 -2q4 7 14.5 13.5t18.5 6.5h717q17 0 28 -11.5t11 -27.5v-2696q0 -16 -11 -27.5t-28 -11.5h-397q-17 0 -28.5 11.5t-11.5 27.5v2294h-18l-1499 -2316q-5 -5 -14.5 -11t-17.5 -6h-252q-7 0 -17.5 6t-15.5 11
l-1497 2316h-15v-2294q0 -16 -11.5 -27.5t-27.5 -11.5h-403q-16 0 -27.5 11.5t-11.5 27.5v2696q0 16 11.5 27.5t27.5 11.5h718z" />
    <glyph glyph-name="iacute" unicode="&#xed;" horiz-adv-x="3879" 
d="M226 2735q0 16 10.5 27.5t27.5 11.5h401q17 0 28 -11.5t11 -27.5v-1105h2243v1105q0 16 11.5 27.5t28.5 11.5h402q16 0 27.5 -11.5t11.5 -27.5v-2696q0 -16 -11.5 -27.5t-27.5 -11.5h-402q-17 0 -28.5 11.5t-11.5 27.5v1151h-2243v-1151q0 -16 -11 -27.5t-28 -11.5h-401
q-17 0 -27.5 11.5t-10.5 27.5v2696z" />
    <glyph glyph-name="icircumflex" unicode="&#xee;" horiz-adv-x="4076" 
d="M1916 -39q-420 0 -717 28t-469 85q-79 28 -150.5 71.5t-130 99.5t-102.5 122.5t-68 140.5q-32 112 -48 331.5t-16 543.5q0 327 15.5 547t45.5 327q50 157 164.5 271.5t290.5 171.5q173 57 467.5 85t717.5 28q847 0 1186 -109q177 -60 288.5 -169t162.5 -274
q33 -109 49 -327.5t16 -550.5q0 -327 -15.5 -546t-45.5 -325q-24 -77 -66.5 -144.5t-100.5 -123.5t-129.5 -99.5t-154.5 -70.5q-173 -57 -470.5 -85t-719.5 -28zM1916 401q446 0 716 33.5t356 95.5q71 73 111.5 287t40.5 566q0 358 -38.5 572t-109.5 283q-88 61 -360 96
t-716 35q-459 0 -727 -32t-343 -98q-152 -125 -152 -856q0 -724 152 -850q154 -132 1070 -132z" />
    <glyph glyph-name="idieresis" unicode="&#xef;" horiz-adv-x="3936" 
d="M234 2735q0 16 10.5 27.5t27.5 11.5h3121q16 0 27.5 -11.5t11.5 -27.5v-2696q0 -16 -11.5 -27.5t-27.5 -11.5h-402q-17 0 -28.5 11.5t-11.5 27.5v2294h-2238v-2294q0 -16 -11.5 -27.5t-27.5 -11.5h-402q-17 0 -27.5 11.5t-10.5 27.5v2696z" />
    <glyph glyph-name="eth" unicode="&#xf0;" horiz-adv-x="3695" 
d="M246 0q-16 0 -27.5 11.5t-11.5 27.5v2696q0 16 11.5 27.5t27.5 11.5h2199q373 0 590 -226q213 -225 213 -673q0 -449 -217 -670q-221 -224 -602 -224h-1742v-942q0 -16 -11.5 -27.5t-27.5 -11.5h-402zM687 1421h1742q79 0 140 27.5t107 81.5q93 106 93 345q0 240 -93 353
q-46 50 -109 77.5t-142 27.5h-1738v-912z" />
    <glyph glyph-name="ntilde" unicode="&#xf1;" horiz-adv-x="3690" 
d="M655 1383q0 -353 38 -566t107 -284q79 -64 317 -98t627 -34q361 0 587.5 20.5t312.5 57.5q79 49 125.5 174.5t46.5 323.5q0 16 11.5 27.5t27.5 11.5h403q17 0 27.5 -11.5t10.5 -27.5q0 -328 -74 -539.5t-213 -302.5q-141 -84 -459.5 -129t-805.5 -45q-1011 0 -1287 246
q-276 248 -276 1176q0 936 272 1184q272 246 1291 246q998 0 1270 -172q282 -176 282 -844q0 -17 -10.5 -28t-27.5 -11h-403q-16 0 -27.5 11t-11.5 28q0 203 -40.5 325t-116.5 164h2q-91 39 -320.5 61t-596.5 22q-401 0 -636.5 -32t-307.5 -98q-145 -130 -145 -856z" />
    <glyph glyph-name="ograve" unicode="&#xf2;" horiz-adv-x="3256" 
d="M92 2735q0 16 11.5 27.5t28.5 11.5h2818q16 0 27.5 -11.5t11.5 -27.5v-363q0 -17 -11.5 -28t-27.5 -11h-1167v-2294q0 -16 -11 -27.5t-28 -11.5h-402q-17 0 -28 11.5t-11 27.5v2294h-1171q-17 0 -28.5 11t-11.5 28v363z" />
    <glyph glyph-name="oacute" unicode="&#xf3;" horiz-adv-x="4141" 
d="M1641 440q77 0 144.5 12t121.5 33l-1 -1q84 36 144 128l-1943 2095q-8 10 -9.5 22t2.5 22t13.5 16.5t22.5 6.5h552q6 0 15 -4.5t14 -9.5l1595 -1754l995 1748q5 8 14.5 14t17.5 6h458q26 0 35.5 -19.5t-1.5 -39.5l-1270 -2219q-75 -127 -166.5 -220t-202.5 -152l1 1
q-112 -63 -253 -94t-313 -31h-884q-17 0 -27.5 11.5t-10.5 27.5v362q0 17 10.5 28t27.5 11h898z" />
    <glyph glyph-name="ocircumflex" unicode="&#xf4;" horiz-adv-x="5165" 
d="M2195 2735q0 16 10.5 27.5t27.5 11.5h403q16 0 27.5 -11.5t11.5 -27.5v-269h1005q244 0 417 -47t273 -137q123 -118 187 -332t64 -528q0 -632 -251 -886q-212 -212 -690 -212h-1005v-285q0 -16 -11.5 -27.5t-27.5 -11.5h-403q-17 0 -27.5 11.5t-10.5 27.5v285h-1009
q-477 0 -689 212q-253 253 -253 886q0 317 64.5 533t190.5 331q102 88 273 134t414 46h1009v269zM1186 2025q-127 0 -217 -30.5t-141 -89.5q-50 -65 -76.5 -186.5t-26.5 -296.5q0 -368 109 -512q102 -143 352 -143h1009v1258h-1009zM3680 767q124 0 214.5 37.5t144.5 105.5
q51 72 79 200t28 312q0 360 -105 483q-104 120 -361 120h-1005v-1258h1005z" />
    <glyph glyph-name="otilde" unicode="&#xf5;" horiz-adv-x="3871" 
d="M2960 2762q3 3 12.5 7.5t14.5 4.5h555q14 0 24 -7t14 -17.5t2 -22t-12 -21.5v1l-1356 -1320l1356 -1321q9 -9 11 -20.5t-2 -21.5t-13.5 -17t-23.5 -7h-527q-4 0 -13.5 4.5t-13.5 7.5q-280 276 -564 557.5t-564 557.5q-143 -141 -283.5 -280t-280.5 -277.5t-280.5 -277.5
t-282.5 -280q-3 -3 -13 -7.5t-14 -4.5h-533q-13 0 -22 7t-13 17t-2.5 21.5t10.5 20.5q160 156 332 323t346 336.5t345.5 337.5t332.5 324l-1356 1320v-1q-10 10 -12 21.5t2.5 22t14 17.5t22.5 7h560q5 0 15 -4.5t12 -7.5l1100 -1108z" />
    <glyph glyph-name="odieresis" unicode="&#xf6;" horiz-adv-x="4002" 
d="M287 2735q0 16 11.5 27.5t27.5 11.5h402q16 0 27.5 -11.5t11.5 -27.5v-2295h2239v2295q0 16 11 27.5t27 11.5h402q17 0 28 -11.5t11 -27.5v-2295h155q16 0 27.5 -11t11.5 -28v-858q0 -17 -11.5 -28t-27.5 -11h-402q-16 0 -27.5 11t-11.5 28q0 136 -10.5 229.5
t-30.5 145.5l1 -1q-34 83 -126 83h-2707q-16 0 -27.5 11.5t-11.5 27.5v2696z" />
    <glyph glyph-name="divide" unicode="&#xf7;" horiz-adv-x="3805" 
d="M661 2802q17 0 28.5 -11.5t11.5 -27.5v-952q0 -86 34 -156t106 -126q139 -117 402 -117h1602v1351q0 16 11 27.5t28 11.5h406q16 0 27.5 -11.5t11.5 -27.5v-2724q0 -16 -11.5 -27.5t-27.5 -11.5h-406q-17 0 -28 11.5t-11 27.5v928h-1602q-240 0 -431.5 63t-329.5 183
q-128 114 -196 266t-68 332v952q0 16 10.5 27.5t27.5 11.5h405z" />
    <glyph glyph-name="oslash" unicode="&#xf8;" horiz-adv-x="5276" 
d="M439 0q-16 0 -27.5 11.5t-11.5 27.5v2696q0 16 11.5 27.5t27.5 11.5h402q16 0 27.5 -11.5t11.5 -27.5v-2295h1420v2295q0 16 10.5 27.5t27.5 11.5h403q16 0 27.5 -11.5t11.5 -27.5v-2295h1423v2295q0 16 11.5 27.5t26.5 11.5h402q17 0 28.5 -11.5t11.5 -27.5v-2696
q0 -16 -11.5 -27.5t-28.5 -11.5h-4204z" />
    <glyph glyph-name="ugrave" unicode="&#xf9;" horiz-adv-x="5345" 
d="M429 0q-17 0 -28 11.5t-11 27.5v2696q0 16 11 27.5t28 11.5h402q16 0 27.5 -11.5t11.5 -27.5v-2295h1419v2295q0 16 11.5 27.5t26.5 11.5h403q16 0 27.5 -11.5t11.5 -27.5v-2295h1424v2295q0 16 11.5 27.5t26.5 11.5h402q17 0 28.5 -11.5t11.5 -27.5v-2295h154
q15 0 26.5 -11t11.5 -28v-858q0 -17 -11.5 -28t-26.5 -11h-402q-16 0 -27.5 11t-11.5 28q0 269 -40 375l1 -1q-34 83 -131 83h-3787z" />
    <glyph glyph-name="uacute" unicode="&#xfa;" horiz-adv-x="4194" 
d="M644 2333h-453q-16 0 -27.5 11t-11.5 28v363q0 16 11.5 27.5t27.5 11.5h895q17 0 27.5 -11.5t10.5 -27.5v-947h1746q186 0 333.5 -55t253.5 -162q109 -117 168.5 -287t59.5 -386q0 -449 -212 -673q-219 -225 -591 -225h-2198q-17 0 -28.5 11.5t-11.5 27.5v2294z
M1124 1344v-904h1738q159 0 251 109q48 54 70 141t22 208q0 116 -22.5 203.5t-66.5 141.5l2 -1q-46 48 -109.5 75t-142.5 27h-1742z" />
    <glyph glyph-name="ucircumflex" unicode="&#xfb;" horiz-adv-x="4821" 
d="M4300 39q0 -16 -11.5 -27.5t-26.5 -11.5h-403q-16 0 -27.5 11.5t-11.5 27.5v2696q0 16 11.5 27.5t27.5 11.5h403q15 0 26.5 -11.5t11.5 -27.5v-2696zM322 2735q0 16 10.5 27.5t27.5 11.5h397q17 0 28 -11.5t11 -27.5v-947h1743q382 0 602 -221q217 -224 217 -669
q0 -453 -213 -673q-217 -225 -606 -225h-2179q-17 0 -27.5 11.5t-10.5 27.5v2696zM796 1344v-904h1743q159 0 251 109q89 107 89 349q0 116 -23.5 204t-66.5 142l2 -2q-46 48 -109.5 75t-142.5 27h-1743z" />
    <glyph glyph-name="udieresis" unicode="&#xfc;" horiz-adv-x="3805" 
d="M267 2735q0 16 11.5 27.5t28.5 11.5h401q16 0 27.5 -11.5t11.5 -27.5v-947h1739q190 0 340 -55.5t262 -169.5q221 -226 221 -665q0 -448 -213 -673q-217 -225 -591 -225h-2198q-17 0 -28.5 11.5t-11.5 27.5v2696zM747 1344v-904h1739q159 0 250 109q48 54 70 141t22 208
q0 116 -22.5 203.5t-66.5 141.5l1 -1q-45 48 -108.5 75t-141.5 27h-1743z" />
    <glyph glyph-name="yacute" unicode="&#xfd;" horiz-adv-x="3805" 
d="M988 1588q0 17 11.5 27.5t26.5 10.5h1802q-3 258 -45 412t-123 211l1 -1q-89 61 -317.5 91t-599.5 30q-757 0 -905 -76q-172 -84 -172 -496q0 -17 -11 -28t-28 -11h-401q-17 0 -27.5 11t-10.5 28q0 662 284 844q138 86 456 129t815 43q501 0 828 -70t472 -203
q129 -128 196.5 -419.5t67.5 -737.5q0 -899 -264 -1152q-285 -270 -1300 -270q-997 0 -1271 170q-284 177 -284 846q0 16 10.5 27.5t27.5 11.5h401q17 0 28 -11.5t11 -27.5q0 -411 160 -490q168 -86 917 -86q751 0 906 111q87 61 131 229.5t47 444.5h-1802q-15 0 -26.5 11
t-11.5 28v363z" />
    <glyph glyph-name="thorn" unicode="&#xfe;" horiz-adv-x="5108" 
d="M4546 1383q0 -328 -16 -546.5t-46 -324.5q-51 -158 -163.5 -271t-286.5 -167q-172 -58 -468 -85.5t-722 -27.5q-557 0 -911 54t-499 159q-140 108 -214 355t-78 633h-419v-1123q0 -16 -11 -27.5t-27 -11.5h-402q-16 0 -27.5 11.5t-11.5 27.5v2696q0 16 11.5 27.5
t27.5 11.5h402q16 0 27 -11.5t11 -27.5v-1132h419q1 391 73 634t207 350q154 108 512.5 167t909.5 59q847 0 1186 -109q174 -58 286.5 -170t163.5 -273q32 -111 49 -331.5t17 -546.5zM2844 401q446 0 715.5 33.5t355.5 95.5q70 72 110.5 286.5t40.5 566.5q0 358 -38.5 572
t-108.5 283q-89 61 -360 96t-715 35q-460 0 -728 -32t-343 -98q-152 -125 -152 -856q0 -724 152 -850q154 -132 1071 -132z" />
    <glyph glyph-name="ydieresis" unicode="&#xff;" horiz-adv-x="3944" 
d="M3336 2774q16 0 27.5 -11.5t11.5 -27.5v-2696q0 -16 -11.5 -27.5t-27.5 -11.5h-401q-16 0 -27.5 11.5t-11.5 27.5v935h-1858q-165 0 -281 -80l1 1q-113 -79 -113 -195v-661q0 -16 -11.5 -27.5t-27.5 -11.5h-403q-16 0 -27.5 11.5t-11.5 27.5v661q0 106 33 195.5t96 161.5
q33 36 75 69.5t92 60.5q-61 34 -106 76.5t-77 90.5q-55 88 -84 219t-29 302q0 201 49 364.5t145 285.5q98 118 239.5 183.5t320.5 65.5h2418zM2896 1418v915h-1819q-97 0 -172 -18.5t-122 -48.5q-66 -54 -102 -152t-36 -239q0 -136 36.5 -234.5t98.5 -152.5l-1 1
q48 -35 123 -53t175 -18h1819z" />
    <glyph glyph-name="dotlessi" unicode="&#x131;" 
 />
    <glyph glyph-name="OE" unicode="&#x152;" 
 />
    <glyph glyph-name="oe" unicode="&#x153;" 
 />
    <glyph glyph-name="Scaron" unicode="&#x160;" 
 />
    <glyph glyph-name="scaron" unicode="&#x161;" 
 />
    <glyph glyph-name="Ydieresis" unicode="&#x178;" 
 />
    <glyph glyph-name="florin" unicode="&#x192;" 
 />
    <glyph glyph-name="circumflex" unicode="&#x2c6;" 
 />
    <glyph glyph-name="caron" unicode="&#x2c7;" 
 />
    <glyph glyph-name="breve" unicode="&#x2d8;" 
 />
    <glyph glyph-name="dotaccent" unicode="&#x2d9;" 
 />
    <glyph glyph-name="ring" unicode="&#x2da;" 
 />
    <glyph glyph-name="ogonek" unicode="&#x2db;" 
 />
    <glyph glyph-name="tilde" unicode="&#x2dc;" 
 />
    <glyph glyph-name="uni0410" unicode="&#x410;" horiz-adv-x="3887" 
d="M2187 2802l1479 -2802h-471l-332 623h-1999l-327 -623h-471l1474 2802h647zM2683 995l-762 1471h-106l-762 -1471h1630z" />
    <glyph glyph-name="uni0411" unicode="&#x411;" horiz-adv-x="3764" 
d="M242 2802h2859v-377h-2442v-795h1852q393 0 610 -168q262 -200 262 -647q0 -455 -266 -655q-209 -160 -606 -160h-2269v2802zM2970 815q0 209 -131.5 323.5t-327.5 114.5h-1852v-876h1848q196 0 332 115q131 114 131 323z" />
    <glyph glyph-name="uni0412" unicode="&#x412;" horiz-adv-x="3772" 
d="M3346 819q0 -413 -225 -614q-229 -205 -667 -205h-2249v2802h2150q430 0 659.5 -205t229.5 -590q0 -422 -315 -541q180 -61 286 -204q131 -177 131 -443zM2830 2007q0 197 -98 299q-115 119 -377 119h-1732v-795h1732q262 0 369 99q106 94 106 278zM623 1253v-876h1826
q238 0 361 123q119 118 119 315q0 193 -123 315q-123 123 -357 123h-1826z" />
    <glyph glyph-name="uni0413" unicode="&#x413;" horiz-adv-x="2986" 
d="M197 2802h2564v-377h-2151v-2425h-413v2802z" />
    <glyph glyph-name="uni0414" unicode="&#x414;" horiz-adv-x="3965" 
d="M418 377q78 254 143 753q62 496 62 734v934h2822v-2421h196v-893h-413v516h-2626v-516h-414v893h230zM864 377l2163 -4v2048h-1987v-557q0 -299 -53 -762q-53 -467 -123 -725z" />
    <glyph glyph-name="uni0415" unicode="&#x415;" horiz-adv-x="3248" 
d="M201 2802h2683v-377h-2266v-815h2188v-377h-2188v-856h2266v-377h-2683v2802z" />
    <glyph glyph-name="uni0416" unicode="&#x416;" horiz-adv-x="5738" 
d="M5255 2798l-1626 -1360l1815 -1438h-648l-1552 1249h-274v-1249h-418v1249h-279l-1548 -1249h-651l1818 1438l-1630 1360h627l1380 -1172h283v1172h418v-1172h278l1380 1172h627z" />
    <glyph glyph-name="uni0417" unicode="&#x417;" horiz-adv-x="3744" 
d="M3379 2036q0 -275 -69 -410q-74 -135 -234 -229q152 -82 229 -226q74 -147 74 -385q0 -401 -184 -585q-164 -164 -541 -213q-221 -29 -864 -29q-1016 0 -1294 176q-279 172 -279 840h418q0 -451 201 -553q172 -86 954 -86q684 0 930 90q241 86 241 360q0 263 -180 365
q-143 82 -442 82h-1290v377h1290q315 0 446 69q176 95 176 357q0 274 -233 352q-234 74 -938 74q-786 0 -971 -90q-184 -95 -184 -545h-418q0 672 274.5 844t1298.5 172q512 0 737 -29q393 -49 602 -213q250 -193 250 -565z" />
    <glyph glyph-name="uni0418" unicode="&#x418;" horiz-adv-x="4112" 
d="M3670 0h-418v2433l-2384 -2433h-630v2802h417v-2458l2405 2458h610v-2802z" />
    <glyph glyph-name="uni0419" unicode="&#x419;" horiz-adv-x="4219" 
d="M3695 2806h-611l-2404 -2458v2458h-418v-2806h631l2384 2437v-2437h418v2806zM1327 3219h1253v-376h-1253v376z" />
    <glyph glyph-name="uni041A" unicode="&#x41a;" horiz-adv-x="3920" 
d="M291 0v2802h418v-1135h417l1696 1135h717l-1966 -1319l2093 -1483h-688l-1852 1290h-417v-1290h-418z" />
    <glyph glyph-name="uni041B" unicode="&#x41b;" horiz-adv-x="3969" 
d="M147 377h164q144 0 221 237q95 287 95 955v65v58v45v147q-4 70 -4 135v783h2863v-2802h-418v2425h-2028v-529v-188q0 -389 -24 -680q-37 -455 -131 -704q-119 -324 -332 -324h-406v377z" />
    <glyph glyph-name="uni041C" unicode="&#x41c;" horiz-adv-x="5276" 
d="M1057 2802l1450 -2302l1450 2302h745v-2802h-413v2425h-82l-1569 -2425h-262l-1569 2425h-78v-2425h-418v2802h746z" />
    <glyph glyph-name="uni041D" unicode="&#x41d;" horiz-adv-x="3879" 
d="M238 2802h417v-1188h2413v1188h418v-2802h-418v1237h-2413v-1237h-417v2802z" />
    <glyph glyph-name="uni041E" unicode="&#x41e;" horiz-adv-x="4076" 
d="M1954 -41q-873 0 -1221 115q-348 110 -442 426q-66 217 -66 897q0 692 62 897q94 319 446 434t1221 115q872 0 1220 -111q344 -115 443 -434q65 -217 65 -901q0 -688 -61 -893q-94 -320 -443 -430q-348 -115 -1224 -115zM1954 336q966 0 1138 143q173 144 173 918
q0 778 -168 921q-172 144 -1143 144t-1139 -144q-172 -143 -172 -921q0 -770 172 -914q172 -147 1139 -147z" />
    <glyph glyph-name="uni041F" unicode="&#x41f;" horiz-adv-x="3936" 
d="M246 2802h3244v-2802h-418v2425h-2408v-2425h-418v2802z" />
    <glyph glyph-name="uni0420" unicode="&#x420;" horiz-adv-x="3695" 
d="M221 0v2802h2286q372 0 585 -222q209 -221 209 -671q0 -451 -213 -668q-217 -221 -598 -221h-1851v-1020h-418zM639 1397h1851q181 0 287 127q107 123 107 385q0 266 -107 393q-106 123 -291 123h-1847v-1028z" />
    <glyph glyph-name="uni0421" unicode="&#x421;" horiz-adv-x="3690" 
d="M606 1397q0 -766 164 -914q164 -147 1008 -147q782 0 954 86q201 102 201 553h418q0 -668 -279 -840q-279 -176 -1294 -176q-1037 0 -1311 246t-274 1192q0 954 270 1200t1315 246q1024 0 1298 -172q275 -172 275 -844h-418q0 450 -185 545q-184 90 -970 90
q-848 0 -1008 -144q-164 -147 -164 -921z" />
    <glyph glyph-name="uni0422" unicode="&#x422;" horiz-adv-x="3256" 
d="M106 2802h2929v-377h-1253v-2425h-418v2425h-1258v377z" />
    <glyph glyph-name="uni0423" unicode="&#x423;" horiz-adv-x="4141" 
d="M1667 377q172 0 291 49q115 49 184 176l-2040 2200h574l1696 -1864l1060 1864h476l-1319 -2306q-148 -254 -369 -373q-221 -123 -569 -123h-918v377h934z" />
    <glyph glyph-name="uni0424" unicode="&#x424;" horiz-adv-x="5165" 
d="M2273 2802h418v-320h1086q491 0 688 -180q249 -229 249 -864q0 -643 -249 -893q-209 -209 -688 -209h-1086v-336h-418v336h-1089q-479 0 -688 209q-250 250 -250 893t250 868q196 176 688 176h1089v320zM1184 2105q-283 0 -402 -139q-118 -143 -118 -528q0 -398 122 -557
q119 -164 398 -164h1089v1388h-1089zM3777 717q282 0 405 164q119 159 119 557q0 389 -119 528t-405 139h-1086v-1388h1086z" />
    <glyph glyph-name="uni0425" unicode="&#x425;" horiz-adv-x="3871" 
d="M3068 2802h577l-1437 -1401l1437 -1401h-548l-1201 1188l-1200 -1188h-553l1438 1401l-1438 1401h582l1171 -1180z" />
    <glyph glyph-name="uni0426" unicode="&#x426;" horiz-adv-x="4002" 
d="M299 2802h418v-2425h2408v2425h418v-2425h201v-893h-418q0 291 -45 405q-45 111 -168 111h-2814v2802z" />
    <glyph glyph-name="uni0427" unicode="&#x427;" horiz-adv-x="3805" 
d="M655 2802v-979q0 -193 160 -320q156 -131 438 -131h1688v1430h418v-2802h-418v995h-1688q-483 0 -757 242q-258 225 -258 586v979h417z" />
    <glyph glyph-name="uni0428" unicode="&#x428;" horiz-adv-x="5276" 
d="M406 0v2802h417v-2425h1557v2425h418v-2425h1560v2425h418v-2802h-4370z" />
    <glyph glyph-name="uni0429" unicode="&#x429;" horiz-adv-x="5345" 
d="M393 0v2802h418v-2425h1556v2425h418v-2425h1561v2425h418v-2425h200v-893h-417q0 291 -45 405q-46 111 -173 111h-3936z" />
    <glyph glyph-name="uni042A" unicode="&#x42a;" horiz-adv-x="4194" 
d="M672 2425h-512v377h930v-1024h1855q373 0 582 -213q225 -230 225 -672q0 -451 -209 -672q-213 -221 -586 -221h-2285v2425zM1090 1397v-1020h1847q184 0 291 127q106 123 106 389q0 262 -102 385q-107 119 -291 119h-1851z" />
    <glyph glyph-name="uni042B" unicode="&#x42b;" horiz-adv-x="4821" 
d="M4383 0h-418v2802h418v-2802zM328 2802h413v-1024h1852q381 0 598 -217q213 -222 213 -668q0 -455 -209 -672q-213 -221 -602 -221h-2265v2802zM741 1397v-1020h1852q184 0 291 127q102 123 102 389q0 262 -102 385q-107 119 -291 119h-1852z" />
    <glyph glyph-name="uni042C" unicode="&#x42c;" horiz-adv-x="3805" 
d="M283 2802h417v-1024h1848q377 0 598 -222q217 -221 217 -663q0 -451 -209 -672q-213 -221 -586 -221h-2285v2802zM700 1397v-1020h1848q184 0 291 127q106 123 106 389q0 262 -102 385q-107 119 -291 119h-1852z" />
    <glyph glyph-name="uni042D" unicode="&#x42d;" horiz-adv-x="3805" 
d="M1032 1610h1913q0 585 -192 721q-193 131 -975 131q-795 0 -959 -82q-201 -99 -201 -553h-417q0 667 278 844q279 172 1299 172q1040 0 1323 -271q262 -250 262 -1175q0 -918 -262 -1168q-283 -270 -1323 -270q-1024 0 -1299 172q-278 172 -278 844h417q0 -451 189 -545
q184 -94 971 -94q794 0 966 123q201 143 201 774h-1913v377z" />
    <glyph glyph-name="uni042E" unicode="&#x42e;" horiz-adv-x="5108" 
d="M4637 1397q0 -688 -62 -893q-94 -320 -442 -430q-348 -115 -1225 -115q-1159 0 -1442 213q-286 213 -286 1036h-516v-1208h-418v2802h418v-1217h516q0 823 274 1032q295 226 1454 226q873 0 1221 -111q344 -115 442 -434q66 -217 66 -901zM2908 336q967 0 1139 143
q172 144 172 918q0 778 -168 921q-172 144 -1143 144t-1139 -144q-172 -143 -172 -921q0 -770 172 -914q173 -147 1139 -147z" />
    <glyph glyph-name="uni042F" unicode="&#x42f;" horiz-adv-x="3944" 
d="M3432 2802v-2802h-417v1012h-1971q-184 0 -315 -90q-135 -95 -135 -234v-688h-418v688q0 205 123 344q86 98 238 160q-172 74 -250 197q-111 172 -111 520q0 405 193 651q192 242 549 242h2514zM3015 1393v1032h-1930q-225 0 -331 -78q-160 -119 -160 -438
q0 -316 156 -434q110 -82 335 -82h1930z" />
    <glyph glyph-name="uni0430" unicode="&#x430;" horiz-adv-x="3887" 
d="M2139 2774q9 0 19.5 -7t15.5 -15l1423 -2696l-1 1q12 -20 0.5 -38.5t-34.5 -18.5h-453q-9 0 -19.5 7t-15.5 14l-309 578h-1875l-304 -578q-5 -7 -15.5 -14t-18.5 -7h-453q-12 0 -21 5t-14 13.5t-5 18.5t6 20l-1 -1l1418 2696q5 8 15 15t19 7h623zM2552 1035l-692 1338
h-55q-89 -171 -175 -337t-171.5 -331.5t-172 -332t-174.5 -337.5h1440z" />
    <glyph glyph-name="uni0431" unicode="&#x431;" horiz-adv-x="3764" 
d="M228 2735q0 16 11.5 27.5t27.5 11.5h2751q16 0 27.5 -11.5t11.5 -27.5v-363q0 -17 -11.5 -28t-27.5 -11h-2311v-687h1743q195 0 348 -43t262 -127q131 -102 199.5 -266t68.5 -387q0 -227 -69.5 -393t-202.5 -268q-105 -76 -259.5 -119t-346.5 -43h-2183q-16 0 -27.5 11.5
t-11.5 27.5v2696zM2853 823q0 183 -114 281q-57 52 -129 76.5t-160 24.5h-1743v-765h1739q84 0 160 27.5t134 73.5q53 50 83 121.5t30 160.5z" />
    <glyph glyph-name="uni0432" unicode="&#x432;" horiz-adv-x="3772" 
d="M3292 827q0 -206 -59 -361.5t-172 -258.5q-116 -97 -285.5 -152t-381.5 -55h-2163q-17 0 -28.5 11.5t-11.5 27.5v2696q0 16 11.5 27.5t28.5 11.5h2068q216 0 379.5 -52t279.5 -155q235 -210 235 -597q0 -90 -17.5 -168t-49.5 -143.5t-77.5 -117t-102.5 -88.5
q64 -32 116.5 -76t94.5 -101q135 -180 135 -449zM2717 1970q0 175 -82 260q-51 51 -134 77t-202 26h-1627v-687h1627q237 0 328 85q90 80 90 239zM672 1205v-765h1717q215 0 320 107q103 102 103 276q0 171 -106 276q-106 106 -317 106h-1717z" />
    <glyph glyph-name="uni0433" unicode="&#x433;" horiz-adv-x="2986" 
d="M179 2735q0 16 11 27.5t27 11.5h2467q16 0 27.5 -11.5t11.5 -27.5v-363q0 -17 -11.5 -28t-27.5 -11h-2030v-2294q0 -16 -11.5 -27.5t-28.5 -11.5h-397q-16 0 -27 11.5t-11 27.5v2696z" />
    <glyph glyph-name="uni0434" unicode="&#x434;" horiz-adv-x="3965" 
d="M410 440q35 120 66.5 292.5t60.5 398.5v-1q29 241 44.5 414.5t15.5 287.5v899q0 16 11.5 27.5t26.5 11.5h2715q17 0 28 -11.5t11 -27.5v-2291h150q16 0 27.5 -11t11.5 -28v-858q0 -17 -11.5 -28t-27.5 -11h-398q-15 0 -26.5 11t-11.5 28v457h-2449v-457q0 -17 -11 -28
t-28 -11h-398q-16 0 -27.5 11t-11.5 28v858q0 17 11.5 28t27.5 11h193zM2910 436v1894h-1834v-498q0 -144 -13.5 -330t-37.5 -406q-23 -205 -49 -367.5t-58 -288.5z" />
    <glyph glyph-name="uni0435" unicode="&#x435;" horiz-adv-x="3248" 
d="M183 2735q0 16 11.5 27.5t28.5 11.5h2581q16 0 27 -11.5t11 -27.5v-363q0 -17 -11 -28t-27 -11h-2141v-707h2066q16 0 27.5 -10.5t11.5 -27.5v-363q0 -17 -11.5 -28t-27.5 -11h-2066v-746h2141q16 0 27 -11t11 -28v-362q0 -16 -11 -27.5t-27 -11.5h-2581
q-17 0 -28.5 11.5t-11.5 27.5v2696z" />
    <glyph glyph-name="uni0436" unicode="&#x436;" horiz-adv-x="5738" 
d="M5108 2770q14 0 23.5 -7t13.5 -17.5t1 -22.5t-13 -22l-1528 -1278l844 -670q217 -172 432 -342t432 -341q10 -9 13 -21t-0.5 -23t-12.5 -18.5t-24 -7.5h-638l-1494 1202h-209v-1163q0 -16 -11.5 -27.5t-26.5 -11.5h-402q-17 0 -28.5 11.5t-11.5 27.5v1163h-213
l-1490 -1202h-642q-14 0 -23 7.5t-12 18.5t0 23t12 21q210 166 424.5 336t430 340t430 339.5t425.5 336.5q-385 321 -765.5 640t-765.5 639q-11 10 -13.5 22t1 22.5t13.5 17.5t24 7h617l1328 -1128h219v1089q0 16 11.5 27.5t28.5 11.5h402q15 0 26.5 -11.5t11.5 -27.5v-1089
h215l598 508l730 620h617z" />
    <glyph glyph-name="uni0437" unicode="&#x437;" horiz-adv-x="3744" 
d="M3323 1998q0 -277 -70 -413q-29 -56 -77.5 -107t-108.5 -94q63 -41 105 -89.5t77 -111.5q74 -151 74 -388q0 -399 -188 -590q-85 -85 -220 -138t-323 -79q-106 -13 -315 -20t-521 -7q-490 0 -807.5 44.5t-458.5 129.5q-140 91 -213.5 302t-73.5 540q0 16 11.5 27.5
t28.5 11.5h402q16 0 27.5 -11.5t11.5 -27.5q0 -198 46 -323.5t126 -174.5q86 -37 313 -57.5t587 -20.5q325 0 545 21.5t336 63.5q207 74 207 309q0 230 -154 318q-127 73 -406 73h-1241q-17 0 -27.5 11t-10.5 28v363q0 17 10.5 27.5t27.5 10.5h1241q145 0 248.5 16.5
t163.5 46.5l-1 -1q72 41 110.5 119t38.5 191q0 118 -50.5 192.5t-147.5 108.5h1q-111 33 -334 51.5t-557 18.5q-358 0 -590.5 -22.5t-327.5 -60.5q-75 -43 -114.5 -165t-39.5 -324q0 -17 -11.5 -28t-27.5 -11h-402q-17 0 -28.5 11t-11.5 28q0 666 282 844q271 172 1271 172
q251 0 428.5 -7t285.5 -21h-1q189 -23 341 -78.5t257 -134.5q126 -100 191 -243.5t65 -330.5z" />
    <glyph glyph-name="uni0438" unicode="&#x438;" horiz-adv-x="4112" 
d="M3606 39q0 -16 -11 -27.5t-28 -11.5h-402q-16 0 -27 11.5t-11 27.5v2245l-1098 -1119q-283 -288 -565.5 -576.5t-564.5 -576.5q-3 -3 -12.5 -7.5t-14.5 -4.5h-606q-17 0 -28 11.5t-11 27.5v2696q0 16 11 27.5t28 11.5h401q16 0 27.5 -11.5t11.5 -27.5v-2270l2247 2297
q3 3 13 7.5t15 4.5h586q17 0 28 -11.5t11 -27.5v-2696z" />
    <glyph glyph-name="uni0439" unicode="&#x439;" horiz-adv-x="4219" 
d="M3606 39q0 -16 -11 -27.5t-28 -11.5h-402q-16 0 -27 11.5t-11 27.5v2245l-1098 -1119q-283 -288 -565.5 -576.5t-564.5 -576.5q-3 -3 -12.5 -7.5t-14.5 -4.5h-606q-17 0 -28 11.5t-11 27.5v2696q0 16 11 27.5t28 11.5h401q16 0 27.5 -11.5t11.5 -27.5v-2270l2247 2297
q3 3 13 7.5t15 4.5h586q17 0 28 -11.5t11 -27.5v-2696zM1275 3136q0 16 11.5 27.5t27.5 11.5h1206q15 0 26.5 -11.5t11.5 -27.5v-362q0 -17 -11.5 -27.5t-26.5 -10.5h-1206q-16 0 -27.5 10.5t-11.5 27.5v362z" />
    <glyph glyph-name="uni043A" unicode="&#x43a;" horiz-adv-x="3920" 
d="M317 0q-16 0 -27 11.5t-11 27.5v2696q0 16 11 27.5t27 11.5h402q17 0 28 -11.5t11 -27.5v-1054h350l1631 1093h703q14 0 23 -8t12 -19.5t0 -24t-14 -21.5l-1844 -1238l1968 -1393h-1q12 -8 15 -20t0 -23t-12.5 -19t-23.5 -8h-672l-1783 1241h-352v-1202q0 -16 -11 -27.5
t-28 -11.5h-402z" />
    <glyph glyph-name="uni043B" unicode="&#x43b;" horiz-adv-x="3969" 
d="M137 401q0 17 11.5 28t27.5 11h157q57 0 100 51t77 150q42 137 65.5 366.5t23.5 541.5v301q-2 32 -3 67t-1 64v754q0 16 11.5 27.5t26.5 11.5h2755q16 0 27.5 -11.5t11.5 -27.5v-2696q0 -16 -11.5 -27.5t-27.5 -11.5h-402q-16 0 -27.5 11.5t-11.5 27.5v2294h-1873v-651
q0 -189 -6 -353.5t-17 -304.5q-18 -217 -50.5 -391.5t-77.5 -295.5q-31 -80 -69.5 -142.5t-83.5 -106t-96 -66t-107 -22.5h-391q-16 0 -27.5 11.5t-11.5 27.5v362z" />
    <glyph glyph-name="uni043C" unicode="&#x43c;" horiz-adv-x="5276" 
d="M1064 2774q8 0 18.5 -6.5t15.5 -13.5l1361 -2161l1363 2163l-1 -2q4 7 14.5 13.5t18.5 6.5h717q17 0 28 -11.5t11 -27.5v-2696q0 -16 -11 -27.5t-28 -11.5h-397q-17 0 -28.5 11.5t-11.5 27.5v2294h-18l-1499 -2316q-5 -5 -14.5 -11t-17.5 -6h-252q-7 0 -17.5 6t-15.5 11
l-1497 2316h-15v-2294q0 -16 -11.5 -27.5t-27.5 -11.5h-403q-16 0 -27.5 11.5t-11.5 27.5v2696q0 16 11.5 27.5t27.5 11.5h718z" />
    <glyph glyph-name="uni043D" unicode="&#x43d;" horiz-adv-x="3879" 
d="M226 2735q0 16 10.5 27.5t27.5 11.5h401q17 0 28 -11.5t11 -27.5v-1105h2243v1105q0 16 11.5 27.5t28.5 11.5h402q16 0 27.5 -11.5t11.5 -27.5v-2696q0 -16 -11.5 -27.5t-27.5 -11.5h-402q-17 0 -28.5 11.5t-11.5 27.5v1151h-2243v-1151q0 -16 -11 -27.5t-28 -11.5h-401
q-17 0 -27.5 11.5t-10.5 27.5v2696z" />
    <glyph glyph-name="uni043E" unicode="&#x43e;" horiz-adv-x="4076" 
d="M1916 -39q-420 0 -717 28t-469 85q-79 28 -150.5 71.5t-130 99.5t-102.5 122.5t-68 140.5q-32 112 -48 331.5t-16 543.5q0 327 15.5 547t45.5 327q50 157 164.5 271.5t290.5 171.5q173 57 467.5 85t717.5 28q847 0 1186 -109q177 -60 288.5 -169t162.5 -274
q33 -109 49 -327.5t16 -550.5q0 -327 -15.5 -546t-45.5 -325q-24 -77 -66.5 -144.5t-100.5 -123.5t-129.5 -99.5t-154.5 -70.5q-173 -57 -470.5 -85t-719.5 -28zM1916 401q446 0 716 33.5t356 95.5q71 73 111.5 287t40.5 566q0 358 -38.5 572t-109.5 283q-88 61 -360 96
t-716 35q-459 0 -727 -32t-343 -98q-152 -125 -152 -856q0 -724 152 -850q154 -132 1070 -132z" />
    <glyph glyph-name="uni043F" unicode="&#x43f;" horiz-adv-x="3936" 
d="M234 2735q0 16 10.5 27.5t27.5 11.5h3121q16 0 27.5 -11.5t11.5 -27.5v-2696q0 -16 -11.5 -27.5t-27.5 -11.5h-402q-17 0 -28.5 11.5t-11.5 27.5v2294h-2238v-2294q0 -16 -11.5 -27.5t-27.5 -11.5h-402q-17 0 -27.5 11.5t-10.5 27.5v2696z" />
    <glyph glyph-name="uni0440" unicode="&#x440;" horiz-adv-x="3695" 
d="M246 0q-16 0 -27.5 11.5t-11.5 27.5v2696q0 16 11.5 27.5t27.5 11.5h2199q373 0 590 -226q213 -225 213 -673q0 -449 -217 -670q-221 -224 -602 -224h-1742v-942q0 -16 -11.5 -27.5t-27.5 -11.5h-402zM687 1421h1742q79 0 140 27.5t107 81.5q93 106 93 345q0 240 -93 353
q-46 50 -109 77.5t-142 27.5h-1738v-912z" />
    <glyph glyph-name="uni0441" unicode="&#x441;" horiz-adv-x="3690" 
d="M655 1383q0 -353 38 -566t107 -284q79 -64 317 -98t627 -34q361 0 587.5 20.5t312.5 57.5q79 49 125.5 174.5t46.5 323.5q0 16 11.5 27.5t27.5 11.5h403q17 0 27.5 -11.5t10.5 -27.5q0 -328 -74 -539.5t-213 -302.5q-141 -84 -459.5 -129t-805.5 -45q-1011 0 -1287 246
q-276 248 -276 1176q0 936 272 1184q272 246 1291 246q998 0 1270 -172q282 -176 282 -844q0 -17 -10.5 -28t-27.5 -11h-403q-16 0 -27.5 11t-11.5 28q0 203 -40.5 325t-116.5 164h2q-91 39 -320.5 61t-596.5 22q-401 0 -636.5 -32t-307.5 -98q-145 -130 -145 -856z" />
    <glyph glyph-name="uni0442" unicode="&#x442;" horiz-adv-x="3256" 
d="M92 2735q0 16 11.5 27.5t28.5 11.5h2818q16 0 27.5 -11.5t11.5 -27.5v-363q0 -17 -11.5 -28t-27.5 -11h-1167v-2294q0 -16 -11 -27.5t-28 -11.5h-402q-17 0 -28 11.5t-11 27.5v2294h-1171q-17 0 -28.5 11t-11.5 28v363z" />
    <glyph glyph-name="uni0443" unicode="&#x443;" horiz-adv-x="4141" 
d="M1641 440q77 0 144.5 12t121.5 33l-1 -1q84 36 144 128l-1943 2095q-8 10 -9.5 22t2.5 22t13.5 16.5t22.5 6.5h552q6 0 15 -4.5t14 -9.5l1595 -1754l995 1748q5 8 14.5 14t17.5 6h458q26 0 35.5 -19.5t-1.5 -39.5l-1270 -2219q-75 -127 -166.5 -220t-202.5 -152l1 1
q-112 -63 -253 -94t-313 -31h-884q-17 0 -27.5 11.5t-10.5 27.5v362q0 17 10.5 28t27.5 11h898z" />
    <glyph glyph-name="uni0444" unicode="&#x444;" horiz-adv-x="5165" 
d="M2195 2735q0 16 10.5 27.5t27.5 11.5h403q16 0 27.5 -11.5t11.5 -27.5v-269h1005q244 0 417 -47t273 -137q123 -118 187 -332t64 -528q0 -632 -251 -886q-212 -212 -690 -212h-1005v-285q0 -16 -11.5 -27.5t-27.5 -11.5h-403q-17 0 -27.5 11.5t-10.5 27.5v285h-1009
q-477 0 -689 212q-253 253 -253 886q0 317 64.5 533t190.5 331q102 88 273 134t414 46h1009v269zM1186 2025q-127 0 -217 -30.5t-141 -89.5q-50 -65 -76.5 -186.5t-26.5 -296.5q0 -368 109 -512q102 -143 352 -143h1009v1258h-1009zM3680 767q124 0 214.5 37.5t144.5 105.5
q51 72 79 200t28 312q0 360 -105 483q-104 120 -361 120h-1005v-1258h1005z" />
    <glyph glyph-name="uni0445" unicode="&#x445;" horiz-adv-x="3871" 
d="M2960 2762q3 3 12.5 7.5t14.5 4.5h555q14 0 24 -7t14 -17.5t2 -22t-12 -21.5v1l-1356 -1320l1356 -1321q9 -9 11 -20.5t-2 -21.5t-13.5 -17t-23.5 -7h-527q-4 0 -13.5 4.5t-13.5 7.5q-280 276 -564 557.5t-564 557.5q-143 -141 -283.5 -280t-280.5 -277.5t-280.5 -277.5
t-282.5 -280q-3 -3 -13 -7.5t-14 -4.5h-533q-13 0 -22 7t-13 17t-2.5 21.5t10.5 20.5q160 156 332 323t346 336.5t345.5 337.5t332.5 324l-1356 1320v-1q-10 10 -12 21.5t2.5 22t14 17.5t22.5 7h560q5 0 15 -4.5t12 -7.5l1100 -1108z" />
    <glyph glyph-name="uni0446" unicode="&#x446;" horiz-adv-x="4002" 
d="M287 2735q0 16 11.5 27.5t27.5 11.5h402q16 0 27.5 -11.5t11.5 -27.5v-2295h2239v2295q0 16 11 27.5t27 11.5h402q17 0 28 -11.5t11 -27.5v-2295h155q16 0 27.5 -11t11.5 -28v-858q0 -17 -11.5 -28t-27.5 -11h-402q-16 0 -27.5 11t-11.5 28q0 136 -10.5 229.5
t-30.5 145.5l1 -1q-34 83 -126 83h-2707q-16 0 -27.5 11.5t-11.5 27.5v2696z" />
    <glyph glyph-name="uni0447" unicode="&#x447;" horiz-adv-x="3805" 
d="M661 2802q17 0 28.5 -11.5t11.5 -27.5v-952q0 -86 34 -156t106 -126q139 -117 402 -117h1602v1351q0 16 11 27.5t28 11.5h406q16 0 27.5 -11.5t11.5 -27.5v-2724q0 -16 -11.5 -27.5t-27.5 -11.5h-406q-17 0 -28 11.5t-11 27.5v928h-1602q-240 0 -431.5 63t-329.5 183
q-128 114 -196 266t-68 332v952q0 16 10.5 27.5t27.5 11.5h405z" />
    <glyph glyph-name="uni0448" unicode="&#x448;" horiz-adv-x="5276" 
d="M439 0q-16 0 -27.5 11.5t-11.5 27.5v2696q0 16 11.5 27.5t27.5 11.5h402q16 0 27.5 -11.5t11.5 -27.5v-2295h1420v2295q0 16 10.5 27.5t27.5 11.5h403q16 0 27.5 -11.5t11.5 -27.5v-2295h1423v2295q0 16 11.5 27.5t26.5 11.5h402q17 0 28.5 -11.5t11.5 -27.5v-2696
q0 -16 -11.5 -27.5t-28.5 -11.5h-4204z" />
    <glyph glyph-name="uni0449" unicode="&#x449;" horiz-adv-x="5345" 
d="M429 0q-17 0 -28 11.5t-11 27.5v2696q0 16 11 27.5t28 11.5h402q16 0 27.5 -11.5t11.5 -27.5v-2295h1419v2295q0 16 11.5 27.5t26.5 11.5h403q16 0 27.5 -11.5t11.5 -27.5v-2295h1424v2295q0 16 11.5 27.5t26.5 11.5h402q17 0 28.5 -11.5t11.5 -27.5v-2295h154
q15 0 26.5 -11t11.5 -28v-858q0 -17 -11.5 -28t-26.5 -11h-402q-16 0 -27.5 11t-11.5 28q0 269 -40 375l1 -1q-34 83 -131 83h-3787z" />
    <glyph glyph-name="uni044A" unicode="&#x44a;" horiz-adv-x="4194" 
d="M644 2333h-453q-16 0 -27.5 11t-11.5 28v363q0 16 11.5 27.5t27.5 11.5h895q17 0 27.5 -11.5t10.5 -27.5v-947h1746q186 0 333.5 -55t253.5 -162q109 -117 168.5 -287t59.5 -386q0 -449 -212 -673q-219 -225 -591 -225h-2198q-17 0 -28.5 11.5t-11.5 27.5v2294z
M1124 1344v-904h1738q159 0 251 109q48 54 70 141t22 208q0 116 -22.5 203.5t-66.5 141.5l2 -1q-46 48 -109.5 75t-142.5 27h-1742z" />
    <glyph glyph-name="uni044B" unicode="&#x44b;" horiz-adv-x="4821" 
d="M4300 39q0 -16 -11.5 -27.5t-26.5 -11.5h-403q-16 0 -27.5 11.5t-11.5 27.5v2696q0 16 11.5 27.5t27.5 11.5h403q15 0 26.5 -11.5t11.5 -27.5v-2696zM322 2735q0 16 10.5 27.5t27.5 11.5h397q17 0 28 -11.5t11 -27.5v-947h1743q382 0 602 -221q217 -224 217 -669
q0 -453 -213 -673q-217 -225 -606 -225h-2179q-17 0 -27.5 11.5t-10.5 27.5v2696zM796 1344v-904h1743q159 0 251 109q89 107 89 349q0 116 -23.5 204t-66.5 142l2 -2q-46 48 -109.5 75t-142.5 27h-1743z" />
    <glyph glyph-name="uni044C" unicode="&#x44c;" horiz-adv-x="3805" 
d="M267 2735q0 16 11.5 27.5t28.5 11.5h401q16 0 27.5 -11.5t11.5 -27.5v-947h1739q190 0 340 -55.5t262 -169.5q221 -226 221 -665q0 -448 -213 -673q-217 -225 -591 -225h-2198q-17 0 -28.5 11.5t-11.5 27.5v2696zM747 1344v-904h1739q159 0 250 109q48 54 70 141t22 208
q0 116 -22.5 203.5t-66.5 141.5l1 -1q-45 48 -108.5 75t-141.5 27h-1743z" />
    <glyph glyph-name="uni044D" unicode="&#x44d;" horiz-adv-x="3805" 
d="M988 1588q0 17 11.5 27.5t26.5 10.5h1802q-3 258 -45 412t-123 211l1 -1q-89 61 -317.5 91t-599.5 30q-757 0 -905 -76q-172 -84 -172 -496q0 -17 -11 -28t-28 -11h-401q-17 0 -27.5 11t-10.5 28q0 662 284 844q138 86 456 129t815 43q501 0 828 -70t472 -203
q129 -128 196.5 -419.5t67.5 -737.5q0 -899 -264 -1152q-285 -270 -1300 -270q-997 0 -1271 170q-284 177 -284 846q0 16 10.5 27.5t27.5 11.5h401q17 0 28 -11.5t11 -27.5q0 -411 160 -490q168 -86 917 -86q751 0 906 111q87 61 131 229.5t47 444.5h-1802q-15 0 -26.5 11
t-11.5 28v363z" />
    <glyph glyph-name="uni044E" unicode="&#x44e;" horiz-adv-x="5108" 
d="M4546 1383q0 -328 -16 -546.5t-46 -324.5q-51 -158 -163.5 -271t-286.5 -167q-172 -58 -468 -85.5t-722 -27.5q-557 0 -911 54t-499 159q-140 108 -214 355t-78 633h-419v-1123q0 -16 -11 -27.5t-27 -11.5h-402q-16 0 -27.5 11.5t-11.5 27.5v2696q0 16 11.5 27.5
t27.5 11.5h402q16 0 27 -11.5t11 -27.5v-1132h419q1 391 73 634t207 350q154 108 512.5 167t909.5 59q847 0 1186 -109q174 -58 286.5 -170t163.5 -273q32 -111 49 -331.5t17 -546.5zM2844 401q446 0 715.5 33.5t355.5 95.5q70 72 110.5 286.5t40.5 566.5q0 358 -38.5 572
t-108.5 283q-89 61 -360 96t-715 35q-460 0 -728 -32t-343 -98q-152 -125 -152 -856q0 -724 152 -850q154 -132 1071 -132z" />
    <glyph glyph-name="uni044F" unicode="&#x44f;" horiz-adv-x="3944" 
d="M3336 2774q16 0 27.5 -11.5t11.5 -27.5v-2696q0 -16 -11.5 -27.5t-27.5 -11.5h-401q-16 0 -27.5 11.5t-11.5 27.5v935h-1858q-165 0 -281 -80l1 1q-113 -79 -113 -195v-661q0 -16 -11.5 -27.5t-27.5 -11.5h-403q-16 0 -27.5 11.5t-11.5 27.5v661q0 106 33 195.5t96 161.5
q33 36 75 69.5t92 60.5q-61 34 -106 76.5t-77 90.5q-55 88 -84 219t-29 302q0 201 49 364.5t145 285.5q98 118 239.5 183.5t320.5 65.5h2418zM2896 1418v915h-1819q-97 0 -172 -18.5t-122 -48.5q-66 -54 -102 -152t-36 -239q0 -136 36.5 -234.5t98.5 -152.5l-1 1
q48 -35 123 -53t175 -18h1819z" />
    <glyph glyph-name="endash" unicode="&#x2013;" 
 />
    <glyph glyph-name="emdash" unicode="&#x2014;" 
 />
    <glyph glyph-name="quoteleft" unicode="&#x2018;" 
 />
    <glyph glyph-name="quoteright" unicode="&#x2019;" 
 />
    <glyph glyph-name="quotesinglbase" unicode="&#x201a;" 
 />
    <glyph glyph-name="quotedblleft" unicode="&#x201c;" 
 />
    <glyph glyph-name="quotedblright" unicode="&#x201d;" 
 />
    <glyph glyph-name="quotedblbase" unicode="&#x201e;" 
 />
    <glyph glyph-name="dagger" unicode="&#x2020;" 
 />
    <glyph glyph-name="daggerdbl" unicode="&#x2021;" 
 />
    <glyph glyph-name="bullet" unicode="&#x2022;" 
 />
    <glyph glyph-name="ellipsis" unicode="&#x2026;" 
 />
    <glyph glyph-name="perthousand" unicode="&#x2030;" 
 />
    <glyph glyph-name="guilsinglleft" unicode="&#x2039;" 
 />
    <glyph glyph-name="guilsinglright" unicode="&#x203a;" 
 />
    <glyph glyph-name="trademark" unicode="&#x2122;" 
 />
    <glyph glyph-name="dotoperator" unicode="&#x2219;" 
 />
    <glyph glyph-name="NULL" horiz-adv-x="0" 
 />
    <glyph glyph-name="a.001" 
 />
    <glyph glyph-name="b.001" 
 />
    <glyph glyph-name="c.001" 
 />
    <glyph glyph-name="d.001" 
 />
    <glyph glyph-name="e.001" 
 />
    <glyph glyph-name="f.001" 
 />
    <glyph glyph-name="g.001" 
 />
    <glyph glyph-name="h.001" 
 />
    <glyph glyph-name="i.001" 
 />
    <glyph glyph-name="j.001" 
 />
    <glyph glyph-name="k.001" 
 />
    <glyph glyph-name="l.001" 
 />
    <glyph glyph-name="m.001" 
 />
    <glyph glyph-name="n.001" 
 />
    <glyph glyph-name="o.001" 
 />
    <glyph glyph-name="p.001" 
 />
    <glyph glyph-name="q.001" 
 />
    <glyph glyph-name="r.001" 
 />
    <glyph glyph-name="s.001" 
 />
    <glyph glyph-name="t.001" 
 />
    <glyph glyph-name="u.001" 
 />
    <glyph glyph-name="v.001" horiz-adv-x="3695" 
d="M3224 2802l-1307 -2425h-62l-1306 2425h-438l1527 -2802h496l1524 2802h-434z" />
    <glyph glyph-name="w.001" horiz-adv-x="6242" 
d="M688 2798h-442l1274 -2798h532l963 2241l970 -2241h537l1270 2798h-439l-1081 -2392h-49l-1024 2392h-356l-1028 -2392h-46z" />
    <glyph glyph-name="x.001" horiz-adv-x="4051" 
d="M1913 1659l-1180 1143h-577l1429 -1360l-1458 -1442h557l1229 1225h53l1229 -1225h569l-1458 1442l1430 1360h-594l-1176 -1143h-53z" />
    <glyph glyph-name="y.001" 
 />
    <glyph glyph-name="z.001" 
 />
    <glyph glyph-name="agrave.001" horiz-adv-x="3887" 
d="M2187 2802l1479 -2802h-471l-332 623h-1999l-327 -623h-471l1474 2802h647zM2683 995l-762 1471h-106l-762 -1471h1630z" />
    <glyph glyph-name="aacute.001" 
 />
    <glyph glyph-name="acircumflex.001" 
 />
    <glyph glyph-name="atilde.001" 
 />
    <glyph glyph-name="adieresis.001" 
 />
    <glyph glyph-name="aring.001" 
 />
    <glyph glyph-name="ae.001" horiz-adv-x="5738" 
d="M4628 2798l-1380 -1172h-278v1172h-418v-1172h-283l-1380 1172h-627l1630 -1360l-1818 -1438h651l1548 1249h279v-1249h418v1249h274l1552 -1249h648l-1815 1438l1626 1360h-627z" />
    <glyph glyph-name="ccedilla.001" 
 />
    <glyph glyph-name="egrave.001" 
 />
    <glyph glyph-name="eacute.001" 
 />
    <glyph glyph-name="ecircumflex.001" horiz-adv-x="3903" 
d="M229 2798h418v-1180h410l1810 1180h729l-2072 -1360l2126 -1438h-709l-1843 1241h-451v-1241h-418v2798z" />
    <glyph glyph-name="edieresis.001" 
 />
    <glyph glyph-name="igrave.001" 
 />
    <glyph glyph-name="iacute.001" 
 />
    <glyph glyph-name="icircumflex.001" 
 />
    <glyph glyph-name="idieresis.001" 
 />
    <glyph glyph-name="eth.001" 
 />
    <glyph glyph-name="ntilde.001" 
 />
    <glyph glyph-name="ograve.001" 
 />
    <glyph glyph-name="oacute.001" 
 />
    <glyph glyph-name="ocircumflex.001" 
 />
    <glyph glyph-name="otilde.001" 
 />
    <glyph glyph-name="odieresis.001" 
 />
    <glyph glyph-name="divide.001" 
 />
    <glyph glyph-name="oslash.001" 
 />
    <glyph glyph-name="ugrave.001" 
 />
    <glyph glyph-name="uacute.001" 
 />
    <glyph glyph-name="ucircumflex.001" 
 />
    <glyph glyph-name="udieresis.001" 
 />
    <glyph glyph-name="yacute.001" 
 />
    <glyph glyph-name="thorn.001" 
 />
    <glyph glyph-name="ydieresis.001" 
d="M2187 2802l1479 -2802h-471l-332 623h-1999l-327 -623h-471l1474 2802h647zM2683 995l-762 1471h-106l-762 -1471h1630z" />
    <glyph glyph-name="agrave.002" horiz-adv-x="3887" 
d="M2151 2774q5 0 10.5 -3.5t7.5 -7.5l1443 -2735q5 -10 -0.5 -19t-17.5 -9h-496q-5 0 -10.5 3.5t-7.5 7.5l-315 588h-1875l-309 -588q-2 -4 -7.5 -7.5t-10.5 -3.5h-496q-12 0 -18 9t0 19l1439 2735q2 4 7.5 7.5t10.5 3.5h645zM2552 1035l-692 1338h-55q-89 -171 -175 -337
t-171.5 -331.5t-172 -332t-174.5 -337.5h1440z" />
    <glyph glyph-name="aacute.002" horiz-adv-x="3764" 
d="M228 2754q0 8 6 14t14 6h2789q8 0 14 -6t6 -14v-401q0 -8 -6 -14t-14 -6h-2330v-687h1743q195 0 348 -43t262 -127q131 -102 199.5 -266t68.5 -387q0 -227 -69.5 -393t-202.5 -268q-105 -76 -259.5 -119t-346.5 -43h-2202q-8 0 -14 6t-6 14v2734zM2853 823
q0 183 -114 281q-57 52 -129 76.5t-160 24.5h-1743v-765h1739q84 0 160 27.5t134 73.5q53 50 83 121.5t30 160.5z" />
    <glyph glyph-name="acircumflex.002" horiz-adv-x="3772" 
d="M3292 827q0 -206 -59 -361.5t-172 -258.5q-116 -97 -285.5 -152t-381.5 -55h-2183q-8 0 -14 6t-6 14v2734q0 8 6 14t14 6h2088q216 0 379.5 -52t279.5 -155q235 -210 235 -597q0 -90 -17.5 -168t-49.5 -143.5t-77.5 -117t-102.5 -88.5q64 -32 116.5 -76t94.5 -101
q135 -180 135 -449zM2717 1970q0 175 -82 260q-51 51 -134 77t-202 26h-1627v-687h1627q237 0 328 85q90 80 90 239zM672 1205v-765h1717q215 0 320 107q103 102 103 276q0 171 -106 276q-106 106 -317 106h-1717z" />
    <glyph glyph-name="atilde.002" horiz-adv-x="2986" 
d="M179 2754q0 8 5.5 14t13.5 6h2506q8 0 13.5 -6t5.5 -14v-401q0 -8 -5.5 -14t-13.5 -6h-2050v-2313q0 -8 -6 -14t-14 -6h-436q-8 0 -13.5 6t-5.5 14v2734z" />
    <glyph glyph-name="adieresis.002" horiz-adv-x="3965" 
d="M410 440q35 120 66.5 292.5t60.5 398.5v-1q29 241 44.5 414.5t15.5 287.5v918q0 8 5.5 14t13.5 6h2754q8 0 13.5 -6t5.5 -14v-2310h169q8 0 14 -5.5t6 -13.5v-898q0 -8 -6 -13.5t-14 -5.5h-435q-8 0 -14 5.5t-6 13.5v477h-2449v-477q0 -8 -6 -13.5t-14 -5.5h-436
q-8 0 -14 5.5t-6 13.5v898q0 8 6 13.5t14 5.5h212zM2910 436v1894h-1834v-498q0 -144 -13.5 -330t-37.5 -406q-23 -205 -49 -367.5t-58 -288.5z" />
    <glyph glyph-name="aring.002" horiz-adv-x="3248" 
d="M183 2754q0 8 6 14t14 6h2620q8 0 13.5 -6t5.5 -14v-401q0 -8 -5.5 -14t-13.5 -6h-2160v-707h2085q8 0 14 -5.5t6 -13.5v-402q0 -8 -6 -13.5t-14 -5.5h-2085v-746h2160q19 0 19 -19v-401q0 -8 -5.5 -14t-13.5 -6h-2620q-8 0 -14 6t-6 14v2734z" />
    <glyph glyph-name="ae.002" horiz-adv-x="5738" 
d="M5161 2770q14 0 19 -12.5t-6 -21.5l-1569 -1313l1127 -893l624 -495q11 -8 7 -21.5t-19 -13.5h-693l-1494 1202h-209v-1182q0 -8 -6 -14t-14 -6h-440q-8 0 -14 6t-6 14v1182h-213l-1490 -1202h-698q-14 0 -18 13.5t7 21.5l1754 1388l-1572 1313q-11 9 -6.5 21.5
t19.5 12.5h670l1328 -1128h219v1108q0 8 6 14t14 6h440q8 0 14 -6t6 -14v-1108h215l598 508l730 620h670z" />
    <glyph glyph-name="ccedilla.002" horiz-adv-x="3744" 
d="M3323 1998q0 -277 -70 -413q-29 -56 -77.5 -107t-108.5 -94q63 -41 105 -89.5t77 -111.5q74 -151 74 -388q0 -399 -188 -590q-85 -85 -220 -138t-323 -79q-106 -13 -315 -20t-521 -7q-490 0 -807.5 44.5t-458.5 129.5q-140 91 -213.5 307t-73.5 555q0 8 6 13.5t14 5.5
h441q8 0 14 -5.5t6 -13.5q0 -208 46 -338.5t126 -179.5q86 -37 313 -57.5t587 -20.5q325 0 545 21.5t336 63.5q207 74 207 309q0 230 -154 318q-127 73 -406 73h-1260q-8 0 -13.5 5.5t-5.5 13.5v402q0 8 5.5 13.5t13.5 5.5h1260q145 0 248.5 16.5t163.5 46.5l-1 -1
q72 41 110.5 119t38.5 191q0 118 -50.5 192.5t-147.5 108.5h1q-111 33 -334 51.5t-557 18.5q-358 0 -590.5 -22.5t-327.5 -60.5q-75 -43 -114.5 -169.5t-39.5 -339.5q0 -8 -6 -13.5t-14 -5.5h-441q-8 0 -14 5.5t-6 13.5q0 686 282 864q271 172 1271 172q251 0 428.5 -7
t285.5 -21h-1q189 -23 341 -78.5t257 -134.5q126 -100 191 -243.5t65 -330.5z" />
    <glyph glyph-name="egrave.002" horiz-adv-x="4112" 
d="M3606 20q0 -8 -5.5 -14t-13.5 -6h-441q-8 0 -13.5 6t-5.5 14v2264l-1101 -1122q-284 -290 -567.5 -579t-565.5 -577q-2 -2 -6.5 -4t-6.5 -2h-633q-8 0 -14 6t-6 14v2734q0 8 6 14t14 6h439q8 0 14 -6t6 -14v-2289l1109 1134l1144 1169q2 2 7 4t7 2h614q8 0 13.5 -6
t5.5 -14v-2734z" />
    <glyph glyph-name="eacute.002" horiz-adv-x="4219" 
d="M3554 2699h-534l-2334 -2386q-10 -11 -22 -5.5t-12 19.5v2372h-323v-2622h552l2315 2367q9 11 21 6t12 -19v-2354h325v2622zM1275 3155q0 8 6 14t14 6h1244q8 0 13.5 -6t5.5 -14v-400q0 -8 -5.5 -13.5t-13.5 -5.5h-1244q-8 0 -14 5.5t-6 13.5v400z" />
    <glyph glyph-name="ecircumflex.002" horiz-adv-x="3920" 
d="M299 0q-8 0 -14 6t-6 14v2734q0 8 6 14t14 6h440q8 0 14 -6t6 -14v-1073h349l1631 1093h767q7 0 12 -4t6.5 -10t0 -12t-7.5 -10l-1898 -1275l2018 -1428q12 -8 7.5 -21.5t-18.5 -13.5h-733l-1781 1241h-353v-1221q0 -8 -6 -14t-14 -6h-440z" />
    <glyph glyph-name="edieresis.002" horiz-adv-x="3969" 
d="M137 421q0 8 6 13.5t14 5.5h176q57 0 100 51t77 150q42 137 65.5 366.5t23.5 541.5v301q-2 32 -3 67t-1 64v773q0 8 6 14t14 6h2792q8 0 14 -6t6 -14v-2734q0 -8 -6 -14t-14 -6h-440q-8 0 -14 6t-6 14v2313h-1873v-651q0 -189 -6 -353.5t-17 -304.5
q-18 -217 -50.5 -391.5t-77.5 -295.5q-31 -80 -69.5 -142.5t-83.5 -106t-96 -66t-107 -22.5h-410q-8 0 -14 6t-6 14v401z" />
    <glyph glyph-name="igrave.002" horiz-adv-x="5276" 
d="M1075 2774q4 0 9.5 -3t7.5 -6l1367 -2172l1368 2172q2 3 7 6t9 3h748q8 0 13.5 -6t5.5 -14v-2734q0 -8 -5.5 -14t-13.5 -6h-437q-8 0 -14 6t-6 14v2313h-18l-1504 -2324q-2 -3 -7.5 -6t-8.5 -3h-273q-4 0 -9.5 3t-7.5 6l-1503 2324h-15v-2313q0 -8 -6 -14t-14 -6h-441
q-8 0 -14 6t-6 14v2734q0 8 6 14t14 6h748z" />
    <glyph glyph-name="iacute.002" horiz-adv-x="3879" 
d="M226 2754q0 8 5.5 14t13.5 6h440q8 0 13.5 -6t5.5 -14v-1124h2243v1124q0 8 6 14t14 6h441q8 0 14 -6t6 -14v-2734q0 -8 -6 -14t-14 -6h-441q-8 0 -14 6t-6 14v1170h-2243v-1170q0 -8 -5.5 -14t-13.5 -6h-440q-8 0 -13.5 6t-5.5 14v2734z" />
    <glyph glyph-name="icircumflex.002" horiz-adv-x="4076" 
d="M1916 -39q-420 0 -717 28t-469 85q-79 28 -150.5 71.5t-130 99.5t-102.5 122.5t-68 140.5q-32 112 -48 331.5t-16 543.5q0 327 15.5 547t45.5 327q50 157 164.5 271.5t290.5 171.5q173 57 467.5 85t717.5 28q847 0 1186 -109q177 -60 288.5 -169t162.5 -274
q33 -109 49 -327.5t16 -550.5q0 -327 -15.5 -546t-45.5 -325q-24 -77 -66.5 -144.5t-100.5 -123.5t-129.5 -99.5t-154.5 -70.5q-173 -57 -470.5 -85t-719.5 -28zM1916 401q446 0 716 33.5t356 95.5q71 73 111.5 287t40.5 566q0 358 -38.5 572t-109.5 283q-88 61 -360 96
t-716 35q-459 0 -727 -32t-343 -98q-152 -125 -152 -856q0 -724 152 -850q154 -132 1070 -132z" />
    <glyph glyph-name="idieresis.002" horiz-adv-x="3936" 
d="M234 2754q0 8 5.5 14t13.5 6h3159q8 0 14 -6t6 -14v-2734q0 -8 -6 -14t-14 -6h-441q-8 0 -14 6t-6 14v2313h-2238v-2313q0 -8 -5.5 -14t-13.5 -6h-441q-8 0 -13.5 6t-5.5 14v2734z" />
    <glyph glyph-name="eth.002" horiz-adv-x="3695" 
d="M227 0q-8 0 -14 6t-6 14v2734q0 8 6 14t14 6h2218q373 0 590 -226q213 -225 213 -673q0 -449 -217 -670q-221 -224 -602 -224h-1742v-961q0 -8 -6 -14t-14 -6h-440zM687 1421h1742q79 0 140 27.5t107 81.5q93 106 93 345q0 240 -93 353q-46 50 -109 77.5t-142 27.5h-1738
v-912z" />
    <glyph glyph-name="ntilde.002" horiz-adv-x="3690" 
d="M655 1383q0 -353 38 -566t107 -284q79 -64 317 -98t627 -34q365 0 591 20.5t310 58.5h-1q85 45 128.5 174t43.5 343q0 8 6 13.5t14 5.5h440q8 0 14 -5.5t6 -13.5q0 -338 -74 -554.5t-213 -307.5q-141 -84 -459.5 -129t-805.5 -45q-1011 0 -1287 246q-276 248 -276 1176
q0 936 272 1184q272 246 1291 246q998 0 1270 -172q282 -176 282 -864q0 -8 -6 -13.5t-14 -5.5h-440q-8 0 -14 5.5t-6 13.5q0 213 -40.5 340t-116.5 169h2q-91 39 -320.5 61t-596.5 22q-401 0 -636.5 -32t-307.5 -98q-145 -130 -145 -856z" />
    <glyph glyph-name="ograve.002" horiz-adv-x="3256" 
d="M92 2754q0 8 6 14t14 6h2857q8 0 14 -6t6 -14v-401q0 -8 -6 -14t-14 -6h-1186v-2313q0 -8 -5.5 -14t-13.5 -6h-442q-8 0 -13.5 6t-5.5 14v2313h-1191q-8 0 -14 6t-6 14v401z" />
    <glyph glyph-name="oacute.002" horiz-adv-x="4141" 
d="M1641 440q77 0 144.5 12t121.5 33l-1 -1q84 36 144 128l-1738 1874l-236 254q-10 11 -4.5 22.5t19.5 11.5h606q3 0 7.5 -2.5t6.5 -4.5l1601 -1761l494 867l507 891q2 4 6.5 7t9.5 3h502q12 0 17 -9.5t-1 -20.5l-1286 -2248q-75 -127 -166.5 -220t-202.5 -152l1 1
q-112 -63 -253 -94t-313 -31h-904q-8 0 -13.5 6t-5.5 14v401q0 19 19 19h918z" />
    <glyph glyph-name="ocircumflex.002" horiz-adv-x="5165" 
d="M2195 2754q0 8 6 14t14 6h440q8 0 14 -6t6 -14v-288h1005q244 0 417 -47t273 -137q123 -118 187 -332t64 -528q0 -632 -251 -886q-212 -212 -690 -212h-1005v-304q0 -8 -6 -14t-14 -6h-440q-8 0 -14 6t-6 14v304h-1009q-477 0 -689 212q-253 253 -253 886q0 317 64.5 533
t190.5 331q102 88 273 134t414 46h1009v288zM1186 2025q-127 0 -217 -30.5t-141 -89.5q-50 -65 -76.5 -186.5t-26.5 -296.5q0 -368 109 -512q102 -143 352 -143h1009v1258h-1009zM3680 767q124 0 214.5 37.5t144.5 105.5q51 72 79 200t28 312q0 360 -105 483
q-104 120 -361 120h-1005v-1258h1005z" />
    <glyph glyph-name="otilde.002" horiz-adv-x="3871" 
d="M2966 2768q2 2 7 4t7 2h609q14 0 19.5 -12t-5.5 -22l-1389 -1353q345 -337 694.5 -677t694.5 -677q11 -9 5.5 -21t-19.5 -12h-581q-2 0 -7 2t-7 4l-1134 1121l-1133 -1121q-2 -2 -7 -4t-7 -2h-587q-14 0 -19.5 12t5.5 21l1390 1354q-346 337 -695 677t-695 676
q-11 10 -5.5 22t19.5 12h615q2 0 7 -2t7 -4l1105 -1114z" />
    <glyph glyph-name="odieresis.002" horiz-adv-x="4002" 
d="M287 2754q0 8 6 14t14 6h440q8 0 14 -6t6 -14v-2314h2239v2314q0 8 5.5 14t13.5 6h441q8 0 13.5 -6t5.5 -14v-2314h174q8 0 14 -5.5t6 -13.5v-898q0 -8 -6 -13.5t-14 -5.5h-440q-8 0 -14 5.5t-6 13.5q0 147 -10.5 245t-30.5 150l1 -1q-34 83 -126 83h-2726q-8 0 -14 6
t-6 14v2734z" />
    <glyph glyph-name="divide.002" horiz-adv-x="3805" 
d="M681 2802q8 0 14 -6t6 -14v-971q0 -86 34 -156t106 -126q139 -117 402 -117h1602v1370q0 8 6 14t14 6h445q8 0 13.5 -6t5.5 -14v-2762q0 -8 -5.5 -14t-13.5 -6h-445q-8 0 -14 6t-6 14v947h-1602q-240 0 -431.5 63t-329.5 183q-128 114 -196 266t-68 332v971q0 8 5.5 14
t13.5 6h444z" />
    <glyph glyph-name="oslash.002" horiz-adv-x="5276" 
d="M420 0q-8 0 -14 6t-6 14v2734q0 8 6 14t14 6h440q8 0 14 -6t6 -14v-2314h1420v2314q0 8 6 14t14 6h440q8 0 14 -6t6 -14v-2314h1423v2314q0 8 6 14t14 6h440q8 0 14 -6t6 -14v-2734q0 -8 -6 -14t-14 -6h-4243z" />
    <glyph glyph-name="ugrave.002" horiz-adv-x="5345" 
d="M410 0q-8 0 -14 6t-6 14v2734q0 8 6 14t14 6h440q8 0 14 -6t6 -14v-2314h1419v2314q0 8 6 14t14 6h440q8 0 14 -6t6 -14v-2314h1424v2314q0 8 6 14t14 6h440q8 0 14 -6t6 -14v-2314h172q8 0 14 -5.5t6 -13.5v-898q0 -8 -6 -13.5t-14 -5.5h-439q-8 0 -14 5.5t-6 13.5
q0 147 -10 245t-30 150l1 -1q-34 83 -131 83h-3806z" />
    <glyph glyph-name="uacute.002" horiz-adv-x="4194" 
d="M644 2333h-472q-8 0 -14 6t-6 14v401q0 8 6 14t14 6h932q8 0 14 -6t6 -14v-966h1746q186 0 333.5 -55t253.5 -162q109 -117 168.5 -287t59.5 -386q0 -449 -212 -673q-219 -225 -591 -225h-2218q-8 0 -14 6t-6 14v2313zM1124 1344v-904h1738q159 0 251 109q48 54 70 141
t22 208q0 116 -22.5 203.5t-66.5 141.5l2 -1q-46 48 -109.5 75t-142.5 27h-1742z" />
    <glyph glyph-name="ucircumflex.002" horiz-adv-x="4821" 
d="M4300 20q0 -8 -6 -14t-14 -6h-440q-8 0 -14 6t-6 14v2734q0 8 6 14t14 6h440q8 0 14 -6t6 -14v-2734zM322 2754q0 8 5.5 14t13.5 6h436q8 0 13.5 -6t5.5 -14v-966h1743q382 0 602 -221q217 -224 217 -669q0 -453 -213 -673q-217 -225 -606 -225h-2198q-8 0 -13.5 6
t-5.5 14v2734zM796 1344v-904h1743q159 0 251 109q89 107 89 349q0 116 -23.5 204t-66.5 142l2 -2q-46 48 -109.5 75t-142.5 27h-1743z" />
    <glyph glyph-name="udieresis.002" horiz-adv-x="3805" 
d="M267 2754q0 8 6 14t14 6h440q8 0 14 -6t6 -14v-966h1739q190 0 340 -55.5t262 -169.5q221 -226 221 -665q0 -448 -213 -673q-217 -225 -591 -225h-2218q-8 0 -14 6t-6 14v2734zM747 1344v-904h1739q159 0 250 109q48 54 70 141t22 208q0 116 -22.5 203.5t-66.5 141.5
l1 -1q-45 48 -108.5 75t-141.5 27h-1743z" />
    <glyph glyph-name="yacute.002" horiz-adv-x="3805" 
d="M988 1607q0 8 6 13.5t14 5.5h1820q-3 258 -45 412t-123 211l1 -1q-89 61 -317.5 91t-599.5 30q-757 0 -905 -76q-172 -84 -172 -516q0 -8 -5.5 -13.5t-13.5 -5.5h-440q-19 0 -19 19q0 682 284 864q138 86 456 129t815 43q501 0 828 -70t472 -203q129 -128 196.5 -419.5
t67.5 -737.5q0 -899 -264 -1152q-285 -270 -1300 -270q-997 0 -1271 170q-284 177 -284 866q0 8 5.5 13.5t13.5 5.5h440q8 0 13.5 -5.5t5.5 -13.5q0 -431 160 -510q168 -86 917 -86q751 0 906 111q87 61 131 229.5t47 444.5h-1820q-8 0 -14 5.5t-6 13.5v402z" />
    <glyph glyph-name="thorn.002" horiz-adv-x="5108" 
d="M4546 1383q0 -328 -16 -546.5t-46 -324.5q-51 -158 -163.5 -271t-286.5 -167q-172 -58 -468 -85.5t-722 -27.5q-557 0 -911 54t-499 159q-140 108 -214 355t-78 633h-419v-1142q0 -8 -5.5 -14t-13.5 -6h-441q-8 0 -13.5 6t-5.5 14v2734q0 8 5.5 14t13.5 6h441
q8 0 13.5 -6t5.5 -14v-1151h419q1 391 73 634t207 350q154 108 512.5 167t909.5 59q847 0 1186 -109q174 -58 286.5 -170t163.5 -273q32 -111 49 -331.5t17 -546.5zM2844 401q446 0 715.5 33.5t355.5 95.5q70 72 110.5 286.5t40.5 566.5q0 358 -38.5 572t-108.5 283
q-89 61 -360 96t-715 35q-460 0 -728 -32t-343 -98q-152 -125 -152 -856q0 -724 152 -850q154 -132 1071 -132z" />
    <glyph glyph-name="ydieresis.002" horiz-adv-x="3944" 
d="M3355 2774q8 0 14 -6t6 -14v-2734q0 -8 -6 -14t-14 -6h-440q-8 0 -13.5 6t-5.5 14v954h-1858q-165 0 -281 -80l1 1q-113 -79 -113 -195v-680q0 -8 -6 -14t-14 -6h-441q-8 0 -14 6t-6 14v680q0 106 33 195.5t96 161.5q33 36 75 69.5t92 60.5q-61 34 -106 76.5t-77 90.5
q-55 88 -84 219t-29 302q0 201 49 364.5t145 285.5q98 118 239.5 183.5t320.5 65.5h2437zM2896 1418v915h-1819q-97 0 -172 -18.5t-122 -48.5q-66 -54 -102 -152t-36 -239q0 -136 36.5 -234.5t98.5 -152.5l-1 1q48 -35 123 -53t175 -18h1819z" />
  </font>
</defs>
</svg>
