<svg width="737" height="96" viewBox="0 0 737 96" fill="none" xmlns="http://www.w3.org/2000/svg">
<path d="M3.9 3.3H0.9V5.1H3V6H0.9V9H0V2.4H3.9V3.3ZM8.10195 9H7.20195V7.5H5.10195V9H4.20195V6.6V6.3V5.7H4.50195V5.1H4.80195V4.5H5.10195V3.9H5.40195V3.3H5.70195V2.7H6.00195V2.4H6.30195V2.7H6.60195V3.3H6.90195V3.9H7.20195V4.5H7.50195V5.1H7.80195V5.7H8.10195V6.3V6.6V9ZM7.20195 6.6V6.3V6H6.90195V5.4H6.60195V4.8H6.30195V4.2H6.00195V4.8H5.70195V5.4H5.40195V6H5.10195V6.3V6.6H7.20195ZM12.3039 8.1H12.0039V8.4H11.7039V8.7H11.4039V9H8.40391V2.4H11.4039V2.7H11.7039V3H12.0039V3.3H12.3039V4.8H12.0039V5.1H11.7039V5.4H11.4039V5.7H11.7039V6H12.0039V6.3H12.3039V8.1ZM11.4039 4.5V3.6H11.1039V3.3H9.30391V5.1H10.8039V4.8H11.1039V4.5H11.4039ZM11.4039 7.8V6.6H11.1039V6.3H10.8039V6H9.30391V8.1H11.1039V7.8H11.4039ZM15.0059 6.6H13.8059V5.4H15.0059V6.6ZM15.0059 9H13.8059V7.8H15.0059V9ZM24.9098 8.1H24.6098V8.4H24.3098V8.7H24.0098V9H21.0098V2.4H24.0098V2.7H24.3098V3H24.6098V3.3H24.9098V4.8H24.6098V5.1H24.3098V5.4H24.0098V5.7H24.3098V6H24.6098V6.3H24.9098V8.1ZM24.0098 4.5V3.6H23.7098V3.3H21.9098V5.1H23.4098V4.8H23.7098V4.5H24.0098ZM24.0098 7.8V6.6H23.7098V6.3H23.4098V6H21.9098V8.1H23.7098V7.8H24.0098ZM29.1117 3.3H28.8117V3.9H28.5117V4.5H28.2117V5.1H27.9117V5.7H27.6117V9H26.7117V5.7H26.4117V5.1H26.1117V4.5H25.8117V3.9H25.5117V3.3H25.2117V2.4H26.1117V3H26.4117V3.6H26.7117V4.2H27.0117V4.8H27.3117V4.2H27.6117V3.6H27.9117V3H28.2117V2.4H29.1117V3.3ZM33.3137 9H29.4137V2.4H30.3137V8.1H33.3137V9ZM37.5156 7.5H37.2156V7.8H36.9156V8.1H36.6156V8.4H36.3156V8.7H36.0056V9H33.6156V2.4H36.0156V2.7H36.3156V3H36.6156V3.3H36.9156V3.6H37.2156V3.9H37.5156V7.5ZM36.6156 7.2V4.2H36.3156V3.9H36.0156V3.6H35.7156V3.3H34.5156V8.1H35.7156V7.8H36.0156V7.5H36.3156V7.2H36.6156ZM45.9195 9H42.0195V8.1H43.5195V3.3H42.9195V2.4H45.0195V3.3H44.4195V8.1H45.9195V9ZM50.1215 9H49.2215V8.7H48.9215V8.1H48.6215V7.5H48.3215V6.9H48.0215V6.3H47.7215V5.7H47.4215V5.1H47.1215V9H46.2215V2.4H46.8215V3H47.1215V3.6H47.4215V4.2H47.7215V4.8H48.0215V5.4H48.3215V6H48.6215V6.6H48.9215V7.2H49.2215V2.4H50.1215V9ZM54.3234 7.5H54.0234V7.8H53.7234V8.1H53.4234V8.4H53.1234V8.7H52.8134V9H50.4234V2.4H52.8234V2.7H53.1234V3H53.4234V3.3H53.7234V3.6H54.0234V3.9H54.3234V7.5ZM53.4234 7.2V4.2H53.1234V3.9H52.8234V3.6H52.5234V3.3H51.3234V8.1H52.5234V7.8H52.8234V7.5H53.1234V7.2H53.4234ZM58.5254 8.1H58.2254V8.4H57.9254V8.7H57.6254V9H55.5254V8.7H55.2254V8.4H54.9254V8.1H54.6254V2.4H55.5254V7.8H55.8254V8.1H57.3254V7.8H57.6254V2.4H58.5254V8.1ZM62.7273 8.1H62.4273V8.4H62.1273V8.7H61.8273V9H59.7273V8.7H59.4273V8.4H59.1273V8.1H58.8273V7.2H59.7273V7.8H60.0273V8.1H61.5273V7.8H61.8273V6.3H61.5273V6H59.7273V5.7H59.4273V5.4H59.1273V5.1H58.8273V3.3H59.1273V3H59.4273V2.7H59.7273V2.4H61.8273V2.7H62.1273V3H62.4273V3.3H62.7273V4.2H61.8273V3.6H61.5273V3.3H60.0273V3.6H59.7273V4.8H60.0273V5.1H61.8273V5.4H62.1273V5.7H62.4273V6H62.7273V8.1ZM66.9293 3.3H65.4293V9H64.5293V3.3H63.0293V2.4H66.9293V3.3ZM71.1312 9H70.2312V7.8H69.9312V7.2H69.6312V6.6H69.3312V6H68.1312V9H67.2312V2.4H70.2312V2.7H70.5312V3H70.8312V3.3H71.1312V5.1H70.8312V5.4H70.5312V5.7H70.2312V6.3H70.5312V6.9H70.8312V7.5H71.1312V9ZM70.2312 4.8V3.6H69.9312V3.3H68.1312V5.1H69.9312V4.8H70.2312ZM75.3332 9H71.4332V8.1H72.9332V3.3H72.3332V2.4H74.4332V3.3H73.8332V8.1H75.3332V9ZM79.5352 9H75.6352V2.4H79.5352V3.3H76.5352V5.1H78.9352V6H76.5352V8.1H79.5352V9ZM83.7371 8.1H83.4371V8.4H83.1371V8.7H82.8371V9H80.7371V8.7H80.4371V8.4H80.1371V8.1H79.8371V7.2H80.7371V7.8H81.0371V8.1H82.5371V7.8H82.8371V6.3H82.5371V6H80.7371V5.7H80.4371V5.4H80.1371V5.1H79.8371V3.3H80.1371V3H80.4371V2.7H80.7371V2.4H82.8371V2.7H83.1371V3H83.4371V3.3H83.7371V4.2H82.8371V3.6H82.5371V3.3H81.0371V3.6H80.7371V4.8H81.0371V5.1H82.8371V5.4H83.1371V5.7H83.4371V6H83.7371V8.1ZM3.9 21H0V20.1H1.5V15.3H0.9V14.4H3V15.3H2.4V20.1H3.9V21ZM8.10195 21H7.20195V20.7H6.90195V20.1H6.60195V19.5H6.30195V18.9H6.00195V18.3H5.70195V17.7H5.40195V17.1H5.10195V21H4.20195V14.4H4.80195V15H5.10195V15.6H5.40195V16.2H5.70195V16.8H6.00195V17.4H6.30195V18H6.60195V18.6H6.90195V19.2H7.20195V14.4H8.10195V21ZM12.3039 20.1H12.0039V20.4H11.7039V20.7H11.4039V21H9.30391V20.7H9.00391V20.4H8.70391V20.1H8.40391V19.2H9.30391V19.8H9.60391V20.1H11.1039V19.8H11.4039V18.3H11.1039V18H9.30391V17.7H9.00391V17.4H8.70391V17.1H8.40391V15.3H8.70391V15H9.00391V14.7H9.30391V14.4H11.4039V14.7H11.7039V15H12.0039V15.3H12.3039V16.2H11.4039V15.6H11.1039V15.3H9.60391V15.6H9.30391V16.8H9.60391V17.1H11.4039V17.4H11.7039V17.7H12.0039V18H12.3039V20.1ZM16.5059 17.4H16.2059V17.7H15.9059V18H15.6059V18.3H13.5059V21H12.6059V14.4H15.6059V14.7H15.9059V15H16.2059V15.3H16.5059V17.4ZM15.6059 17.1V15.6H15.3059V15.3H13.5059V17.4H15.3059V17.1H15.6059ZM20.7078 21H16.8078V14.4H20.7078V15.3H17.7078V17.1H20.1078V18H17.7078V20.1H20.7078V21ZM24.9098 20.1H24.6098V20.4H24.3098V20.7H24.0098V21H22.2098V20.7H21.9098V20.4H21.6098V20.1H21.3098V19.8H21.0098V15.6H21.3098V15.3H21.6098V15H21.9098V14.7H22.2098V14.4H24.0098V14.7H24.3098V15H24.6098V15.3H24.9098V16.2H24.0098V15.6H23.7098V15.3H22.5098V15.6H22.2098V15.9H21.9098V19.5H22.2098V19.8H22.5098V20.1H23.7098V19.8H24.0098V19.2H24.9098V20.1ZM29.1117 15.3H27.6117V21H26.7117V15.3H25.2117V14.4H29.1117V15.3ZM37.5156 20.1H37.2156V20.4H36.9156V20.7H36.6156V21H33.6156V14.4H36.6156V14.7H36.9156V15H37.2156V15.3H37.5156V16.8H37.2156V17.1H36.9156V17.4H36.6156V17.7H36.9156V18H37.2156V18.3H37.5156V20.1ZM36.6156 16.5V15.6H36.3156V15.3H34.5156V17.1H36.0156V16.8H36.3156V16.5H36.6156ZM36.6156 19.8V18.6H36.3156V18.3H36.0156V18H34.5156V20.1H36.3156V19.8H36.6156ZM41.7176 21H37.8176V14.4H41.7176V15.3H38.7176V17.1H41.1176V18H38.7176V20.1H41.7176V21ZM45.9195 15.3H42.9195V17.1H45.0195V18H42.9195V21H42.0195V14.4H45.9195V15.3ZM50.1215 19.8H49.8215V20.1H49.5215V20.4H49.2215V20.7H48.9215V21H47.4215V20.7H47.1215V20.4H46.8215V20.1H46.5215V19.8H46.2215V15.6H46.5215V15.3H46.8215V15H47.1215V14.7H47.4215V14.4H48.9215V14.7H49.2215V15H49.5215V15.3H49.8215V15.6H50.1215V19.8ZM49.2215 19.5V15.9H48.9215V15.6H48.6215V15.3H47.7215V15.6H47.4215V15.9H47.1215V19.5H47.4215V19.8H47.7215V20.1H48.6215V19.8H48.9215V19.5H49.2215ZM54.3234 21H53.4234V19.8H53.1234V19.2H52.8234V18.6H52.5234V18H51.3234V21H50.4234V14.4H53.4234V14.7H53.7234V15H54.0234V15.3H54.3234V17.1H54.0234V17.4H53.7234V17.7H53.4234V18.3H53.7234V18.9H54.0234V19.5H54.3234V21ZM53.4234 16.8V15.6H53.1234V15.3H51.3234V17.1H53.1234V16.8H53.4234ZM58.5254 21H54.6254V14.4H58.5254V15.3H55.5254V17.1H57.9254V18H55.5254V20.1H58.5254V21ZM66.9293 20.1H66.6293V20.4H66.3293V20.7H66.0293V21H63.9293V20.7H63.6293V20.4H63.3293V20.1H63.0293V14.4H63.9293V19.8H64.2293V20.1H65.7293V19.8H66.0293V14.4H66.9293V20.1ZM71.1312 20.1H70.8312V20.4H70.5312V20.7H70.2312V21H68.1312V20.7H67.8312V20.4H67.5312V20.1H67.2312V19.2H68.1312V19.8H68.4312V20.1H69.9312V19.8H70.2312V18.3H69.9312V18H68.1312V17.7H67.8312V17.4H67.5312V17.1H67.2312V15.3H67.5312V15H67.8312V14.7H68.1312V14.4H70.2312V14.7H70.5312V15H70.8312V15.3H71.1312V16.2H70.2312V15.6H69.9312V15.3H68.4312V15.6H68.1312V16.8H68.4312V17.1H70.2312V17.4H70.5312V17.7H70.8312V18H71.1312V20.1ZM75.3332 21H71.4332V14.4H75.3332V15.3H72.3332V17.1H74.7332V18H72.3332V20.1H75.3332V21ZM3.9 44.1H3.6V44.4H3.3V44.7H3V45H0.9V44.7H0.6V44.4H0.3V44.1H0V43.2H0.9V43.8H1.2V44.1H2.7V43.8H3V42.3H2.7V42H0.9V41.7H0.6V41.4H0.3V41.1H0V39.3H0.3V39H0.6V38.7H0.9V38.4H3V38.7H3.3V39H3.6V39.3H3.9V40.2H3V39.6H2.7V39.3H1.2V39.6H0.9V40.8H1.2V41.1H3V41.4H3.3V41.7H3.6V42H3.9V44.1ZM8.10195 45H7.20195V44.7H6.90195V44.1H6.60195V43.5H6.30195V42.9H6.00195V42.3H5.70195V41.7H5.40195V41.1H5.10195V45H4.20195V38.4H4.80195V39H5.10195V39.6H5.40195V40.2H5.70195V40.8H6.00195V41.4H6.30195V42H6.60195V42.6H6.90195V43.2H7.20195V38.4H8.10195V45ZM10.8039 42.6H9.60391V41.4H10.8039V42.6ZM10.8039 45H9.60391V43.8H10.8039V45ZM20.7078 43.8H20.4078V44.1H20.1078V44.4H19.8078V44.7H19.5078V45H18.0078V44.7H17.7078V44.4H17.4078V44.1H17.1078V43.8H16.8078V39.6H17.1078V39.3H17.4078V39H17.7078V38.7H18.0078V38.4H19.5078V38.7H19.8078V39H20.1078V39.3H20.4078V39.6H20.7078V43.8ZM19.5078 39.9V39.6V39.3H18.0078V39.6H17.7078V42.9H18.0078V42.3H18.3078V41.7H18.6078V41.1H18.9078V40.5H19.2078V39.9H19.5078ZM19.8078 43.8V40.8H19.5078V41.4H19.2078V42H18.9078V42.6H18.6078V43.2H18.3078V43.8H18.0078V44.1H19.5078V43.8H19.8078ZM24.9098 43.8H24.6098V44.1H24.3098V44.4H24.0098V44.7H23.7098V45H22.2098V44.7H21.9098V44.4H21.6098V44.1H21.3098V43.8H21.0098V39.6H21.3098V39.3H21.6098V39H21.9098V38.7H22.2098V38.4H23.7098V38.7H24.0098V39H24.3098V39.3H24.6098V39.6H24.9098V43.8ZM23.7098 39.9V39.6V39.3H22.2098V39.6H21.9098V42.9H22.2098V42.3H22.5098V41.7H22.8098V41.1H23.1098V40.5H23.4098V39.9H23.7098ZM24.0098 43.8V40.8H23.7098V41.4H23.4098V42H23.1098V42.6H22.8098V43.2H22.5098V43.8H22.2098V44.1H23.7098V43.8H24.0098ZM29.1117 45H25.2117V42.6H25.5117V42.3H25.8117V42H26.1117V41.7H26.4117V41.4H27.6117V41.1H27.9117V40.8H28.2117V39.6H27.9117V39.3H26.4117V39.6H26.1117V40.2H25.2117V39.3H25.5117V39H25.8117V38.7H26.1117V38.4H28.2117V38.7H28.5117V39H28.8117V39.3H29.1117V41.1H28.8117V41.4H28.5117V41.7H28.2117V42H27.9117V42.3H26.7117V42.6H26.4117V42.9H26.1117V44.1H29.1117V45ZM33.3137 45H29.4137V44.1H30.9137V39.3H30.0137V38.4H31.8137V44.1H33.3137V45ZM37.5156 42H37.2156V42.6H36.9156V42.9H36.6156V43.2H36.3156V43.5H36.0156V43.8H35.7156V44.1H35.4156V44.4H35.1156V44.7H34.8156V45H33.9156V44.4H34.2156V44.1H34.5156V43.8H34.8156V43.5H35.1156V43.2H35.4156V42.9H35.7156V42.6H36.0156V42.3H34.5156V42H34.2156V41.7H33.9156V41.4H33.6156V39.3H33.9156V39H34.2156V38.7H34.5156V38.4H36.6156V38.7H36.9156V39H37.2156V39.3H37.5156V42ZM36.6156 41.1V39.6H36.3156V39.3H34.8156V39.6H34.5156V41.1H34.8156V41.4H36.3156V41.1H36.6156ZM41.7176 43.8H41.1176V45H40.2176V43.8H37.8176V43.5V43.2H38.1176V42.6H38.4176V42H38.7176V41.4H39.0176V40.8H39.3176V40.2H39.6176V39.6H39.9176V39H40.2176V38.4H41.1176V42.9H41.7176V43.8ZM40.2176 42.9V40.5H39.9176V41.1H39.6176V41.7H39.3176V42.3H39.0176V42.9H40.2176ZM45.3195 42.9H42.6195V42H45.3195V42.9ZM50.1215 44.1H49.8215V44.4H49.5215V44.7H49.2215V45H47.4215V44.7H47.1215V44.4H46.8215V44.1H46.5215V43.8H46.2215V39.6H46.5215V39.3H46.8215V39H47.1215V38.7H47.4215V38.4H49.2215V38.7H49.5215V39H49.8215V39.3H50.1215V40.2H49.2215V39.6H48.9215V39.3H47.7215V39.6H47.4215V39.9H47.1215V43.5H47.4215V43.8H47.7215V44.1H48.9215V43.8H49.2215V43.2H50.1215V44.1ZM3.9 57H3V53.7H2.7V54.3H2.4V54.9H2.1V55.5H1.8V54.9H1.5V54.3H1.2V53.7H0.9V57H0V50.4H0.3V51H0.6V51.6H0.9V52.2H1.2V52.8H1.5V53.4H1.8V54H2.1V53.4H2.4V52.8H2.7V52.2H3V51.6H3.3V51H3.6V50.4H3.9V57ZM8.10195 57H7.20195V55.5H5.10195V57H4.20195V54.6V54.3V53.7H4.50195V53.1H4.80195V52.5H5.10195V51.9H5.40195V51.3H5.70195V50.7H6.00195V50.4H6.30195V50.7H6.60195V51.3H6.90195V51.9H7.20195V52.5H7.50195V53.1H7.80195V53.7H8.10195V54.3V54.6V57ZM7.20195 54.6V54.3V54H6.90195V53.4H6.60195V52.8H6.30195V52.2H6.00195V52.8H5.70195V53.4H5.40195V54H5.10195V54.3V54.6H7.20195ZM12.3039 51.3H10.8039V57H9.90391V51.3H8.40391V50.4H12.3039V51.3ZM15.0059 54.6H13.8059V53.4H15.0059V54.6ZM15.0059 57H13.8059V55.8H15.0059V57ZM24.9098 57H24.0098V55.5H21.9098V57H21.0098V54.6V54.3V53.7H21.3098V53.1H21.6098V52.5H21.9098V51.9H22.2098V51.3H22.5098V50.7H22.8098V50.4H23.1098V50.7H23.4098V51.3H23.7098V51.9H24.0098V52.5H24.3098V53.1H24.6098V53.7H24.9098V54.3V54.6V57ZM24.0098 54.6V54.3V54H23.7098V53.4H23.4098V52.8H23.1098V52.2H22.8098V52.8H22.5098V53.4H22.2098V54H21.9098V54.3V54.6H24.0098ZM29.1117 57H25.2117V50.4H26.1117V56.1H29.1117V57ZM33.3137 56.1H33.0137V56.4H32.7137V56.7H32.4137V57H30.3137V56.7H30.0137V56.4H29.7137V56.1H29.4137V53.4H29.7137V52.8H30.0137V52.5H30.3137V52.2H30.6137V51.9H30.9137V51.6H31.2137V51.3H31.5137V51H31.8137V50.7H32.1137V50.4H33.0137V51H32.7137V51.3H32.4137V51.6H32.1137V51.9H31.8137V52.2H31.5137V52.5H31.2137V52.8H30.9137V53.1H32.4137V53.4H32.7137V53.7H33.0137V54H33.3137V56.1ZM32.4137 55.8V54.3H32.1137V54H30.6137V54.3H30.3137V55.8H30.6137V56.1H32.1137V55.8H32.4137ZM37.5156 55.8H37.2156V56.1H36.9156V56.4H36.6156V56.7H36.3156V57H34.8156V56.7H34.5156V56.4H34.2156V56.1H33.9156V55.8H33.6156V51.6H33.9156V51.3H34.2156V51H34.5156V50.7H34.8156V50.4H36.3156V50.7H36.6156V51H36.9156V51.3H37.2156V51.6H37.5156V55.8ZM36.3156 51.9V51.6V51.3H34.8156V51.6H34.5156V54.9H34.8156V54.3H35.1156V53.7H35.4156V53.1H35.7156V52.5H36.0156V51.9H36.3156ZM36.6156 55.8V52.8H36.3156V53.4H36.0156V54H35.7156V54.6H35.4156V55.2H35.1156V55.8H34.8156V56.1H36.3156V55.8H36.6156ZM41.7176 56.1H41.4176V56.4H41.1176V56.7H40.8176V57H38.7176V56.7H38.4176V56.4H38.1176V56.1H37.8176V53.4H38.1176V52.8H38.4176V52.5H38.7176V52.2H39.0176V51.9H39.3176V51.6H39.6176V51.3H39.9176V51H40.2176V50.7H40.5176V50.4H41.4176V51H41.1176V51.3H40.8176V51.6H40.5176V51.9H40.2176V52.2H39.9176V52.5H39.6176V52.8H39.3176V53.1H40.8176V53.4H41.1176V53.7H41.4176V54H41.7176V56.1ZM40.8176 55.8V54.3H40.5176V54H39.0176V54.3H38.7176V55.8H39.0176V56.1H40.5176V55.8H40.8176ZM45.9195 57H42.0195V56.1H43.5195V51.3H42.6195V50.4H44.4195V56.1H45.9195V57ZM49.5215 54.9H46.8215V54H49.5215V54.9ZM54.3234 51.3H52.8234V57H51.9234V51.3H50.4234V50.4H54.3234V51.3ZM58.5254 56.1H58.2254V56.4H57.9254V56.7H57.6254V57H55.5254V56.7H55.2254V56.4H54.9254V56.1H54.6254V53.4H54.9254V52.8H55.2254V52.5H55.5254V52.2H55.8254V51.9H56.1254V51.6H56.4254V51.3H56.7254V51H57.0254V50.7H57.3254V50.4H58.2254V51H57.9254V51.3H57.6254V51.6H57.3254V51.9H57.0254V52.2H56.7254V52.5H56.4254V52.8H56.1254V53.1H57.6254V53.4H57.9254V53.7H58.2254V54H58.5254V56.1ZM57.6254 55.8V54.3H57.3254V54H55.8254V54.3H55.5254V55.8H55.8254V56.1H57.3254V55.8H57.6254ZM3.9 80.4H3.6V80.7H3.3V81H1.2V80.7H0.9V80.4H0.6V80.1H0.3V79.8H0V75.6H0.3V75.3H0.6V75H0.9V74.7H1.2V74.4H3.3V74.7H3.6V75H3.9V75.6H3V75.3H1.5V75.6H1.2V75.9H0.9V79.5H1.2V79.8H1.5V80.1H3V78.3H2.7V78.6H1.8V77.4H3.9V80.4ZM8.10195 81H4.20195V74.4H8.10195V75.3H5.10195V77.1H7.50195V78H5.10195V80.1H8.10195V81ZM12.3039 79.8H12.0039V80.1H11.7039V80.4H11.4039V80.7H11.1039V81H9.60391V80.7H9.30391V80.4H9.00391V80.1H8.70391V79.8H8.40391V75.6H8.70391V75.3H9.00391V75H9.30391V74.7H9.60391V74.4H11.1039V74.7H11.4039V75H11.7039V75.3H12.0039V75.6H12.3039V79.8ZM11.4039 79.5V75.9H11.1039V75.6H10.8039V75.3H9.90391V75.6H9.60391V75.9H9.30391V79.5H9.60391V79.8H9.90391V80.1H10.8039V79.8H11.1039V79.5H11.4039ZM16.5059 81H15.6059V77.7H15.3059V78.3H15.0059V78.9H14.7059V79.5H14.4059V78.9H14.1059V78.3H13.8059V77.7H13.5059V81H12.6059V74.4H12.9059V75H13.2059V75.6H13.5059V76.2H13.8059V76.8H14.1059V77.4H14.4059V78H14.7059V77.4H15.0059V76.8H15.3059V76.2H15.6059V75.6H15.9059V75H16.2059V74.4H16.5059V81ZM20.7078 82.2H16.8078V81.6H20.7078V82.2ZM24.9098 81H24.0098V78H21.9098V81H21.0098V74.4H21.9098V77.1H24.0098V74.4H24.9098V81ZM29.1117 81H28.2117V79.5H26.1117V81H25.2117V78.6V78.3V77.7H25.5117V77.1H25.8117V76.5H26.1117V75.9H26.4117V75.3H26.7117V74.7H27.0117V74.4H27.3117V74.7H27.6117V75.3H27.9117V75.9H28.2117V76.5H28.5117V77.1H28.8117V77.7H29.1117V78.3V78.6V81ZM28.2117 78.6V78.3V78H27.9117V77.4H27.6117V76.8H27.3117V76.2H27.0117V76.8H26.7117V77.4H26.4117V78H26.1117V78.3V78.6H28.2117ZM33.3137 80.1H33.0137V80.4H32.7137V80.7H32.4137V81H30.3137V80.7H30.0137V80.4H29.7137V80.1H29.4137V79.2H30.3137V79.8H30.6137V80.1H32.1137V79.8H32.4137V78.3H32.1137V78H30.3137V77.7H30.0137V77.4H29.7137V77.1H29.4137V75.3H29.7137V75H30.0137V74.7H30.3137V74.4H32.4137V74.7H32.7137V75H33.0137V75.3H33.3137V76.2H32.4137V75.6H32.1137V75.3H30.6137V75.6H30.3137V76.8H30.6137V77.1H32.4137V77.4H32.7137V77.7H33.0137V78H33.3137V80.1ZM37.5156 81H36.6156V78H34.5156V81H33.6156V74.4H34.5156V77.1H36.6156V74.4H37.5156V81ZM40.2176 78.6H39.0176V77.4H40.2176V78.6ZM40.2176 81H39.0176V79.8H40.2176V81ZM50.1215 80.1H49.8215V80.4H49.5215V80.7H49.2215V81H47.1215V80.7H46.8215V80.4H46.5215V80.1H46.2215V78H46.5215V77.7H46.8215V77.4H46.5215V77.1H46.2215V75.3H46.5215V75H46.8215V74.7H47.1215V74.4H49.2215V74.7H49.5215V75H49.8215V75.3H50.1215V77.1H49.8215V77.4H49.5215V77.7H49.8215V78H50.1215V80.1ZM49.2215 76.8V75.6H48.9215V75.3H47.4215V75.6H47.1215V76.8H47.4215V77.1H48.9215V76.8H49.2215ZM49.2215 79.8V78.3H48.9215V78H47.4215V78.3H47.1215V79.8H47.4215V80.1H48.9215V79.8H49.2215ZM54.3234 78H54.0234V78.6H53.7234V78.9H53.4234V79.2H53.1234V79.5H52.8234V79.8H52.5234V80.1H52.2234V80.4H51.9234V80.7H51.6234V81H50.7234V80.4H51.0234V80.1H51.3234V79.8H51.6234V79.5H51.9234V79.2H52.2234V78.9H52.5234V78.6H52.8234V78.3H51.3234V78H51.0234V77.7H50.7234V77.4H50.4234V75.3H50.7234V75H51.0234V74.7H51.3234V74.4H53.4234V74.7H53.7234V75H54.0234V75.3H54.3234V78ZM53.4234 77.1V75.6H53.1234V75.3H51.6234V75.6H51.3234V77.1H51.6234V77.4H53.1234V77.1H53.4234ZM58.5254 79.5H58.2254V79.8H57.9254V80.1H57.6254V80.4H57.3254V80.7H57.0154V81H54.6254V74.4H57.0254V74.7H57.3254V75H57.6254V75.3H57.9254V75.6H58.2254V75.9H58.5254V79.5ZM57.6254 79.2V76.2H57.3254V75.9H57.0254V75.6H56.7254V75.3H55.5254V80.1H56.7254V79.8H57.0254V79.5H57.3254V79.2H57.6254ZM62.7273 81H58.8273V78.6H59.1273V78.3H59.4273V78H59.7273V77.7H60.0273V77.4H61.2273V77.1H61.5273V76.8H61.8273V75.6H61.5273V75.3H60.0273V75.6H59.7273V76.2H58.8273V75.3H59.1273V75H59.4273V74.7H59.7273V74.4H61.8273V74.7H62.1273V75H62.4273V75.3H62.7273V77.1H62.4273V77.4H62.1273V77.7H61.8273V78H61.5273V78.3H60.3273V78.6H60.0273V78.9H59.7273V80.1H62.7273V81ZM66.9293 75.3H63.9293V77.1H66.0293V78H63.9293V81H63.0293V74.4H66.9293V75.3ZM71.1312 81H70.2312V79.5H68.1312V81H67.2312V78.6V78.3V77.7H67.5312V77.1H67.8312V76.5H68.1312V75.9H68.4312V75.3H68.7312V74.7H69.0312V74.4H69.3312V74.7H69.6312V75.3H69.9312V75.9H70.2312V76.5H70.5312V77.1H70.8312V77.7H71.1312V78.3V78.6V81ZM70.2312 78.6V78.3V78H69.9312V77.4H69.6312V76.8H69.3312V76.2H69.0312V76.8H68.7312V77.4H68.4312V78H68.1312V78.3V78.6H70.2312ZM3.9 92.1H3.6V92.4H3.3V92.7H3V93H1.2V92.7H0.9V92.4H0.6V92.1H0.3V91.8H0V87.6H0.3V87.3H0.6V87H0.9V86.7H1.2V86.4H3V86.7H3.3V87H3.6V87.3H3.9V88.2H3V87.6H2.7V87.3H1.5V87.6H1.2V87.9H0.9V91.5H1.2V91.8H1.5V92.1H2.7V91.8H3V91.2H3.9V92.1ZM8.10195 93H7.20195V90H5.10195V93H4.20195V86.4H5.10195V89.1H7.20195V86.4H8.10195V93ZM12.3039 93H11.4039V92.4H11.1039V91.8H10.8039V91.2H10.5039V90.6H10.2039V90H9.60391V90.3H9.30391V93H8.40391V86.4H9.30391V89.1H9.60391V88.8H9.90391V88.5H10.2039V88.2H10.5039V87.9H10.8039V87.6H11.1039V87.29H11.4039V87H11.7039V86.7H12.0039V86.4H12.3039V87.6H12.0039V87.9H11.7039V88.2H11.4039V88.49H11.1039V88.8H10.8039V89.1H10.5039V89.4H10.8039V89.7H11.1039V90.3H11.4039V90.9H11.7039V91.5H12.0039V92.1H12.3039V93ZM15.9059 90.9H13.2059V90H15.9059V90.9ZM20.7078 89.4H20.4078V90H20.1078V90.6H19.8078V91.2H19.5078V91.8H19.2078V92.4H18.9078V93H18.6078V92.4H18.3078V91.8H18.0078V91.2H17.7078V90.6H17.4078V90H17.1078V89.4H16.8078V86.4H17.7078V89.1H18.0078V89.7H18.3078V90.3H18.6078V90.9H18.9078V90.3H19.2078V89.7H19.5078V89.1H19.8078V86.4H20.7078V89.4ZM24.9098 93H24.0098V91.8H23.7098V91.2H23.4098V90.6H23.1098V90H21.9098V93H21.0098V86.4H24.0098V86.7H24.3098V87H24.6098V87.3H24.9098V89.1H24.6098V89.4H24.3098V89.7H24.0098V90.3H24.3098V90.9H24.6098V91.5H24.9098V93ZM24.0098 88.8V87.6H23.7098V87.3H21.9098V89.1H23.7098V88.8H24.0098ZM29.1117 87.3H27.6117V93H26.7117V87.3H25.2117V86.4H29.1117V87.3ZM33.3137 92.1H33.0137V92.4H32.7137V92.7H32.4137V93H30.3137V92.7H30.0137V92.4H29.7137V92.1H29.4137V91.2H30.3137V91.8H30.6137V92.1H32.1137V91.8H32.4137V90.3H32.1137V90H30.3137V89.7H30.0137V89.4H29.7137V89.1H29.4137V87.3H29.7137V87H30.0137V86.7H30.3137V86.4H32.4137V86.7H32.7137V87H33.0137V87.3H33.3137V88.2H32.4137V87.6H32.1137V87.3H30.6137V87.6H30.3137V88.8H30.6137V89.1H32.4137V89.4H32.7137V89.7H33.0137V90H33.3137V92.1ZM36.0156 90.6H34.8156V89.4H36.0156V90.6ZM36.0156 93H34.8156V91.8H36.0156V93ZM45.9195 92.1H45.6195V92.4H45.3195V92.7H45.0195V93H42.9195V92.7H42.6195V92.4H42.3195V92.1H42.0195V90H42.3195V89.7H42.6195V89.4H42.3195V89.1H42.0195V87.3H42.3195V87H42.6195V86.7H42.9195V86.4H45.0195V86.7H45.3195V87H45.6195V87.3H45.9195V89.1H45.6195V89.4H45.3195V89.7H45.6195V90H45.9195V92.1ZM45.0195 88.8V87.6H44.7195V87.3H43.2195V87.6H42.9195V88.8H43.2195V89.1H44.7195V88.8H45.0195ZM45.0195 91.8V90.3H44.7195V90H43.2195V90.3H42.9195V91.8H43.2195V92.1H44.7195V91.8H45.0195ZM50.1215 91.8H49.5215V93H48.6215V91.8H46.2215V91.5V91.2H46.5215V90.6H46.8215V90H47.1215V89.4H47.4215V88.8H47.7215V88.2H48.0215V87.6H48.3215V87H48.6215V86.4H49.5215V90.9H50.1215V91.8ZM48.6215 90.9V88.5H48.3215V89.1H48.0215V89.7H47.7215V90.3H47.4215V90.9H48.6215ZM54.3234 93H50.4234V90.6H50.7234V90.3H51.0234V90H51.3234V89.7H51.6234V89.4H52.8234V89.1H53.1234V88.8H53.4234V87.6H53.1234V87.3H51.6234V87.6H51.3234V88.2H50.4234V87.3H50.7234V87H51.0234V86.7H51.3234V86.4H53.4234V86.7H53.7234V87H54.0234V87.3H54.3234V89.1H54.0234V89.4H53.7234V89.7H53.4234V90H53.1234V90.3H51.9234V90.6H51.6234V90.9H51.3234V92.1H54.3234V93Z" fill="#4B4B4B"/>
<path d="M690.177 51.3H688.677V57H687.777V51.3H686.277V50.4H690.177V51.3ZM694.379 55.8H694.079V56.1H693.779V56.4H693.479V56.7H693.179V57H691.679V56.7H691.379V56.4H691.079V56.1H690.779V55.8H690.479V51.6H690.779V51.3H691.079V51H691.379V50.7H691.679V50.4H693.179V50.7H693.479V51H693.779V51.3H694.079V51.6H694.379V55.8ZM693.479 55.5V51.9H693.179V51.6H692.879V51.3H691.979V51.6H691.679V51.9H691.379V55.5H691.679V55.8H691.979V56.1H692.879V55.8H693.179V55.5H693.479ZM698.58 57H694.68V50.4H695.58V56.1H698.58V57ZM701.282 54.6H700.082V53.4H701.282V54.6ZM701.282 57H700.082V55.8H701.282V57ZM711.186 53.7H709.686V55.2H708.786V53.7H707.286V52.8H708.786V51.3H709.686V52.8H711.186V53.7ZM711.186 56.7H707.286V55.8H711.186V56.7ZM715.388 55.8H715.088V56.1H714.788V56.4H714.488V56.7H714.188V57H712.688V56.7H712.388V56.4H712.088V56.1H711.788V55.8H711.488V51.6H711.788V51.3H712.088V51H712.388V50.7H712.688V50.4H714.188V50.7H714.488V51H714.788V51.3H715.088V51.6H715.388V55.8ZM714.188 51.9V51.6V51.3H712.688V51.6H712.388V54.9H712.688V54.3H712.988V53.7H713.288V53.1H713.588V52.5H713.888V51.9H714.188ZM714.488 55.8V52.8H714.188V53.4H713.888V54H713.588V54.6H713.288V55.2H712.988V55.8H712.688V56.1H714.188V55.8H714.488ZM718.09 57H716.89V55.8H718.09V57ZM723.792 55.8H723.492V56.1H723.192V56.4H722.892V56.7H722.592V57H721.092V56.7H720.792V56.4H720.492V56.1H720.192V55.8H719.892V51.6H720.192V51.3H720.492V51H720.792V50.7H721.092V50.4H722.592V50.7H722.892V51H723.192V51.3H723.492V51.6H723.792V55.8ZM722.592 51.9V51.6V51.3H721.092V51.6H720.792V54.9H721.092V54.3H721.392V53.7H721.692V53.1H721.992V52.5H722.292V51.9H722.592ZM722.892 55.8V52.8H722.592V53.4H722.292V54H721.992V54.6H721.692V55.2H721.392V55.8H721.092V56.1H722.592V55.8H722.892ZM727.994 57H724.094V54.6H724.394V54.3H724.694V54H724.994V53.7H725.294V53.4H726.494V53.1H726.794V52.8H727.094V51.6H726.794V51.3H725.294V51.6H724.994V52.2H724.094V51.3H724.394V51H724.694V50.7H724.994V50.4H727.094V50.7H727.394V51H727.694V51.3H727.994V53.1H727.694V53.4H727.394V53.7H727.094V54H726.794V54.3H725.594V54.6H725.294V54.9H724.994V56.1H727.994V57ZM732.196 57H731.296V53.7H730.996V54.3H730.696V54.9H730.396V55.5H730.096V54.9H729.796V54.3H729.496V53.7H729.196V57H728.296V50.4H728.596V51H728.896V51.6H729.196V52.2H729.496V52.8H729.796V53.4H730.096V54H730.396V53.4H730.696V52.8H730.996V52.2H731.296V51.6H731.596V51H731.896V50.4H732.196V57ZM736.398 57H735.498V53.7H735.198V54.3H734.898V54.9H734.598V55.5H734.298V54.9H733.998V54.3H733.698V53.7H733.398V57H732.498V50.4H732.798V51H733.098V51.6H733.398V52.2H733.698V52.8H733.998V53.4H734.298V54H734.598V53.4H734.898V52.8H735.198V52.2H735.498V51.6H735.798V51H736.098V50.4H736.398V57ZM690.177 77.4H689.877V77.7H689.577V78H689.277V78.3H687.177V81H686.277V74.4H689.277V74.7H689.577V75H689.877V75.3H690.177V77.4ZM689.277 77.1V75.6H688.977V75.3H687.177V77.4H688.977V77.1H689.277ZM694.379 81H693.479V80.7H693.179V80.1H692.879V79.5H692.579V78.9H692.279V78.3H691.979V77.7H691.679V77.1H691.379V81H690.479V74.4H691.079V75H691.379V75.6H691.679V76.2H691.979V76.8H692.279V77.4H692.579V78H692.879V78.6H693.179V79.2H693.479V74.4H694.379V81ZM697.08 78.6H695.88V77.4H697.08V78.6ZM697.08 81H695.88V79.8H697.08V81ZM706.984 81H703.084V78.6H703.384V78.3H703.684V78H703.984V77.7H704.284V77.4H705.484V77.1H705.784V76.8H706.084V75.6H705.784V75.3H704.284V75.6H703.984V76.2H703.084V75.3H703.384V75H703.684V74.7H703.984V74.4H706.084V74.7H706.384V75H706.684V75.3H706.984V77.1H706.684V77.4H706.384V77.7H706.084V78H705.784V78.3H704.584V78.6H704.284V78.9H703.984V80.1H706.984V81ZM711.186 79.8H710.586V81H709.686V79.8H707.286V79.5V79.2H707.586V78.6H707.886V78H708.186V77.4H708.486V76.8H708.786V76.2H709.086V75.6H709.386V75H709.686V74.4H710.586V78.9H711.186V79.8ZM709.686 78.9V76.5H709.386V77.1H709.086V77.7H708.786V78.3H708.486V78.9H709.686ZM715.388 80.1H715.088V80.4H714.788V80.7H714.488V81H712.388V80.7H712.088V80.4H711.788V80.1H711.488V78H711.788V77.7H712.088V77.4H711.788V77.1H711.488V75.3H711.788V75H712.088V74.7H712.388V74.4H714.488V74.7H714.788V75H715.088V75.3H715.388V77.1H715.088V77.4H714.788V77.7H715.088V78H715.388V80.1ZM714.488 76.8V75.6H714.188V75.3H712.688V75.6H712.388V76.8H712.688V77.1H714.188V76.8H714.488ZM714.488 79.8V78.3H714.188V78H712.688V78.3H712.388V79.8H712.688V80.1H714.188V79.8H714.488ZM719.59 80.1H719.29V80.4H718.99V80.7H718.69V81H716.59V80.7H716.29V80.4H715.99V80.1H715.69V79.2H716.59V79.8H716.89V80.1H718.39V79.8H718.69V78.6H718.39V78.3H718.09V78H717.79V77.7H717.49V77.4H717.19V77.1H716.89V76.8H717.19V76.5H717.49V76.2H717.79V75.9H718.09V75.6H718.39V75.3H715.69V74.4H719.59V75.6H719.29V75.9H718.99V76.2H718.69V76.5H718.39V76.8H718.09V77.1H718.39V77.4H718.69V77.7H718.99V78H719.29V78.3H719.59V80.1ZM723.192 78.9H720.492V78H723.192V78.9ZM727.994 81H727.094V79.5H724.994V81H724.094V78.6V78.3V77.7H724.394V77.1H724.694V76.5H724.994V75.9H725.294V75.3H725.594V74.7H725.894V74.4H726.194V74.7H726.494V75.3H726.794V75.9H727.094V76.5H727.394V77.1H727.694V77.7H727.994V78.3V78.6V81ZM727.094 78.6V78.3V78H726.794V77.4H726.494V76.8H726.194V76.2H725.894V76.8H725.594V77.4H725.294V78H724.994V78.3V78.6H727.094ZM732.196 81H731.296V80.1H730.996V79.2H730.696V78.6H730.396V78.3H730.096V78.6H729.796V79.2H729.496V80.1H729.196V81H728.296V80.1H728.596V79.2H728.896V78.6H729.196V78H729.496V77.4H729.196V76.8H728.896V76.2H728.596V75.3H728.296V74.4H729.196V75.3H729.496V76.2H729.796V76.8H730.096V77.1H730.396V76.8H730.696V76.2H730.996V75.3H731.296V74.4H732.196V75.3H731.896V76.2H731.596V76.8H731.296V77.4H730.996V78H731.296V78.6H731.596V79.2H731.896V80.1H732.196V81ZM736.398 78H736.098V78.6H735.798V78.9H735.498V79.2H735.198V79.5H734.898V79.8H734.598V80.1H734.298V80.4H733.998V80.7H733.698V81H732.798V80.4H733.098V80.1H733.398V79.8H733.698V79.5H733.998V79.2H734.298V78.9H734.598V78.6H734.898V78.3H733.398V78H733.098V77.7H732.798V77.4H732.498V75.3H732.798V75H733.098V74.7H733.398V74.4H735.498V74.7H735.798V75H736.098V75.3H736.398V78ZM735.498 77.1V75.6H735.198V75.3H733.698V75.6H733.398V77.1H733.698V77.4H735.198V77.1H735.498ZM614.541 91.5H614.241V91.8H613.941V92.1H613.641V92.4H613.341V92.7H613.031V93H610.641V86.4H613.041V86.7H613.341V87H613.641V87.3H613.941V87.6H614.241V87.9H614.541V91.5ZM613.641 91.2V88.2H613.341V87.9H613.041V87.6H612.741V87.3H611.541V92.1H612.741V91.8H613.041V91.5H613.341V91.2H613.641ZM618.743 91.8H618.443V92.1H618.143V92.4H617.843V92.7H617.543V93H616.043V92.7H615.743V92.4H615.443V92.1H615.143V91.8H614.843V87.6H615.143V87.3H615.443V87H615.743V86.7H616.043V86.4H617.543V86.7H617.843V87H618.143V87.3H618.443V87.6H618.743V91.8ZM617.843 91.5V87.9H617.543V87.6H617.243V87.3H616.343V87.6H616.043V87.9H615.743V91.5H616.043V91.8H616.343V92.1H617.243V91.8H617.543V91.5H617.843ZM627.147 93H626.247V92.7H625.947V92.1H625.647V91.5H625.347V90.9H625.047V90.3H624.747V89.7H624.447V89.1H624.147V93H623.247V86.4H623.847V87H624.147V87.6H624.447V88.2H624.747V88.8H625.047V89.4H625.347V90H625.647V90.6H625.947V91.2H626.247V86.4H627.147V93ZM631.349 91.8H631.049V92.1H630.749V92.4H630.449V92.7H630.149V93H628.649V92.7H628.349V92.4H628.049V92.1H627.749V91.8H627.449V87.6H627.749V87.3H628.049V87H628.349V86.7H628.649V86.4H630.149V86.7H630.449V87H630.749V87.3H631.049V87.6H631.349V91.8ZM630.449 91.5V87.9H630.149V87.6H629.849V87.3H628.949V87.6H628.649V87.9H628.349V91.5H628.649V91.8H628.949V92.1H629.849V91.8H630.149V91.5H630.449ZM635.551 87.3H634.051V93H633.151V87.3H631.651V86.4H635.551V87.3ZM643.955 93H643.055V91.8H642.755V91.2H642.455V90.6H642.155V90H640.955V93H640.055V86.4H643.055V86.7H643.355V87H643.655V87.3H643.955V89.1H643.655V89.4H643.355V89.7H643.055V90.3H643.355V90.9H643.655V91.5H643.955V93ZM643.055 88.8V87.6H642.755V87.3H640.955V89.1H642.755V88.8H643.055ZM648.157 93H644.257V86.4H648.157V87.3H645.157V89.1H647.557V90H645.157V92.1H648.157V93ZM652.359 93H651.459V89.7H651.159V90.3H650.859V90.9H650.559V91.5H650.259V90.9H649.959V90.3H649.659V89.7H649.359V93H648.459V86.4H648.759V87H649.059V87.6H649.359V88.2H649.659V88.8H649.959V89.4H650.259V90H650.559V89.4H650.859V88.8H651.159V88.2H651.459V87.6H651.759V87H652.059V86.4H652.359V93ZM656.561 91.8H656.261V92.1H655.961V92.4H655.661V92.7H655.361V93H653.861V92.7H653.561V92.4H653.261V92.1H652.961V91.8H652.661V87.6H652.961V87.3H653.261V87H653.561V86.7H653.861V86.4H655.361V86.7H655.661V87H655.961V87.3H656.261V87.6H656.561V91.8ZM655.661 91.5V87.9H655.361V87.6H655.061V87.3H654.161V87.6H653.861V87.9H653.561V91.5H653.861V91.8H654.161V92.1H655.061V91.8H655.361V91.5H655.661ZM660.763 89.4H660.463V90H660.163V90.6H659.863V91.2H659.563V91.8H659.263V92.4H658.963V93H658.663V92.4H658.363V91.8H658.063V91.2H657.763V90.6H657.463V90H657.163V89.4H656.863V86.4H657.763V89.1H658.063V89.7H658.363V90.3H658.663V90.9H658.963V90.3H659.263V89.7H659.563V89.1H659.863V86.4H660.763V89.4ZM664.965 93H661.065V86.4H664.965V87.3H661.965V89.1H664.365V90H661.965V92.1H664.965V93ZM673.369 91.5H673.069V91.8H672.769V92.1H672.469V92.4H672.169V92.7H671.859V93H669.469V86.4H671.869V86.7H672.169V87H672.469V87.3H672.769V87.6H673.069V87.9H673.369V91.5ZM672.469 91.2V88.2H672.169V87.9H671.869V87.6H671.569V87.3H670.369V92.1H671.569V91.8H671.869V91.5H672.169V91.2H672.469ZM677.571 92.1H677.271V92.4H676.971V92.7H676.671V93H674.571V92.7H674.271V92.4H673.971V92.1H673.671V86.4H674.571V91.8H674.871V92.1H676.371V91.8H676.671V86.4H677.571V92.1ZM681.773 93H680.873V91.8H680.573V91.2H680.273V90.6H679.973V90H678.773V93H677.873V86.4H680.873V86.7H681.173V87H681.473V87.3H681.773V89.1H681.473V89.4H681.173V89.7H680.873V90.3H681.173V90.9H681.473V91.5H681.773V93ZM680.873 88.8V87.6H680.573V87.3H678.773V89.1H680.573V88.8H680.873ZM685.975 93H682.075V92.1H683.575V87.3H682.975V86.4H685.075V87.3H684.475V92.1H685.975V93ZM690.177 93H689.277V92.7H688.977V92.1H688.677V91.5H688.377V90.9H688.077V90.3H687.777V89.7H687.477V89.1H687.177V93H686.277V86.4H686.877V87H687.177V87.6H687.477V88.2H687.777V88.8H688.077V89.4H688.377V90H688.677V90.6H688.977V91.2H689.277V86.4H690.177V93ZM694.379 92.4H694.079V92.7H693.779V93H691.679V92.7H691.379V92.4H691.079V92.1H690.779V91.8H690.479V87.6H690.779V87.3H691.079V87H691.379V86.7H691.679V86.4H693.779V86.7H694.079V87H694.379V87.6H693.479V87.3H691.979V87.6H691.679V87.9H691.379V91.5H691.679V91.8H691.979V92.1H693.479V90.3H693.179V90.6H692.279V89.4H694.379V92.4ZM702.782 91.8H702.482V92.1H702.182V92.4H701.882V92.7H701.582V93H700.082V92.7H699.782V92.4H699.482V92.1H699.182V91.8H698.882V87.6H699.182V87.3H699.482V87H699.782V86.7H700.082V86.4H701.582V86.7H701.882V87H702.182V87.3H702.482V87.6H702.782V91.8ZM701.882 91.5V87.9H701.582V87.6H701.282V87.3H700.382V87.6H700.082V87.9H699.782V91.5H700.082V91.8H700.382V92.1H701.282V91.8H701.582V91.5H701.882ZM706.984 89.4H706.684V89.7H706.384V90H706.084V90.3H703.984V93H703.084V86.4H706.084V86.7H706.384V87H706.684V87.3H706.984V89.4ZM706.084 89.1V87.6H705.784V87.3H703.984V89.4H705.784V89.1H706.084ZM711.186 93H707.286V86.4H711.186V87.3H708.186V89.1H710.586V90H708.186V92.1H711.186V93ZM715.388 93H714.488V91.8H714.188V91.2H713.888V90.6H713.588V90H712.388V93H711.488V86.4H714.488V86.7H714.788V87H715.088V87.3H715.388V89.1H715.088V89.4H714.788V89.7H714.488V90.3H714.788V90.9H715.088V91.5H715.388V93ZM714.488 88.8V87.6H714.188V87.3H712.388V89.1H714.188V88.8H714.488ZM719.59 93H718.69V91.5H716.59V93H715.69V90.6V90.3V89.7H715.99V89.1H716.29V88.5H716.59V87.9H716.89V87.3H717.19V86.7H717.49V86.4H717.79V86.7H718.09V87.3H718.39V87.9H718.69V88.5H718.99V89.1H719.29V89.7H719.59V90.3V90.6V93ZM718.69 90.6V90.3V90H718.39V89.4H718.09V88.8H717.79V88.2H717.49V88.8H717.19V89.4H716.89V90H716.59V90.3V90.6H718.69ZM723.792 87.3H722.292V93H721.392V87.3H719.892V86.4H723.792V87.3ZM727.994 93H724.094V92.1H725.594V87.3H724.994V86.4H727.094V87.3H726.494V92.1H727.994V93ZM732.196 91.8H731.896V92.1H731.596V92.4H731.296V92.7H730.996V93H729.496V92.7H729.196V92.4H728.896V92.1H728.596V91.8H728.296V87.6H728.596V87.3H728.896V87H729.196V86.7H729.496V86.4H730.996V86.7H731.296V87H731.596V87.3H731.896V87.6H732.196V91.8ZM731.296 91.5V87.9H730.996V87.6H730.696V87.3H729.796V87.6H729.496V87.9H729.196V91.5H729.496V91.8H729.796V92.1H730.696V91.8H730.996V91.5H731.296ZM736.398 93H735.498V92.7H735.198V92.1H734.898V91.5H734.598V90.9H734.298V90.3H733.998V89.7H733.698V89.1H733.398V93H732.498V86.4H733.098V87H733.398V87.6H733.698V88.2H733.998V88.8H734.298V89.4H734.598V90H734.898V90.6H735.198V91.2H735.498V86.4H736.398V93Z" fill="#4B4B4B"/>
</svg>
