<svg width="131" height="96" viewBox="0 0 131 96" fill="none" xmlns="http://www.w3.org/2000/svg">
<path d="M50.5609 3.3H47.5609V5.1H49.6609V6H47.5609V9H46.6609V2.4H50.5609V3.3ZM54.7629 9H53.8629V7.5H51.7629V9H50.8629V6.6V6.3V5.7H51.1629V5.1H51.4629V4.5H51.7629V3.9H52.0629V3.3H52.3629V2.7H52.6629V2.4H52.9629V2.7H53.2629V3.3H53.5629V3.9H53.8629V4.5H54.1629V5.1H54.4629V5.7H54.7629V6.3V6.6V9ZM53.8629 6.6V6.3V6H53.5629V5.4H53.2629V4.8H52.9629V4.2H52.6629V4.8H52.3629V5.4H52.0629V6H51.7629V6.3V6.6H53.8629ZM58.9648 8.1H58.6648V8.4H58.3648V8.7H58.0648V9H55.0648V2.4H58.0648V2.7H58.3648V3H58.6648V3.3H58.9648V4.8H58.6648V5.1H58.3648V5.4H58.0648V5.7H58.3648V6H58.6648V6.3H58.9648V8.1ZM58.0648 4.5V3.6H57.7648V3.3H55.9648V5.1H57.4648V4.8H57.7648V4.5H58.0648ZM58.0648 7.8V6.6H57.7648V6.3H57.4648V6H55.9648V8.1H57.7648V7.8H58.0648ZM61.6668 6.6H60.4668V5.4H61.6668V6.6ZM61.6668 9H60.4668V7.8H61.6668V9ZM71.5707 8.1H71.2707V8.4H70.9707V8.7H70.6707V9H67.6707V2.4H70.6707V2.7H70.9707V3H71.2707V3.3H71.5707V4.8H71.2707V5.1H70.9707V5.4H70.6707V5.7H70.9707V6H71.2707V6.3H71.5707V8.1ZM70.6707 4.5V3.6H70.3707V3.3H68.5707V5.1H70.0707V4.8H70.3707V4.5H70.6707ZM70.6707 7.8V6.6H70.3707V6.3H70.0707V6H68.5707V8.1H70.3707V7.8H70.6707ZM75.7727 3.3H75.4727V3.9H75.1727V4.5H74.8727V5.1H74.5727V5.7H74.2727V9H73.3727V5.7H73.0727V5.1H72.7727V4.5H72.4727V3.9H72.1727V3.3H71.8727V2.4H72.7727V3H73.0727V3.6H73.3727V4.2H73.6727V4.8H73.9727V4.2H74.2727V3.6H74.5727V3H74.8727V2.4H75.7727V3.3ZM79.9746 9H76.0746V2.4H76.9746V8.1H79.9746V9ZM84.1766 7.5H83.8766V7.8H83.5766V8.1H83.2766V8.4H82.9766V8.7H82.6666V9H80.2766V2.4H82.6766V2.7H82.9766V3H83.2766V3.3H83.5766V3.6H83.8766V3.9H84.1766V7.5ZM83.2766 7.2V4.2H82.9766V3.9H82.6766V3.6H82.3766V3.3H81.1766V8.1H82.3766V7.8H82.6766V7.5H82.9766V7.2H83.2766ZM92.5805 9H88.6805V8.1H90.1805V3.3H89.5805V2.4H91.6805V3.3H91.0805V8.1H92.5805V9ZM96.7824 9H95.8824V8.7H95.5824V8.1H95.2824V7.5H94.9824V6.9H94.6824V6.3H94.3824V5.7H94.0824V5.1H93.7824V9H92.8824V2.4H93.4824V3H93.7824V3.6H94.0824V4.2H94.3824V4.8H94.6824V5.4H94.9824V6H95.2824V6.6H95.5824V7.2H95.8824V2.4H96.7824V9ZM100.984 7.5H100.684V7.8H100.384V8.1H100.084V8.4H99.7844V8.7H99.4744V9H97.0844V2.4H99.4844V2.7H99.7844V3H100.084V3.3H100.384V3.6H100.684V3.9H100.984V7.5ZM100.084 7.2V4.2H99.7844V3.9H99.4844V3.6H99.1844V3.3H97.9844V8.1H99.1844V7.8H99.4844V7.5H99.7844V7.2H100.084ZM105.186 8.1H104.886V8.4H104.586V8.7H104.286V9H102.186V8.7H101.886V8.4H101.586V8.1H101.286V2.4H102.186V7.8H102.486V8.1H103.986V7.8H104.286V2.4H105.186V8.1ZM109.388 8.1H109.088V8.4H108.788V8.7H108.488V9H106.388V8.7H106.088V8.4H105.788V8.1H105.488V7.2H106.388V7.8H106.688V8.1H108.188V7.8H108.488V6.3H108.188V6H106.388V5.7H106.088V5.4H105.788V5.1H105.488V3.3H105.788V3H106.088V2.7H106.388V2.4H108.488V2.7H108.788V3H109.088V3.3H109.388V4.2H108.488V3.6H108.188V3.3H106.688V3.6H106.388V4.8H106.688V5.1H108.488V5.4H108.788V5.7H109.088V6H109.388V8.1ZM113.59 3.3H112.09V9H111.19V3.3H109.69V2.4H113.59V3.3ZM117.792 9H116.892V7.8H116.592V7.2H116.292V6.6H115.992V6H114.792V9H113.892V2.4H116.892V2.7H117.192V3H117.492V3.3H117.792V5.1H117.492V5.4H117.192V5.7H116.892V6.3H117.192V6.9H117.492V7.5H117.792V9ZM116.892 4.8V3.6H116.592V3.3H114.792V5.1H116.592V4.8H116.892ZM121.994 9H118.094V8.1H119.594V3.3H118.994V2.4H121.094V3.3H120.494V8.1H121.994V9ZM126.196 9H122.296V2.4H126.196V3.3H123.196V5.1H125.596V6H123.196V8.1H126.196V9ZM130.398 8.1H130.098V8.4H129.798V8.7H129.498V9H127.398V8.7H127.098V8.4H126.798V8.1H126.498V7.2H127.398V7.8H127.698V8.1H129.198V7.8H129.498V6.3H129.198V6H127.398V5.7H127.098V5.4H126.798V5.1H126.498V3.3H126.798V3H127.098V2.7H127.398V2.4H129.498V2.7H129.798V3H130.098V3.3H130.398V4.2H129.498V3.6H129.198V3.3H127.698V3.6H127.398V4.8H127.698V5.1H129.498V5.4H129.798V5.7H130.098V6H130.398V8.1ZM58.9648 21H55.0648V20.1H56.5648V15.3H55.9648V14.4H58.0648V15.3H57.4648V20.1H58.9648V21ZM63.1668 21H62.2668V20.7H61.9668V20.1H61.6668V19.5H61.3668V18.9H61.0668V18.3H60.7668V17.7H60.4668V17.1H60.1668V21H59.2668V14.4H59.8668V15H60.1668V15.6H60.4668V16.2H60.7668V16.8H61.0668V17.4H61.3668V18H61.6668V18.6H61.9668V19.2H62.2668V14.4H63.1668V21ZM67.3688 20.1H67.0688V20.4H66.7688V20.7H66.4688V21H64.3688V20.7H64.0688V20.4H63.7688V20.1H63.4688V19.2H64.3688V19.8H64.6688V20.1H66.1688V19.8H66.4688V18.3H66.1688V18H64.3688V17.7H64.0688V17.4H63.7688V17.1H63.4688V15.3H63.7688V15H64.0688V14.7H64.3688V14.4H66.4688V14.7H66.7688V15H67.0688V15.3H67.3688V16.2H66.4688V15.6H66.1688V15.3H64.6688V15.6H64.3688V16.8H64.6688V17.1H66.4688V17.4H66.7688V17.7H67.0688V18H67.3688V20.1ZM71.5707 17.4H71.2707V17.7H70.9707V18H70.6707V18.3H68.5707V21H67.6707V14.4H70.6707V14.7H70.9707V15H71.2707V15.3H71.5707V17.4ZM70.6707 17.1V15.6H70.3707V15.3H68.5707V17.4H70.3707V17.1H70.6707ZM75.7727 21H71.8727V14.4H75.7727V15.3H72.7727V17.1H75.1727V18H72.7727V20.1H75.7727V21ZM79.9746 20.1H79.6746V20.4H79.3746V20.7H79.0746V21H77.2746V20.7H76.9746V20.4H76.6746V20.1H76.3746V19.8H76.0746V15.6H76.3746V15.3H76.6746V15H76.9746V14.7H77.2746V14.4H79.0746V14.7H79.3746V15H79.6746V15.3H79.9746V16.2H79.0746V15.6H78.7746V15.3H77.5746V15.6H77.2746V15.9H76.9746V19.5H77.2746V19.8H77.5746V20.1H78.7746V19.8H79.0746V19.2H79.9746V20.1ZM84.1766 15.3H82.6766V21H81.7766V15.3H80.2766V14.4H84.1766V15.3ZM92.5805 20.1H92.2805V20.4H91.9805V20.7H91.6805V21H88.6805V14.4H91.6805V14.7H91.9805V15H92.2805V15.3H92.5805V16.8H92.2805V17.1H91.9805V17.4H91.6805V17.7H91.9805V18H92.2805V18.3H92.5805V20.1ZM91.6805 16.5V15.6H91.3805V15.3H89.5805V17.1H91.0805V16.8H91.3805V16.5H91.6805ZM91.6805 19.8V18.6H91.3805V18.3H91.0805V18H89.5805V20.1H91.3805V19.8H91.6805ZM96.7824 21H92.8824V14.4H96.7824V15.3H93.7824V17.1H96.1824V18H93.7824V20.1H96.7824V21ZM100.984 15.3H97.9844V17.1H100.084V18H97.9844V21H97.0844V14.4H100.984V15.3ZM105.186 19.8H104.886V20.1H104.586V20.4H104.286V20.7H103.986V21H102.486V20.7H102.186V20.4H101.886V20.1H101.586V19.8H101.286V15.6H101.586V15.3H101.886V15H102.186V14.7H102.486V14.4H103.986V14.7H104.286V15H104.586V15.3H104.886V15.6H105.186V19.8ZM104.286 19.5V15.9H103.986V15.6H103.686V15.3H102.786V15.6H102.486V15.9H102.186V19.5H102.486V19.8H102.786V20.1H103.686V19.8H103.986V19.5H104.286ZM109.388 21H108.488V19.8H108.188V19.2H107.888V18.6H107.588V18H106.388V21H105.488V14.4H108.488V14.7H108.788V15H109.088V15.3H109.388V17.1H109.088V17.4H108.788V17.7H108.488V18.3H108.788V18.9H109.088V19.5H109.388V21ZM108.488 16.8V15.6H108.188V15.3H106.388V17.1H108.188V16.8H108.488ZM113.59 21H109.69V14.4H113.59V15.3H110.59V17.1H112.99V18H110.59V20.1H113.59V21ZM121.994 20.1H121.694V20.4H121.394V20.7H121.094V21H118.994V20.7H118.694V20.4H118.394V20.1H118.094V14.4H118.994V19.8H119.294V20.1H120.794V19.8H121.094V14.4H121.994V20.1ZM126.196 20.1H125.896V20.4H125.596V20.7H125.296V21H123.196V20.7H122.896V20.4H122.596V20.1H122.296V19.2H123.196V19.8H123.496V20.1H124.996V19.8H125.296V18.3H124.996V18H123.196V17.7H122.896V17.4H122.596V17.1H122.296V15.3H122.596V15H122.896V14.7H123.196V14.4H125.296V14.7H125.596V15H125.896V15.3H126.196V16.2H125.296V15.6H124.996V15.3H123.496V15.6H123.196V16.8H123.496V17.1H125.296V17.4H125.596V17.7H125.896V18H126.196V20.1ZM130.398 21H126.498V14.4H130.398V15.3H127.398V17.1H129.798V18H127.398V20.1H130.398V21ZM63.1668 44.4H62.8668V44.7H62.5668V45H60.4668V44.7H60.1668V44.4H59.8668V44.1H59.5668V43.8H59.2668V39.6H59.5668V39.3H59.8668V39H60.1668V38.7H60.4668V38.4H62.5668V38.7H62.8668V39H63.1668V39.6H62.2668V39.3H60.7668V39.6H60.4668V39.9H60.1668V43.5H60.4668V43.8H60.7668V44.1H62.2668V42.3H61.9668V42.6H61.0668V41.4H63.1668V44.4ZM67.3688 45H63.4688V38.4H67.3688V39.3H64.3688V41.1H66.7688V42H64.3688V44.1H67.3688V45ZM71.5707 43.8H71.2707V44.1H70.9707V44.4H70.6707V44.7H70.3707V45H68.8707V44.7H68.5707V44.4H68.2707V44.1H67.9707V43.8H67.6707V39.6H67.9707V39.3H68.2707V39H68.5707V38.7H68.8707V38.4H70.3707V38.7H70.6707V39H70.9707V39.3H71.2707V39.6H71.5707V43.8ZM70.6707 43.5V39.9H70.3707V39.6H70.0707V39.3H69.1707V39.6H68.8707V39.9H68.5707V43.5H68.8707V43.8H69.1707V44.1H70.0707V43.8H70.3707V43.5H70.6707ZM75.7727 45H74.8727V41.7H74.5727V42.3H74.2727V42.9H73.9727V43.5H73.6727V42.9H73.3727V42.3H73.0727V41.7H72.7727V45H71.8727V38.4H72.1727V39H72.4727V39.6H72.7727V40.2H73.0727V40.8H73.3727V41.4H73.6727V42H73.9727V41.4H74.2727V40.8H74.5727V40.2H74.8727V39.6H75.1727V39H75.4727V38.4H75.7727V45ZM79.9746 46.2H76.0746V45.6H79.9746V46.2ZM84.1766 45H83.2766V42H81.1766V45H80.2766V38.4H81.1766V41.1H83.2766V38.4H84.1766V45ZM88.3785 45H87.4785V43.5H85.3785V45H84.4785V42.6V42.3V41.7H84.7785V41.1H85.0785V40.5H85.3785V39.9H85.6785V39.3H85.9785V38.7H86.2785V38.4H86.5785V38.7H86.8785V39.3H87.1785V39.9H87.4785V40.5H87.7785V41.1H88.0785V41.7H88.3785V42.3V42.6V45ZM87.4785 42.6V42.3V42H87.1785V41.4H86.8785V40.8H86.5785V40.2H86.2785V40.8H85.9785V41.4H85.6785V42H85.3785V42.3V42.6H87.4785ZM92.5805 44.1H92.2805V44.4H91.9805V44.7H91.6805V45H89.5805V44.7H89.2805V44.4H88.9805V44.1H88.6805V43.2H89.5805V43.8H89.8805V44.1H91.3805V43.8H91.6805V42.3H91.3805V42H89.5805V41.7H89.2805V41.4H88.9805V41.1H88.6805V39.3H88.9805V39H89.2805V38.7H89.5805V38.4H91.6805V38.7H91.9805V39H92.2805V39.3H92.5805V40.2H91.6805V39.6H91.3805V39.3H89.8805V39.6H89.5805V40.8H89.8805V41.1H91.6805V41.4H91.9805V41.7H92.2805V42H92.5805V44.1ZM96.7824 45H95.8824V42H93.7824V45H92.8824V38.4H93.7824V41.1H95.8824V38.4H96.7824V45ZM99.4844 42.6H98.2844V41.4H99.4844V42.6ZM99.4844 45H98.2844V43.8H99.4844V45ZM109.388 44.1H109.088V44.4H108.788V44.7H108.488V45H106.388V44.7H106.088V44.4H105.788V44.1H105.488V42H105.788V41.7H106.088V41.4H105.788V41.1H105.488V39.3H105.788V39H106.088V38.7H106.388V38.4H108.488V38.7H108.788V39H109.088V39.3H109.388V41.1H109.088V41.4H108.788V41.7H109.088V42H109.388V44.1ZM108.488 40.8V39.6H108.188V39.3H106.688V39.6H106.388V40.8H106.688V41.1H108.188V40.8H108.488ZM108.488 43.8V42.3H108.188V42H106.688V42.3H106.388V43.8H106.688V44.1H108.188V43.8H108.488ZM113.59 42H113.29V42.6H112.99V42.9H112.69V43.2H112.39V43.5H112.09V43.8H111.79V44.1H111.49V44.4H111.19V44.7H110.89V45H109.99V44.4H110.29V44.1H110.59V43.8H110.89V43.5H111.19V43.2H111.49V42.9H111.79V42.6H112.09V42.3H110.59V42H110.29V41.7H109.99V41.4H109.69V39.3H109.99V39H110.29V38.7H110.59V38.4H112.69V38.7H112.99V39H113.29V39.3H113.59V42ZM112.69 41.1V39.6H112.39V39.3H110.89V39.6H110.59V41.1H110.89V41.4H112.39V41.1H112.69ZM117.792 43.5H117.492V43.8H117.192V44.1H116.892V44.4H116.592V44.7H116.282V45H113.892V38.4H116.292V38.7H116.592V39H116.892V39.3H117.192V39.6H117.492V39.9H117.792V43.5ZM116.892 43.2V40.2H116.592V39.9H116.292V39.6H115.992V39.3H114.792V44.1H115.992V43.8H116.292V43.5H116.592V43.2H116.892ZM121.994 45H118.094V42.6H118.394V42.3H118.694V42H118.994V41.7H119.294V41.4H120.494V41.1H120.794V40.8H121.094V39.6H120.794V39.3H119.294V39.6H118.994V40.2H118.094V39.3H118.394V39H118.694V38.7H118.994V38.4H121.094V38.7H121.394V39H121.694V39.3H121.994V41.1H121.694V41.4H121.394V41.7H121.094V42H120.794V42.3H119.594V42.6H119.294V42.9H118.994V44.1H121.994V45ZM126.196 39.3H123.196V41.1H125.296V42H123.196V45H122.296V38.4H126.196V39.3ZM130.398 45H129.498V43.5H127.398V45H126.498V42.6V42.3V41.7H126.798V41.1H127.098V40.5H127.398V39.9H127.698V39.3H127.998V38.7H128.298V38.4H128.598V38.7H128.898V39.3H129.198V39.9H129.498V40.5H129.798V41.1H130.098V41.7H130.398V42.3V42.6V45ZM129.498 42.6V42.3V42H129.198V41.4H128.898V40.8H128.598V40.2H128.298V40.8H127.998V41.4H127.698V42H127.398V42.3V42.6H129.498ZM79.9746 56.1H79.6746V56.4H79.3746V56.7H79.0746V57H77.2746V56.7H76.9746V56.4H76.6746V56.1H76.3746V55.8H76.0746V51.6H76.3746V51.3H76.6746V51H76.9746V50.7H77.2746V50.4H79.0746V50.7H79.3746V51H79.6746V51.3H79.9746V52.2H79.0746V51.6H78.7746V51.3H77.5746V51.6H77.2746V51.9H76.9746V55.5H77.2746V55.8H77.5746V56.1H78.7746V55.8H79.0746V55.2H79.9746V56.1ZM84.1766 57H83.2766V54H81.1766V57H80.2766V50.4H81.1766V53.1H83.2766V50.4H84.1766V57ZM88.3785 57H87.4785V56.4H87.1785V55.8H86.8785V55.2H86.5785V54.6H86.2785V54H85.6785V54.3H85.3785V57H84.4785V50.4H85.3785V53.1H85.6785V52.8H85.9785V52.5H86.2785V52.2H86.5785V51.9H86.8785V51.6H87.1785V51.29H87.4785V51H87.7785V50.7H88.0785V50.4H88.3785V51.6H88.0785V51.9H87.7785V52.2H87.4785V52.49H87.1785V52.8H86.8785V53.1H86.5785V53.4H86.8785V53.7H87.1785V54.3H87.4785V54.9H87.7785V55.5H88.0785V56.1H88.3785V57ZM91.9805 54.9H89.2805V54H91.9805V54.9ZM96.7824 53.4H96.4824V54H96.1824V54.6H95.8824V55.2H95.5824V55.8H95.2824V56.4H94.9824V57H94.6824V56.4H94.3824V55.8H94.0824V55.2H93.7824V54.6H93.4824V54H93.1824V53.4H92.8824V50.4H93.7824V53.1H94.0824V53.7H94.3824V54.3H94.6824V54.9H94.9824V54.3H95.2824V53.7H95.5824V53.1H95.8824V50.4H96.7824V53.4ZM100.984 57H100.084V55.8H99.7844V55.2H99.4844V54.6H99.1844V54H97.9844V57H97.0844V50.4H100.084V50.7H100.384V51H100.684V51.3H100.984V53.1H100.684V53.4H100.384V53.7H100.084V54.3H100.384V54.9H100.684V55.5H100.984V57ZM100.084 52.8V51.6H99.7844V51.3H97.9844V53.1H99.7844V52.8H100.084ZM105.186 51.3H103.686V57H102.786V51.3H101.286V50.4H105.186V51.3ZM109.388 56.1H109.088V56.4H108.788V56.7H108.488V57H106.388V56.7H106.088V56.4H105.788V56.1H105.488V55.2H106.388V55.8H106.688V56.1H108.188V55.8H108.488V54.3H108.188V54H106.388V53.7H106.088V53.4H105.788V53.1H105.488V51.3H105.788V51H106.088V50.7H106.388V50.4H108.488V50.7H108.788V51H109.088V51.3H109.388V52.2H108.488V51.6H108.188V51.3H106.688V51.6H106.388V52.8H106.688V53.1H108.488V53.4H108.788V53.7H109.088V54H109.388V56.1ZM112.09 54.6H110.89V53.4H112.09V54.6ZM112.09 57H110.89V55.8H112.09V57ZM121.994 56.1H121.694V56.4H121.394V56.7H121.094V57H118.994V56.7H118.694V56.4H118.394V56.1H118.094V54H118.394V53.7H118.694V53.4H118.394V53.1H118.094V51.3H118.394V51H118.694V50.7H118.994V50.4H121.094V50.7H121.394V51H121.694V51.3H121.994V53.1H121.694V53.4H121.394V53.7H121.694V54H121.994V56.1ZM121.094 52.8V51.6H120.794V51.3H119.294V51.6H118.994V52.8H119.294V53.1H120.794V52.8H121.094ZM121.094 55.8V54.3H120.794V54H119.294V54.3H118.994V55.8H119.294V56.1H120.794V55.8H121.094ZM126.196 55.8H125.596V57H124.696V55.8H122.296V55.5V55.2H122.596V54.6H122.896V54H123.196V53.4H123.496V52.8H123.796V52.2H124.096V51.6H124.396V51H124.696V50.4H125.596V54.9H126.196V55.8ZM124.696 54.9V52.5H124.396V53.1H124.096V53.7H123.796V54.3H123.496V54.9H124.696ZM130.398 57H126.498V54.6H126.798V54.3H127.098V54H127.398V53.7H127.698V53.4H128.898V53.1H129.198V52.8H129.498V51.6H129.198V51.3H127.698V51.6H127.398V52.2H126.498V51.3H126.798V51H127.098V50.7H127.398V50.4H129.498V50.7H129.798V51H130.098V51.3H130.398V53.1H130.098V53.4H129.798V53.7H129.498V54H129.198V54.3H127.998V54.6H127.698V54.9H127.398V56.1H130.398V57ZM84.1766 77.4H83.8766V77.7H83.5766V78H83.2766V78.3H81.1766V81H80.2766V74.4H83.2766V74.7H83.5766V75H83.8766V75.3H84.1766V77.4ZM83.2766 77.1V75.6H82.9766V75.3H81.1766V77.4H82.9766V77.1H83.2766ZM88.3785 81H87.4785V80.7H87.1785V80.1H86.8785V79.5H86.5785V78.9H86.2785V78.3H85.9785V77.7H85.6785V77.1H85.3785V81H84.4785V74.4H85.0785V75H85.3785V75.6H85.6785V76.2H85.9785V76.8H86.2785V77.4H86.5785V78H86.8785V78.6H87.1785V79.2H87.4785V74.4H88.3785V81ZM91.0805 78.6H89.8805V77.4H91.0805V78.6ZM91.0805 81H89.8805V79.8H91.0805V81ZM100.984 81H97.0844V78.6H97.3844V78.3H97.6844V78H97.9844V77.7H98.2844V77.4H99.4844V77.1H99.7844V76.8H100.084V75.6H99.7844V75.3H98.2844V75.6H97.9844V76.2H97.0844V75.3H97.3844V75H97.6844V74.7H97.9844V74.4H100.084V74.7H100.384V75H100.684V75.3H100.984V77.1H100.684V77.4H100.384V77.7H100.084V78H99.7844V78.3H98.5844V78.6H98.2844V78.9H97.9844V80.1H100.984V81ZM105.186 79.8H104.586V81H103.686V79.8H101.286V79.5V79.2H101.586V78.6H101.886V78H102.186V77.4H102.486V76.8H102.786V76.2H103.086V75.6H103.386V75H103.686V74.4H104.586V78.9H105.186V79.8ZM103.686 78.9V76.5H103.386V77.1H103.086V77.7H102.786V78.3H102.486V78.9H103.686ZM109.388 80.1H109.088V80.4H108.788V80.7H108.488V81H106.388V80.7H106.088V80.4H105.788V80.1H105.488V78H105.788V77.7H106.088V77.4H105.788V77.1H105.488V75.3H105.788V75H106.088V74.7H106.388V74.4H108.488V74.7H108.788V75H109.088V75.3H109.388V77.1H109.088V77.4H108.788V77.7H109.088V78H109.388V80.1ZM108.488 76.8V75.6H108.188V75.3H106.688V75.6H106.388V76.8H106.688V77.1H108.188V76.8H108.488ZM108.488 79.8V78.3H108.188V78H106.688V78.3H106.388V79.8H106.688V80.1H108.188V79.8H108.488ZM113.59 80.1H113.29V80.4H112.99V80.7H112.69V81H110.59V80.7H110.29V80.4H109.99V80.1H109.69V79.2H110.59V79.8H110.89V80.1H112.39V79.8H112.69V78.6H112.39V78.3H112.09V78H111.79V77.7H111.49V77.4H111.19V77.1H110.89V76.8H111.19V76.5H111.49V76.2H111.79V75.9H112.09V75.6H112.39V75.3H109.69V74.4H113.59V75.6H113.29V75.9H112.99V76.2H112.69V76.5H112.39V76.8H112.09V77.1H112.39V77.4H112.69V77.7H112.99V78H113.29V78.3H113.59V80.1ZM117.192 78.9H114.492V78H117.192V78.9ZM121.994 81H121.094V79.5H118.994V81H118.094V78.6V78.3V77.7H118.394V77.1H118.694V76.5H118.994V75.9H119.294V75.3H119.594V74.7H119.894V74.4H120.194V74.7H120.494V75.3H120.794V75.9H121.094V76.5H121.394V77.1H121.694V77.7H121.994V78.3V78.6V81ZM121.094 78.6V78.3V78H120.794V77.4H120.494V76.8H120.194V76.2H119.894V76.8H119.594V77.4H119.294V78H118.994V78.3V78.6H121.094ZM126.196 81H125.296V80.1H124.996V79.2H124.696V78.6H124.396V78.3H124.096V78.6H123.796V79.2H123.496V80.1H123.196V81H122.296V80.1H122.596V79.2H122.896V78.6H123.196V78H123.496V77.4H123.196V76.8H122.896V76.2H122.596V75.3H122.296V74.4H123.196V75.3H123.496V76.2H123.796V76.8H124.096V77.1H124.396V76.8H124.696V76.2H124.996V75.3H125.296V74.4H126.196V75.3H125.896V76.2H125.596V76.8H125.296V77.4H124.996V78H125.296V78.6H125.596V79.2H125.896V80.1H126.196V81ZM130.398 78H130.098V78.6H129.798V78.9H129.498V79.2H129.198V79.5H128.898V79.8H128.598V80.1H128.298V80.4H127.998V80.7H127.698V81H126.798V80.4H127.098V80.1H127.398V79.8H127.698V79.5H127.998V79.2H128.298V78.9H128.598V78.6H128.898V78.3H127.398V78H127.098V77.7H126.798V77.4H126.498V75.3H126.798V75H127.098V74.7H127.398V74.4H129.498V74.7H129.798V75H130.098V75.3H130.398V78ZM129.498 77.1V75.6H129.198V75.3H127.698V75.6H127.398V77.1H127.698V77.4H129.198V77.1H129.498ZM8.5414 91.5H8.2414V91.8H7.9414V92.1H7.6414V92.4H7.3414V92.7H7.0314V93H4.6414V86.4H7.0414V86.7H7.3414V87H7.6414V87.3H7.9414V87.6H8.2414V87.9H8.5414V91.5ZM7.6414 91.2V88.2H7.3414V87.9H7.0414V87.6H6.7414V87.3H5.5414V92.1H6.7414V91.8H7.0414V91.5H7.3414V91.2H7.6414ZM12.7434 91.8H12.4434V92.1H12.1434V92.4H11.8434V92.7H11.5434V93H10.0434V92.7H9.74336V92.4H9.44336V92.1H9.14336V91.8H8.84336V87.6H9.14336V87.3H9.44336V87H9.74336V86.7H10.0434V86.4H11.5434V86.7H11.8434V87H12.1434V87.3H12.4434V87.6H12.7434V91.8ZM11.8434 91.5V87.9H11.5434V87.6H11.2434V87.3H10.3434V87.6H10.0434V87.9H9.74336V91.5H10.0434V91.8H10.3434V92.1H11.2434V91.8H11.5434V91.5H11.8434ZM21.1473 93H20.2473V92.7H19.9473V92.1H19.6473V91.5H19.3473V90.9H19.0473V90.3H18.7473V89.7H18.4473V89.1H18.1473V93H17.2473V86.4H17.8473V87H18.1473V87.6H18.4473V88.2H18.7473V88.8H19.0473V89.4H19.3473V90H19.6473V90.6H19.9473V91.2H20.2473V86.4H21.1473V93ZM25.3492 91.8H25.0492V92.1H24.7492V92.4H24.4492V92.7H24.1492V93H22.6492V92.7H22.3492V92.4H22.0492V92.1H21.7492V91.8H21.4492V87.6H21.7492V87.3H22.0492V87H22.3492V86.7H22.6492V86.4H24.1492V86.7H24.4492V87H24.7492V87.3H25.0492V87.6H25.3492V91.8ZM24.4492 91.5V87.9H24.1492V87.6H23.8492V87.3H22.9492V87.6H22.6492V87.9H22.3492V91.5H22.6492V91.8H22.9492V92.1H23.8492V91.8H24.1492V91.5H24.4492ZM29.5512 87.3H28.0512V93H27.1512V87.3H25.6512V86.4H29.5512V87.3ZM37.9551 93H37.0551V91.8H36.7551V91.2H36.4551V90.6H36.1551V90H34.9551V93H34.0551V86.4H37.0551V86.7H37.3551V87H37.6551V87.3H37.9551V89.1H37.6551V89.4H37.3551V89.7H37.0551V90.3H37.3551V90.9H37.6551V91.5H37.9551V93ZM37.0551 88.8V87.6H36.7551V87.3H34.9551V89.1H36.7551V88.8H37.0551ZM42.157 93H38.257V86.4H42.157V87.3H39.157V89.1H41.557V90H39.157V92.1H42.157V93ZM46.359 93H45.459V89.7H45.159V90.3H44.859V90.9H44.559V91.5H44.259V90.9H43.959V90.3H43.659V89.7H43.359V93H42.459V86.4H42.759V87H43.059V87.6H43.359V88.2H43.659V88.8H43.959V89.4H44.259V90H44.559V89.4H44.859V88.8H45.159V88.2H45.459V87.6H45.759V87H46.059V86.4H46.359V93ZM50.5609 91.8H50.2609V92.1H49.9609V92.4H49.6609V92.7H49.3609V93H47.8609V92.7H47.5609V92.4H47.2609V92.1H46.9609V91.8H46.6609V87.6H46.9609V87.3H47.2609V87H47.5609V86.7H47.8609V86.4H49.3609V86.7H49.6609V87H49.9609V87.3H50.2609V87.6H50.5609V91.8ZM49.6609 91.5V87.9H49.3609V87.6H49.0609V87.3H48.1609V87.6H47.8609V87.9H47.5609V91.5H47.8609V91.8H48.1609V92.1H49.0609V91.8H49.3609V91.5H49.6609ZM54.7629 89.4H54.4629V90H54.1629V90.6H53.8629V91.2H53.5629V91.8H53.2629V92.4H52.9629V93H52.6629V92.4H52.3629V91.8H52.0629V91.2H51.7629V90.6H51.4629V90H51.1629V89.4H50.8629V86.4H51.7629V89.1H52.0629V89.7H52.3629V90.3H52.6629V90.9H52.9629V90.3H53.2629V89.7H53.5629V89.1H53.8629V86.4H54.7629V89.4ZM58.9648 93H55.0648V86.4H58.9648V87.3H55.9648V89.1H58.3648V90H55.9648V92.1H58.9648V93ZM67.3687 91.5H67.0687V91.8H66.7687V92.1H66.4687V92.4H66.1687V92.7H65.8587V93H63.4687V86.4H65.8687V86.7H66.1687V87H66.4687V87.3H66.7687V87.6H67.0687V87.9H67.3687V91.5ZM66.4687 91.2V88.2H66.1687V87.9H65.8687V87.6H65.5687V87.3H64.3687V92.1H65.5687V91.8H65.8687V91.5H66.1687V91.2H66.4687ZM71.5707 92.1H71.2707V92.4H70.9707V92.7H70.6707V93H68.5707V92.7H68.2707V92.4H67.9707V92.1H67.6707V86.4H68.5707V91.8H68.8707V92.1H70.3707V91.8H70.6707V86.4H71.5707V92.1ZM75.7727 93H74.8727V91.8H74.5727V91.2H74.2727V90.6H73.9727V90H72.7727V93H71.8727V86.4H74.8727V86.7H75.1727V87H75.4727V87.3H75.7727V89.1H75.4727V89.4H75.1727V89.7H74.8727V90.3H75.1727V90.9H75.4727V91.5H75.7727V93ZM74.8727 88.8V87.6H74.5727V87.3H72.7727V89.1H74.5727V88.8H74.8727ZM79.9746 93H76.0746V92.1H77.5746V87.3H76.9746V86.4H79.0746V87.3H78.4746V92.1H79.9746V93ZM84.1766 93H83.2766V92.7H82.9766V92.1H82.6766V91.5H82.3766V90.9H82.0766V90.3H81.7766V89.7H81.4766V89.1H81.1766V93H80.2766V86.4H80.8766V87H81.1766V87.6H81.4766V88.2H81.7766V88.8H82.0766V89.4H82.3766V90H82.6766V90.6H82.9766V91.2H83.2766V86.4H84.1766V93ZM88.3785 92.4H88.0785V92.7H87.7785V93H85.6785V92.7H85.3785V92.4H85.0785V92.1H84.7785V91.8H84.4785V87.6H84.7785V87.3H85.0785V87H85.3785V86.7H85.6785V86.4H87.7785V86.7H88.0785V87H88.3785V87.6H87.4785V87.3H85.9785V87.6H85.6785V87.9H85.3785V91.5H85.6785V91.8H85.9785V92.1H87.4785V90.3H87.1785V90.6H86.2785V89.4H88.3785V92.4ZM96.7824 91.8H96.4824V92.1H96.1824V92.4H95.8824V92.7H95.5824V93H94.0824V92.7H93.7824V92.4H93.4824V92.1H93.1824V91.8H92.8824V87.6H93.1824V87.3H93.4824V87H93.7824V86.7H94.0824V86.4H95.5824V86.7H95.8824V87H96.1824V87.3H96.4824V87.6H96.7824V91.8ZM95.8824 91.5V87.9H95.5824V87.6H95.2824V87.3H94.3824V87.6H94.0824V87.9H93.7824V91.5H94.0824V91.8H94.3824V92.1H95.2824V91.8H95.5824V91.5H95.8824ZM100.984 89.4H100.684V89.7H100.384V90H100.084V90.3H97.9844V93H97.0844V86.4H100.084V86.7H100.384V87H100.684V87.3H100.984V89.4ZM100.084 89.1V87.6H99.7844V87.3H97.9844V89.4H99.7844V89.1H100.084ZM105.186 93H101.286V86.4H105.186V87.3H102.186V89.1H104.586V90H102.186V92.1H105.186V93ZM109.388 93H108.488V91.8H108.188V91.2H107.888V90.6H107.588V90H106.388V93H105.488V86.4H108.488V86.7H108.788V87H109.088V87.3H109.388V89.1H109.088V89.4H108.788V89.7H108.488V90.3H108.788V90.9H109.088V91.5H109.388V93ZM108.488 88.8V87.6H108.188V87.3H106.388V89.1H108.188V88.8H108.488ZM113.59 93H112.69V91.5H110.59V93H109.69V90.6V90.3V89.7H109.99V89.1H110.29V88.5H110.59V87.9H110.89V87.3H111.19V86.7H111.49V86.4H111.79V86.7H112.09V87.3H112.39V87.9H112.69V88.5H112.99V89.1H113.29V89.7H113.59V90.3V90.6V93ZM112.69 90.6V90.3V90H112.39V89.4H112.09V88.8H111.79V88.2H111.49V88.8H111.19V89.4H110.89V90H110.59V90.3V90.6H112.69ZM117.792 87.3H116.292V93H115.392V87.3H113.892V86.4H117.792V87.3ZM121.994 93H118.094V92.1H119.594V87.3H118.994V86.4H121.094V87.3H120.494V92.1H121.994V93ZM126.196 91.8H125.896V92.1H125.596V92.4H125.296V92.7H124.996V93H123.496V92.7H123.196V92.4H122.896V92.1H122.596V91.8H122.296V87.6H122.596V87.3H122.896V87H123.196V86.7H123.496V86.4H124.996V86.7H125.296V87H125.596V87.3H125.896V87.6H126.196V91.8ZM125.296 91.5V87.9H124.996V87.6H124.696V87.3H123.796V87.6H123.496V87.9H123.196V91.5H123.496V91.8H123.796V92.1H124.696V91.8H124.996V91.5H125.296ZM130.398 93H129.498V92.7H129.198V92.1H128.898V91.5H128.598V90.9H128.298V90.3H127.998V89.7H127.698V89.1H127.398V93H126.498V86.4H127.098V87H127.398V87.6H127.698V88.2H127.998V88.8H128.298V89.4H128.598V90H128.898V90.6H129.198V91.2H129.498V86.4H130.398V93Z" fill="#4B4B4B"/>
</svg>
