<svg width="30" height="72" viewBox="0 0 30 72" fill="none" xmlns="http://www.w3.org/2000/svg">
<g clip-path="url(#clip0_2809_4255)">
<rect width="364" height="72" transform="translate(-352)" fill="#D9D9D9"/>
<rect x="12" width="3" height="6" fill="#D9D9D9"/>
<rect x="12" y="66" width="3" height="6" fill="#D9D9D9"/>
<rect x="12" y="24" width="15" height="6" fill="#D9D9D9"/>
<rect x="12" y="42" width="15" height="6" fill="#D9D9D9"/>
<rect x="12" y="12" width="9" height="6" fill="#D9D9D9"/>
<rect x="12" y="54" width="9" height="6" fill="#D9D9D9"/>
<rect x="12" y="6" width="6" height="6" fill="#D9D9D9"/>
<rect x="12" y="60" width="6" height="6" fill="#D9D9D9"/>
<rect x="12" y="30" width="18" height="12" fill="#D9D9D9"/>
<rect x="12" y="18" width="12" height="6" fill="#D9D9D9"/>
<rect x="12" y="48" width="12" height="6" fill="#D9D9D9"/>
<path d="M3 72H0V66H3V72ZM6 66H3V60H6V66ZM9 60H6V54H9V60ZM12 54H9V48H12V54ZM15 48H12V42H15V48ZM18 42H15V30H18V42ZM15 30H12V24H15V30ZM12 24H9V18H12V24ZM9 18H6V12H9V18ZM6 12H3V6H6V12ZM3 6H0V0H3V6Z" fill="black"/>
</g>
<defs>
<clipPath id="clip0_2809_4255">
<rect width="30" height="72" fill="white"/>
</clipPath>
</defs>
</svg>
