<svg width="76" height="35" viewBox="0 0 76 35" fill="none" xmlns="http://www.w3.org/2000/svg">
<path d="M5.85078 30.75H5.40078V31.2H4.95078V31.65H4.50078V32.1H4.05078V32.55H3.58578V33H0.000778198V23.1H3.60078V23.55H4.05078V24H4.50078V24.45H4.95078V24.9H5.40078V25.35H5.85078V30.75ZM4.50078 30.3V25.8H4.05078V25.35H3.60078V24.9H3.15078V24.45H1.35078V31.65H3.15078V31.2H3.60078V30.75H4.05078V30.3H4.50078ZM12.1537 31.65H11.7037V32.1H11.2537V32.55H10.8037V33H7.65371V32.55H7.20371V32.1H6.75371V31.65H6.30371V30.3H7.65371V31.2H8.10371V31.65H10.3537V31.2H10.8037V28.95H10.3537V28.5H7.65371V28.05H7.20371V27.6H6.75371V27.15H6.30371V24.45H6.75371V24H7.20371V23.55H7.65371V23.1H10.8037V23.55H11.2537V24H11.7037V24.45H12.1537V25.8H10.8037V24.9H10.3537V24.45H8.10371V24.9H7.65371V26.7H8.10371V27.15H10.8037V27.6H11.2537V28.05H11.7037V28.5H12.1537V31.65ZM18.4566 32.1H18.0066V32.55H17.5566V33H14.4066V32.55H13.9566V32.1H13.5066V31.65H13.0566V31.2H12.6066V24.9H13.0566V24.45H13.5066V24H13.9566V23.55H14.4066V23.1H17.5566V23.55H18.0066V24H18.4566V24.9H17.1066V24.45H14.8566V24.9H14.4066V25.35H13.9566V30.75H14.4066V31.2H14.8566V31.65H17.1066V28.95H16.6566V29.4H15.3066V27.6H18.4566V32.1ZM24.7596 33H23.4096V32.55H22.9596V31.65H22.5096V30.75H22.0596V29.85H21.6096V28.95H21.1596V28.05H20.7096V27.15H20.2596V33H18.9096V23.1H19.8096V24H20.2596V24.9H20.7096V25.8H21.1596V26.7H21.6096V27.6H22.0596V28.5H22.5096V29.4H22.9596V30.3H23.4096V23.1H24.7596V33ZM31.0625 30.75H30.6125V31.2H30.1625V31.65H29.7125V32.1H29.2625V32.55H28.7975V33H25.2125V23.1H28.8125V23.55H29.2625V24H29.7125V24.45H30.1625V24.9H30.6125V25.35H31.0625V30.75ZM29.7125 30.3V25.8H29.2625V25.35H28.8125V24.9H28.3625V24.45H26.5625V31.65H28.3625V31.2H28.8125V30.75H29.2625V30.3H29.7125ZM43.6684 31.65H43.2184V32.1H42.7684V32.55H42.3184V33H37.8184V23.1H42.3184V23.55H42.7684V24H43.2184V24.45H43.6684V26.7H43.2184V27.15H42.7684V27.6H42.3184V28.05H42.7684V28.5H43.2184V28.95H43.6684V31.65ZM42.3184 26.25V24.9H41.8684V24.45H39.1684V27.15H41.4184V26.7H41.8684V26.25H42.3184ZM42.3184 31.2V29.4H41.8684V28.95H41.4184V28.5H39.1684V31.65H41.8684V31.2H42.3184ZM49.9713 24.45H49.5213V25.35H49.0713V26.25H48.6213V27.15H48.1713V28.05H47.7213V33H46.3713V28.05H45.9213V27.15H45.4713V26.25H45.0213V25.35H44.5713V24.45H44.1213V23.1H45.4713V24H45.9213V24.9H46.3713V25.8H46.8213V26.7H47.2713V25.8H47.7213V24.9H48.1713V24H48.6213V23.1H49.9713V24.45ZM62.5771 33H61.2271V30.75H58.0771V33H56.7271V29.4V28.95V28.05H57.1771V27.15H57.6271V26.25H58.0771V25.35H58.5271V24.45H58.9771V23.55H59.4271V23.1H59.8771V23.55H60.3271V24.45H60.7771V25.35H61.2271V26.25H61.6771V27.15H62.1271V28.05H62.5771V28.95V29.4V33ZM61.2271 29.4V28.95V28.5H60.7771V27.6H60.3271V26.7H59.8771V25.8H59.4271V26.7H58.9771V27.6H58.5271V28.5H58.0771V28.95V29.4H61.2271ZM68.8801 33H67.5301V31.2H67.0801V30.3H66.6301V29.4H66.1801V28.5H64.3801V33H63.0301V23.1H67.5301V23.55H67.9801V24H68.4301V24.45H68.8801V27.15H68.4301V27.6H67.9801V28.05H67.5301V28.95H67.9801V29.85H68.4301V30.75H68.8801V33ZM67.5301 26.7V24.9H67.0801V24.45H64.3801V27.15H67.0801V26.7H67.5301ZM75.183 33H73.833V32.1H73.383V31.2H72.933V30.3H72.483V29.4H72.033V28.5H71.133V28.95H70.683V33H69.333V23.1H70.683V27.15H71.133V26.7H71.583V26.25H72.033V25.8H72.483V25.35H72.933V24.9H73.383V24.435H73.833V24H74.283V23.55H74.733V23.1H75.183V24.9H74.733V25.35H74.283V25.8H73.833V26.235H73.383V26.7H72.933V27.15H72.483V27.6H72.933V28.05H73.383V28.95H73.833V29.85H74.283V30.75H74.733V31.65H75.183V33Z" fill="white"/>
<path d="M19.1335 0L0 19H36.3981L44.3185 11.2191V19H76V0H19.1335Z" fill="white"/>
<rect width="5" height="2" transform="translate(0 17)" fill="white"/>
<rect width="5" height="2" transform="translate(6 11)" fill="white"/>
<rect width="5" height="2" transform="translate(12 5)" fill="white"/>
<rect width="5" height="4" transform="translate(35 15)" fill="white"/>
<rect width="5" height="4" transform="translate(37 13)" fill="white"/>
<rect width="5" height="4" transform="translate(40 11)" fill="white"/>
<rect width="5" height="4" transform="translate(40 10)" fill="white"/>
<rect width="5" height="4" transform="translate(2 15)" fill="white"/>
<rect width="5" height="4" transform="translate(8 9)" fill="white"/>
<rect width="5" height="4" transform="translate(14 3)" fill="white"/>
<rect width="5" height="5" transform="translate(4 13)" fill="white"/>
<rect width="5" height="5" transform="translate(10 7)" fill="white"/>
<rect width="5" height="5" transform="translate(16 1)" fill="white"/>
<rect width="5" height="5" transform="translate(18)" fill="white"/>
</svg>
