<svg width="1058" height="233" viewBox="0 0 1058 233" fill="none" xmlns="http://www.w3.org/2000/svg">
<path fill-rule="evenodd" clip-rule="evenodd" d="M220.273 0.322393C228.81 0.322394 236.048 0.322393 243.203 0.321777L349.209 0.322343C355.077 0.322375 360.578 3.17584 363.958 7.97246L399.239 58.0428C406.433 68.2517 421.573 68.2411 428.752 58.022L463.899 7.99328C467.277 3.18453 472.785 0.322393 478.662 0.322393H605.39C615.355 0.322393 623.433 8.40041 623.433 18.3651V147.776C623.433 157.741 631.511 165.819 641.476 165.819H713.767C723.731 165.819 731.809 157.741 731.809 147.776V18.3651C731.809 8.40041 739.887 0.322393 749.852 0.322393H893.32C948.762 0.322393 990.04 9.7298 1017.15 28.5424C1044.26 47.3549 1057.82 75.8521 1057.82 114.03V119.01C1057.82 157.187 1044.21 185.682 1016.99 204.494C989.875 223.307 948.651 232.714 893.32 232.714H538.393C528.428 232.714 520.35 224.636 520.35 214.672V134.038C520.35 116.791 498.47 109.375 487.983 123.068L467.857 149.345C465.446 152.494 464.139 156.35 464.139 160.316V214.672C464.139 224.636 456.061 232.714 446.096 232.714H379.102C369.137 232.714 361.059 224.636 361.059 214.672V160.637C361.059 156.677 359.757 152.827 357.352 149.681L315.408 94.7995C311.642 89.8725 303.731 90.7965 299.619 95.438V95.438V95.438C293.285 102.587 293.993 124.151 301.105 130.527C302.097 131.415 303.039 132.335 303.932 133.285C312.674 142.36 317.048 154.478 317.048 169.639V173.124C317.048 192.932 309.135 207.817 293.311 217.776C277.597 227.736 254.357 232.714 223.593 232.714H18.8709C8.90614 232.714 0.828125 224.636 0.828125 214.672V18.3651C0.828125 8.40039 8.90614 0.322393 18.8709 0.322393H220.273ZM102.583 157.685C102.583 167.494 110.535 175.446 120.344 175.446H189.399C198.915 175.446 205.719 174.119 209.814 171.464C214.019 168.698 216.122 164.437 216.122 158.683V157.023C216.122 151.159 214.076 146.842 209.983 144.076C205.889 141.309 199.026 139.925 189.399 139.925H120.344C110.535 139.925 102.583 147.876 102.583 157.685V157.685ZM835.058 148.276C835.058 158.241 843.136 166.319 853.101 166.319H884.856C906.324 166.319 922.26 162.777 932.662 155.694C943.064 148.612 948.266 137.823 948.266 123.327V109.714C948.266 95.2173 943.064 84.4283 932.662 77.3459C922.26 70.2636 906.324 66.7211 884.856 66.7211H853.101C843.136 66.7211 835.058 74.7991 835.058 84.7639V148.276ZM102.583 73.7761C102.583 82.8066 109.904 90.1273 118.934 90.1273H186.246C195.098 90.1272 201.407 88.8525 205.169 86.3074C208.931 83.7621 210.811 79.8891 210.811 74.6888V73.029C210.811 67.7181 208.931 63.7901 205.169 61.2449C201.407 58.6998 195.043 57.425 186.08 57.4249H118.934C109.904 57.4249 102.583 64.7456 102.583 73.7761V73.7761Z" fill="#0015FF"/>
</svg>
