<svg width="16" height="16" viewBox="0 0 16 16" fill="none" xmlns="http://www.w3.org/2000/svg">
<path d="M11.1034 2.12061C14.1718 2.12061 15.706 3.09768 15.706 5.05184V5.21982C15.706 5.91973 15.5101 6.49086 15.1181 6.9332V6.9332C14.7976 7.2949 14.8335 8.38594 15.1934 8.70849C15.2436 8.75349 15.2913 8.80005 15.3365 8.84817C15.7788 9.30731 16 9.92043 16 10.6875V10.8639C16 11.8662 15.5997 12.6193 14.799 13.1232C14.0039 13.6272 12.828 13.8791 11.2714 13.8791H0.912929C0.408732 13.8791 0 13.4704 0 12.9662V3.03353C0 2.52934 0.408732 2.12061 0.912929 2.12061H11.1034ZM9.54121 10.9815C10.0227 10.9815 10.3671 10.9143 10.5743 10.7799C10.7871 10.6399 10.8934 10.4244 10.8934 10.1332V10.0492C10.8934 9.75245 10.7899 9.53408 10.5827 9.3941C10.3755 9.25411 10.0283 9.18412 9.54121 9.18412H6.04724C5.55091 9.18412 5.14856 9.58648 5.14856 10.0828V10.0828C5.14856 10.5791 5.55091 10.9815 6.04724 10.9815H9.54121ZM9.38163 6.66444C9.82957 6.66444 10.1487 6.60005 10.3391 6.47126C10.5295 6.34248 10.6247 6.1465 10.6247 5.88334V5.79935C10.6247 5.53058 10.5295 5.3318 10.3391 5.20302C10.1487 5.07424 9.82677 5.00985 9.37323 5.00985H5.97585C5.51895 5.00985 5.14856 5.38024 5.14856 5.83714V5.83714C5.14856 6.29404 5.51895 6.66444 5.97585 6.66444H9.38163Z" fill="#0000FF"/>
</svg>
