<svg width="59" height="46" viewBox="0 0 59 46" fill="none" xmlns="http://www.w3.org/2000/svg">
<path d="M4.41773 15.2559H1.53773V3.61588H4.21773V1.19588H10.4777V4.07588H4.41773V12.2559C5.95107 10.8959 7.47773 9.54921 8.99773 8.21588C10.5177 6.86921 12.0444 5.51588 13.5777 4.15588V8.01588C12.7511 8.73588 11.9311 9.45588 11.1177 10.1759C10.3044 10.8959 9.4844 11.6225 8.65773 12.3559H10.2177L19.5177 4.13588V7.97588C18.6777 8.70921 17.8511 9.44255 17.0377 10.1759C16.2244 10.8959 15.3977 11.6225 14.5577 12.3559H17.4777V15.2359H4.43773C4.4244 15.2492 4.41773 15.2559 4.41773 15.2559ZM32.2379 15.2559H29.3579V12.4359H23.0979V15.2359H20.2179V1.19588H23.0979V9.55588H29.3179C29.0246 9.27588 28.7379 8.99588 28.4579 8.71588C28.1779 8.43588 27.8912 8.15588 27.5979 7.87588C27.5979 7.74255 27.5979 7.46921 27.5979 7.05588C27.5979 6.64255 27.5979 6.20254 27.5979 5.73588C27.6112 5.26921 27.6179 4.82921 27.6179 4.41588C27.6179 4.00255 27.6179 3.72921 27.6179 3.59588H29.1979V1.17588H32.0379V4.05588H30.4979V6.65588C30.5512 6.70921 30.6579 6.82255 30.8179 6.99588C30.9912 7.16921 31.1712 7.34921 31.3579 7.53588C31.5579 7.72255 31.7379 7.90255 31.8979 8.07588C32.0712 8.24921 32.1846 8.36255 32.2379 8.41588V15.2559ZM42.4474 15.2559V10.3959L36.1474 4.13588V10.4359H40.4674V13.3159H36.1474V15.2359H33.2674V3.59588H35.9474V1.17588L45.3274 1.19588V4.07588L40.2474 4.05588L45.3274 9.09588V15.2559H42.4474ZM57.7198 15.2559H54.8398V10.3959C53.7864 9.35588 52.7331 8.31588 51.6798 7.27588C50.6398 6.23588 49.5931 5.18921 48.5398 4.13588V7.31588H45.6598V3.59588H48.3398V1.17588C48.5264 1.17588 48.8598 1.17588 49.3398 1.17588C49.8331 1.17588 50.3931 1.17588 51.0198 1.17588C51.6598 1.17588 52.3264 1.17588 53.0198 1.17588C53.7264 1.17588 54.3931 1.17588 55.0198 1.17588C55.6598 1.17588 56.2198 1.18254 56.6998 1.19588C57.1931 1.19588 57.5331 1.19588 57.7198 1.19588V4.07588C57.5598 4.07588 57.2331 4.07588 56.7398 4.07588C56.2598 4.07588 55.7398 4.07588 55.1798 4.07588C54.6198 4.06254 54.0931 4.05588 53.5998 4.05588C53.1198 4.05588 52.7998 4.05588 52.6398 4.05588C52.7464 4.16254 52.9264 4.34921 53.1798 4.61588C53.4464 4.86921 53.7464 5.16921 54.0798 5.51588C54.4264 5.84921 54.7931 6.20254 55.1798 6.57588C55.5664 6.94921 55.9264 7.30921 56.2598 7.65588C56.6064 7.98921 56.9064 8.28921 57.1598 8.55588C57.4264 8.80921 57.6131 8.98921 57.7198 9.09588V15.2559ZM4.41773 30.2559H1.53773V18.6159H4.21773V16.1959H10.4777V19.0759H4.41773V27.2559C5.95107 25.8959 7.47773 24.5492 8.99773 23.2159C10.5177 21.8692 12.0444 20.5159 13.5777 19.1559V23.0159C12.7511 23.7359 11.9311 24.4559 11.1177 25.1759C10.3044 25.8959 9.4844 26.6225 8.65773 27.3559H10.2177L19.5177 19.1359V22.9759C18.6777 23.7092 17.8511 24.4425 17.0377 25.1759C16.2244 25.8959 15.3977 26.6225 14.5577 27.3559H17.4777V30.2359H4.43773C4.4244 30.2492 4.41773 30.2559 4.41773 30.2559ZM32.0179 30.2359C31.8312 30.2359 31.4979 30.2359 31.0179 30.2359C30.5379 30.2359 29.9779 30.2359 29.3379 30.2359C28.7112 30.2359 28.0512 30.2359 27.3579 30.2359C26.6646 30.2359 25.9979 30.2359 25.3579 30.2359C24.7312 30.2359 24.1779 30.2359 23.6979 30.2359C23.2179 30.2359 22.8846 30.2359 22.6979 30.2359C22.6179 30.1559 22.4446 29.9892 22.1779 29.7359C21.9246 29.4692 21.6446 29.1892 21.3379 28.8959C21.0446 28.6025 20.7646 28.3292 20.4979 28.0759C20.2312 27.8092 20.0579 27.6359 19.9779 27.5559V18.5759H22.6579V16.1559H30.1179V19.0359C29.9712 19.0359 29.7112 19.0359 29.3379 19.0359C28.9646 19.0359 28.5312 19.0359 28.0379 19.0359C27.5446 19.0359 27.0246 19.0359 26.4779 19.0359C25.9446 19.0359 25.4312 19.0359 24.9379 19.0359C24.4446 19.0359 24.0112 19.0359 23.6379 19.0359C23.2646 19.0359 23.0046 19.0359 22.8579 19.0359V23.4759C23.0046 23.4759 23.2646 23.4759 23.6379 23.4759C24.0246 23.4759 24.4646 23.4759 24.9579 23.4759C25.4512 23.4759 25.9712 23.4825 26.5179 23.4959C27.0646 23.4959 27.5846 23.4959 28.0779 23.4959C28.5712 23.4959 29.0046 23.4959 29.3779 23.4959C29.7512 23.4959 30.0112 23.4959 30.1579 23.4959V26.3759C30.0112 26.3759 29.7512 26.3759 29.3779 26.3759C29.0046 26.3759 28.5712 26.3759 28.0779 26.3759C27.5979 26.3759 27.0846 26.3759 26.5379 26.3759C25.9912 26.3625 25.4712 26.3559 24.9779 26.3559C24.4979 26.3559 24.0646 26.3559 23.6779 26.3559C23.3046 26.3559 23.0446 26.3559 22.8979 26.3559L23.8979 27.3559H32.0179V30.2359ZM1.53773 45.2359V33.5959H4.21773V31.1759L13.5977 31.1959V34.0759L8.51773 34.0559L13.5977 39.0959V45.2559L1.53773 45.2359ZM10.7177 42.3559V40.3959L4.41773 34.1359V42.3559H10.7177ZM26.5101 31.1559V45.2359C26.3234 45.2359 25.9901 45.2359 25.5101 45.2359C25.0301 45.2359 24.4701 45.2359 23.8301 45.2359C23.2034 45.2359 22.5434 45.2359 21.8501 45.2359C21.1567 45.2359 20.4901 45.2359 19.8501 45.2359C19.2234 45.2359 18.6701 45.2359 18.1901 45.2359C17.7101 45.2359 17.3767 45.2359 17.1901 45.2359C17.1101 45.1559 16.9367 44.9892 16.6701 44.7359C16.4034 44.4692 16.1234 44.1892 15.8301 43.8959C15.5367 43.6025 15.2567 43.3292 14.9901 43.0759C14.7234 42.8092 14.5501 42.6359 14.4701 42.5559V33.5759H17.1501V31.1559H26.5101ZM18.6901 42.6559H23.6301V34.0359H17.3501V41.3159C17.5767 41.5425 17.7967 41.7692 18.0101 41.9959C18.2367 42.2092 18.4634 42.4292 18.6901 42.6559Z" fill="#4B4B4B"/>
</svg>
