<svg width="58" height="45" viewBox="0 0 58 45" fill="none" xmlns="http://www.w3.org/2000/svg">
<path d="M10.5595 14.5708V9.71082L4.25953 3.45082V9.75082H8.57953V12.6308H4.25953V14.5508H1.37953V2.91082H4.05953V0.490819L13.4395 0.510819V3.39082L8.35953 3.37082L13.4395 8.41082V14.5708H10.5595ZM14.4319 14.5308V2.89082H17.1119V0.47082H24.5719V3.35082H21.3919L26.5319 8.53082L24.6319 10.6908L17.3119 10.6708V11.6708H26.4719V14.5508L14.4319 14.5308ZM21.6519 7.81082L17.3119 3.45082V7.79082L21.6519 7.81082ZM13.2995 15.4708V29.5508C13.1129 29.5508 12.7795 29.5508 12.2995 29.5508C11.8195 29.5508 11.2595 29.5508 10.6195 29.5508C9.99287 29.5508 9.33287 29.5508 8.63953 29.5508C7.9462 29.5508 7.27953 29.5508 6.63953 29.5508C6.01286 29.5508 5.45953 29.5508 4.97953 29.5508C4.49953 29.5508 4.1662 29.5508 3.97953 29.5508C3.89953 29.4708 3.7262 29.3042 3.45953 29.0508C3.19286 28.7842 2.91286 28.5042 2.61953 28.2108C2.3262 27.9175 2.0462 27.6442 1.77953 27.3908C1.51286 27.1242 1.33953 26.9508 1.25953 26.8708V17.8908H3.93953V15.4708H13.2995ZM5.47953 26.9708H10.4195V18.3508H4.13953V25.6308C4.3662 25.8575 4.5862 26.0842 4.79953 26.3108C5.0262 26.5242 5.25286 26.7442 5.47953 26.9708ZM26.4886 15.4708V29.5508C26.3019 29.5508 25.9686 29.5508 25.4886 29.5508C25.0086 29.5508 24.4486 29.5508 23.8086 29.5508C23.1819 29.5508 22.5219 29.5508 21.8286 29.5508C21.1353 29.5508 20.4686 29.5508 19.8286 29.5508C19.2019 29.5508 18.6486 29.5508 18.1686 29.5508C17.6886 29.5508 17.3553 29.5508 17.1686 29.5508C17.0886 29.4708 16.9153 29.3042 16.6486 29.0508C16.3819 28.7842 16.1019 28.5042 15.8086 28.2108C15.5153 27.9175 15.2353 27.6442 14.9686 27.3908C14.7019 27.1242 14.5286 26.9508 14.4486 26.8708V17.8908H17.1286V15.4708H19.9686V18.3508H17.3286V25.6308C17.5553 25.8575 17.7753 26.0842 17.9886 26.3108C18.2153 26.5242 18.4419 26.7442 18.6686 26.9708H23.6086V15.4708H26.4886ZM12.7795 44.5708H9.89953V39.7108C8.8462 38.6708 7.79286 37.6308 6.73953 36.5908C5.69953 35.5508 4.65286 34.5042 3.59953 33.4508V36.6308H0.719531V32.9108H3.39953V30.4908C3.5862 30.4908 3.91953 30.4908 4.39953 30.4908C4.89286 30.4908 5.45286 30.4908 6.07953 30.4908C6.71953 30.4908 7.3862 30.4908 8.07953 30.4908C8.7862 30.4908 9.45287 30.4908 10.0795 30.4908C10.7195 30.4908 11.2795 30.4975 11.7595 30.5108C12.2529 30.5108 12.5929 30.5108 12.7795 30.5108V33.3908C12.6195 33.3908 12.2929 33.3908 11.7995 33.3908C11.3195 33.3908 10.7995 33.3908 10.2395 33.3908C9.67953 33.3775 9.15287 33.3708 8.65953 33.3708C8.17953 33.3708 7.85953 33.3708 7.69953 33.3708C7.8062 33.4775 7.9862 33.6642 8.23953 33.9308C8.5062 34.1842 8.8062 34.4842 9.13953 34.8308C9.4862 35.1642 9.85287 35.5175 10.2395 35.8908C10.6262 36.2642 10.9862 36.6242 11.3195 36.9708C11.6662 37.3042 11.9662 37.6042 12.2195 37.8708C12.4862 38.1242 12.6729 38.3042 12.7795 38.4108V44.5708Z" fill="#4B4B4B"/>
</svg>
