<svg width="59" height="46" viewBox="0 0 59 46" fill="none" xmlns="http://www.w3.org/2000/svg">
<path d="M4.4275 15.7822H1.5475V4.14225H4.2275V1.72224H10.4875V4.60225H4.4275V12.7822C5.96083 11.4222 7.4875 10.0756 9.0075 8.74225C10.5275 7.39558 12.0542 6.04225 13.5875 4.68225V8.54225C12.7608 9.26225 11.9408 9.98225 11.1275 10.7022C10.3142 11.4222 9.49417 12.1489 8.6675 12.8822H10.2275L19.5275 4.66225V8.50225C18.6875 9.23558 17.8608 9.96891 17.0475 10.7022C16.2342 11.4222 15.4075 12.1489 14.5675 12.8822H17.4875V15.7622H4.4475C4.43417 15.7756 4.4275 15.7822 4.4275 15.7822ZM32.2477 15.7822H29.3677V12.9622H23.1077V15.7622H20.2277V1.72224H23.1077V10.0822H29.3277C29.0343 9.80225 28.7477 9.52225 28.4677 9.24225C28.1877 8.96225 27.901 8.68225 27.6077 8.40225C27.6077 8.26891 27.6077 7.99558 27.6077 7.58225C27.6077 7.16891 27.6077 6.72891 27.6077 6.26225C27.621 5.79558 27.6277 5.35558 27.6277 4.94225C27.6277 4.52891 27.6277 4.25558 27.6277 4.12225H29.2077V1.70225H32.0477V4.58225H30.5077V7.18225C30.561 7.23558 30.6677 7.34891 30.8277 7.52225C31.001 7.69558 31.181 7.87558 31.3677 8.06225C31.5677 8.24891 31.7477 8.42891 31.9077 8.60225C32.081 8.77558 32.1943 8.88891 32.2477 8.94225V15.7822ZM42.4572 15.7822V10.9222L36.1572 4.66225V10.9622H40.4772V13.8422H36.1572V15.7622H33.2772V4.12225H35.9572V1.70225L45.3372 1.72224V4.60225L40.2572 4.58225L45.3372 9.62225V15.7822H42.4572ZM57.7295 15.7822H54.8495V10.9222C53.7962 9.88225 52.7429 8.84225 51.6895 7.80225C50.6495 6.76225 49.6029 5.71558 48.5495 4.66225V7.84225H45.6695V4.12225H48.3495V1.70225C48.5362 1.70225 48.8695 1.70225 49.3495 1.70225C49.8429 1.70225 50.4029 1.70225 51.0295 1.70225C51.6695 1.70225 52.3362 1.70225 53.0295 1.70225C53.7362 1.70225 54.4029 1.70225 55.0295 1.70225C55.6695 1.70225 56.2295 1.70891 56.7095 1.72224C57.2029 1.72224 57.5429 1.72224 57.7295 1.72224V4.60225C57.5695 4.60225 57.2429 4.60225 56.7495 4.60225C56.2695 4.60225 55.7495 4.60225 55.1895 4.60225C54.6295 4.58891 54.1029 4.58225 53.6095 4.58225C53.1295 4.58225 52.8095 4.58225 52.6495 4.58225C52.7562 4.68891 52.9362 4.87558 53.1895 5.14225C53.4562 5.39558 53.7562 5.69558 54.0895 6.04225C54.4362 6.37558 54.8029 6.72891 55.1895 7.10225C55.5762 7.47558 55.9362 7.83558 56.2695 8.18225C56.6162 8.51558 56.9162 8.81558 57.1695 9.08225C57.4362 9.33558 57.6229 9.51558 57.7295 9.62225V15.7822ZM4.4275 30.7822H1.5475V19.1422H4.2275V16.7222H10.4875V19.6022H4.4275V27.7822C5.96083 26.4222 7.4875 25.0756 9.0075 23.7422C10.5275 22.3956 12.0542 21.0422 13.5875 19.6822V23.5422C12.7608 24.2622 11.9408 24.9822 11.1275 25.7022C10.3142 26.4222 9.49417 27.1489 8.6675 27.8822H10.2275L19.5275 19.6622V23.5022C18.6875 24.2356 17.8608 24.9689 17.0475 25.7022C16.2342 26.4222 15.4075 27.1489 14.5675 27.8822H17.4875V30.7622H4.4475C4.43417 30.7756 4.4275 30.7822 4.4275 30.7822ZM32.0277 30.7622C31.841 30.7622 31.5077 30.7622 31.0277 30.7622C30.5477 30.7622 29.9877 30.7622 29.3477 30.7622C28.721 30.7622 28.061 30.7622 27.3677 30.7622C26.6743 30.7622 26.0077 30.7622 25.3677 30.7622C24.741 30.7622 24.1877 30.7622 23.7077 30.7622C23.2277 30.7622 22.8943 30.7622 22.7077 30.7622C22.6277 30.6822 22.4543 30.5156 22.1877 30.2622C21.9343 29.9956 21.6543 29.7156 21.3477 29.4222C21.0543 29.1289 20.7743 28.8556 20.5077 28.6022C20.241 28.3356 20.0677 28.1622 19.9877 28.0822V19.1022H22.6677V16.6822H30.1277V19.5622C29.981 19.5622 29.721 19.5622 29.3477 19.5622C28.9743 19.5622 28.541 19.5622 28.0477 19.5622C27.5543 19.5622 27.0343 19.5622 26.4877 19.5622C25.9543 19.5622 25.441 19.5622 24.9477 19.5622C24.4543 19.5622 24.021 19.5622 23.6477 19.5622C23.2743 19.5622 23.0143 19.5622 22.8677 19.5622V24.0022C23.0143 24.0022 23.2743 24.0022 23.6477 24.0022C24.0343 24.0022 24.4743 24.0022 24.9677 24.0022C25.461 24.0022 25.981 24.0089 26.5277 24.0222C27.0743 24.0222 27.5943 24.0222 28.0877 24.0222C28.581 24.0222 29.0143 24.0222 29.3877 24.0222C29.761 24.0222 30.021 24.0222 30.1677 24.0222V26.9022C30.021 26.9022 29.761 26.9022 29.3877 26.9022C29.0143 26.9022 28.581 26.9022 28.0877 26.9022C27.6077 26.9022 27.0943 26.9022 26.5477 26.9022C26.001 26.8889 25.481 26.8822 24.9877 26.8822C24.5077 26.8822 24.0743 26.8822 23.6877 26.8822C23.3143 26.8822 23.0543 26.8822 22.9077 26.8822L23.9077 27.8822H32.0277V30.7622ZM1.5475 45.7622V34.1222H4.2275V31.7022L13.6075 31.7222V34.6022L8.5275 34.5822L13.6075 39.6222V45.7822L1.5475 45.7622ZM10.7275 42.8822V40.9222L4.4275 34.6622V42.8822H10.7275ZM26.5198 31.6822V45.7622C26.3332 45.7622 25.9998 45.7622 25.5198 45.7622C25.0398 45.7622 24.4798 45.7622 23.8398 45.7622C23.2132 45.7622 22.5532 45.7622 21.8598 45.7622C21.1665 45.7622 20.4998 45.7622 19.8598 45.7622C19.2332 45.7622 18.6798 45.7622 18.1998 45.7622C17.7198 45.7622 17.3865 45.7622 17.1998 45.7622C17.1198 45.6822 16.9465 45.5156 16.6798 45.2622C16.4132 44.9956 16.1332 44.7156 15.8398 44.4222C15.5465 44.1289 15.2665 43.8556 14.9998 43.6022C14.7332 43.3356 14.5598 43.1622 14.4798 43.0822V34.1022H17.1598V31.6822H26.5198ZM18.6998 43.1822H23.6398V34.5622H17.3598V41.8422C17.5865 42.0689 17.8065 42.2956 18.0198 42.5222C18.2465 42.7356 18.4732 42.9556 18.6998 43.1822Z" fill="#4C4C4C"/>
</svg>
