<svg width="28" height="45" viewBox="0 0 28 45" fill="none" xmlns="http://www.w3.org/2000/svg">
<path d="M10.3213 14.98V10.12L4.02125 3.86V10.16H8.34125V13.04H4.02125V14.96H1.14125V3.32H3.82125V0.899999L13.2013 0.919999V3.8L8.12125 3.78L13.2013 8.82V14.98H10.3213ZM14.1936 14.94V3.3H16.8736V0.879999H24.3336V3.76H21.1536L26.2936 8.94L24.3936 11.1L17.0736 11.08V12.08H26.2336V14.96L14.1936 14.94ZM21.4136 8.22L17.0736 3.86V8.2L21.4136 8.22ZM13.0613 15.88V29.96C12.8746 29.96 12.5413 29.96 12.0613 29.96C11.5813 29.96 11.0213 29.96 10.3812 29.96C9.75458 29.96 9.09458 29.96 8.40125 29.96C7.70792 29.96 7.04125 29.96 6.40125 29.96C5.77458 29.96 5.22125 29.96 4.74125 29.96C4.26125 29.96 3.92792 29.96 3.74125 29.96C3.66125 29.88 3.48792 29.7133 3.22125 29.46C2.95458 29.1933 2.67458 28.9133 2.38125 28.62C2.08792 28.3267 1.80792 28.0533 1.54125 27.8C1.27458 27.5333 1.10125 27.36 1.02125 27.28V18.3H3.70125V15.88H13.0613ZM5.24125 27.38H10.1813V18.76H3.90125V26.04C4.12792 26.2667 4.34792 26.4933 4.56125 26.72C4.78792 26.9333 5.01458 27.1533 5.24125 27.38ZM26.2503 15.88V29.96C26.0636 29.96 25.7303 29.96 25.2503 29.96C24.7703 29.96 24.2103 29.96 23.5703 29.96C22.9436 29.96 22.2836 29.96 21.5903 29.96C20.897 29.96 20.2303 29.96 19.5903 29.96C18.9636 29.96 18.4103 29.96 17.9303 29.96C17.4503 29.96 17.117 29.96 16.9303 29.96C16.8503 29.88 16.677 29.7133 16.4103 29.46C16.1436 29.1933 15.8636 28.9133 15.5703 28.62C15.277 28.3267 14.997 28.0533 14.7303 27.8C14.4636 27.5333 14.2903 27.36 14.2103 27.28V18.3H16.8903V15.88H19.7303V18.76H17.0903V26.04C17.317 26.2667 17.537 26.4933 17.7503 26.72C17.977 26.9333 18.2036 27.1533 18.4303 27.38H23.3703V15.88H26.2503ZM12.5413 44.98H9.66125V40.12C8.60792 39.08 7.55458 38.04 6.50125 37C5.46125 35.96 4.41458 34.9133 3.36125 33.86V37.04H0.48125V33.32H3.16125V30.9C3.34792 30.9 3.68125 30.9 4.16125 30.9C4.65458 30.9 5.21458 30.9 5.84125 30.9C6.48125 30.9 7.14792 30.9 7.84125 30.9C8.54792 30.9 9.21458 30.9 9.84125 30.9C10.4813 30.9 11.0413 30.9067 11.5213 30.92C12.0146 30.92 12.3546 30.92 12.5413 30.92V33.8C12.3813 33.8 12.0546 33.8 11.5613 33.8C11.0813 33.8 10.5613 33.8 10.0013 33.8C9.44125 33.7867 8.91458 33.78 8.42125 33.78C7.94125 33.78 7.62125 33.78 7.46125 33.78C7.56792 33.8867 7.74792 34.0733 8.00125 34.34C8.26792 34.5933 8.56792 34.8933 8.90125 35.24C9.24792 35.5733 9.61458 35.9267 10.0013 36.3C10.3879 36.6733 10.7479 37.0333 11.0813 37.38C11.4279 37.7133 11.7279 38.0133 11.9813 38.28C12.2479 38.5333 12.4346 38.7133 12.5413 38.82V44.98Z" fill="#4C4C4C"/>
</svg>
