<svg width="58" height="45" viewBox="0 0 58 45" fill="none" xmlns="http://www.w3.org/2000/svg">
<path d="M13 14.98H10.12V12.16H3.86V14.96H0.98V0.919999H3.86V9.28H10.08C9.78667 9 9.5 8.72 9.22 8.44C8.94 8.16 8.65333 7.88 8.36 7.6C8.36 7.46667 8.36 7.19333 8.36 6.78C8.36 6.36667 8.36 5.92667 8.36 5.46C8.37333 4.99333 8.38 4.55333 8.38 4.14C8.38 3.72667 8.38 3.45333 8.38 3.32H9.96V0.899999H12.8V3.78H11.26V6.38C11.3133 6.43333 11.42 6.54667 11.58 6.72C11.7533 6.89333 11.9333 7.07333 12.12 7.26C12.32 7.44667 12.5 7.62667 12.66 7.8C12.8333 7.97333 12.9467 8.08667 13 8.14V14.98ZM25.9495 0.879999V14.96C25.7629 14.96 25.4295 14.96 24.9495 14.96C24.4695 14.96 23.9095 14.96 23.2695 14.96C22.6429 14.96 21.9829 14.96 21.2895 14.96C20.5962 14.96 19.9295 14.96 19.2895 14.96C18.6629 14.96 18.1095 14.96 17.6295 14.96C17.1495 14.96 16.8162 14.96 16.6295 14.96C16.5495 14.88 16.3762 14.7133 16.1095 14.46C15.8429 14.1933 15.5629 13.9133 15.2695 13.62C14.9762 13.3267 14.6962 13.0533 14.4295 12.8C14.1629 12.5333 13.9895 12.36 13.9095 12.28V3.3H16.5895V0.879999H25.9495ZM18.1295 12.38H23.0695V3.76H16.7895V11.04C17.0162 11.2667 17.2362 11.4933 17.4495 11.72C17.6762 11.9333 17.9029 12.1533 18.1295 12.38ZM30.0986 14.98H27.2186V3.34H29.8986V0.919999H36.1586V3.8H30.0986V11.98C31.6319 10.62 33.1586 9.27333 34.6786 7.94C36.1986 6.59333 37.7253 5.24 39.2586 3.88V7.74C38.4319 8.46 37.6119 9.18 36.7986 9.9C35.9853 10.62 35.1653 11.3467 34.3386 12.08H35.8986L45.1986 3.86V7.7C44.3586 8.43333 43.5319 9.16667 42.7186 9.9C41.9053 10.62 41.0786 11.3467 40.2386 12.08H43.1586V14.96H30.1186C30.1053 14.9733 30.0986 14.98 30.0986 14.98ZM3.74 29.98H0.86V18.34H3.54V15.92H9.8V18.8H3.74V26.98C5.27333 25.62 6.8 24.2733 8.32 22.94C9.84 21.5933 11.3667 20.24 12.9 18.88V22.74C12.0733 23.46 11.2533 24.18 10.44 24.9C9.62667 25.62 8.80667 26.3467 7.98 27.08H9.54L18.84 18.86V22.7C18 23.4333 17.1733 24.1667 16.36 24.9C15.5467 25.62 14.72 26.3467 13.88 27.08H16.8V29.96H3.76C3.74667 29.9733 3.74 29.98 3.74 29.98ZM31.3402 29.96C31.1535 29.96 30.8202 29.96 30.3402 29.96C29.8602 29.96 29.3002 29.96 28.6602 29.96C28.0335 29.96 27.3735 29.96 26.6802 29.96C25.9868 29.96 25.3202 29.96 24.6802 29.96C24.0535 29.96 23.5002 29.96 23.0202 29.96C22.5402 29.96 22.2068 29.96 22.0202 29.96C21.9402 29.88 21.7668 29.7133 21.5002 29.46C21.2468 29.1933 20.9668 28.9133 20.6602 28.62C20.3668 28.3267 20.0868 28.0533 19.8202 27.8C19.5535 27.5333 19.3802 27.36 19.3002 27.28V18.3H21.9802V15.88H29.4402V18.76C29.2935 18.76 29.0335 18.76 28.6602 18.76C28.2868 18.76 27.8535 18.76 27.3602 18.76C26.8668 18.76 26.3468 18.76 25.8002 18.76C25.2668 18.76 24.7535 18.76 24.2602 18.76C23.7668 18.76 23.3335 18.76 22.9602 18.76C22.5868 18.76 22.3268 18.76 22.1802 18.76V23.2C22.3268 23.2 22.5868 23.2 22.9602 23.2C23.3468 23.2 23.7868 23.2 24.2802 23.2C24.7735 23.2 25.2935 23.2067 25.8402 23.22C26.3868 23.22 26.9068 23.22 27.4002 23.22C27.8935 23.22 28.3268 23.22 28.7002 23.22C29.0735 23.22 29.3335 23.22 29.4802 23.22V26.1C29.3335 26.1 29.0735 26.1 28.7002 26.1C28.3268 26.1 27.8935 26.1 27.4002 26.1C26.9202 26.1 26.4068 26.1 25.8602 26.1C25.3135 26.0867 24.7935 26.08 24.3002 26.08C23.8202 26.08 23.3868 26.08 23.0002 26.08C22.6268 26.08 22.3668 26.08 22.2202 26.08L23.2202 27.08H31.3402V29.96ZM0.86 44.94V33.3H3.54V30.88H11V33.76H7.82L12.96 38.94L11.06 41.1L3.74 41.08V42.08H12.9V44.96L0.86 44.94ZM8.08 38.22L3.74 33.86V38.2L8.08 38.22ZM25.4808 30.88V44.96C25.2941 44.96 24.9608 44.96 24.4808 44.96C24.0008 44.96 23.4408 44.96 22.8008 44.96C22.1741 44.96 21.5141 44.96 20.8208 44.96C20.1274 44.96 19.4608 44.96 18.8208 44.96C18.1941 44.96 17.6408 44.96 17.1608 44.96C16.6808 44.96 16.3474 44.96 16.1608 44.96C16.0808 44.88 15.9074 44.7133 15.6408 44.46C15.3741 44.1933 15.0941 43.9133 14.8008 43.62C14.5074 43.3267 14.2274 43.0533 13.9608 42.8C13.6941 42.5333 13.5208 42.36 13.4408 42.28V33.3H16.1208V30.88H18.9608V33.76H16.3208V41.04C16.5474 41.2667 16.7674 41.4933 16.9808 41.72C17.2074 41.9333 17.4341 42.1533 17.6608 42.38H22.6008V30.88H25.4808ZM31.0898 44.96H28.2098V41.38C27.9165 41.0867 27.6232 40.8 27.3298 40.52C27.0365 40.2267 26.7432 39.9333 26.4498 39.64C26.4498 39.5067 26.4498 39.28 26.4498 38.96C26.4498 38.64 26.4498 38.2667 26.4498 37.84C26.4498 37.4133 26.4498 36.96 26.4498 36.48C26.4498 36 26.4498 35.5467 26.4498 35.12C26.4498 34.6933 26.4498 34.32 26.4498 34C26.4632 33.6667 26.4698 33.4333 26.4698 33.3H28.0498V30.88C28.1298 30.88 28.3032 30.88 28.5698 30.88C28.8498 30.88 29.1432 30.88 29.4498 30.88C29.7698 30.88 30.0632 30.8867 30.3298 30.9C30.6098 30.9 30.7965 30.9 30.8898 30.9V33.78C30.8365 33.78 30.7365 33.78 30.5898 33.78C30.4432 33.78 30.2832 33.78 30.1098 33.78C29.9365 33.7667 29.7765 33.76 29.6298 33.76C29.4832 33.76 29.3898 33.76 29.3498 33.76V38.42L31.0898 40.16V44.96ZM43.7902 44.98H34.6102C34.5302 44.9 34.3568 44.7333 34.0902 44.48C33.8235 44.2267 33.5368 43.96 33.2302 43.68C32.9235 43.4 32.6368 43.1333 32.3702 42.88C32.1035 42.6267 31.9302 42.46 31.8502 42.38V33.32H34.5302V30.9C34.6102 30.9 34.7835 30.9 35.0502 30.9C35.3302 30.9 35.6235 30.9 35.9302 30.9C36.2368 30.9 36.5235 30.9067 36.7902 30.92C37.0702 30.92 37.2502 30.92 37.3302 30.92V33.8C37.2502 33.8 37.0835 33.8 36.8302 33.8C36.5768 33.8 36.3102 33.8 36.0302 33.8C35.7502 33.7867 35.4835 33.78 35.2302 33.78C34.9768 33.78 34.8102 33.78 34.7302 33.78V41.12C34.9035 41.28 35.0768 41.44 35.2502 41.6C35.4235 41.76 35.5968 41.9267 35.7702 42.1H43.8102C43.8102 42.58 43.8102 43.06 43.8102 43.54C43.8102 44.02 43.8035 44.5 43.7902 44.98ZM44.1045 44.96V33.32H46.7845V30.9L56.1645 30.92V33.8L51.0845 33.78L56.1645 38.82V44.98L44.1045 44.96ZM53.2845 42.08V40.12L46.9845 33.86V42.08H53.2845Z" fill="#4B4B4B"/>
</svg>
