<svg width="59" height="46" viewBox="0 0 59 46" fill="none" xmlns="http://www.w3.org/2000/svg">
<path d="M4.25953 15.9404H1.37953V4.30045H4.05953V1.88045H10.3195V4.76045H4.25953V12.9404C5.79286 11.5804 7.31953 10.2338 8.83953 8.90045C10.3595 7.55378 11.8862 6.20045 13.4195 4.84045V8.70045C12.5929 9.42045 11.7729 10.1404 10.9595 10.8604C10.1462 11.5804 9.3262 12.3071 8.49953 13.0404H10.0595L19.3595 4.82045V8.66045C18.5195 9.39378 17.6929 10.1271 16.8795 10.8604C16.0662 11.5804 15.2395 12.3071 14.3995 13.0404H17.3195V15.9204H4.27953C4.2662 15.9338 4.25953 15.9404 4.25953 15.9404ZM32.0797 15.9404H29.1997V13.1204H22.9397V15.9204H20.0597V1.88045H22.9397V10.2404H29.1597C28.8664 9.96045 28.5797 9.68045 28.2997 9.40045C28.0197 9.12045 27.733 8.84045 27.4397 8.56045C27.4397 8.42712 27.4397 8.15378 27.4397 7.74045C27.4397 7.32712 27.4397 6.88712 27.4397 6.42045C27.453 5.95378 27.4597 5.51378 27.4597 5.10045C27.4597 4.68712 27.4597 4.41378 27.4597 4.28045H29.0397V1.86045H31.8797V4.74045H30.3397V7.34045C30.393 7.39378 30.4997 7.50712 30.6597 7.68045C30.833 7.85378 31.013 8.03378 31.1997 8.22045C31.3997 8.40712 31.5797 8.58712 31.7397 8.76045C31.913 8.93378 32.0264 9.04712 32.0797 9.10045V15.9404ZM42.2892 15.9404V11.0804L35.9892 4.82045V11.1204H40.3092V14.0004H35.9892V15.9204H33.1092V4.28045H35.7892V1.86045L45.1692 1.88045V4.76045L40.0892 4.74045L45.1692 9.78045V15.9404H42.2892ZM57.5616 15.9404H54.6816V11.0804C53.6282 10.0404 52.5749 9.00045 51.5216 7.96045C50.4816 6.92045 49.4349 5.87378 48.3816 4.82045V8.00045H45.5016V4.28045H48.1816V1.86045C48.3682 1.86045 48.7016 1.86045 49.1816 1.86045C49.6749 1.86045 50.2349 1.86045 50.8616 1.86045C51.5016 1.86045 52.1682 1.86045 52.8616 1.86045C53.5682 1.86045 54.2349 1.86045 54.8616 1.86045C55.5016 1.86045 56.0616 1.86711 56.5416 1.88045C57.0349 1.88045 57.3749 1.88045 57.5616 1.88045V4.76045C57.4016 4.76045 57.0749 4.76045 56.5816 4.76045C56.1016 4.76045 55.5816 4.76045 55.0216 4.76045C54.4616 4.74712 53.9349 4.74045 53.4416 4.74045C52.9616 4.74045 52.6416 4.74045 52.4816 4.74045C52.5882 4.84712 52.7682 5.03378 53.0216 5.30045C53.2882 5.55378 53.5882 5.85378 53.9216 6.20045C54.2682 6.53378 54.6349 6.88712 55.0216 7.26045C55.4082 7.63378 55.7682 7.99378 56.1016 8.34045C56.4482 8.67378 56.7482 8.97378 57.0016 9.24045C57.2682 9.49378 57.4549 9.67378 57.5616 9.78045V15.9404ZM4.25953 30.9404H1.37953V19.3004H4.05953V16.8804H10.3195V19.7604H4.25953V27.9404C5.79286 26.5804 7.31953 25.2338 8.83953 23.9004C10.3595 22.5538 11.8862 21.2004 13.4195 19.8404V23.7004C12.5929 24.4204 11.7729 25.1404 10.9595 25.8604C10.1462 26.5804 9.3262 27.3071 8.49953 28.0404H10.0595L19.3595 19.8204V23.6604C18.5195 24.3938 17.6929 25.1271 16.8795 25.8604C16.0662 26.5804 15.2395 27.3071 14.3995 28.0404H17.3195V30.9204H4.27953C4.2662 30.9338 4.25953 30.9404 4.25953 30.9404ZM31.8597 30.9204C31.673 30.9204 31.3397 30.9204 30.8597 30.9204C30.3797 30.9204 29.8197 30.9204 29.1797 30.9204C28.553 30.9204 27.893 30.9204 27.1997 30.9204C26.5064 30.9204 25.8397 30.9204 25.1997 30.9204C24.573 30.9204 24.0197 30.9204 23.5397 30.9204C23.0597 30.9204 22.7264 30.9204 22.5397 30.9204C22.4597 30.8404 22.2864 30.6738 22.0197 30.4204C21.7664 30.1538 21.4864 29.8738 21.1797 29.5804C20.8864 29.2871 20.6064 29.0138 20.3397 28.7604C20.073 28.4938 19.8997 28.3204 19.8197 28.2404V19.2604H22.4997V16.8404H29.9597V19.7204C29.813 19.7204 29.553 19.7204 29.1797 19.7204C28.8064 19.7204 28.373 19.7204 27.8797 19.7204C27.3864 19.7204 26.8664 19.7204 26.3197 19.7204C25.7864 19.7204 25.273 19.7204 24.7797 19.7204C24.2864 19.7204 23.853 19.7204 23.4797 19.7204C23.1064 19.7204 22.8464 19.7204 22.6997 19.7204V24.1604C22.8464 24.1604 23.1064 24.1604 23.4797 24.1604C23.8664 24.1604 24.3064 24.1604 24.7997 24.1604C25.293 24.1604 25.813 24.1671 26.3597 24.1804C26.9064 24.1804 27.4264 24.1804 27.9197 24.1804C28.413 24.1804 28.8464 24.1804 29.2197 24.1804C29.593 24.1804 29.853 24.1804 29.9997 24.1804V27.0604C29.853 27.0604 29.593 27.0604 29.2197 27.0604C28.8464 27.0604 28.413 27.0604 27.9197 27.0604C27.4397 27.0604 26.9264 27.0604 26.3797 27.0604C25.833 27.0471 25.313 27.0404 24.8197 27.0404C24.3397 27.0404 23.9064 27.0404 23.5197 27.0404C23.1464 27.0404 22.8864 27.0404 22.7397 27.0404L23.7397 28.0404H31.8597V30.9204ZM35.1884 30.9204H32.3084V19.2804H34.9884V16.8604C35.0684 16.8604 35.2351 16.8604 35.4884 16.8604C35.7418 16.8604 36.0151 16.8604 36.3084 16.8604C36.6018 16.8604 36.8751 16.8671 37.1284 16.8804C37.3818 16.8804 37.5484 16.8804 37.6284 16.8804V19.7604C37.5484 19.7604 37.3884 19.7604 37.1484 19.7604C36.9218 19.7604 36.6751 19.7604 36.4084 19.7604C36.1418 19.7471 35.8884 19.7404 35.6484 19.7404C35.4218 19.7404 35.2684 19.7404 35.1884 19.7404V27.9204C36.7218 26.5738 38.2484 25.2338 39.7684 23.9004C41.2884 22.5538 42.8151 21.2004 44.3484 19.8404V23.6804C43.5218 24.4004 42.7018 25.1271 41.8884 25.8604C41.0751 26.5804 40.2551 27.3004 39.4284 28.0204H41.6884V30.9004H35.2084C35.1951 30.9138 35.1884 30.9204 35.1884 30.9204ZM56.812 30.9204C56.6254 30.9204 56.292 30.9204 55.812 30.9204C55.332 30.9204 54.772 30.9204 54.132 30.9204C53.5054 30.9204 52.8454 30.9204 52.152 30.9204C51.4587 30.9204 50.792 30.9204 50.152 30.9204C49.5254 30.9204 48.972 30.9204 48.492 30.9204C48.012 30.9204 47.6787 30.9204 47.492 30.9204C47.412 30.8404 47.2387 30.6738 46.972 30.4204C46.7187 30.1538 46.4387 29.8738 46.132 29.5804C45.8387 29.2871 45.5587 29.0138 45.292 28.7604C45.0254 28.4938 44.852 28.3204 44.772 28.2404V19.2604H47.452V16.8404H54.912V19.7204C54.7654 19.7204 54.5054 19.7204 54.132 19.7204C53.7587 19.7204 53.3254 19.7204 52.832 19.7204C52.3387 19.7204 51.8187 19.7204 51.272 19.7204C50.7387 19.7204 50.2254 19.7204 49.732 19.7204C49.2387 19.7204 48.8054 19.7204 48.432 19.7204C48.0587 19.7204 47.7987 19.7204 47.652 19.7204V24.1604C47.7987 24.1604 48.0587 24.1604 48.432 24.1604C48.8187 24.1604 49.2587 24.1604 49.752 24.1604C50.2454 24.1604 50.7654 24.1671 51.312 24.1804C51.8587 24.1804 52.3787 24.1804 52.872 24.1804C53.3654 24.1804 53.7987 24.1804 54.172 24.1804C54.5454 24.1804 54.8054 24.1804 54.952 24.1804V27.0604C54.8054 27.0604 54.5454 27.0604 54.172 27.0604C53.7987 27.0604 53.3654 27.0604 52.872 27.0604C52.392 27.0604 51.8787 27.0604 51.332 27.0604C50.7854 27.0471 50.2654 27.0404 49.772 27.0404C49.292 27.0404 48.8587 27.0404 48.472 27.0404C48.0987 27.0404 47.8387 27.0404 47.692 27.0404L48.692 28.0404H56.812V30.9204ZM1.37953 45.9204V34.2804H4.05953V31.8604L13.4395 31.8804V34.7604L8.35953 34.7404L13.4395 39.7804V45.9404L1.37953 45.9204ZM10.5595 43.0404V41.0804L4.25953 34.8204V43.0404H10.5595ZM26.3519 31.8404V45.9204C26.1652 45.9204 25.8319 45.9204 25.3519 45.9204C24.8719 45.9204 24.3119 45.9204 23.6719 45.9204C23.0452 45.9204 22.3852 45.9204 21.6919 45.9204C20.9985 45.9204 20.3319 45.9204 19.6919 45.9204C19.0652 45.9204 18.5119 45.9204 18.0319 45.9204C17.5519 45.9204 17.2185 45.9204 17.0319 45.9204C16.9519 45.8404 16.7785 45.6738 16.5119 45.4204C16.2452 45.1538 15.9652 44.8738 15.6719 44.5804C15.3785 44.2871 15.0985 44.0138 14.8319 43.7604C14.5652 43.4938 14.3919 43.3204 14.3119 43.2404V34.2604H16.9919V31.8404H26.3519ZM18.5319 43.3404H23.4719V34.7204H17.1919V42.0004C17.4185 42.2271 17.6385 42.4538 17.8519 42.6804C18.0785 42.8938 18.3052 43.1138 18.5319 43.3404ZM39.6809 45.9004H36.8009V41.0604C35.7476 40.0071 34.6943 38.9604 33.6409 37.9204C32.6009 36.8804 31.5543 35.8404 30.5009 34.8004V45.9004H27.6209V34.2404H30.3009V31.8404C30.5009 31.8404 30.8409 31.8404 31.3209 31.8404C31.8143 31.8404 32.3743 31.8404 33.0009 31.8404C33.6409 31.8404 34.3076 31.8404 35.0009 31.8404C35.7076 31.8404 36.3809 31.8404 37.0209 31.8404C37.6609 31.8404 38.2209 31.8404 38.7009 31.8404C39.1943 31.8404 39.5343 31.8404 39.7209 31.8404C39.7209 32.3204 39.7143 32.8004 39.7009 33.2804C39.7009 33.7604 39.7009 34.2404 39.7009 34.7204H34.6009C34.7076 34.8138 34.8876 34.9938 35.1409 35.2604C35.4076 35.5138 35.7076 35.8138 36.0409 36.1604C36.3876 36.4938 36.7543 36.8538 37.1409 37.2404C37.5276 37.6138 37.8876 37.9738 38.2209 38.3204C38.5676 38.6538 38.8676 38.9538 39.1209 39.2204C39.3876 39.4738 39.5743 39.6471 39.6809 39.7404V45.9004ZM52.6323 45.9204C52.4457 45.9204 52.1123 45.9204 51.6323 45.9204C51.1523 45.9204 50.5923 45.9204 49.9523 45.9204C49.3257 45.9204 48.6657 45.9204 47.9723 45.9204C47.279 45.9204 46.6123 45.9204 45.9723 45.9204C45.3457 45.9204 44.7923 45.9204 44.3123 45.9204C43.8323 45.9204 43.499 45.9204 43.3123 45.9204C43.2323 45.8404 43.059 45.6738 42.7923 45.4204C42.539 45.1538 42.259 44.8738 41.9523 44.5804C41.659 44.2871 41.379 44.0138 41.1123 43.7604C40.8457 43.4938 40.6723 43.3204 40.5923 43.2404V34.2604H43.2723V31.8404H50.7323V34.7204C50.5857 34.7204 50.3257 34.7204 49.9523 34.7204C49.579 34.7204 49.1457 34.7204 48.6523 34.7204C48.159 34.7204 47.639 34.7204 47.0923 34.7204C46.559 34.7204 46.0457 34.7204 45.5523 34.7204C45.059 34.7204 44.6257 34.7204 44.2523 34.7204C43.879 34.7204 43.619 34.7204 43.4723 34.7204V39.1604C43.619 39.1604 43.879 39.1604 44.2523 39.1604C44.639 39.1604 45.079 39.1604 45.5723 39.1604C46.0657 39.1604 46.5857 39.1671 47.1323 39.1804C47.679 39.1804 48.199 39.1804 48.6923 39.1804C49.1857 39.1804 49.619 39.1804 49.9923 39.1804C50.3657 39.1804 50.6257 39.1804 50.7723 39.1804V42.0604C50.6257 42.0604 50.3657 42.0604 49.9923 42.0604C49.619 42.0604 49.1857 42.0604 48.6923 42.0604C48.2123 42.0604 47.699 42.0604 47.1523 42.0604C46.6057 42.0471 46.0857 42.0404 45.5923 42.0404C45.1123 42.0404 44.679 42.0404 44.2923 42.0404C43.919 42.0404 43.659 42.0404 43.5123 42.0404L44.5123 43.0404H52.6323V45.9204Z" fill="#4B4B4B"/>
</svg>
