<svg width="77" height="46" viewBox="0 0 77 46" fill="none" xmlns="http://www.w3.org/2000/svg">
<path d="M4.74 14.98H1.86V3.34H4.54V0.919999H10.8V3.8H4.74V11.98C6.27333 10.62 7.8 9.27333 9.32 7.94C10.84 6.59333 12.3667 5.24 13.9 3.88V7.74C13.0733 8.46 12.2533 9.18 11.44 9.9C10.6267 10.62 9.80667 11.3467 8.98 12.08H10.54L19.84 3.86V7.7C19 8.43333 18.1733 9.16667 17.36 9.9C16.5467 10.62 15.72 11.3467 14.88 12.08H17.8V14.96H4.76C4.74667 14.9733 4.74 14.98 4.74 14.98ZM32.5602 14.98H29.6802V12.16H23.4202V14.96H20.5402V0.919999H23.4202V9.28H29.6402C29.3468 9 29.0602 8.72 28.7802 8.44C28.5002 8.16 28.2135 7.88 27.9202 7.6C27.9202 7.46667 27.9202 7.19333 27.9202 6.78C27.9202 6.36667 27.9202 5.92667 27.9202 5.46C27.9335 4.99333 27.9402 4.55333 27.9402 4.14C27.9402 3.72667 27.9402 3.45333 27.9402 3.32H29.5202V0.899999H32.3602V3.78H30.8202V6.38C30.8735 6.43333 30.9802 6.54667 31.1402 6.72C31.3135 6.89333 31.4935 7.07333 31.6802 7.26C31.8802 7.44667 32.0602 7.62667 32.2202 7.8C32.3935 7.97333 32.5068 8.08667 32.5602 8.14V14.98ZM42.7697 14.98V10.12L36.4697 3.86V10.16H40.7897V13.04H36.4697V14.96H33.5897V3.32H36.2697V0.899999L45.6497 0.919999V3.8L40.5697 3.78L45.6497 8.82V14.98H42.7697ZM58.042 14.98H55.162V10.12C54.1087 9.08 53.0554 8.04 52.002 7C50.962 5.96 49.9154 4.91333 48.862 3.86V7.04H45.982V3.32H48.662V0.899999C48.8487 0.899999 49.182 0.899999 49.662 0.899999C50.1554 0.899999 50.7154 0.899999 51.342 0.899999C51.982 0.899999 52.6487 0.899999 53.342 0.899999C54.0487 0.899999 54.7154 0.899999 55.342 0.899999C55.982 0.899999 56.542 0.906666 57.022 0.919999C57.5154 0.919999 57.8554 0.919999 58.042 0.919999V3.8C57.882 3.8 57.5554 3.8 57.062 3.8C56.582 3.8 56.062 3.8 55.502 3.8C54.942 3.78667 54.4154 3.78 53.922 3.78C53.442 3.78 53.122 3.78 52.962 3.78C53.0687 3.88667 53.2487 4.07333 53.502 4.34C53.7687 4.59333 54.0687 4.89333 54.402 5.24C54.7487 5.57333 55.1154 5.92667 55.502 6.3C55.8887 6.67333 56.2487 7.03333 56.582 7.38C56.9287 7.71333 57.2287 8.01333 57.482 8.28C57.7487 8.53333 57.9354 8.71333 58.042 8.82V14.98ZM4.74 29.96H1.86V18.32H4.54V15.9C4.67333 15.9 4.89333 15.9 5.2 15.9C5.52 15.9 5.88667 15.9 6.3 15.9C6.71333 15.9 7.14667 15.9 7.6 15.9C8.06667 15.9 8.50667 15.9 8.92 15.9C9.33333 15.9 9.69333 15.9067 10 15.92C10.32 15.92 10.54 15.92 10.66 15.92V18.7C11.1933 18.2333 11.72 17.7733 12.24 17.32C12.76 16.8533 13.2867 16.3867 13.82 15.92V19.76C12.7933 20.6667 11.7733 21.5667 10.76 22.46C9.74667 23.3533 8.73333 24.2533 7.72 25.16H10.36V28.04H4.74V29.96ZM4.74 18.78V23.94C5.71333 23.0733 6.68 22.2133 7.64 21.36C8.61333 20.5067 9.59333 19.6533 10.58 18.8C9.59333 18.8 8.61333 18.8 7.64 18.8C6.68 18.7867 5.71333 18.78 4.74 18.78ZM26.1683 29.96C25.9816 29.96 25.6483 29.96 25.1683 29.96C24.6883 29.96 24.1283 29.96 23.4883 29.96C22.8616 29.96 22.2016 29.96 21.5083 29.96C20.8149 29.96 20.1483 29.96 19.5083 29.96C18.8816 29.96 18.3283 29.96 17.8483 29.96C17.3683 29.96 17.0349 29.96 16.8483 29.96C16.7683 29.88 16.5949 29.7133 16.3283 29.46C16.0749 29.1933 15.7949 28.9133 15.4883 28.62C15.1949 28.3267 14.9149 28.0533 14.6483 27.8C14.3816 27.5333 14.2083 27.36 14.1283 27.28V18.3H16.8083V15.88H24.2683V18.76C24.1216 18.76 23.8616 18.76 23.4883 18.76C23.1149 18.76 22.6816 18.76 22.1883 18.76C21.6949 18.76 21.1749 18.76 20.6283 18.76C20.0949 18.76 19.5816 18.76 19.0883 18.76C18.5949 18.76 18.1616 18.76 17.7883 18.76C17.4149 18.76 17.1549 18.76 17.0083 18.76V23.2C17.1549 23.2 17.4149 23.2 17.7883 23.2C18.1749 23.2 18.6149 23.2 19.1083 23.2C19.6016 23.2 20.1216 23.2067 20.6683 23.22C21.2149 23.22 21.7349 23.22 22.2283 23.22C22.7216 23.22 23.1549 23.22 23.5283 23.22C23.9016 23.22 24.1616 23.22 24.3083 23.22V26.1C24.1616 26.1 23.9016 26.1 23.5283 26.1C23.1549 26.1 22.7216 26.1 22.2283 26.1C21.7483 26.1 21.2349 26.1 20.6883 26.1C20.1416 26.0867 19.6216 26.08 19.1283 26.08C18.6483 26.08 18.2149 26.08 17.8283 26.08C17.4549 26.08 17.1949 26.08 17.0483 26.08L18.0483 27.08H26.1683V29.96ZM38.537 15.88V29.96C38.3504 29.96 38.017 29.96 37.537 29.96C37.057 29.96 36.497 29.96 35.857 29.96C35.2304 29.96 34.5704 29.96 33.877 29.96C33.1837 29.96 32.517 29.96 31.877 29.96C31.2504 29.96 30.697 29.96 30.217 29.96C29.737 29.96 29.4037 29.96 29.217 29.96C29.137 29.88 28.9637 29.7133 28.697 29.46C28.4304 29.1933 28.1504 28.9133 27.857 28.62C27.5637 28.3267 27.2837 28.0533 27.017 27.8C26.7504 27.5333 26.577 27.36 26.497 27.28V18.3H29.177V15.88H38.537ZM30.717 27.38H35.657V18.76H29.377V26.04C29.6037 26.2667 29.8237 26.4933 30.037 26.72C30.2637 26.9333 30.4904 27.1533 30.717 27.38ZM42.6861 29.96H39.8061V18.32H42.4861V15.9C42.6194 15.9 42.8394 15.9 43.1461 15.9C43.4661 15.9 43.8328 15.9 44.2461 15.9C44.6594 15.9 45.0928 15.9 45.5461 15.9C46.0128 15.9 46.4528 15.9 46.8661 15.9C47.2794 15.9 47.6394 15.9067 47.9461 15.92C48.2661 15.92 48.4861 15.92 48.6061 15.92V18.7C49.1394 18.2333 49.6661 17.7733 50.1861 17.32C50.7061 16.8533 51.2328 16.3867 51.7661 15.92V19.76C50.7394 20.6667 49.7194 21.5667 48.7061 22.46C47.6928 23.3533 46.6794 24.2533 45.6661 25.16H48.3061V28.04H42.6861V29.96ZM42.6861 18.78V23.94C43.6594 23.0733 44.6261 22.2133 45.5861 21.36C46.5594 20.5067 47.5394 19.6533 48.5261 18.8C47.5394 18.8 46.5594 18.8 45.5861 18.8C44.6261 18.7867 43.6594 18.78 42.6861 18.78ZM64.0144 29.98H54.8344C54.7544 29.9 54.581 29.7333 54.3144 29.48C54.0477 29.2267 53.761 28.96 53.4544 28.68C53.1477 28.4 52.861 28.1333 52.5944 27.88C52.3277 27.6267 52.1544 27.46 52.0744 27.38V18.32H54.7544V15.9C54.8344 15.9 55.0077 15.9 55.2744 15.9C55.5544 15.9 55.8477 15.9 56.1544 15.9C56.461 15.9 56.7477 15.9067 57.0144 15.92C57.2944 15.92 57.4744 15.92 57.5544 15.92V18.8C57.4744 18.8 57.3077 18.8 57.0544 18.8C56.801 18.8 56.5344 18.8 56.2544 18.8C55.9744 18.7867 55.7077 18.78 55.4544 18.78C55.201 18.78 55.0344 18.78 54.9544 18.78V26.12C55.1277 26.28 55.301 26.44 55.4744 26.6C55.6477 26.76 55.821 26.9267 55.9944 27.1H64.0344C64.0344 27.58 64.0344 28.06 64.0344 28.54C64.0344 29.02 64.0277 29.5 64.0144 29.98ZM76.2488 29.96C76.0621 29.96 75.7288 29.96 75.2488 29.96C74.7688 29.96 74.2088 29.96 73.5687 29.96C72.9421 29.96 72.2821 29.96 71.5888 29.96C70.8954 29.96 70.2288 29.96 69.5888 29.96C68.9621 29.96 68.4088 29.96 67.9288 29.96C67.4488 29.96 67.1154 29.96 66.9288 29.96C66.8488 29.88 66.6754 29.7133 66.4087 29.46C66.1554 29.1933 65.8754 28.9133 65.5688 28.62C65.2754 28.3267 64.9954 28.0533 64.7288 27.8C64.4621 27.5333 64.2888 27.36 64.2088 27.28V18.3H66.8888V15.88H74.3488V18.76C74.2021 18.76 73.9421 18.76 73.5687 18.76C73.1954 18.76 72.7621 18.76 72.2688 18.76C71.7754 18.76 71.2554 18.76 70.7088 18.76C70.1754 18.76 69.6621 18.76 69.1688 18.76C68.6754 18.76 68.2421 18.76 67.8688 18.76C67.4954 18.76 67.2354 18.76 67.0888 18.76V23.2C67.2354 23.2 67.4954 23.2 67.8688 23.2C68.2554 23.2 68.6954 23.2 69.1888 23.2C69.6821 23.2 70.2021 23.2067 70.7488 23.22C71.2954 23.22 71.8154 23.22 72.3088 23.22C72.8021 23.22 73.2354 23.22 73.6088 23.22C73.9821 23.22 74.2421 23.22 74.3888 23.22V26.1C74.2421 26.1 73.9821 26.1 73.6088 26.1C73.2354 26.1 72.8021 26.1 72.3088 26.1C71.8288 26.1 71.3154 26.1 70.7688 26.1C70.2221 26.0867 69.7021 26.08 69.2088 26.08C68.7288 26.08 68.2954 26.08 67.9088 26.08C67.5354 26.08 67.2754 26.08 67.1288 26.08L68.1288 27.08H76.2488V29.96ZM13.42 44.98H10.54V43.04H4.26C4.24667 43.0533 4.24 43.06 4.24 43.06H1.36V37.92H4.24V40.16H10.52C10.5467 40.16 10.5533 40.1533 10.54 40.14C10.54 40.1267 10.5267 40.1133 10.5 40.1C10.3667 39.9667 10.1333 39.74 9.8 39.42C9.46667 39.0867 9.08 38.7067 8.64 38.28C8.21333 37.8533 7.75333 37.4067 7.26 36.94C6.76667 36.46 6.3 36.0067 5.86 35.58C5.43333 35.1533 5.04667 34.78 4.7 34.46C4.36667 34.1267 4.13333 33.9 4 33.78V30.9C4.2 30.9 4.54 30.9 5.02 30.9C5.51333 30.9 6.07333 30.9 6.7 30.9C7.34 30.9 8.01333 30.9 8.72 30.9C9.42667 30.9 10.0933 30.9 10.72 30.9C11.36 30.9 11.92 30.9067 12.4 30.92C12.8933 30.92 13.2333 30.92 13.42 30.92V33.8C13.26 33.8 12.9267 33.8 12.42 33.8C11.9267 33.8 11.3933 33.8 10.82 33.8C10.2467 33.7867 9.70667 33.78 9.2 33.78C8.70667 33.78 8.38 33.78 8.22 33.78C8.32667 33.8867 8.51333 34.0733 8.78 34.34C9.04667 34.5933 9.35333 34.8933 9.7 35.24C10.06 35.5733 10.4333 35.9267 10.82 36.3C11.2067 36.6733 11.5733 37.0333 11.92 37.38C12.28 37.7133 12.5933 38.0133 12.86 38.28C13.1267 38.5333 13.3133 38.7133 13.42 38.82V44.98ZM23.6041 44.98V40.12L17.3041 33.86V40.16H21.6241V43.04H17.3041V44.96H14.4241V33.32H17.1041V30.9L26.4841 30.92V33.8L21.4041 33.78L26.4841 38.82V44.98H23.6041ZM33.3564 42.2V45.08C33.2364 45.08 33.0164 45.08 32.6964 45.08C32.3897 45.08 32.0364 45.08 31.6364 45.08C31.2364 45.08 30.8097 45.0733 30.3564 45.06C29.9031 45.06 29.4764 45.06 29.0764 45.06C28.6764 45.06 28.3231 45.06 28.0164 45.06C27.7097 45.06 27.4964 45.06 27.3764 45.06V41.2C27.9897 40.6667 28.5964 40.1333 29.1964 39.6C29.8097 39.0667 30.4231 38.5267 31.0364 37.98C30.3964 37.4333 29.7631 36.8933 29.1364 36.36C28.5097 35.8267 27.8764 35.28 27.2364 34.72V30.88C27.7431 31.3333 28.2497 31.78 28.7564 32.22C29.2764 32.66 29.7964 33.1 30.3164 33.54V30.84C30.4897 30.84 30.8031 30.84 31.2564 30.84C31.7097 30.84 32.2297 30.84 32.8164 30.84C33.4031 30.84 34.0231 30.8467 34.6764 30.86C35.3431 30.86 35.9697 30.86 36.5564 30.86C37.1431 30.86 37.6631 30.86 38.1164 30.86C38.5697 30.86 38.8897 30.86 39.0764 30.86C39.0897 30.86 39.0964 30.88 39.0964 30.92C39.1097 30.92 39.1164 30.92 39.1164 30.92V34.76C37.6631 35.9867 36.2364 37.22 34.8364 38.46C33.4364 39.6867 32.0297 40.9267 30.6164 42.18C30.6964 42.18 30.8697 42.18 31.1364 42.18C31.4031 42.18 31.6831 42.1867 31.9764 42.2C32.2831 42.2 32.5697 42.2 32.8364 42.2C33.1031 42.2 33.2764 42.2 33.3564 42.2ZM30.5164 33.72C30.9697 34.1067 31.4164 34.4933 31.8564 34.88C32.2964 35.2533 32.7364 35.6333 33.1764 36.02C33.6297 35.6333 34.0764 35.2533 34.5164 34.88C34.9564 34.5067 35.3964 34.1267 35.8364 33.74C34.9564 33.74 34.0697 33.74 33.1764 33.74C32.2964 33.7267 31.4097 33.72 30.5164 33.72Z" fill="#4B4B4B"/>
</svg>
