<svg width="1579" height="75" viewBox="0 0 1579 75" fill="none" xmlns="http://www.w3.org/2000/svg">
<g filter="url(#filter0_d_2506_1479)">
<path d="M17.268 23.596C17.268 25.572 17.736 27.21 18.672 28.51C19.608 29.81 20.856 30.928 22.416 31.864C23.976 32.748 25.718 33.528 27.642 34.204C29.618 34.828 31.646 35.478 33.726 36.154C35.806 36.778 37.808 37.454 39.732 38.182C41.708 38.91 43.476 39.846 45.036 40.99C46.596 42.082 47.844 43.434 48.78 45.046C49.716 46.606 50.184 48.53 50.184 50.818C50.184 52.586 49.846 54.302 49.17 55.966C48.494 57.63 47.376 59.112 45.816 60.412C44.256 61.712 42.202 62.778 39.654 63.61C37.106 64.39 33.96 64.78 30.216 64.78C26.524 64.78 23.43 64.598 20.934 64.234C18.49 63.87 16.488 63.48 14.928 63.064C13.108 62.544 11.652 61.972 10.56 61.348L11.574 55.654C12.354 57.214 13.576 58.618 15.24 59.866C16.644 60.906 18.542 61.868 20.934 62.752C23.378 63.584 26.472 64 30.216 64C32.972 64 35.286 63.584 37.158 62.752C39.03 61.92 40.512 60.906 41.604 59.71C42.748 58.462 43.554 57.162 44.022 55.81C44.542 54.406 44.802 53.158 44.802 52.066C44.802 49.674 43.996 47.776 42.384 46.372C40.772 44.916 38.744 43.694 36.3 42.706C33.856 41.666 31.23 40.73 28.422 39.898C25.614 39.066 22.988 38.026 20.544 36.778C18.1 35.478 16.072 33.866 14.46 31.942C12.848 30.018 12.042 27.47 12.042 24.298C12.042 22.582 12.406 20.918 13.134 19.306C13.862 17.642 14.98 16.186 16.488 14.938C17.996 13.638 19.894 12.598 22.182 11.818C24.522 10.986 27.304 10.57 30.528 10.57C33.492 10.57 36.014 10.752 38.094 11.116C40.226 11.48 41.968 11.87 43.32 12.286C44.88 12.806 46.18 13.378 47.22 14.002L46.206 19.696C45.374 18.188 44.256 16.81 42.852 15.562C41.656 14.522 40.044 13.56 38.016 12.676C35.988 11.792 33.492 11.35 30.528 11.35C27.876 11.35 25.692 11.792 23.976 12.676C22.312 13.508 20.96 14.574 19.92 15.874C18.932 17.122 18.23 18.448 17.814 19.852C17.45 21.256 17.268 22.504 17.268 23.596ZM78.0184 10.57C81.7624 10.57 85.2724 11.298 88.5484 12.754C91.8244 14.158 94.6844 16.082 97.1284 18.526C99.6244 20.97 101.574 23.83 102.978 27.106C104.382 30.382 105.084 33.892 105.084 37.636C105.084 41.38 104.382 44.916 102.978 48.244C101.574 51.52 99.6244 54.38 97.1284 56.824C94.6844 59.268 91.8244 61.218 88.5484 62.674C85.2724 64.078 81.7624 64.78 78.0184 64.78C74.2744 64.78 70.7644 64.078 67.4884 62.674C64.2124 61.218 61.3264 59.268 58.8304 56.824C56.3864 54.38 54.4624 51.52 53.0584 48.244C51.6544 44.916 50.9524 41.38 50.9524 37.636C50.9524 33.892 51.6544 30.382 53.0584 27.106C54.4624 23.83 56.3864 20.97 58.8304 18.526C61.3264 16.082 64.2124 14.158 67.4884 12.754C70.7644 11.298 74.2744 10.57 78.0184 10.57ZM78.0184 64C80.8784 64 83.5564 63.324 86.0524 61.972C88.6004 60.568 90.8104 58.67 92.6824 56.278C94.5544 53.886 96.0364 51.104 97.1284 47.932C98.2204 44.708 98.7664 41.276 98.7664 37.636C98.7664 33.996 98.2204 30.59 97.1284 27.418C96.0364 24.246 94.5544 21.464 92.6824 19.072C90.8104 16.68 88.6004 14.808 86.0524 13.456C83.5564 12.052 80.8784 11.35 78.0184 11.35C75.1584 11.35 72.4544 12.052 69.9064 13.456C67.4104 14.808 65.2264 16.68 63.3544 19.072C61.4824 21.464 60.0004 24.246 58.9084 27.418C57.8164 30.59 57.2704 33.996 57.2704 37.636C57.2704 41.276 57.8164 44.708 58.9084 47.932C60.0004 51.104 61.4824 53.886 63.3544 56.278C65.2264 58.67 67.4104 60.568 69.9064 61.972C72.4544 63.324 75.1584 64 78.0184 64ZM141.287 11.038V19.618L140.351 18.292C139.051 16.472 137.413 15.068 135.437 14.08C133.513 13.04 131.433 12.52 129.197 12.52H115.781V31.318H132.005L135.749 28.12V35.92L132.005 32.722H115.781V56.278V58.618C115.781 59.918 116.197 61.062 117.029 62.05L117.263 62.362C118.147 63.246 119.187 63.766 120.383 63.922V64H105.251V63.922C106.499 63.766 107.513 63.246 108.293 62.362L108.605 62.05C109.437 61.062 109.853 59.918 109.853 58.618V15.952C109.749 14.756 109.255 13.716 108.371 12.832C107.487 11.948 106.447 11.402 105.251 11.194V11.038H106.811H109.931H115.625H141.287ZM177.429 17.59C176.909 16.706 176.025 15.952 174.777 15.328C173.529 14.704 172.125 14.21 170.565 13.846C169.057 13.43 167.497 13.118 165.885 12.91C164.273 12.702 162.843 12.572 161.595 12.52H162.063V56.278V58.618C162.063 59.918 162.479 61.062 163.311 62.05L163.623 62.44C164.455 63.272 165.469 63.766 166.665 63.922V64H151.533V63.922C152.729 63.766 153.769 63.246 154.653 62.362L154.887 62.05C155.719 61.062 156.135 59.892 156.135 58.54V57.526V56.278V12.52H156.603C155.303 12.572 153.847 12.702 152.235 12.91C150.623 13.118 149.063 13.43 147.555 13.846C146.047 14.21 144.669 14.704 143.421 15.328C142.173 15.952 141.289 16.706 140.769 17.59L142.329 11.038H159.099H175.869L177.429 17.59ZM253.154 11.038V11.116C253.154 11.116 253.024 11.194 252.764 11.35C252.556 11.506 252.296 11.662 251.984 11.818C251.672 11.974 251.36 12.13 251.048 12.286C250.788 12.39 250.632 12.468 250.58 12.52C249.8 13.144 249.098 13.846 248.474 14.626C247.746 15.51 247.174 16.42 246.758 17.356C246.394 18.292 246.004 19.28 245.588 20.32C244.86 22.14 244.158 23.934 243.482 25.702C242.806 27.418 242.104 29.16 241.376 30.928C240.492 33.164 239.608 35.4 238.724 37.636C237.892 39.82 237.034 42.03 236.15 44.266C235.422 46.138 234.668 48.036 233.888 49.96C233.16 51.832 232.406 53.704 231.626 55.576C231.522 55.836 231.444 56.07 231.392 56.278C231.34 56.486 231.262 56.694 231.158 56.902L232.484 60.724L227.882 64L215.792 30.85L215.714 30.928C214.83 33.164 213.946 35.4 213.062 37.636C212.23 39.82 211.372 42.03 210.488 44.266L205.964 55.576L205.496 56.902L206.822 60.724L202.22 64L185.294 17.512C185.242 17.304 185.164 17.096 185.06 16.888L184.592 15.718C184.02 14.366 183.136 13.274 181.94 12.442C180.796 11.61 179.47 11.194 177.962 11.194V11.116H195.044V11.194C194.316 11.194 193.64 11.376 193.016 11.74C192.444 12.052 191.95 12.468 191.534 12.988C191.17 13.508 190.91 14.132 190.754 14.86C190.65 15.536 190.702 16.212 190.91 16.888L204.794 55.03C205.106 54.146 205.418 53.314 205.73 52.534C206.094 51.702 206.432 50.844 206.744 49.96C207.628 47.828 208.46 45.722 209.24 43.642C210.072 41.51 210.93 39.378 211.814 37.246C212.386 35.842 212.932 34.464 213.452 33.112C213.972 31.708 214.518 30.304 215.09 28.9L210.956 17.512C210.904 17.304 210.826 17.096 210.722 16.888L210.254 15.718C209.682 14.366 208.798 13.274 207.602 12.442C206.458 11.61 205.132 11.194 203.624 11.194V11.116H220.706V11.194C219.978 11.194 219.302 11.376 218.678 11.74C218.106 12.052 217.612 12.468 217.196 12.988C216.832 13.508 216.572 14.132 216.416 14.86C216.312 15.536 216.364 16.212 216.572 16.888L230.456 55.03C230.768 54.146 231.08 53.314 231.392 52.534C231.756 51.702 232.094 50.844 232.406 49.96C233.29 47.828 234.122 45.722 234.902 43.642C235.734 41.51 236.592 39.378 237.476 37.246C238.308 35.114 239.114 33.008 239.894 30.928C240.726 28.848 241.584 26.768 242.468 24.688C242.78 23.908 243.066 23.128 243.326 22.348C243.638 21.568 243.95 20.788 244.262 20.008C244.678 19.072 245.068 18.084 245.432 17.044C245.848 16.004 245.926 14.964 245.666 13.924C245.562 13.404 245.302 12.858 244.886 12.286C244.834 12.234 244.73 12.13 244.574 11.974C244.418 11.818 244.262 11.688 244.106 11.584L243.482 11.116V10.96L253.154 11.038ZM279.338 59.398C279.91 60.75 280.794 61.842 281.99 62.674C283.186 63.506 284.512 63.922 285.968 63.922V64H267.872V63.922C268.652 63.922 269.328 63.766 269.9 63.454C270.524 63.09 271.018 62.622 271.382 62.05C271.798 61.478 272.058 60.854 272.162 60.178C272.266 59.45 272.188 58.722 271.928 57.994L269.276 51.598L269.198 51.208H245.642L242.444 57.76C241.976 58.956 241.95 60.152 242.366 61.348C242.782 62.492 243.562 63.35 244.706 63.922V64H235.112V63.922C236.672 63.246 237.972 62.232 239.012 60.88C240.104 59.528 240.988 58.046 241.664 56.434L243.458 52.144L247.514 42.628L256.796 20.71L254.534 13.846L255.002 13.612L260.384 11.038L278.636 57.526L279.338 59.398ZM268.808 50.038L268.652 49.648L267.482 46.684L257.654 22.036L248.606 43.33L245.72 50.038H268.808ZM308.608 38.026C310.116 38.598 311.416 39.456 312.508 40.6C313.652 41.744 314.692 43.044 315.628 44.5C316.564 45.956 317.448 47.542 318.28 49.258C319.164 50.922 320.048 52.612 320.932 54.328C321.868 56.044 322.856 57.734 323.896 59.398C324.988 61.062 326.236 62.596 327.64 64H319.606C319.19 63.584 318.696 62.674 318.124 61.27C317.552 59.814 316.902 58.124 316.174 56.2C315.446 54.276 314.614 52.274 313.678 50.194C312.794 48.062 311.806 46.112 310.714 44.344C309.622 42.576 308.426 41.12 307.126 39.976C305.826 38.78 304.422 38.182 302.914 38.182C301.458 38.182 299.898 38.182 298.234 38.182C296.622 38.13 295.374 38.104 294.49 38.104V56.278V58.618C294.49 59.294 294.594 59.944 294.802 60.568C295.062 61.14 295.4 61.66 295.816 62.128L295.972 62.284C296.804 63.22 297.844 63.766 299.092 63.922V64H283.96V63.922C285.156 63.766 286.17 63.272 287.002 62.44L287.392 61.972C288.172 61.036 288.562 59.918 288.562 58.618V15.874C288.458 14.678 287.964 13.664 287.08 12.832C286.248 11.948 285.208 11.402 283.96 11.194V11.038H285.52H288.64H294.334H306.814C310.194 11.038 313.028 11.662 315.316 12.91C317.604 14.158 319.346 15.744 320.542 17.668C321.738 19.592 322.388 21.698 322.492 23.986C322.596 26.222 322.154 28.354 321.166 30.382C320.178 32.358 318.618 34.074 316.486 35.53C314.406 36.934 311.78 37.766 308.608 38.026ZM305.8 37.09C308.244 37.09 310.272 36.466 311.884 35.218C313.548 33.97 314.796 32.436 315.628 30.616C316.46 28.744 316.876 26.742 316.876 24.61C316.876 22.426 316.46 20.424 315.628 18.604C314.796 16.732 313.548 15.172 311.884 13.924C310.272 12.676 308.244 12.052 305.8 12.052H294.49V37.09H303.85H303.928H305.8ZM362.998 64H334.138H326.104V63.922C327.3 63.766 328.34 63.246 329.224 62.362L329.536 62.05C329.952 61.582 330.238 61.062 330.394 60.49C330.602 59.866 330.732 59.242 330.784 58.618V15.952C330.628 14.756 330.108 13.716 329.224 12.832C328.392 11.948 327.352 11.402 326.104 11.194V11.038H327.742H330.784H336.478H362.218V19.618L361.282 18.292C359.982 16.472 358.344 15.068 356.368 14.08C354.392 13.04 352.286 12.52 350.05 12.52H336.634V31.318H352.858L356.602 28.12V35.92L352.858 32.722H336.634V62.518L353.56 62.596C356.472 62.596 359.15 61.738 361.594 60.022L364.714 57.76L362.998 64ZM418.793 17.59C418.273 16.706 417.389 15.952 416.141 15.328C414.893 14.704 413.489 14.21 411.929 13.846C410.421 13.43 408.861 13.118 407.249 12.91C405.637 12.702 404.207 12.572 402.959 12.52H403.427V56.278V58.618C403.427 59.918 403.843 61.062 404.675 62.05L404.987 62.44C405.819 63.272 406.833 63.766 408.029 63.922V64H392.897V63.922C394.093 63.766 395.133 63.246 396.017 62.362L396.251 62.05C397.083 61.062 397.499 59.892 397.499 58.54V57.526V56.278V12.52H397.967C396.667 12.572 395.211 12.702 393.599 12.91C391.987 13.118 390.427 13.43 388.919 13.846C387.411 14.21 386.033 14.704 384.785 15.328C383.537 15.952 382.653 16.706 382.133 17.59L383.693 11.038H400.463H417.233L418.793 17.59ZM461.04 56.278V58.618C461.092 59.918 461.508 61.062 462.288 62.05L462.6 62.362C463.484 63.246 464.524 63.766 465.72 63.922V64H450.588V63.922C451.732 63.766 452.746 63.246 453.63 62.362L453.942 62.05C454.774 61.062 455.19 59.892 455.19 58.54V38.26H427.266V58.618C427.266 59.918 427.682 61.062 428.514 62.05L428.904 62.44C429.736 63.272 430.724 63.766 431.868 63.922V64H416.736V63.922C418.036 63.766 419.076 63.246 419.856 62.362L420.168 62.05C420.532 61.582 420.818 61.062 421.026 60.49C421.286 59.866 421.416 59.216 421.416 58.54V57.526V56.278V18.76V17.512V16.498C421.416 15.822 421.286 15.198 421.026 14.626C420.818 14.002 420.506 13.456 420.09 12.988L419.934 12.754C419.518 12.338 419.024 12 418.452 11.74C417.932 11.428 417.36 11.246 416.736 11.194V11.038H418.374H430.308H431.868V11.194C430.672 11.298 429.658 11.792 428.826 12.676L428.514 12.988C427.682 13.976 427.266 15.12 427.266 16.42V36.778H455.19V16.498C455.19 15.146 454.774 13.976 453.942 12.988L453.63 12.676C453.214 12.26 452.746 11.922 452.226 11.662C451.706 11.402 451.16 11.246 450.588 11.194V11.038H452.148H464.082H465.72V11.194C465.096 11.246 464.524 11.402 464.004 11.662C463.484 11.922 463.016 12.26 462.6 12.676L462.288 12.988C461.508 13.976 461.092 15.12 461.04 16.42V18.76V56.278ZM507.906 59.398C508.478 60.75 509.362 61.842 510.558 62.674C511.754 63.506 513.08 63.922 514.536 63.922V64H496.44V63.922C497.22 63.922 497.896 63.766 498.468 63.454C499.092 63.09 499.586 62.622 499.95 62.05C500.366 61.478 500.626 60.854 500.73 60.178C500.834 59.45 500.756 58.722 500.496 57.994L497.844 51.598L497.766 51.208H474.21L471.012 57.76C470.544 58.956 470.518 60.152 470.934 61.348C471.35 62.492 472.13 63.35 473.274 63.922V64H463.68V63.922C465.24 63.246 466.54 62.232 467.58 60.88C468.672 59.528 469.556 58.046 470.232 56.434L472.026 52.144L476.082 42.628L485.364 20.71L483.102 13.846L483.57 13.612L488.952 11.038L507.204 57.526L507.906 59.398ZM497.376 50.038L497.22 49.648L496.05 46.684L486.222 22.036L477.174 43.33L474.288 50.038H497.376ZM538.295 17.59C537.775 16.706 536.891 15.952 535.643 15.328C534.395 14.704 532.991 14.21 531.431 13.846C529.923 13.43 528.363 13.118 526.751 12.91C525.139 12.702 523.709 12.572 522.461 12.52H522.929V56.278V58.618C522.929 59.918 523.345 61.062 524.177 62.05L524.489 62.44C525.321 63.272 526.335 63.766 527.531 63.922V64H512.399V63.922C513.595 63.766 514.635 63.246 515.519 62.362L515.753 62.05C516.585 61.062 517.001 59.892 517.001 58.54V57.526V56.278V12.52H517.469C516.169 12.572 514.713 12.702 513.101 12.91C511.489 13.118 509.929 13.43 508.421 13.846C506.913 14.21 505.535 14.704 504.287 15.328C503.039 15.952 502.155 16.706 501.635 17.59L503.195 11.038H519.965H536.735L538.295 17.59ZM573.504 34.828C575.532 34.672 577.638 34.828 579.822 35.296C582.006 35.712 583.982 36.466 585.75 37.558C587.57 38.65 589.052 40.106 590.196 41.926C591.34 43.694 591.912 45.852 591.912 48.4C591.912 53.444 590.3 57.318 587.076 60.022C583.852 62.674 578.86 64 572.1 64H562.116H554.16V63.922C555.408 63.766 556.422 63.246 557.202 62.362L557.514 62.05C558.346 61.062 558.762 59.918 558.762 58.618V15.952C558.658 14.756 558.164 13.716 557.28 12.832C556.448 11.948 555.408 11.402 554.16 11.194V11.038H555.72H558.84H564.534H574.128C575.896 11.038 577.664 11.298 579.432 11.818C581.252 12.286 582.89 13.014 584.346 14.002C585.802 14.938 586.972 16.134 587.856 17.59C588.792 19.046 589.26 20.71 589.26 22.582C589.26 24.818 588.766 26.638 587.778 28.042C586.79 29.394 585.542 30.486 584.034 31.318C582.526 32.15 580.836 32.826 578.964 33.346C577.092 33.814 575.272 34.308 573.504 34.828ZM564.69 38.728C565.314 37.688 566.224 36.856 567.42 36.232C568.668 35.556 569.994 34.932 571.398 34.36C572.854 33.788 574.336 33.216 575.844 32.644C577.352 32.02 578.704 31.292 579.9 30.46C581.148 29.576 582.162 28.51 582.942 27.262C583.722 25.962 584.112 24.324 584.112 22.348C584.112 19.124 583.02 16.602 580.836 14.782C578.704 12.962 575.974 12.052 572.646 12.052H564.69V38.728ZM572.412 63.064C574.804 63.064 576.884 62.674 578.652 61.894C580.472 61.062 581.98 59.996 583.176 58.696C584.372 57.344 585.256 55.836 585.828 54.172C586.4 52.456 586.686 50.714 586.686 48.946C586.686 46.502 586.218 44.396 585.282 42.628C584.346 40.86 583.124 39.43 581.616 38.338C580.16 37.194 578.548 36.414 576.78 35.998C575.012 35.53 573.322 35.426 571.71 35.686C570.098 35.946 568.642 36.57 567.342 37.558C566.042 38.546 565.158 39.898 564.69 41.614V63.064H572.412ZM639.405 11.038V11.194C637.741 11.87 636.441 12.962 635.505 14.47C634.569 15.978 634.101 17.642 634.101 19.462V47.23L634.023 47.308C634.023 50.324 633.477 52.95 632.385 55.186C631.293 57.37 629.837 59.19 628.017 60.646C626.249 62.05 624.221 63.09 621.933 63.766C619.645 64.442 617.305 64.754 614.913 64.702C612.521 64.65 610.181 64.234 607.893 63.454C605.605 62.622 603.551 61.426 601.731 59.866C599.963 58.306 598.533 56.408 597.441 54.172C596.349 51.884 595.803 49.258 595.803 46.294V18.76V17.512V16.498C595.803 15.146 595.387 13.976 594.555 12.988L594.321 12.754C593.905 12.338 593.437 12 592.917 11.74C592.397 11.428 591.825 11.246 591.201 11.194V11.038H592.761H604.773H606.333V11.194C605.137 11.298 604.123 11.792 603.291 12.676L602.979 12.988C602.147 13.976 601.731 15.12 601.731 16.42V45.436C601.731 49.44 602.485 52.768 603.993 55.42C605.553 58.072 607.477 60.074 609.765 61.426C612.053 62.726 614.523 63.402 617.175 63.454C619.827 63.454 622.297 62.856 624.585 61.66C626.873 60.412 628.771 58.592 630.279 56.2C631.839 53.808 632.619 50.818 632.619 47.23V19.54C632.619 17.72 632.177 16.056 631.293 14.548C630.461 12.988 629.213 11.87 627.549 11.194V11.038H633.165H633.789H639.405ZM647.912 56.278V58.618C647.912 59.918 648.328 61.062 649.16 62.05L649.472 62.44C650.304 63.272 651.318 63.766 652.514 63.922V64H637.382V63.922C638.578 63.766 639.618 63.246 640.502 62.362L640.736 62.05C641.568 61.062 641.984 59.892 641.984 58.54V57.526V56.278V18.76V17.512V16.498C641.984 15.146 641.568 13.976 640.736 12.988L640.502 12.754C640.086 12.338 639.618 12 639.098 11.74C638.578 11.428 638.006 11.246 637.382 11.194V11.038H638.942H650.954H652.514V11.194C651.318 11.298 650.304 11.792 649.472 12.676L649.16 12.988C648.328 13.976 647.912 15.12 647.912 16.42V18.76V56.278ZM682.407 64H658.539H650.583V63.922C651.727 63.766 652.715 63.272 653.547 62.44L653.937 61.972C654.665 61.14 655.081 60.022 655.185 58.618V18.76V17.512V16.498C655.185 15.822 655.055 15.198 654.795 14.626C654.587 14.002 654.275 13.456 653.859 12.988L653.703 12.754C653.287 12.338 652.793 12 652.221 11.74C651.701 11.428 651.129 11.246 650.505 11.194V11.038H652.143H664.077H665.637V11.194C664.545 11.246 663.531 11.74 662.595 12.676L662.283 12.988C661.451 13.976 661.035 15.12 661.035 16.42V62.518L661.113 62.596H669.537C672.137 62.596 674.633 62.232 677.025 61.504C679.469 60.724 681.783 59.606 683.967 58.15L684.591 57.76L682.407 64ZM703.858 11.038C708.226 11.038 712.048 11.792 715.324 13.3C718.6 14.808 721.33 16.81 723.514 19.306C725.698 21.802 727.336 24.636 728.428 27.808C729.52 30.98 730.066 34.23 730.066 37.558C730.066 40.834 729.52 44.058 728.428 47.23C727.336 50.402 725.698 53.236 723.514 55.732C721.33 58.228 718.6 60.23 715.324 61.738C712.048 63.246 708.226 64 703.858 64H691.846H683.89V63.922C684.982 63.766 685.996 63.272 686.932 62.44L687.322 61.972C688.102 61.036 688.492 59.918 688.492 58.618V15.952C688.388 14.704 687.894 13.664 687.01 12.832C686.126 11.948 685.086 11.402 683.89 11.194V11.038H685.45H688.57H694.264H703.858ZM702.376 63.064C705.964 63.064 709.084 62.336 711.736 60.88C714.44 59.424 716.676 57.5 718.444 55.108C720.212 52.716 721.538 49.986 722.422 46.918C723.306 43.85 723.748 40.73 723.748 37.558C723.748 34.386 723.306 31.266 722.422 28.198C721.538 25.13 720.212 22.4 718.444 20.008C716.676 17.616 714.44 15.692 711.736 14.236C709.084 12.78 705.964 12.052 702.376 12.052H694.42V63.064H702.376ZM737.574 23.596C737.574 25.572 738.042 27.21 738.978 28.51C739.914 29.81 741.162 30.928 742.722 31.864C744.282 32.748 746.024 33.528 747.948 34.204C749.924 34.828 751.952 35.478 754.032 36.154C756.112 36.778 758.114 37.454 760.038 38.182C762.014 38.91 763.782 39.846 765.342 40.99C766.902 42.082 768.15 43.434 769.086 45.046C770.022 46.606 770.49 48.53 770.49 50.818C770.49 52.586 770.152 54.302 769.476 55.966C768.8 57.63 767.682 59.112 766.122 60.412C764.562 61.712 762.508 62.778 759.96 63.61C757.412 64.39 754.266 64.78 750.522 64.78C746.83 64.78 743.736 64.598 741.24 64.234C738.796 63.87 736.794 63.48 735.234 63.064C733.414 62.544 731.958 61.972 730.866 61.348L731.88 55.654C732.66 57.214 733.882 58.618 735.546 59.866C736.95 60.906 738.848 61.868 741.24 62.752C743.684 63.584 746.778 64 750.522 64C753.278 64 755.592 63.584 757.464 62.752C759.336 61.92 760.818 60.906 761.91 59.71C763.054 58.462 763.86 57.162 764.328 55.81C764.848 54.406 765.108 53.158 765.108 52.066C765.108 49.674 764.302 47.776 762.69 46.372C761.078 44.916 759.05 43.694 756.606 42.706C754.162 41.666 751.536 40.73 748.728 39.898C745.92 39.066 743.294 38.026 740.85 36.778C738.406 35.478 736.378 33.866 734.766 31.942C733.154 30.018 732.348 27.47 732.348 24.298C732.348 22.582 732.712 20.918 733.44 19.306C734.168 17.642 735.286 16.186 736.794 14.938C738.302 13.638 740.2 12.598 742.488 11.818C744.828 10.986 747.61 10.57 750.834 10.57C753.798 10.57 756.32 10.752 758.4 11.116C760.532 11.48 762.274 11.87 763.626 12.286C765.186 12.806 766.486 13.378 767.526 14.002L766.512 19.696C765.68 18.188 764.562 16.81 763.158 15.562C761.962 14.522 760.35 13.56 758.322 12.676C756.294 11.792 753.798 11.35 750.834 11.35C748.182 11.35 745.998 11.792 744.282 12.676C742.618 13.508 741.266 14.574 740.226 15.874C739.238 17.122 738.536 18.448 738.12 19.852C737.756 21.256 737.574 22.504 737.574 23.596ZM824.436 17.59C823.916 16.706 823.032 15.952 821.784 15.328C820.536 14.704 819.132 14.21 817.572 13.846C816.064 13.43 814.504 13.118 812.892 12.91C811.28 12.702 809.85 12.572 808.602 12.52H809.07V56.278V58.618C809.07 59.918 809.486 61.062 810.318 62.05L810.63 62.44C811.462 63.272 812.476 63.766 813.672 63.922V64H798.54V63.922C799.736 63.766 800.776 63.246 801.66 62.362L801.894 62.05C802.726 61.062 803.142 59.892 803.142 58.54V57.526V56.278V12.52H803.61C802.31 12.572 800.854 12.702 799.242 12.91C797.63 13.118 796.07 13.43 794.562 13.846C793.054 14.21 791.676 14.704 790.428 15.328C789.18 15.952 788.296 16.706 787.776 17.59L789.336 11.038H806.106H822.876L824.436 17.59ZM847.027 38.026C848.535 38.598 849.835 39.456 850.927 40.6C852.071 41.744 853.111 43.044 854.047 44.5C854.983 45.956 855.867 47.542 856.699 49.258C857.583 50.922 858.467 52.612 859.351 54.328C860.287 56.044 861.275 57.734 862.315 59.398C863.407 61.062 864.655 62.596 866.059 64H858.025C857.609 63.584 857.115 62.674 856.543 61.27C855.971 59.814 855.321 58.124 854.593 56.2C853.865 54.276 853.033 52.274 852.097 50.194C851.213 48.062 850.225 46.112 849.133 44.344C848.041 42.576 846.845 41.12 845.545 39.976C844.245 38.78 842.841 38.182 841.333 38.182C839.877 38.182 838.317 38.182 836.653 38.182C835.041 38.13 833.793 38.104 832.909 38.104V56.278V58.618C832.909 59.294 833.013 59.944 833.221 60.568C833.481 61.14 833.819 61.66 834.235 62.128L834.391 62.284C835.223 63.22 836.263 63.766 837.511 63.922V64H822.379V63.922C823.575 63.766 824.589 63.272 825.421 62.44L825.811 61.972C826.591 61.036 826.981 59.918 826.981 58.618V15.874C826.877 14.678 826.383 13.664 825.499 12.832C824.667 11.948 823.627 11.402 822.379 11.194V11.038H823.939H827.059H832.753H845.233C848.613 11.038 851.447 11.662 853.735 12.91C856.023 14.158 857.765 15.744 858.961 17.668C860.157 19.592 860.807 21.698 860.911 23.986C861.015 26.222 860.573 28.354 859.585 30.382C858.597 32.358 857.037 34.074 854.905 35.53C852.825 36.934 850.199 37.766 847.027 38.026ZM844.219 37.09C846.663 37.09 848.691 36.466 850.303 35.218C851.967 33.97 853.215 32.436 854.047 30.616C854.879 28.744 855.295 26.742 855.295 24.61C855.295 22.426 854.879 20.424 854.047 18.604C853.215 16.732 851.967 15.172 850.303 13.924C848.691 12.676 846.663 12.052 844.219 12.052H832.909V37.09H842.269H842.347H844.219ZM909.681 11.038V11.194C908.017 11.87 906.717 12.962 905.781 14.47C904.845 15.978 904.377 17.642 904.377 19.462V47.23L904.299 47.308C904.299 50.324 903.753 52.95 902.661 55.186C901.569 57.37 900.113 59.19 898.293 60.646C896.525 62.05 894.497 63.09 892.209 63.766C889.921 64.442 887.581 64.754 885.189 64.702C882.797 64.65 880.457 64.234 878.169 63.454C875.881 62.622 873.827 61.426 872.007 59.866C870.239 58.306 868.809 56.408 867.717 54.172C866.625 51.884 866.079 49.258 866.079 46.294V18.76V17.512V16.498C866.079 15.146 865.663 13.976 864.831 12.988L864.597 12.754C864.181 12.338 863.713 12 863.193 11.74C862.673 11.428 862.101 11.246 861.477 11.194V11.038H863.037H875.049H876.609V11.194C875.413 11.298 874.399 11.792 873.567 12.676L873.255 12.988C872.423 13.976 872.007 15.12 872.007 16.42V45.436C872.007 49.44 872.761 52.768 874.269 55.42C875.829 58.072 877.753 60.074 880.041 61.426C882.329 62.726 884.799 63.402 887.451 63.454C890.103 63.454 892.573 62.856 894.861 61.66C897.149 60.412 899.047 58.592 900.555 56.2C902.115 53.808 902.895 50.818 902.895 47.23V19.54C902.895 17.72 902.453 16.056 901.569 14.548C900.737 12.988 899.489 11.87 897.825 11.194V11.038H903.441H904.065H909.681ZM914.247 23.596C914.247 25.572 914.715 27.21 915.651 28.51C916.587 29.81 917.835 30.928 919.395 31.864C920.955 32.748 922.697 33.528 924.621 34.204C926.597 34.828 928.625 35.478 930.705 36.154C932.785 36.778 934.787 37.454 936.711 38.182C938.687 38.91 940.455 39.846 942.015 40.99C943.575 42.082 944.823 43.434 945.759 45.046C946.695 46.606 947.163 48.53 947.163 50.818C947.163 52.586 946.825 54.302 946.149 55.966C945.473 57.63 944.355 59.112 942.795 60.412C941.235 61.712 939.181 62.778 936.633 63.61C934.085 64.39 930.939 64.78 927.195 64.78C923.503 64.78 920.409 64.598 917.913 64.234C915.469 63.87 913.467 63.48 911.907 63.064C910.087 62.544 908.631 61.972 907.539 61.348L908.553 55.654C909.333 57.214 910.555 58.618 912.219 59.866C913.623 60.906 915.521 61.868 917.913 62.752C920.357 63.584 923.451 64 927.195 64C929.951 64 932.265 63.584 934.137 62.752C936.009 61.92 937.491 60.906 938.583 59.71C939.727 58.462 940.533 57.162 941.001 55.81C941.521 54.406 941.781 53.158 941.781 52.066C941.781 49.674 940.975 47.776 939.363 46.372C937.751 44.916 935.723 43.694 933.279 42.706C930.835 41.666 928.209 40.73 925.401 39.898C922.593 39.066 919.967 38.026 917.523 36.778C915.079 35.478 913.051 33.866 911.439 31.942C909.827 30.018 909.021 27.47 909.021 24.298C909.021 22.582 909.385 20.918 910.113 19.306C910.841 17.642 911.959 16.186 913.467 14.938C914.975 13.638 916.873 12.598 919.161 11.818C921.501 10.986 924.283 10.57 927.507 10.57C930.471 10.57 932.993 10.752 935.073 11.116C937.205 11.48 938.947 11.87 940.299 12.286C941.859 12.806 943.159 13.378 944.199 14.002L943.185 19.696C942.353 18.188 941.235 16.81 939.831 15.562C938.635 14.522 937.023 13.56 934.995 12.676C932.967 11.792 930.471 11.35 927.507 11.35C924.855 11.35 922.671 11.792 920.955 12.676C919.291 13.508 917.939 14.574 916.899 15.874C915.911 17.122 915.209 18.448 914.793 19.852C914.429 21.256 914.247 22.504 914.247 23.596ZM983.187 17.59C982.667 16.706 981.783 15.952 980.535 15.328C979.287 14.704 977.883 14.21 976.323 13.846C974.815 13.43 973.255 13.118 971.643 12.91C970.031 12.702 968.601 12.572 967.353 12.52H967.821V56.278V58.618C967.821 59.918 968.237 61.062 969.069 62.05L969.381 62.44C970.213 63.272 971.227 63.766 972.423 63.922V64H957.291V63.922C958.487 63.766 959.527 63.246 960.411 62.362L960.645 62.05C961.477 61.062 961.893 59.892 961.893 58.54V57.526V56.278V12.52H962.361C961.061 12.572 959.605 12.702 957.993 12.91C956.381 13.118 954.821 13.43 953.313 13.846C951.805 14.21 950.427 14.704 949.179 15.328C947.931 15.952 947.047 16.706 946.527 17.59L948.087 11.038H964.857H981.627L983.187 17.59Z" fill="white"/>
</g>
<path d="M1278.55 36.928V15.976H1283.37V11.62L1300.26 11.656V16.84L1283.73 16.804V27.352L1288.45 31.744H1299.14V36.928H1286.4V36.856L1286.36 36.892L1283.73 34.516V36.928H1278.55ZM1322.51 36.964H1305.99C1305.84 36.82 1305.53 36.52 1305.05 36.064C1304.57 35.608 1304.05 35.128 1303.5 34.624C1302.95 34.12 1302.43 33.64 1301.95 33.184C1301.47 32.728 1301.16 32.428 1301.02 32.284V15.976H1305.84V11.62C1305.99 11.62 1306.3 11.62 1306.78 11.62C1307.28 11.62 1307.81 11.62 1308.36 11.62C1308.91 11.62 1309.43 11.632 1309.91 11.656C1310.41 11.656 1310.74 11.656 1310.88 11.656V16.84C1310.74 16.84 1310.44 16.84 1309.98 16.84C1309.53 16.84 1309.05 16.84 1308.54 16.84C1308.04 16.816 1307.56 16.804 1307.1 16.804C1306.65 16.804 1306.35 16.804 1306.2 16.804V30.016C1306.51 30.304 1306.83 30.592 1307.14 30.88C1307.45 31.168 1307.76 31.468 1308.07 31.78H1322.55C1322.55 32.644 1322.55 33.508 1322.55 34.372C1322.55 35.236 1322.53 36.1 1322.51 36.964ZM1339.6 36.964V28.216L1328.26 16.948V28.288H1336.04V33.472H1328.26V36.928H1323.08V15.976H1327.9V11.62L1344.78 11.656V16.84L1335.64 16.804L1344.78 25.876V36.964H1339.6ZM1368.28 36.964H1363.09V33.472H1351.75V36.928H1346.57V15.976H1351.39V11.62C1351.63 11.62 1352.03 11.62 1352.58 11.62C1353.16 11.62 1353.82 11.62 1354.56 11.62C1355.31 11.62 1356.09 11.62 1356.9 11.62C1357.74 11.62 1358.53 11.62 1359.28 11.62C1360.02 11.62 1360.67 11.632 1361.22 11.656C1361.8 11.656 1362.19 11.656 1362.41 11.656V16.66C1363.37 15.82 1364.32 14.992 1365.25 14.176C1366.19 13.336 1367.14 12.496 1368.1 11.656V18.568C1366.25 20.2 1364.41 21.82 1362.59 23.428C1360.77 25.036 1358.94 26.656 1357.12 28.288C1357.36 28.288 1357.77 28.288 1358.34 28.288C1358.92 28.288 1359.58 28.288 1360.32 28.288C1361.07 28.288 1361.86 28.288 1362.7 28.288C1363.54 28.264 1364.33 28.252 1365.07 28.252C1365.82 28.252 1366.48 28.252 1367.05 28.252C1367.65 28.252 1368.06 28.252 1368.28 28.252V36.964ZM1351.75 16.804V26.092C1353.51 24.532 1355.25 22.984 1356.97 21.448C1358.73 19.912 1360.49 18.376 1362.27 16.84C1360.49 16.84 1358.73 16.84 1356.97 16.84C1355.25 16.816 1353.51 16.804 1351.75 16.804ZM1377.77 36.928H1372.59V30.484C1372.06 29.956 1371.53 29.44 1371 28.936C1370.47 28.408 1369.95 27.88 1369.42 27.352C1369.42 27.112 1369.42 26.704 1369.42 26.128C1369.42 25.552 1369.42 24.88 1369.42 24.112C1369.42 23.344 1369.42 22.528 1369.42 21.664C1369.42 20.8 1369.42 19.984 1369.42 19.216C1369.42 18.448 1369.42 17.776 1369.42 17.2C1369.44 16.6 1369.45 16.18 1369.45 15.94H1372.3V11.584C1372.44 11.584 1372.75 11.584 1373.23 11.584C1373.74 11.584 1374.27 11.584 1374.82 11.584C1375.39 11.584 1375.92 11.596 1376.4 11.62C1376.91 11.62 1377.24 11.62 1377.41 11.62V16.804C1377.31 16.804 1377.13 16.804 1376.87 16.804C1376.61 16.804 1376.32 16.804 1376.01 16.804C1375.69 16.78 1375.41 16.768 1375.14 16.768C1374.88 16.768 1374.71 16.768 1374.64 16.768V25.156L1377.77 28.288V36.928ZM1399.88 36.964H1394.69V28.216C1392.8 26.344 1390.9 24.472 1389 22.6C1387.13 20.728 1385.25 18.844 1383.35 16.948V22.672H1378.17V15.976H1382.99V11.62C1383.33 11.62 1383.93 11.62 1384.79 11.62C1385.68 11.62 1386.69 11.62 1387.82 11.62C1388.97 11.62 1390.17 11.62 1391.42 11.62C1392.69 11.62 1393.89 11.62 1395.02 11.62C1396.17 11.62 1397.18 11.632 1398.04 11.656C1398.93 11.656 1399.54 11.656 1399.88 11.656V16.84C1399.59 16.84 1399 16.84 1398.11 16.84C1397.25 16.84 1396.31 16.84 1395.3 16.84C1394.3 16.816 1393.35 16.804 1392.46 16.804C1391.6 16.804 1391.02 16.804 1390.73 16.804C1390.92 16.996 1391.25 17.332 1391.7 17.812C1392.18 18.268 1392.72 18.808 1393.32 19.432C1393.95 20.032 1394.61 20.668 1395.3 21.34C1396 22.012 1396.65 22.66 1397.25 23.284C1397.87 23.884 1398.41 24.424 1398.87 24.904C1399.35 25.36 1399.68 25.684 1399.88 25.876V36.964ZM1412.27 31.96V37.144C1412.06 37.144 1411.66 37.144 1411.09 37.144C1410.53 37.144 1409.9 37.144 1409.18 37.144C1408.46 37.144 1407.69 37.132 1406.87 37.108C1406.06 37.108 1405.29 37.108 1404.57 37.108C1403.85 37.108 1403.21 37.108 1402.66 37.108C1402.11 37.108 1401.73 37.108 1401.51 37.108V30.16C1402.61 29.2 1403.71 28.24 1404.79 27.28C1405.89 26.32 1406.99 25.348 1408.1 24.364C1406.95 23.38 1405.81 22.408 1404.68 21.448C1403.55 20.488 1402.41 19.504 1401.26 18.496V11.584C1402.17 12.4 1403.08 13.204 1403.99 13.996C1404.93 14.788 1405.87 15.58 1406.8 16.372V11.512C1407.11 11.512 1407.68 11.512 1408.49 11.512C1409.31 11.512 1410.25 11.512 1411.3 11.512C1412.36 11.512 1413.47 11.524 1414.65 11.548C1415.85 11.548 1416.98 11.548 1418.03 11.548C1419.09 11.548 1420.03 11.548 1420.84 11.548C1421.66 11.548 1422.23 11.548 1422.57 11.548C1422.59 11.548 1422.61 11.584 1422.61 11.656C1422.63 11.656 1422.64 11.656 1422.64 11.656V18.568C1420.03 20.776 1417.46 22.996 1414.94 25.228C1412.42 27.436 1409.89 29.668 1407.34 31.924C1407.49 31.924 1407.8 31.924 1408.28 31.924C1408.76 31.924 1409.26 31.936 1409.79 31.96C1410.34 31.96 1410.86 31.96 1411.34 31.96C1411.82 31.96 1412.13 31.96 1412.27 31.96ZM1407.16 16.696C1407.98 17.392 1408.78 18.088 1409.57 18.784C1410.37 19.456 1411.16 20.14 1411.95 20.836C1412.77 20.14 1413.57 19.456 1414.36 18.784C1415.15 18.112 1415.95 17.428 1416.74 16.732C1415.15 16.732 1413.56 16.732 1411.95 16.732C1410.37 16.708 1408.77 16.696 1407.16 16.696ZM1295.07 65.964V57.216L1283.73 45.948V57.288H1291.51V62.472H1283.73V65.928H1278.55V44.976H1283.37V40.62L1300.26 40.656V45.84L1291.11 45.804L1300.26 54.876V65.964H1295.07ZM1302.04 65.928V44.976H1306.87V40.62L1323.75 40.656V45.84L1307.23 45.804V56.352L1311.94 60.744H1322.63V65.928H1309.89V65.856L1309.85 65.892L1307.23 63.516V65.928H1302.04ZM1324.73 65.928V44.976H1329.55V40.62L1346.44 40.656V45.84L1329.91 45.804V56.352L1334.63 60.744H1345.32V65.928H1332.58V65.856L1332.54 65.892L1329.91 63.516V65.928H1324.73ZM1368.87 40.584V65.928C1368.53 65.928 1367.93 65.928 1367.07 65.928C1366.21 65.928 1365.2 65.928 1364.05 65.928C1362.92 65.928 1361.73 65.928 1360.48 65.928C1359.23 65.928 1358.03 65.928 1356.88 65.928C1355.75 65.928 1354.76 65.928 1353.89 65.928C1353.03 65.928 1352.43 65.928 1352.09 65.928C1351.95 65.784 1351.64 65.484 1351.16 65.028C1350.68 64.548 1350.17 64.044 1349.65 63.516C1349.12 62.988 1348.61 62.496 1348.13 62.04C1347.65 61.56 1347.34 61.248 1347.2 61.104V44.94H1352.02V40.584H1368.87ZM1354.79 61.284H1363.69V45.768H1352.38V58.872C1352.79 59.28 1353.19 59.688 1353.57 60.096C1353.98 60.48 1354.39 60.876 1354.79 61.284ZM1392.61 40.584V65.928C1392.27 65.928 1391.67 65.928 1390.81 65.928C1389.95 65.928 1388.94 65.928 1387.79 65.928C1386.66 65.928 1385.47 65.928 1384.22 65.928C1382.97 65.928 1381.77 65.928 1380.62 65.928C1379.49 65.928 1378.5 65.928 1377.63 65.928C1376.77 65.928 1376.17 65.928 1375.83 65.928C1375.69 65.784 1375.38 65.484 1374.9 65.028C1374.42 64.548 1373.91 64.044 1373.39 63.516C1372.86 62.988 1372.35 62.496 1371.87 62.04C1371.39 61.56 1371.08 61.248 1370.94 61.104V44.94H1375.76V40.584H1380.87V45.768H1376.12V58.872C1376.53 59.28 1376.93 59.688 1377.31 60.096C1377.72 60.48 1378.13 60.876 1378.53 61.284H1387.43V40.584H1392.61ZM1416.6 65.892H1411.42V57.18C1409.52 55.284 1407.63 53.4 1405.73 51.528C1403.86 49.656 1401.97 47.784 1400.08 45.912V65.892H1394.89V44.904H1399.72V40.584C1400.08 40.584 1400.69 40.584 1401.55 40.584C1402.44 40.584 1403.45 40.584 1404.58 40.584C1405.73 40.584 1406.93 40.584 1408.18 40.584C1409.45 40.584 1410.66 40.584 1411.81 40.584C1412.97 40.584 1413.97 40.584 1414.84 40.584C1415.73 40.584 1416.34 40.584 1416.67 40.584C1416.67 41.448 1416.66 42.312 1416.64 43.176C1416.64 44.04 1416.64 44.904 1416.64 45.768H1407.46C1407.65 45.936 1407.97 46.26 1408.43 46.74C1408.91 47.196 1409.45 47.736 1410.05 48.36C1410.67 48.96 1411.33 49.608 1412.03 50.304C1412.73 50.976 1413.37 51.624 1413.97 52.248C1414.6 52.848 1415.14 53.388 1415.59 53.868C1416.07 54.324 1416.41 54.636 1416.6 54.804V65.892ZM1438.98 65.964H1433.79V57.216C1431.9 55.344 1430 53.472 1428.11 51.6C1426.23 49.728 1424.35 47.844 1422.45 45.948V51.672H1417.27V44.976H1422.09V40.62C1422.43 40.62 1423.03 40.62 1423.89 40.62C1424.78 40.62 1425.79 40.62 1426.92 40.62C1428.07 40.62 1429.27 40.62 1430.52 40.62C1431.79 40.62 1432.99 40.62 1434.12 40.62C1435.27 40.62 1436.28 40.632 1437.14 40.656C1438.03 40.656 1438.64 40.656 1438.98 40.656V45.84C1438.69 45.84 1438.1 45.84 1437.21 45.84C1436.35 45.84 1435.41 45.84 1434.41 45.84C1433.4 45.816 1432.45 45.804 1431.56 45.804C1430.7 45.804 1430.12 45.804 1429.83 45.804C1430.03 45.996 1430.35 46.332 1430.81 46.812C1431.29 47.268 1431.83 47.808 1432.43 48.432C1433.05 49.032 1433.71 49.668 1434.41 50.34C1435.1 51.012 1435.75 51.66 1436.35 52.284C1436.97 52.884 1437.51 53.424 1437.97 53.904C1438.45 54.36 1438.79 54.684 1438.98 54.876V65.964ZM1457.32 65.964V57.216L1445.98 45.948V57.288H1453.75V62.472H1445.98V65.928H1440.79V44.976H1445.62V40.62L1462.5 40.656V45.84L1453.36 45.804L1462.5 54.876V65.964H1457.32ZM1464.29 65.892V44.94H1469.11V40.584H1482.54V45.768H1476.81L1486.07 55.092L1482.65 58.98L1469.47 58.944V60.744H1485.96V65.928L1464.29 65.892ZM1477.28 53.796L1469.47 45.948V53.76L1477.28 53.796ZM1494.96 65.928H1489.78V59.484C1489.25 58.956 1488.72 58.44 1488.19 57.936C1487.66 57.408 1487.14 56.88 1486.61 56.352C1486.61 56.112 1486.61 55.704 1486.61 55.128C1486.61 54.552 1486.61 53.88 1486.61 53.112C1486.61 52.344 1486.61 51.528 1486.61 50.664C1486.61 49.8 1486.61 48.984 1486.61 48.216C1486.61 47.448 1486.61 46.776 1486.61 46.2C1486.63 45.6 1486.64 45.18 1486.64 44.94H1489.49V40.584C1489.63 40.584 1489.94 40.584 1490.42 40.584C1490.93 40.584 1491.46 40.584 1492.01 40.584C1492.58 40.584 1493.11 40.596 1493.59 40.62C1494.1 40.62 1494.43 40.62 1494.6 40.62V45.804C1494.5 45.804 1494.32 45.804 1494.06 45.804C1493.8 45.804 1493.51 45.804 1493.2 45.804C1492.88 45.78 1492.6 45.768 1492.33 45.768C1492.07 45.768 1491.9 45.768 1491.83 45.768V54.156L1494.96 57.288V65.928ZM1517.82 65.964H1501.3C1501.15 65.82 1500.84 65.52 1500.36 65.064C1499.88 64.608 1499.36 64.128 1498.81 63.624C1498.26 63.12 1497.74 62.64 1497.26 62.184C1496.78 61.728 1496.47 61.428 1496.33 61.284V44.976H1501.15V40.62C1501.3 40.62 1501.61 40.62 1502.09 40.62C1502.59 40.62 1503.12 40.62 1503.67 40.62C1504.22 40.62 1504.74 40.632 1505.22 40.656C1505.72 40.656 1506.05 40.656 1506.19 40.656V45.84C1506.05 45.84 1505.75 45.84 1505.29 45.84C1504.84 45.84 1504.36 45.84 1503.85 45.84C1503.35 45.816 1502.87 45.804 1502.41 45.804C1501.96 45.804 1501.66 45.804 1501.51 45.804V59.016C1501.82 59.304 1502.14 59.592 1502.45 59.88C1502.76 60.168 1503.07 60.468 1503.38 60.78H1517.86C1517.86 61.644 1517.86 62.508 1517.86 63.372C1517.86 64.236 1517.84 65.1 1517.82 65.964ZM1524.55 65.928H1519.36V59.484C1518.83 58.956 1518.31 58.44 1517.78 57.936C1517.25 57.408 1516.72 56.88 1516.19 56.352C1516.19 56.112 1516.19 55.704 1516.19 55.128C1516.19 54.552 1516.19 53.88 1516.19 53.112C1516.19 52.344 1516.19 51.528 1516.19 50.664C1516.19 49.8 1516.19 48.984 1516.19 48.216C1516.19 47.448 1516.19 46.776 1516.19 46.2C1516.22 45.6 1516.23 45.18 1516.23 44.94H1519.07V40.584C1519.22 40.584 1519.53 40.584 1520.01 40.584C1520.51 40.584 1521.04 40.584 1521.59 40.584C1522.17 40.584 1522.7 40.596 1523.18 40.62C1523.68 40.62 1524.02 40.62 1524.19 40.62V45.804C1524.09 45.804 1523.91 45.804 1523.65 45.804C1523.38 45.804 1523.09 45.804 1522.78 45.804C1522.47 45.78 1522.18 45.768 1521.92 45.768C1521.65 45.768 1521.49 45.768 1521.41 45.768V54.156L1524.55 57.288V65.928ZM1546.65 65.964H1541.47V57.216C1539.57 55.344 1537.67 53.472 1535.78 51.6C1533.91 49.728 1532.02 47.844 1530.13 45.948V51.672H1524.94V44.976H1529.77V40.62C1530.1 40.62 1530.7 40.62 1531.57 40.62C1532.45 40.62 1533.46 40.62 1534.59 40.62C1535.74 40.62 1536.94 40.62 1538.19 40.62C1539.46 40.62 1540.66 40.62 1541.79 40.62C1542.94 40.62 1543.95 40.632 1544.81 40.656C1545.7 40.656 1546.31 40.656 1546.65 40.656V45.84C1546.36 45.84 1545.77 45.84 1544.89 45.84C1544.02 45.84 1543.09 45.84 1542.08 45.84C1541.07 45.816 1540.12 45.804 1539.23 45.804C1538.37 45.804 1537.79 45.804 1537.51 45.804C1537.7 45.996 1538.02 46.332 1538.48 46.812C1538.96 47.268 1539.5 47.808 1540.1 48.432C1540.72 49.032 1541.38 49.668 1542.08 50.34C1542.77 51.012 1543.42 51.66 1544.02 52.284C1544.65 52.884 1545.19 53.424 1545.64 53.904C1546.12 54.36 1546.46 54.684 1546.65 54.876V65.964ZM1559.05 60.96V66.144C1558.83 66.144 1558.44 66.144 1557.86 66.144C1557.31 66.144 1556.67 66.144 1555.95 66.144C1555.23 66.144 1554.47 66.132 1553.65 66.108C1552.83 66.108 1552.07 66.108 1551.35 66.108C1550.63 66.108 1549.99 66.108 1549.44 66.108C1548.89 66.108 1548.5 66.108 1548.29 66.108V59.16C1549.39 58.2 1550.48 57.24 1551.56 56.28C1552.67 55.32 1553.77 54.348 1554.87 53.364C1553.72 52.38 1552.58 51.408 1551.45 50.448C1550.33 49.488 1549.19 48.504 1548.03 47.496V40.584C1548.95 41.4 1549.86 42.204 1550.77 42.996C1551.71 43.788 1552.64 44.58 1553.58 45.372V40.512C1553.89 40.512 1554.45 40.512 1555.27 40.512C1556.09 40.512 1557.02 40.512 1558.08 40.512C1559.13 40.512 1560.25 40.524 1561.43 40.548C1562.63 40.548 1563.75 40.548 1564.81 40.548C1565.87 40.548 1566.8 40.548 1567.62 40.548C1568.43 40.548 1569.01 40.548 1569.35 40.548C1569.37 40.548 1569.38 40.584 1569.38 40.656C1569.41 40.656 1569.42 40.656 1569.42 40.656V47.568C1566.8 49.776 1564.23 51.996 1561.71 54.228C1559.19 56.436 1556.66 58.668 1554.12 60.924C1554.26 60.924 1554.57 60.924 1555.05 60.924C1555.53 60.924 1556.04 60.936 1556.57 60.96C1557.12 60.96 1557.63 60.96 1558.11 60.96C1558.59 60.96 1558.91 60.96 1559.05 60.96ZM1553.94 45.696C1554.75 46.392 1555.56 47.088 1556.35 47.784C1557.14 48.456 1557.93 49.14 1558.73 49.836C1559.54 49.14 1560.35 48.456 1561.14 47.784C1561.93 47.112 1562.72 46.428 1563.51 45.732C1561.93 45.732 1560.33 45.732 1558.73 45.732C1557.14 45.708 1555.55 45.696 1553.94 45.696Z" fill="white"/>
<g filter="url(#filter1_d_2506_1479)">
<rect x="995.998" y="11" width="268" height="52" stroke="#FF4000" stroke-width="2" shape-rendering="crispEdges"/>
</g>
<g filter="url(#filter2_d_2506_1479)">
<rect x="1006" y="21" width="248" height="32" stroke="#FF4000" stroke-width="2" shape-rendering="crispEdges"/>
</g>
<g filter="url(#filter3_d_2506_1479)">
<rect x="1017" y="30.0005" width="226" height="14" stroke="#FF4000" stroke-width="2" shape-rendering="crispEdges"/>
</g>
<g filter="url(#filter4_d_2506_1479)">
<path d="M997 12.0005L1017 30.0005" stroke="#FF4000" stroke-width="2"/>
</g>
<g filter="url(#filter5_d_2506_1479)">
<path d="M997 62L1017 44" stroke="#FF4000" stroke-width="2"/>
</g>
<g filter="url(#filter6_d_2506_1479)">
<path d="M1263 12.0005L1243 30.0005" stroke="#FF4000" stroke-width="2"/>
</g>
<g filter="url(#filter7_d_2506_1479)">
<path d="M1263 62L1243 44" stroke="#FF4000" stroke-width="2"/>
</g>
<g filter="url(#filter8_d_2506_1479)">
<path d="M1563 36H1425V10H1563V36ZM1569 36H1565V10H1569V36Z" fill="#FF4000"/>
</g>
<defs>
<filter id="filter0_d_2506_1479" x="0.560547" y="0.570068" width="992.627" height="74.21" filterUnits="userSpaceOnUse" color-interpolation-filters="sRGB">
<feFlood flood-opacity="0" result="BackgroundImageFix"/>
<feColorMatrix in="SourceAlpha" type="matrix" values="0 0 0 0 0 0 0 0 0 0 0 0 0 0 0 0 0 0 127 0" result="hardAlpha"/>
<feOffset/>
<feGaussianBlur stdDeviation="5"/>
<feComposite in2="hardAlpha" operator="out"/>
<feColorMatrix type="matrix" values="0 0 0 0 1 0 0 0 0 1 0 0 0 0 1 0 0 0 1 0"/>
<feBlend mode="normal" in2="BackgroundImageFix" result="effect1_dropShadow_2506_1479"/>
<feBlend mode="normal" in="SourceGraphic" in2="effect1_dropShadow_2506_1479" result="shape"/>
</filter>
<filter id="filter1_d_2506_1479" x="990.998" y="6" width="278" height="62" filterUnits="userSpaceOnUse" color-interpolation-filters="sRGB">
<feFlood flood-opacity="0" result="BackgroundImageFix"/>
<feColorMatrix in="SourceAlpha" type="matrix" values="0 0 0 0 0 0 0 0 0 0 0 0 0 0 0 0 0 0 127 0" result="hardAlpha"/>
<feOffset/>
<feGaussianBlur stdDeviation="2"/>
<feComposite in2="hardAlpha" operator="out"/>
<feColorMatrix type="matrix" values="0 0 0 0 1 0 0 0 0 0.25098 0 0 0 0 0 0 0 0 1 0"/>
<feBlend mode="normal" in2="BackgroundImageFix" result="effect1_dropShadow_2506_1479"/>
<feBlend mode="normal" in="SourceGraphic" in2="effect1_dropShadow_2506_1479" result="shape"/>
</filter>
<filter id="filter2_d_2506_1479" x="1001" y="16" width="258" height="42" filterUnits="userSpaceOnUse" color-interpolation-filters="sRGB">
<feFlood flood-opacity="0" result="BackgroundImageFix"/>
<feColorMatrix in="SourceAlpha" type="matrix" values="0 0 0 0 0 0 0 0 0 0 0 0 0 0 0 0 0 0 127 0" result="hardAlpha"/>
<feOffset/>
<feGaussianBlur stdDeviation="2"/>
<feComposite in2="hardAlpha" operator="out"/>
<feColorMatrix type="matrix" values="0 0 0 0 1 0 0 0 0 0.25098 0 0 0 0 0 0 0 0 1 0"/>
<feBlend mode="normal" in2="BackgroundImageFix" result="effect1_dropShadow_2506_1479"/>
<feBlend mode="normal" in="SourceGraphic" in2="effect1_dropShadow_2506_1479" result="shape"/>
</filter>
<filter id="filter3_d_2506_1479" x="1012" y="25.0005" width="236" height="24" filterUnits="userSpaceOnUse" color-interpolation-filters="sRGB">
<feFlood flood-opacity="0" result="BackgroundImageFix"/>
<feColorMatrix in="SourceAlpha" type="matrix" values="0 0 0 0 0 0 0 0 0 0 0 0 0 0 0 0 0 0 127 0" result="hardAlpha"/>
<feOffset/>
<feGaussianBlur stdDeviation="2"/>
<feComposite in2="hardAlpha" operator="out"/>
<feColorMatrix type="matrix" values="0 0 0 0 1 0 0 0 0 0.25098 0 0 0 0 0 0 0 0 1 0"/>
<feBlend mode="normal" in2="BackgroundImageFix" result="effect1_dropShadow_2506_1479"/>
<feBlend mode="normal" in="SourceGraphic" in2="effect1_dropShadow_2506_1479" result="shape"/>
</filter>
<filter id="filter4_d_2506_1479" x="992.33" y="7.25708" width="29.3398" height="27.4868" filterUnits="userSpaceOnUse" color-interpolation-filters="sRGB">
<feFlood flood-opacity="0" result="BackgroundImageFix"/>
<feColorMatrix in="SourceAlpha" type="matrix" values="0 0 0 0 0 0 0 0 0 0 0 0 0 0 0 0 0 0 127 0" result="hardAlpha"/>
<feOffset/>
<feGaussianBlur stdDeviation="2"/>
<feComposite in2="hardAlpha" operator="out"/>
<feColorMatrix type="matrix" values="0 0 0 0 1 0 0 0 0 0.25098 0 0 0 0 0 0 0 0 1 0"/>
<feBlend mode="normal" in2="BackgroundImageFix" result="effect1_dropShadow_2506_1479"/>
<feBlend mode="normal" in="SourceGraphic" in2="effect1_dropShadow_2506_1479" result="shape"/>
</filter>
<filter id="filter5_d_2506_1479" x="992.33" y="39.2566" width="29.3398" height="27.4868" filterUnits="userSpaceOnUse" color-interpolation-filters="sRGB">
<feFlood flood-opacity="0" result="BackgroundImageFix"/>
<feColorMatrix in="SourceAlpha" type="matrix" values="0 0 0 0 0 0 0 0 0 0 0 0 0 0 0 0 0 0 127 0" result="hardAlpha"/>
<feOffset/>
<feGaussianBlur stdDeviation="2"/>
<feComposite in2="hardAlpha" operator="out"/>
<feColorMatrix type="matrix" values="0 0 0 0 1 0 0 0 0 0.25098 0 0 0 0 0 0 0 0 1 0"/>
<feBlend mode="normal" in2="BackgroundImageFix" result="effect1_dropShadow_2506_1479"/>
<feBlend mode="normal" in="SourceGraphic" in2="effect1_dropShadow_2506_1479" result="shape"/>
</filter>
<filter id="filter6_d_2506_1479" x="1238.33" y="7.25708" width="29.3398" height="27.4868" filterUnits="userSpaceOnUse" color-interpolation-filters="sRGB">
<feFlood flood-opacity="0" result="BackgroundImageFix"/>
<feColorMatrix in="SourceAlpha" type="matrix" values="0 0 0 0 0 0 0 0 0 0 0 0 0 0 0 0 0 0 127 0" result="hardAlpha"/>
<feOffset/>
<feGaussianBlur stdDeviation="2"/>
<feComposite in2="hardAlpha" operator="out"/>
<feColorMatrix type="matrix" values="0 0 0 0 1 0 0 0 0 0.25098 0 0 0 0 0 0 0 0 1 0"/>
<feBlend mode="normal" in2="BackgroundImageFix" result="effect1_dropShadow_2506_1479"/>
<feBlend mode="normal" in="SourceGraphic" in2="effect1_dropShadow_2506_1479" result="shape"/>
</filter>
<filter id="filter7_d_2506_1479" x="1238.33" y="39.2566" width="29.3398" height="27.4868" filterUnits="userSpaceOnUse" color-interpolation-filters="sRGB">
<feFlood flood-opacity="0" result="BackgroundImageFix"/>
<feColorMatrix in="SourceAlpha" type="matrix" values="0 0 0 0 0 0 0 0 0 0 0 0 0 0 0 0 0 0 127 0" result="hardAlpha"/>
<feOffset/>
<feGaussianBlur stdDeviation="2"/>
<feComposite in2="hardAlpha" operator="out"/>
<feColorMatrix type="matrix" values="0 0 0 0 1 0 0 0 0 0.25098 0 0 0 0 0 0 0 0 1 0"/>
<feBlend mode="normal" in2="BackgroundImageFix" result="effect1_dropShadow_2506_1479"/>
<feBlend mode="normal" in="SourceGraphic" in2="effect1_dropShadow_2506_1479" result="shape"/>
</filter>
<filter id="filter8_d_2506_1479" x="1415" y="0" width="164" height="46" filterUnits="userSpaceOnUse" color-interpolation-filters="sRGB">
<feFlood flood-opacity="0" result="BackgroundImageFix"/>
<feColorMatrix in="SourceAlpha" type="matrix" values="0 0 0 0 0 0 0 0 0 0 0 0 0 0 0 0 0 0 127 0" result="hardAlpha"/>
<feOffset/>
<feGaussianBlur stdDeviation="5"/>
<feComposite in2="hardAlpha" operator="out"/>
<feColorMatrix type="matrix" values="0 0 0 0 1 0 0 0 0 0.25098 0 0 0 0 0 0 0 0 1 0"/>
<feBlend mode="normal" in2="BackgroundImageFix" result="effect1_dropShadow_2506_1479"/>
<feBlend mode="normal" in="SourceGraphic" in2="effect1_dropShadow_2506_1479" result="shape"/>
</filter>
</defs>
</svg>
