<svg width="355" height="419" viewBox="0 0 355 419" fill="none" xmlns="http://www.w3.org/2000/svg">
<mask id="path-1-outside-1_2681_2925" maskUnits="userSpaceOnUse" x="1" y="112" width="353" height="306" fill="black">
<rect fill="white" x="1" y="112" width="353" height="306"/>
<path d="M199.75 113C216.319 113 229.75 126.431 229.75 143V155.477C229.75 161.982 227.635 168.312 223.725 173.511L139.884 284.966C125.011 304.737 139.116 333 163.857 333H204.147C213.718 333 222.714 328.433 228.363 320.708L278.199 255.292C283.848 247.567 292.844 243 302.415 243H323C339.569 243 353 256.431 353 273V387C353 403.569 339.569 417 323 417H32C15.4315 417 2 403.569 2 387V143C2 126.431 15.4315 113 32 113H199.75ZM30 377C23.3726 377 18 382.373 18 389C18 395.627 23.3726 401 30 401C36.6274 401 42 395.627 42 389C42 382.373 36.6274 377 30 377ZM325 377C318.373 377 313 382.373 313 389C313 395.627 318.373 401 325 401C331.627 401 337 395.627 337 389C337 382.373 331.627 377 325 377ZM30 129C23.3726 129 18 134.373 18 141C18 147.627 23.3726 153 30 153C36.6274 153 42 147.627 42 141C42 134.373 36.6274 129 30 129Z"/>
</mask>
<path d="M229.75 143L230.25 143V143L229.75 143ZM229.75 155.477L230.25 155.477V155.477H229.75ZM223.725 173.511L224.124 173.811L224.124 173.811L223.725 173.511ZM139.884 284.966L140.283 285.266L140.283 285.266L139.884 284.966ZM163.857 333L163.857 333.5H163.857V333ZM204.147 333L204.147 333.5L204.147 333.5L204.147 333ZM228.363 320.708L227.965 320.405L227.96 320.413L228.363 320.708ZM278.199 255.292L278.597 255.595L278.603 255.587L278.199 255.292ZM302.415 243L302.415 242.5L302.415 242.5L302.415 243ZM199.75 113V112.5H198.751V113V113.5H199.75V113ZM196.754 113V112.5H194.757V113V113.5H196.754V113ZM192.76 113V112.5H190.763V113V113.5H192.76V113ZM188.766 113V112.5H186.769V113V113.5H188.766V113ZM184.772 113V112.5H182.775V113V113.5H184.772V113ZM180.778 113V112.5H178.781V113V113.5H180.778V113ZM176.784 113V112.5H174.787V113V113.5H176.784V113ZM172.79 113V112.5H170.793V113V113.5H172.79V113ZM168.796 113V112.5H166.799V113V113.5H168.796V113ZM164.802 113V112.5H162.805V113V113.5H164.802V113ZM160.808 113V112.5H158.811V113V113.5H160.808V113ZM156.814 113V112.5H154.817V113V113.5H156.814V113ZM152.82 113V112.5H150.823V113V113.5H152.82V113ZM148.826 113V112.5H146.829V113V113.5H148.826V113ZM144.832 113V112.5H142.835V113V113.5H144.832V113ZM140.838 113V112.5H138.841V113V113.5H140.838V113ZM136.844 113V112.5H134.847V113V113.5H136.844V113ZM132.85 113V112.5H130.853V113V113.5H132.85V113ZM128.856 113V112.5H126.859V113V113.5H128.856V113ZM124.862 113V112.5H122.865V113V113.5H124.862V113ZM120.868 113V112.5H118.871V113V113.5H120.868V113ZM116.873 113V112.5H114.876V113V113.5H116.873V113ZM112.879 113V112.5H110.882V113V113.5H112.879V113ZM108.885 113V112.5H106.888V113V113.5H108.885V113ZM104.891 113V112.5H102.894V113V113.5H104.891V113ZM100.897 113V112.5H98.9003V113V113.5H100.897V113ZM96.9032 113V112.5H94.9062V113V113.5H96.9032V113ZM92.9092 113V112.5H90.9122V113V113.5H92.9092V113ZM88.9151 113V112.5H86.9181V113V113.5H88.9151V113ZM84.9211 113V112.5H82.9241V113V113.5H84.9211V113ZM80.927 113V112.5H78.93V113V113.5H80.927V113ZM76.933 113V112.5H74.936V113V113.5H76.933V113ZM72.939 113V112.5H70.9419V113V113.5H72.939V113ZM68.9449 113V112.5H66.9479V113V113.5H68.9449V113ZM64.9508 113V112.5H62.9538V113V113.5H64.9508V113ZM60.9568 113V112.5H58.9598V113V113.5H60.9568V113ZM56.9628 113V112.5H54.9657V113V113.5H56.9628V113ZM52.9687 113V112.5H50.9717V113V113.5H52.9687V113ZM48.9747 113V112.5H46.9776V113V113.5H48.9747V113ZM44.9806 113V112.5H42.9836V113V113.5H44.9806V113ZM40.9866 113V112.5H38.9895V113V113.5H40.9866V113ZM36.9925 113V112.5H34.9955V113V113.5H36.9925V113ZM32.9985 113V112.5H32V113V113.5H32.9985V113ZM32 113V112.5C31.6655 112.5 31.3322 112.505 31.0002 112.516L31.0163 113.016L31.0324 113.516C31.3536 113.505 31.6762 113.5 32 113.5V113ZM29.0583 113.142L29.0099 112.645C28.3435 112.71 27.6833 112.796 27.0301 112.903L27.111 113.396L27.1918 113.89C27.8236 113.786 28.4621 113.703 29.1068 113.64L29.0583 113.142ZM25.1846 113.778L25.0715 113.291C24.4206 113.442 23.7777 113.614 23.1435 113.806L23.2885 114.284L23.4335 114.763C24.0467 114.577 24.6684 114.411 25.2978 114.265L25.1846 113.778ZM21.4293 114.915L21.2531 114.447C20.6283 114.683 20.0133 114.938 19.4088 115.212L19.6155 115.668L19.8221 116.123C20.4066 115.858 21.0013 115.611 21.6055 115.383L21.4293 114.915ZM17.8556 116.537L17.6195 116.096C17.0318 116.411 16.4555 116.745 15.8917 117.096L16.1561 117.52L16.4205 117.945C16.9659 117.605 17.5232 117.282 18.0917 116.978L17.8556 116.537ZM14.5246 118.613L14.233 118.206C13.692 118.595 13.1642 119 12.6505 119.422L12.9679 119.809L13.2853 120.195C13.7823 119.787 14.2928 119.394 14.8161 119.019L14.5246 118.613ZM11.4922 121.104L11.1504 120.739C10.6648 121.194 10.1941 121.665 9.73908 122.15L10.1039 122.492L10.4688 122.834C10.909 122.364 11.3643 121.909 11.8341 121.469L11.4922 121.104ZM8.8088 123.968L8.42247 123.65C8.00039 124.164 7.59477 124.692 7.20641 125.233L7.61259 125.525L8.01877 125.816C8.39444 125.293 8.78682 124.782 9.19513 124.285L8.8088 123.968ZM6.52031 127.156L6.09596 126.892C5.74457 127.456 5.41108 128.032 5.09627 128.62L5.53703 128.856L5.97779 129.092C6.28225 128.523 6.6048 127.966 6.94466 127.421L6.52031 127.156ZM4.66752 130.615L4.21221 130.409C3.93789 131.013 3.6827 131.628 3.44743 132.253L3.91535 132.429L4.38327 132.605C4.61078 132.001 4.85754 131.407 5.12282 130.822L4.66752 130.615ZM3.2844 134.289L2.80588 134.144C2.61374 134.778 2.4417 135.421 2.2905 136.071L2.77753 136.185L3.26457 136.298C3.41078 135.668 3.57713 135.047 3.76292 134.433L3.2844 134.289ZM2.39639 138.111L1.90297 138.03C1.79591 138.683 1.7096 139.343 1.64474 140.01L2.14239 140.058L2.64004 140.107C2.70278 139.462 2.78626 138.824 2.88981 138.192L2.39639 138.111ZM2.01582 142.016L1.51608 142C1.50539 142.332 1.5 142.665 1.5 143H2H2.5C2.5 142.676 2.50522 142.354 2.51556 142.032L2.01582 142.016ZM2 143H1.5V144H2H2.5V143H2ZM2 146H1.5V148H2H2.5V146H2ZM2 150H1.5V152H2H2.5V150H2ZM2 154H1.5V156H2H2.5V154H2ZM2 158H1.5V160H2H2.5V158H2ZM2 162H1.5V164H2H2.5V162H2ZM2 166H1.5V168H2H2.5V166H2ZM2 170H1.5V172H2H2.5V170H2ZM2 174H1.5V176H2H2.5V174H2ZM2 178H1.5V180H2H2.5V178H2ZM2 182H1.5V184H2H2.5V182H2ZM2 186H1.5V188H2H2.5V186H2ZM2 190H1.5V192H2H2.5V190H2ZM2 194H1.5V196H2H2.5V194H2ZM2 198H1.5V200H2H2.5V198H2ZM2 202H1.5V204H2H2.5V202H2ZM2 206H1.5V208H2H2.5V206H2ZM2 210H1.5V212H2H2.5V210H2ZM2 214H1.5V216H2H2.5V214H2ZM2 218H1.5V220H2H2.5V218H2ZM2 222H1.5V224H2H2.5V222H2ZM2 226H1.5V228H2H2.5V226H2ZM2 230H1.5V232H2H2.5V230H2ZM2 234H1.5V236H2H2.5V234H2ZM2 238H1.5V240H2H2.5V238H2ZM2 242H1.5V244H2H2.5V242H2ZM2 246H1.5V248H2H2.5V246H2ZM2 250H1.5V252H2H2.5V250H2ZM2 254H1.5V256H2H2.5V254H2ZM2 258H1.5V260H2H2.5V258H2ZM2 262H1.5V264H2H2.5V262H2ZM2 266H1.5V268H2H2.5V266H2ZM2 270H1.5V272H2H2.5V270H2ZM2 274H1.5V276H2H2.5V274H2ZM2 278H1.5V280H2H2.5V278H2ZM2 282H1.5V284H2H2.5V282H2ZM2 286H1.5V288H2H2.5V286H2ZM2 290H1.5V292H2H2.5V290H2ZM2 294H1.5V296H2H2.5V294H2ZM2 298H1.5V300H2H2.5V298H2ZM2 302H1.5V304H2H2.5V302H2ZM2 306H1.5V308H2H2.5V306H2ZM2 310H1.5V312H2H2.5V310H2ZM2 314H1.5V316H2H2.5V314H2ZM2 318H1.5V320H2H2.5V318H2ZM2 322H1.5V324H2H2.5V322H2ZM2 326H1.5V328H2H2.5V326H2ZM2 330H1.5V332H2H2.5V330H2ZM2 334H1.5V336H2H2.5V334H2ZM2 338H1.5V340H2H2.5V338H2ZM2 342H1.5V344H2H2.5V342H2ZM2 346H1.5V348H2H2.5V346H2ZM2 350H1.5V352H2H2.5V350H2ZM2 354H1.5V356H2H2.5V354H2ZM2 358H1.5V360H2H2.5V358H2ZM2 362H1.5V364H2H2.5V362H2ZM2 366H1.5V368H2H2.5V366H2ZM2 370H1.5V372H2H2.5V370H2ZM2 374H1.5V376H2H2.5V374H2ZM2 378H1.5V380H2H2.5V378H2ZM2 382H1.5V384H2H2.5V382H2ZM2 386H1.5V387H2H2.5V386H2ZM2 387H1.5C1.5 387.335 1.50539 387.668 1.51608 388L2.01582 387.984L2.51556 387.968C2.50522 387.646 2.5 387.324 2.5 387H2ZM2.14239 389.942L1.64474 389.99C1.7096 390.657 1.79591 391.317 1.90297 391.97L2.39639 391.889L2.88981 391.808C2.78626 391.176 2.70278 390.538 2.64004 389.893L2.14239 389.942ZM2.77753 393.815L2.2905 393.929C2.4417 394.579 2.61374 395.222 2.80588 395.856L3.2844 395.711L3.76292 395.567C3.57713 394.953 3.41078 394.332 3.26457 393.702L2.77753 393.815ZM3.91535 397.571L3.44743 397.747C3.6827 398.372 3.93789 398.987 4.21221 399.591L4.66752 399.385L5.12282 399.178C4.85754 398.593 4.61078 397.999 4.38327 397.395L3.91535 397.571ZM5.53703 401.144L5.09627 401.38C5.41108 401.968 5.74457 402.544 6.09596 403.108L6.52031 402.844L6.94466 402.579C6.60479 402.034 6.28225 401.477 5.97779 400.908L5.53703 401.144ZM7.61259 404.475L7.20641 404.767C7.59477 405.308 8.00039 405.836 8.42247 406.35L8.8088 406.032L9.19513 405.715C8.78682 405.218 8.39444 404.707 8.01877 404.184L7.61259 404.475ZM10.1039 407.508L9.73908 407.85C10.1941 408.335 10.6648 408.806 11.1504 409.261L11.4922 408.896L11.8341 408.531C11.3643 408.091 10.909 407.636 10.4688 407.166L10.1039 407.508ZM12.9679 410.191L12.6505 410.578C13.1642 411 13.692 411.405 14.233 411.794L14.5246 411.387L14.8161 410.981C14.2928 410.606 13.7823 410.213 13.2853 409.805L12.9679 410.191ZM16.1561 412.48L15.8917 412.904C16.4555 413.255 17.0318 413.589 17.6195 413.904L17.8556 413.463L18.0917 413.022C17.5232 412.718 16.9659 412.395 16.4205 412.055L16.1561 412.48ZM19.6155 414.332L19.4088 414.788C20.0133 415.062 20.6283 415.317 21.2531 415.553L21.4293 415.085L21.6055 414.617C21.0013 414.389 20.4066 414.142 19.8221 413.877L19.6155 414.332ZM23.2885 415.716L23.1435 416.194C23.7777 416.386 24.4206 416.558 25.0715 416.709L25.1846 416.222L25.2978 415.735C24.6684 415.589 24.0467 415.423 23.4335 415.237L23.2885 415.716ZM27.111 416.604L27.0301 417.097C27.6833 417.204 28.3435 417.29 29.0099 417.355L29.0583 416.858L29.1068 416.36C28.4621 416.297 27.8236 416.214 27.1918 416.11L27.111 416.604ZM31.0163 416.984L31.0002 417.484C31.3322 417.495 31.6655 417.5 32 417.5V417V416.5C31.6762 416.5 31.3536 416.495 31.0324 416.484L31.0163 416.984ZM32 417V417.5H32.9966V417V416.5H32V417ZM34.9897 417V417.5H36.9829V417V416.5H34.9897V417ZM38.976 417V417.5H40.9692V417V416.5H38.976V417ZM42.9623 417V417.5H44.9555V417V416.5H42.9623V417ZM46.9486 417V417.5H48.9418V417V416.5H46.9486V417ZM50.9349 417V417.5H52.9281V417V416.5H50.9349V417ZM54.9212 417V417.5H56.9144V417V416.5H54.9212V417ZM58.9075 417V417.5H60.9007V417V416.5H58.9075V417ZM62.8938 417V417.5H64.887V417V416.5H62.8938V417ZM66.8801 417V417.5H68.8733V417V416.5H66.8801V417ZM70.8664 417V417.5H72.8596V417V416.5H70.8664V417ZM74.8527 417V417.5H76.8459V417V416.5H74.8527V417ZM78.839 417V417.5H80.8322V417V416.5H78.839V417ZM82.8253 417V417.5H84.8185V417V416.5H82.8253V417ZM86.8116 417V417.5H88.8048V417V416.5H86.8116V417ZM90.7979 417V417.5H92.7911V417V416.5H90.7979V417ZM94.7842 417V417.5H96.7774V417V416.5H94.7842V417ZM98.7705 417V417.5H100.764V417V416.5H98.7705V417ZM102.757 417V417.5H104.75V417V416.5H102.757V417ZM106.743 417V417.5H108.736V417V416.5H106.743V417ZM110.729 417V417.5H112.723V417V416.5H110.729V417ZM114.716 417V417.5H116.709V417V416.5H114.716V417ZM118.702 417V417.5H120.695V417V416.5H118.702V417ZM122.688 417V417.5H124.681V417V416.5H122.688V417ZM126.675 417V417.5H128.668V417V416.5H126.675V417ZM130.661 417V417.5H132.654V417V416.5H130.661V417ZM134.647 417V417.5H136.64V417V416.5H134.647V417ZM138.633 417V417.5H140.627V417V416.5H138.633V417ZM142.62 417V417.5H144.613V417V416.5H142.62V417ZM146.606 417V417.5H148.599V417V416.5H146.606V417ZM150.592 417V417.5H152.586V417V416.5H150.592V417ZM154.579 417V417.5H156.572V417V416.5H154.579V417ZM158.565 417V417.5H160.558V417V416.5H158.565V417ZM162.551 417V417.5H164.544V417V416.5H162.551V417ZM166.538 417V417.5H168.531V417V416.5H166.538V417ZM170.524 417V417.5H172.517V417V416.5H170.524V417ZM174.51 417V417.5H176.503V417V416.5H174.51V417ZM178.496 417V417.5H180.49V417V416.5H178.496V417ZM182.483 417V417.5H184.476V417V416.5H182.483V417ZM186.469 417V417.5H188.462V417V416.5H186.469V417ZM190.455 417V417.5H192.449V417V416.5H190.455V417ZM194.442 417V417.5H196.435V417V416.5H194.442V417ZM198.428 417V417.5H200.421V417V416.5H198.428V417ZM202.414 417V417.5H204.407V417V416.5H202.414V417ZM206.401 417V417.5H208.394V417V416.5H206.401V417ZM210.387 417V417.5H212.38V417V416.5H210.387V417ZM214.373 417V417.5H216.366V417V416.5H214.373V417ZM218.359 417V417.5H220.353V417V416.5H218.359V417ZM222.346 417V417.5H224.339V417V416.5H222.346V417ZM226.332 417V417.5H228.325V417V416.5H226.332V417ZM230.318 417V417.5H232.311V417V416.5H230.318V417ZM234.305 417V417.5H236.298V417V416.5H234.305V417ZM238.291 417V417.5H240.284V417V416.5H238.291V417ZM242.277 417V417.5H244.27V417V416.5H242.277V417ZM246.264 417V417.5H248.257V417V416.5H246.264V417ZM250.25 417V417.5H252.243V417V416.5H250.25V417ZM254.236 417V417.5H256.229V417V416.5H254.236V417ZM258.222 417V417.5H260.216V417V416.5H258.222V417ZM262.209 417V417.5H264.202V417V416.5H262.209V417ZM266.195 417V417.5H268.188V417V416.5H266.195V417ZM270.181 417V417.5H272.174V417V416.5H270.181V417ZM274.168 417V417.5H276.161V417V416.5H274.168V417ZM278.154 417V417.5H280.147V417V416.5H278.154V417ZM282.14 417V417.5H284.133V417V416.5H282.14V417ZM286.127 417V417.5H288.12V417V416.5H286.127V417ZM290.113 417V417.5H292.106V417V416.5H290.113V417ZM294.099 417V417.5H296.092V417V416.5H294.099V417ZM298.085 417V417.5H300.079V417V416.5H298.085V417ZM302.072 417V417.5H304.065V417V416.5H302.072V417ZM306.058 417V417.5H308.051V417V416.5H306.058V417ZM310.044 417V417.5H312.038V417V416.5H310.044V417ZM314.031 417V417.5H316.024V417V416.5H314.031V417ZM318.017 417V417.5H320.01V417V416.5H318.017V417ZM322.003 417V417.5H323V417V416.5H322.003V417ZM323 417V417.5C323.335 417.5 323.668 417.495 324 417.484L323.984 416.984L323.968 416.484C323.646 416.495 323.324 416.5 323 416.5V417ZM325.942 416.858L325.99 417.355C326.657 417.29 327.317 417.204 327.97 417.097L327.889 416.604L327.808 416.11C327.176 416.214 326.538 416.297 325.893 416.36L325.942 416.858ZM329.815 416.222L329.929 416.709C330.579 416.558 331.222 416.386 331.856 416.194L331.711 415.716L331.567 415.237C330.953 415.423 330.332 415.589 329.702 415.735L329.815 416.222ZM333.571 415.085L333.747 415.553C334.372 415.317 334.987 415.062 335.591 414.788L335.385 414.332L335.178 413.877C334.593 414.142 333.999 414.389 333.395 414.617L333.571 415.085ZM337.144 413.463L337.38 413.904C337.968 413.589 338.544 413.255 339.108 412.904L338.844 412.48L338.579 412.055C338.034 412.395 337.477 412.718 336.908 413.022L337.144 413.463ZM340.475 411.387L340.767 411.794C341.308 411.405 341.836 411 342.35 410.578L342.032 410.191L341.715 409.805C341.218 410.213 340.707 410.606 340.184 410.981L340.475 411.387ZM343.508 408.896L343.85 409.261C344.335 408.806 344.806 408.335 345.261 407.85L344.896 407.508L344.531 407.166C344.091 407.636 343.636 408.091 343.166 408.531L343.508 408.896ZM346.191 406.032L346.578 406.35C347 405.836 347.405 405.308 347.794 404.767L347.387 404.475L346.981 404.184C346.606 404.707 346.213 405.218 345.805 405.715L346.191 406.032ZM348.48 402.844L348.904 403.108C349.255 402.544 349.589 401.968 349.904 401.38L349.463 401.144L349.022 400.908C348.718 401.477 348.395 402.034 348.055 402.579L348.48 402.844ZM350.332 399.385L350.788 399.591C351.062 398.987 351.317 398.372 351.553 397.747L351.085 397.571L350.617 397.395C350.389 397.999 350.142 398.593 349.877 399.178L350.332 399.385ZM351.716 395.711L352.194 395.856C352.386 395.222 352.558 394.579 352.709 393.929L352.222 393.815L351.735 393.702C351.589 394.332 351.423 394.953 351.237 395.567L351.716 395.711ZM352.604 391.889L353.097 391.97C353.204 391.317 353.29 390.657 353.355 389.99L352.858 389.942L352.36 389.893C352.297 390.538 352.214 391.176 352.11 391.808L352.604 391.889ZM352.984 387.984L353.484 388C353.495 387.668 353.5 387.335 353.5 387H353H352.5C352.5 387.324 352.495 387.646 352.484 387.968L352.984 387.984ZM353 387H353.5V386.017H353H352.5V387H353ZM353 384.052H353.5V382.086H353H352.5V384.052H353ZM353 380.121H353.5V378.155H353H352.5V380.121H353ZM353 376.19H353.5V374.224H353H352.5V376.19H353ZM353 372.259H353.5V370.293H353H352.5V372.259H353ZM353 368.328H353.5V366.362H353H352.5V368.328H353ZM353 364.397H353.5V362.431H353H352.5V364.397H353ZM353 360.466H353.5V358.5H353H352.5V360.466H353ZM353 356.534H353.5V354.569H353H352.5V356.534H353ZM353 352.603H353.5V350.638H353H352.5V352.603H353ZM353 348.672H353.5V346.707H353H352.5V348.672H353ZM353 344.741H353.5V342.776H353H352.5V344.741H353ZM353 340.81H353.5V338.845H353H352.5V340.81H353ZM353 336.879H353.5V334.914H353H352.5V336.879H353ZM353 332.948H353.5V330.983H353H352.5V332.948H353ZM353 329.017H353.5V327.052H353H352.5V329.017H353ZM353 325.086H353.5V323.121H353H352.5V325.086H353ZM353 321.155H353.5V319.19H353H352.5V321.155H353ZM353 317.224H353.5V315.259H353H352.5V317.224H353ZM353 313.293H353.5V311.328H353H352.5V313.293H353ZM353 309.362H353.5V307.397H353H352.5V309.362H353ZM353 305.431H353.5V303.466H353H352.5V305.431H353ZM353 301.5H353.5V299.534H353H352.5V301.5H353ZM353 297.569H353.5V295.603H353H352.5V297.569H353ZM353 293.638H353.5V291.672H353H352.5V293.638H353ZM353 289.707H353.5V287.741H353H352.5V289.707H353ZM353 285.776H353.5V283.81H353H352.5V285.776H353ZM353 281.845H353.5V279.879H353H352.5V281.845H353ZM353 277.914H353.5V275.948H353H352.5V277.914H353ZM353 273.983H353.5V273H353H352.5V273.983H353ZM353 273H353.5C353.5 272.665 353.495 272.332 353.484 272L352.984 272.016L352.484 272.032C352.495 272.354 352.5 272.676 352.5 273H353ZM352.858 270.058L353.355 270.01C353.29 269.343 353.204 268.683 353.097 268.03L352.604 268.111L352.11 268.192C352.214 268.824 352.297 269.462 352.36 270.107L352.858 270.058ZM352.222 266.185L352.709 266.071C352.558 265.421 352.386 264.778 352.194 264.144L351.716 264.289L351.237 264.433C351.423 265.047 351.589 265.668 351.735 266.298L352.222 266.185ZM351.085 262.429L351.553 262.253C351.317 261.628 351.062 261.013 350.788 260.409L350.332 260.615L349.877 260.822C350.142 261.407 350.389 262.001 350.617 262.605L351.085 262.429ZM349.463 258.856L349.904 258.62C349.589 258.032 349.255 257.456 348.904 256.892L348.48 257.156L348.055 257.421C348.395 257.966 348.718 258.523 349.022 259.092L349.463 258.856ZM347.387 255.525L347.794 255.233C347.405 254.692 347 254.164 346.578 253.65L346.191 253.968L345.805 254.285C346.213 254.782 346.606 255.293 346.981 255.816L347.387 255.525ZM344.896 252.492L345.261 252.15C344.806 251.665 344.335 251.194 343.85 250.739L343.508 251.104L343.166 251.469C343.636 251.909 344.091 252.364 344.531 252.834L344.896 252.492ZM342.032 249.809L342.35 249.422C341.836 249 341.308 248.595 340.767 248.206L340.475 248.613L340.184 249.019C340.707 249.394 341.218 249.787 341.715 250.195L342.032 249.809ZM338.844 247.52L339.108 247.096C338.544 246.745 337.968 246.411 337.38 246.096L337.144 246.537L336.908 246.978C337.477 247.282 338.034 247.605 338.579 247.945L338.844 247.52ZM335.385 245.668L335.591 245.212C334.987 244.938 334.372 244.683 333.747 244.447L333.571 244.915L333.395 245.383C333.999 245.611 334.593 245.858 335.178 246.123L335.385 245.668ZM331.711 244.284L331.856 243.806C331.222 243.614 330.579 243.442 329.929 243.291L329.815 243.778L329.702 244.265C330.332 244.411 330.953 244.577 331.567 244.763L331.711 244.284ZM327.889 243.396L327.97 242.903C327.317 242.796 326.657 242.71 325.99 242.645L325.942 243.142L325.893 243.64C326.538 243.703 327.176 243.786 327.808 243.89L327.889 243.396ZM323.984 243.016L324 242.516C323.668 242.505 323.335 242.5 323 242.5V243V243.5C323.324 243.5 323.646 243.505 323.968 243.516L323.984 243.016ZM323 243V242.5H321.971V243V243.5H323V243ZM319.912 243V242.5H317.854V243V243.5H319.912V243ZM315.795 243V242.5H313.737V243V243.5H315.795V243ZM311.678 243V242.5H309.62V243V243.5H311.678V243ZM307.561 243V242.5H305.503V243V243.5H307.561V243ZM303.444 243V242.5H302.415V243V243.5H303.444V243ZM302.415 243L302.415 242.5C302.073 242.5 301.732 242.506 301.392 242.517L301.409 243.017L301.425 243.517C301.754 243.506 302.084 243.5 302.415 243.5L302.415 243ZM299.4 243.152L299.35 242.654C298.669 242.723 297.993 242.814 297.322 242.928L297.406 243.421L297.489 243.914C298.138 243.804 298.792 243.716 299.451 243.649L299.4 243.152ZM295.434 243.823L295.318 243.337C294.653 243.496 293.995 243.677 293.345 243.88L293.493 244.357L293.642 244.834C294.271 244.638 294.908 244.463 295.55 244.31L295.434 243.823ZM291.593 245.02L291.413 244.554C290.776 244.8 290.148 245.067 289.53 245.355L289.742 245.809L289.953 246.262C290.551 245.983 291.158 245.724 291.774 245.486L291.593 245.02ZM287.947 246.72L287.706 246.282C287.108 246.61 286.522 246.959 285.947 247.328L286.217 247.749L286.487 248.17C287.043 247.813 287.61 247.476 288.188 247.158L287.947 246.72ZM284.561 248.891L284.263 248.49C283.716 248.895 283.181 249.319 282.66 249.762L282.984 250.143L283.308 250.524C283.812 250.096 284.329 249.685 284.858 249.293L284.561 248.891ZM281.496 251.497L281.147 251.139C280.659 251.613 280.186 252.105 279.729 252.614L280.101 252.948L280.473 253.282C280.915 252.79 281.373 252.314 281.844 251.855L281.496 251.497ZM278.807 254.49L278.413 254.181C278.203 254.449 277.997 254.721 277.796 254.997L278.199 255.292L278.603 255.587C278.798 255.32 278.997 255.057 279.2 254.798L278.807 254.49ZM278.199 255.292L277.801 254.989L277.208 255.768L277.606 256.071L278.004 256.374L278.597 255.595L278.199 255.292ZM276.419 257.628L276.022 257.325L274.835 258.883L275.233 259.186L275.631 259.489L276.817 257.931L276.419 257.628ZM274.046 260.743L273.648 260.44L272.462 261.998L272.86 262.301L273.257 262.604L274.444 261.046L274.046 260.743ZM271.673 263.858L271.275 263.555L270.089 265.113L270.487 265.416L270.884 265.719L272.071 264.161L271.673 263.858ZM269.3 266.973L268.902 266.67L267.716 268.228L268.113 268.531L268.511 268.834L269.698 267.276L269.3 266.973ZM266.927 270.088L266.529 269.785L265.343 271.343L265.74 271.646L266.138 271.949L267.325 270.391L266.927 270.088ZM264.554 273.204L264.156 272.901L262.969 274.458L263.367 274.761L263.765 275.064L264.951 273.507L264.554 273.204ZM262.181 276.319L261.783 276.016L260.596 277.573L260.994 277.876L261.392 278.179L262.578 276.622L262.181 276.319ZM259.807 279.434L259.41 279.131L258.223 280.688L258.621 280.991L259.019 281.294L260.205 279.737L259.807 279.434ZM257.434 282.549L257.037 282.246L255.85 283.803L256.248 284.106L256.645 284.409L257.832 282.852L257.434 282.549ZM255.061 285.664L254.663 285.361L253.477 286.918L253.875 287.221L254.272 287.524L255.459 285.967L255.061 285.664ZM252.688 288.779L252.29 288.476L251.104 290.033L251.501 290.336L251.899 290.639L253.086 289.082L252.688 288.779ZM250.315 291.894L249.917 291.591L248.731 293.148L249.128 293.451L249.526 293.754L250.713 292.197L250.315 291.894ZM247.942 295.009L247.544 294.706L246.357 296.263L246.755 296.566L247.153 296.869L248.339 295.312L247.942 295.009ZM245.569 298.124L245.171 297.821L243.984 299.378L244.382 299.681L244.78 299.984L245.966 298.427L245.569 298.124ZM243.195 301.239L242.798 300.936L241.611 302.493L242.009 302.796L242.407 303.099L243.593 301.542L243.195 301.239ZM240.822 304.354L240.425 304.051L239.238 305.609L239.636 305.912L240.033 306.215L241.22 304.657L240.822 304.354ZM238.449 307.469L238.051 307.166L236.865 308.724L237.263 309.027L237.66 309.33L238.847 307.772L238.449 307.469ZM236.076 310.584L235.678 310.281L234.492 311.839L234.889 312.142L235.287 312.445L236.474 310.887L236.076 310.584ZM233.703 313.699L233.305 313.396L232.119 314.954L232.516 315.257L232.914 315.56L234.101 314.002L233.703 313.699ZM231.33 316.814L230.932 316.511L229.745 318.069L230.143 318.372L230.541 318.675L231.727 317.117L231.33 316.814ZM228.957 319.929L228.559 319.626L227.966 320.405L228.363 320.708L228.761 321.011L229.354 320.232L228.957 319.929ZM228.363 320.708L227.96 320.413C227.765 320.68 227.565 320.943 227.362 321.202L227.756 321.51L228.149 321.819C228.359 321.551 228.565 321.279 228.767 321.003L228.363 320.708ZM226.461 323.052L226.089 322.718C225.647 323.21 225.19 323.686 224.718 324.145L225.067 324.503L225.416 324.861C225.903 324.387 226.376 323.895 226.833 323.386L226.461 323.052ZM223.578 325.857L223.254 325.476C222.751 325.904 222.234 326.315 221.704 326.707L222.002 327.109L222.299 327.51C222.847 327.105 223.381 326.681 223.902 326.238L223.578 325.857ZM220.345 328.251L220.075 327.83C219.519 328.187 218.952 328.524 218.374 328.842L218.616 329.28L218.857 329.718C219.454 329.39 220.04 329.041 220.615 328.672L220.345 328.251ZM216.821 330.191L216.61 329.738C216.012 330.017 215.405 330.276 214.789 330.514L214.969 330.98L215.15 331.446C215.786 331.2 216.414 330.933 217.032 330.645L216.821 330.191ZM213.069 331.643L212.92 331.166C212.291 331.362 211.655 331.537 211.012 331.69L211.128 332.177L211.245 332.663C211.909 332.504 212.567 332.323 213.218 332.12L213.069 331.643ZM209.157 332.579L209.073 332.086C208.424 332.196 207.77 332.284 207.112 332.351L207.162 332.848L207.212 333.346C207.893 333.277 208.569 333.186 209.24 333.072L209.157 332.579ZM205.154 332.983L205.137 332.483C204.808 332.494 204.478 332.5 204.147 332.5L204.147 333L204.147 333.5C204.489 333.5 204.83 333.494 205.171 333.483L205.154 332.983ZM204.147 333V332.5H203.14V333V333.5H204.147V333ZM201.126 333V332.5H199.111V333V333.5H201.126V333ZM197.097 333V332.5H195.082V333V333.5H197.097V333ZM193.068 333V332.5H191.053V333V333.5H193.068V333ZM189.039 333V332.5H187.024V333V333.5H189.039V333ZM185.01 333V332.5H182.995V333V333.5H185.01V333ZM180.981 333V332.5H178.966V333V333.5H180.981V333ZM176.952 333V332.5H174.937V333V333.5H176.952V333ZM172.923 333V332.5H170.908V333V333.5H172.923V333ZM168.894 333V332.5H166.879V333V333.5H168.894V333ZM164.865 333V332.5H163.857V333V333.5H164.865V333ZM163.857 333L163.857 332.5C163.532 332.5 163.209 332.495 162.887 332.485L162.872 332.985L162.857 333.485C163.188 333.495 163.522 333.5 163.857 333.5L163.857 333ZM160.92 332.865L160.967 332.367C160.322 332.307 159.686 332.227 159.059 332.128L158.981 332.622L158.903 333.116C159.551 333.218 160.208 333.301 160.874 333.363L160.92 332.865ZM157.061 332.255L157.17 331.767C156.54 331.625 155.919 331.464 155.309 331.283L155.167 331.763L155.026 332.242C155.657 332.429 156.299 332.596 156.951 332.743L157.061 332.255ZM153.31 331.145L153.483 330.676C152.878 330.452 152.284 330.21 151.702 329.949L151.498 330.405L151.293 330.861C151.895 331.131 152.51 331.382 153.136 331.614L153.31 331.145ZM149.74 329.544L149.975 329.103C149.407 328.801 148.851 328.48 148.308 328.143L148.044 328.568L147.781 328.993C148.342 329.342 148.917 329.673 149.505 329.986L149.74 329.544ZM146.418 327.481L146.709 327.074C146.187 326.699 145.679 326.308 145.185 325.901L144.867 326.287L144.549 326.673C145.06 327.094 145.586 327.499 146.126 327.887L146.418 327.481ZM143.398 324.995L143.741 324.63C143.273 324.19 142.82 323.736 142.383 323.267L142.017 323.608L141.652 323.95C142.104 324.434 142.572 324.904 143.056 325.359L143.398 324.995ZM140.729 322.136L141.116 321.819C140.709 321.322 140.318 320.813 139.945 320.292L139.538 320.583L139.132 320.874C139.518 321.413 139.922 321.939 140.342 322.453L140.729 322.136ZM138.449 318.957L138.873 318.692C138.533 318.148 138.211 317.593 137.906 317.028L137.466 317.266L137.026 317.503C137.341 318.086 137.674 318.66 138.025 319.222L138.449 318.957ZM136.592 315.515L137.047 315.306C136.778 314.723 136.529 314.131 136.298 313.532L135.832 313.712L135.365 313.892C135.603 314.511 135.861 315.122 136.138 315.724L136.592 315.515ZM135.187 311.865L135.664 311.715C135.472 311.103 135.3 310.485 135.148 309.861L134.662 309.98L134.176 310.098C134.334 310.743 134.512 311.382 134.71 312.014L135.187 311.865ZM134.26 308.065L134.752 307.978C134.641 307.347 134.549 306.712 134.479 306.073L133.982 306.128L133.485 306.183C133.558 306.843 133.652 307.5 133.767 308.152L134.26 308.065ZM133.832 304.177L134.331 304.155C134.303 303.516 134.296 302.874 134.311 302.232L133.811 302.22L133.311 302.209C133.296 302.874 133.303 303.538 133.332 304.199L133.832 304.177ZM133.919 300.267L134.417 300.311C134.474 299.675 134.552 299.038 134.653 298.403L134.159 298.325L133.665 298.247C133.561 298.905 133.48 299.564 133.421 300.222L133.919 300.267ZM134.528 296.403L135.015 296.514C135.157 295.892 135.319 295.271 135.504 294.653L135.025 294.51L134.546 294.367C134.355 295.006 134.186 295.649 134.04 296.292L134.528 296.403ZM135.648 292.654L136.117 292.829C136.339 292.233 136.583 291.64 136.849 291.051L136.393 290.845L135.937 290.64C135.663 291.249 135.41 291.862 135.18 292.479L135.648 292.654ZM137.254 289.09L137.696 289.325C137.994 288.764 138.312 288.208 138.652 287.656L138.226 287.394L137.801 287.132C137.45 287.701 137.121 288.276 136.813 288.855L137.254 289.09ZM139.303 285.763L139.712 286.051C139.897 285.788 140.088 285.526 140.283 285.266L139.884 284.966L139.484 284.665C139.283 284.933 139.086 285.203 138.895 285.474L139.303 285.763ZM139.884 284.966L140.283 285.266L140.882 284.47L140.483 284.17L140.083 283.869L139.484 284.665L139.884 284.966ZM141.68 282.577L142.08 282.878L143.278 281.286L142.878 280.985L142.479 280.685L141.281 282.277L141.68 282.577ZM144.076 279.393L144.475 279.694L145.673 278.101L145.274 277.801L144.874 277.5L143.676 279.092L144.076 279.393ZM146.471 276.209L146.871 276.509L148.069 274.917L147.669 274.616L147.269 274.316L146.072 275.908L146.471 276.209ZM148.867 273.024L149.266 273.325L150.464 271.733L150.064 271.432L149.665 271.131L148.467 272.724L148.867 273.024ZM151.262 269.84L151.662 270.14L152.859 268.548L152.46 268.248L152.06 267.947L150.863 269.539L151.262 269.84ZM153.658 266.655L154.057 266.956L155.255 265.364L154.855 265.063L154.456 264.763L153.258 266.355L153.658 266.655ZM156.053 263.471L156.453 263.771L157.65 262.179L157.251 261.879L156.851 261.578L155.654 263.17L156.053 263.471ZM158.449 260.286L158.848 260.587L160.046 258.995L159.646 258.694L159.247 258.394L158.049 259.986L158.449 260.286ZM160.844 257.102L161.244 257.403L162.441 255.81L162.042 255.51L161.642 255.209L160.444 256.801L160.844 257.102ZM163.239 253.918L163.639 254.218L164.837 252.626L164.437 252.325L164.038 252.025L162.84 253.617L163.239 253.918ZM165.635 250.733L166.034 251.034L167.232 249.442L166.833 249.141L166.433 248.84L165.235 250.433L165.635 250.733ZM168.03 247.549L168.43 247.849L169.628 246.257L169.228 245.957L168.829 245.656L167.631 247.248L168.03 247.549ZM170.426 244.364L170.825 244.665L172.023 243.073L171.624 242.772L171.224 242.472L170.026 244.064L170.426 244.364ZM172.821 241.18L173.221 241.48L174.419 239.888L174.019 239.588L173.619 239.287L172.422 240.879L172.821 241.18ZM175.217 237.995L175.616 238.296L176.814 236.704L176.414 236.403L176.015 236.103L174.817 237.695L175.217 237.995ZM177.612 234.811L178.012 235.112L179.209 233.519L178.81 233.219L178.41 232.918L177.213 234.51L177.612 234.811ZM180.008 231.627L180.407 231.927L181.605 230.335L181.205 230.034L180.806 229.734L179.608 231.326L180.008 231.627ZM182.403 228.442L182.803 228.743L184 227.151L183.601 226.85L183.201 226.549L182.003 228.142L182.403 228.442ZM184.799 225.258L185.198 225.558L186.396 223.966L185.996 223.666L185.597 223.365L184.399 224.957L184.799 225.258ZM187.194 222.073L187.594 222.374L188.791 220.782L188.392 220.481L187.992 220.181L186.794 221.773L187.194 222.073ZM189.589 218.889L189.989 219.189L191.187 217.597L190.787 217.297L190.388 216.996L189.19 218.588L189.589 218.889ZM191.985 215.704L192.384 216.005L193.582 214.413L193.183 214.112L192.783 213.812L191.585 215.404L191.985 215.704ZM194.38 212.52L194.78 212.821L195.978 211.228L195.578 210.928L195.178 210.627L193.981 212.219L194.38 212.52ZM196.776 209.336L197.175 209.636L198.373 208.044L197.973 207.743L197.574 207.443L196.376 209.035L196.776 209.336ZM199.171 206.151L199.571 206.452L200.768 204.86L200.369 204.559L199.969 204.258L198.772 205.851L199.171 206.151ZM201.567 202.967L201.966 203.267L203.164 201.675L202.764 201.375L202.365 201.074L201.167 202.666L201.567 202.967ZM203.962 199.782L204.362 200.083L205.559 198.491L205.16 198.19L204.76 197.89L203.563 199.482L203.962 199.782ZM206.358 196.598L206.757 196.898L207.955 195.306L207.555 195.006L207.156 194.705L205.958 196.297L206.358 196.598ZM208.753 193.413L209.153 193.714L210.35 192.122L209.951 191.821L209.551 191.521L208.353 193.113L208.753 193.413ZM211.148 190.229L211.548 190.53L212.746 188.937L212.346 188.637L211.947 188.336L210.749 189.928L211.148 190.229ZM213.544 187.045L213.943 187.345L215.141 185.753L214.742 185.452L214.342 185.152L213.144 186.744L213.544 187.045ZM215.939 183.86L216.339 184.161L217.537 182.569L217.137 182.268L216.738 181.967L215.54 183.56L215.939 183.86ZM218.335 180.676L218.734 180.976L219.932 179.384L219.533 179.084L219.133 178.783L217.935 180.375L218.335 180.676ZM220.73 177.491L221.13 177.792L222.328 176.2L221.928 175.899L221.528 175.599L220.331 177.191L220.73 177.491ZM223.126 174.307L223.525 174.607L224.124 173.811L223.725 173.511L223.325 173.21L222.726 174.006L223.126 174.307ZM223.725 173.511L224.124 173.811C224.322 173.549 224.514 173.284 224.703 173.016L224.294 172.728L223.885 172.441C223.702 172.7 223.516 172.956 223.325 173.21L223.725 173.511ZM225.354 171.111L225.781 171.371C226.123 170.811 226.447 170.24 226.751 169.661L226.309 169.428L225.866 169.196C225.572 169.756 225.259 170.308 224.928 170.85L225.354 171.111ZM227.153 167.687L227.609 167.891C227.876 167.292 228.124 166.684 228.351 166.07L227.883 165.896L227.414 165.722C227.194 166.317 226.954 166.904 226.696 167.484L227.153 167.687ZM228.496 164.061L228.975 164.204C229.162 163.576 229.33 162.942 229.476 162.303L228.989 162.191L228.502 162.079C228.36 162.697 228.198 163.311 228.016 163.918L228.496 164.061ZM229.361 160.293L229.854 160.373C229.96 159.727 230.044 159.076 230.107 158.423L229.61 158.374L229.112 158.326C229.051 158.958 228.969 159.587 228.867 160.212L229.361 160.293ZM229.734 156.444L230.234 156.46C230.245 156.133 230.25 155.805 230.25 155.477L229.75 155.477L229.25 155.477C229.25 155.794 229.245 156.111 229.235 156.428L229.734 156.444ZM229.75 155.477H230.25V154.437H229.75H229.25V155.477H229.75ZM229.75 152.357H230.25V150.278H229.75H229.25V152.357H229.75ZM229.75 148.199H230.25V146.119H229.75H229.25V148.199H229.75ZM229.75 144.04H230.25V143H229.75H229.25V144.04H229.75ZM229.75 143L230.25 143C230.25 142.665 230.245 142.332 230.234 142L229.734 142.016L229.234 142.032C229.245 142.354 229.25 142.676 229.25 143L229.75 143ZM229.608 140.058L230.105 140.01C230.04 139.343 229.954 138.683 229.847 138.03L229.354 138.111L228.86 138.192C228.964 138.824 229.047 139.462 229.11 140.107L229.608 140.058ZM228.972 136.185L229.459 136.071C229.308 135.421 229.136 134.778 228.944 134.144L228.466 134.289L227.987 134.433C228.173 135.047 228.339 135.668 228.485 136.298L228.972 136.185ZM227.835 132.429L228.303 132.253C228.067 131.628 227.812 131.013 227.538 130.409L227.082 130.615L226.627 130.822C226.892 131.407 227.139 132.001 227.367 132.605L227.835 132.429ZM226.213 128.856L226.654 128.62C226.339 128.032 226.005 127.456 225.654 126.892L225.23 127.156L224.805 127.421C225.145 127.966 225.468 128.523 225.772 129.092L226.213 128.856ZM224.137 125.525L224.544 125.233C224.155 124.692 223.75 124.164 223.328 123.65L222.941 123.968L222.555 124.285C222.963 124.782 223.356 125.293 223.731 125.816L224.137 125.525ZM221.646 122.492L222.011 122.15C221.556 121.665 221.085 121.194 220.6 120.739L220.258 121.104L219.916 121.469C220.386 121.909 220.841 122.364 221.281 122.834L221.646 122.492ZM218.782 119.809L219.1 119.422C218.586 119 218.058 118.595 217.517 118.206L217.225 118.613L216.934 119.019C217.457 119.394 217.968 119.787 218.465 120.195L218.782 119.809ZM215.594 117.52L215.858 117.096C215.294 116.745 214.718 116.411 214.13 116.096L213.894 116.537L213.658 116.978C214.227 117.282 214.784 117.605 215.329 117.945L215.594 117.52ZM212.135 115.668L212.341 115.212C211.737 114.938 211.122 114.683 210.497 114.447L210.321 114.915L210.145 115.383C210.749 115.611 211.343 115.858 211.928 116.123L212.135 115.668ZM208.461 114.284L208.606 113.806C207.972 113.614 207.329 113.442 206.679 113.291L206.565 113.778L206.452 114.265C207.082 114.411 207.703 114.577 208.317 114.763L208.461 114.284ZM204.639 113.396L204.72 112.903C204.067 112.796 203.407 112.71 202.74 112.645L202.692 113.142L202.643 113.64C203.288 113.703 203.926 113.786 204.558 113.89L204.639 113.396ZM200.734 113.016L200.75 112.516C200.418 112.505 200.085 112.5 199.75 112.5V113V113.5C200.074 113.5 200.396 113.505 200.718 113.516L200.734 113.016ZM30 377V376.5C29.6699 376.5 29.3427 376.513 29.0188 376.538L29.0576 377.036L29.0963 377.535C29.3944 377.512 29.6958 377.5 30 377.5V377ZM27.1974 377.329L27.0811 376.843C26.4384 376.997 25.8149 377.2 25.215 377.449L25.4065 377.911L25.5981 378.372C26.1496 378.144 26.7228 377.957 27.3138 377.815L27.1974 377.329ZM23.7293 378.767L23.4676 378.341C22.9083 378.684 22.3781 379.07 21.8816 379.495L22.2065 379.875L22.5314 380.255C22.9884 379.864 23.4763 379.509 23.9909 379.193L23.7293 378.767ZM20.8749 381.207L20.4949 380.882C20.0704 381.378 19.6842 381.908 19.3407 382.468L19.7668 382.729L20.1928 382.991C20.5089 382.476 20.8643 381.988 21.255 381.531L20.8749 381.207ZM18.9106 384.407L18.4487 384.215C18.1999 384.815 17.9965 385.438 17.8428 386.081L18.329 386.197L18.8153 386.314C18.9567 385.723 19.1437 385.15 19.3724 384.598L18.9106 384.407ZM18.0365 388.058L17.538 388.019C17.5128 388.343 17.5 388.67 17.5 389H18H18.5C18.5 388.696 18.5118 388.394 18.535 388.096L18.0365 388.058ZM18 389H17.5C17.5 389.33 17.5128 389.657 17.538 389.981L18.0365 389.942L18.535 389.904C18.5118 389.606 18.5 389.304 18.5 389H18ZM18.329 391.803L17.8428 391.919C17.9965 392.562 18.1999 393.185 18.4487 393.785L18.9106 393.593L19.3724 393.402C19.1437 392.85 18.9567 392.277 18.8153 391.686L18.329 391.803ZM19.7668 395.271L19.3407 395.532C19.6842 396.092 20.0704 396.622 20.4949 397.118L20.8749 396.793L21.255 396.469C20.8643 396.012 20.5089 395.524 20.1928 395.009L19.7668 395.271ZM22.2065 398.125L21.8816 398.505C22.3781 398.93 22.9083 399.316 23.4676 399.659L23.7293 399.233L23.9909 398.807C23.4763 398.491 22.9884 398.136 22.5314 397.745L22.2065 398.125ZM25.4065 400.089L25.215 400.551C25.8149 400.8 26.4384 401.003 27.0811 401.157L27.1974 400.671L27.3138 400.185C26.7228 400.043 26.1496 399.856 25.5981 399.628L25.4065 400.089ZM29.0576 400.964L29.0188 401.462C29.3427 401.487 29.6699 401.5 30 401.5V401V400.5C29.6958 400.5 29.3944 400.488 29.0963 400.465L29.0576 400.964ZM30 401V401.5C30.3301 401.5 30.6573 401.487 30.9812 401.462L30.9424 400.964L30.9037 400.465C30.6056 400.488 30.3042 400.5 30 400.5V401ZM32.8026 400.671L32.9189 401.157C33.5616 401.003 34.1851 400.8 34.785 400.551L34.5935 400.089L34.4019 399.628C33.8504 399.856 33.2772 400.043 32.6862 400.185L32.8026 400.671ZM36.2707 399.233L36.5324 399.659C37.0917 399.316 37.6219 398.93 38.1184 398.505L37.7935 398.125L37.4686 397.745C37.0116 398.136 36.5237 398.491 36.0091 398.807L36.2707 399.233ZM39.1251 396.793L39.5051 397.118C39.9296 396.622 40.3158 396.092 40.6593 395.532L40.2332 395.271L39.8072 395.009C39.4911 395.524 39.1357 396.012 38.745 396.469L39.1251 396.793ZM41.0894 393.593L41.5513 393.785C41.8001 393.185 42.0035 392.562 42.1572 391.919L41.671 391.803L41.1847 391.686C41.0433 392.277 40.8563 392.85 40.6276 393.402L41.0894 393.593ZM41.9635 389.942L42.462 389.981C42.4872 389.657 42.5 389.33 42.5 389H42H41.5C41.5 389.304 41.4882 389.606 41.465 389.904L41.9635 389.942ZM42 389H42.5C42.5 388.67 42.4872 388.343 42.462 388.019L41.9635 388.058L41.465 388.096C41.4882 388.394 41.5 388.696 41.5 389H42ZM41.671 386.197L42.1572 386.081C42.0035 385.438 41.8001 384.815 41.5513 384.215L41.0894 384.407L40.6276 384.598C40.8563 385.15 41.0433 385.723 41.1847 386.314L41.671 386.197ZM40.2332 382.729L40.6593 382.468C40.3158 381.908 39.9296 381.378 39.5051 380.882L39.1251 381.207L38.745 381.531C39.1357 381.988 39.4911 382.476 39.8072 382.991L40.2332 382.729ZM37.7935 379.875L38.1184 379.495C37.6219 379.07 37.0917 378.684 36.5324 378.341L36.2707 378.767L36.0091 379.193C36.5237 379.509 37.0116 379.864 37.4686 380.255L37.7935 379.875ZM34.5935 377.911L34.785 377.449C34.1851 377.2 33.5616 376.997 32.9189 376.843L32.8026 377.329L32.6862 377.815C33.2772 377.957 33.8504 378.144 34.4019 378.372L34.5935 377.911ZM30.9424 377.036L30.9812 376.538C30.6573 376.513 30.3301 376.5 30 376.5V377V377.5C30.3042 377.5 30.6056 377.512 30.9037 377.535L30.9424 377.036ZM325 377V376.5C324.67 376.5 324.343 376.513 324.019 376.538L324.058 377.036L324.096 377.535C324.394 377.512 324.696 377.5 325 377.5V377ZM322.197 377.329L322.081 376.843C321.438 376.997 320.815 377.2 320.215 377.449L320.407 377.911L320.598 378.372C321.15 378.144 321.723 377.957 322.314 377.815L322.197 377.329ZM318.729 378.767L318.468 378.341C317.908 378.684 317.378 379.07 316.882 379.495L317.207 379.875L317.531 380.255C317.988 379.864 318.476 379.509 318.991 379.193L318.729 378.767ZM315.875 381.207L315.495 380.882C315.07 381.378 314.684 381.908 314.341 382.468L314.767 382.729L315.193 382.991C315.509 382.476 315.864 381.988 316.255 381.531L315.875 381.207ZM313.911 384.407L313.449 384.215C313.2 384.815 312.997 385.438 312.843 386.081L313.329 386.197L313.815 386.314C313.957 385.723 314.144 385.15 314.372 384.598L313.911 384.407ZM313.036 388.058L312.538 388.019C312.513 388.343 312.5 388.67 312.5 389H313H313.5C313.5 388.696 313.512 388.394 313.535 388.096L313.036 388.058ZM313 389H312.5C312.5 389.33 312.513 389.657 312.538 389.981L313.036 389.942L313.535 389.904C313.512 389.606 313.5 389.304 313.5 389H313ZM313.329 391.803L312.843 391.919C312.997 392.562 313.2 393.185 313.449 393.785L313.911 393.593L314.372 393.402C314.144 392.85 313.957 392.277 313.815 391.686L313.329 391.803ZM314.767 395.271L314.341 395.532C314.684 396.092 315.07 396.622 315.495 397.118L315.875 396.793L316.255 396.469C315.864 396.012 315.509 395.524 315.193 395.009L314.767 395.271ZM317.207 398.125L316.882 398.505C317.378 398.93 317.908 399.316 318.468 399.659L318.729 399.233L318.991 398.807C318.476 398.491 317.988 398.136 317.531 397.745L317.207 398.125ZM320.407 400.089L320.215 400.551C320.815 400.8 321.438 401.003 322.081 401.157L322.197 400.671L322.314 400.185C321.723 400.043 321.15 399.856 320.598 399.628L320.407 400.089ZM324.058 400.964L324.019 401.462C324.343 401.487 324.67 401.5 325 401.5V401V400.5C324.696 400.5 324.394 400.488 324.096 400.465L324.058 400.964ZM325 401V401.5C325.33 401.5 325.657 401.487 325.981 401.462L325.942 400.964L325.904 400.465C325.606 400.488 325.304 400.5 325 400.5V401ZM327.803 400.671L327.919 401.157C328.562 401.003 329.185 400.8 329.785 400.551L329.593 400.089L329.402 399.628C328.85 399.856 328.277 400.043 327.686 400.185L327.803 400.671ZM331.271 399.233L331.532 399.659C332.092 399.316 332.622 398.93 333.118 398.505L332.793 398.125L332.469 397.745C332.012 398.136 331.524 398.491 331.009 398.807L331.271 399.233ZM334.125 396.793L334.505 397.118C334.93 396.622 335.316 396.092 335.659 395.532L335.233 395.271L334.807 395.009C334.491 395.524 334.136 396.012 333.745 396.469L334.125 396.793ZM336.089 393.593L336.551 393.785C336.8 393.185 337.003 392.562 337.157 391.919L336.671 391.803L336.185 391.686C336.043 392.277 335.856 392.85 335.628 393.402L336.089 393.593ZM336.964 389.942L337.462 389.981C337.487 389.657 337.5 389.33 337.5 389H337H336.5C336.5 389.304 336.488 389.606 336.465 389.904L336.964 389.942ZM337 389H337.5C337.5 388.67 337.487 388.343 337.462 388.019L336.964 388.058L336.465 388.096C336.488 388.394 336.5 388.696 336.5 389H337ZM336.671 386.197L337.157 386.081C337.003 385.438 336.8 384.815 336.551 384.215L336.089 384.407L335.628 384.598C335.856 385.15 336.043 385.723 336.185 386.314L336.671 386.197ZM335.233 382.729L335.659 382.468C335.316 381.908 334.93 381.378 334.505 380.882L334.125 381.207L333.745 381.531C334.136 381.988 334.491 382.476 334.807 382.991L335.233 382.729ZM332.793 379.875L333.118 379.495C332.622 379.07 332.092 378.684 331.532 378.341L331.271 378.767L331.009 379.193C331.524 379.509 332.012 379.864 332.469 380.255L332.793 379.875ZM329.593 377.911L329.785 377.449C329.185 377.2 328.562 376.997 327.919 376.843L327.803 377.329L327.686 377.815C328.277 377.957 328.85 378.144 329.402 378.372L329.593 377.911ZM325.942 377.036L325.981 376.538C325.657 376.513 325.33 376.5 325 376.5V377V377.5C325.304 377.5 325.606 377.512 325.904 377.535L325.942 377.036ZM30 129V128.5C29.6699 128.5 29.3427 128.513 29.0188 128.538L29.0576 129.036L29.0963 129.535C29.3944 129.512 29.6958 129.5 30 129.5V129ZM27.1974 129.329L27.0811 128.843C26.4384 128.997 25.8149 129.2 25.215 129.449L25.4065 129.911L25.5981 130.372C26.1496 130.144 26.7228 129.957 27.3138 129.815L27.1974 129.329ZM23.7293 130.767L23.4676 130.341C22.9083 130.684 22.3781 131.07 21.8816 131.495L22.2065 131.875L22.5314 132.255C22.9884 131.864 23.4763 131.509 23.9909 131.193L23.7293 130.767ZM20.8749 133.207L20.4949 132.882C20.0704 133.378 19.6842 133.908 19.3407 134.468L19.7668 134.729L20.1928 134.991C20.5089 134.476 20.8643 133.988 21.255 133.531L20.8749 133.207ZM18.9106 136.407L18.4487 136.215C18.1999 136.815 17.9965 137.438 17.8428 138.081L18.329 138.197L18.8153 138.314C18.9567 137.723 19.1437 137.15 19.3724 136.598L18.9106 136.407ZM18.0365 140.058L17.538 140.019C17.5128 140.343 17.5 140.67 17.5 141H18H18.5C18.5 140.696 18.5118 140.394 18.535 140.096L18.0365 140.058ZM18 141H17.5C17.5 141.33 17.5128 141.657 17.538 141.981L18.0365 141.942L18.535 141.904C18.5118 141.606 18.5 141.304 18.5 141H18ZM18.329 143.803L17.8428 143.919C17.9965 144.562 18.1999 145.185 18.4487 145.785L18.9106 145.593L19.3724 145.402C19.1437 144.85 18.9567 144.277 18.8153 143.686L18.329 143.803ZM19.7668 147.271L19.3407 147.532C19.6842 148.092 20.0704 148.622 20.4949 149.118L20.8749 148.793L21.255 148.469C20.8643 148.012 20.5089 147.524 20.1928 147.009L19.7668 147.271ZM22.2065 150.125L21.8816 150.505C22.3781 150.93 22.9083 151.316 23.4676 151.659L23.7293 151.233L23.9909 150.807C23.4763 150.491 22.9884 150.136 22.5314 149.745L22.2065 150.125ZM25.4065 152.089L25.215 152.551C25.8149 152.8 26.4384 153.003 27.0811 153.157L27.1974 152.671L27.3138 152.185C26.7228 152.043 26.1496 151.856 25.5981 151.628L25.4065 152.089ZM29.0576 152.964L29.0188 153.462C29.3427 153.487 29.6699 153.5 30 153.5V153V152.5C29.6958 152.5 29.3944 152.488 29.0963 152.465L29.0576 152.964ZM30 153V153.5C30.3301 153.5 30.6573 153.487 30.9812 153.462L30.9424 152.964L30.9037 152.465C30.6056 152.488 30.3042 152.5 30 152.5V153ZM32.8026 152.671L32.9189 153.157C33.5616 153.003 34.1851 152.8 34.785 152.551L34.5935 152.089L34.4019 151.628C33.8504 151.856 33.2772 152.043 32.6862 152.185L32.8026 152.671ZM36.2707 151.233L36.5324 151.659C37.0917 151.316 37.6219 150.93 38.1184 150.505L37.7935 150.125L37.4686 149.745C37.0116 150.136 36.5237 150.491 36.0091 150.807L36.2707 151.233ZM39.1251 148.793L39.5051 149.118C39.9296 148.622 40.3158 148.092 40.6593 147.532L40.2332 147.271L39.8072 147.009C39.4911 147.524 39.1357 148.012 38.745 148.469L39.1251 148.793ZM41.0894 145.593L41.5513 145.785C41.8001 145.185 42.0035 144.562 42.1572 143.919L41.671 143.803L41.1847 143.686C41.0433 144.277 40.8563 144.85 40.6276 145.402L41.0894 145.593ZM41.9635 141.942L42.462 141.981C42.4872 141.657 42.5 141.33 42.5 141H42H41.5C41.5 141.304 41.4882 141.606 41.465 141.904L41.9635 141.942ZM42 141H42.5C42.5 140.67 42.4872 140.343 42.462 140.019L41.9635 140.058L41.465 140.096C41.4882 140.394 41.5 140.696 41.5 141H42ZM41.671 138.197L42.1572 138.081C42.0035 137.438 41.8001 136.815 41.5513 136.215L41.0894 136.407L40.6276 136.598C40.8563 137.15 41.0433 137.723 41.1847 138.314L41.671 138.197ZM40.2332 134.729L40.6593 134.468C40.3158 133.908 39.9296 133.378 39.5051 132.882L39.1251 133.207L38.745 133.531C39.1357 133.988 39.4911 134.476 39.8072 134.991L40.2332 134.729ZM37.7935 131.875L38.1184 131.495C37.6219 131.07 37.0917 130.684 36.5324 130.341L36.2707 130.767L36.0091 131.193C36.5237 131.509 37.0116 131.864 37.4686 132.255L37.7935 131.875ZM34.5935 129.911L34.785 129.449C34.1851 129.2 33.5616 128.997 32.9189 128.843L32.8026 129.329L32.6862 129.815C33.2772 129.957 33.8504 130.144 34.4019 130.372L34.5935 129.911ZM30.9424 129.036L30.9812 128.538C30.6573 128.513 30.3301 128.5 30 128.5V129V129.5C30.3042 129.5 30.6056 129.512 30.9037 129.535L30.9424 129.036ZM229.75 143L230.75 143V143L229.75 143ZM229.75 155.477L230.75 155.477V155.477H229.75ZM223.725 173.511L224.524 174.112L224.524 174.112L223.725 173.511ZM139.884 284.966L140.683 285.567L140.683 285.567L139.884 284.966ZM163.857 333L163.857 334H163.857V333ZM204.147 333L204.147 334L204.147 334L204.147 333ZM228.363 320.708L227.568 320.102L227.562 320.11L227.556 320.118L228.363 320.708ZM278.199 255.292L278.995 255.898L279.001 255.89L279.006 255.882L278.199 255.292ZM302.415 243L302.415 242L302.415 242L302.415 243ZM199.75 113V112H198.751V113V114H199.75V113ZM196.754 113V112H194.757V113V114H196.754V113ZM192.76 113V112H190.763V113V114H192.76V113ZM188.766 113V112H186.769V113V114H188.766V113ZM184.772 113V112H182.775V113V114H184.772V113ZM180.778 113V112H178.781V113V114H180.778V113ZM176.784 113V112H174.787V113V114H176.784V113ZM172.79 113V112H170.793V113V114H172.79V113ZM168.796 113V112H166.799V113V114H168.796V113ZM164.802 113V112H162.805V113V114H164.802V113ZM160.808 113V112H158.811V113V114H160.808V113ZM156.814 113V112H154.817V113V114H156.814V113ZM152.82 113V112H150.823V113V114H152.82V113ZM148.826 113V112H146.829V113V114H148.826V113ZM144.832 113V112H142.835V113V114H144.832V113ZM140.838 113V112H138.841V113V114H140.838V113ZM136.844 113V112H134.847V113V114H136.844V113ZM132.85 113V112H130.853V113V114H132.85V113ZM128.856 113V112H126.859V113V114H128.856V113ZM124.862 113V112H122.865V113V114H124.862V113ZM120.868 113V112H118.871V113V114H120.868V113ZM116.873 113V112H114.876V113V114H116.873V113ZM112.879 113V112H110.882V113V114H112.879V113ZM108.885 113V112H106.888V113V114H108.885V113ZM104.891 113V112H102.894V113V114H104.891V113ZM100.897 113V112H98.9003V113V114H100.897V113ZM96.9032 113V112H94.9062V113V114H96.9032V113ZM92.9092 113V112H90.9122V113V114H92.9092V113ZM88.9151 113V112H86.9181V113V114H88.9151V113ZM84.9211 113V112H82.9241V113V114H84.9211V113ZM80.927 113V112H78.93V113V114H80.927V113ZM76.933 113V112H74.936V113V114H76.933V113ZM72.939 113V112H70.9419V113V114H72.939V113ZM68.9449 113V112H66.9479V113V114H68.9449V113ZM64.9508 113V112H62.9538V113V114H64.9508V113ZM60.9568 113V112H58.9598V113V114H60.9568V113ZM56.9628 113V112H54.9657V113V114H56.9628V113ZM52.9687 113V112H50.9717V113V114H52.9687V113ZM48.9747 113V112H46.9776V113V114H48.9747V113ZM44.9806 113V112H42.9836V113V114H44.9806V113ZM40.9866 113V112H38.9895V113V114H40.9866V113ZM36.9925 113V112H34.9955V113V114H36.9925V113ZM32.9985 113V112H32V113V114H32.9985V113ZM32 113V112C31.6601 112 31.3214 112.005 30.9841 112.016L31.0163 113.016L31.0485 114.015C31.3644 114.005 31.6816 114 32 114V113ZM29.0583 113.142L28.9615 112.147C28.2842 112.213 27.6132 112.301 26.9492 112.41L27.111 113.396L27.2727 114.383C27.8937 114.281 28.5214 114.199 29.1552 114.138L29.0583 113.142ZM25.1846 113.778L24.9583 112.803C24.2967 112.957 23.6432 113.132 22.9985 113.327L23.2885 114.284L23.5785 115.241C24.1812 115.059 24.7922 114.895 25.4109 114.752L25.1846 113.778ZM21.4293 114.915L21.0769 113.98C20.4418 114.219 19.8166 114.478 19.2022 114.757L19.6155 115.668L20.0287 116.578C20.6033 116.317 21.1879 116.075 21.7817 115.851L21.4293 114.915ZM17.8556 116.537L17.3834 115.656C16.786 115.975 16.2004 116.314 15.6272 116.672L16.1561 117.52L16.685 118.369C17.2211 118.035 17.769 117.718 18.3277 117.419L17.8556 116.537ZM14.5246 118.613L13.9414 117.8C13.3916 118.195 12.8552 118.607 12.3331 119.036L12.9679 119.809L13.6027 120.581C14.0913 120.18 14.5932 119.794 15.1077 119.425L14.5246 118.613ZM11.4922 121.104L10.8085 120.374C10.315 120.837 9.83662 121.315 9.37421 121.808L10.1039 122.492L10.8337 123.176C11.2664 122.714 11.7141 122.266 12.176 121.834L11.4922 121.104ZM8.8088 123.968L8.03615 123.333C7.60718 123.855 7.19494 124.392 6.80023 124.941L7.61259 125.525L8.42495 126.108C8.79427 125.593 9.18003 125.091 9.58145 124.603L8.8088 123.968ZM6.52031 127.156L5.67161 126.627C5.31446 127.2 4.9755 127.786 4.65552 128.383L5.53703 128.856L6.41855 129.328C6.71783 128.769 7.03491 128.221 7.36902 127.685L6.52031 127.156ZM4.66752 130.615L3.7569 130.202C3.47806 130.817 3.21866 131.442 2.97951 132.077L3.91535 132.429L4.8512 132.782C5.07481 132.188 5.31737 131.603 5.57813 131.029L4.66752 130.615ZM3.2844 134.289L2.32736 133.999C2.13205 134.643 1.95717 135.297 1.80347 135.958L2.77753 136.185L3.7516 136.411C3.89531 135.792 4.05883 135.181 4.24144 134.578L3.2844 134.289ZM2.39639 138.111L1.40956 137.949C1.30073 138.613 1.21301 139.284 1.14709 139.961L2.14239 140.058L3.13769 140.155C3.19937 139.521 3.28144 138.894 3.38322 138.273L2.39639 138.111ZM2.01582 142.016L1.01634 141.984C1.00547 142.321 1 142.66 1 143H2H3C3 142.682 3.00513 142.364 3.01531 142.048L2.01582 142.016ZM2 143H1V144H2H3V143H2ZM2 146H1V148H2H3V146H2ZM2 150H1V152H2H3V150H2ZM2 154H1V156H2H3V154H2ZM2 158H1V160H2H3V158H2ZM2 162H1V164H2H3V162H2ZM2 166H1V168H2H3V166H2ZM2 170H1V172H2H3V170H2ZM2 174H1V176H2H3V174H2ZM2 178H1V180H2H3V178H2ZM2 182H1V184H2H3V182H2ZM2 186H1V188H2H3V186H2ZM2 190H1V192H2H3V190H2ZM2 194H1V196H2H3V194H2ZM2 198H1V200H2H3V198H2ZM2 202H1V204H2H3V202H2ZM2 206H1V208H2H3V206H2ZM2 210H1V212H2H3V210H2ZM2 214H1V216H2H3V214H2ZM2 218H1V220H2H3V218H2ZM2 222H1V224H2H3V222H2ZM2 226H1V228H2H3V226H2ZM2 230H1V232H2H3V230H2ZM2 234H1V236H2H3V234H2ZM2 238H1V240H2H3V238H2ZM2 242H1V244H2H3V242H2ZM2 246H1V248H2H3V246H2ZM2 250H1V252H2H3V250H2ZM2 254H1V256H2H3V254H2ZM2 258H1V260H2H3V258H2ZM2 262H1V264H2H3V262H2ZM2 266H1V268H2H3V266H2ZM2 270H1V272H2H3V270H2ZM2 274H1V276H2H3V274H2ZM2 278H1V280H2H3V278H2ZM2 282H1V284H2H3V282H2ZM2 286H1V288H2H3V286H2ZM2 290H1V292H2H3V290H2ZM2 294H1V296H2H3V294H2ZM2 298H1V300H2H3V298H2ZM2 302H1V304H2H3V302H2ZM2 306H1V308H2H3V306H2ZM2 310H1V312H2H3V310H2ZM2 314H1V316H2H3V314H2ZM2 318H1V320H2H3V318H2ZM2 322H1V324H2H3V322H2ZM2 326H1V328H2H3V326H2ZM2 330H1V332H2H3V330H2ZM2 334H1V336H2H3V334H2ZM2 338H1V340H2H3V338H2ZM2 342H1V344H2H3V342H2ZM2 346H1V348H2H3V346H2ZM2 350H1V352H2H3V350H2ZM2 354H1V356H2H3V354H2ZM2 358H1V360H2H3V358H2ZM2 362H1V364H2H3V362H2ZM2 366H1V368H2H3V366H2ZM2 370H1V372H2H3V370H2ZM2 374H1V376H2H3V374H2ZM2 378H1V380H2H3V378H2ZM2 382H1V384H2H3V382H2ZM2 386H1V387H2H3V386H2ZM2 387H1C1 387.34 1.00547 387.679 1.01634 388.016L2.01582 387.984L3.01531 387.952C3.00513 387.636 3 387.318 3 387H2ZM2.14239 389.942L1.14709 390.039C1.21301 390.716 1.30073 391.387 1.40956 392.051L2.39639 391.889L3.38322 391.727C3.28144 391.106 3.19937 390.479 3.13769 389.845L2.14239 389.942ZM2.77753 393.815L1.80347 394.042C1.95717 394.703 2.13205 395.357 2.32736 396.001L3.2844 395.711L4.24144 395.422C4.05883 394.819 3.89531 394.208 3.7516 393.589L2.77753 393.815ZM3.91535 397.571L2.97951 397.923C3.21866 398.558 3.47806 399.183 3.7569 399.798L4.66752 399.385L5.57813 398.971C5.31737 398.397 5.07481 397.812 4.85119 397.218L3.91535 397.571ZM5.53703 401.144L4.65552 401.617C4.9755 402.214 5.31446 402.8 5.67161 403.373L6.52031 402.844L7.36902 402.315C7.03491 401.779 6.71783 401.231 6.41855 400.672L5.53703 401.144ZM7.61259 404.475L6.80023 405.059C7.19494 405.608 7.60718 406.145 8.03615 406.667L8.8088 406.032L9.58145 405.397C9.18003 404.909 8.79427 404.407 8.42495 403.892L7.61259 404.475ZM10.1039 407.508L9.37421 408.192C9.83662 408.685 10.315 409.163 10.8085 409.626L11.4922 408.896L12.176 408.166C11.7141 407.734 11.2664 407.286 10.8337 406.824L10.1039 407.508ZM12.9679 410.191L12.3331 410.964C12.8552 411.393 13.3916 411.805 13.9414 412.2L14.5246 411.387L15.1077 410.575C14.5932 410.206 14.0913 409.82 13.6027 409.419L12.9679 410.191ZM16.1561 412.48L15.6272 413.328C16.2004 413.686 16.786 414.025 17.3834 414.344L17.8556 413.463L18.3277 412.581C17.769 412.282 17.2211 411.965 16.685 411.631L16.1561 412.48ZM19.6155 414.332L19.2022 415.243C19.8166 415.522 20.4418 415.781 21.0769 416.02L21.4293 415.085L21.7817 414.149C21.1879 413.925 20.6033 413.683 20.0287 413.422L19.6155 414.332ZM23.2885 415.716L22.9985 416.673C23.6432 416.868 24.2967 417.043 24.9583 417.197L25.1846 416.222L25.4109 415.248C24.7922 415.105 24.1812 414.941 23.5785 414.759L23.2885 415.716ZM27.111 416.604L26.9492 417.59C27.6132 417.699 28.2842 417.787 28.9615 417.853L29.0583 416.858L29.1552 415.862C28.5214 415.801 27.8937 415.719 27.2727 415.617L27.111 416.604ZM31.0163 416.984L30.9841 417.984C31.3214 417.995 31.6601 418 32 418V417V416C31.6816 416 31.3644 415.995 31.0485 415.985L31.0163 416.984ZM32 417V418H32.9966V417V416H32V417ZM34.9897 417V418H36.9829V417V416H34.9897V417ZM38.976 417V418H40.9692V417V416H38.976V417ZM42.9623 417V418H44.9555V417V416H42.9623V417ZM46.9486 417V418H48.9418V417V416H46.9486V417ZM50.9349 417V418H52.9281V417V416H50.9349V417ZM54.9212 417V418H56.9144V417V416H54.9212V417ZM58.9075 417V418H60.9007V417V416H58.9075V417ZM62.8938 417V418H64.887V417V416H62.8938V417ZM66.8801 417V418H68.8733V417V416H66.8801V417ZM70.8664 417V418H72.8596V417V416H70.8664V417ZM74.8527 417V418H76.8459V417V416H74.8527V417ZM78.839 417V418H80.8322V417V416H78.839V417ZM82.8253 417V418H84.8185V417V416H82.8253V417ZM86.8116 417V418H88.8048V417V416H86.8116V417ZM90.7979 417V418H92.7911V417V416H90.7979V417ZM94.7842 417V418H96.7774V417V416H94.7842V417ZM98.7705 417V418H100.764V417V416H98.7705V417ZM102.757 417V418H104.75V417V416H102.757V417ZM106.743 417V418H108.736V417V416H106.743V417ZM110.729 417V418H112.723V417V416H110.729V417ZM114.716 417V418H116.709V417V416H114.716V417ZM118.702 417V418H120.695V417V416H118.702V417ZM122.688 417V418H124.681V417V416H122.688V417ZM126.675 417V418H128.668V417V416H126.675V417ZM130.661 417V418H132.654V417V416H130.661V417ZM134.647 417V418H136.64V417V416H134.647V417ZM138.633 417V418H140.627V417V416H138.633V417ZM142.62 417V418H144.613V417V416H142.62V417ZM146.606 417V418H148.599V417V416H146.606V417ZM150.592 417V418H152.586V417V416H150.592V417ZM154.579 417V418H156.572V417V416H154.579V417ZM158.565 417V418H160.558V417V416H158.565V417ZM162.551 417V418H164.544V417V416H162.551V417ZM166.538 417V418H168.531V417V416H166.538V417ZM170.524 417V418H172.517V417V416H170.524V417ZM174.51 417V418H176.503V417V416H174.51V417ZM178.496 417V418H180.49V417V416H178.496V417ZM182.483 417V418H184.476V417V416H182.483V417ZM186.469 417V418H188.462V417V416H186.469V417ZM190.455 417V418H192.449V417V416H190.455V417ZM194.442 417V418H196.435V417V416H194.442V417ZM198.428 417V418H200.421V417V416H198.428V417ZM202.414 417V418H204.407V417V416H202.414V417ZM206.401 417V418H208.394V417V416H206.401V417ZM210.387 417V418H212.38V417V416H210.387V417ZM214.373 417V418H216.366V417V416H214.373V417ZM218.359 417V418H220.353V417V416H218.359V417ZM222.346 417V418H224.339V417V416H222.346V417ZM226.332 417V418H228.325V417V416H226.332V417ZM230.318 417V418H232.311V417V416H230.318V417ZM234.305 417V418H236.298V417V416H234.305V417ZM238.291 417V418H240.284V417V416H238.291V417ZM242.277 417V418H244.27V417V416H242.277V417ZM246.264 417V418H248.257V417V416H246.264V417ZM250.25 417V418H252.243V417V416H250.25V417ZM254.236 417V418H256.229V417V416H254.236V417ZM258.222 417V418H260.216V417V416H258.222V417ZM262.209 417V418H264.202V417V416H262.209V417ZM266.195 417V418H268.188V417V416H266.195V417ZM270.181 417V418H272.174V417V416H270.181V417ZM274.168 417V418H276.161V417V416H274.168V417ZM278.154 417V418H280.147V417V416H278.154V417ZM282.14 417V418H284.133V417V416H282.14V417ZM286.127 417V418H288.12V417V416H286.127V417ZM290.113 417V418H292.106V417V416H290.113V417ZM294.099 417V418H296.092V417V416H294.099V417ZM298.085 417V418H300.079V417V416H298.085V417ZM302.072 417V418H304.065V417V416H302.072V417ZM306.058 417V418H308.051V417V416H306.058V417ZM310.044 417V418H312.038V417V416H310.044V417ZM314.031 417V418H316.024V417V416H314.031V417ZM318.017 417V418H320.01V417V416H318.017V417ZM322.003 417V418H323V417V416H322.003V417ZM323 417V418C323.34 418 323.679 417.995 324.016 417.984L323.984 416.984L323.952 415.985C323.636 415.995 323.318 416 323 416V417ZM325.942 416.858L326.039 417.853C326.716 417.787 327.387 417.699 328.051 417.59L327.889 416.604L327.727 415.617C327.106 415.719 326.479 415.801 325.845 415.862L325.942 416.858ZM329.815 416.222L330.042 417.197C330.703 417.043 331.357 416.868 332.001 416.673L331.711 415.716L331.422 414.759C330.819 414.941 330.208 415.105 329.589 415.248L329.815 416.222ZM333.571 415.085L333.923 416.02C334.558 415.781 335.183 415.522 335.798 415.243L335.385 414.332L334.971 413.422C334.397 413.683 333.812 413.925 333.218 414.149L333.571 415.085ZM337.144 413.463L337.617 414.344C338.214 414.025 338.8 413.686 339.373 413.328L338.844 412.48L338.315 411.631C337.779 411.965 337.231 412.282 336.672 412.581L337.144 413.463ZM340.475 411.387L341.059 412.2C341.608 411.805 342.145 411.393 342.667 410.964L342.032 410.191L341.397 409.419C340.909 409.82 340.407 410.206 339.892 410.575L340.475 411.387ZM343.508 408.896L344.192 409.626C344.685 409.163 345.163 408.685 345.626 408.192L344.896 407.508L344.166 406.824C343.734 407.286 343.286 407.734 342.824 408.166L343.508 408.896ZM346.191 406.032L346.964 406.667C347.393 406.145 347.805 405.608 348.2 405.059L347.387 404.475L346.575 403.892C346.206 404.407 345.82 404.909 345.419 405.397L346.191 406.032ZM348.48 402.844L349.328 403.373C349.686 402.8 350.025 402.214 350.344 401.617L349.463 401.144L348.581 400.672C348.282 401.231 347.965 401.779 347.631 402.315L348.48 402.844ZM350.332 399.385L351.243 399.798C351.522 399.183 351.781 398.558 352.02 397.923L351.085 397.571L350.149 397.218C349.925 397.812 349.683 398.397 349.422 398.971L350.332 399.385ZM351.716 395.711L352.673 396.001C352.868 395.357 353.043 394.703 353.197 394.042L352.222 393.815L351.248 393.589C351.105 394.208 350.941 394.819 350.759 395.422L351.716 395.711ZM352.604 391.889L353.59 392.051C353.699 391.387 353.787 390.716 353.853 390.039L352.858 389.942L351.862 389.845C351.801 390.479 351.719 391.106 351.617 391.727L352.604 391.889ZM352.984 387.984L353.984 388.016C353.995 387.679 354 387.34 354 387H353H352C352 387.318 351.995 387.636 351.985 387.952L352.984 387.984ZM353 387H354V386.017H353H352V387H353ZM353 384.052H354V382.086H353H352V384.052H353ZM353 380.121H354V378.155H353H352V380.121H353ZM353 376.19H354V374.224H353H352V376.19H353ZM353 372.259H354V370.293H353H352V372.259H353ZM353 368.328H354V366.362H353H352V368.328H353ZM353 364.397H354V362.431H353H352V364.397H353ZM353 360.466H354V358.5H353H352V360.466H353ZM353 356.534H354V354.569H353H352V356.534H353ZM353 352.603H354V350.638H353H352V352.603H353ZM353 348.672H354V346.707H353H352V348.672H353ZM353 344.741H354V342.776H353H352V344.741H353ZM353 340.81H354V338.845H353H352V340.81H353ZM353 336.879H354V334.914H353H352V336.879H353ZM353 332.948H354V330.983H353H352V332.948H353ZM353 329.017H354V327.052H353H352V329.017H353ZM353 325.086H354V323.121H353H352V325.086H353ZM353 321.155H354V319.19H353H352V321.155H353ZM353 317.224H354V315.259H353H352V317.224H353ZM353 313.293H354V311.328H353H352V313.293H353ZM353 309.362H354V307.397H353H352V309.362H353ZM353 305.431H354V303.466H353H352V305.431H353ZM353 301.5H354V299.534H353H352V301.5H353ZM353 297.569H354V295.603H353H352V297.569H353ZM353 293.638H354V291.672H353H352V293.638H353ZM353 289.707H354V287.741H353H352V289.707H353ZM353 285.776H354V283.81H353H352V285.776H353ZM353 281.845H354V279.879H353H352V281.845H353ZM353 277.914H354V275.948H353H352V277.914H353ZM353 273.983H354V273H353H352V273.983H353ZM353 273H354C354 272.66 353.995 272.321 353.984 271.984L352.984 272.016L351.985 272.048C351.995 272.364 352 272.682 352 273H353ZM352.858 270.058L353.853 269.961C353.787 269.284 353.699 268.613 353.59 267.949L352.604 268.111L351.617 268.273C351.719 268.894 351.801 269.521 351.862 270.155L352.858 270.058ZM352.222 266.185L353.197 265.958C353.043 265.297 352.868 264.643 352.673 263.999L351.716 264.289L350.759 264.578C350.941 265.181 351.105 265.792 351.248 266.411L352.222 266.185ZM351.085 262.429L352.02 262.077C351.781 261.442 351.522 260.817 351.243 260.202L350.332 260.615L349.422 261.029C349.683 261.603 349.925 262.188 350.149 262.782L351.085 262.429ZM349.463 258.856L350.344 258.383C350.025 257.786 349.686 257.2 349.328 256.627L348.48 257.156L347.631 257.685C347.965 258.221 348.282 258.769 348.581 259.328L349.463 258.856ZM347.387 255.525L348.2 254.941C347.805 254.392 347.393 253.855 346.964 253.333L346.191 253.968L345.419 254.603C345.82 255.091 346.206 255.593 346.575 256.108L347.387 255.525ZM344.896 252.492L345.626 251.808C345.163 251.315 344.685 250.837 344.192 250.374L343.508 251.104L342.824 251.834C343.286 252.266 343.734 252.714 344.166 253.176L344.896 252.492ZM342.032 249.809L342.667 249.036C342.145 248.607 341.608 248.195 341.059 247.8L340.475 248.613L339.892 249.425C340.407 249.794 340.909 250.18 341.397 250.581L342.032 249.809ZM338.844 247.52L339.373 246.672C338.8 246.314 338.214 245.975 337.617 245.656L337.144 246.537L336.672 247.419C337.231 247.718 337.779 248.035 338.315 248.369L338.844 247.52ZM335.385 245.668L335.798 244.757C335.183 244.478 334.558 244.219 333.923 243.98L333.571 244.915L333.218 245.851C333.812 246.075 334.397 246.317 334.971 246.578L335.385 245.668ZM331.711 244.284L332.001 243.327C331.357 243.132 330.703 242.957 330.042 242.803L329.815 243.778L329.589 244.752C330.208 244.895 330.819 245.059 331.422 245.241L331.711 244.284ZM327.889 243.396L328.051 242.41C327.387 242.301 326.716 242.213 326.039 242.147L325.942 243.142L325.845 244.138C326.479 244.199 327.106 244.281 327.727 244.383L327.889 243.396ZM323.984 243.016L324.016 242.016C323.679 242.005 323.34 242 323 242V243V244C323.318 244 323.636 244.005 323.952 244.015L323.984 243.016ZM323 243V242H321.971V243V244H323V243ZM319.912 243V242H317.854V243V244H319.912V243ZM315.795 243V242H313.737V243V244H315.795V243ZM311.678 243V242H309.62V243V244H311.678V243ZM307.561 243V242H305.503V243V244H307.561V243ZM303.444 243V242H302.415V243V244H303.444V243ZM302.415 243L302.415 242C302.068 242 301.721 242.006 301.375 242.017L301.409 243.017L301.442 244.016C301.766 244.005 302.09 244 302.415 244L302.415 243ZM299.4 243.152L299.3 242.157C298.608 242.227 297.921 242.319 297.239 242.435L297.406 243.421L297.573 244.407C298.211 244.299 298.854 244.212 299.501 244.147L299.4 243.152ZM295.434 243.823L295.201 242.851C294.526 243.012 293.857 243.196 293.196 243.402L293.493 244.357L293.791 245.312C294.409 245.119 295.035 244.947 295.667 244.796L295.434 243.823ZM291.593 245.02L291.232 244.087C290.585 244.338 289.947 244.609 289.319 244.902L289.742 245.809L290.164 246.715C290.752 246.441 291.349 246.187 291.954 245.953L291.593 245.02ZM287.947 246.72L287.465 245.843C286.858 246.178 286.261 246.532 285.678 246.907L286.217 247.749L286.757 248.59C287.304 248.24 287.861 247.908 288.429 247.596L287.947 246.72ZM284.561 248.891L283.966 248.088C283.409 248.5 282.866 248.931 282.337 249.381L282.984 250.143L283.632 250.905C284.127 250.484 284.635 250.081 285.156 249.695L284.561 248.891ZM281.496 251.497L280.798 250.78C280.303 251.262 279.822 251.762 279.357 252.28L280.101 252.948L280.845 253.616C281.28 253.132 281.729 252.665 282.193 252.214L281.496 251.497ZM278.807 254.49L278.02 253.873C277.806 254.145 277.597 254.421 277.392 254.702L278.199 255.292L279.006 255.882C279.198 255.62 279.394 255.361 279.594 255.106L278.807 254.49ZM278.199 255.292L277.404 254.686L276.81 255.465L277.606 256.071L278.401 256.677L278.995 255.898L278.199 255.292ZM276.419 257.628L275.624 257.022L274.437 258.58L275.233 259.186L276.028 259.792L277.215 258.234L276.419 257.628ZM274.046 260.743L273.251 260.137L272.064 261.695L272.86 262.301L273.655 262.907L274.842 261.349L274.046 260.743ZM271.673 263.858L270.878 263.252L269.691 264.81L270.487 265.416L271.282 266.022L272.469 264.464L271.673 263.858ZM269.3 266.973L268.504 266.367L267.318 267.925L268.113 268.531L268.909 269.137L270.095 267.579L269.3 266.973ZM266.927 270.088L266.131 269.482L264.945 271.04L265.74 271.646L266.536 272.252L267.722 270.694L266.927 270.088ZM264.554 273.204L263.758 272.598L262.572 274.155L263.367 274.761L264.163 275.367L265.349 273.81L264.554 273.204ZM262.181 276.319L261.385 275.713L260.198 277.27L260.994 277.876L261.789 278.482L262.976 276.925L262.181 276.319ZM259.807 279.434L259.012 278.828L257.825 280.385L258.621 280.991L259.416 281.597L260.603 280.04L259.807 279.434ZM257.434 282.549L256.639 281.943L255.452 283.5L256.248 284.106L257.043 284.712L258.23 283.155L257.434 282.549ZM255.061 285.664L254.266 285.058L253.079 286.615L253.875 287.221L254.67 287.827L255.857 286.27L255.061 285.664ZM252.688 288.779L251.893 288.173L250.706 289.73L251.501 290.336L252.297 290.942L253.483 289.385L252.688 288.779ZM250.315 291.894L249.519 291.288L248.333 292.845L249.128 293.451L249.924 294.057L251.11 292.5L250.315 291.894ZM247.942 295.009L247.146 294.403L245.96 295.96L246.755 296.566L247.551 297.172L248.737 295.615L247.942 295.009ZM245.569 298.124L244.773 297.518L243.587 299.075L244.382 299.681L245.177 300.287L246.364 298.73L245.569 298.124ZM243.195 301.239L242.4 300.633L241.213 302.19L242.009 302.796L242.804 303.402L243.991 301.845L243.195 301.239ZM240.822 304.354L240.027 303.748L238.84 305.306L239.636 305.912L240.431 306.518L241.618 304.96L240.822 304.354ZM238.449 307.469L237.654 306.863L236.467 308.421L237.263 309.027L238.058 309.633L239.245 308.075L238.449 307.469ZM236.076 310.584L235.281 309.978L234.094 311.536L234.889 312.142L235.685 312.748L236.871 311.19L236.076 310.584ZM233.703 313.699L232.907 313.093L231.721 314.651L232.516 315.257L233.312 315.863L234.498 314.305L233.703 313.699ZM231.33 316.814L230.534 316.208L229.348 317.766L230.143 318.372L230.939 318.978L232.125 317.42L231.33 316.814ZM228.957 319.929L228.161 319.323L227.568 320.102L228.363 320.708L229.159 321.314L229.752 320.535L228.957 319.929ZM228.363 320.708L227.556 320.118C227.364 320.38 227.168 320.639 226.969 320.894L227.756 321.51L228.543 322.127C228.756 321.855 228.965 321.579 229.17 321.298L228.363 320.708ZM226.461 323.052L225.718 322.384C225.283 322.868 224.833 323.335 224.37 323.786L225.067 324.503L225.764 325.22C226.26 324.738 226.741 324.238 227.205 323.72L226.461 323.052ZM223.578 325.857L222.93 325.095C222.435 325.516 221.927 325.919 221.407 326.305L222.002 327.109L222.597 327.912C223.153 327.5 223.697 327.069 224.226 326.619L223.578 325.857ZM220.345 328.251L219.805 327.41C219.259 327.76 218.701 328.092 218.133 328.404L218.616 329.28L219.098 330.157C219.705 329.822 220.301 329.468 220.885 329.093L220.345 328.251ZM216.821 330.191L216.398 329.285C215.811 329.559 215.214 329.813 214.609 330.047L214.969 330.98L215.33 331.913C215.977 331.662 216.615 331.391 217.243 331.098L216.821 330.191ZM213.069 331.643L212.772 330.688C212.153 330.881 211.528 331.053 210.896 331.204L211.128 332.177L211.361 333.149C212.037 332.988 212.705 332.804 213.366 332.598L213.069 331.643ZM209.157 332.579L208.99 331.593C208.352 331.701 207.709 331.788 207.062 331.853L207.162 332.848L207.263 333.843C207.954 333.773 208.642 333.681 209.324 333.565L209.157 332.579ZM205.154 332.983L205.12 331.984C204.797 331.995 204.473 332 204.147 332L204.147 333L204.147 334C204.495 334 204.842 333.994 205.187 333.983L205.154 332.983ZM204.147 333V332H203.14V333V334H204.147V333ZM201.126 333V332H199.111V333V334H201.126V333ZM197.097 333V332H195.082V333V334H197.097V333ZM193.068 333V332H191.053V333V334H193.068V333ZM189.039 333V332H187.024V333V334H189.039V333ZM185.01 333V332H182.995V333V334H185.01V333ZM180.981 333V332H178.966V333V334H180.981V333ZM176.952 333V332H174.937V333V334H176.952V333ZM172.923 333V332H170.908V333V334H172.923V333ZM168.894 333V332H166.879V333V334H168.894V333ZM164.865 333V332H163.857V333V334H164.865V333ZM163.857 333L163.857 332C163.537 332 163.219 331.995 162.902 331.985L162.872 332.985L162.841 333.984C163.178 333.995 163.517 334 163.857 334L163.857 333ZM160.92 332.865L161.013 331.869C160.379 331.81 159.753 331.732 159.137 331.634L158.981 332.622L158.825 333.61C159.484 333.714 160.152 333.798 160.828 333.861L160.92 332.865ZM157.061 332.255L157.28 331.28C156.661 331.14 156.051 330.981 155.451 330.804L155.167 331.763L154.884 332.722C155.526 332.912 156.178 333.082 156.841 333.231L157.061 332.255ZM153.31 331.145L153.657 330.207C153.062 329.987 152.479 329.749 151.907 329.492L151.498 330.405L151.089 331.317C151.701 331.592 152.326 331.847 152.962 332.083L153.31 331.145ZM149.74 329.544L150.21 328.662C149.651 328.364 149.105 328.05 148.572 327.719L148.044 328.568L147.517 329.417C148.088 329.772 148.672 330.109 149.271 330.427L149.74 329.544ZM146.418 327.481L147.001 326.668C146.488 326.3 145.988 325.915 145.503 325.515L144.867 326.287L144.231 327.059C144.751 327.487 145.285 327.899 145.835 328.293L146.418 327.481ZM143.398 324.995L144.083 324.266C143.623 323.833 143.178 323.387 142.748 322.926L142.017 323.608L141.286 324.291C141.746 324.783 142.222 325.261 142.713 325.723L143.398 324.995ZM140.729 322.136L141.503 321.502C141.103 321.014 140.719 320.513 140.351 320L139.538 320.583L138.726 321.166C139.118 321.713 139.528 322.248 139.956 322.769L140.729 322.136ZM138.449 318.957L139.298 318.428C138.963 317.892 138.646 317.346 138.346 316.791L137.466 317.266L136.586 317.74C136.906 318.333 137.244 318.916 137.601 319.487L138.449 318.957ZM136.592 315.515L137.501 315.097C137.237 314.524 136.992 313.942 136.765 313.353L135.832 313.712L134.898 314.071C135.14 314.7 135.402 315.321 135.684 315.933L136.592 315.515ZM135.187 311.865L136.141 311.565C135.953 310.964 135.783 310.356 135.634 309.742L134.662 309.98L133.691 310.217C133.851 310.872 134.032 311.521 134.233 312.164L135.187 311.865ZM134.26 308.065L135.244 307.891C135.135 307.271 135.045 306.646 134.976 306.018L133.982 306.128L132.988 306.237C133.062 306.908 133.158 307.576 133.275 308.239L134.26 308.065ZM133.832 304.177L134.831 304.133C134.803 303.505 134.796 302.874 134.81 302.243L133.811 302.22L132.811 302.198C132.796 302.874 132.803 303.549 132.833 304.221L133.832 304.177ZM133.919 300.267L134.916 300.356C134.971 299.731 135.048 299.105 135.147 298.48L134.159 298.325L133.171 298.169C133.065 298.839 132.983 299.508 132.923 300.178L133.919 300.267ZM134.528 296.403L135.503 296.625C135.642 296.013 135.802 295.404 135.983 294.797L135.025 294.51L134.067 294.224C133.873 294.874 133.701 295.527 133.553 296.182L134.528 296.403ZM135.648 292.654L136.585 293.004C136.804 292.418 137.044 291.835 137.305 291.256L136.393 290.845L135.481 290.434C135.202 291.054 134.946 291.677 134.712 292.304L135.648 292.654ZM137.254 289.09L138.137 289.559C138.43 289.008 138.744 288.461 139.078 287.919L138.226 287.394L137.375 286.87C137.019 287.448 136.684 288.032 136.371 288.621L137.254 289.09ZM139.303 285.763L140.12 286.339C140.303 286.08 140.49 285.823 140.683 285.567L139.884 284.966L139.085 284.365C138.88 284.637 138.68 284.911 138.486 285.186L139.303 285.763ZM139.884 284.966L140.683 285.567L141.282 284.771L140.483 284.17L139.684 283.569L139.085 284.365L139.884 284.966ZM141.68 282.577L142.48 283.179L143.677 281.586L142.878 280.985L142.079 280.384L140.881 281.976L141.68 282.577ZM144.076 279.393L144.875 279.994L146.073 278.402L145.274 277.801L144.474 277.2L143.277 278.792L144.076 279.393ZM146.471 276.209L147.27 276.81L148.468 275.218L147.669 274.616L146.87 274.015L145.672 275.607L146.471 276.209ZM148.867 273.024L149.666 273.625L150.864 272.033L150.064 271.432L149.265 270.831L148.068 272.423L148.867 273.024ZM151.262 269.84L152.061 270.441L153.259 268.849L152.46 268.248L151.661 267.646L150.463 269.239L151.262 269.84ZM153.658 266.655L154.457 267.256L155.655 265.664L154.855 265.063L154.056 264.462L152.858 266.054L153.658 266.655ZM156.053 263.471L156.852 264.072L158.05 262.48L157.251 261.879L156.452 261.278L155.254 262.87L156.053 263.471ZM158.449 260.286L159.248 260.888L160.445 259.295L159.646 258.694L158.847 258.093L157.649 259.685L158.449 260.286ZM160.844 257.102L161.643 257.703L162.841 256.111L162.042 255.51L161.243 254.909L160.045 256.501L160.844 257.102ZM163.239 253.918L164.039 254.519L165.236 252.927L164.437 252.325L163.638 251.724L162.44 253.316L163.239 253.918ZM165.635 250.733L166.434 251.334L167.632 249.742L166.833 249.141L166.033 248.54L164.836 250.132L165.635 250.733ZM168.03 247.549L168.829 248.15L170.027 246.558L169.228 245.957L168.429 245.355L167.231 246.948L168.03 247.549ZM170.426 244.364L171.225 244.965L172.423 243.373L171.624 242.772L170.824 242.171L169.627 243.763L170.426 244.364ZM172.821 241.18L173.62 241.781L174.818 240.189L174.019 239.588L173.22 238.987L172.022 240.579L172.821 241.18ZM175.217 237.995L176.016 238.597L177.214 237.004L176.414 236.403L175.615 235.802L174.418 237.394L175.217 237.995ZM177.612 234.811L178.411 235.412L179.609 233.82L178.81 233.219L178.011 232.618L176.813 234.21L177.612 234.811ZM180.008 231.627L180.807 232.228L182.004 230.636L181.205 230.034L180.406 229.433L179.208 231.025L180.008 231.627ZM182.403 228.442L183.202 229.043L184.4 227.451L183.601 226.85L182.802 226.249L181.604 227.841L182.403 228.442ZM184.799 225.258L185.598 225.859L186.795 224.267L185.996 223.666L185.197 223.064L183.999 224.657L184.799 225.258ZM187.194 222.073L187.993 222.674L189.191 221.082L188.392 220.481L187.593 219.88L186.395 221.472L187.194 222.073ZM189.589 218.889L190.389 219.49L191.586 217.898L190.787 217.297L189.988 216.696L188.79 218.288L189.589 218.889ZM191.985 215.704L192.784 216.306L193.982 214.713L193.183 214.112L192.383 213.511L191.186 215.103L191.985 215.704ZM194.38 212.52L195.179 213.121L196.377 211.529L195.578 210.928L194.779 210.327L193.581 211.919L194.38 212.52ZM196.776 209.336L197.575 209.937L198.773 208.345L197.973 207.743L197.174 207.142L195.977 208.734L196.776 209.336ZM199.171 206.151L199.97 206.752L201.168 205.16L200.369 204.559L199.57 203.958L198.372 205.55L199.171 206.151ZM201.567 202.967L202.366 203.568L203.564 201.976L202.764 201.375L201.965 200.773L200.768 202.366L201.567 202.967ZM203.962 199.782L204.761 200.383L205.959 198.791L205.16 198.19L204.361 197.589L203.163 199.181L203.962 199.782ZM206.358 196.598L207.157 197.199L208.354 195.607L207.555 195.006L206.756 194.405L205.558 195.997L206.358 196.598ZM208.753 193.413L209.552 194.015L210.75 192.422L209.951 191.821L209.152 191.22L207.954 192.812L208.753 193.413ZM211.148 190.229L211.948 190.83L213.145 189.238L212.346 188.637L211.547 188.036L210.349 189.628L211.148 190.229ZM213.544 187.045L214.343 187.646L215.541 186.054L214.742 185.452L213.942 184.851L212.745 186.443L213.544 187.045ZM215.939 183.86L216.738 184.461L217.936 182.869L217.137 182.268L216.338 181.667L215.14 183.259L215.939 183.86ZM218.335 180.676L219.134 181.277L220.332 179.685L219.533 179.084L218.733 178.482L217.536 180.075L218.335 180.676ZM220.73 177.491L221.529 178.092L222.727 176.5L221.928 175.899L221.129 175.298L219.931 176.89L220.73 177.491ZM223.126 174.307L223.925 174.908L224.524 174.112L223.725 173.511L222.925 172.91L222.327 173.706L223.126 174.307ZM223.725 173.511L224.524 174.112C224.724 173.845 224.92 173.576 225.112 173.303L224.294 172.728L223.476 172.153C223.296 172.408 223.113 172.66 222.925 172.91L223.725 173.511ZM225.354 171.111L226.208 171.632C226.556 171.062 226.885 170.482 227.194 169.893L226.309 169.428L225.423 168.963C225.134 169.514 224.826 170.057 224.501 170.59L225.354 171.111ZM227.153 167.687L228.066 168.094C228.337 167.485 228.589 166.868 228.82 166.243L227.883 165.896L226.945 165.549C226.728 166.133 226.493 166.711 226.239 167.28L227.153 167.687ZM228.496 164.061L229.454 164.347C229.644 163.709 229.814 163.065 229.964 162.415L228.989 162.191L228.014 161.967C227.875 162.575 227.716 163.178 227.537 163.775L228.496 164.061ZM229.361 160.293L230.348 160.453C230.455 159.796 230.541 159.135 230.605 158.471L229.61 158.374L228.614 158.278C228.554 158.899 228.474 159.518 228.374 160.132L229.361 160.293ZM229.734 156.444L230.734 156.476C230.745 156.143 230.75 155.81 230.75 155.477L229.75 155.477L228.75 155.477C228.75 155.789 228.745 156.1 228.735 156.412L229.734 156.444ZM229.75 155.477H230.75V154.437H229.75H228.75V155.477H229.75ZM229.75 152.357H230.75V150.278H229.75H228.75V152.357H229.75ZM229.75 148.199H230.75V146.119H229.75H228.75V148.199H229.75ZM229.75 144.04H230.75V143H229.75H228.75V144.04H229.75ZM229.75 143L230.75 143C230.75 142.66 230.745 142.321 230.734 141.984L229.734 142.016L228.735 142.048C228.745 142.364 228.75 142.682 228.75 143L229.75 143ZM229.608 140.058L230.603 139.961C230.537 139.284 230.449 138.613 230.34 137.949L229.354 138.111L228.367 138.273C228.469 138.894 228.551 139.521 228.612 140.155L229.608 140.058ZM228.972 136.185L229.947 135.958C229.793 135.297 229.618 134.643 229.423 133.999L228.466 134.289L227.509 134.578C227.691 135.181 227.855 135.792 227.998 136.411L228.972 136.185ZM227.835 132.429L228.77 132.077C228.531 131.442 228.272 130.817 227.993 130.202L227.082 130.615L226.172 131.029C226.433 131.603 226.675 132.188 226.899 132.782L227.835 132.429ZM226.213 128.856L227.094 128.383C226.775 127.786 226.436 127.2 226.078 126.627L225.23 127.156L224.381 127.685C224.715 128.221 225.032 128.769 225.331 129.328L226.213 128.856ZM224.137 125.525L224.95 124.941C224.555 124.392 224.143 123.855 223.714 123.333L222.941 123.968L222.169 124.603C222.57 125.091 222.956 125.593 223.325 126.108L224.137 125.525ZM221.646 122.492L222.376 121.808C221.913 121.315 221.435 120.837 220.942 120.374L220.258 121.104L219.574 121.834C220.036 122.266 220.484 122.714 220.916 123.176L221.646 122.492ZM218.782 119.809L219.417 119.036C218.895 118.607 218.358 118.195 217.809 117.8L217.225 118.613L216.642 119.425C217.157 119.794 217.659 120.18 218.147 120.581L218.782 119.809ZM215.594 117.52L216.123 116.672C215.55 116.314 214.964 115.975 214.367 115.656L213.894 116.537L213.422 117.419C213.981 117.718 214.529 118.035 215.065 118.369L215.594 117.52ZM212.135 115.668L212.548 114.757C211.933 114.478 211.308 114.219 210.673 113.98L210.321 114.915L209.968 115.851C210.562 116.075 211.147 116.317 211.721 116.578L212.135 115.668ZM208.461 114.284L208.751 113.327C208.107 113.132 207.453 112.957 206.792 112.803L206.565 113.778L206.339 114.752C206.958 114.895 207.569 115.059 208.172 115.241L208.461 114.284ZM204.639 113.396L204.801 112.41C204.137 112.301 203.466 112.213 202.789 112.147L202.692 113.142L202.595 114.138C203.229 114.199 203.856 114.281 204.477 114.383L204.639 113.396ZM200.734 113.016L200.766 112.016C200.429 112.005 200.09 112 199.75 112V113V114C200.068 114 200.386 114.005 200.702 114.015L200.734 113.016ZM30 377V376C29.657 376 29.3168 376.013 28.9801 376.039L29.0576 377.036L29.135 378.033C29.4202 378.011 29.7087 378 30 378V377ZM27.1974 377.329L26.9648 376.356C26.2961 376.516 25.6475 376.728 25.0235 376.987L25.4065 377.911L25.7896 378.834C26.317 378.616 26.8651 378.437 27.4301 378.302L27.1974 377.329ZM23.7293 378.767L23.206 377.915C22.6243 378.272 22.073 378.673 21.5567 379.115L22.2065 379.875L22.8563 380.635C23.2936 380.261 23.7603 379.921 24.2526 379.619L23.7293 378.767ZM20.8749 381.207L20.1148 380.557C19.6735 381.073 19.2718 381.624 18.9146 382.206L19.7668 382.729L20.6189 383.253C20.9212 382.76 21.2612 382.294 21.635 381.856L20.8749 381.207ZM18.9106 384.407L17.9868 384.023C17.7281 384.648 17.5164 385.296 17.3565 385.965L18.329 386.197L19.3016 386.43C19.4368 385.865 19.6156 385.317 19.8343 384.79L18.9106 384.407ZM18.0365 388.058L17.0395 387.98C17.0133 388.317 17 388.657 17 389H18H19C19 388.709 19.0113 388.42 19.0335 388.135L18.0365 388.058ZM18 389H17C17 389.343 17.0133 389.683 17.0395 390.02L18.0365 389.942L19.0335 389.865C19.0113 389.58 19 389.291 19 389H18ZM18.329 391.803L17.3565 392.035C17.5164 392.704 17.7281 393.352 17.9868 393.977L18.9106 393.593L19.8343 393.21C19.6156 392.683 19.4368 392.135 19.3016 391.57L18.329 391.803ZM19.7668 395.271L18.9146 395.794C19.2718 396.376 19.6735 396.927 20.1148 397.443L20.8749 396.793L21.635 396.144C21.2612 395.706 20.9212 395.24 20.6189 394.747L19.7668 395.271ZM22.2065 398.125L21.5567 398.885C22.073 399.327 22.6243 399.728 23.206 400.085L23.7293 399.233L24.2526 398.381C23.7603 398.079 23.2936 397.739 22.8563 397.365L22.2065 398.125ZM25.4065 400.089L25.0235 401.013C25.6475 401.272 26.2961 401.484 26.9648 401.644L27.1974 400.671L27.4301 399.698C26.8651 399.563 26.317 399.384 25.7896 399.166L25.4065 400.089ZM29.0576 400.964L28.9801 401.961C29.3168 401.987 29.657 402 30 402V401V400C29.7087 400 29.4202 399.989 29.135 399.967L29.0576 400.964ZM30 401V402C30.343 402 30.6832 401.987 31.0199 401.961L30.9424 400.964L30.865 399.967C30.5798 399.989 30.2913 400 30 400V401ZM32.8026 400.671L33.0352 401.644C33.7039 401.484 34.3525 401.272 34.9765 401.013L34.5935 400.089L34.2104 399.166C33.683 399.384 33.1349 399.563 32.5699 399.698L32.8026 400.671ZM36.2707 399.233L36.794 400.085C37.3757 399.728 37.927 399.327 38.4433 398.885L37.7935 398.125L37.1437 397.365C36.7064 397.739 36.2397 398.079 35.7474 398.381L36.2707 399.233ZM39.1251 396.793L39.8852 397.443C40.3265 396.927 40.7282 396.376 41.0854 395.794L40.2332 395.271L39.3811 394.747C39.0788 395.24 38.7388 395.706 38.365 396.144L39.1251 396.793ZM41.0894 393.593L42.0132 393.977C42.2719 393.352 42.4836 392.704 42.6435 392.035L41.671 391.803L40.6984 391.57C40.5632 392.135 40.3844 392.683 40.1657 393.21L41.0894 393.593ZM41.9635 389.942L42.9605 390.02C42.9867 389.683 43 389.343 43 389H42H41C41 389.291 40.9887 389.58 40.9665 389.865L41.9635 389.942ZM42 389H43C43 388.657 42.9867 388.317 42.9605 387.98L41.9635 388.058L40.9665 388.135C40.9887 388.42 41 388.709 41 389H42ZM41.671 386.197L42.6435 385.965C42.4836 385.296 42.2719 384.648 42.0132 384.023L41.0894 384.407L40.1657 384.79C40.3844 385.317 40.5632 385.865 40.6984 386.43L41.671 386.197ZM40.2332 382.729L41.0854 382.206C40.7282 381.624 40.3265 381.073 39.8852 380.557L39.1251 381.207L38.365 381.856C38.7388 382.294 39.0788 382.76 39.3811 383.253L40.2332 382.729ZM37.7935 379.875L38.4433 379.115C37.927 378.673 37.3757 378.272 36.794 377.915L36.2707 378.767L35.7474 379.619C36.2397 379.921 36.7064 380.261 37.1437 380.635L37.7935 379.875ZM34.5935 377.911L34.9765 376.987C34.3525 376.728 33.7039 376.516 33.0352 376.356L32.8026 377.329L32.5699 378.302C33.1349 378.437 33.683 378.616 34.2104 378.834L34.5935 377.911ZM30.9424 377.036L31.0199 376.039C30.6832 376.013 30.343 376 30 376V377V378C30.2913 378 30.5798 378.011 30.865 378.033L30.9424 377.036ZM325 377V376C324.657 376 324.317 376.013 323.98 376.039L324.058 377.036L324.135 378.033C324.42 378.011 324.709 378 325 378V377ZM322.197 377.329L321.965 376.356C321.296 376.516 320.648 376.728 320.023 376.987L320.407 377.911L320.79 378.834C321.317 378.616 321.865 378.437 322.43 378.302L322.197 377.329ZM318.729 378.767L318.206 377.915C317.624 378.272 317.073 378.673 316.557 379.115L317.207 379.875L317.856 380.635C318.294 380.261 318.76 379.921 319.253 379.619L318.729 378.767ZM315.875 381.207L315.115 380.557C314.673 381.073 314.272 381.624 313.915 382.206L314.767 382.729L315.619 383.253C315.921 382.76 316.261 382.294 316.635 381.856L315.875 381.207ZM313.911 384.407L312.987 384.023C312.728 384.648 312.516 385.296 312.356 385.965L313.329 386.197L314.302 386.43C314.437 385.865 314.616 385.317 314.834 384.79L313.911 384.407ZM313.036 388.058L312.039 387.98C312.013 388.317 312 388.657 312 389H313H314C314 388.709 314.011 388.42 314.033 388.135L313.036 388.058ZM313 389H312C312 389.343 312.013 389.683 312.039 390.02L313.036 389.942L314.033 389.865C314.011 389.58 314 389.291 314 389H313ZM313.329 391.803L312.356 392.035C312.516 392.704 312.728 393.352 312.987 393.977L313.911 393.593L314.834 393.21C314.616 392.683 314.437 392.135 314.302 391.57L313.329 391.803ZM314.767 395.271L313.915 395.794C314.272 396.376 314.673 396.927 315.115 397.443L315.875 396.793L316.635 396.144C316.261 395.706 315.921 395.24 315.619 394.747L314.767 395.271ZM317.207 398.125L316.557 398.885C317.073 399.327 317.624 399.728 318.206 400.085L318.729 399.233L319.253 398.381C318.76 398.079 318.294 397.739 317.856 397.365L317.207 398.125ZM320.407 400.089L320.023 401.013C320.648 401.272 321.296 401.484 321.965 401.644L322.197 400.671L322.43 399.698C321.865 399.563 321.317 399.384 320.79 399.166L320.407 400.089ZM324.058 400.964L323.98 401.961C324.317 401.987 324.657 402 325 402V401V400C324.709 400 324.42 399.989 324.135 399.967L324.058 400.964ZM325 401V402C325.343 402 325.683 401.987 326.02 401.961L325.942 400.964L325.865 399.967C325.58 399.989 325.291 400 325 400V401ZM327.803 400.671L328.035 401.644C328.704 401.484 329.352 401.272 329.977 401.013L329.593 400.089L329.21 399.166C328.683 399.384 328.135 399.563 327.57 399.698L327.803 400.671ZM331.271 399.233L331.794 400.085C332.376 399.728 332.927 399.327 333.443 398.885L332.793 398.125L332.144 397.365C331.706 397.739 331.24 398.079 330.747 398.381L331.271 399.233ZM334.125 396.793L334.885 397.443C335.327 396.927 335.728 396.376 336.085 395.794L335.233 395.271L334.381 394.747C334.079 395.24 333.739 395.706 333.365 396.144L334.125 396.793ZM336.089 393.593L337.013 393.977C337.272 393.352 337.484 392.704 337.644 392.035L336.671 391.803L335.698 391.57C335.563 392.135 335.384 392.683 335.166 393.21L336.089 393.593ZM336.964 389.942L337.961 390.02C337.987 389.683 338 389.343 338 389H337H336C336 389.291 335.989 389.58 335.967 389.865L336.964 389.942ZM337 389H338C338 388.657 337.987 388.317 337.961 387.98L336.964 388.058L335.967 388.135C335.989 388.42 336 388.709 336 389H337ZM336.671 386.197L337.644 385.965C337.484 385.296 337.272 384.648 337.013 384.023L336.089 384.407L335.166 384.79C335.384 385.317 335.563 385.865 335.698 386.43L336.671 386.197ZM335.233 382.729L336.085 382.206C335.728 381.624 335.327 381.073 334.885 380.557L334.125 381.207L333.365 381.856C333.739 382.294 334.079 382.76 334.381 383.253L335.233 382.729ZM332.793 379.875L333.443 379.115C332.927 378.673 332.376 378.272 331.794 377.915L331.271 378.767L330.747 379.619C331.24 379.921 331.706 380.261 332.144 380.635L332.793 379.875ZM329.593 377.911L329.977 376.987C329.352 376.728 328.704 376.516 328.035 376.356L327.803 377.329L327.57 378.302C328.135 378.437 328.683 378.616 329.21 378.834L329.593 377.911ZM325.942 377.036L326.02 376.039C325.683 376.013 325.343 376 325 376V377V378C325.291 378 325.58 378.011 325.865 378.033L325.942 377.036ZM30 129V128C29.657 128 29.3168 128.013 28.9801 128.039L29.0576 129.036L29.135 130.033C29.4202 130.011 29.7087 130 30 130V129ZM27.1974 129.329L26.9648 128.356C26.2961 128.516 25.6475 128.728 25.0235 128.987L25.4065 129.911L25.7896 130.834C26.317 130.616 26.8651 130.437 27.4301 130.302L27.1974 129.329ZM23.7293 130.767L23.206 129.915C22.6243 130.272 22.073 130.673 21.5567 131.115L22.2065 131.875L22.8563 132.635C23.2936 132.261 23.7603 131.921 24.2526 131.619L23.7293 130.767ZM20.8749 133.207L20.1148 132.557C19.6735 133.073 19.2718 133.624 18.9146 134.206L19.7668 134.729L20.6189 135.253C20.9212 134.76 21.2612 134.294 21.635 133.856L20.8749 133.207ZM18.9106 136.407L17.9868 136.023C17.7281 136.648 17.5164 137.296 17.3565 137.965L18.329 138.197L19.3016 138.43C19.4368 137.865 19.6156 137.317 19.8343 136.79L18.9106 136.407ZM18.0365 140.058L17.0395 139.98C17.0133 140.317 17 140.657 17 141H18H19C19 140.709 19.0113 140.42 19.0335 140.135L18.0365 140.058ZM18 141H17C17 141.343 17.0133 141.683 17.0395 142.02L18.0365 141.942L19.0335 141.865C19.0113 141.58 19 141.291 19 141H18ZM18.329 143.803L17.3565 144.035C17.5164 144.704 17.7281 145.352 17.9868 145.977L18.9106 145.593L19.8343 145.21C19.6156 144.683 19.4368 144.135 19.3016 143.57L18.329 143.803ZM19.7668 147.271L18.9146 147.794C19.2718 148.376 19.6735 148.927 20.1148 149.443L20.8749 148.793L21.635 148.144C21.2612 147.706 20.9212 147.24 20.6189 146.747L19.7668 147.271ZM22.2065 150.125L21.5567 150.885C22.073 151.327 22.6243 151.728 23.206 152.085L23.7293 151.233L24.2526 150.381C23.7603 150.079 23.2936 149.739 22.8563 149.365L22.2065 150.125ZM25.4065 152.089L25.0235 153.013C25.6475 153.272 26.2961 153.484 26.9648 153.644L27.1974 152.671L27.4301 151.698C26.8651 151.563 26.317 151.384 25.7896 151.166L25.4065 152.089ZM29.0576 152.964L28.9801 153.961C29.3168 153.987 29.657 154 30 154V153V152C29.7087 152 29.4202 151.989 29.135 151.967L29.0576 152.964ZM30 153V154C30.343 154 30.6832 153.987 31.0199 153.961L30.9424 152.964L30.865 151.967C30.5798 151.989 30.2913 152 30 152V153ZM32.8026 152.671L33.0352 153.644C33.7039 153.484 34.3525 153.272 34.9765 153.013L34.5935 152.089L34.2104 151.166C33.683 151.384 33.1349 151.563 32.5699 151.698L32.8026 152.671ZM36.2707 151.233L36.794 152.085C37.3757 151.728 37.927 151.327 38.4433 150.885L37.7935 150.125L37.1437 149.365C36.7064 149.739 36.2397 150.079 35.7474 150.381L36.2707 151.233ZM39.1251 148.793L39.8852 149.443C40.3265 148.927 40.7282 148.376 41.0854 147.794L40.2332 147.271L39.3811 146.747C39.0788 147.24 38.7388 147.706 38.365 148.144L39.1251 148.793ZM41.0894 145.593L42.0132 145.977C42.2719 145.352 42.4836 144.704 42.6435 144.035L41.671 143.803L40.6984 143.57C40.5632 144.135 40.3844 144.683 40.1657 145.21L41.0894 145.593ZM41.9635 141.942L42.9605 142.02C42.9867 141.683 43 141.343 43 141H42H41C41 141.291 40.9887 141.58 40.9665 141.865L41.9635 141.942ZM42 141H43C43 140.657 42.9867 140.317 42.9605 139.98L41.9635 140.058L40.9665 140.135C40.9887 140.42 41 140.709 41 141H42ZM41.671 138.197L42.6435 137.965C42.4836 137.296 42.2719 136.648 42.0132 136.023L41.0894 136.407L40.1657 136.79C40.3844 137.317 40.5632 137.865 40.6984 138.43L41.671 138.197ZM40.2332 134.729L41.0854 134.206C40.7282 133.624 40.3265 133.073 39.8852 132.557L39.1251 133.207L38.365 133.856C38.7388 134.294 39.0788 134.76 39.3811 135.253L40.2332 134.729ZM37.7935 131.875L38.4433 131.115C37.927 130.673 37.3757 130.272 36.794 129.915L36.2707 130.767L35.7474 131.619C36.2397 131.921 36.7064 132.261 37.1437 132.635L37.7935 131.875ZM34.5935 129.911L34.9765 128.987C34.3525 128.728 33.7039 128.516 33.0352 128.356L32.8026 129.329L32.5699 130.302C33.1349 130.437 33.683 130.616 34.2104 130.834L34.5935 129.911ZM30.9424 129.036L31.0199 128.039C30.6832 128.013 30.343 128 30 128V129V130C30.2913 130 30.5798 130.011 30.865 130.033L30.9424 129.036Z" fill="#4B4B4B" mask="url(#path-1-outside-1_2681_2925)"/>
</svg>
