<svg width="355" height="419" viewBox="0 0 355 419" fill="none" xmlns="http://www.w3.org/2000/svg">
<mask id="path-1-outside-1_2681_2925" maskUnits="userSpaceOnUse" x="1" y="45.5" width="353" height="373" fill="black">
<rect fill="white" x="1" y="45.5" width="353" height="373"/>
<path d="M323.47 46.5C339.779 46.5 353 59.7214 353 76.0303V387.5C353 404.069 339.569 417.5 323 417.5H32C15.4315 417.5 2.00002 404.069 2 387.5V143.5C2 126.931 15.4315 113.5 32 113.5H128.5C145.069 113.5 158.5 126.931 158.5 143.5V153C158.5 169.569 171.931 183 188.5 183H194.414C204.045 183 213.091 178.376 218.731 170.569L299.534 58.7354C305.086 51.0513 313.99 46.5001 323.47 46.5ZM30 377.5C23.3726 377.5 18 382.873 18 389.5C18 396.127 23.3726 401.5 30 401.5C36.6274 401.5 42 396.127 42 389.5C42 382.873 36.6274 377.5 30 377.5ZM325 377.5C318.373 377.5 313 382.873 313 389.5C313 396.127 318.373 401.5 325 401.5C331.627 401.5 337 396.127 337 389.5C337 382.873 331.627 377.5 325 377.5ZM30 129.5C23.3726 129.5 18 134.873 18 141.5C18 148.127 23.3726 153.5 30 153.5C36.6274 153.5 42 148.127 42 141.5C42 134.873 36.6274 129.5 30 129.5ZM325 62.5C318.373 62.5 313 67.8726 313 74.5C313 81.1274 318.373 86.5 325 86.5C331.627 86.5 337 81.1274 337 74.5C337 67.8726 331.627 62.5 325 62.5Z"/>
</mask>
<path d="M323.47 46.5L323.47 46L323.47 46L323.47 46.5ZM353 387.5L353.5 387.5V387.5H353ZM323 417.5L323 418H323L323 417.5ZM2 387.5L1.5 387.5L1.5 387.5L2 387.5ZM32 113.5L32 113L32 113.5ZM128.5 113.5L128.5 113H128.5V113.5ZM158.5 143.5L159 143.5V143.5L158.5 143.5ZM158.5 153L158 153V153L158.5 153ZM218.731 170.569L219.137 170.862L219.137 170.862L218.731 170.569ZM299.534 58.7354L299.129 58.4425L299.129 58.4425L299.534 58.7354ZM323.47 46.5L323.47 46C323.131 46 322.793 46.0057 322.456 46.0171L322.473 46.5168L322.49 47.0165C322.816 47.0055 323.142 47 323.47 47L323.47 46.5ZM320.484 46.6511L320.434 46.1537C319.76 46.2221 319.09 46.3132 318.425 46.4264L318.509 46.9193L318.593 47.4122C319.236 47.3028 319.883 47.2147 320.535 47.1486L320.484 46.6511ZM316.557 47.3202L316.44 46.8341C315.782 46.9925 315.131 47.173 314.487 47.3749L314.636 47.852L314.786 48.3291C315.408 48.1339 316.038 47.9595 316.674 47.8063L316.557 47.3202ZM312.756 48.5121L312.574 48.0462C311.944 48.2916 311.323 48.558 310.712 48.845L310.924 49.2976L311.136 49.7502C311.727 49.4728 312.328 49.2152 312.937 48.9781L312.756 48.5121ZM309.149 50.2047L308.907 49.7675C308.316 50.095 307.736 50.4425 307.168 50.8095L307.44 51.2294L307.711 51.6494C308.26 51.2946 308.821 50.9587 309.392 50.642L309.149 50.2047ZM305.803 52.3671L305.504 51.9664C304.964 52.3701 304.436 52.7924 303.922 53.2331L304.247 53.6126L304.573 53.9922C305.07 53.5663 305.58 53.158 306.102 52.7678L305.803 52.3671ZM302.779 54.9602L302.429 54.6035C301.948 55.0757 301.482 55.5653 301.031 56.0717L301.405 56.404L301.779 56.7362C302.214 56.2467 302.665 55.7734 303.129 55.317L302.779 54.9602ZM300.132 57.9373L299.736 57.631C299.53 57.8975 299.327 58.1681 299.129 58.4425L299.534 58.7354L299.939 59.0282C300.131 58.7628 300.327 58.5013 300.527 58.2436L300.132 57.9373ZM299.534 58.7354L299.129 58.4425L298.535 59.2648L298.94 59.5577L299.345 59.8505L299.939 59.0282L299.534 58.7354ZM297.752 61.2023L297.346 60.9095L296.158 62.5541L296.563 62.8469L296.969 63.1397L298.157 61.4951L297.752 61.2023ZM295.375 64.4915L294.97 64.1987L293.782 65.8433L294.187 66.1361L294.592 66.429L295.78 64.7843L295.375 64.4915ZM292.999 67.7807L292.593 67.4879L291.405 69.1325L291.81 69.4254L292.216 69.7182L293.404 68.0736L292.999 67.7807ZM290.622 71.07L290.217 70.7772L289.029 72.4218L289.434 72.7146L289.839 73.0074L291.027 71.3628L290.622 71.07ZM288.246 74.3592L287.84 74.0664L286.652 75.711L287.057 76.0038L287.463 76.2967L288.651 74.652L288.246 74.3592ZM285.869 77.6485L285.464 77.3556L284.275 79.0002L284.681 79.2931L285.086 79.5859L286.274 77.9413L285.869 77.6485ZM283.492 80.9377L283.087 80.6449L281.899 82.2895L282.304 82.5823L282.709 82.8751L283.898 81.2305L283.492 80.9377ZM281.116 84.2269L280.711 83.9341L279.522 85.5787L279.928 85.8715L280.333 86.1644L281.521 84.5198L281.116 84.2269ZM278.739 87.5162L278.334 87.2233L277.146 88.868L277.551 89.1608L277.956 89.4536L279.145 87.809L278.739 87.5162ZM276.363 90.8054L275.958 90.5126L274.769 92.1572L275.175 92.45L275.58 92.7428L276.768 91.0982L276.363 90.8054ZM273.986 94.0946L273.581 93.8018L272.393 95.4464L272.798 95.7392L273.203 96.0321L274.392 94.3875L273.986 94.0946ZM271.61 97.3839L271.204 97.091L270.016 98.7357L270.421 99.0285L270.827 99.3213L272.015 97.6767L271.61 97.3839ZM269.233 100.673L268.828 100.38L267.64 102.025L268.045 102.318L268.45 102.611L269.638 100.966L269.233 100.673ZM266.857 103.962L266.451 103.67L265.263 105.314L265.668 105.607L266.074 105.9L267.262 104.255L266.857 103.962ZM264.48 107.252L264.075 106.959L262.887 108.603L263.292 108.896L263.697 109.189L264.885 107.544L264.48 107.252ZM262.104 110.541L261.698 110.248L260.51 111.893L260.915 112.185L261.321 112.478L262.509 110.834L262.104 110.541ZM259.727 113.83L259.322 113.537L258.133 115.182L258.539 115.475L258.944 115.767L260.132 114.123L259.727 113.83ZM257.35 117.119L256.945 116.826L255.757 118.471L256.162 118.764L256.567 119.057L257.756 117.412L257.35 117.119ZM254.974 120.409L254.569 120.116L253.38 121.76L253.786 122.053L254.191 122.346L255.379 120.701L254.974 120.409ZM252.597 123.698L252.192 123.405L251.004 125.05L251.409 125.342L251.814 125.635L253.003 123.991L252.597 123.698ZM250.221 126.987L249.815 126.694L248.627 128.339L249.032 128.632L249.438 128.924L250.626 127.28L250.221 126.987ZM247.844 130.276L247.439 129.983L246.251 131.628L246.656 131.921L247.061 132.214L248.249 130.569L247.844 130.276ZM245.468 133.565L245.062 133.273L243.874 134.917L244.279 135.21L244.685 135.503L245.873 133.858L245.468 133.565ZM243.091 136.855L242.686 136.562L241.498 138.207L241.903 138.499L242.308 138.792L243.496 137.148L243.091 136.855ZM240.715 140.144L240.309 139.851L239.121 141.496L239.526 141.789L239.932 142.081L241.12 140.437L240.715 140.144ZM238.338 143.433L237.933 143.14L236.744 144.785L237.15 145.078L237.555 145.371L238.743 143.726L238.338 143.433ZM235.961 146.722L235.556 146.43L234.368 148.074L234.773 148.367L235.178 148.66L236.367 147.015L235.961 146.722ZM233.585 150.012L233.18 149.719L231.991 151.363L232.397 151.656L232.802 151.949L233.99 150.304L233.585 150.012ZM231.208 153.301L230.803 153.008L229.615 154.653L230.02 154.946L230.425 155.238L231.614 153.594L231.208 153.301ZM228.832 156.59L228.426 156.297L227.238 157.942L227.643 158.235L228.049 158.528L229.237 156.883L228.832 156.59ZM226.455 159.879L226.05 159.587L224.862 161.231L225.267 161.524L225.672 161.817L226.86 160.172L226.455 159.879ZM224.079 163.169L223.673 162.876L222.485 164.52L222.89 164.813L223.296 165.106L224.484 163.461L224.079 163.169ZM221.702 166.458L221.297 166.165L220.109 167.81L220.514 168.102L220.919 168.395L222.107 166.751L221.702 166.458ZM219.326 169.747L218.92 169.454L218.326 170.277L218.731 170.569L219.137 170.862L219.731 170.04L219.326 169.747ZM218.731 170.569L218.326 170.277C218.131 170.546 217.932 170.812 217.729 171.074L218.125 171.38L218.52 171.686C218.73 171.416 218.935 171.141 219.137 170.862L218.731 170.569ZM216.831 172.938L216.457 172.606C216.015 173.103 215.557 173.584 215.084 174.048L215.435 174.405L215.785 174.761C216.273 174.282 216.747 173.785 217.204 173.27L216.831 172.938ZM213.943 175.774L213.618 175.394C213.113 175.827 212.594 176.242 212.063 176.639L212.362 177.039L212.661 177.44C213.211 177.03 213.747 176.601 214.269 176.153L213.943 175.774ZM210.7 178.195L210.428 177.775C209.87 178.136 209.301 178.477 208.72 178.799L208.963 179.236L209.205 179.673C209.805 179.341 210.394 178.988 210.971 178.615L210.7 178.195ZM207.16 180.158L206.948 179.705C206.347 179.987 205.737 180.249 205.118 180.49L205.299 180.956L205.48 181.422C206.12 181.172 206.751 180.902 207.372 180.61L207.16 180.158ZM203.388 181.626L203.239 181.149C202.606 181.348 201.966 181.525 201.32 181.681L201.437 182.167L201.554 182.653C202.222 182.492 202.884 182.309 203.538 182.104L203.388 181.626ZM199.454 182.574L199.37 182.081C198.717 182.192 198.059 182.282 197.397 182.349L197.447 182.847L197.498 183.344C198.182 183.274 198.863 183.182 199.538 183.067L199.454 182.574ZM195.427 182.983L195.41 182.483C195.079 182.494 194.747 182.5 194.414 182.5V183V183.5C194.758 183.5 195.101 183.494 195.444 183.483L195.427 182.983ZM194.414 183V182.5H192.936V183V183.5H194.414V183ZM189.979 183V182.5H188.5V183V183.5H189.979V183ZM188.5 183V182.5C188.176 182.5 187.854 182.495 187.532 182.484L187.516 182.984L187.5 183.484C187.832 183.495 188.165 183.5 188.5 183.5V183ZM185.558 182.858L185.607 182.36C184.962 182.297 184.324 182.214 183.692 182.11L183.611 182.604L183.53 183.097C184.183 183.204 184.843 183.29 185.51 183.355L185.558 182.858ZM181.685 182.222L181.798 181.735C181.168 181.589 180.547 181.423 179.933 181.237L179.789 181.716L179.644 182.194C180.278 182.386 180.921 182.558 181.571 182.709L181.685 182.222ZM177.929 181.085L178.105 180.617C177.501 180.389 176.907 180.142 176.322 179.877L176.115 180.332L175.909 180.788C176.513 181.062 177.128 181.317 177.753 181.553L177.929 181.085ZM174.356 179.463L174.592 179.022C174.023 178.718 173.466 178.395 172.921 178.055L172.656 178.48L172.392 178.904C172.956 179.255 173.532 179.589 174.12 179.904L174.356 179.463ZM171.025 177.387L171.316 176.981C170.793 176.606 170.282 176.213 169.785 175.805L169.468 176.191L169.15 176.578C169.664 177 170.192 177.405 170.733 177.794L171.025 177.387ZM167.992 174.896L168.334 174.531C167.864 174.091 167.409 173.636 166.969 173.166L166.604 173.508L166.239 173.85C166.694 174.335 167.165 174.806 167.65 175.261L167.992 174.896ZM165.309 172.032L165.695 171.715C165.287 171.218 164.894 170.707 164.519 170.184L164.113 170.475L163.706 170.767C164.095 171.308 164.5 171.836 164.922 172.35L165.309 172.032ZM163.02 168.844L163.445 168.579C163.105 168.034 162.782 167.477 162.478 166.908L162.037 167.144L161.596 167.38C161.911 167.968 162.245 168.544 162.596 169.108L163.02 168.844ZM161.168 165.385L161.623 165.178C161.358 164.593 161.111 163.999 160.883 163.395L160.415 163.571L159.947 163.747C160.183 164.372 160.438 164.987 160.712 165.591L161.168 165.385ZM159.784 161.711L160.263 161.567C160.077 160.953 159.911 160.332 159.765 159.702L159.278 159.815L158.791 159.929C158.942 160.579 159.114 161.222 159.306 161.856L159.784 161.711ZM158.896 157.889L159.39 157.808C159.286 157.176 159.203 156.538 159.14 155.893L158.642 155.942L158.145 155.99C158.21 156.657 158.296 157.317 158.403 157.97L158.896 157.889ZM158.516 153.984L159.016 153.968C159.005 153.646 159 153.324 159 153L158.5 153L158 153C158 153.335 158.005 153.668 158.016 154L158.516 153.984ZM158.5 153H159V151.812H158.5H158V153H158.5ZM158.5 149.438H159V147.062H158.5H158V149.438H158.5ZM158.5 144.688H159V143.5H158.5H158V144.688H158.5ZM158.5 143.5L159 143.5C159 143.165 158.995 142.832 158.984 142.5L158.484 142.516L157.984 142.532C157.995 142.854 158 143.176 158 143.5L158.5 143.5ZM158.358 140.558L158.855 140.51C158.79 139.843 158.704 139.183 158.597 138.53L158.104 138.611L157.61 138.692C157.714 139.324 157.797 139.962 157.86 140.607L158.358 140.558ZM157.722 136.685L158.209 136.571C158.058 135.921 157.886 135.278 157.694 134.644L157.216 134.789L156.737 134.933C156.923 135.547 157.089 136.168 157.235 136.798L157.722 136.685ZM156.585 132.929L157.053 132.753C156.817 132.128 156.562 131.513 156.288 130.909L155.832 131.115L155.377 131.322C155.642 131.907 155.889 132.501 156.117 133.105L156.585 132.929ZM154.963 129.356L155.404 129.12C155.089 128.532 154.755 127.956 154.404 127.392L153.98 127.656L153.555 127.921C153.895 128.466 154.218 129.023 154.522 129.592L154.963 129.356ZM152.887 126.025L153.294 125.733C152.905 125.192 152.5 124.664 152.078 124.15L151.691 124.468L151.305 124.785C151.713 125.282 152.106 125.793 152.481 126.316L152.887 126.025ZM150.396 122.992L150.761 122.65C150.306 122.165 149.835 121.694 149.35 121.239L149.008 121.604L148.666 121.969C149.136 122.409 149.591 122.864 150.031 123.334L150.396 122.992ZM147.532 120.309L147.85 119.922C147.336 119.5 146.808 119.095 146.267 118.706L145.975 119.113L145.684 119.519C146.207 119.894 146.718 120.287 147.215 120.695L147.532 120.309ZM144.344 118.02L144.608 117.596C144.044 117.245 143.468 116.911 142.88 116.596L142.644 117.037L142.408 117.478C142.977 117.782 143.534 118.105 144.079 118.445L144.344 118.02ZM140.885 116.168L141.091 115.712C140.487 115.438 139.872 115.183 139.247 114.947L139.071 115.415L138.895 115.883C139.499 116.111 140.093 116.358 140.678 116.623L140.885 116.168ZM137.211 114.784L137.356 114.306C136.722 114.114 136.079 113.942 135.429 113.791L135.315 114.278L135.202 114.765C135.832 114.911 136.453 115.077 137.067 115.263L137.211 114.784ZM133.389 113.896L133.47 113.403C132.817 113.296 132.157 113.21 131.49 113.145L131.442 113.642L131.393 114.14C132.038 114.203 132.676 114.286 133.308 114.39L133.389 113.896ZM129.484 113.516L129.5 113.016C129.168 113.005 128.835 113 128.5 113L128.5 113.5L128.5 114C128.824 114 129.146 114.005 129.468 114.016L129.484 113.516ZM128.5 113.5V113H127.495V113.5V114H128.5V113.5ZM125.484 113.5V113H123.474V113.5V114H125.484V113.5ZM121.464 113.5V113H119.453V113.5V114H121.464V113.5ZM117.443 113.5V113H115.432V113.5V114H117.443V113.5ZM113.422 113.5V113H111.411V113.5V114H113.422V113.5ZM109.401 113.5V113H107.391V113.5V114H109.401V113.5ZM105.38 113.5V113H103.37V113.5V114H105.38V113.5ZM101.359 113.5V113H99.349V113.5V114H101.359V113.5ZM97.3385 113.5V113H95.3281V113.5V114H97.3385V113.5ZM93.3177 113.5V113H91.3073V113.5V114H93.3177V113.5ZM89.2969 113.5V113H87.2865V113.5V114H89.2969V113.5ZM85.276 113.5V113H83.2656V113.5V114H85.276V113.5ZM81.2552 113.5V113H79.2448V113.5V114H81.2552V113.5ZM77.2344 113.5V113H75.2239V113.5V114H77.2344V113.5ZM73.2135 113.5V113H71.2031V113.5V114H73.2135V113.5ZM69.1927 113.5V113H67.1823V113.5V114H69.1927V113.5ZM65.1719 113.5V113H63.1614V113.5V114H65.1719V113.5ZM61.151 113.5V113H59.1406V113.5V114H61.151V113.5ZM57.1302 113.5V113H55.1198V113.5V114H57.1302V113.5ZM53.1094 113.5V113H51.099V113.5V114H53.1094V113.5ZM49.0885 113.5V113H47.0781V113.5V114H49.0885V113.5ZM45.0677 113.5V113H43.0573V113.5V114H45.0677V113.5ZM41.0469 113.5V113H39.0365V113.5V114H41.0469V113.5ZM37.0261 113.5V113H35.0156V113.5V114H37.0261V113.5ZM33.0052 113.5V113H32V113.5V114H33.0052V113.5ZM32 113.5L32 113C31.6655 113 31.3322 113.005 31.0002 113.016L31.0163 113.516L31.0324 114.016C31.3536 114.005 31.6762 114 32 114L32 113.5ZM29.0583 113.642L29.0099 113.145C28.3435 113.21 27.6833 113.296 27.0301 113.403L27.111 113.896L27.1918 114.39C27.8236 114.286 28.4621 114.203 29.1068 114.14L29.0583 113.642ZM25.1846 114.278L25.0715 113.791C24.4206 113.942 23.7777 114.114 23.1435 114.306L23.2885 114.784L23.4335 115.263C24.0467 115.077 24.6684 114.911 25.2978 114.765L25.1846 114.278ZM21.4293 115.415L21.2531 114.947C20.6283 115.183 20.0133 115.438 19.4088 115.712L19.6155 116.168L19.8221 116.623C20.4066 116.358 21.0013 116.111 21.6055 115.883L21.4293 115.415ZM17.8556 117.037L17.6195 116.596C17.0318 116.911 16.4555 117.245 15.8917 117.596L16.1561 118.02L16.4205 118.445C16.9659 118.105 17.5232 117.782 18.0917 117.478L17.8556 117.037ZM14.5246 119.113L14.233 118.706C13.692 119.095 13.1642 119.5 12.6505 119.922L12.9679 120.309L13.2853 120.695C13.7823 120.287 14.2928 119.894 14.8161 119.519L14.5246 119.113ZM11.4922 121.604L11.1504 121.239C10.6648 121.694 10.1941 122.165 9.73908 122.65L10.1039 122.992L10.4688 123.334C10.909 122.864 11.3643 122.409 11.8341 121.969L11.4922 121.604ZM8.8088 124.468L8.42247 124.15C8.00039 124.664 7.59477 125.192 7.20641 125.733L7.61259 126.025L8.01877 126.316C8.39444 125.793 8.78682 125.282 9.19513 124.785L8.8088 124.468ZM6.52031 127.656L6.09596 127.392C5.74457 127.956 5.41108 128.532 5.09628 129.12L5.53703 129.356L5.97779 129.592C6.28225 129.023 6.6048 128.466 6.94466 127.921L6.52031 127.656ZM4.66752 131.115L4.21221 130.909C3.93789 131.513 3.6827 132.128 3.44743 132.753L3.91535 132.929L4.38327 133.105C4.61078 132.501 4.85754 131.907 5.12282 131.322L4.66752 131.115ZM3.2844 134.789L2.80588 134.644C2.61374 135.278 2.4417 135.921 2.2905 136.571L2.77753 136.685L3.26457 136.798C3.41078 136.168 3.57713 135.547 3.76292 134.933L3.2844 134.789ZM2.39639 138.611L1.90297 138.53C1.79591 139.183 1.7096 139.843 1.64474 140.51L2.14239 140.558L2.64004 140.607C2.70278 139.962 2.78626 139.324 2.88981 138.692L2.39639 138.611ZM2.01582 142.516L1.51608 142.5C1.50539 142.832 1.5 143.165 1.5 143.5H2H2.5C2.5 143.176 2.50522 142.854 2.51556 142.532L2.01582 142.516ZM2 143.5H1.5V144.5H2H2.5V143.5H2ZM2 146.5H1.5V148.5H2H2.5V146.5H2ZM2 150.5H1.5V152.5H2H2.5V150.5H2ZM2 154.5H1.5V156.5H2H2.5V154.5H2ZM2 158.5H1.5V160.5H2H2.5V158.5H2ZM2 162.5H1.5V164.5H2H2.5V162.5H2ZM2 166.5H1.5V168.5H2H2.5V166.5H2ZM2 170.5H1.5V172.5H2H2.5V170.5H2ZM2 174.5H1.5V176.5H2H2.5V174.5H2ZM2 178.5H1.5V180.5H2H2.5V178.5H2ZM2 182.5H1.5V184.5H2H2.5V182.5H2ZM2 186.5H1.5V188.5H2H2.5V186.5H2ZM2 190.5H1.5V192.5H2H2.5V190.5H2ZM2 194.5H1.5V196.5H2H2.5V194.5H2ZM2 198.5H1.5V200.5H2H2.5V198.5H2ZM2 202.5H1.5V204.5H2H2.5V202.5H2ZM2 206.5H1.5V208.5H2H2.5V206.5H2ZM2 210.5H1.5V212.5H2H2.5V210.5H2ZM2 214.5H1.5V216.5H2H2.5V214.5H2ZM2 218.5H1.5V220.5H2H2.5V218.5H2ZM2 222.5H1.5V224.5H2H2.5V222.5H2ZM2 226.5H1.5V228.5H2H2.5V226.5H2ZM2 230.5H1.5V232.5H2H2.5V230.5H2ZM2 234.5H1.5V236.5H2H2.5V234.5H2ZM2 238.5H1.5V240.5H2H2.5V238.5H2ZM2 242.5H1.5V244.5H2H2.5V242.5H2ZM2 246.5H1.5V248.5H2H2.5V246.5H2ZM2 250.5H1.5V252.5H2H2.5V250.5H2ZM2 254.5H1.5V256.5H2H2.5V254.5H2ZM2 258.5H1.5V260.5H2H2.5V258.5H2ZM2 262.5H1.5V264.5H2H2.5V262.5H2ZM2 266.5H1.5V268.5H2H2.5V266.5H2ZM2 270.5H1.5V272.5H2H2.5V270.5H2ZM2 274.5H1.5V276.5H2H2.5V274.5H2ZM2 278.5H1.5V280.5H2H2.5V278.5H2ZM2 282.5H1.5V284.5H2H2.5V282.5H2ZM2 286.5H1.5V288.5H2H2.5V286.5H2ZM2 290.5H1.5V292.5H2H2.5V290.5H2ZM2 294.5H1.5V296.5H2H2.5V294.5H2ZM2 298.5H1.5V300.5H2H2.5V298.5H2ZM2 302.5H1.5V304.5H2H2.5V302.5H2ZM2 306.5H1.5V308.5H2H2.5V306.5H2ZM2 310.5H1.5V312.5H2H2.5V310.5H2ZM2 314.5H1.5V316.5H2H2.5V314.5H2ZM2 318.5H1.5V320.5H2H2.5V318.5H2ZM2 322.5H1.5V324.5H2H2.5V322.5H2ZM2 326.5H1.5V328.5H2H2.5V326.5H2ZM2 330.5H1.5V332.5H2H2.5V330.5H2ZM2 334.5H1.5V336.5H2H2.5V334.5H2ZM2 338.5H1.5V340.5H2H2.5V338.5H2ZM2 342.5H1.5V344.5H2H2.5V342.5H2ZM2 346.5H1.5V348.5H2H2.5V346.5H2ZM2 350.5H1.5V352.5H2H2.5V350.5H2ZM2 354.5H1.5V356.5H2H2.5V354.5H2ZM2 358.5H1.5V360.5H2H2.5V358.5H2ZM2 362.5H1.5V364.5H2H2.5V362.5H2ZM2 366.5H1.5V368.5H2H2.5V366.5H2ZM2 370.5H1.5V372.5H2H2.5V370.5H2ZM2 374.5H1.5V376.5H2H2.5V374.5H2ZM2 378.5H1.5V380.5H2H2.5V378.5H2ZM2 382.5H1.5V384.5H2H2.5V382.5H2ZM2 386.5H1.5V387.5H2H2.5V386.5H2ZM2 387.5L1.5 387.5C1.5 387.835 1.50539 388.168 1.51608 388.5L2.01582 388.484L2.51557 388.468C2.50522 388.146 2.5 387.824 2.5 387.5L2 387.5ZM2.14239 390.442L1.64474 390.49C1.7096 391.157 1.79591 391.817 1.90298 392.47L2.39639 392.389L2.88981 392.308C2.78626 391.676 2.70278 391.038 2.64004 390.393L2.14239 390.442ZM2.77754 394.315L2.29051 394.429C2.44171 395.079 2.61375 395.722 2.80589 396.356L3.28441 396.211L3.76292 396.067C3.57714 395.453 3.41078 394.832 3.26457 394.202L2.77754 394.315ZM3.91536 398.071L3.44744 398.247C3.68271 398.872 3.9379 399.487 4.21222 400.091L4.66752 399.885L5.12283 399.678C4.85755 399.093 4.61078 398.499 4.38328 397.895L3.91536 398.071ZM5.53704 401.644L5.09628 401.88C5.41109 402.468 5.74458 403.044 6.09597 403.608L6.52032 403.344L6.94467 403.079C6.6048 402.534 6.28226 401.977 5.9778 401.408L5.53704 401.644ZM7.6126 404.975L7.20642 405.267C7.59478 405.808 8.0004 406.336 8.42248 406.85L8.80881 406.532L9.19514 406.215C8.78683 405.718 8.39445 405.207 8.01878 404.684L7.6126 404.975ZM10.104 408.008L9.73909 408.35C10.1941 408.835 10.6648 409.306 11.1504 409.761L11.4922 409.396L11.8341 409.031C11.3643 408.591 10.909 408.136 10.4688 407.666L10.104 408.008ZM12.9679 410.691L12.6505 411.078C13.1642 411.5 13.692 411.905 14.233 412.294L14.5246 411.887L14.8161 411.481C14.2928 411.106 13.7823 410.713 13.2853 410.305L12.9679 410.691ZM16.1561 412.98L15.8917 413.404C16.4556 413.755 17.0318 414.089 17.6195 414.404L17.8556 413.963L18.0917 413.522C17.5232 413.218 16.9659 412.895 16.4205 412.555L16.1561 412.98ZM19.6155 414.832L19.4088 415.288C20.0133 415.562 20.6283 415.817 21.2531 416.053L21.4293 415.585L21.6055 415.117C21.0014 414.889 20.4066 414.642 19.8221 414.377L19.6155 414.832ZM23.2885 416.216L23.1435 416.694C23.7777 416.886 24.4206 417.058 25.0715 417.209L25.1846 416.722L25.2978 416.235C24.6684 416.089 24.0467 415.923 23.4335 415.737L23.2885 416.216ZM27.111 417.104L27.0301 417.597C27.6833 417.704 28.3435 417.79 29.0099 417.855L29.0584 417.358L29.1068 416.86C28.4621 416.797 27.8236 416.714 27.1918 416.61L27.111 417.104ZM31.0163 417.484L31.0002 417.984C31.3322 417.995 31.6655 418 32 418V417.5V417C31.6762 417 31.3536 416.995 31.0324 416.984L31.0163 417.484ZM32 417.5V418H32.9966V417.5V417H32V417.5ZM34.9897 417.5V418H36.9829V417.5V417H34.9897V417.5ZM38.976 417.5V418H40.9692V417.5V417H38.976V417.5ZM42.9623 417.5V418H44.9555V417.5V417H42.9623V417.5ZM46.9486 417.5V418H48.9418V417.5V417H46.9486V417.5ZM50.9349 417.5V418H52.9281V417.5V417H50.9349V417.5ZM54.9212 417.5V418H56.9144V417.5V417H54.9212V417.5ZM58.9075 417.5V418H60.9007V417.5V417H58.9075V417.5ZM62.8938 417.5V418H64.887V417.5V417H62.8938V417.5ZM66.8801 417.5V418H68.8733V417.5V417H66.8801V417.5ZM70.8664 417.5V418H72.8596V417.5V417H70.8664V417.5ZM74.8527 417.5V418H76.8459V417.5V417H74.8527V417.5ZM78.839 417.5V418H80.8322V417.5V417H78.839V417.5ZM82.8253 417.5V418H84.8185V417.5V417H82.8253V417.5ZM86.8116 417.5V418H88.8048V417.5V417H86.8116V417.5ZM90.7979 417.5V418H92.7911V417.5V417H90.7979V417.5ZM94.7842 417.5V418H96.7774V417.5V417H94.7842V417.5ZM98.7705 417.5V418H100.764V417.5V417H98.7705V417.5ZM102.757 417.5V418H104.75V417.5V417H102.757V417.5ZM106.743 417.5V418H108.736V417.5V417H106.743V417.5ZM110.729 417.5V418H112.723V417.5V417H110.729V417.5ZM114.716 417.5V418H116.709V417.5V417H114.716V417.5ZM118.702 417.5V418H120.695V417.5V417H118.702V417.5ZM122.688 417.5V418H124.681V417.5V417H122.688V417.5ZM126.675 417.5V418H128.668V417.5V417H126.675V417.5ZM130.661 417.5V418H132.654V417.5V417H130.661V417.5ZM134.647 417.5V418H136.64V417.5V417H134.647V417.5ZM138.633 417.5V418H140.627V417.5V417H138.633V417.5ZM142.62 417.5V418H144.613V417.5V417H142.62V417.5ZM146.606 417.5V418H148.599V417.5V417H146.606V417.5ZM150.592 417.5V418H152.586V417.5V417H150.592V417.5ZM154.579 417.5V418H156.572V417.5V417H154.579V417.5ZM158.565 417.5V418H160.558V417.5V417H158.565V417.5ZM162.551 417.5V418H164.544V417.5V417H162.551V417.5ZM166.538 417.5V418H168.531V417.5V417H166.538V417.5ZM170.524 417.5V418H172.517V417.5V417H170.524V417.5ZM174.51 417.5V418H176.503V417.5V417H174.51V417.5ZM178.496 417.5V418H180.49V417.5V417H178.496V417.5ZM182.483 417.5V418H184.476V417.5V417H182.483V417.5ZM186.469 417.5V418H188.462V417.5V417H186.469V417.5ZM190.455 417.5V418H192.449V417.5V417H190.455V417.5ZM194.442 417.5V418H196.435V417.5V417H194.442V417.5ZM198.428 417.5V418H200.421V417.5V417H198.428V417.5ZM202.414 417.5V418H204.407V417.5V417H202.414V417.5ZM206.401 417.5V418H208.394V417.5V417H206.401V417.5ZM210.387 417.5V418H212.38V417.5V417H210.387V417.5ZM214.373 417.5V418H216.366V417.5V417H214.373V417.5ZM218.359 417.5V418H220.353V417.5V417H218.359V417.5ZM222.346 417.5V418H224.339V417.5V417H222.346V417.5ZM226.332 417.5V418H228.325V417.5V417H226.332V417.5ZM230.318 417.5V418H232.311V417.5V417H230.318V417.5ZM234.305 417.5V418H236.298V417.5V417H234.305V417.5ZM238.291 417.5V418H240.284V417.5V417H238.291V417.5ZM242.277 417.5V418H244.27V417.5V417H242.277V417.5ZM246.264 417.5V418H248.257V417.5V417H246.264V417.5ZM250.25 417.5V418H252.243V417.5V417H250.25V417.5ZM254.236 417.5V418H256.229V417.5V417H254.236V417.5ZM258.222 417.5V418H260.216V417.5V417H258.222V417.5ZM262.209 417.5V418H264.202V417.5V417H262.209V417.5ZM266.195 417.5V418H268.188V417.5V417H266.195V417.5ZM270.181 417.5V418H272.174V417.5V417H270.181V417.5ZM274.168 417.5V418H276.161V417.5V417H274.168V417.5ZM278.154 417.5V418H280.147V417.5V417H278.154V417.5ZM282.14 417.5V418H284.133V417.5V417H282.14V417.5ZM286.127 417.5V418H288.12V417.5V417H286.127V417.5ZM290.113 417.5V418H292.106V417.5V417H290.113V417.5ZM294.099 417.5V418H296.092V417.5V417H294.099V417.5ZM298.085 417.5V418H300.079V417.5V417H298.085V417.5ZM302.072 417.5V418H304.065V417.5V417H302.072V417.5ZM306.058 417.5V418H308.051V417.5V417H306.058V417.5ZM310.044 417.5V418H312.038V417.5V417H310.044V417.5ZM314.031 417.5V418H316.024V417.5V417H314.031V417.5ZM318.017 417.5V418H320.01V417.5V417H318.017V417.5ZM322.003 417.5V418H323V417.5V417H322.003V417.5ZM323 417.5L323 418C323.335 418 323.668 417.995 324 417.984L323.984 417.484L323.968 416.984C323.646 416.995 323.324 417 323 417L323 417.5ZM325.942 417.358L325.99 417.855C326.656 417.79 327.317 417.704 327.97 417.597L327.889 417.104L327.808 416.61C327.176 416.714 326.538 416.797 325.893 416.86L325.942 417.358ZM329.815 416.722L329.929 417.209C330.579 417.058 331.222 416.886 331.856 416.694L331.711 416.216L331.567 415.737C330.953 415.923 330.332 416.089 329.702 416.235L329.815 416.722ZM333.571 415.585L333.747 416.053C334.372 415.817 334.987 415.562 335.591 415.288L335.385 414.832L335.178 414.377C334.593 414.642 333.999 414.889 333.395 415.117L333.571 415.585ZM337.144 413.963L337.38 414.404C337.968 414.089 338.544 413.755 339.108 413.404L338.844 412.98L338.579 412.555C338.034 412.895 337.477 413.218 336.908 413.522L337.144 413.963ZM340.475 411.887L340.767 412.294C341.308 411.905 341.836 411.5 342.35 411.078L342.032 410.691L341.715 410.305C341.218 410.713 340.707 411.106 340.184 411.481L340.475 411.887ZM343.508 409.396L343.85 409.761C344.335 409.306 344.806 408.835 345.261 408.35L344.896 408.008L344.531 407.666C344.091 408.136 343.636 408.591 343.166 409.031L343.508 409.396ZM346.191 406.532L346.578 406.849C347 406.336 347.405 405.808 347.794 405.267L347.387 404.975L346.981 404.684C346.606 405.207 346.213 405.718 345.805 406.215L346.191 406.532ZM348.48 403.344L348.904 403.608C349.255 403.044 349.589 402.468 349.904 401.88L349.463 401.644L349.022 401.408C348.718 401.977 348.395 402.534 348.055 403.079L348.48 403.344ZM350.332 399.885L350.788 400.091C351.062 399.487 351.317 398.872 351.553 398.247L351.085 398.071L350.617 397.895C350.389 398.499 350.142 399.093 349.877 399.678L350.332 399.885ZM351.716 396.211L352.194 396.356C352.386 395.722 352.558 395.079 352.709 394.429L352.222 394.315L351.735 394.202C351.589 394.832 351.423 395.453 351.237 396.067L351.716 396.211ZM352.604 392.389L353.097 392.47C353.204 391.817 353.29 391.156 353.355 390.49L352.858 390.442L352.36 390.393C352.297 391.038 352.214 391.676 352.11 392.308L352.604 392.389ZM352.984 388.484L353.484 388.5C353.495 388.168 353.5 387.835 353.5 387.5L353 387.5L352.5 387.5C352.5 387.824 352.495 388.146 352.484 388.468L352.984 388.484ZM353 387.5H353.5V386.502H353H352.5V387.5H353ZM353 384.505H353.5V382.508H353H352.5V384.505H353ZM353 380.512H353.5V378.515H353H352.5V380.512H353ZM353 376.519H353.5V374.522H353H352.5V376.519H353ZM353 372.525H353.5V370.529H353H352.5V372.525H353ZM353 368.532H353.5V366.536H353H352.5V368.532H353ZM353 364.539H353.5V362.542H353H352.5V364.539H353ZM353 360.546H353.5V358.549H353H352.5V360.546H353ZM353 356.553H353.5V354.556H353H352.5V356.553H353ZM353 352.559H353.5V350.563H353H352.5V352.559H353ZM353 348.566H353.5V346.57H353H352.5V348.566H353ZM353 344.573H353.5V342.576H353H352.5V344.573H353ZM353 340.58H353.5V338.583H353H352.5V340.58H353ZM353 336.587H353.5V334.59H353H352.5V336.587H353ZM353 332.593H353.5V330.597H353H352.5V332.593H353ZM353 328.6H353.5V326.604H353H352.5V328.6H353ZM353 324.607H353.5V322.61H353H352.5V324.607H353ZM353 320.614H353.5V318.617H353H352.5V320.614H353ZM353 316.621H353.5V314.624H353H352.5V316.621H353ZM353 312.627H353.5V310.631H353H352.5V312.627H353ZM353 308.634H353.5V306.638H353H352.5V308.634H353ZM353 304.641H353.5V302.644H353H352.5V304.641H353ZM353 300.648H353.5V298.651H353H352.5V300.648H353ZM353 296.655H353.5V294.658H353H352.5V296.655H353ZM353 292.662H353.5V290.665H353H352.5V292.662H353ZM353 288.668H353.5V286.672H353H352.5V288.668H353ZM353 284.675H353.5V282.679H353H352.5V284.675H353ZM353 280.682H353.5V278.685H353H352.5V280.682H353ZM353 276.689H353.5V274.692H353H352.5V276.689H353ZM353 272.696H353.5V270.699H353H352.5V272.696H353ZM353 268.702H353.5V266.706H353H352.5V268.702H353ZM353 264.709H353.5V262.713H353H352.5V264.709H353ZM353 260.716H353.5V258.719H353H352.5V260.716H353ZM353 256.723H353.5V254.726H353H352.5V256.723H353ZM353 252.73H353.5V250.733H353H352.5V252.73H353ZM353 248.736H353.5V246.74H353H352.5V248.736H353ZM353 244.743H353.5V242.747H353H352.5V244.743H353ZM353 240.75H353.5V238.753H353H352.5V240.75H353ZM353 236.757H353.5V234.76H353H352.5V236.757H353ZM353 232.764H353.5V230.767H353H352.5V232.764H353ZM353 228.77H353.5V226.774H353H352.5V228.77H353ZM353 224.777H353.5V222.781H353H352.5V224.777H353ZM353 220.784H353.5V218.787H353H352.5V220.784H353ZM353 216.791H353.5V214.794H353H352.5V216.791H353ZM353 212.798H353.5V210.801H353H352.5V212.798H353ZM353 208.804H353.5V206.808H353H352.5V208.804H353ZM353 204.811H353.5V202.815H353H352.5V204.811H353ZM353 200.818H353.5V198.821H353H352.5V200.818H353ZM353 196.825H353.5V194.828H353H352.5V196.825H353ZM353 192.832H353.5V190.835H353H352.5V192.832H353ZM353 188.838H353.5V186.842H353H352.5V188.838H353ZM353 184.845H353.5V182.849H353H352.5V184.845H353ZM353 180.852H353.5V178.855H353H352.5V180.852H353ZM353 176.859H353.5V174.862H353H352.5V176.859H353ZM353 172.866H353.5V170.869H353H352.5V172.866H353ZM353 168.872H353.5V166.876H353H352.5V168.872H353ZM353 164.879H353.5V162.883H353H352.5V164.879H353ZM353 160.886H353.5V158.889H353H352.5V160.886H353ZM353 156.893H353.5V154.896H353H352.5V156.893H353ZM353 152.9H353.5V150.903H353H352.5V152.9H353ZM353 148.906H353.5V146.91H353H352.5V148.906H353ZM353 144.913H353.5V142.917H353H352.5V144.913H353ZM353 140.92H353.5V138.924H353H352.5V140.92H353ZM353 136.927H353.5V134.93H353H352.5V136.927H353ZM353 132.934H353.5V130.937H353H352.5V132.934H353ZM353 128.94H353.5V126.944H353H352.5V128.94H353ZM353 124.947H353.5V122.951H353H352.5V124.947H353ZM353 120.954H353.5V118.957H353H352.5V120.954H353ZM353 116.961H353.5V114.964H353H352.5V116.961H353ZM353 112.968H353.5V110.971H353H352.5V112.968H353ZM353 108.974H353.5V106.978H353H352.5V108.974H353ZM353 104.981H353.5V102.985H353H352.5V104.981H353ZM353 100.988H353.5V98.9913H353H352.5V100.988H353ZM353 96.9947H353.5V94.9981H353H352.5V96.9947H353ZM353 93.0015H353.5V91.0049H353H352.5V93.0015H353ZM353 89.0082H353.5V87.0116H353H352.5V89.0082H353ZM353 85.015H353.5V83.0184H353H352.5V85.015H353ZM353 81.0218H353.5V79.0252H353H352.5V81.0218H353ZM353 77.0286H353.5V76.0303H353H352.5V77.0286H353ZM353 76.0303H353.5C353.5 75.7009 353.495 75.3727 353.484 75.0459L352.984 75.062L352.485 75.0781C352.495 75.3942 352.5 75.7116 352.5 76.0303H353ZM352.86 73.1347L353.357 73.0863C353.294 72.4301 353.209 71.7801 353.103 71.1369L352.61 71.2178L352.116 71.2987C352.218 71.9204 352.3 72.5487 352.362 73.1831L352.86 73.1347ZM352.235 69.3216L352.722 69.2085C352.573 68.5676 352.403 67.9346 352.214 67.3102L351.736 67.4552L351.257 67.6002C351.44 68.2036 351.604 68.8154 351.748 69.4348L352.235 69.3216ZM351.115 65.6251L351.583 65.4489C351.351 64.8337 351.1 64.2282 350.829 63.6331L350.374 63.8397L349.919 64.0463C350.18 64.6216 350.423 65.2068 350.647 65.8013L351.115 65.6251ZM349.518 62.1074L349.959 61.8713C349.649 61.2926 349.321 60.7253 348.975 60.1701L348.55 60.4345L348.126 60.6989C348.46 61.2357 348.778 61.7841 349.078 62.3435L349.518 62.1074ZM347.475 58.8285L347.881 58.537C347.499 58.0043 347.1 57.4846 346.684 56.9788L346.298 57.2963L345.911 57.6137C346.313 58.1027 346.699 58.6051 347.069 59.1201L347.475 58.8285ZM345.023 55.8437L345.388 55.5018C344.94 55.0237 344.476 54.5603 343.998 54.1123L343.656 54.4771L343.314 54.842C343.777 55.2752 344.225 55.7233 344.658 56.1856L345.023 55.8437ZM342.204 53.2023L342.521 52.816C342.015 52.4004 341.496 52.001 340.963 51.6186L340.671 52.0248L340.38 52.431C340.895 52.8007 341.397 53.1868 341.886 53.5886L342.204 53.2023ZM339.065 50.9496L339.33 50.5253C338.775 50.1793 338.207 49.8509 337.629 49.541L337.393 49.9817L337.157 50.4225C337.716 50.7221 338.264 51.0395 338.801 51.374L339.065 50.9496ZM335.66 49.1258L335.867 48.6705C335.272 48.4004 334.666 48.1491 334.051 47.9175L333.875 48.3854L333.699 48.8533C334.293 49.0772 334.878 49.3201 335.454 49.5811L335.66 49.1258ZM332.045 47.7643L332.19 47.2858C331.565 47.0966 330.932 46.9272 330.292 46.7784L330.178 47.2654L330.065 47.7524C330.685 47.8963 331.296 48.06 331.9 48.2428L332.045 47.7643ZM328.282 46.8902L328.363 46.3968C327.72 46.2914 327.07 46.2064 326.414 46.1425L326.365 46.6402L326.317 47.1378C326.951 47.1996 327.58 47.2817 328.201 47.3836L328.282 46.8902ZM324.438 46.5156L324.454 46.0158C324.127 46.0053 323.799 46 323.47 46V46.5V47C323.788 47 324.106 47.0051 324.422 47.0153L324.438 46.5156ZM30 377.5V377C29.6699 377 29.3427 377.013 29.0188 377.038L29.0576 377.536L29.0963 378.035C29.3944 378.012 29.6958 378 30 378V377.5ZM27.1974 377.829L27.0811 377.343C26.4384 377.497 25.8149 377.7 25.215 377.949L25.4065 378.411L25.5981 378.872C26.1496 378.644 26.7228 378.457 27.3138 378.315L27.1974 377.829ZM23.7293 379.267L23.4676 378.841C22.9083 379.184 22.3781 379.57 21.8816 379.995L22.2065 380.375L22.5314 380.755C22.9884 380.364 23.4763 380.009 23.9909 379.693L23.7293 379.267ZM20.8749 381.707L20.4949 381.382C20.0704 381.878 19.6842 382.408 19.3407 382.968L19.7668 383.229L20.1928 383.491C20.5089 382.976 20.8643 382.488 21.255 382.031L20.8749 381.707ZM18.9106 384.907L18.4487 384.715C18.1999 385.315 17.9965 385.938 17.8428 386.581L18.329 386.697L18.8153 386.814C18.9567 386.223 19.1437 385.65 19.3724 385.098L18.9106 384.907ZM18.0365 388.558L17.538 388.519C17.5128 388.843 17.5 389.17 17.5 389.5H18H18.5C18.5 389.196 18.5118 388.894 18.535 388.596L18.0365 388.558ZM18 389.5H17.5C17.5 389.83 17.5128 390.157 17.538 390.481L18.0365 390.442L18.535 390.404C18.5118 390.106 18.5 389.804 18.5 389.5H18ZM18.329 392.303L17.8428 392.419C17.9965 393.062 18.1999 393.685 18.4487 394.285L18.9106 394.093L19.3724 393.902C19.1437 393.35 18.9567 392.777 18.8153 392.186L18.329 392.303ZM19.7668 395.771L19.3407 396.032C19.6842 396.592 20.0704 397.122 20.4949 397.618L20.8749 397.293L21.255 396.969C20.8643 396.512 20.5089 396.024 20.1928 395.509L19.7668 395.771ZM22.2065 398.625L21.8816 399.005C22.3781 399.43 22.9083 399.816 23.4676 400.159L23.7293 399.733L23.9909 399.307C23.4763 398.991 22.9884 398.636 22.5314 398.245L22.2065 398.625ZM25.4065 400.589L25.215 401.051C25.8149 401.3 26.4384 401.503 27.0811 401.657L27.1974 401.171L27.3138 400.685C26.7228 400.543 26.1496 400.356 25.5981 400.128L25.4065 400.589ZM29.0576 401.464L29.0188 401.962C29.3427 401.987 29.6699 402 30 402V401.5V401C29.6958 401 29.3944 400.988 29.0963 400.965L29.0576 401.464ZM30 401.5V402C30.3301 402 30.6573 401.987 30.9812 401.962L30.9424 401.464L30.9037 400.965C30.6056 400.988 30.3042 401 30 401V401.5ZM32.8026 401.171L32.9189 401.657C33.5616 401.503 34.1851 401.3 34.785 401.051L34.5935 400.589L34.4019 400.128C33.8504 400.356 33.2772 400.543 32.6862 400.685L32.8026 401.171ZM36.2707 399.733L36.5324 400.159C37.0917 399.816 37.6219 399.43 38.1184 399.005L37.7935 398.625L37.4686 398.245C37.0116 398.636 36.5237 398.991 36.0091 399.307L36.2707 399.733ZM39.1251 397.293L39.5051 397.618C39.9296 397.122 40.3158 396.592 40.6593 396.032L40.2332 395.771L39.8072 395.509C39.4911 396.024 39.1357 396.512 38.745 396.969L39.1251 397.293ZM41.0894 394.093L41.5513 394.285C41.8001 393.685 42.0035 393.062 42.1572 392.419L41.671 392.303L41.1847 392.186C41.0433 392.777 40.8563 393.35 40.6276 393.902L41.0894 394.093ZM41.9635 390.442L42.462 390.481C42.4872 390.157 42.5 389.83 42.5 389.5H42H41.5C41.5 389.804 41.4882 390.106 41.465 390.404L41.9635 390.442ZM42 389.5H42.5C42.5 389.17 42.4872 388.843 42.462 388.519L41.9635 388.558L41.465 388.596C41.4882 388.894 41.5 389.196 41.5 389.5H42ZM41.671 386.697L42.1572 386.581C42.0035 385.938 41.8001 385.315 41.5513 384.715L41.0894 384.907L40.6276 385.098C40.8563 385.65 41.0433 386.223 41.1847 386.814L41.671 386.697ZM40.2332 383.229L40.6593 382.968C40.3158 382.408 39.9296 381.878 39.5051 381.382L39.1251 381.707L38.745 382.031C39.1357 382.488 39.4911 382.976 39.8072 383.491L40.2332 383.229ZM37.7935 380.375L38.1184 379.995C37.6219 379.57 37.0917 379.184 36.5324 378.841L36.2707 379.267L36.0091 379.693C36.5237 380.009 37.0116 380.364 37.4686 380.755L37.7935 380.375ZM34.5935 378.411L34.785 377.949C34.1851 377.7 33.5616 377.497 32.9189 377.343L32.8026 377.829L32.6862 378.315C33.2772 378.457 33.8504 378.644 34.4019 378.872L34.5935 378.411ZM30.9424 377.536L30.9812 377.038C30.6573 377.013 30.3301 377 30 377V377.5V378C30.3042 378 30.6056 378.012 30.9037 378.035L30.9424 377.536ZM325 377.5V377C324.67 377 324.343 377.013 324.019 377.038L324.058 377.536L324.096 378.035C324.394 378.012 324.696 378 325 378V377.5ZM322.197 377.829L322.081 377.343C321.438 377.497 320.815 377.7 320.215 377.949L320.407 378.411L320.598 378.872C321.15 378.644 321.723 378.457 322.314 378.315L322.197 377.829ZM318.729 379.267L318.468 378.841C317.908 379.184 317.378 379.57 316.882 379.995L317.207 380.375L317.531 380.755C317.988 380.364 318.476 380.009 318.991 379.693L318.729 379.267ZM315.875 381.707L315.495 381.382C315.07 381.878 314.684 382.408 314.341 382.968L314.767 383.229L315.193 383.491C315.509 382.976 315.864 382.488 316.255 382.031L315.875 381.707ZM313.911 384.907L313.449 384.715C313.2 385.315 312.997 385.938 312.843 386.581L313.329 386.697L313.815 386.814C313.957 386.223 314.144 385.65 314.372 385.098L313.911 384.907ZM313.036 388.558L312.538 388.519C312.513 388.843 312.5 389.17 312.5 389.5H313H313.5C313.5 389.196 313.512 388.894 313.535 388.596L313.036 388.558ZM313 389.5H312.5C312.5 389.83 312.513 390.157 312.538 390.481L313.036 390.442L313.535 390.404C313.512 390.106 313.5 389.804 313.5 389.5H313ZM313.329 392.303L312.843 392.419C312.997 393.062 313.2 393.685 313.449 394.285L313.911 394.093L314.372 393.902C314.144 393.35 313.957 392.777 313.815 392.186L313.329 392.303ZM314.767 395.771L314.341 396.032C314.684 396.592 315.07 397.122 315.495 397.618L315.875 397.293L316.255 396.969C315.864 396.512 315.509 396.024 315.193 395.509L314.767 395.771ZM317.207 398.625L316.882 399.005C317.378 399.43 317.908 399.816 318.468 400.159L318.729 399.733L318.991 399.307C318.476 398.991 317.988 398.636 317.531 398.245L317.207 398.625ZM320.407 400.589L320.215 401.051C320.815 401.3 321.438 401.503 322.081 401.657L322.197 401.171L322.314 400.685C321.723 400.543 321.15 400.356 320.598 400.128L320.407 400.589ZM324.058 401.464L324.019 401.962C324.343 401.987 324.67 402 325 402V401.5V401C324.696 401 324.394 400.988 324.096 400.965L324.058 401.464ZM325 401.5V402C325.33 402 325.657 401.987 325.981 401.962L325.942 401.464L325.904 400.965C325.606 400.988 325.304 401 325 401V401.5ZM327.803 401.171L327.919 401.657C328.562 401.503 329.185 401.3 329.785 401.051L329.593 400.589L329.402 400.128C328.85 400.356 328.277 400.543 327.686 400.685L327.803 401.171ZM331.271 399.733L331.532 400.159C332.092 399.816 332.622 399.43 333.118 399.005L332.793 398.625L332.469 398.245C332.012 398.636 331.524 398.991 331.009 399.307L331.271 399.733ZM334.125 397.293L334.505 397.618C334.93 397.122 335.316 396.592 335.659 396.032L335.233 395.771L334.807 395.509C334.491 396.024 334.136 396.512 333.745 396.969L334.125 397.293ZM336.089 394.093L336.551 394.285C336.8 393.685 337.003 393.062 337.157 392.419L336.671 392.303L336.185 392.186C336.043 392.777 335.856 393.35 335.628 393.902L336.089 394.093ZM336.964 390.442L337.462 390.481C337.487 390.157 337.5 389.83 337.5 389.5H337H336.5C336.5 389.804 336.488 390.106 336.465 390.404L336.964 390.442ZM337 389.5H337.5C337.5 389.17 337.487 388.843 337.462 388.519L336.964 388.558L336.465 388.596C336.488 388.894 336.5 389.196 336.5 389.5H337ZM336.671 386.697L337.157 386.581C337.003 385.938 336.8 385.315 336.551 384.715L336.089 384.907L335.628 385.098C335.856 385.65 336.043 386.223 336.185 386.814L336.671 386.697ZM335.233 383.229L335.659 382.968C335.316 382.408 334.93 381.878 334.505 381.382L334.125 381.707L333.745 382.031C334.136 382.488 334.491 382.976 334.807 383.491L335.233 383.229ZM332.793 380.375L333.118 379.995C332.622 379.57 332.092 379.184 331.532 378.841L331.271 379.267L331.009 379.693C331.524 380.009 332.012 380.364 332.469 380.755L332.793 380.375ZM329.593 378.411L329.785 377.949C329.185 377.7 328.562 377.497 327.919 377.343L327.803 377.829L327.686 378.315C328.277 378.457 328.85 378.644 329.402 378.872L329.593 378.411ZM325.942 377.536L325.981 377.038C325.657 377.013 325.33 377 325 377V377.5V378C325.304 378 325.606 378.012 325.904 378.035L325.942 377.536ZM30 129.5V129C29.6699 129 29.3427 129.013 29.0188 129.038L29.0576 129.536L29.0963 130.035C29.3944 130.012 29.6958 130 30 130V129.5ZM27.1974 129.829L27.0811 129.343C26.4384 129.497 25.8149 129.7 25.215 129.949L25.4065 130.411L25.5981 130.872C26.1496 130.644 26.7228 130.457 27.3138 130.315L27.1974 129.829ZM23.7293 131.267L23.4676 130.841C22.9083 131.184 22.3781 131.57 21.8816 131.995L22.2065 132.375L22.5314 132.755C22.9884 132.364 23.4763 132.009 23.9909 131.693L23.7293 131.267ZM20.8749 133.707L20.4949 133.382C20.0704 133.878 19.6842 134.408 19.3407 134.968L19.7668 135.229L20.1928 135.491C20.5089 134.976 20.8643 134.488 21.255 134.031L20.8749 133.707ZM18.9106 136.907L18.4487 136.715C18.1999 137.315 17.9965 137.938 17.8428 138.581L18.329 138.697L18.8153 138.814C18.9567 138.223 19.1437 137.65 19.3724 137.098L18.9106 136.907ZM18.0365 140.558L17.538 140.519C17.5128 140.843 17.5 141.17 17.5 141.5H18H18.5C18.5 141.196 18.5118 140.894 18.535 140.596L18.0365 140.558ZM18 141.5H17.5C17.5 141.83 17.5128 142.157 17.538 142.481L18.0365 142.442L18.535 142.404C18.5118 142.106 18.5 141.804 18.5 141.5H18ZM18.329 144.303L17.8428 144.419C17.9965 145.062 18.1999 145.685 18.4487 146.285L18.9106 146.093L19.3724 145.902C19.1437 145.35 18.9567 144.777 18.8153 144.186L18.329 144.303ZM19.7668 147.771L19.3407 148.032C19.6842 148.592 20.0704 149.122 20.4949 149.618L20.8749 149.293L21.255 148.969C20.8643 148.512 20.5089 148.024 20.1928 147.509L19.7668 147.771ZM22.2065 150.625L21.8816 151.005C22.3781 151.43 22.9083 151.816 23.4676 152.159L23.7293 151.733L23.9909 151.307C23.4763 150.991 22.9884 150.636 22.5314 150.245L22.2065 150.625ZM25.4065 152.589L25.215 153.051C25.8149 153.3 26.4384 153.503 27.0811 153.657L27.1974 153.171L27.3138 152.685C26.7228 152.543 26.1496 152.356 25.5981 152.128L25.4065 152.589ZM29.0576 153.464L29.0188 153.962C29.3427 153.987 29.6699 154 30 154V153.5V153C29.6958 153 29.3944 152.988 29.0963 152.965L29.0576 153.464ZM30 153.5V154C30.3301 154 30.6573 153.987 30.9812 153.962L30.9424 153.464L30.9037 152.965C30.6056 152.988 30.3042 153 30 153V153.5ZM32.8026 153.171L32.9189 153.657C33.5616 153.503 34.1851 153.3 34.785 153.051L34.5935 152.589L34.4019 152.128C33.8504 152.356 33.2772 152.543 32.6862 152.685L32.8026 153.171ZM36.2707 151.733L36.5324 152.159C37.0917 151.816 37.6219 151.43 38.1184 151.005L37.7935 150.625L37.4686 150.245C37.0116 150.636 36.5237 150.991 36.0091 151.307L36.2707 151.733ZM39.1251 149.293L39.5051 149.618C39.9296 149.122 40.3158 148.592 40.6593 148.032L40.2332 147.771L39.8072 147.509C39.4911 148.024 39.1357 148.512 38.745 148.969L39.1251 149.293ZM41.0894 146.093L41.5513 146.285C41.8001 145.685 42.0035 145.062 42.1572 144.419L41.671 144.303L41.1847 144.186C41.0433 144.777 40.8563 145.35 40.6276 145.902L41.0894 146.093ZM41.9635 142.442L42.462 142.481C42.4872 142.157 42.5 141.83 42.5 141.5H42H41.5C41.5 141.804 41.4882 142.106 41.465 142.404L41.9635 142.442ZM42 141.5H42.5C42.5 141.17 42.4872 140.843 42.462 140.519L41.9635 140.558L41.465 140.596C41.4882 140.894 41.5 141.196 41.5 141.5H42ZM41.671 138.697L42.1572 138.581C42.0035 137.938 41.8001 137.315 41.5513 136.715L41.0894 136.907L40.6276 137.098C40.8563 137.65 41.0433 138.223 41.1847 138.814L41.671 138.697ZM40.2332 135.229L40.6593 134.968C40.3158 134.408 39.9296 133.878 39.5051 133.382L39.1251 133.707L38.745 134.031C39.1357 134.488 39.4911 134.976 39.8072 135.491L40.2332 135.229ZM37.7935 132.375L38.1184 131.995C37.6219 131.57 37.0917 131.184 36.5324 130.841L36.2707 131.267L36.0091 131.693C36.5237 132.009 37.0116 132.364 37.4686 132.755L37.7935 132.375ZM34.5935 130.411L34.785 129.949C34.1851 129.7 33.5616 129.497 32.9189 129.343L32.8026 129.829L32.6862 130.315C33.2772 130.457 33.8504 130.644 34.4019 130.872L34.5935 130.411ZM30.9424 129.536L30.9812 129.038C30.6573 129.013 30.3301 129 30 129V129.5V130C30.3042 130 30.6056 130.012 30.9037 130.035L30.9424 129.536ZM325 62.5V62C324.67 62 324.343 62.0128 324.019 62.038L324.058 62.5365L324.096 63.035C324.394 63.0118 324.696 63 325 63V62.5ZM322.197 62.829L322.081 62.3428C321.438 62.4965 320.815 62.6999 320.215 62.9487L320.407 63.4106L320.598 63.8724C321.15 63.6437 321.723 63.4567 322.314 63.3153L322.197 62.829ZM318.729 64.2668L318.468 63.8407C317.908 64.1842 317.378 64.5704 316.882 64.9949L317.207 65.3749L317.531 65.755C317.988 65.3643 318.476 65.0089 318.991 64.6928L318.729 64.2668ZM315.875 66.7065L315.495 66.3816C315.07 66.8781 314.684 67.4083 314.341 67.9676L314.767 68.2293L315.193 68.4909C315.509 67.9763 315.864 67.4884 316.255 67.0314L315.875 66.7065ZM313.911 69.9065L313.449 69.715C313.2 70.3149 312.997 70.9384 312.843 71.5811L313.329 71.6974L313.815 71.8138C313.957 71.2228 314.144 70.6496 314.372 70.0981L313.911 69.9065ZM313.036 73.5576L312.538 73.5188C312.513 73.8427 312.5 74.1699 312.5 74.5H313H313.5C313.5 74.1958 313.512 73.8944 313.535 73.5963L313.036 73.5576ZM313 74.5H312.5C312.5 74.8301 312.513 75.1573 312.538 75.4812L313.036 75.4424L313.535 75.4037C313.512 75.1056 313.5 74.8042 313.5 74.5H313ZM313.329 77.3026L312.843 77.4189C312.997 78.0616 313.2 78.6851 313.449 79.285L313.911 79.0935L314.372 78.9019C314.144 78.3504 313.957 77.7772 313.815 77.1862L313.329 77.3026ZM314.767 80.7707L314.341 81.0324C314.684 81.5917 315.07 82.1219 315.495 82.6184L315.875 82.2935L316.255 81.9686C315.864 81.5116 315.509 81.0237 315.193 80.5091L314.767 80.7707ZM317.207 83.6251L316.882 84.0051C317.378 84.4296 317.908 84.8158 318.468 85.1593L318.729 84.7332L318.991 84.3072C318.476 83.9911 317.988 83.6357 317.531 83.245L317.207 83.6251ZM320.407 85.5894L320.215 86.0513C320.815 86.3001 321.438 86.5035 322.081 86.6572L322.197 86.171L322.314 85.6847C321.723 85.5433 321.15 85.3563 320.598 85.1276L320.407 85.5894ZM324.058 86.4635L324.019 86.962C324.343 86.9872 324.67 87 325 87V86.5V86C324.696 86 324.394 85.9882 324.096 85.965L324.058 86.4635ZM325 86.5V87C325.33 87 325.657 86.9872 325.981 86.962L325.942 86.4635L325.904 85.965C325.606 85.9882 325.304 86 325 86V86.5ZM327.803 86.171L327.919 86.6572C328.562 86.5035 329.185 86.3001 329.785 86.0513L329.593 85.5894L329.402 85.1276C328.85 85.3563 328.277 85.5433 327.686 85.6847L327.803 86.171ZM331.271 84.7332L331.532 85.1593C332.092 84.8158 332.622 84.4296 333.118 84.0051L332.793 83.6251L332.469 83.245C332.012 83.6357 331.524 83.9911 331.009 84.3072L331.271 84.7332ZM334.125 82.2935L334.505 82.6184C334.93 82.1219 335.316 81.5917 335.659 81.0324L335.233 80.7707L334.807 80.5091C334.491 81.0237 334.136 81.5116 333.745 81.9686L334.125 82.2935ZM336.089 79.0935L336.551 79.285C336.8 78.6851 337.003 78.0616 337.157 77.4189L336.671 77.3026L336.185 77.1862C336.043 77.7772 335.856 78.3504 335.628 78.9019L336.089 79.0935ZM336.964 75.4424L337.462 75.4812C337.487 75.1573 337.5 74.8301 337.5 74.5H337H336.5C336.5 74.8042 336.488 75.1056 336.465 75.4037L336.964 75.4424ZM337 74.5H337.5C337.5 74.1699 337.487 73.8427 337.462 73.5188L336.964 73.5576L336.465 73.5963C336.488 73.8944 336.5 74.1958 336.5 74.5H337ZM336.671 71.6974L337.157 71.5811C337.003 70.9384 336.8 70.3149 336.551 69.715L336.089 69.9065L335.628 70.0981C335.856 70.6496 336.043 71.2228 336.185 71.8138L336.671 71.6974ZM335.233 68.2293L335.659 67.9676C335.316 67.4083 334.93 66.8781 334.505 66.3816L334.125 66.7065L333.745 67.0314C334.136 67.4884 334.491 67.9763 334.807 68.4909L335.233 68.2293ZM332.793 65.3749L333.118 64.9949C332.622 64.5704 332.092 64.1842 331.532 63.8407L331.271 64.2668L331.009 64.6928C331.524 65.0089 332.012 65.3643 332.469 65.755L332.793 65.3749ZM329.593 63.4106L329.785 62.9487C329.185 62.6999 328.562 62.4965 327.919 62.3428L327.803 62.829L327.686 63.3153C328.277 63.4567 328.85 63.6437 329.402 63.8724L329.593 63.4106ZM325.942 62.5365L325.981 62.038C325.657 62.0128 325.33 62 325 62V62.5V63C325.304 63 325.606 63.0118 325.904 63.035L325.942 62.5365ZM323.47 46.5L323.47 45.5L323.47 45.5L323.47 46.5ZM353 387.5L354 387.5V387.5H353ZM323 417.5L323 418.5H323L323 417.5ZM2 387.5L1 387.5L1 387.5L2 387.5ZM32 113.5L32 112.5L32 113.5ZM128.5 113.5L128.5 112.5H128.5V113.5ZM158.5 143.5L159.5 143.5V143.5L158.5 143.5ZM158.5 153L157.5 153V153L158.5 153ZM218.731 170.569L219.542 171.155L219.542 171.155L218.731 170.569ZM299.534 58.7354L298.724 58.1497L298.724 58.1497L299.534 58.7354ZM323.47 46.5L323.47 45.5C323.125 45.5 322.782 45.5058 322.439 45.5174L322.473 46.5168L322.507 47.5162C322.827 47.5054 323.148 47.5 323.47 47.5L323.47 46.5ZM320.484 46.6511L320.383 45.6562C319.698 45.7258 319.017 45.8184 318.341 45.9335L318.509 46.9193L318.677 47.9051C319.308 47.7976 319.945 47.711 320.585 47.646L320.484 46.6511ZM316.557 47.3202L316.323 46.3479C315.654 46.5091 314.992 46.6925 314.337 46.8978L314.636 47.852L314.936 48.8062C315.547 48.6144 316.166 48.4429 316.791 48.2924L316.557 47.3202ZM312.756 48.5121L312.393 47.5803C311.752 47.8297 311.121 48.1006 310.499 48.3923L310.924 49.2976L311.349 50.2028C311.93 49.9302 312.52 49.6771 313.119 49.444L312.756 48.5121ZM309.149 50.2047L308.664 49.3302C308.064 49.6632 307.474 50.0165 306.897 50.3896L307.44 51.2294L307.983 52.0693C308.522 51.7207 309.073 51.3905 309.634 51.0793L309.149 50.2047ZM305.803 52.3671L305.205 51.5658C304.655 51.9761 304.119 52.4055 303.596 52.8535L304.247 53.6126L304.898 54.3718C305.386 53.9532 305.888 53.5519 306.402 53.1685L305.803 52.3671ZM302.779 54.9602L302.078 54.2468C301.59 54.7268 301.116 55.2246 300.658 55.7394L301.405 56.404L302.152 57.0685C302.58 56.5874 303.023 56.1223 303.48 55.6737L302.779 54.9602ZM300.132 57.9373L299.341 57.3247C299.131 57.5956 298.925 57.8707 298.724 58.1497L299.534 58.7354L300.345 59.321C300.533 59.0602 300.726 58.8032 300.922 58.5499L300.132 57.9373ZM299.534 58.7354L298.724 58.1497L298.129 58.972L298.94 59.5577L299.751 60.1433L300.345 59.321L299.534 58.7354ZM297.752 61.2023L296.941 60.6166L295.753 62.2612L296.563 62.8469L297.374 63.4325L298.562 61.7879L297.752 61.2023ZM295.375 64.4915L294.565 63.9059L293.376 65.5505L294.187 66.1361L294.998 66.7218L296.186 65.0772L295.375 64.4915ZM292.999 67.7807L292.188 67.1951L291 68.8397L291.81 69.4254L292.621 70.011L293.809 68.3664L292.999 67.7807ZM290.622 71.07L289.812 70.4843L288.623 72.1289L289.434 72.7146L290.244 73.3003L291.433 71.6556L290.622 71.07ZM288.246 74.3592L287.435 73.7736L286.247 75.4182L287.057 76.0038L287.868 76.5895L289.056 74.9449L288.246 74.3592ZM285.869 77.6485L285.058 77.0628L283.87 78.7074L284.681 79.2931L285.491 79.8787L286.68 78.2341L285.869 77.6485ZM283.492 80.9377L282.682 80.352L281.494 81.9967L282.304 82.5823L283.115 83.168L284.303 81.5233L283.492 80.9377ZM281.116 84.2269L280.305 83.6413L279.117 85.2859L279.928 85.8715L280.738 86.4572L281.926 84.8126L281.116 84.2269ZM278.739 87.5162L277.929 86.9305L276.741 88.5751L277.551 89.1608L278.362 89.7464L279.55 88.1018L278.739 87.5162ZM276.363 90.8054L275.552 90.2197L274.364 91.8644L275.175 92.45L275.985 93.0357L277.173 91.391L276.363 90.8054ZM273.986 94.0946L273.176 93.509L271.987 95.1536L272.798 95.7392L273.609 96.3249L274.797 94.6803L273.986 94.0946ZM271.61 97.3839L270.799 96.7982L269.611 98.4428L270.421 99.0285L271.232 99.6141L272.42 97.9695L271.61 97.3839ZM269.233 100.673L268.423 100.087L267.234 101.732L268.045 102.318L268.855 102.903L270.044 101.259L269.233 100.673ZM266.857 103.962L266.046 103.377L264.858 105.021L265.668 105.607L266.479 106.193L267.667 104.548L266.857 103.962ZM264.48 107.252L263.669 106.666L262.481 108.311L263.292 108.896L264.102 109.482L265.291 107.837L264.48 107.252ZM262.104 110.541L261.293 109.955L260.105 111.6L260.915 112.185L261.726 112.771L262.914 111.126L262.104 110.541ZM259.727 113.83L258.916 113.244L257.728 114.889L258.539 115.475L259.349 116.06L260.538 114.416L259.727 113.83ZM257.35 117.119L256.54 116.534L255.352 118.178L256.162 118.764L256.973 119.35L258.161 117.705L257.35 117.119ZM254.974 120.409L254.163 119.823L252.975 121.467L253.786 122.053L254.596 122.639L255.784 120.994L254.974 120.409ZM252.597 123.698L251.787 123.112L250.598 124.757L251.409 125.342L252.22 125.928L253.408 124.283L252.597 123.698ZM250.221 126.987L249.41 126.401L248.222 128.046L249.032 128.632L249.843 129.217L251.031 127.573L250.221 126.987ZM247.844 130.276L247.034 129.691L245.845 131.335L246.656 131.921L247.466 132.507L248.655 130.862L247.844 130.276ZM245.468 133.565L244.657 132.98L243.469 134.624L244.279 135.21L245.09 135.796L246.278 134.151L245.468 133.565ZM243.091 136.855L242.281 136.269L241.092 137.914L241.903 138.499L242.713 139.085L243.902 137.44L243.091 136.855ZM240.715 140.144L239.904 139.558L238.716 141.203L239.526 141.789L240.337 142.374L241.525 140.73L240.715 140.144ZM238.338 143.433L237.527 142.848L236.339 144.492L237.15 145.078L237.96 145.663L239.149 144.019L238.338 143.433ZM235.961 146.722L235.151 146.137L233.963 147.781L234.773 148.367L235.584 148.953L236.772 147.308L235.961 146.722ZM233.585 150.012L232.774 149.426L231.586 151.071L232.397 151.656L233.207 152.242L234.395 150.597L233.585 150.012ZM231.208 153.301L230.398 152.715L229.209 154.36L230.02 154.946L230.831 155.531L232.019 153.887L231.208 153.301ZM228.832 156.59L228.021 156.004L226.833 157.649L227.643 158.235L228.454 158.82L229.642 157.176L228.832 156.59ZM226.455 159.879L225.645 159.294L224.456 160.938L225.267 161.524L226.077 162.11L227.266 160.465L226.455 159.879ZM224.079 163.169L223.268 162.583L222.08 164.228L222.89 164.813L223.701 165.399L224.889 163.754L224.079 163.169ZM221.702 166.458L220.892 165.872L219.703 167.517L220.514 168.102L221.324 168.688L222.513 167.043L221.702 166.458ZM219.326 169.747L218.515 169.161L217.921 169.984L218.731 170.569L219.542 171.155L220.136 170.333L219.326 169.747ZM218.731 170.569L217.921 169.984C217.729 170.249 217.534 170.51 217.334 170.768L218.125 171.38L218.915 171.993C219.128 171.718 219.337 171.438 219.542 171.155L218.731 170.569ZM216.831 172.938L216.083 172.273C215.649 172.762 215.198 173.235 214.734 173.691L215.435 174.405L216.135 175.118C216.632 174.631 217.113 174.125 217.578 173.602L216.831 172.938ZM213.943 175.774L213.292 175.015C212.796 175.44 212.286 175.848 211.764 176.238L212.362 177.039L212.96 177.841C213.519 177.424 214.064 176.988 214.594 176.533L213.943 175.774ZM210.7 178.195L210.157 177.355C209.608 177.71 209.048 178.045 208.478 178.362L208.963 179.236L209.448 180.111C210.058 179.773 210.656 179.414 211.242 179.035L210.7 178.195ZM207.16 180.158L206.735 179.252C206.145 179.53 205.545 179.787 204.936 180.024L205.299 180.956L205.662 181.888C206.312 181.634 206.954 181.359 207.585 181.063L207.16 180.158ZM203.388 181.626L203.089 180.672C202.467 180.867 201.838 181.042 201.203 181.195L201.437 182.167L201.671 183.139C202.35 182.975 203.023 182.789 203.688 182.581L203.388 181.626ZM199.454 182.574L199.286 181.588C198.644 181.698 197.997 181.786 197.346 181.852L197.447 182.847L197.548 183.841C198.244 183.771 198.936 183.677 199.621 183.56L199.454 182.574ZM195.427 182.983L195.393 181.984C195.067 181.994 194.741 182 194.414 182V183V184C194.764 184 195.112 183.994 195.46 183.982L195.427 182.983ZM194.414 183V182H192.936V183V184H194.414V183ZM189.979 183V182H188.5V183V184H189.979V183ZM188.5 183V182C188.182 182 187.864 181.995 187.548 181.985L187.516 182.984L187.484 183.984C187.821 183.995 188.16 184 188.5 184V183ZM185.558 182.858L185.655 181.862C185.021 181.801 184.394 181.719 183.773 181.617L183.611 182.604L183.449 183.59C184.113 183.699 184.784 183.787 185.461 183.853L185.558 182.858ZM181.685 182.222L181.911 181.248C181.292 181.105 180.681 180.941 180.078 180.759L179.789 181.716L179.499 182.673C180.143 182.868 180.797 183.043 181.458 183.197L181.685 182.222ZM177.929 181.085L178.282 180.149C177.688 179.925 177.103 179.683 176.529 179.422L176.115 180.332L175.702 181.243C176.317 181.522 176.942 181.781 177.577 182.02L177.929 181.085ZM174.356 179.463L174.828 178.581C174.269 178.282 173.721 177.965 173.185 177.631L172.656 178.48L172.127 179.328C172.7 179.686 173.286 180.025 173.883 180.344L174.356 179.463ZM171.025 177.387L171.608 176.575C171.093 176.206 170.591 175.82 170.103 175.419L169.468 176.191L168.833 176.964C169.355 177.393 169.892 177.805 170.441 178.2L171.025 177.387ZM167.992 174.896L168.676 174.166C168.214 173.734 167.766 173.286 167.334 172.824L166.604 173.508L165.874 174.192C166.337 174.685 166.815 175.163 167.308 175.626L167.992 174.896ZM165.309 172.032L166.081 171.397C165.68 170.909 165.294 170.407 164.925 169.892L164.113 170.475L163.3 171.059C163.695 171.608 164.107 172.145 164.536 172.667L165.309 172.032ZM163.02 168.844L163.869 168.315C163.535 167.779 163.218 167.231 162.919 166.672L162.037 167.144L161.156 167.617C161.475 168.214 161.814 168.8 162.172 169.373L163.02 168.844ZM161.168 165.385L162.078 164.971C161.817 164.397 161.575 163.812 161.351 163.218L160.415 163.571L159.48 163.923C159.719 164.558 159.978 165.183 160.257 165.798L161.168 165.385ZM159.784 161.711L160.741 161.422C160.559 160.819 160.395 160.208 160.252 159.589L159.278 159.815L158.303 160.042C158.457 160.703 158.632 161.357 158.827 162.001L159.784 161.711ZM158.896 157.889L159.883 157.727C159.781 157.106 159.699 156.479 159.638 155.845L158.642 155.942L157.647 156.039C157.713 156.716 157.801 157.387 157.91 158.051L158.896 157.889ZM158.516 153.984L159.515 153.952C159.505 153.636 159.5 153.318 159.5 153L158.5 153L157.5 153C157.5 153.34 157.505 153.679 157.516 154.016L158.516 153.984ZM158.5 153H159.5V151.812H158.5H157.5V153H158.5ZM158.5 149.438H159.5V147.062H158.5H157.5V149.438H158.5ZM158.5 144.688H159.5V143.5H158.5H157.5V144.688H158.5ZM158.5 143.5L159.5 143.5C159.5 143.16 159.495 142.821 159.484 142.484L158.484 142.516L157.485 142.548C157.495 142.864 157.5 143.182 157.5 143.5L158.5 143.5ZM158.358 140.558L159.353 140.461C159.287 139.784 159.199 139.113 159.09 138.449L158.104 138.611L157.117 138.773C157.219 139.394 157.301 140.021 157.362 140.655L158.358 140.558ZM157.722 136.685L158.697 136.458C158.543 135.797 158.368 135.143 158.173 134.499L157.216 134.789L156.259 135.078C156.441 135.681 156.605 136.292 156.748 136.911L157.722 136.685ZM156.585 132.929L157.52 132.577C157.281 131.942 157.022 131.317 156.743 130.702L155.832 131.115L154.922 131.529C155.183 132.103 155.425 132.688 155.649 133.282L156.585 132.929ZM154.963 129.356L155.844 128.883C155.525 128.286 155.186 127.7 154.828 127.127L153.98 127.656L153.131 128.185C153.465 128.721 153.782 129.269 154.081 129.828L154.963 129.356ZM152.887 126.025L153.7 125.441C153.305 124.892 152.893 124.355 152.464 123.833L151.691 124.468L150.919 125.103C151.32 125.591 151.706 126.093 152.075 126.608L152.887 126.025ZM150.396 122.992L151.126 122.308C150.663 121.815 150.185 121.337 149.692 120.874L149.008 121.604L148.324 122.334C148.786 122.766 149.234 123.214 149.666 123.676L150.396 122.992ZM147.532 120.309L148.167 119.536C147.645 119.107 147.108 118.695 146.559 118.3L145.975 119.113L145.392 119.925C145.907 120.294 146.409 120.68 146.897 121.081L147.532 120.309ZM144.344 118.02L144.873 117.172C144.3 116.814 143.714 116.475 143.117 116.156L142.644 117.037L142.172 117.919C142.731 118.218 143.279 118.535 143.815 118.869L144.344 118.02ZM140.885 116.168L141.298 115.257C140.683 114.978 140.058 114.719 139.423 114.48L139.071 115.415L138.718 116.351C139.312 116.575 139.897 116.817 140.471 117.078L140.885 116.168ZM137.211 114.784L137.501 113.827C136.857 113.632 136.203 113.457 135.542 113.303L135.315 114.278L135.089 115.252C135.708 115.395 136.319 115.559 136.922 115.741L137.211 114.784ZM133.389 113.896L133.551 112.91C132.887 112.801 132.216 112.713 131.539 112.647L131.442 113.642L131.345 114.638C131.979 114.699 132.606 114.781 133.227 114.883L133.389 113.896ZM129.484 113.516L129.516 112.516C129.179 112.505 128.84 112.5 128.5 112.5L128.5 113.5L128.5 114.5C128.818 114.5 129.136 114.505 129.452 114.515L129.484 113.516ZM128.5 113.5V112.5H127.495V113.5V114.5H128.5V113.5ZM125.484 113.5V112.5H123.474V113.5V114.5H125.484V113.5ZM121.464 113.5V112.5H119.453V113.5V114.5H121.464V113.5ZM117.443 113.5V112.5H115.432V113.5V114.5H117.443V113.5ZM113.422 113.5V112.5H111.411V113.5V114.5H113.422V113.5ZM109.401 113.5V112.5H107.391V113.5V114.5H109.401V113.5ZM105.38 113.5V112.5H103.37V113.5V114.5H105.38V113.5ZM101.359 113.5V112.5H99.349V113.5V114.5H101.359V113.5ZM97.3385 113.5V112.5H95.3281V113.5V114.5H97.3385V113.5ZM93.3177 113.5V112.5H91.3073V113.5V114.5H93.3177V113.5ZM89.2969 113.5V112.5H87.2865V113.5V114.5H89.2969V113.5ZM85.276 113.5V112.5H83.2656V113.5V114.5H85.276V113.5ZM81.2552 113.5V112.5H79.2448V113.5V114.5H81.2552V113.5ZM77.2344 113.5V112.5H75.2239V113.5V114.5H77.2344V113.5ZM73.2135 113.5V112.5H71.2031V113.5V114.5H73.2135V113.5ZM69.1927 113.5V112.5H67.1823V113.5V114.5H69.1927V113.5ZM65.1719 113.5V112.5H63.1614V113.5V114.5H65.1719V113.5ZM61.151 113.5V112.5H59.1406V113.5V114.5H61.151V113.5ZM57.1302 113.5V112.5H55.1198V113.5V114.5H57.1302V113.5ZM53.1094 113.5V112.5H51.099V113.5V114.5H53.1094V113.5ZM49.0885 113.5V112.5H47.0781V113.5V114.5H49.0885V113.5ZM45.0677 113.5V112.5H43.0573V113.5V114.5H45.0677V113.5ZM41.0469 113.5V112.5H39.0365V113.5V114.5H41.0469V113.5ZM37.0261 113.5V112.5H35.0156V113.5V114.5H37.0261V113.5ZM33.0052 113.5V112.5H32V113.5V114.5H33.0052V113.5ZM32 113.5L32 112.5C31.6601 112.5 31.3214 112.505 30.9841 112.516L31.0163 113.516L31.0485 114.515C31.3644 114.505 31.6816 114.5 32 114.5L32 113.5ZM29.0583 113.642L28.9615 112.647C28.2842 112.713 27.6132 112.801 26.9492 112.91L27.111 113.896L27.2727 114.883C27.8937 114.781 28.5214 114.699 29.1552 114.638L29.0583 113.642ZM25.1846 114.278L24.9583 113.303C24.2967 113.457 23.6432 113.632 22.9986 113.827L23.2885 114.784L23.5785 115.741C24.1812 115.559 24.7922 115.395 25.4109 115.252L25.1846 114.278ZM21.4293 115.415L21.0769 114.48C20.4418 114.719 19.8166 114.978 19.2022 115.257L19.6155 116.168L20.0287 117.078C20.6033 116.817 21.1879 116.575 21.7817 116.351L21.4293 115.415ZM17.8556 117.037L17.3834 116.156C16.786 116.475 16.2004 116.814 15.6272 117.172L16.1561 118.02L16.685 118.869C17.2211 118.535 17.769 118.218 18.3277 117.919L17.8556 117.037ZM14.5246 119.113L13.9414 118.3C13.3916 118.695 12.8552 119.107 12.3331 119.536L12.9679 120.309L13.6027 121.081C14.0913 120.68 14.5932 120.294 15.1077 119.925L14.5246 119.113ZM11.4922 121.604L10.8085 120.874C10.315 121.337 9.83662 121.815 9.37421 122.308L10.1039 122.992L10.8337 123.676C11.2664 123.214 11.7141 122.766 12.176 122.334L11.4922 121.604ZM8.8088 124.468L8.03615 123.833C7.60718 124.355 7.19494 124.892 6.80023 125.441L7.61259 126.025L8.42495 126.608C8.79427 126.093 9.18003 125.591 9.58145 125.103L8.8088 124.468ZM6.52031 127.656L5.67161 127.127C5.31446 127.7 4.9755 128.286 4.65552 128.883L5.53703 129.356L6.41855 129.828C6.71783 129.269 7.03491 128.721 7.36902 128.185L6.52031 127.656ZM4.66752 131.115L3.7569 130.702C3.47806 131.317 3.21866 131.942 2.97951 132.577L3.91535 132.929L4.8512 133.282C5.07481 132.688 5.31737 132.103 5.57813 131.529L4.66752 131.115ZM3.2844 134.789L2.32736 134.499C2.13205 135.143 1.95717 135.797 1.80347 136.458L2.77753 136.685L3.7516 136.911C3.89531 136.292 4.05883 135.681 4.24144 135.078L3.2844 134.789ZM2.39639 138.611L1.40956 138.449C1.30073 139.113 1.21301 139.784 1.14709 140.461L2.14239 140.558L3.13769 140.655C3.19937 140.021 3.28144 139.394 3.38322 138.773L2.39639 138.611ZM2.01582 142.516L1.01634 142.484C1.00547 142.821 1 143.16 1 143.5H2H3C3 143.182 3.00513 142.864 3.01531 142.548L2.01582 142.516ZM2 143.5H1V144.5H2H3V143.5H2ZM2 146.5H1V148.5H2H3V146.5H2ZM2 150.5H1V152.5H2H3V150.5H2ZM2 154.5H1V156.5H2H3V154.5H2ZM2 158.5H1V160.5H2H3V158.5H2ZM2 162.5H1V164.5H2H3V162.5H2ZM2 166.5H1V168.5H2H3V166.5H2ZM2 170.5H1V172.5H2H3V170.5H2ZM2 174.5H1V176.5H2H3V174.5H2ZM2 178.5H1V180.5H2H3V178.5H2ZM2 182.5H1V184.5H2H3V182.5H2ZM2 186.5H1V188.5H2H3V186.5H2ZM2 190.5H1V192.5H2H3V190.5H2ZM2 194.5H1V196.5H2H3V194.5H2ZM2 198.5H1V200.5H2H3V198.5H2ZM2 202.5H1V204.5H2H3V202.5H2ZM2 206.5H1V208.5H2H3V206.5H2ZM2 210.5H1V212.5H2H3V210.5H2ZM2 214.5H1V216.5H2H3V214.5H2ZM2 218.5H1V220.5H2H3V218.5H2ZM2 222.5H1V224.5H2H3V222.5H2ZM2 226.5H1V228.5H2H3V226.5H2ZM2 230.5H1V232.5H2H3V230.5H2ZM2 234.5H1V236.5H2H3V234.5H2ZM2 238.5H1V240.5H2H3V238.5H2ZM2 242.5H1V244.5H2H3V242.5H2ZM2 246.5H1V248.5H2H3V246.5H2ZM2 250.5H1V252.5H2H3V250.5H2ZM2 254.5H1V256.5H2H3V254.5H2ZM2 258.5H1V260.5H2H3V258.5H2ZM2 262.5H1V264.5H2H3V262.5H2ZM2 266.5H1V268.5H2H3V266.5H2ZM2 270.5H1V272.5H2H3V270.5H2ZM2 274.5H1V276.5H2H3V274.5H2ZM2 278.5H1V280.5H2H3V278.5H2ZM2 282.5H1V284.5H2H3V282.5H2ZM2 286.5H1V288.5H2H3V286.5H2ZM2 290.5H1V292.5H2H3V290.5H2ZM2 294.5H1V296.5H2H3V294.5H2ZM2 298.5H1V300.5H2H3V298.5H2ZM2 302.5H1V304.5H2H3V302.5H2ZM2 306.5H1V308.5H2H3V306.5H2ZM2 310.5H1V312.5H2H3V310.5H2ZM2 314.5H1V316.5H2H3V314.5H2ZM2 318.5H1V320.5H2H3V318.5H2ZM2 322.5H1V324.5H2H3V322.5H2ZM2 326.5H1V328.5H2H3V326.5H2ZM2 330.5H1V332.5H2H3V330.5H2ZM2 334.5H1V336.5H2H3V334.5H2ZM2 338.5H1V340.5H2H3V338.5H2ZM2 342.5H1V344.5H2H3V342.5H2ZM2 346.5H1V348.5H2H3V346.5H2ZM2 350.5H1V352.5H2H3V350.5H2ZM2 354.5H1V356.5H2H3V354.5H2ZM2 358.5H1V360.5H2H3V358.5H2ZM2 362.5H1V364.5H2H3V362.5H2ZM2 366.5H1V368.5H2H3V366.5H2ZM2 370.5H1V372.5H2H3V370.5H2ZM2 374.5H1V376.5H2H3V374.5H2ZM2 378.5H1V380.5H2H3V378.5H2ZM2 382.5H1V384.5H2H3V382.5H2ZM2 386.5H1V387.5H2H3V386.5H2ZM2 387.5L1 387.5C1 387.84 1.00548 388.179 1.01634 388.516L2.01582 388.484L3.01531 388.452C3.00513 388.136 3 387.818 3 387.5L2 387.5ZM2.14239 390.442L1.1471 390.539C1.21301 391.216 1.30073 391.887 1.40956 392.551L2.39639 392.389L3.38323 392.227C3.28144 391.606 3.19937 390.979 3.13769 390.345L2.14239 390.442ZM2.77754 394.315L1.80348 394.542C1.95717 395.203 2.13205 395.857 2.32737 396.501L3.28441 396.211L4.24144 395.922C4.05883 395.319 3.89532 394.708 3.7516 394.089L2.77754 394.315ZM3.91536 398.071L2.97951 398.423C3.21867 399.058 3.47807 399.683 3.75691 400.298L4.66752 399.885L5.57814 399.471C5.31738 398.897 5.07482 398.312 4.8512 397.718L3.91536 398.071ZM5.53704 401.644L4.65553 402.117C4.97551 402.714 5.31447 403.3 5.67162 403.873L6.52032 403.344L7.36903 402.815C7.03492 402.279 6.71784 401.731 6.41856 401.172L5.53704 401.644ZM7.6126 404.975L6.80024 405.559C7.19495 406.108 7.60719 406.645 8.03616 407.167L8.80881 406.532L9.58146 405.897C9.18004 405.409 8.79428 404.907 8.42496 404.392L7.6126 404.975ZM10.104 408.008L9.37422 408.692C9.83663 409.185 10.315 409.663 10.8085 410.126L11.4922 409.396L12.176 408.666C11.7141 408.234 11.2664 407.786 10.8337 407.324L10.104 408.008ZM12.9679 410.691L12.3331 411.464C12.8552 411.893 13.3916 412.305 13.9414 412.7L14.5246 411.887L15.1077 411.075C14.5932 410.706 14.0913 410.32 13.6027 409.919L12.9679 410.691ZM16.1561 412.98L15.6272 413.828C16.2004 414.186 16.786 414.525 17.3834 414.844L17.8556 413.963L18.3277 413.081C17.769 412.782 17.2211 412.465 16.685 412.131L16.1561 412.98ZM19.6155 414.832L19.2022 415.743C19.8166 416.022 20.4418 416.281 21.0769 416.52L21.4293 415.585L21.7817 414.649C21.1879 414.425 20.6033 414.183 20.0287 413.922L19.6155 414.832ZM23.2885 416.216L22.9986 417.173C23.6432 417.368 24.2967 417.543 24.9583 417.697L25.1846 416.722L25.4109 415.748C24.7922 415.605 24.1812 415.441 23.5785 415.259L23.2885 416.216ZM27.111 417.104L26.9492 418.09C27.6132 418.199 28.2842 418.287 28.9615 418.353L29.0584 417.358L29.1552 416.362C28.5214 416.301 27.8937 416.219 27.2727 416.117L27.111 417.104ZM31.0163 417.484L30.9841 418.484C31.3214 418.495 31.6601 418.5 32 418.5V417.5V416.5C31.6816 416.5 31.3644 416.495 31.0485 416.485L31.0163 417.484ZM32 417.5V418.5H32.9966V417.5V416.5H32V417.5ZM34.9897 417.5V418.5H36.9829V417.5V416.5H34.9897V417.5ZM38.976 417.5V418.5H40.9692V417.5V416.5H38.976V417.5ZM42.9623 417.5V418.5H44.9555V417.5V416.5H42.9623V417.5ZM46.9486 417.5V418.5H48.9418V417.5V416.5H46.9486V417.5ZM50.9349 417.5V418.5H52.9281V417.5V416.5H50.9349V417.5ZM54.9212 417.5V418.5H56.9144V417.5V416.5H54.9212V417.5ZM58.9075 417.5V418.5H60.9007V417.5V416.5H58.9075V417.5ZM62.8938 417.5V418.5H64.887V417.5V416.5H62.8938V417.5ZM66.8801 417.5V418.5H68.8733V417.5V416.5H66.8801V417.5ZM70.8664 417.5V418.5H72.8596V417.5V416.5H70.8664V417.5ZM74.8527 417.5V418.5H76.8459V417.5V416.5H74.8527V417.5ZM78.839 417.5V418.5H80.8322V417.5V416.5H78.839V417.5ZM82.8253 417.5V418.5H84.8185V417.5V416.5H82.8253V417.5ZM86.8116 417.5V418.5H88.8048V417.5V416.5H86.8116V417.5ZM90.7979 417.5V418.5H92.7911V417.5V416.5H90.7979V417.5ZM94.7842 417.5V418.5H96.7774V417.5V416.5H94.7842V417.5ZM98.7705 417.5V418.5H100.764V417.5V416.5H98.7705V417.5ZM102.757 417.5V418.5H104.75V417.5V416.5H102.757V417.5ZM106.743 417.5V418.5H108.736V417.5V416.5H106.743V417.5ZM110.729 417.5V418.5H112.723V417.5V416.5H110.729V417.5ZM114.716 417.5V418.5H116.709V417.5V416.5H114.716V417.5ZM118.702 417.5V418.5H120.695V417.5V416.5H118.702V417.5ZM122.688 417.5V418.5H124.681V417.5V416.5H122.688V417.5ZM126.675 417.5V418.5H128.668V417.5V416.5H126.675V417.5ZM130.661 417.5V418.5H132.654V417.5V416.5H130.661V417.5ZM134.647 417.5V418.5H136.64V417.5V416.5H134.647V417.5ZM138.633 417.5V418.5H140.627V417.5V416.5H138.633V417.5ZM142.62 417.5V418.5H144.613V417.5V416.5H142.62V417.5ZM146.606 417.5V418.5H148.599V417.5V416.5H146.606V417.5ZM150.592 417.5V418.5H152.586V417.5V416.5H150.592V417.5ZM154.579 417.5V418.5H156.572V417.5V416.5H154.579V417.5ZM158.565 417.5V418.5H160.558V417.5V416.5H158.565V417.5ZM162.551 417.5V418.5H164.544V417.5V416.5H162.551V417.5ZM166.538 417.5V418.5H168.531V417.5V416.5H166.538V417.5ZM170.524 417.5V418.5H172.517V417.5V416.5H170.524V417.5ZM174.51 417.5V418.5H176.503V417.5V416.5H174.51V417.5ZM178.496 417.5V418.5H180.49V417.5V416.5H178.496V417.5ZM182.483 417.5V418.5H184.476V417.5V416.5H182.483V417.5ZM186.469 417.5V418.5H188.462V417.5V416.5H186.469V417.5ZM190.455 417.5V418.5H192.449V417.5V416.5H190.455V417.5ZM194.442 417.5V418.5H196.435V417.5V416.5H194.442V417.5ZM198.428 417.5V418.5H200.421V417.5V416.5H198.428V417.5ZM202.414 417.5V418.5H204.407V417.5V416.5H202.414V417.5ZM206.401 417.5V418.5H208.394V417.5V416.5H206.401V417.5ZM210.387 417.5V418.5H212.38V417.5V416.5H210.387V417.5ZM214.373 417.5V418.5H216.366V417.5V416.5H214.373V417.5ZM218.359 417.5V418.5H220.353V417.5V416.5H218.359V417.5ZM222.346 417.5V418.5H224.339V417.5V416.5H222.346V417.5ZM226.332 417.5V418.5H228.325V417.5V416.5H226.332V417.5ZM230.318 417.5V418.5H232.311V417.5V416.5H230.318V417.5ZM234.305 417.5V418.5H236.298V417.5V416.5H234.305V417.5ZM238.291 417.5V418.5H240.284V417.5V416.5H238.291V417.5ZM242.277 417.5V418.5H244.27V417.5V416.5H242.277V417.5ZM246.264 417.5V418.5H248.257V417.5V416.5H246.264V417.5ZM250.25 417.5V418.5H252.243V417.5V416.5H250.25V417.5ZM254.236 417.5V418.5H256.229V417.5V416.5H254.236V417.5ZM258.222 417.5V418.5H260.216V417.5V416.5H258.222V417.5ZM262.209 417.5V418.5H264.202V417.5V416.5H262.209V417.5ZM266.195 417.5V418.5H268.188V417.5V416.5H266.195V417.5ZM270.181 417.5V418.5H272.174V417.5V416.5H270.181V417.5ZM274.168 417.5V418.5H276.161V417.5V416.5H274.168V417.5ZM278.154 417.5V418.5H280.147V417.5V416.5H278.154V417.5ZM282.14 417.5V418.5H284.133V417.5V416.5H282.14V417.5ZM286.127 417.5V418.5H288.12V417.5V416.5H286.127V417.5ZM290.113 417.5V418.5H292.106V417.5V416.5H290.113V417.5ZM294.099 417.5V418.5H296.092V417.5V416.5H294.099V417.5ZM298.085 417.5V418.5H300.079V417.5V416.5H298.085V417.5ZM302.072 417.5V418.5H304.065V417.5V416.5H302.072V417.5ZM306.058 417.5V418.5H308.051V417.5V416.5H306.058V417.5ZM310.044 417.5V418.5H312.038V417.5V416.5H310.044V417.5ZM314.031 417.5V418.5H316.024V417.5V416.5H314.031V417.5ZM318.017 417.5V418.5H320.01V417.5V416.5H318.017V417.5ZM322.003 417.5V418.5H323V417.5V416.5H322.003V417.5ZM323 417.5L323 418.5C323.34 418.5 323.679 418.495 324.016 418.484L323.984 417.484L323.952 416.485C323.636 416.495 323.318 416.5 323 416.5L323 417.5ZM325.942 417.358L326.039 418.353C326.716 418.287 327.387 418.199 328.051 418.09L327.889 417.104L327.727 416.117C327.106 416.219 326.479 416.301 325.845 416.362L325.942 417.358ZM329.815 416.722L330.042 417.697C330.703 417.543 331.357 417.368 332.001 417.173L331.711 416.216L331.422 415.259C330.819 415.441 330.208 415.605 329.589 415.748L329.815 416.722ZM333.571 415.585L333.923 416.52C334.558 416.281 335.183 416.022 335.798 415.743L335.385 414.832L334.971 413.922C334.397 414.183 333.812 414.425 333.218 414.649L333.571 415.585ZM337.144 413.963L337.617 414.844C338.214 414.525 338.8 414.186 339.373 413.828L338.844 412.98L338.315 412.131C337.779 412.465 337.231 412.782 336.672 413.081L337.144 413.963ZM340.475 411.887L341.059 412.7C341.608 412.305 342.145 411.893 342.667 411.464L342.032 410.691L341.397 409.919C340.909 410.32 340.407 410.706 339.892 411.075L340.475 411.887ZM343.508 409.396L344.191 410.126C344.685 409.663 345.163 409.185 345.626 408.691L344.896 408.008L344.166 407.324C343.734 407.786 343.286 408.234 342.824 408.666L343.508 409.396ZM346.191 406.532L346.964 407.167C347.393 406.645 347.805 406.108 348.2 405.559L347.387 404.975L346.575 404.392C346.206 404.907 345.82 405.409 345.419 405.897L346.191 406.532ZM348.48 403.344L349.328 403.873C349.686 403.3 350.024 402.714 350.344 402.117L349.463 401.644L348.581 401.172C348.282 401.731 347.965 402.279 347.631 402.815L348.48 403.344ZM350.332 399.885L351.243 400.298C351.522 399.683 351.781 399.058 352.02 398.423L351.085 398.071L350.149 397.718C349.925 398.312 349.683 398.897 349.422 399.471L350.332 399.885ZM351.716 396.211L352.673 396.501C352.868 395.857 353.043 395.203 353.197 394.542L352.222 394.315L351.248 394.089C351.105 394.708 350.941 395.319 350.759 395.922L351.716 396.211ZM352.604 392.389L353.59 392.551C353.699 391.887 353.787 391.216 353.853 390.539L352.858 390.442L351.862 390.345C351.801 390.979 351.719 391.606 351.617 392.227L352.604 392.389ZM352.984 388.484L353.984 388.516C353.995 388.179 354 387.84 354 387.5L353 387.5L352 387.5C352 387.818 351.995 388.136 351.985 388.452L352.984 388.484ZM353 387.5H354V386.502H353H352V387.5H353ZM353 384.505H354V382.508H353H352V384.505H353ZM353 380.512H354V378.515H353H352V380.512H353ZM353 376.519H354V374.522H353H352V376.519H353ZM353 372.525H354V370.529H353H352V372.525H353ZM353 368.532H354V366.536H353H352V368.532H353ZM353 364.539H354V362.542H353H352V364.539H353ZM353 360.546H354V358.549H353H352V360.546H353ZM353 356.553H354V354.556H353H352V356.553H353ZM353 352.559H354V350.563H353H352V352.559H353ZM353 348.566H354V346.57H353H352V348.566H353ZM353 344.573H354V342.576H353H352V344.573H353ZM353 340.58H354V338.583H353H352V340.58H353ZM353 336.587H354V334.59H353H352V336.587H353ZM353 332.593H354V330.597H353H352V332.593H353ZM353 328.6H354V326.604H353H352V328.6H353ZM353 324.607H354V322.61H353H352V324.607H353ZM353 320.614H354V318.617H353H352V320.614H353ZM353 316.621H354V314.624H353H352V316.621H353ZM353 312.627H354V310.631H353H352V312.627H353ZM353 308.634H354V306.638H353H352V308.634H353ZM353 304.641H354V302.644H353H352V304.641H353ZM353 300.648H354V298.651H353H352V300.648H353ZM353 296.655H354V294.658H353H352V296.655H353ZM353 292.662H354V290.665H353H352V292.662H353ZM353 288.668H354V286.672H353H352V288.668H353ZM353 284.675H354V282.679H353H352V284.675H353ZM353 280.682H354V278.685H353H352V280.682H353ZM353 276.689H354V274.692H353H352V276.689H353ZM353 272.696H354V270.699H353H352V272.696H353ZM353 268.702H354V266.706H353H352V268.702H353ZM353 264.709H354V262.713H353H352V264.709H353ZM353 260.716H354V258.719H353H352V260.716H353ZM353 256.723H354V254.726H353H352V256.723H353ZM353 252.73H354V250.733H353H352V252.73H353ZM353 248.736H354V246.74H353H352V248.736H353ZM353 244.743H354V242.747H353H352V244.743H353ZM353 240.75H354V238.753H353H352V240.75H353ZM353 236.757H354V234.76H353H352V236.757H353ZM353 232.764H354V230.767H353H352V232.764H353ZM353 228.77H354V226.774H353H352V228.77H353ZM353 224.777H354V222.781H353H352V224.777H353ZM353 220.784H354V218.787H353H352V220.784H353ZM353 216.791H354V214.794H353H352V216.791H353ZM353 212.798H354V210.801H353H352V212.798H353ZM353 208.804H354V206.808H353H352V208.804H353ZM353 204.811H354V202.815H353H352V204.811H353ZM353 200.818H354V198.821H353H352V200.818H353ZM353 196.825H354V194.828H353H352V196.825H353ZM353 192.832H354V190.835H353H352V192.832H353ZM353 188.838H354V186.842H353H352V188.838H353ZM353 184.845H354V182.849H353H352V184.845H353ZM353 180.852H354V178.855H353H352V180.852H353ZM353 176.859H354V174.862H353H352V176.859H353ZM353 172.866H354V170.869H353H352V172.866H353ZM353 168.872H354V166.876H353H352V168.872H353ZM353 164.879H354V162.883H353H352V164.879H353ZM353 160.886H354V158.889H353H352V160.886H353ZM353 156.893H354V154.896H353H352V156.893H353ZM353 152.9H354V150.903H353H352V152.9H353ZM353 148.906H354V146.91H353H352V148.906H353ZM353 144.913H354V142.917H353H352V144.913H353ZM353 140.92H354V138.924H353H352V140.92H353ZM353 136.927H354V134.93H353H352V136.927H353ZM353 132.934H354V130.937H353H352V132.934H353ZM353 128.94H354V126.944H353H352V128.94H353ZM353 124.947H354V122.951H353H352V124.947H353ZM353 120.954H354V118.957H353H352V120.954H353ZM353 116.961H354V114.964H353H352V116.961H353ZM353 112.968H354V110.971H353H352V112.968H353ZM353 108.974H354V106.978H353H352V108.974H353ZM353 104.981H354V102.985H353H352V104.981H353ZM353 100.988H354V98.9913H353H352V100.988H353ZM353 96.9947H354V94.9981H353H352V96.9947H353ZM353 93.0015H354V91.0049H353H352V93.0015H353ZM353 89.0082H354V87.0116H353H352V89.0082H353ZM353 85.015H354V83.0184H353H352V85.015H353ZM353 81.0218H354V79.0252H353H352V81.0218H353ZM353 77.0286H354V76.0303H353H352V77.0286H353ZM353 76.0303H354C354 75.6955 353.995 75.362 353.984 75.0298L352.984 75.062L351.985 75.0942C351.995 75.4049 352 75.717 352 76.0303H353ZM352.86 73.1347L353.855 73.0378C353.79 72.3708 353.704 71.71 353.597 71.0561L352.61 71.2178L351.623 71.3796C351.723 71.9905 351.804 72.6081 351.865 73.2316L352.86 73.1347ZM352.235 69.3216L353.209 69.0953C353.057 68.4437 352.885 67.8001 352.693 67.1652L351.736 67.4552L350.779 67.7452C350.958 68.3381 351.119 68.9393 351.261 69.5479L352.235 69.3216ZM351.115 65.6251L352.05 65.2727C351.815 64.6472 351.559 64.0315 351.285 63.4264L350.374 63.8397L349.464 64.253C349.72 64.8182 349.959 65.3933 350.179 65.9775L351.115 65.6251ZM349.518 62.1074L350.4 61.6352C350.085 61.0469 349.751 60.4701 349.399 59.9056L348.55 60.4345L347.702 60.9634C348.03 61.4909 348.342 62.0298 348.637 62.5795L349.518 62.1074ZM347.475 58.8285L348.288 58.2454C347.899 57.7039 347.493 57.1756 347.07 56.6614L346.298 57.2963L345.525 57.9311C345.92 58.4118 346.299 58.9055 346.663 59.4117L347.475 58.8285ZM345.023 55.8437L345.753 55.16C345.297 54.6739 344.826 54.2028 344.34 53.7474L343.656 54.4771L342.973 55.2069C343.427 55.6326 343.867 56.0731 344.293 56.5274L345.023 55.8437ZM342.204 53.2023L342.839 52.4296C342.324 52.0072 341.796 51.6012 341.255 51.2124L340.671 52.0248L340.088 52.8372C340.594 53.2005 341.088 53.58 341.569 53.9749L342.204 53.2023ZM339.065 50.9496L339.594 50.1009C339.03 49.7492 338.453 49.4153 337.865 49.1002L337.393 49.9817L336.92 50.8632C337.47 51.1577 338.009 51.4696 338.537 51.7983L339.065 50.9496ZM335.66 49.1258L336.074 48.2152C335.468 47.9406 334.853 47.6851 334.227 47.4496L333.875 48.3854L333.522 49.3213C334.107 49.5413 334.682 49.7799 335.247 50.0364L335.66 49.1258ZM332.045 47.7643L332.335 46.8073C331.7 46.6149 331.056 46.4427 330.405 46.2913L330.178 47.2654L329.952 48.2394C330.561 48.3808 331.162 48.5417 331.755 48.7214L332.045 47.7643ZM328.282 46.8902L328.444 45.9034C327.79 45.7962 327.129 45.7098 326.462 45.6449L326.365 46.6402L326.268 47.6355C326.892 47.6961 327.509 47.7769 328.12 47.877L328.282 46.8902ZM324.438 46.5156L324.47 45.5161C324.138 45.5054 323.804 45.5 323.47 45.5V46.5V47.5C323.783 47.5 324.095 47.505 324.406 47.5151L324.438 46.5156ZM30 377.5V376.5C29.657 376.5 29.3168 376.513 28.9801 376.539L29.0576 377.536L29.135 378.533C29.4202 378.511 29.7087 378.5 30 378.5V377.5ZM27.1974 377.829L26.9648 376.856C26.2961 377.016 25.6475 377.228 25.0235 377.487L25.4065 378.411L25.7896 379.334C26.317 379.116 26.8651 378.937 27.4301 378.802L27.1974 377.829ZM23.7293 379.267L23.206 378.415C22.6243 378.772 22.073 379.173 21.5567 379.615L22.2065 380.375L22.8563 381.135C23.2936 380.761 23.7603 380.421 24.2526 380.119L23.7293 379.267ZM20.8749 381.707L20.1148 381.057C19.6735 381.573 19.2718 382.124 18.9146 382.706L19.7668 383.229L20.6189 383.753C20.9212 383.26 21.2612 382.794 21.635 382.356L20.8749 381.707ZM18.9106 384.907L17.9868 384.523C17.7281 385.148 17.5164 385.796 17.3565 386.465L18.329 386.697L19.3016 386.93C19.4368 386.365 19.6156 385.817 19.8343 385.29L18.9106 384.907ZM18.0365 388.558L17.0395 388.48C17.0133 388.817 17 389.157 17 389.5H18H19C19 389.209 19.0113 388.92 19.0335 388.635L18.0365 388.558ZM18 389.5H17C17 389.843 17.0133 390.183 17.0395 390.52L18.0365 390.442L19.0335 390.365C19.0113 390.08 19 389.791 19 389.5H18ZM18.329 392.303L17.3565 392.535C17.5164 393.204 17.7281 393.852 17.9868 394.477L18.9106 394.093L19.8343 393.71C19.6156 393.183 19.4368 392.635 19.3016 392.07L18.329 392.303ZM19.7668 395.771L18.9146 396.294C19.2718 396.876 19.6735 397.427 20.1148 397.943L20.8749 397.293L21.635 396.644C21.2612 396.206 20.9212 395.74 20.6189 395.247L19.7668 395.771ZM22.2065 398.625L21.5567 399.385C22.073 399.827 22.6243 400.228 23.206 400.585L23.7293 399.733L24.2526 398.881C23.7603 398.579 23.2936 398.239 22.8563 397.865L22.2065 398.625ZM25.4065 400.589L25.0235 401.513C25.6475 401.772 26.2961 401.984 26.9648 402.144L27.1974 401.171L27.4301 400.198C26.8651 400.063 26.317 399.884 25.7896 399.666L25.4065 400.589ZM29.0576 401.464L28.9801 402.461C29.3168 402.487 29.657 402.5 30 402.5V401.5V400.5C29.7087 400.5 29.4202 400.489 29.135 400.467L29.0576 401.464ZM30 401.5V402.5C30.343 402.5 30.6832 402.487 31.0199 402.461L30.9424 401.464L30.865 400.467C30.5798 400.489 30.2913 400.5 30 400.5V401.5ZM32.8026 401.171L33.0352 402.144C33.7039 401.984 34.3525 401.772 34.9765 401.513L34.5935 400.589L34.2104 399.666C33.683 399.884 33.1349 400.063 32.5699 400.198L32.8026 401.171ZM36.2707 399.733L36.794 400.585C37.3757 400.228 37.927 399.827 38.4433 399.385L37.7935 398.625L37.1437 397.865C36.7064 398.239 36.2397 398.579 35.7474 398.881L36.2707 399.733ZM39.1251 397.293L39.8852 397.943C40.3265 397.427 40.7282 396.876 41.0854 396.294L40.2332 395.771L39.3811 395.247C39.0788 395.74 38.7388 396.206 38.365 396.644L39.1251 397.293ZM41.0894 394.093L42.0132 394.477C42.2719 393.852 42.4836 393.204 42.6435 392.535L41.671 392.303L40.6984 392.07C40.5632 392.635 40.3844 393.183 40.1657 393.71L41.0894 394.093ZM41.9635 390.442L42.9605 390.52C42.9867 390.183 43 389.843 43 389.5H42H41C41 389.791 40.9887 390.08 40.9665 390.365L41.9635 390.442ZM42 389.5H43C43 389.157 42.9867 388.817 42.9605 388.48L41.9635 388.558L40.9665 388.635C40.9887 388.92 41 389.209 41 389.5H42ZM41.671 386.697L42.6435 386.465C42.4836 385.796 42.2719 385.148 42.0132 384.523L41.0894 384.907L40.1657 385.29C40.3844 385.817 40.5632 386.365 40.6984 386.93L41.671 386.697ZM40.2332 383.229L41.0854 382.706C40.7282 382.124 40.3265 381.573 39.8852 381.057L39.1251 381.707L38.365 382.356C38.7388 382.794 39.0788 383.26 39.3811 383.753L40.2332 383.229ZM37.7935 380.375L38.4433 379.615C37.927 379.173 37.3757 378.772 36.794 378.415L36.2707 379.267L35.7474 380.119C36.2397 380.421 36.7064 380.761 37.1437 381.135L37.7935 380.375ZM34.5935 378.411L34.9765 377.487C34.3525 377.228 33.7039 377.016 33.0352 376.856L32.8026 377.829L32.5699 378.802C33.1349 378.937 33.683 379.116 34.2104 379.334L34.5935 378.411ZM30.9424 377.536L31.0199 376.539C30.6832 376.513 30.343 376.5 30 376.5V377.5V378.5C30.2913 378.5 30.5798 378.511 30.865 378.533L30.9424 377.536ZM325 377.5V376.5C324.657 376.5 324.317 376.513 323.98 376.539L324.058 377.536L324.135 378.533C324.42 378.511 324.709 378.5 325 378.5V377.5ZM322.197 377.829L321.965 376.856C321.296 377.016 320.648 377.228 320.023 377.487L320.407 378.411L320.79 379.334C321.317 379.116 321.865 378.937 322.43 378.802L322.197 377.829ZM318.729 379.267L318.206 378.415C317.624 378.772 317.073 379.173 316.557 379.615L317.207 380.375L317.856 381.135C318.294 380.761 318.76 380.421 319.253 380.119L318.729 379.267ZM315.875 381.707L315.115 381.057C314.673 381.573 314.272 382.124 313.915 382.706L314.767 383.229L315.619 383.753C315.921 383.26 316.261 382.794 316.635 382.356L315.875 381.707ZM313.911 384.907L312.987 384.523C312.728 385.148 312.516 385.796 312.356 386.465L313.329 386.697L314.302 386.93C314.437 386.365 314.616 385.817 314.834 385.29L313.911 384.907ZM313.036 388.558L312.039 388.48C312.013 388.817 312 389.157 312 389.5H313H314C314 389.209 314.011 388.92 314.033 388.635L313.036 388.558ZM313 389.5H312C312 389.843 312.013 390.183 312.039 390.52L313.036 390.442L314.033 390.365C314.011 390.08 314 389.791 314 389.5H313ZM313.329 392.303L312.356 392.535C312.516 393.204 312.728 393.852 312.987 394.477L313.911 394.093L314.834 393.71C314.616 393.183 314.437 392.635 314.302 392.07L313.329 392.303ZM314.767 395.771L313.915 396.294C314.272 396.876 314.673 397.427 315.115 397.943L315.875 397.293L316.635 396.644C316.261 396.206 315.921 395.74 315.619 395.247L314.767 395.771ZM317.207 398.625L316.557 399.385C317.073 399.827 317.624 400.228 318.206 400.585L318.729 399.733L319.253 398.881C318.76 398.579 318.294 398.239 317.856 397.865L317.207 398.625ZM320.407 400.589L320.023 401.513C320.648 401.772 321.296 401.984 321.965 402.144L322.197 401.171L322.43 400.198C321.865 400.063 321.317 399.884 320.79 399.666L320.407 400.589ZM324.058 401.464L323.98 402.461C324.317 402.487 324.657 402.5 325 402.5V401.5V400.5C324.709 400.5 324.42 400.489 324.135 400.467L324.058 401.464ZM325 401.5V402.5C325.343 402.5 325.683 402.487 326.02 402.461L325.942 401.464L325.865 400.467C325.58 400.489 325.291 400.5 325 400.5V401.5ZM327.803 401.171L328.035 402.144C328.704 401.984 329.352 401.772 329.977 401.513L329.593 400.589L329.21 399.666C328.683 399.884 328.135 400.063 327.57 400.198L327.803 401.171ZM331.271 399.733L331.794 400.585C332.376 400.228 332.927 399.827 333.443 399.385L332.793 398.625L332.144 397.865C331.706 398.239 331.24 398.579 330.747 398.881L331.271 399.733ZM334.125 397.293L334.885 397.943C335.327 397.427 335.728 396.876 336.085 396.294L335.233 395.771L334.381 395.247C334.079 395.74 333.739 396.206 333.365 396.644L334.125 397.293ZM336.089 394.093L337.013 394.477C337.272 393.852 337.484 393.204 337.644 392.535L336.671 392.303L335.698 392.07C335.563 392.635 335.384 393.183 335.166 393.71L336.089 394.093ZM336.964 390.442L337.961 390.52C337.987 390.183 338 389.843 338 389.5H337H336C336 389.791 335.989 390.08 335.967 390.365L336.964 390.442ZM337 389.5H338C338 389.157 337.987 388.817 337.961 388.48L336.964 388.558L335.967 388.635C335.989 388.92 336 389.209 336 389.5H337ZM336.671 386.697L337.644 386.465C337.484 385.796 337.272 385.148 337.013 384.523L336.089 384.907L335.166 385.29C335.384 385.817 335.563 386.365 335.698 386.93L336.671 386.697ZM335.233 383.229L336.085 382.706C335.728 382.124 335.327 381.573 334.885 381.057L334.125 381.707L333.365 382.356C333.739 382.794 334.079 383.26 334.381 383.753L335.233 383.229ZM332.793 380.375L333.443 379.615C332.927 379.173 332.376 378.772 331.794 378.415L331.271 379.267L330.747 380.119C331.24 380.421 331.706 380.761 332.144 381.135L332.793 380.375ZM329.593 378.411L329.977 377.487C329.352 377.228 328.704 377.016 328.035 376.856L327.803 377.829L327.57 378.802C328.135 378.937 328.683 379.116 329.21 379.334L329.593 378.411ZM325.942 377.536L326.02 376.539C325.683 376.513 325.343 376.5 325 376.5V377.5V378.5C325.291 378.5 325.58 378.511 325.865 378.533L325.942 377.536ZM30 129.5V128.5C29.657 128.5 29.3168 128.513 28.9801 128.539L29.0576 129.536L29.135 130.533C29.4202 130.511 29.7087 130.5 30 130.5V129.5ZM27.1974 129.829L26.9648 128.856C26.2961 129.016 25.6475 129.228 25.0235 129.487L25.4065 130.411L25.7896 131.334C26.317 131.116 26.8651 130.937 27.4301 130.802L27.1974 129.829ZM23.7293 131.267L23.206 130.415C22.6243 130.772 22.073 131.173 21.5567 131.615L22.2065 132.375L22.8563 133.135C23.2936 132.761 23.7603 132.421 24.2526 132.119L23.7293 131.267ZM20.8749 133.707L20.1148 133.057C19.6735 133.573 19.2718 134.124 18.9146 134.706L19.7668 135.229L20.6189 135.753C20.9212 135.26 21.2612 134.794 21.635 134.356L20.8749 133.707ZM18.9106 136.907L17.9868 136.523C17.7281 137.148 17.5164 137.796 17.3565 138.465L18.329 138.697L19.3016 138.93C19.4368 138.365 19.6156 137.817 19.8343 137.29L18.9106 136.907ZM18.0365 140.558L17.0395 140.48C17.0133 140.817 17 141.157 17 141.5H18H19C19 141.209 19.0113 140.92 19.0335 140.635L18.0365 140.558ZM18 141.5H17C17 141.843 17.0133 142.183 17.0395 142.52L18.0365 142.442L19.0335 142.365C19.0113 142.08 19 141.791 19 141.5H18ZM18.329 144.303L17.3565 144.535C17.5164 145.204 17.7281 145.852 17.9868 146.477L18.9106 146.093L19.8343 145.71C19.6156 145.183 19.4368 144.635 19.3016 144.07L18.329 144.303ZM19.7668 147.771L18.9146 148.294C19.2718 148.876 19.6735 149.427 20.1148 149.943L20.8749 149.293L21.635 148.644C21.2612 148.206 20.9212 147.74 20.6189 147.247L19.7668 147.771ZM22.2065 150.625L21.5567 151.385C22.073 151.827 22.6243 152.228 23.206 152.585L23.7293 151.733L24.2526 150.881C23.7603 150.579 23.2936 150.239 22.8563 149.865L22.2065 150.625ZM25.4065 152.589L25.0235 153.513C25.6475 153.772 26.2961 153.984 26.9648 154.144L27.1974 153.171L27.4301 152.198C26.8651 152.063 26.317 151.884 25.7896 151.666L25.4065 152.589ZM29.0576 153.464L28.9801 154.461C29.3168 154.487 29.657 154.5 30 154.5V153.5V152.5C29.7087 152.5 29.4202 152.489 29.135 152.467L29.0576 153.464ZM30 153.5V154.5C30.343 154.5 30.6832 154.487 31.0199 154.461L30.9424 153.464L30.865 152.467C30.5798 152.489 30.2913 152.5 30 152.5V153.5ZM32.8026 153.171L33.0352 154.144C33.7039 153.984 34.3525 153.772 34.9765 153.513L34.5935 152.589L34.2104 151.666C33.683 151.884 33.1349 152.063 32.5699 152.198L32.8026 153.171ZM36.2707 151.733L36.794 152.585C37.3757 152.228 37.927 151.827 38.4433 151.385L37.7935 150.625L37.1437 149.865C36.7064 150.239 36.2397 150.579 35.7474 150.881L36.2707 151.733ZM39.1251 149.293L39.8852 149.943C40.3265 149.427 40.7282 148.876 41.0854 148.294L40.2332 147.771L39.3811 147.247C39.0788 147.74 38.7388 148.206 38.365 148.644L39.1251 149.293ZM41.0894 146.093L42.0132 146.477C42.2719 145.852 42.4836 145.204 42.6435 144.535L41.671 144.303L40.6984 144.07C40.5632 144.635 40.3844 145.183 40.1657 145.71L41.0894 146.093ZM41.9635 142.442L42.9605 142.52C42.9867 142.183 43 141.843 43 141.5H42H41C41 141.791 40.9887 142.08 40.9665 142.365L41.9635 142.442ZM42 141.5H43C43 141.157 42.9867 140.817 42.9605 140.48L41.9635 140.558L40.9665 140.635C40.9887 140.92 41 141.209 41 141.5H42ZM41.671 138.697L42.6435 138.465C42.4836 137.796 42.2719 137.148 42.0132 136.523L41.0894 136.907L40.1657 137.29C40.3844 137.817 40.5632 138.365 40.6984 138.93L41.671 138.697ZM40.2332 135.229L41.0854 134.706C40.7282 134.124 40.3265 133.573 39.8852 133.057L39.1251 133.707L38.365 134.356C38.7388 134.794 39.0788 135.26 39.3811 135.753L40.2332 135.229ZM37.7935 132.375L38.4433 131.615C37.927 131.173 37.3757 130.772 36.794 130.415L36.2707 131.267L35.7474 132.119C36.2397 132.421 36.7064 132.761 37.1437 133.135L37.7935 132.375ZM34.5935 130.411L34.9765 129.487C34.3525 129.228 33.7039 129.016 33.0352 128.856L32.8026 129.829L32.5699 130.802C33.1349 130.937 33.683 131.116 34.2104 131.334L34.5935 130.411ZM30.9424 129.536L31.0199 128.539C30.6832 128.513 30.343 128.5 30 128.5V129.5V130.5C30.2913 130.5 30.5798 130.511 30.865 130.533L30.9424 129.536ZM325 62.5V61.5C324.657 61.5 324.317 61.5133 323.98 61.5395L324.058 62.5365L324.135 63.5335C324.42 63.5113 324.709 63.5 325 63.5V62.5ZM322.197 62.829L321.965 61.8565C321.296 62.0164 320.648 62.2281 320.023 62.4868L320.407 63.4106L320.79 64.3343C321.317 64.1156 321.865 63.9368 322.43 63.8016L322.197 62.829ZM318.729 64.2668L318.206 63.4146C317.624 63.7718 317.073 64.1735 316.557 64.6148L317.207 65.3749L317.856 66.135C318.294 65.7612 318.76 65.4212 319.253 65.1189L318.729 64.2668ZM315.875 66.7065L315.115 66.0567C314.673 66.573 314.272 67.1243 313.915 67.706L314.767 68.2293L315.619 68.7526C315.921 68.2603 316.261 67.7936 316.635 67.3563L315.875 66.7065ZM313.911 69.9065L312.987 69.5235C312.728 70.1475 312.516 70.7961 312.356 71.4648L313.329 71.6974L314.302 71.9301C314.437 71.3651 314.616 70.817 314.834 70.2896L313.911 69.9065ZM313.036 73.5576L312.039 73.4801C312.013 73.8168 312 74.157 312 74.5H313H314C314 74.2087 314.011 73.9202 314.033 73.635L313.036 73.5576ZM313 74.5H312C312 74.843 312.013 75.1832 312.039 75.5199L313.036 75.4424L314.033 75.365C314.011 75.0798 314 74.7913 314 74.5H313ZM313.329 77.3026L312.356 77.5352C312.516 78.2039 312.728 78.8525 312.987 79.4765L313.911 79.0935L314.834 78.7104C314.616 78.183 314.437 77.6349 314.302 77.0699L313.329 77.3026ZM314.767 80.7707L313.915 81.294C314.272 81.8757 314.673 82.427 315.115 82.9433L315.875 82.2935L316.635 81.6437C316.261 81.2064 315.921 80.7397 315.619 80.2474L314.767 80.7707ZM317.207 83.6251L316.557 84.3852C317.073 84.8265 317.624 85.2282 318.206 85.5854L318.729 84.7332L319.253 83.8811C318.76 83.5788 318.294 83.2388 317.856 82.865L317.207 83.6251ZM320.407 85.5894L320.023 86.5132C320.648 86.7719 321.296 86.9836 321.965 87.1435L322.197 86.171L322.43 85.1984C321.865 85.0632 321.317 84.8844 320.79 84.6657L320.407 85.5894ZM324.058 86.4635L323.98 87.4605C324.317 87.4867 324.657 87.5 325 87.5V86.5V85.5C324.709 85.5 324.42 85.4887 324.135 85.4665L324.058 86.4635ZM325 86.5V87.5C325.343 87.5 325.683 87.4867 326.02 87.4605L325.942 86.4635L325.865 85.4665C325.58 85.4887 325.291 85.5 325 85.5V86.5ZM327.803 86.171L328.035 87.1435C328.704 86.9836 329.352 86.7719 329.977 86.5132L329.593 85.5894L329.21 84.6657C328.683 84.8844 328.135 85.0632 327.57 85.1984L327.803 86.171ZM331.271 84.7332L331.794 85.5854C332.376 85.2282 332.927 84.8265 333.443 84.3852L332.793 83.6251L332.144 82.865C331.706 83.2388 331.24 83.5788 330.747 83.8811L331.271 84.7332ZM334.125 82.2935L334.885 82.9433C335.327 82.427 335.728 81.8757 336.085 81.294L335.233 80.7707L334.381 80.2474C334.079 80.7397 333.739 81.2064 333.365 81.6437L334.125 82.2935ZM336.089 79.0935L337.013 79.4765C337.272 78.8525 337.484 78.2039 337.644 77.5352L336.671 77.3026L335.698 77.0699C335.563 77.6349 335.384 78.183 335.166 78.7104L336.089 79.0935ZM336.964 75.4424L337.961 75.5199C337.987 75.1832 338 74.843 338 74.5H337H336C336 74.7913 335.989 75.0798 335.967 75.365L336.964 75.4424ZM337 74.5H338C338 74.157 337.987 73.8168 337.961 73.4801L336.964 73.5576L335.967 73.635C335.989 73.9202 336 74.2087 336 74.5H337ZM336.671 71.6974L337.644 71.4648C337.484 70.7961 337.272 70.1475 337.013 69.5235L336.089 69.9065L335.166 70.2896C335.384 70.817 335.563 71.3651 335.698 71.9301L336.671 71.6974ZM335.233 68.2293L336.085 67.706C335.728 67.1243 335.327 66.573 334.885 66.0567L334.125 66.7065L333.365 67.3563C333.739 67.7936 334.079 68.2603 334.381 68.7526L335.233 68.2293ZM332.793 65.3749L333.443 64.6148C332.927 64.1735 332.376 63.7718 331.794 63.4146L331.271 64.2668L330.747 65.1189C331.24 65.4212 331.706 65.7612 332.144 66.135L332.793 65.3749ZM329.593 63.4106L329.977 62.4868C329.352 62.2281 328.704 62.0164 328.035 61.8565L327.803 62.829L327.57 63.8016C328.135 63.9368 328.683 64.1156 329.21 64.3343L329.593 63.4106ZM325.942 62.5365L326.02 61.5395C325.683 61.5133 325.343 61.5 325 61.5V62.5V63.5C325.291 63.5 325.58 63.5113 325.865 63.5335L325.942 62.5365Z" fill="#4B4B4B" mask="url(#path-1-outside-1_2681_2925)"/>
</svg>
