<svg width="67" height="366" viewBox="0 0 67 366" fill="none" xmlns="http://www.w3.org/2000/svg">
<circle cx="33.5" cy="182.5" r="33" stroke="#FF4000"/>
<path d="M33.5 163.5C42.6805 163.5 50.9672 165.612 56.9414 169C62.9304 172.397 66.5 177.012 66.5 182C66.5 186.988 62.9304 191.603 56.9414 195C50.9672 198.388 42.6805 200.5 33.5 200.5C24.3195 200.5 16.0328 198.388 10.0586 195C4.0696 191.603 0.5 186.988 0.5 182C0.5 177.012 4.0696 172.397 10.0586 169C16.0328 165.612 24.3195 163.5 33.5 163.5Z" stroke="#FF4000"/>
<path d="M1 182.5H67" stroke="#FF4000"/>
<path d="M34 10H44V11H34V21H33V11H23V10H33V0H34V10Z" fill="#4B4B4B"/>
<path d="M34 355H44V356H34V366H33V356H23V355H33V345H34V355Z" fill="#4B4B4B"/>
</svg>
