<svg width="1540" height="605" viewBox="0 0 1540 605" fill="none" xmlns="http://www.w3.org/2000/svg">
<path d="M851 604V601C851 589.954 859.954 581 871 581H1519C1530.05 581 1539 572.046 1539 561V21C1539 9.95431 1530.05 1 1519 1H21C9.95431 1 1 9.95431 1 21V561C1 572.046 9.95431 581 21 581H666C677.046 581 686 589.954 686 601V604" stroke="#FF4000" stroke-width="2"/>
<circle cx="770.5" cy="290.5" r="33" stroke="#FF4000"/>
<path d="M770.5 271.5C779.68 271.5 787.967 273.612 793.941 277C799.93 280.397 803.5 285.012 803.5 290C803.5 294.988 799.93 299.603 793.941 303C787.967 306.388 779.68 308.5 770.5 308.5C761.32 308.5 753.033 306.388 747.059 303C741.07 299.603 737.5 294.988 737.5 290C737.5 285.012 741.07 280.397 747.059 277C753.033 273.612 761.32 271.5 770.5 271.5Z" stroke="#FF4000"/>
<path d="M738 290.5H804" stroke="#FF4000"/>
<path d="M771 118H781V119H771V129H770V119H760V118H770V108H771V118Z" fill="#4B4B4B"/>
<path d="M771 463H781V464H771V474H770V464H760V463H770V453H771V463Z" fill="#4B4B4B"/>
<g clip-path="url(#clip0_2685_15682)">
<path d="M57.24 326H55.8V323.6H52.44V326H51V322.16V321.68V320.72H51.48V319.76H51.96V318.8H52.44V317.84H52.92V316.88H53.4V315.92H53.88V315.44H54.36V315.92H54.84V316.88H55.32V317.84H55.8V318.8H56.28V319.76H56.76V320.72H57.24V321.68V322.16V326ZM55.8 322.16V321.68V321.2H55.32V320.24H54.84V319.28H54.36V318.32H53.88V319.28H53.4V320.24H52.92V321.2H52.44V321.68V322.16H55.8ZM70.6863 323.6H70.2063V324.08H69.7263V324.56H69.2463V325.04H68.7663V325.52H68.2703V326H64.4462V315.44H68.2863V315.92H68.7663V316.4H69.2463V316.88H69.7263V317.36H70.2063V317.84H70.6863V323.6ZM69.2463 323.12V318.32H68.7663V317.84H68.2863V317.36H67.8063V316.88H65.8863V324.56H67.8063V324.08H68.2863V323.6H68.7663V323.12H69.2463ZM77.4094 326H71.1694V315.44H77.4094V316.88H72.6094V319.76H76.4494V321.2H72.6094V324.56H77.4094V326ZM84.1325 326H77.8925V315.44H84.1325V316.88H79.3325V319.76H83.1725V321.2H79.3325V324.56H84.1325V326ZM90.8556 320.24H90.3756V320.72H89.8956V321.2H89.4156V321.68H86.0556V326H84.6156V315.44H89.4156V315.92H89.8956V316.4H90.3756V316.88H90.8556V320.24ZM89.4156 319.76V317.36H88.9356V316.88H86.0556V320.24H88.9356V319.76H89.4156ZM96.6187 322.64H92.2987V321.2H96.6187V322.64ZM104.302 323.6H103.822V324.08H103.342V324.56H102.862V325.04H102.382V325.52H101.886V326H98.0619V315.44H101.902V315.92H102.382V316.4H102.862V316.88H103.342V317.36H103.822V317.84H104.302V323.6ZM102.862 323.12V318.32H102.382V317.84H101.902V317.36H101.422V316.88H99.5019V324.56H101.422V324.08H101.902V323.6H102.382V323.12H102.862ZM111.025 326H104.785V324.56H107.185V316.88H106.225V315.44H109.585V316.88H108.625V324.56H111.025V326ZM117.748 320.24H117.268V321.2H116.788V322.16H116.308V323.12H115.828V324.08H115.348V325.04H114.868V326H114.388V325.04H113.908V324.08H113.428V323.12H112.948V322.16H112.468V321.2H111.988V320.24H111.508V315.44H112.948V319.76H113.428V320.72H113.908V321.68H114.388V322.64H114.868V321.68H115.348V320.72H115.828V319.76H116.308V315.44H117.748V320.24ZM124.471 326H118.231V315.44H124.471V316.88H119.671V319.76H123.511V321.2H119.671V324.56H124.471V326ZM57.24 343.56H56.76V344.04H56.28V344.52H55.8V345H52.44V344.52H51.96V344.04H51.48V343.56H51V342.12H52.44V343.08H52.92V343.56H55.32V343.08H55.8V340.68H55.32V340.2H52.44V339.72H51.96V339.24H51.48V338.76H51V335.88H51.48V335.4H51.96V334.92H52.44V334.44H55.8V334.92H56.28V335.4H56.76V335.88H57.24V337.32H55.8V336.36H55.32V335.88H52.92V336.36H52.44V338.28H52.92V338.76H55.8V339.24H56.28V339.72H56.76V340.2H57.24V343.56ZM63.9631 345H57.7231V334.44H63.9631V335.88H59.1631V338.76H63.0031V340.2H59.1631V343.56H63.9631V345ZM70.6863 343.56H70.2063V344.04H69.7263V344.52H69.2463V345H65.8863V344.52H65.4062V344.04H64.9262V343.56H64.4462V342.12H65.8863V343.08H66.3663V343.56H68.7663V343.08H69.2463V340.68H68.7663V340.2H65.8863V339.72H65.4062V339.24H64.9262V338.76H64.4462V335.88H64.9262V335.4H65.4062V334.92H65.8863V334.44H69.2463V334.92H69.7263V335.4H70.2063V335.88H70.6863V337.32H69.2463V336.36H68.7663V335.88H66.3663V336.36H65.8863V338.28H66.3663V338.76H69.2463V339.24H69.7263V339.72H70.2063V340.2H70.6863V343.56ZM77.4094 343.56H76.9294V344.04H76.4494V344.52H75.9694V345H72.6094V344.52H72.1294V344.04H71.6494V343.56H71.1694V342.12H72.6094V343.08H73.0894V343.56H75.4894V343.08H75.9694V340.68H75.4894V340.2H72.6094V339.72H72.1294V339.24H71.6494V338.76H71.1694V335.88H71.6494V335.4H72.1294V334.92H72.6094V334.44H75.9694V334.92H76.4494V335.4H76.9294V335.88H77.4094V337.32H75.9694V336.36H75.4894V335.88H73.0894V336.36H72.6094V338.28H73.0894V338.76H75.9694V339.24H76.4494V339.72H76.9294V340.2H77.4094V343.56ZM84.1325 345H77.8925V343.56H80.2925V335.88H79.3325V334.44H82.6925V335.88H81.7325V343.56H84.1325V345ZM90.8556 343.08H90.3756V343.56H89.8956V344.04H89.4156V344.52H88.9356V345H86.5356V344.52H86.0556V344.04H85.5756V343.56H85.0956V343.08H84.6156V336.36H85.0956V335.88H85.5756V335.4H86.0556V334.92H86.5356V334.44H88.9356V334.92H89.4156V335.4H89.8956V335.88H90.3756V336.36H90.8556V343.08ZM89.4156 342.6V336.84H88.9356V336.36H88.4556V335.88H87.0156V336.36H86.5356V336.84H86.0556V342.6H86.5356V343.08H87.0156V343.56H88.4556V343.08H88.9356V342.6H89.4156ZM97.5787 345H96.1387V344.52H95.6587V343.56H95.1787V342.6H94.6987V341.64H94.2187V340.68H93.7387V339.72H93.2587V338.76H92.7787V345H91.3387V334.44H92.2987V335.4H92.7787V336.36H93.2587V337.32H93.7387V338.28H94.2187V339.24H94.6987V340.2H95.1787V341.16H95.6587V342.12H96.1387V334.44H97.5787V345ZM111.025 335.88H108.625V345H107.185V335.88H104.785V334.44H111.025V335.88ZM117.748 343.08H117.268V343.56H116.788V344.04H116.308V344.52H115.828V345H113.428V344.52H112.948V344.04H112.468V343.56H111.988V343.08H111.508V336.36H111.988V335.88H112.468V335.4H112.948V334.92H113.428V334.44H115.828V334.92H116.308V335.4H116.788V335.88H117.268V336.36H117.748V343.08ZM116.308 342.6V336.84H115.828V336.36H115.348V335.88H113.908V336.36H113.428V336.84H112.948V342.6H113.428V343.08H113.908V343.56H115.348V343.08H115.828V342.6H116.308ZM57.24 364H55.8V361.6H52.44V364H51V360.16V359.68V358.72H51.48V357.76H51.96V356.8H52.44V355.84H52.92V354.88H53.4V353.92H53.88V353.44H54.36V353.92H54.84V354.88H55.32V355.84H55.8V356.8H56.28V357.76H56.76V358.72H57.24V359.68V360.16V364ZM55.8 360.16V359.68V359.2H55.32V358.24H54.84V357.28H54.36V356.32H53.88V357.28H53.4V358.24H52.92V359.2H52.44V359.68V360.16H55.8ZM63.9631 364H57.7231V353.44H59.1631V362.56H63.9631V364ZM70.6863 364H64.4462V362.56H66.8463V354.88H65.8863V353.44H69.2463V354.88H68.2863V362.56H70.6863V364ZM77.4094 363.04H76.9294V363.52H76.4494V364H73.0894V363.52H72.6094V363.04H72.1294V362.56H71.6494V362.08H71.1694V355.36H71.6494V354.88H72.1294V354.4H72.6094V353.92H73.0894V353.44H76.4494V353.92H76.9294V354.4H77.4094V355.36H75.9694V354.88H73.5694V355.36H73.0894V355.84H72.6094V361.6H73.0894V362.08H73.5694V362.56H75.9694V359.68H75.4894V360.16H74.0494V358.24H77.4094V363.04ZM84.1325 364H82.6925V363.52H82.2125V362.56H81.7325V361.6H81.2525V360.64H80.7725V359.68H80.2925V358.72H79.8125V357.76H79.3325V364H77.8925V353.44H78.8525V354.4H79.3325V355.36H79.8125V356.32H80.2925V357.28H80.7725V358.24H81.2525V359.2H81.7325V360.16H82.2125V361.12H82.6925V353.44H84.1325V364ZM97.5787 362.08H97.0987V362.56H96.6187V363.04H96.1387V363.52H95.6587V364H93.2587V363.52H92.7787V363.04H92.2987V362.56H91.8187V362.08H91.3387V355.36H91.8187V354.88H92.2987V354.4H92.7787V353.92H93.2587V353.44H95.6587V353.92H96.1387V354.4H96.6187V354.88H97.0987V355.36H97.5787V362.08ZM96.1387 361.6V355.84H95.6587V355.36H95.1787V354.88H93.7387V355.36H93.2587V355.84H92.7787V361.6H93.2587V362.08H93.7387V362.56H95.1787V362.08H95.6587V361.6H96.1387ZM104.302 364H102.862V363.52H102.382V362.56H101.902V361.6H101.422V360.64H100.942V359.68H100.462V358.72H99.9819V357.76H99.5019V364H98.0619V353.44H99.0219V354.4H99.5019V355.36H99.9819V356.32H100.462V357.28H100.942V358.24H101.422V359.2H101.902V360.16H102.382V361.12H102.862V353.44H104.302V364ZM57.24 382.04H56.76V382.52H56.28V383H52.92V382.52H52.44V382.04H51.96V381.56H51.48V381.08H51V374.36H51.48V373.88H51.96V373.4H52.44V372.92H52.92V372.44H56.28V372.92H56.76V373.4H57.24V374.36H55.8V373.88H53.4V374.36H52.92V374.84H52.44V380.6H52.92V381.08H53.4V381.56H55.8V378.68H55.32V379.16H53.88V377.24H57.24V382.04ZM63.9631 381.08H63.4831V381.56H63.0031V382.04H62.5231V382.52H62.0431V383H59.6431V382.52H59.1631V382.04H58.6831V381.56H58.2031V381.08H57.7231V374.36H58.2031V373.88H58.6831V373.4H59.1631V372.92H59.6431V372.44H62.0431V372.92H62.5231V373.4H63.0031V373.88H63.4831V374.36H63.9631V381.08ZM62.5231 380.6V374.84H62.0431V374.36H61.5631V373.88H60.1231V374.36H59.6431V374.84H59.1631V380.6H59.6431V381.08H60.1231V381.56H61.5631V381.08H62.0431V380.6H62.5231ZM70.6863 383H69.2463V380.6H65.8863V383H64.4462V379.16V378.68V377.72H64.9262V376.76H65.4062V375.8H65.8863V374.84H66.3663V373.88H66.8463V372.92H67.3263V372.44H67.8063V372.92H68.2863V373.88H68.7663V374.84H69.2463V375.8H69.7263V376.76H70.2063V377.72H70.6863V378.68V379.16V383ZM69.2463 379.16V378.68V378.2H68.7663V377.24H68.2863V376.28H67.8063V375.32H67.3263V376.28H66.8463V377.24H66.3663V378.2H65.8863V378.68V379.16H69.2463ZM77.4094 383H71.1694V372.44H72.6094V381.56H77.4094V383ZM84.1325 381.56H83.6525V382.04H83.1725V382.52H82.6925V383H79.3325V382.52H78.8525V382.04H78.3725V381.56H77.8925V380.12H79.3325V381.08H79.8125V381.56H82.2125V381.08H82.6925V378.68H82.2125V378.2H79.3325V377.72H78.8525V377.24H78.3725V376.76H77.8925V373.88H78.3725V373.4H78.8525V372.92H79.3325V372.44H82.6925V372.92H83.1725V373.4H83.6525V373.88H84.1325V375.32H82.6925V374.36H82.2125V373.88H79.8125V374.36H79.3325V376.28H79.8125V376.76H82.6925V377.24H83.1725V377.72H83.6525V378.2H84.1325V381.56ZM87.0156 383.96H87.4956V383H86.5356V381.08H88.4556V383.96H87.9756V384.44H87.0156V383.96ZM57.24 400.56H56.76V401.04H56.28V401.52H55.8V402H52.92V401.52H52.44V401.04H51.96V400.56H51.48V400.08H51V393.36H51.48V392.88H51.96V392.4H52.44V391.92H52.92V391.44H55.8V391.92H56.28V392.4H56.76V392.88H57.24V394.32H55.8V393.36H55.32V392.88H53.4V393.36H52.92V393.84H52.44V399.6H52.92V400.08H53.4V400.56H55.32V400.08H55.8V399.12H57.24V400.56ZM63.9631 400.08H63.4831V400.56H63.0031V401.04H62.5231V401.52H62.0431V402H59.6431V401.52H59.1631V401.04H58.6831V400.56H58.2031V400.08H57.7231V393.36H58.2031V392.88H58.6831V392.4H59.1631V391.92H59.6431V391.44H62.0431V391.92H62.5231V392.4H63.0031V392.88H63.4831V393.36H63.9631V400.08ZM62.5231 399.6V393.84H62.0431V393.36H61.5631V392.88H60.1231V393.36H59.6431V393.84H59.1631V399.6H59.6431V400.08H60.1231V400.56H61.5631V400.08H62.0431V399.6H62.5231ZM70.6863 402H69.2463V401.52H68.7663V400.56H68.2863V399.6H67.8063V398.64H67.3263V397.68H66.8463V396.72H66.3663V395.76H65.8863V402H64.4462V391.44H65.4062V392.4H65.8863V393.36H66.3663V394.32H66.8463V395.28H67.3263V396.24H67.8063V397.2H68.2863V398.16H68.7663V399.12H69.2463V391.44H70.6863V402ZM77.4094 400.56H76.9294V401.04H76.4494V401.52H75.9694V402H72.6094V401.52H72.1294V401.04H71.6494V400.56H71.1694V399.12H72.6094V400.08H73.0894V400.56H75.4894V400.08H75.9694V397.68H75.4894V397.2H72.6094V396.72H72.1294V396.24H71.6494V395.76H71.1694V392.88H71.6494V392.4H72.1294V391.92H72.6094V391.44H75.9694V391.92H76.4494V392.4H76.9294V392.88H77.4094V394.32H75.9694V393.36H75.4894V392.88H73.0894V393.36H72.6094V395.28H73.0894V395.76H75.9694V396.24H76.4494V396.72H76.9294V397.2H77.4094V400.56ZM84.1325 392.88H81.7325V402H80.2925V392.88H77.8925V391.44H84.1325V392.88ZM90.8556 402H89.4156V400.08H88.9356V399.12H88.4556V398.16H87.9756V397.2H86.0556V402H84.6156V391.44H89.4156V391.92H89.8956V392.4H90.3756V392.88H90.8556V395.76H90.3756V396.24H89.8956V396.72H89.4156V397.68H89.8956V398.64H90.3756V399.6H90.8556V402ZM89.4156 395.28V393.36H88.9356V392.88H86.0556V395.76H88.9356V395.28H89.4156ZM97.5787 402H96.1387V399.6H92.7787V402H91.3387V398.16V397.68V396.72H91.8187V395.76H92.2987V394.8H92.7787V393.84H93.2587V392.88H93.7387V391.92H94.2187V391.44H94.6987V391.92H95.1787V392.88H95.6587V393.84H96.1387V394.8H96.6187V395.76H97.0987V396.72H97.5787V397.68V398.16V402ZM96.1387 398.16V397.68V397.2H95.6587V396.24H95.1787V395.28H94.6987V394.32H94.2187V395.28H93.7387V396.24H93.2587V397.2H92.7787V397.68V398.16H96.1387ZM104.302 402H98.0619V400.56H100.462V392.88H99.5019V391.44H102.862V392.88H101.902V400.56H104.302V402ZM111.025 402H109.585V401.52H109.105V400.56H108.625V399.6H108.145V398.64H107.665V397.68H107.185V396.72H106.705V395.76H106.225V402H104.785V391.44H105.745V392.4H106.225V393.36H106.705V394.32H107.185V395.28H107.665V396.24H108.145V397.2H108.625V398.16H109.105V399.12H109.585V391.44H111.025V402ZM117.748 392.88H115.348V402H113.908V392.88H111.508V391.44H117.748V392.88ZM124.471 400.56H123.991V401.04H123.511V401.52H123.031V402H119.671V401.52H119.191V401.04H118.711V400.56H118.231V399.12H119.671V400.08H120.151V400.56H122.551V400.08H123.031V397.68H122.551V397.2H119.671V396.72H119.191V396.24H118.711V395.76H118.231V392.88H118.711V392.4H119.191V391.92H119.671V391.44H123.031V391.92H123.511V392.4H123.991V392.88H124.471V394.32H123.031V393.36H122.551V392.88H120.151V393.36H119.671V395.28H120.151V395.76H123.031V396.24H123.511V396.72H123.991V397.2H124.471V400.56ZM127.354 402.96H127.834V402H126.874V400.08H128.794V402.96H128.314V403.44H127.354V402.96ZM57.24 421H55.8V418.6H52.44V421H51V417.16V416.68V415.72H51.48V414.76H51.96V413.8H52.44V412.84H52.92V411.88H53.4V410.92H53.88V410.44H54.36V410.92H54.84V411.88H55.32V412.84H55.8V413.8H56.28V414.76H56.76V415.72H57.24V416.68V417.16V421ZM55.8 417.16V416.68V416.2H55.32V415.24H54.84V414.28H54.36V413.32H53.88V414.28H53.4V415.24H52.92V416.2H52.44V416.68V417.16H55.8ZM63.9631 421H62.5231V420.52H62.0431V419.56H61.5631V418.6H61.0831V417.64H60.6031V416.68H60.1231V415.72H59.6431V414.76H59.1631V421H57.7231V410.44H58.6831V411.4H59.1631V412.36H59.6431V413.32H60.1231V414.28H60.6031V415.24H61.0831V416.2H61.5631V417.16H62.0431V418.12H62.5231V410.44H63.9631V421ZM70.6863 418.6H70.2063V419.08H69.7263V419.56H69.2463V420.04H68.7663V420.52H68.2703V421H64.4462V410.44H68.2863V410.92H68.7663V411.4H69.2463V411.88H69.7263V412.36H70.2063V412.84H70.6863V418.6ZM69.2463 418.12V413.32H68.7663V412.84H68.2863V412.36H67.8063V411.88H65.8863V419.56H67.8063V419.08H68.2863V418.6H68.7663V418.12H69.2463ZM84.1325 421H82.6925V419.08H82.2125V418.12H81.7325V417.16H81.2525V416.2H79.3325V421H77.8925V410.44H82.6925V410.92H83.1725V411.4H83.6525V411.88H84.1325V414.76H83.6525V415.24H83.1725V415.72H82.6925V416.68H83.1725V417.64H83.6525V418.6H84.1325V421ZM82.6925 414.28V412.36H82.2125V411.88H79.3325V414.76H82.2125V414.28H82.6925ZM90.8556 421H84.6156V419.56H87.0156V411.88H86.0556V410.44H89.4156V411.88H88.4556V419.56H90.8556V421ZM97.5787 419.56H97.0987V420.04H96.6187V420.52H96.1387V421H92.7787V420.52H92.2987V420.04H91.8187V419.56H91.3387V418.12H92.7787V419.08H93.2587V419.56H95.6587V419.08H96.1387V416.68H95.6587V416.2H92.7787V415.72H92.2987V415.24H91.8187V414.76H91.3387V411.88H91.8187V411.4H92.2987V410.92H92.7787V410.44H96.1387V410.92H96.6187V411.4H97.0987V411.88H97.5787V413.32H96.1387V412.36H95.6587V411.88H93.2587V412.36H92.7787V414.28H93.2587V414.76H96.1387V415.24H96.6187V415.72H97.0987V416.2H97.5787V419.56ZM104.302 421H102.862V420.04H102.382V419.08H101.902V418.12H101.422V417.16H100.942V416.2H99.9819V416.68H99.5019V421H98.0619V410.44H99.5019V414.76H99.9819V414.28H100.462V413.8H100.942V413.32H101.422V412.84H101.902V412.36H102.382V411.864H102.862V411.4H103.342V410.92H103.822V410.44H104.302V412.36H103.822V412.84H103.342V413.32H102.862V413.784H102.382V414.28H101.902V414.76H101.422V415.24H101.902V415.72H102.382V416.68H102.862V417.64H103.342V418.6H103.822V419.56H104.302V421ZM111.025 419.56H110.545V420.04H110.065V420.52H109.585V421H106.225V420.52H105.745V420.04H105.265V419.56H104.785V418.12H106.225V419.08H106.705V419.56H109.105V419.08H109.585V416.68H109.105V416.2H106.225V415.72H105.745V415.24H105.265V414.76H104.785V411.88H105.265V411.4H105.745V410.92H106.225V410.44H109.585V410.92H110.065V411.4H110.545V411.88H111.025V413.32H109.585V412.36H109.105V411.88H106.705V412.36H106.225V414.28H106.705V414.76H109.585V415.24H110.065V415.72H110.545V416.2H111.025V419.56Z" fill="#D9D9D9"/>
<path d="M57.24 250H51V248.56H53.4V240.88H52.44V239.44H55.8V240.88H54.84V248.56H57.24V250ZM63.9631 247.6H63.4831V248.08H63.0031V248.56H62.5231V249.04H62.0431V249.52H61.5471V250H57.7231V239.44H61.5631V239.92H62.0431V240.4H62.5231V240.88H63.0031V241.36H63.4831V241.84H63.9631V247.6ZM62.5231 247.12V242.32H62.0431V241.84H61.5631V241.36H61.0831V240.88H59.1631V248.56H61.0831V248.08H61.5631V247.6H62.0431V247.12H62.5231ZM68.2863 250H66.3663V248.08H68.2863V250ZM77.4094 250H71.1694V248.56H73.5694V240.88H72.1294V239.44H75.0094V248.56H77.4094V250ZM81.7325 250H79.8125V248.08H81.7325V250ZM90.8556 248.08H90.3756V248.56H89.8956V249.04H89.4156V249.52H88.9356V250H86.5356V249.52H86.0556V249.04H85.5756V248.56H85.0956V248.08H84.6156V241.36H85.0956V240.88H85.5756V240.4H86.0556V239.92H86.5356V239.44H88.9356V239.92H89.4156V240.4H89.8956V240.88H90.3756V241.36H90.8556V248.08ZM88.9356 241.84V241.36V240.88H86.5356V241.36H86.0556V246.64H86.5356V245.68H87.0156V244.72H87.4956V243.76H87.9756V242.8H88.4556V241.84H88.9356ZM89.4156 248.08V243.28H88.9356V244.24H88.4556V245.2H87.9756V246.16H87.4956V247.12H87.0156V248.08H86.5356V248.56H88.9356V248.08H89.4156ZM97.5787 248.08H97.0987V248.56H96.6187V249.04H96.1387V249.52H95.6587V250H93.2587V249.52H92.7787V249.04H92.2987V248.56H91.8187V248.08H91.3387V241.36H91.8187V240.88H92.2987V240.4H92.7787V239.92H93.2587V239.44H95.6587V239.92H96.1387V240.4H96.6187V240.88H97.0987V241.36H97.5787V248.08ZM95.6587 241.84V241.36V240.88H93.2587V241.36H92.7787V246.64H93.2587V245.68H93.7387V244.72H94.2187V243.76H94.6987V242.8H95.1787V241.84H95.6587ZM96.1387 248.08V243.28H95.6587V244.24H95.1787V245.2H94.6987V246.16H94.2187V247.12H93.7387V248.08H93.2587V248.56H95.6587V248.08H96.1387ZM104.302 250H98.0619V248.56H100.462V240.88H99.0219V239.44H101.902V248.56H104.302V250Z" fill="#4B4B4B"/>
<rect x="34" y="222" width="6" height="6" fill="#4B4B4B"/>
<rect x="138" y="239" width="4" height="4" fill="#4B4B4B"/>
<rect x="146" y="239" width="4" height="4" fill="#4B4B4B"/>
<rect x="142" y="243" width="4" height="4" fill="#4B4B4B"/>
<rect x="138" y="247" width="4" height="4" fill="#4B4B4B"/>
<rect x="146" y="247" width="4" height="4" fill="#4B4B4B"/>
<rect x="161" y="222" width="6" height="6" fill="#4B4B4B"/>
<rect x="34" y="435" width="6" height="6" fill="#4B4B4B"/>
<rect x="161" y="435" width="6" height="6" fill="#4B4B4B"/>
</g>
<rect x="34.5" y="222.5" width="132" height="218" stroke="#4B4B4B"/>
<g clip-path="url(#clip1_2685_15682)">
<path d="M205.24 364H204.28V363.52H203.8H203.32V364H200.92V363.52H200.44V363.04H199.96V362.56H199.48V362.08H199V355.36H199.48V354.88H199.96V354.4H200.44V353.92H200.92V353.44H203.32V353.92H203.8V354.4H204.28V354.88H204.76V355.36H205.24V362.08H204.76V362.56V363.04H205.24V364ZM203.8 361.6V355.84H203.32V355.36H202.84V354.88H201.4V355.36H200.92V355.84H200.44V361.6H200.92V362.08H201.4V362.56H202.84V362.08H202.36V361.6H201.88V361.12H201.4V360.64H201.88H202.36H202.84V361.12H203.32V361.6H203.8ZM211.963 362.56H211.483V363.04H211.003V363.52H210.523V364H207.163V363.52H206.683V363.04H206.203V362.56H205.723V353.44H207.163V362.08H207.643V362.56H210.043V362.08H210.523V353.44H211.963V362.56ZM218.686 364H212.446V362.56H214.846V354.88H213.886V353.44H217.246V354.88H216.286V362.56H218.686V364ZM225.409 362.56H224.929V363.04H224.449V363.52H223.969V364H221.089V363.52H220.609V363.04H220.129V362.56H219.649V362.08H219.169V355.36H219.649V354.88H220.129V354.4H220.609V353.92H221.089V353.44H223.969V353.92H224.449V354.4H224.929V354.88H225.409V356.32H223.969V355.36H223.489V354.88H221.569V355.36H221.089V355.84H220.609V361.6H221.089V362.08H221.569V362.56H223.489V362.08H223.969V361.12H225.409V362.56ZM232.133 364H230.693V363.04H230.213V362.08H229.733V361.12H229.253V360.16H228.773V359.2H227.812V359.68H227.332V364H225.892V353.44H227.332V357.76H227.812V357.28H228.293V356.8H228.773V356.32H229.253V355.84H229.733V355.36H230.213V354.864H230.693V354.4H231.173V353.92H231.653V353.44H232.133V355.36H231.653V355.84H231.173V356.32H230.693V356.784H230.213V357.28H229.733V357.76H229.253V358.24H229.733V358.72H230.213V359.68H230.693V360.64H231.173V361.6H231.653V362.56H232.133V364ZM245.579 354.88H243.179V364H241.739V354.88H239.339V353.44H245.579V354.88ZM252.302 364H246.062V353.44H252.302V354.88H247.502V357.76H251.342V359.2H247.502V362.56H252.302V364ZM259.025 362.56H258.545V363.04H258.065V363.52H257.585V364H254.705V363.52H254.225V363.04H253.745V362.56H253.265V362.08H252.785V355.36H253.265V354.88H253.745V354.4H254.225V353.92H254.705V353.44H257.585V353.92H258.065V354.4H258.545V354.88H259.025V356.32H257.585V355.36H257.105V354.88H255.185V355.36H254.705V355.84H254.225V361.6H254.705V362.08H255.185V362.56H257.105V362.08H257.585V361.12H259.025V362.56ZM265.748 364H264.308V359.2H260.948V364H259.508V353.44H260.948V357.76H264.308V353.44H265.748V364ZM205.24 383H203.8V380.6H200.44V383H199V379.16V378.68V377.72H199.48V376.76H199.96V375.8H200.44V374.84H200.92V373.88H201.4V372.92H201.88V372.44H202.36V372.92H202.84V373.88H203.32V374.84H203.8V375.8H204.28V376.76H204.76V377.72H205.24V378.68V379.16V383ZM203.8 379.16V378.68V378.2H203.32V377.24H202.84V376.28H202.36V375.32H201.88V376.28H201.4V377.24H200.92V378.2H200.44V378.68V379.16H203.8ZM211.963 381.56H211.483V382.04H211.003V382.52H210.523V383H207.163V382.52H206.683V382.04H206.203V381.56H205.723V372.44H207.163V381.08H207.643V381.56H210.043V381.08H210.523V372.44H211.963V381.56ZM218.686 380.6H218.206V381.08H217.726V381.56H217.246V382.04H216.766V382.52H216.27V383H212.446V372.44H216.286V372.92H216.766V373.4H217.246V373.88H217.726V374.36H218.206V374.84H218.686V380.6ZM217.246 380.12V375.32H216.766V374.84H216.286V374.36H215.806V373.88H213.886V381.56H215.806V381.08H216.286V380.6H216.766V380.12H217.246ZM225.409 383H219.169V381.56H221.569V373.88H220.609V372.44H223.969V373.88H223.009V381.56H225.409V383ZM232.133 373.88H229.733V383H228.293V373.88H225.892V372.44H232.133V373.88ZM238.856 381.56H238.376V382.04H237.896V382.52H237.416V383H234.056V382.52H233.576V382.04H233.096V381.56H232.616V380.12H234.056V381.08H234.536V381.56H236.936V381.08H237.416V378.68H236.936V378.2H234.056V377.72H233.576V377.24H233.096V376.76H232.616V373.88H233.096V373.4H233.576V372.92H234.056V372.44H237.416V372.92H237.896V373.4H238.376V373.88H238.856V375.32H237.416V374.36H236.936V373.88H234.536V374.36H234.056V376.28H234.536V376.76H237.416V377.24H237.896V377.72H238.376V378.2H238.856V381.56ZM205.24 400.08H204.76V400.56H204.28V401.04H203.8V401.52H203.32V402H200.92V401.52H200.44V401.04H199.96V400.56H199.48V400.08H199V393.36H199.48V392.88H199.96V392.4H200.44V391.92H200.92V391.44H203.32V391.92H203.8V392.4H204.28V392.88H204.76V393.36H205.24V400.08ZM203.8 399.6V393.84H203.32V393.36H202.84V392.88H201.4V393.36H200.92V393.84H200.44V399.6H200.92V400.08H201.4V400.56H202.84V400.08H203.32V399.6H203.8ZM211.963 402H210.523V400.08H210.043V399.12H209.563V398.16H209.083V397.2H207.163V402H205.723V391.44H210.523V391.92H211.003V392.4H211.483V392.88H211.963V395.76H211.483V396.24H211.003V396.72H210.523V397.68H211.003V398.64H211.483V399.6H211.963V402ZM210.523 395.28V393.36H210.043V392.88H207.163V395.76H210.043V395.28H210.523ZM225.409 392.88H220.609V395.76H223.969V397.2H220.609V402H219.169V391.44H225.409V392.88ZM232.133 402H225.892V391.44H232.133V392.88H227.332V395.76H231.173V397.2H227.332V400.56H232.133V402ZM238.856 402H237.416V399.6H234.056V402H232.616V398.16V397.68V396.72H233.096V395.76H233.576V394.8H234.056V393.84H234.536V392.88H235.016V391.92H235.496V391.44H235.976V391.92H236.456V392.88H236.936V393.84H237.416V394.8H237.896V395.76H238.376V396.72H238.856V397.68V398.16V402ZM237.416 398.16V397.68V397.2H236.936V396.24H236.456V395.28H235.976V394.32H235.496V395.28H235.016V396.24H234.536V397.2H234.056V397.68V398.16H237.416ZM245.579 400.56H245.099V401.04H244.619V401.52H244.139V402H240.779V401.52H240.299V401.04H239.819V400.56H239.339V399.12H240.779V400.08H241.259V400.56H243.659V400.08H244.139V397.68H243.659V397.2H240.779V396.72H240.299V396.24H239.819V395.76H239.339V392.88H239.819V392.4H240.299V391.92H240.779V391.44H244.139V391.92H244.619V392.4H245.099V392.88H245.579V394.32H244.139V393.36H243.659V392.88H241.259V393.36H240.779V395.28H241.259V395.76H244.139V396.24H244.619V396.72H245.099V397.2H245.579V400.56ZM252.302 402H246.062V400.56H248.462V392.88H247.502V391.44H250.862V392.88H249.902V400.56H252.302V402ZM259.025 400.56H258.545V401.04H258.065V401.52H257.585V402H252.785V391.44H257.585V391.92H258.065V392.4H258.545V392.88H259.025V395.28H258.545V395.76H258.065V396.24H257.585V396.72H258.065V397.2H258.545V397.68H259.025V400.56ZM257.585 394.8V393.36H257.105V392.88H254.225V395.76H256.625V395.28H257.105V394.8H257.585ZM257.585 400.08V398.16H257.105V397.68H256.625V397.2H254.225V400.56H257.105V400.08H257.585ZM265.748 402H259.508V400.56H261.908V392.88H260.948V391.44H264.308V392.88H263.348V400.56H265.748V402ZM272.471 402H266.231V391.44H267.671V400.56H272.471V402ZM279.194 402H272.954V400.56H275.354V392.88H274.394V391.44H277.754V392.88H276.794V400.56H279.194V402ZM285.917 392.88H283.517V402H282.077V392.88H279.677V391.44H285.917V392.88ZM292.641 392.88H292.161V393.84H291.681V394.8H291.201V395.76H290.721V396.72H290.241V402H288.801V396.72H288.321V395.76H287.841V394.8H287.361V393.84H286.881V392.88H286.401V391.44H287.841V392.4H288.321V393.36H288.801V394.32H289.281V395.28H289.761V394.32H290.241V393.36H290.721V392.4H291.201V391.44H292.641V392.88ZM205.24 419.56H204.76V420.04H204.28V420.52H203.8V421H200.92V420.52H200.44V420.04H199.96V419.56H199.48V419.08H199V412.36H199.48V411.88H199.96V411.4H200.44V410.92H200.92V410.44H203.8V410.92H204.28V411.4H204.76V411.88H205.24V413.32H203.8V412.36H203.32V411.88H201.4V412.36H200.92V412.84H200.44V418.6H200.92V419.08H201.4V419.56H203.32V419.08H203.8V418.12H205.24V419.56ZM211.963 421H210.523V416.2H207.163V421H205.723V410.44H207.163V414.76H210.523V410.44H211.963V421ZM218.686 421H212.446V410.44H218.686V411.88H213.886V414.76H217.726V416.2H213.886V419.56H218.686V421ZM225.409 419.56H224.929V420.04H224.449V420.52H223.969V421H221.089V420.52H220.609V420.04H220.129V419.56H219.649V419.08H219.169V412.36H219.649V411.88H220.129V411.4H220.609V410.92H221.089V410.44H223.969V410.92H224.449V411.4H224.929V411.88H225.409V413.32H223.969V412.36H223.489V411.88H221.569V412.36H221.089V412.84H220.609V418.6H221.089V419.08H221.569V419.56H223.489V419.08H223.969V418.12H225.409V419.56ZM232.133 421H230.693V420.04H230.213V419.08H229.733V418.12H229.253V417.16H228.773V416.2H227.812V416.68H227.332V421H225.892V410.44H227.332V414.76H227.812V414.28H228.293V413.8H228.773V413.32H229.253V412.84H229.733V412.36H230.213V411.864H230.693V411.4H231.173V410.92H231.653V410.44H232.133V412.36H231.653V412.84H231.173V413.32H230.693V413.784H230.213V414.28H229.733V414.76H229.253V415.24H229.733V415.72H230.213V416.68H230.693V417.64H231.173V418.6H231.653V419.56H232.133V421ZM238.856 419.56H238.376V420.04H237.896V420.52H237.416V421H234.056V420.52H233.576V420.04H233.096V419.56H232.616V418.12H234.056V419.08H234.536V419.56H236.936V419.08H237.416V416.68H236.936V416.2H234.056V415.72H233.576V415.24H233.096V414.76H232.616V411.88H233.096V411.4H233.576V410.92H234.056V410.44H237.416V410.92H237.896V411.4H238.376V411.88H238.856V413.32H237.416V412.36H236.936V411.88H234.536V412.36H234.056V414.28H234.536V414.76H237.416V415.24H237.896V415.72H238.376V416.2H238.856V419.56Z" fill="#D9D9D9"/>
<path d="M205.24 250H199V248.56H201.4V240.88H200.44V239.44H203.8V240.88H202.84V248.56H205.24V250ZM211.963 247.6H211.483V248.08H211.003V248.56H210.523V249.04H210.043V249.52H209.547V250H205.723V239.44H209.563V239.92H210.043V240.4H210.523V240.88H211.003V241.36H211.483V241.84H211.963V247.6ZM210.523 247.12V242.32H210.043V241.84H209.563V241.36H209.083V240.88H207.163V248.56H209.083V248.08H209.563V247.6H210.043V247.12H210.523ZM216.286 250H214.366V248.08H216.286V250ZM225.409 250H219.169V248.56H221.569V240.88H220.129V239.44H223.009V248.56H225.409V250ZM229.733 250H227.812V248.08H229.733V250ZM238.856 248.08H238.376V248.56H237.896V249.04H237.416V249.52H236.936V250H234.536V249.52H234.056V249.04H233.576V248.56H233.096V248.08H232.616V241.36H233.096V240.88H233.576V240.4H234.056V239.92H234.536V239.44H236.936V239.92H237.416V240.4H237.896V240.88H238.376V241.36H238.856V248.08ZM236.936 241.84V241.36V240.88H234.536V241.36H234.056V246.64H234.536V245.68H235.016V244.72H235.496V243.76H235.976V242.8H236.456V241.84H236.936ZM237.416 248.08V243.28H236.936V244.24H236.456V245.2H235.976V246.16H235.496V247.12H235.016V248.08H234.536V248.56H236.936V248.08H237.416ZM245.579 248.08H245.099V248.56H244.619V249.04H244.139V249.52H243.659V250H241.259V249.52H240.779V249.04H240.299V248.56H239.819V248.08H239.339V241.36H239.819V240.88H240.299V240.4H240.779V239.92H241.259V239.44H243.659V239.92H244.139V240.4H244.619V240.88H245.099V241.36H245.579V248.08ZM243.659 241.84V241.36V240.88H241.259V241.36H240.779V246.64H241.259V245.68H241.739V244.72H242.219V243.76H242.699V242.8H243.179V241.84H243.659ZM244.139 248.08V243.28H243.659V244.24H243.179V245.2H242.699V246.16H242.219V247.12H241.739V248.08H241.259V248.56H243.659V248.08H244.139ZM252.302 250H246.062V246.16H246.542V245.68H247.022V245.2H247.502V244.72H247.982V244.24H249.902V243.76H250.382V243.28H250.862V241.36H250.382V240.88H247.982V241.36H247.502V242.32H246.062V240.88H246.542V240.4H247.022V239.92H247.502V239.44H250.862V239.92H251.342V240.4H251.822V240.88H252.302V243.76H251.822V244.24H251.342V244.72H250.862V245.2H250.382V245.68H248.462V246.16H247.982V246.64H247.502V248.56H252.302V250Z" fill="#4B4B4B"/>
<rect x="182" y="222" width="6" height="6" fill="#4B4B4B"/>
<rect x="309" y="222" width="6" height="6" fill="#4B4B4B"/>
<rect x="182" y="435" width="6" height="6" fill="#4B4B4B"/>
<rect x="309" y="435" width="6" height="6" fill="#4B4B4B"/>
<rect x="290" y="239" width="4" height="4" fill="#4B4B4B"/>
<rect x="294" y="247" width="4" height="4" fill="#4B4B4B"/>
<rect x="294" y="243" width="4" height="4" fill="#4B4B4B"/>
<rect x="286" y="243" width="4" height="4" fill="#4B4B4B"/>
<rect x="290" y="247" width="4" height="4" fill="#4B4B4B"/>
</g>
<rect x="182.5" y="222.5" width="132" height="218" stroke="#4B4B4B"/>
<g clip-path="url(#clip2_2685_15682)">
<path d="M353.24 364H351.8V359.2H348.44V364H347V353.44H348.44V357.76H351.8V353.44H353.24V364ZM359.963 362.08H359.483V362.56H359.003V363.04H358.523V363.52H358.043V364H355.643V363.52H355.163V363.04H354.683V362.56H354.203V362.08H353.723V355.36H354.203V354.88H354.683V354.4H355.163V353.92H355.643V353.44H358.043V353.92H358.523V354.4H359.003V354.88H359.483V355.36H359.963V362.08ZM358.523 361.6V355.84H358.043V355.36H357.563V354.88H356.123V355.36H355.643V355.84H355.163V361.6H355.643V362.08H356.123V362.56H357.563V362.08H358.043V361.6H358.523ZM366.686 364H365.246V363.52H364.766V362.56H364.286V361.6H363.806V360.64H363.326V359.68H362.846V358.72H362.366V357.76H361.886V364H360.446V353.44H361.406V354.4H361.886V355.36H362.366V356.32H362.846V357.28H363.326V358.24H363.806V359.2H364.286V360.16H364.766V361.12H365.246V353.44H366.686V364ZM373.409 364H367.169V353.44H373.409V354.88H368.609V357.76H372.449V359.2H368.609V362.56H373.409V364ZM380.133 362.56H379.653V363.04H379.173V363.52H378.693V364H375.332V363.52H374.852V363.04H374.372V362.56H373.892V361.12H375.332V362.08H375.812V362.56H378.213V362.08H378.693V359.68H378.213V359.2H375.332V358.72H374.852V358.24H374.372V357.76H373.892V354.88H374.372V354.4H374.852V353.92H375.332V353.44H378.693V353.92H379.173V354.4H379.653V354.88H380.133V356.32H378.693V355.36H378.213V354.88H375.812V355.36H375.332V357.28H375.812V357.76H378.693V358.24H379.173V358.72H379.653V359.2H380.133V362.56ZM386.856 354.88H384.456V364H383.016V354.88H380.616V353.44H386.856V354.88ZM400.302 364H394.062V362.56H396.462V354.88H395.502V353.44H398.862V354.88H397.902V362.56H400.302V364ZM407.025 364H405.585V363.52H405.105V362.56H404.625V361.6H404.145V360.64H403.665V359.68H403.185V358.72H402.705V357.76H402.225V364H400.785V353.44H401.745V354.4H402.225V355.36H402.705V356.32H403.185V357.28H403.665V358.24H404.145V359.2H404.625V360.16H405.105V361.12H405.585V353.44H407.025V364ZM413.748 358.24H413.268V358.72H412.788V359.2H412.308V359.68H408.948V364H407.508V353.44H412.308V353.92H412.788V354.4H413.268V354.88H413.748V358.24ZM412.308 357.76V355.36H411.828V354.88H408.948V358.24H411.828V357.76H412.308ZM420.471 362.56H419.991V363.04H419.511V363.52H419.031V364H415.671V363.52H415.191V363.04H414.711V362.56H414.231V353.44H415.671V362.08H416.151V362.56H418.551V362.08H419.031V353.44H420.471V362.56ZM427.194 354.88H424.794V364H423.354V354.88H420.954V353.44H427.194V354.88ZM440.641 360.64H434.401V359.2H440.641V360.64ZM353.24 383H347V381.56H349.4V373.88H348.44V372.44H351.8V373.88H350.84V381.56H353.24V383ZM359.963 373.88H355.163V376.76H358.523V378.2H355.163V383H353.723V372.44H359.963V373.88ZM373.409 381.56H372.929V382.04H372.449V382.52H371.969V383H368.609V382.52H368.129V382.04H367.649V381.56H367.169V380.12H368.609V381.08H369.089V381.56H371.489V381.08H371.969V378.68H371.489V378.2H368.609V377.72H368.129V377.24H367.649V376.76H367.169V373.88H367.649V373.4H368.129V372.92H368.609V372.44H371.969V372.92H372.449V373.4H372.929V373.88H373.409V375.32H371.969V374.36H371.489V373.88H369.089V374.36H368.609V376.28H369.089V376.76H371.969V377.24H372.449V377.72H372.929V378.2H373.409V381.56ZM380.133 381.08H379.653V381.56H379.173V382.04H378.693V382.52H378.213V383H375.812V382.52H375.332V382.04H374.852V381.56H374.372V381.08H373.892V374.36H374.372V373.88H374.852V373.4H375.332V372.92H375.812V372.44H378.213V372.92H378.693V373.4H379.173V373.88H379.653V374.36H380.133V381.08ZM378.693 380.6V374.84H378.213V374.36H377.733V373.88H376.293V374.36H375.812V374.84H375.332V380.6H375.812V381.08H376.293V381.56H377.733V381.08H378.213V380.6H378.693ZM386.856 383H385.416V377.72H384.936V378.68H384.456V379.64H383.976V380.6H383.496V379.64H383.016V378.68H382.536V377.72H382.056V383H380.616V372.44H381.096V373.4H381.576V374.36H382.056V375.32H382.536V376.28H383.016V377.24H383.496V378.2H383.976V377.24H384.456V376.28H384.936V375.32H385.416V374.36H385.896V373.4H386.376V372.44H386.856V383ZM393.579 383H387.339V372.44H393.579V373.88H388.779V376.76H392.619V378.2H388.779V381.56H393.579V383ZM400.302 373.88H397.902V383H396.462V373.88H394.062V372.44H400.302V373.88ZM407.025 383H405.585V378.2H402.225V383H400.785V372.44H402.225V376.76H405.585V372.44H407.025V383ZM413.748 383H407.508V381.56H409.908V373.88H408.948V372.44H412.308V373.88H411.348V381.56H413.748V383ZM420.471 383H419.031V382.52H418.551V381.56H418.071V380.6H417.591V379.64H417.111V378.68H416.631V377.72H416.151V376.76H415.671V383H414.231V372.44H415.191V373.4H415.671V374.36H416.151V375.32H416.631V376.28H417.111V377.24H417.591V378.2H418.071V379.16H418.551V380.12H419.031V372.44H420.471V383ZM427.194 382.04H426.714V382.52H426.234V383H422.874V382.52H422.394V382.04H421.914V381.56H421.434V381.08H420.954V374.36H421.434V373.88H421.914V373.4H422.394V372.92H422.874V372.44H426.234V372.92H426.714V373.4H427.194V374.36H425.754V373.88H423.354V374.36H422.874V374.84H422.394V380.6H422.874V381.08H423.354V381.56H425.754V378.68H425.274V379.16H423.834V377.24H427.194V382.04ZM431.517 374.84H430.077V372.44H431.517V374.84ZM440.641 381.56H440.161V382.04H439.681V382.52H439.201V383H435.841V382.52H435.361V382.04H434.881V381.56H434.401V380.12H435.841V381.08H436.321V381.56H438.721V381.08H439.201V378.68H438.721V378.2H435.841V377.72H435.361V377.24H434.881V376.76H434.401V373.88H434.881V373.4H435.361V372.92H435.841V372.44H439.201V372.92H439.681V373.4H440.161V373.88H440.641V375.32H439.201V374.36H438.721V373.88H436.321V374.36H435.841V376.28H436.321V376.76H439.201V377.24H439.681V377.72H440.161V378.2H440.641V381.56ZM353.24 402H351.8V399.6H348.44V402H347V398.16V397.68V396.72H347.48V395.76H347.96V394.8H348.44V393.84H348.92V392.88H349.4V391.92H349.88V391.44H350.36V391.92H350.84V392.88H351.32V393.84H351.8V394.8H352.28V395.76H352.76V396.72H353.24V397.68V398.16V402ZM351.8 398.16V397.68V397.2H351.32V396.24H350.84V395.28H350.36V394.32H349.88V395.28H349.4V396.24H348.92V397.2H348.44V397.68V398.16H351.8ZM366.686 400.56H366.206V401.04H365.726V401.52H365.246V402H360.446V391.44H365.246V391.92H365.726V392.4H366.206V392.88H366.686V395.28H366.206V395.76H365.726V396.24H365.246V396.72H365.726V397.2H366.206V397.68H366.686V400.56ZM365.246 394.8V393.36H364.766V392.88H361.886V395.76H364.286V395.28H364.766V394.8H365.246ZM365.246 400.08V398.16H364.766V397.68H364.286V397.2H361.886V400.56H364.766V400.08H365.246ZM373.409 402H371.969V399.6H368.609V402H367.169V398.16V397.68V396.72H367.649V395.76H368.129V394.8H368.609V393.84H369.089V392.88H369.569V391.92H370.049V391.44H370.529V391.92H371.009V392.88H371.489V393.84H371.969V394.8H372.449V395.76H372.929V396.72H373.409V397.68V398.16V402ZM371.969 398.16V397.68V397.2H371.489V396.24H371.009V395.28H370.529V394.32H370.049V395.28H369.569V396.24H369.089V397.2H368.609V397.68V398.16H371.969ZM380.133 399.6H379.653V400.08H379.173V400.56H378.693V401.04H378.213V401.52H377.717V402H373.892V391.44H377.733V391.92H378.213V392.4H378.693V392.88H379.173V393.36H379.653V393.84H380.133V399.6ZM378.693 399.12V394.32H378.213V393.84H377.733V393.36H377.253V392.88H375.332V400.56H377.253V400.08H377.733V399.6H378.213V399.12H378.693ZM393.579 402H387.339V400.56H389.739V392.88H388.779V391.44H392.139V392.88H391.179V400.56H393.579V402ZM400.302 399.6H399.822V400.08H399.342V400.56H398.862V401.04H398.382V401.52H397.886V402H394.062V391.44H397.902V391.92H398.382V392.4H398.862V392.88H399.342V393.36H399.822V393.84H400.302V399.6ZM398.862 399.12V394.32H398.382V393.84H397.902V393.36H397.422V392.88H395.502V400.56H397.422V400.08H397.902V399.6H398.382V399.12H398.862ZM407.025 402H400.785V391.44H407.025V392.88H402.225V395.76H406.065V397.2H402.225V400.56H407.025V402ZM413.748 402H412.308V399.6H408.948V402H407.508V398.16V397.68V396.72H407.988V395.76H408.468V394.8H408.948V393.84H409.428V392.88H409.908V391.92H410.388V391.44H410.868V391.92H411.348V392.88H411.828V393.84H412.308V394.8H412.788V395.76H413.268V396.72H413.748V397.68V398.16V402ZM412.308 398.16V397.68V397.2H411.828V396.24H411.348V395.28H410.868V394.32H410.388V395.28H409.908V396.24H409.428V397.2H408.948V397.68V398.16H412.308ZM416.631 402.96H417.111V402H416.151V400.08H418.071V402.96H417.591V403.44H416.631V402.96ZM353.24 421H352.76V420.04H352.28V419.08H351.8V418.12H351.32V417.16H350.84V416.2H350.36V415.24H349.88V416.2H349.4V417.16H348.92V418.12H348.44V419.08H347.96V420.04H347.48V421H347V410.44H348.44V415.72H348.92V414.76H349.4V413.8H349.88V412.84H350.36V413.8H350.84V414.76H351.32V415.72H351.8V410.44H353.24V421ZM359.963 421H353.723V410.44H359.963V411.88H355.163V414.76H359.003V416.2H355.163V419.56H359.963V421ZM364.286 412.84H362.846V410.44H364.286V412.84ZM373.409 421H367.169V410.44H368.609V419.56H373.409V421ZM380.133 421H373.892V410.44H375.332V419.56H380.133V421ZM393.579 411.88H391.179V421H389.739V411.88H387.339V410.44H393.579V411.88ZM400.302 421H394.062V410.44H400.302V411.88H395.502V414.76H399.342V416.2H395.502V419.56H400.302V421ZM407.025 421H400.785V410.44H402.225V419.56H407.025V421ZM413.748 421H407.508V410.44H408.948V419.56H413.748V421ZM427.194 411.88H426.714V412.84H426.234V413.8H425.754V414.76H425.274V415.72H424.794V421H423.354V415.72H422.874V414.76H422.394V413.8H421.914V412.84H421.434V411.88H420.954V410.44H422.394V411.4H422.874V412.36H423.354V413.32H423.834V414.28H424.314V413.32H424.794V412.36H425.274V411.4H425.754V410.44H427.194V411.88ZM433.917 419.08H433.437V419.56H432.957V420.04H432.477V420.52H431.997V421H429.597V420.52H429.117V420.04H428.637V419.56H428.157V419.08H427.677V412.36H428.157V411.88H428.637V411.4H429.117V410.92H429.597V410.44H431.997V410.92H432.477V411.4H432.957V411.88H433.437V412.36H433.917V419.08ZM432.477 418.6V412.84H431.997V412.36H431.517V411.88H430.077V412.36H429.597V412.84H429.117V418.6H429.597V419.08H430.077V419.56H431.517V419.08H431.997V418.6H432.477ZM440.641 419.56H440.161V420.04H439.681V420.52H439.201V421H435.841V420.52H435.361V420.04H434.881V419.56H434.401V410.44H435.841V419.08H436.321V419.56H438.721V419.08H439.201V410.44H440.641V419.56Z" fill="#D9D9D9"/>
<path d="M353.24 250H347V248.56H349.4V240.88H348.44V239.44H351.8V240.88H350.84V248.56H353.24V250ZM359.963 247.6H359.483V248.08H359.003V248.56H358.523V249.04H358.043V249.52H357.547V250H353.723V239.44H357.563V239.92H358.043V240.4H358.523V240.88H359.003V241.36H359.483V241.84H359.963V247.6ZM358.523 247.12V242.32H358.043V241.84H357.563V241.36H357.083V240.88H355.163V248.56H357.083V248.08H357.563V247.6H358.043V247.12H358.523ZM364.286 250H362.366V248.08H364.286V250ZM373.409 250H367.169V248.56H369.569V240.88H368.129V239.44H371.009V248.56H373.409V250ZM377.733 250H375.812V248.08H377.733V250ZM386.856 248.08H386.376V248.56H385.896V249.04H385.416V249.52H384.936V250H382.536V249.52H382.056V249.04H381.576V248.56H381.096V248.08H380.616V241.36H381.096V240.88H381.576V240.4H382.056V239.92H382.536V239.44H384.936V239.92H385.416V240.4H385.896V240.88H386.376V241.36H386.856V248.08ZM384.936 241.84V241.36V240.88H382.536V241.36H382.056V246.64H382.536V245.68H383.016V244.72H383.496V243.76H383.976V242.8H384.456V241.84H384.936ZM385.416 248.08V243.28H384.936V244.24H384.456V245.2H383.976V246.16H383.496V247.12H383.016V248.08H382.536V248.56H384.936V248.08H385.416ZM393.579 248.08H393.099V248.56H392.619V249.04H392.139V249.52H391.659V250H389.259V249.52H388.779V249.04H388.299V248.56H387.819V248.08H387.339V241.36H387.819V240.88H388.299V240.4H388.779V239.92H389.259V239.44H391.659V239.92H392.139V240.4H392.619V240.88H393.099V241.36H393.579V248.08ZM391.659 241.84V241.36V240.88H389.259V241.36H388.779V246.64H389.259V245.68H389.739V244.72H390.219V243.76H390.699V242.8H391.179V241.84H391.659ZM392.139 248.08V243.28H391.659V244.24H391.179V245.2H390.699V246.16H390.219V247.12H389.739V248.08H389.259V248.56H391.659V248.08H392.139ZM400.302 248.56H399.822V249.04H399.342V249.52H398.862V250H395.502V249.52H395.022V249.04H394.542V248.56H394.062V247.12H395.502V248.08H395.982V248.56H398.382V248.08H398.862V246.16H398.382V245.68H397.902V245.2H397.422V244.72H396.942V244.24H396.462V243.76H395.982V243.28H396.462V242.8H396.942V242.32H397.422V241.84H397.902V241.36H398.382V240.88H394.062V239.44H400.302V241.36H399.822V241.84H399.342V242.32H398.862V242.8H398.382V243.28H397.902V243.76H398.382V244.24H398.862V244.72H399.342V245.2H399.822V245.68H400.302V248.56Z" fill="#4B4B4B"/>
<rect x="330" y="222" width="6" height="6" fill="#4B4B4B"/>
<rect x="457" y="222" width="6" height="6" fill="#4B4B4B"/>
<rect x="330" y="435" width="6" height="6" fill="#4B4B4B"/>
<rect x="457" y="435" width="6" height="6" fill="#4B4B4B"/>
<rect x="434" y="243" width="4" height="4" fill="#4B4B4B"/>
<rect x="434" y="239" width="4" height="4" fill="#4B4B4B"/>
<rect x="442" y="239" width="4" height="4" fill="#4B4B4B"/>
<rect x="438" y="243" width="4" height="4" fill="#4B4B4B"/>
<rect x="434" y="247" width="4" height="4" fill="#4B4B4B"/>
</g>
<rect x="330.5" y="222.5" width="132" height="218" stroke="#4B4B4B"/>
<g clip-path="url(#clip3_2685_15682)">
<path d="M501.24 354.88H498.84V364H497.4V354.88H495V353.44H501.24V354.88ZM507.963 364H501.723V362.56H504.123V354.88H503.163V353.44H506.523V354.88H505.563V362.56H507.963V364ZM514.686 364H513.246V358.72H512.766V359.68H512.286V360.64H511.806V361.6H511.326V360.64H510.846V359.68H510.366V358.72H509.886V364H508.446V353.44H508.926V354.4H509.406V355.36H509.886V356.32H510.366V357.28H510.846V358.24H511.326V359.2H511.806V358.24H512.286V357.28H512.766V356.32H513.246V355.36H513.726V354.4H514.206V353.44H514.686V364ZM521.409 364H515.169V353.44H521.409V354.88H516.609V357.76H520.449V359.2H516.609V362.56H521.409V364ZM528.133 364H521.892V353.44H523.332V362.56H528.133V364ZM534.856 364H528.616V362.56H531.016V354.88H530.056V353.44H533.416V354.88H532.456V362.56H534.856V364ZM541.579 364H540.139V363.52H539.659V362.56H539.179V361.6H538.699V360.64H538.219V359.68H537.739V358.72H537.259V357.76H536.779V364H535.339V353.44H536.299V354.4H536.779V355.36H537.259V356.32H537.739V357.28H538.219V358.24H538.699V359.2H539.179V360.16H539.659V361.12H540.139V353.44H541.579V364ZM548.302 364H542.062V353.44H548.302V354.88H543.502V357.76H547.342V359.2H543.502V362.56H548.302V364ZM551.185 364.96H551.665V364H550.705V362.08H552.625V364.96H552.145V365.44H551.185V364.96ZM501.24 381.56H500.76V382.04H500.28V382.52H499.8V383H495V372.44H499.8V372.92H500.28V373.4H500.76V373.88H501.24V376.28H500.76V376.76H500.28V377.24H499.8V377.72H500.28V378.2H500.76V378.68H501.24V381.56ZM499.8 375.8V374.36H499.32V373.88H496.44V376.76H498.84V376.28H499.32V375.8H499.8ZM499.8 381.08V379.16H499.32V378.68H498.84V378.2H496.44V381.56H499.32V381.08H499.8ZM507.963 381.56H507.483V382.04H507.003V382.52H506.523V383H503.163V382.52H502.683V382.04H502.203V381.56H501.723V372.44H503.163V381.08H503.643V381.56H506.043V381.08H506.523V372.44H507.963V381.56ZM514.686 380.6H514.206V381.08H513.726V381.56H513.246V382.04H512.766V382.52H512.27V383H508.446V372.44H512.286V372.92H512.766V373.4H513.246V373.88H513.726V374.36H514.206V374.84H514.686V380.6ZM513.246 380.12V375.32H512.766V374.84H512.286V374.36H511.806V373.88H509.886V381.56H511.806V381.08H512.286V380.6H512.766V380.12H513.246ZM521.409 382.04H520.929V382.52H520.449V383H517.089V382.52H516.609V382.04H516.129V381.56H515.649V381.08H515.169V374.36H515.649V373.88H516.129V373.4H516.609V372.92H517.089V372.44H520.449V372.92H520.929V373.4H521.409V374.36H519.969V373.88H517.569V374.36H517.089V374.84H516.609V380.6H517.089V381.08H517.569V381.56H519.969V378.68H519.489V379.16H518.049V377.24H521.409V382.04ZM528.133 383H521.892V372.44H528.133V373.88H523.332V376.76H527.173V378.2H523.332V381.56H528.133V383ZM534.856 373.88H532.456V383H531.016V373.88H528.616V372.44H534.856V373.88ZM537.739 383.96H538.219V383H537.259V381.08H539.179V383.96H538.699V384.44H537.739V383.96ZM555.025 383H553.585V380.6H550.225V383H548.785V379.16V378.68V377.72H549.265V376.76H549.745V375.8H550.225V374.84H550.705V373.88H551.185V372.92H551.665V372.44H552.145V372.92H552.625V373.88H553.105V374.84H553.585V375.8H554.065V376.76H554.545V377.72H555.025V378.68V379.16V383ZM553.585 379.16V378.68V378.2H553.105V377.24H552.625V376.28H552.145V375.32H551.665V376.28H551.185V377.24H550.705V378.2H550.225V378.68V379.16H553.585ZM561.748 383H560.308V382.52H559.828V381.56H559.348V380.6H558.868V379.64H558.388V378.68H557.908V377.72H557.428V376.76H556.948V383H555.508V372.44H556.468V373.4H556.948V374.36H557.428V375.32H557.908V376.28H558.388V377.24H558.868V378.2H559.348V379.16H559.828V380.12H560.308V372.44H561.748V383ZM568.471 380.6H567.991V381.08H567.511V381.56H567.031V382.04H566.551V382.52H566.055V383H562.231V372.44H566.071V372.92H566.551V373.4H567.031V373.88H567.511V374.36H567.991V374.84H568.471V380.6ZM567.031 380.12V375.32H566.551V374.84H566.071V374.36H565.591V373.88H563.671V381.56H565.591V381.08H566.071V380.6H566.551V380.12H567.031ZM501.24 400.56H500.76V401.04H500.28V401.52H499.8V402H496.44V401.52H495.96V401.04H495.48V400.56H495V399.12H496.44V400.08H496.92V400.56H499.32V400.08H499.8V397.68H499.32V397.2H496.44V396.72H495.96V396.24H495.48V395.76H495V392.88H495.48V392.4H495.96V391.92H496.44V391.44H499.8V391.92H500.28V392.4H500.76V392.88H501.24V394.32H499.8V393.36H499.32V392.88H496.92V393.36H496.44V395.28H496.92V395.76H499.8V396.24H500.28V396.72H500.76V397.2H501.24V400.56ZM507.963 400.56H507.483V401.04H507.003V401.52H506.523V402H503.643V401.52H503.163V401.04H502.683V400.56H502.203V400.08H501.723V393.36H502.203V392.88H502.683V392.4H503.163V391.92H503.643V391.44H506.523V391.92H507.003V392.4H507.483V392.88H507.963V394.32H506.523V393.36H506.043V392.88H504.123V393.36H503.643V393.84H503.163V399.6H503.643V400.08H504.123V400.56H506.043V400.08H506.523V399.12H507.963V400.56ZM514.686 400.08H514.206V400.56H513.726V401.04H513.246V401.52H512.766V402H510.366V401.52H509.886V401.04H509.406V400.56H508.926V400.08H508.446V393.36H508.926V392.88H509.406V392.4H509.886V391.92H510.366V391.44H512.766V391.92H513.246V392.4H513.726V392.88H514.206V393.36H514.686V400.08ZM513.246 399.6V393.84H512.766V393.36H512.286V392.88H510.846V393.36H510.366V393.84H509.886V399.6H510.366V400.08H510.846V400.56H512.286V400.08H512.766V399.6H513.246ZM521.409 396.24H520.929V396.72H520.449V397.2H519.969V397.68H516.609V402H515.169V391.44H519.969V391.92H520.449V392.4H520.929V392.88H521.409V396.24ZM519.969 395.76V393.36H519.489V392.88H516.609V396.24H519.489V395.76H519.969ZM528.133 402H521.892V391.44H528.133V392.88H523.332V395.76H527.173V397.2H523.332V400.56H528.133V402ZM541.579 400.08H541.099V400.56H540.619V401.04H540.139V401.52H539.659V402H537.259V401.52H536.779V401.04H536.299V400.56H535.819V400.08H535.339V393.36H535.819V392.88H536.299V392.4H536.779V391.92H537.259V391.44H539.659V391.92H540.139V392.4H540.619V392.88H541.099V393.36H541.579V400.08ZM540.139 399.6V393.84H539.659V393.36H539.179V392.88H537.739V393.36H537.259V393.84H536.779V399.6H537.259V400.08H537.739V400.56H539.179V400.08H539.659V399.6H540.139ZM548.302 400.56H547.822V401.04H547.342V401.52H546.862V402H543.502V401.52H543.022V401.04H542.542V400.56H542.062V391.44H543.502V400.08H543.982V400.56H546.382V400.08H546.862V391.44H548.302V400.56ZM555.025 392.88H552.625V402H551.185V392.88H548.785V391.44H555.025V392.88ZM561.748 402H555.508V391.44H556.948V400.56H561.748V402ZM568.471 402H562.231V400.56H564.631V392.88H563.671V391.44H567.031V392.88H566.071V400.56H568.471V402ZM575.194 402H573.754V401.52H573.274V400.56H572.794V399.6H572.314V398.64H571.834V397.68H571.354V396.72H570.874V395.76H570.394V402H568.954V391.44H569.914V392.4H570.394V393.36H570.874V394.32H571.354V395.28H571.834V396.24H572.314V397.2H572.794V398.16H573.274V399.12H573.754V391.44H575.194V402ZM581.917 402H575.677V391.44H581.917V392.88H577.117V395.76H580.957V397.2H577.117V400.56H581.917V402ZM588.641 399.6H588.161V400.08H587.681V400.56H587.201V401.04H586.721V401.52H586.225V402H582.401V391.44H586.241V391.92H586.721V392.4H587.201V392.88H587.681V393.36H588.161V393.84H588.641V399.6ZM587.201 399.12V394.32H586.721V393.84H586.241V393.36H585.761V392.88H583.841V400.56H585.761V400.08H586.241V399.6H586.721V399.12H587.201ZM501.24 419.56H500.76V420.04H500.28V420.52H499.8V421H496.92V420.52H496.44V420.04H495.96V419.56H495.48V419.08H495V412.36H495.48V411.88H495.96V411.4H496.44V410.92H496.92V410.44H499.8V410.92H500.28V411.4H500.76V411.88H501.24V413.32H499.8V412.36H499.32V411.88H497.4V412.36H496.92V412.84H496.44V418.6H496.92V419.08H497.4V419.56H499.32V419.08H499.8V418.12H501.24V419.56ZM507.963 421H501.723V410.44H503.163V419.56H507.963V421ZM514.686 421H508.446V410.44H514.686V411.88H509.886V414.76H513.726V416.2H509.886V419.56H514.686V421ZM521.409 421H519.969V418.6H516.609V421H515.169V417.16V416.68V415.72H515.649V414.76H516.129V413.8H516.609V412.84H517.089V411.88H517.569V410.92H518.049V410.44H518.529V410.92H519.009V411.88H519.489V412.84H519.969V413.8H520.449V414.76H520.929V415.72H521.409V416.68V417.16V421ZM519.969 417.16V416.68V416.2H519.489V415.24H519.009V414.28H518.529V413.32H518.049V414.28H517.569V415.24H517.089V416.2H516.609V416.68V417.16H519.969ZM528.133 421H526.693V419.08H526.213V418.12H525.733V417.16H525.253V416.2H523.332V421H521.892V410.44H526.693V410.92H527.173V411.4H527.653V411.88H528.133V414.76H527.653V415.24H527.173V415.72H526.693V416.68H527.173V417.64H527.653V418.6H528.133V421ZM526.693 414.28V412.36H526.213V411.88H523.332V414.76H526.213V414.28H526.693ZM534.856 421H528.616V410.44H530.056V419.56H534.856V421ZM541.579 411.88H541.099V412.84H540.619V413.8H540.139V414.76H539.659V415.72H539.179V421H537.739V415.72H537.259V414.76H536.779V413.8H536.299V412.84H535.819V411.88H535.339V410.44H536.779V411.4H537.259V412.36H537.739V413.32H538.219V414.28H538.699V413.32H539.179V412.36H539.659V411.4H540.139V410.44H541.579V411.88Z" fill="#D9D9D9"/>
<path d="M501.24 250H495V248.56H497.4V240.88H496.44V239.44H499.8V240.88H498.84V248.56H501.24V250ZM507.963 247.6H507.483V248.08H507.003V248.56H506.523V249.04H506.043V249.52H505.547V250H501.723V239.44H505.563V239.92H506.043V240.4H506.523V240.88H507.003V241.36H507.483V241.84H507.963V247.6ZM506.523 247.12V242.32H506.043V241.84H505.563V241.36H505.083V240.88H503.163V248.56H505.083V248.08H505.563V247.6H506.043V247.12H506.523ZM512.286 250H510.366V248.08H512.286V250ZM521.409 250H515.169V248.56H517.569V240.88H516.129V239.44H519.009V248.56H521.409V250ZM525.733 250H523.812V248.08H525.733V250ZM534.856 248.08H534.376V248.56H533.896V249.04H533.416V249.52H532.936V250H530.536V249.52H530.056V249.04H529.576V248.56H529.096V248.08H528.616V241.36H529.096V240.88H529.576V240.4H530.056V239.92H530.536V239.44H532.936V239.92H533.416V240.4H533.896V240.88H534.376V241.36H534.856V248.08ZM532.936 241.84V241.36V240.88H530.536V241.36H530.056V246.64H530.536V245.68H531.016V244.72H531.496V243.76H531.976V242.8H532.456V241.84H532.936ZM533.416 248.08V243.28H532.936V244.24H532.456V245.2H531.976V246.16H531.496V247.12H531.016V248.08H530.536V248.56H532.936V248.08H533.416ZM541.579 248.08H541.099V248.56H540.619V249.04H540.139V249.52H539.659V250H537.259V249.52H536.779V249.04H536.299V248.56H535.819V248.08H535.339V241.36H535.819V240.88H536.299V240.4H536.779V239.92H537.259V239.44H539.659V239.92H540.139V240.4H540.619V240.88H541.099V241.36H541.579V248.08ZM539.659 241.84V241.36V240.88H537.259V241.36H536.779V246.64H537.259V245.68H537.739V244.72H538.219V243.76H538.699V242.8H539.179V241.84H539.659ZM540.139 248.08V243.28H539.659V244.24H539.179V245.2H538.699V246.16H538.219V247.12H537.739V248.08H537.259V248.56H539.659V248.08H540.139ZM548.302 248.08H547.342V250H545.902V248.08H542.062V247.6V247.12H542.542V246.16H543.022V245.2H543.502V244.24H543.982V243.28H544.462V242.32H544.942V241.36H545.422V240.4H545.902V239.44H547.342V246.64H548.302V248.08ZM545.902 246.64V242.8H545.422V243.76H544.942V244.72H544.462V245.68H543.982V246.64H545.902Z" fill="#4B4B4B"/>
<rect x="478" y="222" width="6" height="6" fill="#4B4B4B"/>
<rect x="605" y="222" width="6" height="6" fill="#4B4B4B"/>
<rect x="478" y="435" width="6" height="6" fill="#4B4B4B"/>
<rect x="605" y="435" width="6" height="6" fill="#4B4B4B"/>
<rect x="582" y="239" width="4" height="4" fill="#4B4B4B"/>
<rect x="590" y="243" width="4" height="4" fill="#4B4B4B"/>
<rect x="590" y="239" width="4" height="4" fill="#4B4B4B"/>
<rect x="586" y="243" width="4" height="4" fill="#4B4B4B"/>
<rect x="582" y="247" width="4" height="4" fill="#4B4B4B"/>
</g>
<rect x="478.5" y="222.5" width="132" height="218" stroke="#4B4B4B"/>
<rect x="167.25" y="245.25" width="14.5" height="0.5" fill="#4B4B4B" stroke="#4B4B4B" stroke-width="0.5"/>
<rect x="2.25" y="245.25" width="31.5" height="0.5" fill="#4B4B4B" stroke="#4B4B4B" stroke-width="0.5"/>
<rect x="315.25" y="245.25" width="14.5" height="0.5" fill="#4B4B4B" stroke="#4B4B4B" stroke-width="0.5"/>
<rect x="463.25" y="245.25" width="14.5" height="0.5" fill="#4B4B4B" stroke="#4B4B4B" stroke-width="0.5"/>
<path d="M769.646 604.354C769.841 604.549 770.158 604.549 770.353 604.354L773.535 601.172C773.73 600.976 773.73 600.66 773.535 600.464C773.34 600.269 773.023 600.269 772.828 600.464L769.999 603.293L767.171 600.464C766.976 600.269 766.659 600.269 766.464 600.464C766.268 600.66 766.268 600.976 766.464 601.172L769.646 604.354ZM486 538.5V539H487.007V538.5V538H486V538.5ZM489.022 538.5V539H491.037V538.5V538H489.022V538.5ZM493.051 538.5V539H495.066V538.5V538H493.051V538.5ZM497.081 538.5V539H499.096V538.5V538H497.081V538.5ZM501.11 538.5V539H503.125V538.5V538H501.11V538.5ZM505.14 538.5V539H507.154V538.5V538H505.14V538.5ZM509.169 538.5V539H511.184V538.5V538H509.169V538.5ZM513.198 538.5V539H515.213V538.5V538H513.198V538.5ZM517.228 538.5V539H519.243V538.5V538H517.228V538.5ZM521.257 538.5V539H523.272V538.5V538H521.257V538.5ZM525.287 538.5V539H527.301V538.5V538H525.287V538.5ZM529.316 538.5V539H531.331V538.5V538H529.316V538.5ZM533.345 538.5V539H535.36V538.5V538H533.345V538.5ZM537.375 538.5V539H539.39V538.5V538H537.375V538.5ZM541.404 538.5V539H543.419V538.5V538H541.404V538.5ZM545.434 538.5V539H547.448V538.5V538H545.434V538.5ZM549.463 538.5V539H551.478V538.5V538H549.463V538.5ZM553.492 538.5V539H555.507V538.5V538H553.492V538.5ZM557.522 538.5V539H559.537V538.5V538H557.522V538.5ZM561.551 538.5V539H563.566V538.5V538H561.551V538.5ZM565.581 538.5V539H567.595V538.5V538H565.581V538.5ZM569.61 538.5V539H571.625V538.5V538H569.61V538.5ZM573.639 538.5V539H575.654V538.5V538H573.639V538.5ZM577.669 538.5V539H579.684V538.5V538H577.669V538.5ZM581.698 538.5V539H583.713V538.5V538H581.698V538.5ZM585.728 538.5V539H587.742V538.5V538H585.728V538.5ZM589.757 538.5V539H591.772V538.5V538H589.757V538.5ZM593.787 538.5V539H595.801V538.5V538H593.787V538.5ZM597.816 538.5V539H599.831V538.5V538H597.816V538.5ZM601.845 538.5V539H603.86V538.5V538H601.845V538.5ZM605.875 538.5V539H607.889V538.5V538H605.875V538.5ZM609.904 538.5V539H611.919V538.5V538H609.904V538.5ZM613.934 538.5V539H615.948V538.5V538H613.934V538.5ZM617.963 538.5V539H619.978V538.5V538H617.963V538.5ZM621.992 538.5V539H624.007V538.5V538H621.992V538.5ZM626.022 538.5V539H628.036V538.5V538H626.022V538.5ZM630.051 538.5V539H632.066V538.5V538H630.051V538.5ZM634.08 538.5V539H636.095V538.5V538H634.08V538.5ZM638.11 538.5V539H640.125V538.5V538H638.11V538.5ZM642.139 538.5V539H644.154V538.5V538H642.139V538.5ZM646.169 538.5V539H648.183V538.5V538H646.169V538.5ZM650.198 538.5V539H652.213V538.5V538H650.198V538.5ZM654.227 538.5V539H656.242V538.5V538H654.227V538.5ZM658.257 538.5V539H660.271V538.5V538H658.257V538.5ZM662.286 538.5V539H664.301V538.5V538H662.286V538.5ZM666.316 538.5V539H668.33V538.5V538H666.316V538.5ZM670.345 538.5V539H672.36V538.5V538H670.345V538.5ZM674.374 538.5V539H676.389V538.5V538H674.374V538.5ZM678.404 538.5V539H680.418V538.5V538H678.404V538.5ZM682.433 538.5V539H684.448V538.5V538H682.433V538.5ZM686.463 538.5V539H688.477V538.5V538H686.463V538.5ZM690.492 538.5V539H692.507V538.5V538H690.492V538.5ZM694.521 538.5V539H696.536V538.5V538H694.521V538.5ZM698.551 538.5V539H700.565V538.5V538H698.551V538.5ZM702.58 538.5V539H704.595V538.5V538H702.58V538.5ZM706.609 538.5V539H708.624V538.5V538H706.609V538.5ZM710.639 538.5V539H712.654V538.5V538H710.639V538.5ZM714.668 538.5V539H716.683V538.5V538H714.668V538.5ZM718.698 538.5V539H720.712V538.5V538H718.698V538.5ZM722.727 538.5V539H724.742V538.5V538H722.727V538.5ZM726.756 538.5V539H728.771V538.5V538H726.756V538.5ZM730.786 538.5V539H732.8V538.5V538H730.786V538.5ZM734.815 538.5V539H736.83V538.5V538H734.815V538.5ZM738.845 538.5V539H740.859V538.5V538H738.845V538.5ZM742.874 538.5V539H744.889V538.5V538H742.874V538.5ZM746.903 538.5V539H748.918V538.5V538H746.903V538.5ZM750.933 538.5V539H752.947V538.5V538H750.933V538.5ZM754.962 538.5V539H756.977V538.5V538H754.962V538.5ZM758.992 538.5V539H759.999V538.5V538H758.992V538.5ZM759.999 538.5V539C760.314 539 760.625 539.015 760.931 539.045L760.98 538.547L761.028 538.05C760.69 538.017 760.346 538 759.999 538V538.5ZM762.903 538.928L762.758 539.407C763.359 539.589 763.934 539.828 764.478 540.12L764.714 539.679L764.95 539.238C764.349 538.916 763.712 538.651 763.048 538.45L762.903 538.928ZM766.343 540.77L766.026 541.156C766.507 541.551 766.948 541.992 767.343 542.473L767.73 542.156L768.116 541.839C767.679 541.307 767.192 540.82 766.661 540.383L766.343 540.77ZM768.82 543.785L768.379 544.021C768.671 544.565 768.911 545.141 769.093 545.741L769.571 545.596L770.05 545.451C769.848 544.787 769.583 544.15 769.261 543.549L768.82 543.785ZM769.952 547.519L769.454 547.568C769.484 547.874 769.499 548.185 769.499 548.5H769.999H770.499C770.499 548.153 770.482 547.81 770.449 547.471L769.952 547.519ZM769.999 548.5H769.499V549.491H769.999H770.499V548.5H769.999ZM769.999 551.473H769.499V553.455H769.999H770.499V551.473H769.999ZM769.999 555.437H769.499V557.42H769.999H770.499V555.437H769.999ZM769.999 559.402H769.499V561.384H769.999H770.499V559.402H769.999ZM769.999 563.366H769.499V565.348H769.999H770.499V563.366H769.999ZM769.999 567.33H769.499V569.312H769.999H770.499V567.33H769.999ZM769.999 571.295H769.499V573.277H769.999H770.499V571.295H769.999ZM769.999 575.259H769.499V577.241H769.999H770.499V575.259H769.999ZM769.999 579.223H769.499V581.205H769.999H770.499V579.223H769.999ZM769.999 583.188H769.499V585.17H769.999H770.499V583.188H769.999ZM769.999 587.152H769.499V589.134H769.999H770.499V587.152H769.999ZM769.999 591.116H769.499V593.098H769.999H770.499V591.116H769.999ZM769.999 595.08H769.499V597.063H769.999H770.499V595.08H769.999ZM769.999 599.045H769.499V601.027H769.999H770.499V599.045H769.999ZM769.999 603.009H769.499V604H769.999H770.499V603.009H769.999Z" fill="#4B4B4B"/>
<defs>
<clipPath id="clip0_2685_15682">
<rect x="34" y="222" width="133" height="219" fill="white"/>
</clipPath>
<clipPath id="clip1_2685_15682">
<rect x="182" y="222" width="133" height="219" fill="white"/>
</clipPath>
<clipPath id="clip2_2685_15682">
<rect x="330" y="222" width="133" height="219" fill="white"/>
</clipPath>
<clipPath id="clip3_2685_15682">
<rect x="478" y="222" width="133" height="219" fill="white"/>
</clipPath>
</defs>
</svg>
