<svg width="1540" height="627" viewBox="0 0 1540 627" fill="none" xmlns="http://www.w3.org/2000/svg">
<path d="M851 626V623C851 611.954 859.954 603 871 603H1519C1530.05 603 1539 594.046 1539 583V43C1539 31.9543 1530.05 23 1519 23H871C859.954 23 851 14.0457 851 3V0M686 626V623C686 611.954 677.046 603 666 603H21C9.95431 603 1 594.046 1 583V43C1 31.9543 9.95431 23 21 23H666C677.046 23 686 14.0457 686 3V0" stroke="#FF4000" stroke-width="2"/>
<path d="M771 140H781V141H771V151H770V141H760V140H770V130H771V140Z" fill="#4B4B4B"/>
<path d="M771 485H781V486H771V496H770V486H760V485H770V475H771V485Z" fill="#4B4B4B"/>
<path d="M748.097 288.61L748.111 288.596L770.007 265.715L817.292 313L770 360.293L722.714 313.007L748.097 288.61Z" stroke="#FF4000"/>
<g clip-path="url(#clip0_2685_16450)">
<path d="M57.24 291.88H52.44V294.76H55.8V296.2H52.44V301H51V290.44H57.24V291.88ZM63.9631 301H57.7231V299.56H60.1231V291.88H59.1631V290.44H62.5231V291.88H61.5631V299.56H63.9631V301ZM70.6863 301H69.2463V300.52H68.7663V299.56H68.2863V298.6H67.8063V297.64H67.3263V296.68H66.8463V295.72H66.3663V294.76H65.8863V301H64.4462V290.44H65.4062V291.4H65.8863V292.36H66.3663V293.32H66.8463V294.28H67.3263V295.24H67.8063V296.2H68.2863V297.16H68.7663V298.12H69.2463V290.44H70.6863V301ZM77.4094 301H75.9694V298.6H72.6094V301H71.1694V297.16V296.68V295.72H71.6494V294.76H72.1294V293.8H72.6094V292.84H73.0894V291.88H73.5694V290.92H74.0494V290.44H74.5294V290.92H75.0094V291.88H75.4894V292.84H75.9694V293.8H76.4494V294.76H76.9294V295.72H77.4094V296.68V297.16V301ZM75.9694 297.16V296.68V296.2H75.4894V295.24H75.0094V294.28H74.5294V293.32H74.0494V294.28H73.5694V295.24H73.0894V296.2H72.6094V296.68V297.16H75.9694ZM84.1325 301H77.8925V290.44H79.3325V299.56H84.1325V301ZM97.5787 301H96.6187V300.52H96.1387H95.6587V301H93.2587V300.52H92.7787V300.04H92.2987V299.56H91.8187V299.08H91.3387V292.36H91.8187V291.88H92.2987V291.4H92.7787V290.92H93.2587V290.44H95.6587V290.92H96.1387V291.4H96.6187V291.88H97.0987V292.36H97.5787V299.08H97.0987V299.56V300.04H97.5787V301ZM96.1387 298.6V292.84H95.6587V292.36H95.1787V291.88H93.7387V292.36H93.2587V292.84H92.7787V298.6H93.2587V299.08H93.7387V299.56H95.1787V299.08H94.6987V298.6H94.2187V298.12H93.7387V297.64H94.2187H94.6987H95.1787V298.12H95.6587V298.6H96.1387ZM104.302 301H102.862V298.6H99.5019V301H98.0619V297.16V296.68V295.72H98.5419V294.76H99.0219V293.8H99.5019V292.84H99.9819V291.88H100.462V290.92H100.942V290.44H101.422V290.92H101.902V291.88H102.382V292.84H102.862V293.8H103.342V294.76H103.822V295.72H104.302V296.68V297.16V301ZM102.862 297.16V296.68V296.2H102.382V295.24H101.902V294.28H101.422V293.32H100.942V294.28H100.462V295.24H99.9819V296.2H99.5019V296.68V297.16H102.862ZM107.185 301.96H107.665V301H106.705V299.08H108.625V301.96H108.145V302.44H107.185V301.96ZM124.471 295.24H123.991V295.72H123.511V296.2H123.031V296.68H119.671V301H118.231V290.44H123.031V290.92H123.511V291.4H123.991V291.88H124.471V295.24ZM123.031 294.76V292.36H122.551V291.88H119.671V295.24H122.551V294.76H123.031ZM131.194 299.08H130.714V299.56H130.234V300.04H129.754V300.52H129.274V301H126.874V300.52H126.394V300.04H125.914V299.56H125.434V299.08H124.954V292.36H125.434V291.88H125.914V291.4H126.394V290.92H126.874V290.44H129.274V290.92H129.754V291.4H130.234V291.88H130.714V292.36H131.194V299.08ZM129.754 298.6V292.84H129.274V292.36H128.794V291.88H127.354V292.36H126.874V292.84H126.394V298.6H126.874V299.08H127.354V299.56H128.794V299.08H129.274V298.6H129.754ZM137.917 301H131.677V290.44H133.117V299.56H137.917V301ZM144.641 301H138.401V299.56H140.801V291.88H139.841V290.44H143.201V291.88H142.241V299.56H144.641V301ZM151.364 299.56H150.884V300.04H150.404V300.52H149.924V301H146.564V300.52H146.084V300.04H145.604V299.56H145.124V298.12H146.564V299.08H147.044V299.56H149.444V299.08H149.924V296.68H149.444V296.2H146.564V295.72H146.084V295.24H145.604V294.76H145.124V291.88H145.604V291.4H146.084V290.92H146.564V290.44H149.924V290.92H150.404V291.4H150.884V291.88H151.364V293.32H149.924V292.36H149.444V291.88H147.044V292.36H146.564V294.28H147.044V294.76H149.924V295.24H150.404V295.72H150.884V296.2H151.364V299.56ZM158.087 301H156.647V296.2H153.287V301H151.847V290.44H153.287V294.76H156.647V290.44H158.087V301ZM160.97 301.96H161.45V301H160.49V299.08H162.41V301.96H161.93V302.44H160.97V301.96ZM57.24 320H55.8V317.6H52.44V320H51V316.16V315.68V314.72H51.48V313.76H51.96V312.8H52.44V311.84H52.92V310.88H53.4V309.92H53.88V309.44H54.36V309.92H54.84V310.88H55.32V311.84H55.8V312.8H56.28V313.76H56.76V314.72H57.24V315.68V316.16V320ZM55.8 316.16V315.68V315.2H55.32V314.24H54.84V313.28H54.36V312.32H53.88V313.28H53.4V314.24H52.92V315.2H52.44V315.68V316.16H55.8ZM63.9631 320H62.5231V319.52H62.0431V318.56H61.5631V317.6H61.0831V316.64H60.6031V315.68H60.1231V314.72H59.6431V313.76H59.1631V320H57.7231V309.44H58.6831V310.4H59.1631V311.36H59.6431V312.32H60.1231V313.28H60.6031V314.24H61.0831V315.2H61.5631V316.16H62.0431V317.12H62.5231V309.44H63.9631V320ZM70.6863 317.6H70.2063V318.08H69.7263V318.56H69.2463V319.04H68.7663V319.52H68.2703V320H64.4462V309.44H68.2863V309.92H68.7663V310.4H69.2463V310.88H69.7263V311.36H70.2063V311.84H70.6863V317.6ZM69.2463 317.12V312.32H68.7663V311.84H68.2863V311.36H67.8063V310.88H65.8863V318.56H67.8063V318.08H68.2863V317.6H68.7663V317.12H69.2463ZM84.1325 317.6H83.6525V318.08H83.1725V318.56H82.6925V319.04H82.2125V319.52H81.7165V320H77.8925V309.44H81.7325V309.92H82.2125V310.4H82.6925V310.88H83.1725V311.36H83.6525V311.84H84.1325V317.6ZM82.6925 317.12V312.32H82.2125V311.84H81.7325V311.36H81.2525V310.88H79.3325V318.56H81.2525V318.08H81.7325V317.6H82.2125V317.12H82.6925ZM90.8556 320H84.6156V309.44H90.8556V310.88H86.0556V313.76H89.8956V315.2H86.0556V318.56H90.8556V320ZM97.5787 314.24H97.0987V314.72H96.6187V315.2H96.1387V315.68H92.7787V320H91.3387V309.44H96.1387V309.92H96.6187V310.4H97.0987V310.88H97.5787V314.24ZM96.1387 313.76V311.36H95.6587V310.88H92.7787V314.24H95.6587V313.76H96.1387ZM104.302 320H98.0619V309.44H99.5019V318.56H104.302V320ZM111.025 318.08H110.545V318.56H110.065V319.04H109.585V319.52H109.105V320H106.705V319.52H106.225V319.04H105.745V318.56H105.265V318.08H104.785V311.36H105.265V310.88H105.745V310.4H106.225V309.92H106.705V309.44H109.105V309.92H109.585V310.4H110.065V310.88H110.545V311.36H111.025V318.08ZM109.585 317.6V311.84H109.105V311.36H108.625V310.88H107.185V311.36H106.705V311.84H106.225V317.6H106.705V318.08H107.185V318.56H108.625V318.08H109.105V317.6H109.585ZM117.748 310.88H117.268V311.84H116.788V312.8H116.308V313.76H115.828V314.72H115.348V320H113.908V314.72H113.428V313.76H112.948V312.8H112.468V311.84H111.988V310.88H111.508V309.44H112.948V310.4H113.428V311.36H113.908V312.32H114.388V313.28H114.868V312.32H115.348V311.36H115.828V310.4H116.308V309.44H117.748V310.88ZM124.471 320H123.031V314.72H122.551V315.68H122.071V316.64H121.591V317.6H121.111V316.64H120.631V315.68H120.151V314.72H119.671V320H118.231V309.44H118.711V310.4H119.191V311.36H119.671V312.32H120.151V313.28H120.631V314.24H121.111V315.2H121.591V314.24H122.071V313.28H122.551V312.32H123.031V311.36H123.511V310.4H123.991V309.44H124.471V320ZM131.194 320H124.954V309.44H131.194V310.88H126.394V313.76H130.234V315.2H126.394V318.56H131.194V320ZM137.917 320H136.477V319.52H135.997V318.56H135.517V317.6H135.037V316.64H134.557V315.68H134.077V314.72H133.597V313.76H133.117V320H131.677V309.44H132.637V310.4H133.117V311.36H133.597V312.32H134.077V313.28H134.557V314.24H135.037V315.2H135.517V316.16H135.997V317.12H136.477V309.44H137.917V320ZM144.641 310.88H142.241V320H140.801V310.88H138.401V309.44H144.641V310.88Z" fill="#D9D9D9"/>
<path d="M57.24 248H51V246.56H53.4V238.88H52.44V237.44H55.8V238.88H54.84V246.56H57.24V248ZM63.9631 245.6H63.4831V246.08H63.0031V246.56H62.5231V247.04H62.0431V247.52H61.5471V248H57.7231V237.44H61.5631V237.92H62.0431V238.4H62.5231V238.88H63.0031V239.36H63.4831V239.84H63.9631V245.6ZM62.5231 245.12V240.32H62.0431V239.84H61.5631V239.36H61.0831V238.88H59.1631V246.56H61.0831V246.08H61.5631V245.6H62.0431V245.12H62.5231ZM68.2863 248H66.3663V246.08H68.2863V248ZM77.4094 246.08H76.4494V248H75.0094V246.08H71.1694V245.6V245.12H71.6494V244.16H72.1294V243.2H72.6094V242.24H73.0894V241.28H73.5694V240.32H74.0494V239.36H74.5294V238.4H75.0094V237.44H76.4494V244.64H77.4094V246.08ZM75.0094 244.64V240.8H74.5294V241.76H74.0494V242.72H73.5694V243.68H73.0894V244.64H75.0094ZM81.7325 248H79.8125V246.08H81.7325V248ZM90.8556 246.08H90.3756V246.56H89.8956V247.04H89.4156V247.52H88.9356V248H86.5356V247.52H86.0556V247.04H85.5756V246.56H85.0956V246.08H84.6156V239.36H85.0956V238.88H85.5756V238.4H86.0556V237.92H86.5356V237.44H88.9356V237.92H89.4156V238.4H89.8956V238.88H90.3756V239.36H90.8556V246.08ZM88.9356 239.84V239.36V238.88H86.5356V239.36H86.0556V244.64H86.5356V243.68H87.0156V242.72H87.4956V241.76H87.9756V240.8H88.4556V239.84H88.9356ZM89.4156 246.08V241.28H88.9356V242.24H88.4556V243.2H87.9756V244.16H87.4956V245.12H87.0156V246.08H86.5356V246.56H88.9356V246.08H89.4156ZM97.5787 246.08H97.0987V246.56H96.6187V247.04H96.1387V247.52H95.6587V248H93.2587V247.52H92.7787V247.04H92.2987V246.56H91.8187V246.08H91.3387V239.36H91.8187V238.88H92.2987V238.4H92.7787V237.92H93.2587V237.44H95.6587V237.92H96.1387V238.4H96.6187V238.88H97.0987V239.36H97.5787V246.08ZM95.6587 239.84V239.36V238.88H93.2587V239.36H92.7787V244.64H93.2587V243.68H93.7387V242.72H94.2187V241.76H94.6987V240.8H95.1787V239.84H95.6587ZM96.1387 246.08V241.28H95.6587V242.24H95.1787V243.2H94.6987V244.16H94.2187V245.12H93.7387V246.08H93.2587V246.56H95.6587V246.08H96.1387ZM104.302 248H98.0619V246.56H100.462V238.88H99.0219V237.44H101.902V246.56H104.302V248Z" fill="#4B4B4B"/>
<rect x="34" y="220" width="6" height="6" fill="#4B4B4B"/>
<rect x="192" y="237" width="4" height="4" fill="#4B4B4B"/>
<rect x="196" y="237" width="4" height="4" fill="#4B4B4B"/>
<rect x="192" y="241" width="4" height="4" fill="#4B4B4B"/>
<rect x="196" y="245" width="4" height="4" fill="#4B4B4B"/>
<rect x="188" y="245" width="4" height="4" fill="#4B4B4B"/>
<rect x="211" y="220" width="6" height="6" fill="#4B4B4B"/>
<rect x="34" y="334" width="6" height="6" fill="#4B4B4B"/>
<rect x="211" y="334" width="6" height="6" fill="#4B4B4B"/>
</g>
<rect x="34.5" y="220.5" width="182" height="119" stroke="#4B4B4B"/>
<g clip-path="url(#clip1_2685_16450)">
<path d="M254.24 435H252.8V430.2H249.44V435H248V424.44H249.44V428.76H252.8V424.44H254.24V435ZM260.963 435H259.523V432.6H256.163V435H254.723V431.16V430.68V429.72H255.203V428.76H255.683V427.8H256.163V426.84H256.643V425.88H257.123V424.92H257.603V424.44H258.083V424.92H258.563V425.88H259.043V426.84H259.523V427.8H260.003V428.76H260.483V429.72H260.963V430.68V431.16V435ZM259.523 431.16V430.68V430.2H259.043V429.24H258.563V428.28H258.083V427.32H257.603V428.28H257.123V429.24H256.643V430.2H256.163V430.68V431.16H259.523ZM267.686 435H266.246V434.52H265.766V433.56H265.286V432.6H264.806V431.64H264.326V430.68H263.846V429.72H263.366V428.76H262.886V435H261.446V424.44H262.406V425.4H262.886V426.36H263.366V427.32H263.846V428.28H264.326V429.24H264.806V430.2H265.286V431.16H265.766V432.12H266.246V424.44H267.686V435ZM274.409 432.6H273.929V433.08H273.449V433.56H272.969V434.04H272.489V434.52H271.993V435H268.169V424.44H272.009V424.92H272.489V425.4H272.969V425.88H273.449V426.36H273.929V426.84H274.409V432.6ZM272.969 432.12V427.32H272.489V426.84H272.009V426.36H271.529V425.88H269.609V433.56H271.529V433.08H272.009V432.6H272.489V432.12H272.969ZM281.133 433.08H280.653V433.56H280.173V434.04H279.693V434.52H279.213V435H276.812V434.52H276.332V434.04H275.852V433.56H275.372V433.08H274.892V426.36H275.372V425.88H275.852V425.4H276.332V424.92H276.812V424.44H279.213V424.92H279.693V425.4H280.173V425.88H280.653V426.36H281.133V433.08ZM279.693 432.6V426.84H279.213V426.36H278.733V425.88H277.293V426.36H276.812V426.84H276.332V432.6H276.812V433.08H277.293V433.56H278.733V433.08H279.213V432.6H279.693ZM287.856 425.88H283.056V428.76H286.416V430.2H283.056V435H281.616V424.44H287.856V425.88ZM294.579 425.88H289.779V428.76H293.139V430.2H289.779V435H288.339V424.44H294.579V425.88ZM308.025 435H307.545V434.04H307.065V433.08H306.585V432.12H306.105V431.16H305.625V430.2H305.145V429.24H304.665V430.2H304.185V431.16H303.705V432.12H303.225V433.08H302.745V434.04H302.265V435H301.785V424.44H303.225V429.72H303.705V428.76H304.185V427.8H304.665V426.84H305.145V427.8H305.625V428.76H306.105V429.72H306.585V424.44H308.025V435ZM314.748 435H308.508V433.56H310.908V425.88H309.948V424.44H313.308V425.88H312.348V433.56H314.748V435ZM321.471 425.88H319.071V435H317.631V425.88H315.231V424.44H321.471V425.88ZM328.194 435H326.754V430.2H323.394V435H321.954V424.44H323.394V428.76H326.754V424.44H328.194V435ZM341.641 432.6H341.161V433.08H340.681V433.56H340.201V434.04H339.721V434.52H339.225V435H335.401V424.44H339.241V424.92H339.721V425.4H340.201V425.88H340.681V426.36H341.161V426.84H341.641V432.6ZM340.201 432.12V427.32H339.721V426.84H339.241V426.36H338.761V425.88H336.841V433.56H338.761V433.08H339.241V432.6H339.721V432.12H340.201ZM348.364 433.08H347.884V433.56H347.404V434.04H346.924V434.52H346.444V435H344.044V434.52H343.564V434.04H343.084V433.56H342.604V433.08H342.124V426.36H342.604V425.88H343.084V425.4H343.564V424.92H344.044V424.44H346.444V424.92H346.924V425.4H347.404V425.88H347.884V426.36H348.364V433.08ZM346.924 432.6V426.84H346.444V426.36H345.964V425.88H344.524V426.36H344.044V426.84H343.564V432.6H344.044V433.08H344.524V433.56H345.964V433.08H346.444V432.6H346.924ZM355.087 433.56H354.607V434.04H354.127V434.52H353.647V435H350.767V434.52H350.287V434.04H349.807V433.56H349.327V433.08H348.847V426.36H349.327V425.88H349.807V425.4H350.287V424.92H350.767V424.44H353.647V424.92H354.127V425.4H354.607V425.88H355.087V427.32H353.647V426.36H353.167V425.88H351.247V426.36H350.767V426.84H350.287V432.6H350.767V433.08H351.247V433.56H353.167V433.08H353.647V432.12H355.087V433.56ZM361.81 433.56H361.33V434.04H360.85V434.52H360.37V435H357.01V434.52H356.53V434.04H356.05V433.56H355.57V424.44H357.01V433.08H357.49V433.56H359.89V433.08H360.37V424.44H361.81V433.56ZM368.533 435H367.093V429.72H366.613V430.68H366.133V431.64H365.653V432.6H365.173V431.64H364.693V430.68H364.213V429.72H363.733V435H362.293V424.44H362.773V425.4H363.253V426.36H363.733V427.32H364.213V428.28H364.693V429.24H365.173V430.2H365.653V429.24H366.133V428.28H366.613V427.32H367.093V426.36H367.573V425.4H368.053V424.44H368.533V435ZM375.256 435H369.016V424.44H375.256V425.88H370.456V428.76H374.296V430.2H370.456V433.56H375.256V435ZM381.979 435H380.539V434.52H380.059V433.56H379.579V432.6H379.099V431.64H378.619V430.68H378.139V429.72H377.659V428.76H377.179V435H375.739V424.44H376.699V425.4H377.179V426.36H377.659V427.32H378.139V428.28H378.619V429.24H379.099V430.2H379.579V431.16H380.059V432.12H380.539V424.44H381.979V435ZM388.702 425.88H386.302V435H384.862V425.88H382.462V424.44H388.702V425.88ZM395.426 435H393.986V432.6H390.626V435H389.186V431.16V430.68V429.72H389.666V428.76H390.146V427.8H390.626V426.84H391.106V425.88H391.586V424.92H392.066V424.44H392.546V424.92H393.026V425.88H393.506V426.84H393.986V427.8H394.466V428.76H394.946V429.72H395.426V430.68V431.16V435ZM393.986 431.16V430.68V430.2H393.506V429.24H393.026V428.28H392.546V427.32H392.066V428.28H391.586V429.24H391.106V430.2H390.626V430.68V431.16H393.986ZM402.149 425.88H399.749V435H398.309V425.88H395.909V424.44H402.149V425.88ZM408.872 435H402.632V433.56H405.032V425.88H404.072V424.44H407.432V425.88H406.472V433.56H408.872V435ZM415.595 433.08H415.115V433.56H414.635V434.04H414.155V434.52H413.675V435H411.275V434.52H410.795V434.04H410.315V433.56H409.835V433.08H409.355V426.36H409.835V425.88H410.315V425.4H410.795V424.92H411.275V424.44H413.675V424.92H414.155V425.4H414.635V425.88H415.115V426.36H415.595V433.08ZM414.155 432.6V426.84H413.675V426.36H413.195V425.88H411.755V426.36H411.275V426.84H410.795V432.6H411.275V433.08H411.755V433.56H413.195V433.08H413.675V432.6H414.155ZM422.318 435H420.878V434.52H420.398V433.56H419.918V432.6H419.438V431.64H418.958V430.68H418.478V429.72H417.998V428.76H417.518V435H416.078V424.44H417.038V425.4H417.518V426.36H417.998V427.32H418.478V428.28H418.958V429.24H419.438V430.2H419.918V431.16H420.398V432.12H420.878V424.44H422.318V435ZM435.764 431.64H429.524V430.2H435.764V431.64ZM449.211 433.08H448.731V433.56H448.251V434.04H447.771V434.52H447.291V435H444.891V434.52H444.411V434.04H443.931V433.56H443.451V433.08H442.971V426.36H443.451V425.88H443.931V425.4H444.411V424.92H444.891V424.44H447.291V424.92H447.771V425.4H448.251V425.88H448.731V426.36H449.211V433.08ZM447.771 432.6V426.84H447.291V426.36H446.811V425.88H445.371V426.36H444.891V426.84H444.411V432.6H444.891V433.08H445.371V433.56H446.811V433.08H447.291V432.6H447.771ZM455.934 435H454.494V433.08H454.014V432.12H453.534V431.16H453.054V430.2H451.134V435H449.694V424.44H454.494V424.92H454.974V425.4H455.454V425.88H455.934V428.76H455.454V429.24H454.974V429.72H454.494V430.68H454.974V431.64H455.454V432.6H455.934V435ZM454.494 428.28V426.36H454.014V425.88H451.134V428.76H454.014V428.28H454.494ZM469.38 435H467.94V434.04H467.46V433.08H466.98V432.12H466.5V431.16H466.02V430.2H465.06V430.68H464.58V435H463.14V424.44H464.58V428.76H465.06V428.28H465.54V427.8H466.02V427.32H466.5V426.84H466.98V426.36H467.46V425.864H467.94V425.4H468.42V424.92H468.9V424.44H469.38V426.36H468.9V426.84H468.42V427.32H467.94V427.784H467.46V428.28H466.98V428.76H466.5V429.24H466.98V429.72H467.46V430.68H467.94V431.64H468.42V432.6H468.9V433.56H469.38V435ZM476.103 435H469.863V424.44H476.103V425.88H471.303V428.76H475.143V430.2H471.303V433.56H476.103V435ZM482.826 435H476.586V424.44H482.826V425.88H478.026V428.76H481.866V430.2H478.026V433.56H482.826V435ZM489.549 429.24H489.069V429.72H488.589V430.2H488.109V430.68H484.749V435H483.309V424.44H488.109V424.92H488.589V425.4H489.069V425.88H489.549V429.24ZM488.109 428.76V426.36H487.629V425.88H484.749V429.24H487.629V428.76H488.109ZM502.996 433.56H502.516V434.04H502.036V434.52H501.556V435H498.196V434.52H497.716V434.04H497.236V433.56H496.756V424.44H498.196V433.08H498.676V433.56H501.076V433.08H501.556V424.44H502.996V433.56ZM509.719 433.56H509.239V434.04H508.759V434.52H508.279V435H504.919V434.52H504.439V434.04H503.959V433.56H503.479V432.12H504.919V433.08H505.399V433.56H507.799V433.08H508.279V430.68H507.799V430.2H504.919V429.72H504.439V429.24H503.959V428.76H503.479V425.88H503.959V425.4H504.439V424.92H504.919V424.44H508.279V424.92H508.759V425.4H509.239V425.88H509.719V427.32H508.279V426.36H507.799V425.88H505.399V426.36H504.919V428.28H505.399V428.76H508.279V429.24H508.759V429.72H509.239V430.2H509.719V433.56ZM523.165 433.08H522.685V433.56H522.205V434.04H521.725V434.52H521.245V435H518.845V434.52H518.365V434.04H517.885V433.56H517.405V433.08H516.925V426.36H517.405V425.88H517.885V425.4H518.365V424.92H518.845V424.44H521.245V424.92H521.725V425.4H522.205V425.88H522.685V426.36H523.165V433.08ZM521.725 432.6V426.84H521.245V426.36H520.765V425.88H519.325V426.36H518.845V426.84H518.365V432.6H518.845V433.08H519.325V433.56H520.765V433.08H521.245V432.6H521.725ZM529.888 435H528.448V434.52H527.968V433.56H527.488V432.6H527.008V431.64H526.528V430.68H526.048V429.72H525.568V428.76H525.088V435H523.648V424.44H524.608V425.4H525.088V426.36H525.568V427.32H526.048V428.28H526.528V429.24H527.008V430.2H527.488V431.16H527.968V432.12H528.448V424.44H529.888V435ZM543.334 435H541.894V432.6H538.534V435H537.094V431.16V430.68V429.72H537.574V428.76H538.054V427.8H538.534V426.84H539.014V425.88H539.494V424.92H539.974V424.44H540.454V424.92H540.934V425.88H541.414V426.84H541.894V427.8H542.374V428.76H542.854V429.72H543.334V430.68V431.16V435ZM541.894 431.16V430.68V430.2H541.414V429.24H540.934V428.28H540.454V427.32H539.974V428.28H539.494V429.24H539.014V430.2H538.534V430.68V431.16H541.894ZM550.058 433.56H549.578V434.04H549.098V434.52H548.618V435H545.258V434.52H544.778V434.04H544.298V433.56H543.818V432.12H545.258V433.08H545.738V433.56H548.138V433.08H548.618V430.68H548.138V430.2H545.258V429.72H544.778V429.24H544.298V428.76H543.818V425.88H544.298V425.4H544.778V424.92H545.258V424.44H548.618V424.92H549.098V425.4H549.578V425.88H550.058V427.32H548.618V426.36H548.138V425.88H545.738V426.36H545.258V428.28H545.738V428.76H548.618V429.24H549.098V429.72H549.578V430.2H550.058V433.56ZM563.504 425.88H563.024V426.84H562.544V427.8H562.064V428.76H561.584V429.72H561.104V435H559.664V429.72H559.184V428.76H558.704V427.8H558.224V426.84H557.744V425.88H557.264V424.44H558.704V425.4H559.184V426.36H559.664V427.32H560.144V428.28H560.624V427.32H561.104V426.36H561.584V425.4H562.064V424.44H563.504V425.88ZM570.227 433.08H569.747V433.56H569.267V434.04H568.787V434.52H568.307V435H565.907V434.52H565.427V434.04H564.947V433.56H564.467V433.08H563.987V426.36H564.467V425.88H564.947V425.4H565.427V424.92H565.907V424.44H568.307V424.92H568.787V425.4H569.267V425.88H569.747V426.36H570.227V433.08ZM568.787 432.6V426.84H568.307V426.36H567.827V425.88H566.387V426.36H565.907V426.84H565.427V432.6H565.907V433.08H566.387V433.56H567.827V433.08H568.307V432.6H568.787ZM576.95 433.56H576.47V434.04H575.99V434.52H575.51V435H572.15V434.52H571.67V434.04H571.19V433.56H570.71V424.44H572.15V433.08H572.63V433.56H575.03V433.08H575.51V424.44H576.95V433.56ZM583.673 435H582.233V433.08H581.753V432.12H581.273V431.16H580.793V430.2H578.873V435H577.433V424.44H582.233V424.92H582.713V425.4H583.193V425.88H583.673V428.76H583.193V429.24H582.713V429.72H582.233V430.68H582.713V431.64H583.193V432.6H583.673V435ZM582.233 428.28V426.36H581.753V425.88H578.873V428.76H581.753V428.28H582.233ZM254.24 444.88H251.84V454H250.4V444.88H248V443.44H254.24V444.88ZM260.963 454H254.723V443.44H260.963V444.88H256.163V447.76H260.003V449.2H256.163V452.56H260.963V454ZM267.686 454H266.246V451.6H262.886V454H261.446V450.16V449.68V448.72H261.926V447.76H262.406V446.8H262.886V445.84H263.366V444.88H263.846V443.92H264.326V443.44H264.806V443.92H265.286V444.88H265.766V445.84H266.246V446.8H266.726V447.76H267.206V448.72H267.686V449.68V450.16V454ZM266.246 450.16V449.68V449.2H265.766V448.24H265.286V447.28H264.806V446.32H264.326V447.28H263.846V448.24H263.366V449.2H262.886V449.68V450.16H266.246ZM274.409 454H272.969V448.72H272.489V449.68H272.009V450.64H271.529V451.6H271.049V450.64H270.569V449.68H270.089V448.72H269.609V454H268.169V443.44H268.649V444.4H269.129V445.36H269.609V446.32H270.089V447.28H270.569V448.24H271.049V449.2H271.529V448.24H272.009V447.28H272.489V446.32H272.969V445.36H273.449V444.4H273.929V443.44H274.409V454ZM287.856 454H287.376V453.04H286.896V452.08H286.416V451.12H285.936V450.16H285.456V449.2H284.976V448.24H284.496V449.2H284.016V450.16H283.536V451.12H283.056V452.08H282.576V453.04H282.096V454H281.616V443.44H283.056V448.72H283.536V447.76H284.016V446.8H284.496V445.84H284.976V446.8H285.456V447.76H285.936V448.72H286.416V443.44H287.856V454ZM294.579 454H288.339V443.44H294.579V444.88H289.779V447.76H293.619V449.2H289.779V452.56H294.579V454ZM298.902 445.84H297.462V443.44H298.902V445.84ZM308.025 454H306.585V452.08H306.105V451.12H305.625V450.16H305.145V449.2H303.225V454H301.785V443.44H306.585V443.92H307.065V444.4H307.545V444.88H308.025V447.76H307.545V448.24H307.065V448.72H306.585V449.68H307.065V450.64H307.545V451.6H308.025V454ZM306.585 447.28V445.36H306.105V444.88H303.225V447.76H306.105V447.28H306.585ZM314.748 454H308.508V443.44H314.748V444.88H309.948V447.76H313.788V449.2H309.948V452.56H314.748V454ZM328.194 454H326.754V453.52H326.274V452.56H325.794V451.6H325.314V450.64H324.834V449.68H324.354V448.72H323.874V447.76H323.394V454H321.954V443.44H322.914V444.4H323.394V445.36H323.874V446.32H324.354V447.28H324.834V448.24H325.314V449.2H325.794V450.16H326.274V451.12H326.754V443.44H328.194V454ZM334.917 452.08H334.437V452.56H333.957V453.04H333.477V453.52H332.997V454H330.597V453.52H330.117V453.04H329.637V452.56H329.157V452.08H328.677V445.36H329.157V444.88H329.637V444.4H330.117V443.92H330.597V443.44H332.997V443.92H333.477V444.4H333.957V444.88H334.437V445.36H334.917V452.08ZM333.477 451.6V445.84H332.997V445.36H332.517V444.88H331.077V445.36H330.597V445.84H330.117V451.6H330.597V452.08H331.077V452.56H332.517V452.08H332.997V451.6H333.477ZM341.641 444.88H339.241V454H337.801V444.88H335.401V443.44H341.641V444.88ZM354.127 445.84H352.687V443.44H354.127V445.84ZM351.727 445.84H350.287V443.44H351.727V445.84ZM361.81 451.6H361.33V452.08H360.85V452.56H360.37V453.04H359.89V453.52H359.394V454H355.57V443.44H359.41V443.92H359.89V444.4H360.37V444.88H360.85V445.36H361.33V445.84H361.81V451.6ZM360.37 451.12V446.32H359.89V445.84H359.41V445.36H358.93V444.88H357.01V452.56H358.93V452.08H359.41V451.6H359.89V451.12H360.37ZM368.533 452.08H368.053V452.56H367.573V453.04H367.093V453.52H366.613V454H364.213V453.52H363.733V453.04H363.253V452.56H362.773V452.08H362.293V445.36H362.773V444.88H363.253V444.4H363.733V443.92H364.213V443.44H366.613V443.92H367.093V444.4H367.573V444.88H368.053V445.36H368.533V452.08ZM367.093 451.6V445.84H366.613V445.36H366.133V444.88H364.693V445.36H364.213V445.84H363.733V451.6H364.213V452.08H364.693V452.56H366.133V452.08H366.613V451.6H367.093ZM375.256 454H373.816V453.52H373.336V452.56H372.856V451.6H372.376V450.64H371.896V449.68H371.416V448.72H370.936V447.76H370.456V454H369.016V443.44H369.976V444.4H370.456V445.36H370.936V446.32H371.416V447.28H371.896V448.24H372.376V449.2H372.856V450.16H373.336V451.12H373.816V443.44H375.256V454ZM381.979 454H375.739V443.44H381.979V444.88H377.179V447.76H381.019V449.2H377.179V452.56H381.979V454ZM387.742 445.84H386.302V443.44H387.742V445.84ZM385.342 445.84H383.902V443.44H385.342V445.84ZM402.149 452.56H401.669V453.04H401.189V453.52H400.709V454H397.349V453.52H396.869V453.04H396.389V452.56H395.909V443.44H397.349V452.08H397.829V452.56H400.229V452.08H400.709V443.44H402.149V452.56ZM408.872 454H407.432V453.52H406.952V452.56H406.472V451.6H405.992V450.64H405.512V449.68H405.032V448.72H404.552V447.76H404.072V454H402.632V443.44H403.592V444.4H404.072V445.36H404.552V446.32H405.032V447.28H405.512V448.24H405.992V449.2H406.472V450.16H406.952V451.12H407.432V443.44H408.872V454ZM415.595 444.88H413.195V454H411.755V444.88H409.355V443.44H415.595V444.88ZM422.318 454H416.078V452.56H418.478V444.88H417.518V443.44H420.878V444.88H419.918V452.56H422.318V454ZM429.041 454H422.801V443.44H424.241V452.56H429.041V454ZM442.487 444.88H442.007V445.84H441.527V446.8H441.047V447.76H440.567V448.72H440.087V454H438.647V448.72H438.167V447.76H437.687V446.8H437.207V445.84H436.727V444.88H436.247V443.44H437.687V444.4H438.167V445.36H438.647V446.32H439.127V447.28H439.607V446.32H440.087V445.36H440.567V444.4H441.047V443.44H442.487V444.88ZM449.211 452.08H448.731V452.56H448.251V453.04H447.771V453.52H447.291V454H444.891V453.52H444.411V453.04H443.931V452.56H443.451V452.08H442.971V445.36H443.451V444.88H443.931V444.4H444.411V443.92H444.891V443.44H447.291V443.92H447.771V444.4H448.251V444.88H448.731V445.36H449.211V452.08ZM447.771 451.6V445.84H447.291V445.36H446.811V444.88H445.371V445.36H444.891V445.84H444.411V451.6H444.891V452.08H445.371V452.56H446.811V452.08H447.291V451.6H447.771ZM455.934 452.56H455.454V453.04H454.974V453.52H454.494V454H451.134V453.52H450.654V453.04H450.174V452.56H449.694V443.44H451.134V452.08H451.614V452.56H454.014V452.08H454.494V443.44H455.934V452.56ZM469.38 452.56H468.9V453.04H468.42V453.52H467.94V454H464.58V453.52H464.1V453.04H463.62V452.56H463.14V451.12H464.58V452.08H465.06V452.56H467.46V452.08H467.94V449.68H467.46V449.2H464.58V448.72H464.1V448.24H463.62V447.76H463.14V444.88H463.62V444.4H464.1V443.92H464.58V443.44H467.94V443.92H468.42V444.4H468.9V444.88H469.38V446.32H467.94V445.36H467.46V444.88H465.06V445.36H464.58V447.28H465.06V447.76H467.94V448.24H468.42V448.72H468.9V449.2H469.38V452.56ZM476.103 454H474.663V451.6H471.303V454H469.863V450.16V449.68V448.72H470.343V447.76H470.823V446.8H471.303V445.84H471.783V444.88H472.263V443.92H472.743V443.44H473.223V443.92H473.703V444.88H474.183V445.84H474.663V446.8H475.143V447.76H475.623V448.72H476.103V449.68V450.16V454ZM474.663 450.16V449.68V449.2H474.183V448.24H473.703V447.28H473.223V446.32H472.743V447.28H472.263V448.24H471.783V449.2H471.303V449.68V450.16H474.663ZM482.826 444.88H482.346V445.84H481.866V446.8H481.386V447.76H480.906V448.72H480.426V454H478.986V448.72H478.506V447.76H478.026V446.8H477.546V445.84H477.066V444.88H476.586V443.44H478.026V444.4H478.506V445.36H478.986V446.32H479.466V447.28H479.946V446.32H480.426V445.36H480.906V444.4H481.386V443.44H482.826V444.88ZM496.273 454H495.793V453.04H495.313V452.08H494.833V451.12H494.353V450.16H493.873V449.2H493.393V448.24H492.913V449.2H492.433V450.16H491.953V451.12H491.473V452.08H490.993V453.04H490.513V454H490.033V443.44H491.473V448.72H491.953V447.76H492.433V446.8H492.913V445.84H493.393V446.8H493.873V447.76H494.353V448.72H494.833V443.44H496.273V454ZM502.996 454H496.756V443.44H502.996V444.88H498.196V447.76H502.036V449.2H498.196V452.56H502.996V454ZM516.442 454H515.002V451.6H511.642V454H510.202V450.16V449.68V448.72H510.682V447.76H511.162V446.8H511.642V445.84H512.122V444.88H512.602V443.92H513.082V443.44H513.562V443.92H514.042V444.88H514.522V445.84H515.002V446.8H515.482V447.76H515.962V448.72H516.442V449.68V450.16V454ZM515.002 450.16V449.68V449.2H514.522V448.24H514.042V447.28H513.562V446.32H513.082V447.28H512.602V448.24H512.122V449.2H511.642V449.68V450.16H515.002ZM523.165 454H521.725V452.08H521.245V451.12H520.765V450.16H520.285V449.2H518.365V454H516.925V443.44H521.725V443.92H522.205V444.4H522.685V444.88H523.165V447.76H522.685V448.24H522.205V448.72H521.725V449.68H522.205V450.64H522.685V451.6H523.165V454ZM521.725 447.28V445.36H521.245V444.88H518.365V447.76H521.245V447.28H521.725ZM529.888 454H523.648V443.44H529.888V444.88H525.088V447.76H528.928V449.2H525.088V452.56H529.888V454Z" fill="#D9D9D9"/>
<path d="M254.24 382H248V380.56H250.4V372.88H249.44V371.44H252.8V372.88H251.84V380.56H254.24V382ZM260.963 379.6H260.483V380.08H260.003V380.56H259.523V381.04H259.043V381.52H258.547V382H254.723V371.44H258.563V371.92H259.043V372.4H259.523V372.88H260.003V373.36H260.483V373.84H260.963V379.6ZM259.523 379.12V374.32H259.043V373.84H258.563V373.36H258.083V372.88H256.163V380.56H258.083V380.08H258.563V379.6H259.043V379.12H259.523ZM265.286 382H263.366V380.08H265.286V382ZM274.409 380.08H273.449V382H272.009V380.08H268.169V379.6V379.12H268.649V378.16H269.129V377.2H269.609V376.24H270.089V375.28H270.569V374.32H271.049V373.36H271.529V372.4H272.009V371.44H273.449V378.64H274.409V380.08ZM272.009 378.64V374.8H271.529V375.76H271.049V376.72H270.569V377.68H270.089V378.64H272.009ZM278.733 382H276.812V380.08H278.733V382ZM287.856 380.08H287.376V380.56H286.896V381.04H286.416V381.52H285.936V382H283.536V381.52H283.056V381.04H282.576V380.56H282.096V380.08H281.616V373.36H282.096V372.88H282.576V372.4H283.056V371.92H283.536V371.44H285.936V371.92H286.416V372.4H286.896V372.88H287.376V373.36H287.856V380.08ZM285.936 373.84V373.36V372.88H283.536V373.36H283.056V378.64H283.536V377.68H284.016V376.72H284.496V375.76H284.976V374.8H285.456V373.84H285.936ZM286.416 380.08V375.28H285.936V376.24H285.456V377.2H284.976V378.16H284.496V379.12H284.016V380.08H283.536V380.56H285.936V380.08H286.416ZM294.579 380.08H294.099V380.56H293.619V381.04H293.139V381.52H292.659V382H290.259V381.52H289.779V381.04H289.299V380.56H288.819V380.08H288.339V373.36H288.819V372.88H289.299V372.4H289.779V371.92H290.259V371.44H292.659V371.92H293.139V372.4H293.619V372.88H294.099V373.36H294.579V380.08ZM292.659 373.84V373.36V372.88H290.259V373.36H289.779V378.64H290.259V377.68H290.739V376.72H291.219V375.76H291.699V374.8H292.179V373.84H292.659ZM293.139 380.08V375.28H292.659V376.24H292.179V377.2H291.699V378.16H291.219V379.12H290.739V380.08H290.259V380.56H292.659V380.08H293.139ZM301.302 380.56H300.822V381.04H300.342V381.52H299.862V382H296.502V381.52H296.022V381.04H295.542V380.56H295.062V379.12H296.502V380.08H296.982V380.56H299.382V380.08H299.862V378.16H299.382V377.68H298.902V377.2H298.422V376.72H297.942V376.24H297.462V375.76H296.982V375.28H297.462V374.8H297.942V374.32H298.422V373.84H298.902V373.36H299.382V372.88H295.062V371.44H301.302V373.36H300.822V373.84H300.342V374.32H299.862V374.8H299.382V375.28H298.902V375.76H299.382V376.24H299.862V376.72H300.342V377.2H300.822V377.68H301.302V380.56Z" fill="#4B4B4B"/>
<rect x="231" y="354" width="6" height="6" fill="#4B4B4B"/>
<rect x="582" y="375" width="4" height="4" fill="#4B4B4B"/>
<rect x="590" y="371" width="4" height="4" fill="#4B4B4B"/>
<rect x="586" y="371" width="4" height="4" fill="#4B4B4B"/>
<rect x="586" y="375" width="4" height="4" fill="#4B4B4B"/>
<rect x="590" y="379" width="4" height="4" fill="#4B4B4B"/>
<rect x="605" y="354" width="6" height="6" fill="#4B4B4B"/>
<rect x="231" y="468" width="6" height="6" fill="#4B4B4B"/>
<rect x="605" y="468" width="6" height="6" fill="#4B4B4B"/>
</g>
<rect x="231.5" y="354.5" width="379" height="119" stroke="#4B4B4B"/>
<g clip-path="url(#clip2_2685_16450)">
<path d="M254.24 295.24H253.76V295.72H253.28V296.2H252.8V296.68H249.44V301H248V290.44H252.8V290.92H253.28V291.4H253.76V291.88H254.24V295.24ZM252.8 294.76V292.36H252.32V291.88H249.44V295.24H252.32V294.76H252.8ZM260.963 299.08H260.483V299.56H260.003V300.04H259.523V300.52H259.043V301H256.643V300.52H256.163V300.04H255.683V299.56H255.203V299.08H254.723V292.36H255.203V291.88H255.683V291.4H256.163V290.92H256.643V290.44H259.043V290.92H259.523V291.4H260.003V291.88H260.483V292.36H260.963V299.08ZM259.523 298.6V292.84H259.043V292.36H258.563V291.88H257.123V292.36H256.643V292.84H256.163V298.6H256.643V299.08H257.123V299.56H258.563V299.08H259.043V298.6H259.523ZM267.686 299.56H267.206V300.04H266.726V300.52H266.246V301H262.886V300.52H262.406V300.04H261.926V299.56H261.446V298.12H262.886V299.08H263.366V299.56H265.766V299.08H266.246V296.68H265.766V296.2H262.886V295.72H262.406V295.24H261.926V294.76H261.446V291.88H261.926V291.4H262.406V290.92H262.886V290.44H266.246V290.92H266.726V291.4H267.206V291.88H267.686V293.32H266.246V292.36H265.766V291.88H263.366V292.36H262.886V294.28H263.366V294.76H266.246V295.24H266.726V295.72H267.206V296.2H267.686V299.56ZM274.409 291.88H272.009V301H270.569V291.88H268.169V290.44H274.409V291.88ZM280.173 297.64H275.852V296.2H280.173V297.64ZM287.856 301H281.616V290.44H283.056V299.56H287.856V301ZM294.579 301H293.139V298.6H289.779V301H288.339V297.16V296.68V295.72H288.819V294.76H289.299V293.8H289.779V292.84H290.259V291.88H290.739V290.92H291.219V290.44H291.699V290.92H292.179V291.88H292.659V292.84H293.139V293.8H293.619V294.76H294.099V295.72H294.579V296.68V297.16V301ZM293.139 297.16V296.68V296.2H292.659V295.24H292.179V294.28H291.699V293.32H291.219V294.28H290.739V295.24H290.259V296.2H289.779V296.68V297.16H293.139ZM301.302 299.56H300.822V300.04H300.342V300.52H299.862V301H296.502V300.52H296.022V300.04H295.542V299.56H295.062V290.44H296.502V299.08H296.982V299.56H299.382V299.08H299.862V290.44H301.302V299.56ZM308.025 301H306.585V300.52H306.105V299.56H305.625V298.6H305.145V297.64H304.665V296.68H304.185V295.72H303.705V294.76H303.225V301H301.785V290.44H302.745V291.4H303.225V292.36H303.705V293.32H304.185V294.28H304.665V295.24H305.145V296.2H305.625V297.16H306.105V298.12H306.585V290.44H308.025V301ZM314.748 299.56H314.268V300.04H313.788V300.52H313.308V301H310.428V300.52H309.948V300.04H309.468V299.56H308.988V299.08H308.508V292.36H308.988V291.88H309.468V291.4H309.948V290.92H310.428V290.44H313.308V290.92H313.788V291.4H314.268V291.88H314.748V293.32H313.308V292.36H312.828V291.88H310.908V292.36H310.428V292.84H309.948V298.6H310.428V299.08H310.908V299.56H312.828V299.08H313.308V298.12H314.748V299.56ZM321.471 301H320.031V296.2H316.671V301H315.231V290.44H316.671V294.76H320.031V290.44H321.471V301ZM334.917 301H333.477V295.72H332.997V296.68H332.517V297.64H332.037V298.6H331.557V297.64H331.077V296.68H330.597V295.72H330.117V301H328.677V290.44H329.157V291.4H329.637V292.36H330.117V293.32H330.597V294.28H331.077V295.24H331.557V296.2H332.037V295.24H332.517V294.28H332.997V293.32H333.477V292.36H333.957V291.4H334.437V290.44H334.917V301ZM341.641 299.08H341.161V299.56H340.681V300.04H340.201V300.52H339.721V301H337.321V300.52H336.841V300.04H336.361V299.56H335.881V299.08H335.401V292.36H335.881V291.88H336.361V291.4H336.841V290.92H337.321V290.44H339.721V290.92H340.201V291.4H340.681V291.88H341.161V292.36H341.641V299.08ZM340.201 298.6V292.84H339.721V292.36H339.241V291.88H337.801V292.36H337.321V292.84H336.841V298.6H337.321V299.08H337.801V299.56H339.241V299.08H339.721V298.6H340.201ZM348.364 301H346.924V300.52H346.444V299.56H345.964V298.6H345.484V297.64H345.004V296.68H344.524V295.72H344.044V294.76H343.564V301H342.124V290.44H343.084V291.4H343.564V292.36H344.044V293.32H344.524V294.28H345.004V295.24H345.484V296.2H345.964V297.16H346.444V298.12H346.924V290.44H348.364V301ZM355.087 301H348.847V299.56H351.247V291.88H350.287V290.44H353.647V291.88H352.687V299.56H355.087V301ZM361.81 291.88H359.41V301H357.97V291.88H355.57V290.44H361.81V291.88ZM368.533 299.08H368.053V299.56H367.573V300.04H367.093V300.52H366.613V301H364.213V300.52H363.733V300.04H363.253V299.56H362.773V299.08H362.293V292.36H362.773V291.88H363.253V291.4H363.733V290.92H364.213V290.44H366.613V290.92H367.093V291.4H367.573V291.88H368.053V292.36H368.533V299.08ZM367.093 298.6V292.84H366.613V292.36H366.133V291.88H364.693V292.36H364.213V292.84H363.733V298.6H364.213V299.08H364.693V299.56H366.133V299.08H366.613V298.6H367.093ZM375.256 301H373.816V299.08H373.336V298.12H372.856V297.16H372.376V296.2H370.456V301H369.016V290.44H373.816V290.92H374.296V291.4H374.776V291.88H375.256V294.76H374.776V295.24H374.296V295.72H373.816V296.68H374.296V297.64H374.776V298.6H375.256V301ZM373.816 294.28V292.36H373.336V291.88H370.456V294.76H373.336V294.28H373.816ZM381.979 301H375.739V299.56H378.139V291.88H377.179V290.44H380.539V291.88H379.579V299.56H381.979V301ZM388.702 301H387.262V300.52H386.782V299.56H386.302V298.6H385.822V297.64H385.342V296.68H384.862V295.72H384.382V294.76H383.902V301H382.462V290.44H383.422V291.4H383.902V292.36H384.382V293.32H384.862V294.28H385.342V295.24H385.822V296.2H386.302V297.16H386.782V298.12H387.262V290.44H388.702V301ZM395.426 300.04H394.946V300.52H394.466V301H391.106V300.52H390.626V300.04H390.146V299.56H389.666V299.08H389.186V292.36H389.666V291.88H390.146V291.4H390.626V290.92H391.106V290.44H394.466V290.92H394.946V291.4H395.426V292.36H393.986V291.88H391.586V292.36H391.106V292.84H390.626V298.6H391.106V299.08H391.586V299.56H393.986V296.68H393.506V297.16H392.066V295.24H395.426V300.04ZM254.24 316.16H251.84V318.56H250.4V316.16H248V314.72H250.4V312.32H251.84V314.72H254.24V316.16ZM267.686 318.56H267.206V319.04H266.726V319.52H266.246V320H261.446V309.44H266.246V309.92H266.726V310.4H267.206V310.88H267.686V313.28H267.206V313.76H266.726V314.24H266.246V314.72H266.726V315.2H267.206V315.68H267.686V318.56ZM266.246 312.8V311.36H265.766V310.88H262.886V313.76H265.286V313.28H265.766V312.8H266.246ZM266.246 318.08V316.16H265.766V315.68H265.286V315.2H262.886V318.56H265.766V318.08H266.246ZM274.409 318.56H273.929V319.04H273.449V319.52H272.969V320H269.609V319.52H269.129V319.04H268.649V318.56H268.169V309.44H269.609V318.08H270.089V318.56H272.489V318.08H272.969V309.44H274.409V318.56ZM281.133 319.04H280.653V319.52H280.173V320H276.812V319.52H276.332V319.04H275.852V318.56H275.372V318.08H274.892V311.36H275.372V310.88H275.852V310.4H276.332V309.92H276.812V309.44H280.173V309.92H280.653V310.4H281.133V311.36H279.693V310.88H277.293V311.36H276.812V311.84H276.332V317.6H276.812V318.08H277.293V318.56H279.693V315.68H279.213V316.16H277.773V314.24H281.133V319.04ZM294.579 310.88H289.779V313.76H293.139V315.2H289.779V320H288.339V309.44H294.579V310.88ZM301.302 320H295.062V318.56H297.462V310.88H296.502V309.44H299.862V310.88H298.902V318.56H301.302V320ZM308.025 320H306.585V318.56H306.105V317.12H305.625V316.16H305.145V315.68H304.665V316.16H304.185V317.12H303.705V318.56H303.225V320H301.785V318.56H302.265V317.12H302.745V316.16H303.225V315.2H303.705V314.24H303.225V313.28H302.745V312.32H302.265V310.88H301.785V309.44H303.225V310.88H303.705V312.32H304.185V313.28H304.665V313.76H305.145V313.28H305.625V312.32H306.105V310.88H306.585V309.44H308.025V310.88H307.545V312.32H307.065V313.28H306.585V314.24H306.105V315.2H306.585V316.16H307.065V317.12H307.545V318.56H308.025V320ZM314.748 320H308.508V309.44H314.748V310.88H309.948V313.76H313.788V315.2H309.948V318.56H314.748V320ZM321.471 318.56H320.991V319.04H320.511V319.52H320.031V320H316.671V319.52H316.191V319.04H315.711V318.56H315.231V317.12H316.671V318.08H317.151V318.56H319.551V318.08H320.031V315.68H319.551V315.2H316.671V314.72H316.191V314.24H315.711V313.76H315.231V310.88H315.711V310.4H316.191V309.92H316.671V309.44H320.031V309.92H320.511V310.4H320.991V310.88H321.471V312.32H320.031V311.36H319.551V310.88H317.151V311.36H316.671V313.28H317.151V313.76H320.031V314.24H320.511V314.72H320.991V315.2H321.471V318.56Z" fill="#D9D9D9"/>
<path d="M254.24 248H248V246.56H250.4V238.88H249.44V237.44H252.8V238.88H251.84V246.56H254.24V248ZM260.963 245.6H260.483V246.08H260.003V246.56H259.523V247.04H259.043V247.52H258.547V248H254.723V237.44H258.563V237.92H259.043V238.4H259.523V238.88H260.003V239.36H260.483V239.84H260.963V245.6ZM259.523 245.12V240.32H259.043V239.84H258.563V239.36H258.083V238.88H256.163V246.56H258.083V246.08H258.563V245.6H259.043V245.12H259.523ZM265.286 248H263.366V246.08H265.286V248ZM274.409 246.08H273.449V248H272.009V246.08H268.169V245.6V245.12H268.649V244.16H269.129V243.2H269.609V242.24H270.089V241.28H270.569V240.32H271.049V239.36H271.529V238.4H272.009V237.44H273.449V244.64H274.409V246.08ZM272.009 244.64V240.8H271.529V241.76H271.049V242.72H270.569V243.68H270.089V244.64H272.009ZM278.733 248H276.812V246.08H278.733V248ZM287.856 246.08H287.376V246.56H286.896V247.04H286.416V247.52H285.936V248H283.536V247.52H283.056V247.04H282.576V246.56H282.096V246.08H281.616V239.36H282.096V238.88H282.576V238.4H283.056V237.92H283.536V237.44H285.936V237.92H286.416V238.4H286.896V238.88H287.376V239.36H287.856V246.08ZM285.936 239.84V239.36V238.88H283.536V239.36H283.056V244.64H283.536V243.68H284.016V242.72H284.496V241.76H284.976V240.8H285.456V239.84H285.936ZM286.416 246.08V241.28H285.936V242.24H285.456V243.2H284.976V244.16H284.496V245.12H284.016V246.08H283.536V246.56H285.936V246.08H286.416ZM294.579 246.08H294.099V246.56H293.619V247.04H293.139V247.52H292.659V248H290.259V247.52H289.779V247.04H289.299V246.56H288.819V246.08H288.339V239.36H288.819V238.88H289.299V238.4H289.779V237.92H290.259V237.44H292.659V237.92H293.139V238.4H293.619V238.88H294.099V239.36H294.579V246.08ZM292.659 239.84V239.36V238.88H290.259V239.36H289.779V244.64H290.259V243.68H290.739V242.72H291.219V241.76H291.699V240.8H292.179V239.84H292.659ZM293.139 246.08V241.28H292.659V242.24H292.179V243.2H291.699V244.16H291.219V245.12H290.739V246.08H290.259V246.56H292.659V246.08H293.139ZM301.302 248H295.062V244.16H295.542V243.68H296.022V243.2H296.502V242.72H296.982V242.24H298.902V241.76H299.382V241.28H299.862V239.36H299.382V238.88H296.982V239.36H296.502V240.32H295.062V238.88H295.542V238.4H296.022V237.92H296.502V237.44H299.862V237.92H300.342V238.4H300.822V238.88H301.302V241.76H300.822V242.24H300.342V242.72H299.862V243.2H299.382V243.68H297.462V244.16H296.982V244.64H296.502V246.56H301.302V248Z" fill="#4B4B4B"/>
<rect x="231" y="220" width="6" height="6" fill="#4B4B4B"/>
<rect x="385" y="241" width="4" height="4" fill="#4B4B4B"/>
<rect x="389" y="237" width="4" height="4" fill="#4B4B4B"/>
<rect x="393" y="241" width="4" height="4" fill="#4B4B4B"/>
<rect x="385" y="245" width="4" height="4" fill="#4B4B4B"/>
<rect x="389" y="245" width="4" height="4" fill="#4B4B4B"/>
<rect x="408" y="220" width="6" height="6" fill="#4B4B4B"/>
<rect x="231" y="334" width="6" height="6" fill="#4B4B4B"/>
<rect x="408" y="334" width="6" height="6" fill="#4B4B4B"/>
</g>
<rect x="231.5" y="220.5" width="182" height="119" stroke="#4B4B4B"/>
<rect x="428.5" y="220.5" width="182" height="119" rx="59.5" stroke="#4B4B4B" stroke-dasharray="2 2"/>
<path d="M498.038 318.1H497.738V318.4H497.438V318.7H497.138V319H495.038V318.7H494.738V318.4H494.438V318.1H494.138V317.2H495.038V317.8H495.338V318.1H496.838V317.8H497.138V316.3H496.838V316H495.038V315.7H494.738V315.4H494.438V315.1H494.138V313.3H494.438V313H494.738V312.7H495.038V312.4H497.138V312.7H497.438V313H497.738V313.3H498.038V314.2H497.138V313.6H496.838V313.3H495.338V313.6H495.038V314.8H495.338V315.1H497.138V315.4H497.438V315.7H497.738V316H498.038V318.1ZM502.24 319H501.34V318.7H501.04V318.1H500.74V317.5H500.44V316.9H500.14V316.3H499.84V315.7H499.54V315.1H499.24V319H498.34V312.4H498.94V313H499.24V313.6H499.54V314.2H499.84V314.8H500.14V315.4H500.44V316H500.74V316.6H501.04V317.2H501.34V312.4H502.24V319ZM504.942 316.6H503.742V315.4H504.942V316.6ZM504.942 319H503.742V317.8H504.942V319ZM514.846 317.8H514.546V318.1H514.246V318.4H513.946V318.7H513.646V319H512.146V318.7H511.846V318.4H511.546V318.1H511.246V317.8H510.946V313.6H511.246V313.3H511.546V313H511.846V312.7H512.146V312.4H513.646V312.7H513.946V313H514.246V313.3H514.546V313.6H514.846V317.8ZM513.646 313.9V313.6V313.3H512.146V313.6H511.846V316.9H512.146V316.3H512.446V315.7H512.746V315.1H513.046V314.5H513.346V313.9H513.646ZM513.946 317.8V314.8H513.646V315.4H513.346V316H513.046V316.6H512.746V317.2H512.446V317.8H512.146V318.1H513.646V317.8H513.946ZM519.048 317.8H518.748V318.1H518.448V318.4H518.148V318.7H517.848V319H516.348V318.7H516.048V318.4H515.748V318.1H515.448V317.8H515.148V313.6H515.448V313.3H515.748V313H516.048V312.7H516.348V312.4H517.848V312.7H518.148V313H518.448V313.3H518.748V313.6H519.048V317.8ZM517.848 313.9V313.6V313.3H516.348V313.6H516.048V316.9H516.348V316.3H516.648V315.7H516.948V315.1H517.248V314.5H517.548V313.9H517.848ZM518.148 317.8V314.8H517.848V315.4H517.548V316H517.248V316.6H516.948V317.2H516.648V317.8H516.348V318.1H517.848V317.8H518.148ZM523.25 319H519.35V316.6H519.65V316.3H519.95V316H520.25V315.7H520.55V315.4H521.75V315.1H522.05V314.8H522.35V313.6H522.05V313.3H520.55V313.6H520.25V314.2H519.35V313.3H519.65V313H519.95V312.7H520.25V312.4H522.35V312.7H522.65V313H522.95V313.3H523.25V315.1H522.95V315.4H522.65V315.7H522.35V316H522.05V316.3H520.85V316.6H520.55V316.9H520.25V318.1H523.25V319ZM527.452 319H523.552V318.1H525.052V313.3H524.152V312.4H525.952V318.1H527.452V319ZM531.654 316H531.354V316.6H531.054V316.9H530.754V317.2H530.454V317.5H530.154V317.8H529.854V318.1H529.554V318.4H529.254V318.7H528.954V319H528.054V318.4H528.354V318.1H528.654V317.8H528.954V317.5H529.254V317.2H529.554V316.9H529.854V316.6H530.154V316.3H528.654V316H528.354V315.7H528.054V315.4H527.754V313.3H528.054V313H528.354V312.7H528.654V312.4H530.754V312.7H531.054V313H531.354V313.3H531.654V316ZM530.754 315.1V313.6H530.454V313.3H528.954V313.6H528.654V315.1H528.954V315.4H530.454V315.1H530.754ZM535.856 317.8H535.256V319H534.356V317.8H531.956V317.5V317.2H532.256V316.6H532.556V316H532.856V315.4H533.156V314.8H533.456V314.2H533.756V313.6H534.056V313H534.356V312.4H535.256V316.9H535.856V317.8ZM534.356 316.9V314.5H534.056V315.1H533.756V315.7H533.456V316.3H533.156V316.9H534.356ZM539.458 316.9H536.758V316H539.458V316.9ZM544.26 318.1H543.96V318.4H543.66V318.7H543.36V319H541.56V318.7H541.26V318.4H540.96V318.1H540.66V317.8H540.36V313.6H540.66V313.3H540.96V313H541.26V312.7H541.56V312.4H543.36V312.7H543.66V313H543.96V313.3H544.26V314.2H543.36V313.6H543.06V313.3H541.86V313.6H541.56V313.9H541.26V317.5H541.56V317.8H541.86V318.1H543.06V317.8H543.36V317.2H544.26V318.1ZM493.836 331H492.936V327.7H492.636V328.3H492.336V328.9H492.036V329.5H491.736V328.9H491.436V328.3H491.136V327.7H490.836V331H489.936V324.4H490.236V325H490.536V325.6H490.836V326.2H491.136V326.8H491.436V327.4H491.736V328H492.036V327.4H492.336V326.8H492.636V326.2H492.936V325.6H493.236V325H493.536V324.4H493.836V331ZM498.038 331H497.138V329.5H495.038V331H494.138V328.6V328.3V327.7H494.438V327.1H494.738V326.5H495.038V325.9H495.338V325.3H495.638V324.7H495.938V324.4H496.238V324.7H496.538V325.3H496.838V325.9H497.138V326.5H497.438V327.1H497.738V327.7H498.038V328.3V328.6V331ZM497.138 328.6V328.3V328H496.838V327.4H496.538V326.8H496.238V326.2H495.938V326.8H495.638V327.4H495.338V328H495.038V328.3V328.6H497.138ZM502.24 325.3H500.74V331H499.84V325.3H498.34V324.4H502.24V325.3ZM504.942 328.6H503.742V327.4H504.942V328.6ZM504.942 331H503.742V329.8H504.942V331ZM514.846 331H513.946V329.5H511.846V331H510.946V328.6V328.3V327.7H511.246V327.1H511.546V326.5H511.846V325.9H512.146V325.3H512.446V324.7H512.746V324.4H513.046V324.7H513.346V325.3H513.646V325.9H513.946V326.5H514.246V327.1H514.546V327.7H514.846V328.3V328.6V331ZM513.946 328.6V328.3V328H513.646V327.4H513.346V326.8H513.046V326.2H512.746V326.8H512.446V327.4H512.146V328H511.846V328.3V328.6H513.946ZM519.048 331H515.148V324.4H516.048V330.1H519.048V331ZM523.25 330.1H522.95V330.4H522.65V330.7H522.35V331H520.25V330.7H519.95V330.4H519.65V330.1H519.35V327.4H519.65V326.8H519.95V326.5H520.25V326.2H520.55V325.9H520.85V325.6H521.15V325.3H521.45V325H521.75V324.7H522.05V324.4H522.95V325H522.65V325.3H522.35V325.6H522.05V325.9H521.75V326.2H521.45V326.5H521.15V326.8H520.85V327.1H522.35V327.4H522.65V327.7H522.95V328H523.25V330.1ZM522.35 329.8V328.3H522.05V328H520.55V328.3H520.25V329.8H520.55V330.1H522.05V329.8H522.35ZM527.452 329.8H527.152V330.1H526.852V330.4H526.552V330.7H526.252V331H524.752V330.7H524.452V330.4H524.152V330.1H523.852V329.8H523.552V325.6H523.852V325.3H524.152V325H524.452V324.7H524.752V324.4H526.252V324.7H526.552V325H526.852V325.3H527.152V325.6H527.452V329.8ZM526.252 325.9V325.6V325.3H524.752V325.6H524.452V328.9H524.752V328.3H525.052V327.7H525.352V327.1H525.652V326.5H525.952V325.9H526.252ZM526.552 329.8V326.8H526.252V327.4H525.952V328H525.652V328.6H525.352V329.2H525.052V329.8H524.752V330.1H526.252V329.8H526.552ZM531.654 330.1H531.354V330.4H531.054V330.7H530.754V331H528.654V330.7H528.354V330.4H528.054V330.1H527.754V327.4H528.054V326.8H528.354V326.5H528.654V326.2H528.954V325.9H529.254V325.6H529.554V325.3H529.854V325H530.154V324.7H530.454V324.4H531.354V325H531.054V325.3H530.754V325.6H530.454V325.9H530.154V326.2H529.854V326.5H529.554V326.8H529.254V327.1H530.754V327.4H531.054V327.7H531.354V328H531.654V330.1ZM530.754 329.8V328.3H530.454V328H528.954V328.3H528.654V329.8H528.954V330.1H530.454V329.8H530.754ZM535.856 331H531.956V330.1H533.456V325.3H532.556V324.4H534.356V330.1H535.856V331ZM539.458 328.9H536.758V328H539.458V328.9ZM544.26 325.3H542.76V331H541.86V325.3H540.36V324.4H544.26V325.3ZM548.462 330.1H548.162V330.4H547.862V330.7H547.562V331H545.462V330.7H545.162V330.4H544.862V330.1H544.562V327.4H544.862V326.8H545.162V326.5H545.462V326.2H545.762V325.9H546.062V325.6H546.362V325.3H546.662V325H546.962V324.7H547.262V324.4H548.162V325H547.862V325.3H547.562V325.6H547.262V325.9H546.962V326.2H546.662V326.5H546.362V326.8H546.062V327.1H547.562V327.4H547.862V327.7H548.162V328H548.462V330.1ZM547.562 329.8V328.3H547.262V328H545.762V328.3H545.462V329.8H545.762V330.1H547.262V329.8H547.562Z" fill="#4B4B4B"/>
<path d="M484.288 229.08C484.448 229.173 484.631 229.283 484.838 229.41C485.044 229.537 485.254 229.667 485.468 229.8C485.688 229.933 485.891 230.063 486.078 230.19C486.271 230.31 486.434 230.417 486.568 230.51L485.818 231.62C485.684 231.52 485.521 231.407 485.328 231.28C485.134 231.153 484.934 231.023 484.728 230.89C484.521 230.757 484.314 230.63 484.108 230.51C483.908 230.383 483.724 230.273 483.558 230.18L484.288 229.08ZM482.428 236.18C482.808 236.113 483.188 236.033 483.568 235.94C483.954 235.84 484.338 235.717 484.718 235.57C485.104 235.423 485.478 235.253 485.838 235.06C486.404 234.74 486.931 234.38 487.418 233.98C487.911 233.58 488.351 233.153 488.738 232.7C489.131 232.247 489.461 231.783 489.728 231.31L490.498 232.67C490.031 233.363 489.454 234.017 488.768 234.63C488.088 235.243 487.338 235.787 486.518 236.26C486.178 236.453 485.804 236.633 485.398 236.8C484.998 236.967 484.601 237.11 484.208 237.23C483.821 237.357 483.478 237.447 483.178 237.5L482.428 236.18ZM482.748 231.36C482.914 231.453 483.101 231.563 483.308 231.69C483.521 231.81 483.734 231.937 483.948 232.07C484.161 232.203 484.361 232.33 484.548 232.45C484.741 232.57 484.901 232.677 485.028 232.77L484.298 233.89C484.151 233.79 483.984 233.68 483.798 233.56C483.611 233.433 483.411 233.303 483.198 233.17C482.991 233.03 482.784 232.9 482.578 232.78C482.378 232.66 482.191 232.557 482.018 232.47L482.748 231.36ZM498.928 229.24C498.921 229.38 498.911 229.533 498.898 229.7C498.891 229.86 498.888 230.04 498.888 230.24C498.888 230.413 498.888 230.623 498.888 230.87C498.888 231.117 498.888 231.363 498.888 231.61C498.888 231.85 498.888 232.053 498.888 232.22C498.888 232.753 498.861 233.22 498.808 233.62C498.761 234.02 498.688 234.37 498.588 234.67C498.488 234.97 498.364 235.237 498.218 235.47C498.078 235.697 497.914 235.913 497.728 236.12C497.508 236.36 497.254 236.577 496.968 236.77C496.681 236.957 496.391 237.113 496.098 237.24C495.811 237.373 495.544 237.48 495.298 237.56L494.248 236.46C494.748 236.347 495.198 236.19 495.598 235.99C496.004 235.783 496.358 235.52 496.658 235.2C496.831 235.007 496.971 234.813 497.078 234.62C497.184 234.427 497.264 234.213 497.318 233.98C497.378 233.74 497.418 233.47 497.438 233.17C497.464 232.87 497.478 232.527 497.478 232.14C497.478 231.967 497.478 231.76 497.478 231.52C497.478 231.28 497.478 231.043 497.478 230.81C497.478 230.577 497.478 230.387 497.478 230.24C497.478 230.04 497.471 229.86 497.458 229.7C497.451 229.533 497.438 229.38 497.418 229.24H498.928ZM494.288 229.32C494.281 229.44 494.274 229.56 494.268 229.68C494.261 229.793 494.258 229.93 494.258 230.09C494.258 230.163 494.258 230.283 494.258 230.45C494.258 230.617 494.258 230.813 494.258 231.04C494.258 231.26 494.258 231.493 494.258 231.74C494.258 231.98 494.258 232.213 494.258 232.44C494.258 232.667 494.258 232.873 494.258 233.06C494.258 233.24 494.258 233.377 494.258 233.47C494.258 233.597 494.261 233.743 494.268 233.91C494.274 234.077 494.281 234.22 494.288 234.34H492.838C492.844 234.247 492.854 234.113 492.868 233.94C492.881 233.767 492.888 233.607 492.888 233.46C492.888 233.367 492.888 233.23 492.888 233.05C492.888 232.87 492.888 232.667 492.888 232.44C492.888 232.207 492.888 231.97 492.888 231.73C492.888 231.483 492.888 231.25 492.888 231.03C492.888 230.81 492.888 230.617 492.888 230.45C492.888 230.283 492.888 230.163 492.888 230.09C492.888 229.997 492.884 229.877 492.878 229.73C492.871 229.577 492.861 229.44 492.848 229.32H494.288ZM510.148 230.23C510.094 230.297 510.028 230.383 509.948 230.49C509.868 230.59 509.804 230.677 509.758 230.75C509.604 231.01 509.401 231.31 509.148 231.65C508.894 231.983 508.614 232.317 508.308 232.65C508.001 232.977 507.684 233.257 507.358 233.49L506.318 232.66C506.518 232.54 506.714 232.4 506.908 232.24C507.101 232.08 507.278 231.913 507.438 231.74C507.604 231.56 507.748 231.39 507.868 231.23C507.994 231.07 508.091 230.927 508.158 230.8C508.071 230.8 507.924 230.8 507.718 230.8C507.511 230.8 507.264 230.8 506.978 230.8C506.691 230.8 506.381 230.8 506.048 230.8C505.721 230.8 505.394 230.8 505.068 230.8C504.741 230.8 504.431 230.8 504.138 230.8C503.851 230.8 503.601 230.8 503.388 230.8C503.181 230.8 503.034 230.8 502.948 230.8C502.741 230.8 502.544 230.807 502.358 230.82C502.171 230.833 501.961 230.85 501.728 230.87V229.48C501.921 229.507 502.121 229.53 502.328 229.55C502.534 229.57 502.741 229.58 502.948 229.58C503.034 229.58 503.188 229.58 503.408 229.58C503.628 229.58 503.888 229.58 504.188 229.58C504.494 229.58 504.818 229.58 505.158 229.58C505.504 229.58 505.848 229.58 506.188 229.58C506.534 229.58 506.854 229.58 507.148 229.58C507.448 229.58 507.701 229.58 507.908 229.58C508.121 229.58 508.264 229.58 508.338 229.58C508.431 229.58 508.544 229.577 508.678 229.57C508.811 229.563 508.941 229.553 509.068 229.54C509.201 229.527 509.298 229.51 509.358 229.49L510.148 230.23ZM506.068 231.58C506.068 232.073 506.058 232.55 506.038 233.01C506.018 233.47 505.961 233.913 505.868 234.34C505.781 234.76 505.638 235.16 505.438 235.54C505.244 235.92 504.974 236.28 504.628 236.62C504.281 236.96 503.838 237.273 503.298 237.56L502.128 236.61C502.288 236.557 502.458 236.487 502.638 236.4C502.818 236.307 502.998 236.193 503.178 236.06C503.498 235.84 503.754 235.607 503.948 235.36C504.148 235.113 504.301 234.847 504.408 234.56C504.514 234.267 504.588 233.95 504.628 233.61C504.668 233.263 504.688 232.887 504.688 232.48C504.688 232.327 504.684 232.18 504.678 232.04C504.671 231.893 504.651 231.74 504.618 231.58H506.068ZM515.23 236.78C515.25 236.68 515.267 236.567 515.28 236.44C515.3 236.307 515.31 236.173 515.31 236.04C515.31 235.967 515.31 235.82 515.31 235.6C515.31 235.38 515.31 235.113 515.31 234.8C515.31 234.487 515.31 234.15 515.31 233.79C515.31 233.423 515.31 233.053 515.31 232.68C515.31 232.307 515.31 231.957 515.31 231.63C515.31 231.297 515.31 231.007 515.31 230.76C515.31 230.507 515.31 230.323 515.31 230.21C515.31 229.983 515.297 229.787 515.27 229.62C515.25 229.453 515.237 229.363 515.23 229.35H516.72C516.713 229.363 516.7 229.457 516.68 229.63C516.66 229.797 516.65 229.993 516.65 230.22C516.65 230.333 516.65 230.503 516.65 230.73C516.65 230.95 516.65 231.207 516.65 231.5C516.65 231.787 516.65 232.093 516.65 232.42C516.65 232.747 516.65 233.07 516.65 233.39C516.65 233.703 516.65 234.003 516.65 234.29C516.65 234.57 516.65 234.81 516.65 235.01C516.65 235.21 516.65 235.357 516.65 235.45C516.923 235.33 517.207 235.167 517.5 234.96C517.793 234.753 518.08 234.513 518.36 234.24C518.647 233.96 518.9 233.66 519.12 233.34L519.89 234.44C519.617 234.8 519.283 235.153 518.89 235.5C518.503 235.847 518.103 236.163 517.69 236.45C517.277 236.737 516.88 236.977 516.5 237.17C516.393 237.23 516.307 237.283 516.24 237.33C516.173 237.383 516.117 237.43 516.07 237.47L515.23 236.78ZM510.6 236.63C511.04 236.323 511.4 235.953 511.68 235.52C511.96 235.087 512.167 234.66 512.3 234.24C512.373 234.02 512.427 233.75 512.46 233.43C512.5 233.103 512.53 232.757 512.55 232.39C512.57 232.017 512.58 231.65 512.58 231.29C512.587 230.923 512.59 230.587 512.59 230.28C512.59 230.08 512.58 229.91 512.56 229.77C512.547 229.623 512.527 229.487 512.5 229.36H513.97C513.963 229.373 513.953 229.43 513.94 229.53C513.933 229.623 513.923 229.737 513.91 229.87C513.903 229.997 513.9 230.13 513.9 230.27C513.9 230.563 513.897 230.907 513.89 231.3C513.883 231.687 513.87 232.083 513.85 232.49C513.83 232.897 513.8 233.283 513.76 233.65C513.72 234.01 513.667 234.317 513.6 234.57C513.447 235.137 513.217 235.663 512.91 236.15C512.61 236.63 512.247 237.06 511.82 237.44L510.6 236.63ZM524.48 230.26C524.48 230.093 524.47 229.897 524.45 229.67C524.43 229.437 524.397 229.243 524.35 229.09H525.94C525.913 229.243 525.893 229.44 525.88 229.68C525.867 229.913 525.86 230.11 525.86 230.27C525.86 230.457 525.86 230.66 525.86 230.88C525.86 231.1 525.86 231.327 525.86 231.56C525.86 231.793 525.86 232.02 525.86 232.24C525.86 232.787 525.817 233.307 525.73 233.8C525.643 234.287 525.493 234.753 525.28 235.2C525.073 235.647 524.783 236.067 524.41 236.46C524.043 236.853 523.573 237.22 523 237.56L521.76 236.64C522.287 236.4 522.723 236.123 523.07 235.81C523.423 235.497 523.703 235.153 523.91 234.78C524.117 234.407 524.263 234.007 524.35 233.58C524.437 233.153 524.48 232.707 524.48 232.24C524.48 232.02 524.48 231.793 524.48 231.56C524.48 231.32 524.48 231.09 524.48 230.87C524.48 230.643 524.48 230.44 524.48 230.26ZM520.77 231.29C520.923 231.303 521.097 231.32 521.29 231.34C521.483 231.353 521.68 231.36 521.88 231.36C521.967 231.36 522.13 231.36 522.37 231.36C522.617 231.36 522.913 231.36 523.26 231.36C523.607 231.36 523.98 231.36 524.38 231.36C524.78 231.36 525.18 231.36 525.58 231.36C525.987 231.36 526.363 231.36 526.71 231.36C527.057 231.36 527.353 231.36 527.6 231.36C527.847 231.36 528.017 231.36 528.11 231.36C528.343 231.36 528.557 231.353 528.75 231.34C528.95 231.327 529.1 231.313 529.2 231.3V232.66C529.1 232.653 528.94 232.647 528.72 232.64C528.507 232.627 528.3 232.62 528.1 232.62C528.007 232.62 527.837 232.62 527.59 232.62C527.35 232.62 527.053 232.62 526.7 232.62C526.353 232.62 525.98 232.62 525.58 232.62C525.187 232.62 524.79 232.62 524.39 232.62C523.99 232.62 523.617 232.62 523.27 232.62C522.923 232.62 522.63 232.62 522.39 232.62C522.15 232.62 521.993 232.62 521.92 232.62C521.7 232.62 521.493 232.627 521.3 232.64C521.107 232.647 520.93 232.657 520.77 232.67V231.29ZM532.01 229.4C532.183 229.52 532.387 229.667 532.62 229.84C532.853 230.013 533.093 230.203 533.34 230.41C533.593 230.61 533.83 230.807 534.05 231C534.27 231.193 534.45 231.367 534.59 231.52L533.57 232.56C533.443 232.42 533.277 232.253 533.07 232.06C532.863 231.867 532.64 231.667 532.4 231.46C532.16 231.253 531.923 231.057 531.69 230.87C531.457 230.683 531.25 230.527 531.07 230.4L532.01 229.4ZM530.76 236.06C531.28 235.987 531.77 235.883 532.23 235.75C532.69 235.617 533.117 235.463 533.51 235.29C533.903 235.117 534.263 234.937 534.59 234.75C535.157 234.41 535.677 234.023 536.15 233.59C536.623 233.157 537.037 232.707 537.39 232.24C537.743 231.767 538.023 231.307 538.23 230.86L539.01 232.27C538.757 232.717 538.443 233.163 538.07 233.61C537.703 234.057 537.287 234.483 536.82 234.89C536.353 235.29 535.85 235.65 535.31 235.97C534.97 236.177 534.603 236.373 534.21 236.56C533.817 236.74 533.4 236.9 532.96 237.04C532.527 237.187 532.073 237.3 531.6 237.38L530.76 236.06ZM547.1 229.02C547.187 229.14 547.277 229.283 547.37 229.45C547.47 229.617 547.567 229.783 547.66 229.95C547.753 230.117 547.83 230.263 547.89 230.39L547.09 230.74C546.983 230.533 546.86 230.3 546.72 230.04C546.58 229.773 546.443 229.543 546.31 229.35L547.1 229.02ZM548.28 228.57C548.367 228.697 548.46 228.847 548.56 229.02C548.667 229.187 548.767 229.353 548.86 229.52C548.953 229.68 549.03 229.817 549.09 229.93L548.29 230.27C548.19 230.063 548.063 229.83 547.91 229.57C547.763 229.31 547.623 229.087 547.49 228.9L548.28 228.57ZM541.22 233.89C541.333 233.61 541.44 233.317 541.54 233.01C541.647 232.697 541.74 232.377 541.82 232.05C541.9 231.717 541.97 231.387 542.03 231.06C542.097 230.733 542.143 230.41 542.17 230.09L543.63 230.39C543.603 230.483 543.573 230.593 543.54 230.72C543.507 230.847 543.477 230.97 543.45 231.09C543.423 231.21 543.403 231.31 543.39 231.39C543.357 231.563 543.31 231.773 543.25 232.02C543.19 232.267 543.12 232.53 543.04 232.81C542.96 233.083 542.877 233.36 542.79 233.64C542.71 233.913 542.627 234.167 542.54 234.4C542.42 234.72 542.277 235.053 542.11 235.4C541.95 235.747 541.777 236.08 541.59 236.4C541.41 236.72 541.233 237.007 541.06 237.26L539.66 236.67C539.98 236.257 540.277 235.8 540.55 235.3C540.83 234.8 541.053 234.33 541.22 233.89ZM546.16 233.68C546.06 233.413 545.95 233.13 545.83 232.83C545.71 232.53 545.583 232.23 545.45 231.93C545.317 231.63 545.187 231.347 545.06 231.08C544.933 230.813 544.817 230.583 544.71 230.39L546.04 229.96C546.14 230.153 546.257 230.387 546.39 230.66C546.523 230.933 546.657 231.223 546.79 231.53C546.923 231.83 547.053 232.13 547.18 232.43C547.307 232.73 547.42 233 547.52 233.24C547.607 233.46 547.7 233.72 547.8 234.02C547.907 234.32 548.013 234.633 548.12 234.96C548.233 235.28 548.337 235.593 548.43 235.9C548.53 236.207 548.613 236.483 548.68 236.73L547.2 237.21C547.113 236.817 547.013 236.417 546.9 236.01C546.787 235.603 546.667 235.203 546.54 234.81C546.42 234.417 546.293 234.04 546.16 233.68ZM549.92 232.37C550.04 232.377 550.193 232.387 550.38 232.4C550.567 232.407 550.76 232.413 550.96 232.42C551.167 232.427 551.357 232.43 551.53 232.43C551.697 232.43 551.903 232.43 552.15 232.43C552.397 232.43 552.663 232.43 552.95 232.43C553.243 232.43 553.543 232.43 553.85 232.43C554.163 232.43 554.473 232.43 554.78 232.43C555.087 232.43 555.377 232.43 555.65 232.43C555.923 232.43 556.167 232.43 556.38 232.43C556.6 232.43 556.773 232.43 556.9 232.43C557.133 232.43 557.353 232.423 557.56 232.41C557.767 232.39 557.937 232.377 558.07 232.37V233.94C557.957 233.933 557.787 233.923 557.56 233.91C557.333 233.897 557.113 233.89 556.9 233.89C556.773 233.89 556.6 233.89 556.38 233.89C556.16 233.89 555.913 233.89 555.64 233.89C555.367 233.89 555.077 233.89 554.77 233.89C554.47 233.89 554.163 233.89 553.85 233.89C553.537 233.89 553.233 233.89 552.94 233.89C552.653 233.89 552.387 233.89 552.14 233.89C551.9 233.89 551.697 233.89 551.53 233.89C551.243 233.89 550.95 233.897 550.65 233.91C550.35 233.917 550.107 233.927 549.92 233.94V232.37Z" fill="#4B4B4B"/>
<rect x="34.5" y="354.5" width="182" height="119" rx="59.5" stroke="#4B4B4B" stroke-dasharray="2 2"/>
<path d="M93.5334 452.4H93.2334V452.7H92.9334V453H90.8334V452.7H90.5334V452.4H90.2334V452.1H89.9334V451.8H89.6334V447.6H89.9334V447.3H90.2334V447H90.5334V446.7H90.8334V446.4H92.9334V446.7H93.2334V447H93.5334V447.6H92.6334V447.3H91.1334V447.6H90.8334V447.9H90.5334V451.5H90.8334V451.8H91.1334V452.1H92.6334V450.3H92.3334V450.6H91.4334V449.4H93.5334V452.4ZM97.7354 453H93.8354V446.4H97.7354V447.3H94.7354V449.1H97.1354V450H94.7354V452.1H97.7354V453ZM101.937 451.8H101.637V452.1H101.337V452.4H101.037V452.7H100.737V453H99.2373V452.7H98.9373V452.4H98.6373V452.1H98.3373V451.8H98.0373V447.6H98.3373V447.3H98.6373V447H98.9373V446.7H99.2373V446.4H100.737V446.7H101.037V447H101.337V447.3H101.637V447.6H101.937V451.8ZM101.037 451.5V447.9H100.737V447.6H100.437V447.3H99.5373V447.6H99.2373V447.9H98.9373V451.5H99.2373V451.8H99.5373V452.1H100.437V451.8H100.737V451.5H101.037ZM106.139 453H105.239V449.7H104.939V450.3H104.639V450.9H104.339V451.5H104.039V450.9H103.739V450.3H103.439V449.7H103.139V453H102.239V446.4H102.539V447H102.839V447.6H103.139V448.2H103.439V448.8H103.739V449.4H104.039V450H104.339V449.4H104.639V448.8H104.939V448.2H105.239V447.6H105.539V447H105.839V446.4H106.139V453ZM110.341 454.2H106.441V453.6H110.341V454.2ZM114.543 453H113.643V450H111.543V453H110.643V446.4H111.543V449.1H113.643V446.4H114.543V453ZM118.745 453H117.845V451.5H115.745V453H114.845V450.6V450.3V449.7H115.145V449.1H115.445V448.5H115.745V447.9H116.045V447.3H116.345V446.7H116.645V446.4H116.945V446.7H117.245V447.3H117.545V447.9H117.845V448.5H118.145V449.1H118.445V449.7H118.745V450.3V450.6V453ZM117.845 450.6V450.3V450H117.545V449.4H117.245V448.8H116.945V448.2H116.645V448.8H116.345V449.4H116.045V450H115.745V450.3V450.6H117.845ZM122.947 452.1H122.647V452.4H122.347V452.7H122.047V453H119.947V452.7H119.647V452.4H119.347V452.1H119.047V451.2H119.947V451.8H120.247V452.1H121.747V451.8H122.047V450.3H121.747V450H119.947V449.7H119.647V449.4H119.347V449.1H119.047V447.3H119.347V447H119.647V446.7H119.947V446.4H122.047V446.7H122.347V447H122.647V447.3H122.947V448.2H122.047V447.6H121.747V447.3H120.247V447.6H119.947V448.8H120.247V449.1H122.047V449.4H122.347V449.7H122.647V450H122.947V452.1ZM127.149 453H126.249V450H124.149V453H123.249V446.4H124.149V449.1H126.249V446.4H127.149V453ZM129.851 450.6H128.651V449.4H129.851V450.6ZM129.851 453H128.651V451.8H129.851V453ZM139.755 452.1H139.455V452.4H139.155V452.7H138.855V453H136.755V452.7H136.455V452.4H136.155V452.1H135.855V450H136.155V449.7H136.455V449.4H136.155V449.1H135.855V447.3H136.155V447H136.455V446.7H136.755V446.4H138.855V446.7H139.155V447H139.455V447.3H139.755V449.1H139.455V449.4H139.155V449.7H139.455V450H139.755V452.1ZM138.855 448.8V447.6H138.555V447.3H137.055V447.6H136.755V448.8H137.055V449.1H138.555V448.8H138.855ZM138.855 451.8V450.3H138.555V450H137.055V450.3H136.755V451.8H137.055V452.1H138.555V451.8H138.855ZM143.957 450H143.657V450.6H143.357V450.9H143.057V451.2H142.757V451.5H142.457V451.8H142.157V452.1H141.857V452.4H141.557V452.7H141.257V453H140.357V452.4H140.657V452.1H140.957V451.8H141.257V451.5H141.557V451.2H141.857V450.9H142.157V450.6H142.457V450.3H140.957V450H140.657V449.7H140.357V449.4H140.057V447.3H140.357V447H140.657V446.7H140.957V446.4H143.057V446.7H143.357V447H143.657V447.3H143.957V450ZM143.057 449.1V447.6H142.757V447.3H141.257V447.6H140.957V449.1H141.257V449.4H142.757V449.1H143.057ZM148.159 451.5H147.859V451.8H147.559V452.1H147.259V452.4H146.959V452.7H146.649V453H144.259V446.4H146.659V446.7H146.959V447H147.259V447.3H147.559V447.6H147.859V447.9H148.159V451.5ZM147.259 451.2V448.2H146.959V447.9H146.659V447.6H146.359V447.3H145.159V452.1H146.359V451.8H146.659V451.5H146.959V451.2H147.259ZM152.361 453H148.461V450.6H148.761V450.3H149.061V450H149.361V449.7H149.661V449.4H150.861V449.1H151.161V448.8H151.461V447.6H151.161V447.3H149.661V447.6H149.361V448.2H148.461V447.3H148.761V447H149.061V446.7H149.361V446.4H151.461V446.7H151.761V447H152.061V447.3H152.361V449.1H152.061V449.4H151.761V449.7H151.461V450H151.161V450.3H149.961V450.6H149.661V450.9H149.361V452.1H152.361V453ZM156.563 447.3H153.563V449.1H155.663V450H153.563V453H152.663V446.4H156.563V447.3ZM160.765 453H159.865V451.5H157.765V453H156.865V450.6V450.3V449.7H157.165V449.1H157.465V448.5H157.765V447.9H158.065V447.3H158.365V446.7H158.665V446.4H158.965V446.7H159.265V447.3H159.565V447.9H159.865V448.5H160.165V449.1H160.465V449.7H160.765V450.3V450.6V453ZM159.865 450.6V450.3V450H159.565V449.4H159.265V448.8H158.965V448.2H158.665V448.8H158.365V449.4H158.065V450H157.765V450.3V450.6H159.865ZM101.937 464.1H101.637V464.4H101.337V464.7H101.037V465H99.2373V464.7H98.9373V464.4H98.6373V464.1H98.3373V463.8H98.0373V459.6H98.3373V459.3H98.6373V459H98.9373V458.7H99.2373V458.4H101.037V458.7H101.337V459H101.637V459.3H101.937V460.2H101.037V459.6H100.737V459.3H99.5373V459.6H99.2373V459.9H98.9373V463.5H99.2373V463.8H99.5373V464.1H100.737V463.8H101.037V463.2H101.937V464.1ZM106.139 465H105.239V462H103.139V465H102.239V458.4H103.139V461.1H105.239V458.4H106.139V465ZM110.341 465H109.441V464.4H109.141V463.8H108.841V463.2H108.541V462.6H108.241V462H107.641V462.3H107.341V465H106.441V458.4H107.341V461.1H107.641V460.8H107.941V460.5H108.241V460.2H108.541V459.9H108.841V459.6H109.141V459.29H109.441V459H109.741V458.7H110.041V458.4H110.341V459.6H110.041V459.9H109.741V460.2H109.441V460.49H109.141V460.8H108.841V461.1H108.541V461.4H108.841V461.7H109.141V462.3H109.441V462.9H109.741V463.5H110.041V464.1H110.341V465ZM113.943 462.9H111.243V462H113.943V462.9ZM118.745 461.4H118.445V462H118.145V462.6H117.845V463.2H117.545V463.8H117.245V464.4H116.945V465H116.645V464.4H116.345V463.8H116.045V463.2H115.745V462.6H115.445V462H115.145V461.4H114.845V458.4H115.745V461.1H116.045V461.7H116.345V462.3H116.645V462.9H116.945V462.3H117.245V461.7H117.545V461.1H117.845V458.4H118.745V461.4ZM122.947 465H122.047V463.8H121.747V463.2H121.447V462.6H121.147V462H119.947V465H119.047V458.4H122.047V458.7H122.347V459H122.647V459.3H122.947V461.1H122.647V461.4H122.347V461.7H122.047V462.3H122.347V462.9H122.647V463.5H122.947V465ZM122.047 460.8V459.6H121.747V459.3H119.947V461.1H121.747V460.8H122.047ZM127.149 459.3H125.649V465H124.749V459.3H123.249V458.4H127.149V459.3ZM131.351 464.1H131.051V464.4H130.751V464.7H130.451V465H128.351V464.7H128.051V464.4H127.751V464.1H127.451V463.2H128.351V463.8H128.651V464.1H130.151V463.8H130.451V462.3H130.151V462H128.351V461.7H128.051V461.4H127.751V461.1H127.451V459.3H127.751V459H128.051V458.7H128.351V458.4H130.451V458.7H130.751V459H131.051V459.3H131.351V460.2H130.451V459.6H130.151V459.3H128.651V459.6H128.351V460.8H128.651V461.1H130.451V461.4H130.751V461.7H131.051V462H131.351V464.1ZM134.053 462.6H132.853V461.4H134.053V462.6ZM134.053 465H132.853V463.8H134.053V465ZM143.957 464.1H143.657V464.4H143.357V464.7H143.057V465H140.957V464.7H140.657V464.4H140.357V464.1H140.057V462H140.357V461.7H140.657V461.4H140.357V461.1H140.057V459.3H140.357V459H140.657V458.7H140.957V458.4H143.057V458.7H143.357V459H143.657V459.3H143.957V461.1H143.657V461.4H143.357V461.7H143.657V462H143.957V464.1ZM143.057 460.8V459.6H142.757V459.3H141.257V459.6H140.957V460.8H141.257V461.1H142.757V460.8H143.057ZM143.057 463.8V462.3H142.757V462H141.257V462.3H140.957V463.8H141.257V464.1H142.757V463.8H143.057ZM148.159 463.8H147.559V465H146.659V463.8H144.259V463.5V463.2H144.559V462.6H144.859V462H145.159V461.4H145.459V460.8H145.759V460.2H146.059V459.6H146.359V459H146.659V458.4H147.559V462.9H148.159V463.8ZM146.659 462.9V460.5H146.359V461.1H146.059V461.7H145.759V462.3H145.459V462.9H146.659ZM152.361 465H148.461V462.6H148.761V462.3H149.061V462H149.361V461.7H149.661V461.4H150.861V461.1H151.161V460.8H151.461V459.6H151.161V459.3H149.661V459.6H149.361V460.2H148.461V459.3H148.761V459H149.061V458.7H149.361V458.4H151.461V458.7H151.761V459H152.061V459.3H152.361V461.1H152.061V461.4H151.761V461.7H151.461V462H151.161V462.3H149.961V462.6H149.661V462.9H149.361V464.1H152.361V465Z" fill="#4B4B4B"/>
<path d="M104.038 364.3H102.538V370H101.638V364.3H100.138V363.4H104.038V364.3ZM108.24 368.8H107.94V369.1H107.64V369.4H107.34V369.7H107.04V370H105.54V369.7H105.24V369.4H104.94V369.1H104.64V368.8H104.34V364.6H104.64V364.3H104.94V364H105.24V363.7H105.54V363.4H107.04V363.7H107.34V364H107.64V364.3H107.94V364.6H108.24V368.8ZM107.34 368.5V364.9H107.04V364.6H106.74V364.3H105.84V364.6H105.54V364.9H105.24V368.5H105.54V368.8H105.84V369.1H106.74V368.8H107.04V368.5H107.34ZM112.442 370H108.542V363.4H109.442V369.1H112.442V370ZM115.144 367.6H113.944V366.4H115.144V367.6ZM115.144 370H113.944V368.8H115.144V370ZM125.048 366.7H123.548V368.2H122.648V366.7H121.148V365.8H122.648V364.3H123.548V365.8H125.048V366.7ZM125.048 369.7H121.148V368.8H125.048V369.7ZM129.25 368.8H128.95V369.1H128.65V369.4H128.35V369.7H128.05V370H126.55V369.7H126.25V369.4H125.95V369.1H125.65V368.8H125.35V364.6H125.65V364.3H125.95V364H126.25V363.7H126.55V363.4H128.05V363.7H128.35V364H128.65V364.3H128.95V364.6H129.25V368.8ZM128.05 364.9V364.6V364.3H126.55V364.6H126.25V367.9H126.55V367.3H126.85V366.7H127.15V366.1H127.45V365.5H127.75V364.9H128.05ZM128.35 368.8V365.8H128.05V366.4H127.75V367H127.45V367.6H127.15V368.2H126.85V368.8H126.55V369.1H128.05V368.8H128.35ZM131.952 370H130.752V368.8H131.952V370ZM137.654 368.8H137.354V369.1H137.054V369.4H136.754V369.7H136.454V370H134.954V369.7H134.654V369.4H134.354V369.1H134.054V368.8H133.754V364.6H134.054V364.3H134.354V364H134.654V363.7H134.954V363.4H136.454V363.7H136.754V364H137.054V364.3H137.354V364.6H137.654V368.8ZM136.454 364.9V364.6V364.3H134.954V364.6H134.654V367.9H134.954V367.3H135.254V366.7H135.554V366.1H135.854V365.5H136.154V364.9H136.454ZM136.754 368.8V365.8H136.454V366.4H136.154V367H135.854V367.6H135.554V368.2H135.254V368.8H134.954V369.1H136.454V368.8H136.754ZM141.856 370H137.956V367.6H138.256V367.3H138.556V367H138.856V366.7H139.156V366.4H140.356V366.1H140.656V365.8H140.956V364.6H140.656V364.3H139.156V364.6H138.856V365.2H137.956V364.3H138.256V364H138.556V363.7H138.856V363.4H140.956V363.7H141.256V364H141.556V364.3H141.856V366.1H141.556V366.4H141.256V366.7H140.956V367H140.656V367.3H139.456V367.6H139.156V367.9H138.856V369.1H141.856V370ZM146.058 370H145.158V366.7H144.858V367.3H144.558V367.9H144.258V368.5H143.958V367.9H143.658V367.3H143.358V366.7H143.058V370H142.158V363.4H142.458V364H142.758V364.6H143.058V365.2H143.358V365.8H143.658V366.4H143.958V367H144.258V366.4H144.558V365.8H144.858V365.2H145.158V364.6H145.458V364H145.758V363.4H146.058V370ZM150.26 370H149.36V366.7H149.06V367.3H148.76V367.9H148.46V368.5H148.16V367.9H147.86V367.3H147.56V366.7H147.26V370H146.36V363.4H146.66V364H146.96V364.6H147.26V365.2H147.56V365.8H147.86V366.4H148.16V367H148.46V366.4H148.76V365.8H149.06V365.2H149.36V364.6H149.66V364H149.96V363.4H150.26V370Z" fill="#4B4B4B"/>
<circle cx="770" cy="313" r="19.5" stroke="#FF4000"/>
<path d="M770 294V332" stroke="#FF4000"/>
<path d="M789 313H751" stroke="#FF4000"/>
<rect x="217.25" y="280.25" width="13.5" height="0.5" fill="#4B4B4B" stroke="#4B4B4B" stroke-width="0.5"/>
<rect x="322.75" y="340.25" width="13.5" height="0.5" transform="rotate(90 322.75 340.25)" fill="#4B4B4B" stroke="#4B4B4B" stroke-width="0.5"/>
<path d="M769.646 626.854C769.841 627.049 770.158 627.049 770.353 626.854L773.535 623.672C773.73 623.476 773.73 623.16 773.535 622.964C773.34 622.769 773.023 622.769 772.828 622.964L769.999 625.793L767.171 622.964C766.976 622.769 766.659 622.769 766.464 622.964C766.268 623.16 766.268 623.476 766.464 623.672L769.646 626.854ZM495 561V561.5H496.004V561V560.5H495V561ZM498.011 561V561.5H500.019V561V560.5H498.011V561ZM502.026 561V561.5H504.034V561V560.5H502.026V561ZM506.042 561V561.5H508.049V561V560.5H506.042V561ZM510.057 561V561.5H512.064V561V560.5H510.057V561ZM514.072 561V561.5H516.079V561V560.5H514.072V561ZM518.087 561V561.5H520.095V561V560.5H518.087V561ZM522.102 561V561.5H524.11V561V560.5H522.102V561ZM526.117 561V561.5H528.125V561V560.5H526.117V561ZM530.132 561V561.5H532.14V561V560.5H530.132V561ZM534.148 561V561.5H536.155V561V560.5H534.148V561ZM538.163 561V561.5H540.17V561V560.5H538.163V561ZM542.178 561V561.5H544.185V561V560.5H542.178V561ZM546.193 561V561.5H548.201V561V560.5H546.193V561ZM550.208 561V561.5H552.216V561V560.5H550.208V561ZM554.223 561V561.5H556.231V561V560.5H554.223V561ZM558.238 561V561.5H560.246V561V560.5H558.238V561ZM562.254 561V561.5H564.261V561V560.5H562.254V561ZM566.269 561V561.5H568.276V561V560.5H566.269V561ZM570.284 561V561.5H572.291V561V560.5H570.284V561ZM574.299 561V561.5H576.307V561V560.5H574.299V561ZM578.314 561V561.5H580.322V561V560.5H578.314V561ZM582.329 561V561.5H584.337V561V560.5H582.329V561ZM586.344 561V561.5H588.352V561V560.5H586.344V561ZM590.36 561V561.5H592.367V561V560.5H590.36V561ZM594.375 561V561.5H596.382V561V560.5H594.375V561ZM598.39 561V561.5H600.397V561V560.5H598.39V561ZM602.405 561V561.5H604.413V561V560.5H602.405V561ZM606.42 561V561.5H608.428V561V560.5H606.42V561ZM610.435 561V561.5H612.443V561V560.5H610.435V561ZM614.45 561V561.5H616.458V561V560.5H614.45V561ZM618.465 561V561.5H620.473V561V560.5H618.465V561ZM622.481 561V561.5H624.488V561V560.5H622.481V561ZM626.496 561V561.5H628.503V561V560.5H626.496V561ZM630.511 561V561.5H632.518V561V560.5H630.511V561ZM634.526 561V561.5H636.534V561V560.5H634.526V561ZM638.541 561V561.5H640.549V561V560.5H638.541V561ZM642.556 561V561.5H644.564V561V560.5H642.556V561ZM646.571 561V561.5H648.579V561V560.5H646.571V561ZM650.587 561V561.5H652.594V561V560.5H650.587V561ZM654.602 561V561.5H656.609V561V560.5H654.602V561ZM658.617 561V561.5H660.624V561V560.5H658.617V561ZM662.632 561V561.5H664.64V561V560.5H662.632V561ZM666.647 561V561.5H668.655V561V560.5H666.647V561ZM670.662 561V561.5H672.67V561V560.5H670.662V561ZM674.677 561V561.5H676.685V561V560.5H674.677V561ZM678.693 561V561.5H680.7V561V560.5H678.693V561ZM682.708 561V561.5H684.715V561V560.5H682.708V561ZM686.723 561V561.5H688.73V561V560.5H686.723V561ZM690.738 561V561.5H692.746V561V560.5H690.738V561ZM694.753 561V561.5H696.761V561V560.5H694.753V561ZM698.768 561V561.5H700.776V561V560.5H698.768V561ZM702.783 561V561.5H704.791V561V560.5H702.783V561ZM706.798 561V561.5H708.806V561V560.5H706.798V561ZM710.814 561V561.5H712.821V561V560.5H710.814V561ZM714.829 561V561.5H716.836V561V560.5H714.829V561ZM718.844 561V561.5H720.851V561V560.5H718.844V561ZM722.859 561V561.5H724.867V561V560.5H722.859V561ZM726.874 561V561.5H728.882V561V560.5H726.874V561ZM730.889 561V561.5H732.897V561V560.5H730.889V561ZM734.904 561V561.5H736.912V561V560.5H734.904V561ZM738.92 561V561.5H740.927V561V560.5H738.92V561ZM742.935 561V561.5H744.942V561V560.5H742.935V561ZM746.95 561V561.5H748.957V561V560.5H746.95V561ZM750.965 561V561.5H752.973V561V560.5H750.965V561ZM754.98 561V561.5H756.988V561V560.5H754.98V561ZM758.995 561V561.5H759.999V561V560.5H758.995V561ZM759.999 561V561.5C760.314 561.5 760.625 561.515 760.931 561.545L760.98 561.047L761.028 560.55C760.69 560.517 760.346 560.5 759.999 560.5V561ZM762.903 561.428L762.758 561.907C763.359 562.089 763.934 562.328 764.478 562.62L764.714 562.179L764.95 561.738C764.349 561.416 763.712 561.151 763.048 560.95L762.903 561.428ZM766.343 563.27L766.026 563.656C766.507 564.051 766.948 564.492 767.343 564.973L767.73 564.656L768.116 564.339C767.679 563.807 767.192 563.32 766.661 562.883L766.343 563.27ZM768.82 566.285L768.379 566.521C768.671 567.065 768.911 567.641 769.093 568.241L769.571 568.096L770.05 567.951C769.848 567.287 769.583 566.65 769.261 566.049L768.82 566.285ZM769.952 570.019L769.454 570.068C769.484 570.374 769.499 570.685 769.499 571H769.999H770.499C770.499 570.653 770.482 570.31 770.449 569.971L769.952 570.019ZM769.999 571H769.499V571.991H769.999H770.499V571H769.999ZM769.999 573.973H769.499V575.955H769.999H770.499V573.973H769.999ZM769.999 577.937H769.499V579.92H769.999H770.499V577.937H769.999ZM769.999 581.902H769.499V583.884H769.999H770.499V581.902H769.999ZM769.999 585.866H769.499V587.848H769.999H770.499V585.866H769.999ZM769.999 589.83H769.499V591.812H769.999H770.499V589.83H769.999ZM769.999 593.795H769.499V595.777H769.999H770.499V593.795H769.999ZM769.999 597.759H769.499V599.741H769.999H770.499V597.759H769.999ZM769.999 601.723H769.499V603.705H769.999H770.499V601.723H769.999ZM769.999 605.688H769.499V607.67H769.999H770.499V605.688H769.999ZM769.999 609.652H769.499V611.634H769.999H770.499V609.652H769.999ZM769.999 613.616H769.499V615.598H769.999H770.499V613.616H769.999ZM769.999 617.58H769.499V619.563H769.999H770.499V617.58H769.999ZM769.999 621.545H769.499V623.527H769.999H770.499V621.545H769.999ZM769.999 625.509H769.499V626.5H769.999H770.499V625.509H769.999Z" fill="#4B4B4B"/>
<defs>
<clipPath id="clip0_2685_16450">
<rect x="34" y="220" width="183" height="120" fill="white"/>
</clipPath>
<clipPath id="clip1_2685_16450">
<rect x="231" y="354" width="380" height="120" fill="white"/>
</clipPath>
<clipPath id="clip2_2685_16450">
<rect x="231" y="220" width="183" height="120" fill="white"/>
</clipPath>
</defs>
</svg>
