<svg width="609" height="219" viewBox="0 0 609 219" fill="none" xmlns="http://www.w3.org/2000/svg">
<g clip-path="url(#clip0_2681_4124)">
<path d="M55.24 104H53.8V101.6H50.44V104H49V100.16V99.68V98.72H49.48V97.76H49.96V96.8H50.44V95.84H50.92V94.88H51.4V93.92H51.88V93.44H52.36V93.92H52.84V94.88H53.32V95.84H53.8V96.8H54.28V97.76H54.76V98.72H55.24V99.68V100.16V104ZM53.8 100.16V99.68V99.2H53.32V98.24H52.84V97.28H52.36V96.32H51.88V97.28H51.4V98.24H50.92V99.2H50.44V99.68V100.16H53.8ZM68.6863 101.6H68.2063V102.08H67.7263V102.56H67.2463V103.04H66.7663V103.52H66.2703V104H62.4462V93.44H66.2863V93.92H66.7663V94.4H67.2463V94.88H67.7263V95.36H68.2063V95.84H68.6863V101.6ZM67.2463 101.12V96.32H66.7663V95.84H66.2863V95.36H65.8063V94.88H63.8863V102.56H65.8063V102.08H66.2863V101.6H66.7663V101.12H67.2463ZM75.4094 104H69.1694V93.44H75.4094V94.88H70.6094V97.76H74.4494V99.2H70.6094V102.56H75.4094V104ZM82.1325 104H75.8925V93.44H82.1325V94.88H77.3325V97.76H81.1725V99.2H77.3325V102.56H82.1325V104ZM88.8556 98.24H88.3756V98.72H87.8956V99.2H87.4156V99.68H84.0556V104H82.6156V93.44H87.4156V93.92H87.8956V94.4H88.3756V94.88H88.8556V98.24ZM87.4156 97.76V95.36H86.9356V94.88H84.0556V98.24H86.9356V97.76H87.4156ZM94.6187 100.64H90.2987V99.2H94.6187V100.64ZM102.302 101.6H101.822V102.08H101.342V102.56H100.862V103.04H100.382V103.52H99.8859V104H96.0619V93.44H99.9019V93.92H100.382V94.4H100.862V94.88H101.342V95.36H101.822V95.84H102.302V101.6ZM100.862 101.12V96.32H100.382V95.84H99.9019V95.36H99.4219V94.88H97.5019V102.56H99.4219V102.08H99.9019V101.6H100.382V101.12H100.862ZM109.025 104H102.785V102.56H105.185V94.88H104.225V93.44H107.585V94.88H106.625V102.56H109.025V104ZM115.748 98.24H115.268V99.2H114.788V100.16H114.308V101.12H113.828V102.08H113.348V103.04H112.868V104H112.388V103.04H111.908V102.08H111.428V101.12H110.948V100.16H110.468V99.2H109.988V98.24H109.508V93.44H110.948V97.76H111.428V98.72H111.908V99.68H112.388V100.64H112.868V99.68H113.348V98.72H113.828V97.76H114.308V93.44H115.748V98.24ZM122.471 104H116.231V93.44H122.471V94.88H117.671V97.76H121.511V99.2H117.671V102.56H122.471V104ZM55.24 121.56H54.76V122.04H54.28V122.52H53.8V123H50.44V122.52H49.96V122.04H49.48V121.56H49V120.12H50.44V121.08H50.92V121.56H53.32V121.08H53.8V118.68H53.32V118.2H50.44V117.72H49.96V117.24H49.48V116.76H49V113.88H49.48V113.4H49.96V112.92H50.44V112.44H53.8V112.92H54.28V113.4H54.76V113.88H55.24V115.32H53.8V114.36H53.32V113.88H50.92V114.36H50.44V116.28H50.92V116.76H53.8V117.24H54.28V117.72H54.76V118.2H55.24V121.56ZM61.9631 123H55.7231V112.44H61.9631V113.88H57.1631V116.76H61.0031V118.2H57.1631V121.56H61.9631V123ZM68.6863 121.56H68.2063V122.04H67.7263V122.52H67.2463V123H63.8863V122.52H63.4062V122.04H62.9262V121.56H62.4462V120.12H63.8863V121.08H64.3663V121.56H66.7663V121.08H67.2463V118.68H66.7663V118.2H63.8863V117.72H63.4062V117.24H62.9262V116.76H62.4462V113.88H62.9262V113.4H63.4062V112.92H63.8863V112.44H67.2463V112.92H67.7263V113.4H68.2063V113.88H68.6863V115.32H67.2463V114.36H66.7663V113.88H64.3663V114.36H63.8863V116.28H64.3663V116.76H67.2463V117.24H67.7263V117.72H68.2063V118.2H68.6863V121.56ZM75.4094 121.56H74.9294V122.04H74.4494V122.52H73.9694V123H70.6094V122.52H70.1294V122.04H69.6494V121.56H69.1694V120.12H70.6094V121.08H71.0894V121.56H73.4894V121.08H73.9694V118.68H73.4894V118.2H70.6094V117.72H70.1294V117.24H69.6494V116.76H69.1694V113.88H69.6494V113.4H70.1294V112.92H70.6094V112.44H73.9694V112.92H74.4494V113.4H74.9294V113.88H75.4094V115.32H73.9694V114.36H73.4894V113.88H71.0894V114.36H70.6094V116.28H71.0894V116.76H73.9694V117.24H74.4494V117.72H74.9294V118.2H75.4094V121.56ZM82.1325 123H75.8925V121.56H78.2925V113.88H77.3325V112.44H80.6925V113.88H79.7325V121.56H82.1325V123ZM88.8556 121.08H88.3756V121.56H87.8956V122.04H87.4156V122.52H86.9356V123H84.5356V122.52H84.0556V122.04H83.5756V121.56H83.0956V121.08H82.6156V114.36H83.0956V113.88H83.5756V113.4H84.0556V112.92H84.5356V112.44H86.9356V112.92H87.4156V113.4H87.8956V113.88H88.3756V114.36H88.8556V121.08ZM87.4156 120.6V114.84H86.9356V114.36H86.4556V113.88H85.0156V114.36H84.5356V114.84H84.0556V120.6H84.5356V121.08H85.0156V121.56H86.4556V121.08H86.9356V120.6H87.4156ZM95.5787 123H94.1387V122.52H93.6587V121.56H93.1787V120.6H92.6987V119.64H92.2187V118.68H91.7387V117.72H91.2587V116.76H90.7787V123H89.3387V112.44H90.2987V113.4H90.7787V114.36H91.2587V115.32H91.7387V116.28H92.2187V117.24H92.6987V118.2H93.1787V119.16H93.6587V120.12H94.1387V112.44H95.5787V123ZM109.025 113.88H106.625V123H105.185V113.88H102.785V112.44H109.025V113.88ZM115.748 121.08H115.268V121.56H114.788V122.04H114.308V122.52H113.828V123H111.428V122.52H110.948V122.04H110.468V121.56H109.988V121.08H109.508V114.36H109.988V113.88H110.468V113.4H110.948V112.92H111.428V112.44H113.828V112.92H114.308V113.4H114.788V113.88H115.268V114.36H115.748V121.08ZM114.308 120.6V114.84H113.828V114.36H113.348V113.88H111.908V114.36H111.428V114.84H110.948V120.6H111.428V121.08H111.908V121.56H113.348V121.08H113.828V120.6H114.308ZM55.24 142H53.8V139.6H50.44V142H49V138.16V137.68V136.72H49.48V135.76H49.96V134.8H50.44V133.84H50.92V132.88H51.4V131.92H51.88V131.44H52.36V131.92H52.84V132.88H53.32V133.84H53.8V134.8H54.28V135.76H54.76V136.72H55.24V137.68V138.16V142ZM53.8 138.16V137.68V137.2H53.32V136.24H52.84V135.28H52.36V134.32H51.88V135.28H51.4V136.24H50.92V137.2H50.44V137.68V138.16H53.8ZM61.9631 142H55.7231V131.44H57.1631V140.56H61.9631V142ZM68.6863 142H62.4462V140.56H64.8463V132.88H63.8863V131.44H67.2463V132.88H66.2863V140.56H68.6863V142ZM75.4094 141.04H74.9294V141.52H74.4494V142H71.0894V141.52H70.6094V141.04H70.1294V140.56H69.6494V140.08H69.1694V133.36H69.6494V132.88H70.1294V132.4H70.6094V131.92H71.0894V131.44H74.4494V131.92H74.9294V132.4H75.4094V133.36H73.9694V132.88H71.5694V133.36H71.0894V133.84H70.6094V139.6H71.0894V140.08H71.5694V140.56H73.9694V137.68H73.4894V138.16H72.0494V136.24H75.4094V141.04ZM82.1325 142H80.6925V141.52H80.2125V140.56H79.7325V139.6H79.2525V138.64H78.7725V137.68H78.2925V136.72H77.8125V135.76H77.3325V142H75.8925V131.44H76.8525V132.4H77.3325V133.36H77.8125V134.32H78.2925V135.28H78.7725V136.24H79.2525V137.2H79.7325V138.16H80.2125V139.12H80.6925V131.44H82.1325V142ZM95.5787 140.08H95.0987V140.56H94.6187V141.04H94.1387V141.52H93.6587V142H91.2587V141.52H90.7787V141.04H90.2987V140.56H89.8187V140.08H89.3387V133.36H89.8187V132.88H90.2987V132.4H90.7787V131.92H91.2587V131.44H93.6587V131.92H94.1387V132.4H94.6187V132.88H95.0987V133.36H95.5787V140.08ZM94.1387 139.6V133.84H93.6587V133.36H93.1787V132.88H91.7387V133.36H91.2587V133.84H90.7787V139.6H91.2587V140.08H91.7387V140.56H93.1787V140.08H93.6587V139.6H94.1387ZM102.302 142H100.862V141.52H100.382V140.56H99.9019V139.6H99.4219V138.64H98.9419V137.68H98.4619V136.72H97.9819V135.76H97.5019V142H96.0619V131.44H97.0219V132.4H97.5019V133.36H97.9819V134.32H98.4619V135.28H98.9419V136.24H99.4219V137.2H99.9019V138.16H100.382V139.12H100.862V131.44H102.302V142ZM55.24 160.04H54.76V160.52H54.28V161H50.92V160.52H50.44V160.04H49.96V159.56H49.48V159.08H49V152.36H49.48V151.88H49.96V151.4H50.44V150.92H50.92V150.44H54.28V150.92H54.76V151.4H55.24V152.36H53.8V151.88H51.4V152.36H50.92V152.84H50.44V158.6H50.92V159.08H51.4V159.56H53.8V156.68H53.32V157.16H51.88V155.24H55.24V160.04ZM61.9631 159.08H61.4831V159.56H61.0031V160.04H60.5231V160.52H60.0431V161H57.6431V160.52H57.1631V160.04H56.6831V159.56H56.2031V159.08H55.7231V152.36H56.2031V151.88H56.6831V151.4H57.1631V150.92H57.6431V150.44H60.0431V150.92H60.5231V151.4H61.0031V151.88H61.4831V152.36H61.9631V159.08ZM60.5231 158.6V152.84H60.0431V152.36H59.5631V151.88H58.1231V152.36H57.6431V152.84H57.1631V158.6H57.6431V159.08H58.1231V159.56H59.5631V159.08H60.0431V158.6H60.5231ZM68.6863 161H67.2463V158.6H63.8863V161H62.4462V157.16V156.68V155.72H62.9262V154.76H63.4062V153.8H63.8863V152.84H64.3663V151.88H64.8463V150.92H65.3263V150.44H65.8063V150.92H66.2863V151.88H66.7663V152.84H67.2463V153.8H67.7263V154.76H68.2063V155.72H68.6863V156.68V157.16V161ZM67.2463 157.16V156.68V156.2H66.7663V155.24H66.2863V154.28H65.8063V153.32H65.3263V154.28H64.8463V155.24H64.3663V156.2H63.8863V156.68V157.16H67.2463ZM75.4094 161H69.1694V150.44H70.6094V159.56H75.4094V161ZM82.1325 159.56H81.6525V160.04H81.1725V160.52H80.6925V161H77.3325V160.52H76.8525V160.04H76.3725V159.56H75.8925V158.12H77.3325V159.08H77.8125V159.56H80.2125V159.08H80.6925V156.68H80.2125V156.2H77.3325V155.72H76.8525V155.24H76.3725V154.76H75.8925V151.88H76.3725V151.4H76.8525V150.92H77.3325V150.44H80.6925V150.92H81.1725V151.4H81.6525V151.88H82.1325V153.32H80.6925V152.36H80.2125V151.88H77.8125V152.36H77.3325V154.28H77.8125V154.76H80.6925V155.24H81.1725V155.72H81.6525V156.2H82.1325V159.56ZM85.0156 161.96H85.4956V161H84.5356V159.08H86.4556V161.96H85.9756V162.44H85.0156V161.96ZM55.24 178.56H54.76V179.04H54.28V179.52H53.8V180H50.92V179.52H50.44V179.04H49.96V178.56H49.48V178.08H49V171.36H49.48V170.88H49.96V170.4H50.44V169.92H50.92V169.44H53.8V169.92H54.28V170.4H54.76V170.88H55.24V172.32H53.8V171.36H53.32V170.88H51.4V171.36H50.92V171.84H50.44V177.6H50.92V178.08H51.4V178.56H53.32V178.08H53.8V177.12H55.24V178.56ZM61.9631 178.08H61.4831V178.56H61.0031V179.04H60.5231V179.52H60.0431V180H57.6431V179.52H57.1631V179.04H56.6831V178.56H56.2031V178.08H55.7231V171.36H56.2031V170.88H56.6831V170.4H57.1631V169.92H57.6431V169.44H60.0431V169.92H60.5231V170.4H61.0031V170.88H61.4831V171.36H61.9631V178.08ZM60.5231 177.6V171.84H60.0431V171.36H59.5631V170.88H58.1231V171.36H57.6431V171.84H57.1631V177.6H57.6431V178.08H58.1231V178.56H59.5631V178.08H60.0431V177.6H60.5231ZM68.6863 180H67.2463V179.52H66.7663V178.56H66.2863V177.6H65.8063V176.64H65.3263V175.68H64.8463V174.72H64.3663V173.76H63.8863V180H62.4462V169.44H63.4062V170.4H63.8863V171.36H64.3663V172.32H64.8463V173.28H65.3263V174.24H65.8063V175.2H66.2863V176.16H66.7663V177.12H67.2463V169.44H68.6863V180ZM75.4094 178.56H74.9294V179.04H74.4494V179.52H73.9694V180H70.6094V179.52H70.1294V179.04H69.6494V178.56H69.1694V177.12H70.6094V178.08H71.0894V178.56H73.4894V178.08H73.9694V175.68H73.4894V175.2H70.6094V174.72H70.1294V174.24H69.6494V173.76H69.1694V170.88H69.6494V170.4H70.1294V169.92H70.6094V169.44H73.9694V169.92H74.4494V170.4H74.9294V170.88H75.4094V172.32H73.9694V171.36H73.4894V170.88H71.0894V171.36H70.6094V173.28H71.0894V173.76H73.9694V174.24H74.4494V174.72H74.9294V175.2H75.4094V178.56ZM82.1325 170.88H79.7325V180H78.2925V170.88H75.8925V169.44H82.1325V170.88ZM88.8556 180H87.4156V178.08H86.9356V177.12H86.4556V176.16H85.9756V175.2H84.0556V180H82.6156V169.44H87.4156V169.92H87.8956V170.4H88.3756V170.88H88.8556V173.76H88.3756V174.24H87.8956V174.72H87.4156V175.68H87.8956V176.64H88.3756V177.6H88.8556V180ZM87.4156 173.28V171.36H86.9356V170.88H84.0556V173.76H86.9356V173.28H87.4156ZM95.5787 180H94.1387V177.6H90.7787V180H89.3387V176.16V175.68V174.72H89.8187V173.76H90.2987V172.8H90.7787V171.84H91.2587V170.88H91.7387V169.92H92.2187V169.44H92.6987V169.92H93.1787V170.88H93.6587V171.84H94.1387V172.8H94.6187V173.76H95.0987V174.72H95.5787V175.68V176.16V180ZM94.1387 176.16V175.68V175.2H93.6587V174.24H93.1787V173.28H92.6987V172.32H92.2187V173.28H91.7387V174.24H91.2587V175.2H90.7787V175.68V176.16H94.1387ZM102.302 180H96.0619V178.56H98.4619V170.88H97.5019V169.44H100.862V170.88H99.9019V178.56H102.302V180ZM109.025 180H107.585V179.52H107.105V178.56H106.625V177.6H106.145V176.64H105.665V175.68H105.185V174.72H104.705V173.76H104.225V180H102.785V169.44H103.745V170.4H104.225V171.36H104.705V172.32H105.185V173.28H105.665V174.24H106.145V175.2H106.625V176.16H107.105V177.12H107.585V169.44H109.025V180ZM115.748 170.88H113.348V180H111.908V170.88H109.508V169.44H115.748V170.88ZM122.471 178.56H121.991V179.04H121.511V179.52H121.031V180H117.671V179.52H117.191V179.04H116.711V178.56H116.231V177.12H117.671V178.08H118.151V178.56H120.551V178.08H121.031V175.68H120.551V175.2H117.671V174.72H117.191V174.24H116.711V173.76H116.231V170.88H116.711V170.4H117.191V169.92H117.671V169.44H121.031V169.92H121.511V170.4H121.991V170.88H122.471V172.32H121.031V171.36H120.551V170.88H118.151V171.36H117.671V173.28H118.151V173.76H121.031V174.24H121.511V174.72H121.991V175.2H122.471V178.56ZM125.354 180.96H125.834V180H124.874V178.08H126.794V180.96H126.314V181.44H125.354V180.96ZM55.24 199H53.8V196.6H50.44V199H49V195.16V194.68V193.72H49.48V192.76H49.96V191.8H50.44V190.84H50.92V189.88H51.4V188.92H51.88V188.44H52.36V188.92H52.84V189.88H53.32V190.84H53.8V191.8H54.28V192.76H54.76V193.72H55.24V194.68V195.16V199ZM53.8 195.16V194.68V194.2H53.32V193.24H52.84V192.28H52.36V191.32H51.88V192.28H51.4V193.24H50.92V194.2H50.44V194.68V195.16H53.8ZM61.9631 199H60.5231V198.52H60.0431V197.56H59.5631V196.6H59.0831V195.64H58.6031V194.68H58.1231V193.72H57.6431V192.76H57.1631V199H55.7231V188.44H56.6831V189.4H57.1631V190.36H57.6431V191.32H58.1231V192.28H58.6031V193.24H59.0831V194.2H59.5631V195.16H60.0431V196.12H60.5231V188.44H61.9631V199ZM68.6863 196.6H68.2063V197.08H67.7263V197.56H67.2463V198.04H66.7663V198.52H66.2703V199H62.4462V188.44H66.2863V188.92H66.7663V189.4H67.2463V189.88H67.7263V190.36H68.2063V190.84H68.6863V196.6ZM67.2463 196.12V191.32H66.7663V190.84H66.2863V190.36H65.8063V189.88H63.8863V197.56H65.8063V197.08H66.2863V196.6H66.7663V196.12H67.2463ZM82.1325 199H80.6925V197.08H80.2125V196.12H79.7325V195.16H79.2525V194.2H77.3325V199H75.8925V188.44H80.6925V188.92H81.1725V189.4H81.6525V189.88H82.1325V192.76H81.6525V193.24H81.1725V193.72H80.6925V194.68H81.1725V195.64H81.6525V196.6H82.1325V199ZM80.6925 192.28V190.36H80.2125V189.88H77.3325V192.76H80.2125V192.28H80.6925ZM88.8556 199H82.6156V197.56H85.0156V189.88H84.0556V188.44H87.4156V189.88H86.4556V197.56H88.8556V199ZM95.5787 197.56H95.0987V198.04H94.6187V198.52H94.1387V199H90.7787V198.52H90.2987V198.04H89.8187V197.56H89.3387V196.12H90.7787V197.08H91.2587V197.56H93.6587V197.08H94.1387V194.68H93.6587V194.2H90.7787V193.72H90.2987V193.24H89.8187V192.76H89.3387V189.88H89.8187V189.4H90.2987V188.92H90.7787V188.44H94.1387V188.92H94.6187V189.4H95.0987V189.88H95.5787V191.32H94.1387V190.36H93.6587V189.88H91.2587V190.36H90.7787V192.28H91.2587V192.76H94.1387V193.24H94.6187V193.72H95.0987V194.2H95.5787V197.56ZM102.302 199H100.862V198.04H100.382V197.08H99.9019V196.12H99.4219V195.16H98.9419V194.2H97.9819V194.68H97.5019V199H96.0619V188.44H97.5019V192.76H97.9819V192.28H98.4619V191.8H98.9419V191.32H99.4219V190.84H99.9019V190.36H100.382V189.864H100.862V189.4H101.342V188.92H101.822V188.44H102.302V190.36H101.822V190.84H101.342V191.32H100.862V191.784H100.382V192.28H99.9019V192.76H99.4219V193.24H99.9019V193.72H100.382V194.68H100.862V195.64H101.342V196.6H101.822V197.56H102.302V199ZM109.025 197.56H108.545V198.04H108.065V198.52H107.585V199H104.225V198.52H103.745V198.04H103.265V197.56H102.785V196.12H104.225V197.08H104.705V197.56H107.105V197.08H107.585V194.68H107.105V194.2H104.225V193.72H103.745V193.24H103.265V192.76H102.785V189.88H103.265V189.4H103.745V188.92H104.225V188.44H107.585V188.92H108.065V189.4H108.545V189.88H109.025V191.32H107.585V190.36H107.105V189.88H104.705V190.36H104.225V192.28H104.705V192.76H107.585V193.24H108.065V193.72H108.545V194.2H109.025V197.56Z" fill="#D9D9D9"/>
<path d="M55.24 28H49V26.56H51.4V18.88H50.44V17.44H53.8V18.88H52.84V26.56H55.24V28ZM61.9631 25.6H61.4831V26.08H61.0031V26.56H60.5231V27.04H60.0431V27.52H59.5471V28H55.7231V17.44H59.5631V17.92H60.0431V18.4H60.5231V18.88H61.0031V19.36H61.4831V19.84H61.9631V25.6ZM60.5231 25.12V20.32H60.0431V19.84H59.5631V19.36H59.0831V18.88H57.1631V26.56H59.0831V26.08H59.5631V25.6H60.0431V25.12H60.5231ZM66.2863 28H64.3663V26.08H66.2863V28ZM75.4094 28H69.1694V26.56H71.5694V18.88H70.1294V17.44H73.0094V26.56H75.4094V28ZM79.7325 28H77.8125V26.08H79.7325V28ZM88.8556 26.08H88.3756V26.56H87.8956V27.04H87.4156V27.52H86.9356V28H84.5356V27.52H84.0556V27.04H83.5756V26.56H83.0956V26.08H82.6156V19.36H83.0956V18.88H83.5756V18.4H84.0556V17.92H84.5356V17.44H86.9356V17.92H87.4156V18.4H87.8956V18.88H88.3756V19.36H88.8556V26.08ZM86.9356 19.84V19.36V18.88H84.5356V19.36H84.0556V24.64H84.5356V23.68H85.0156V22.72H85.4956V21.76H85.9756V20.8H86.4556V19.84H86.9356ZM87.4156 26.08V21.28H86.9356V22.24H86.4556V23.2H85.9756V24.16H85.4956V25.12H85.0156V26.08H84.5356V26.56H86.9356V26.08H87.4156ZM95.5787 26.08H95.0987V26.56H94.6187V27.04H94.1387V27.52H93.6587V28H91.2587V27.52H90.7787V27.04H90.2987V26.56H89.8187V26.08H89.3387V19.36H89.8187V18.88H90.2987V18.4H90.7787V17.92H91.2587V17.44H93.6587V17.92H94.1387V18.4H94.6187V18.88H95.0987V19.36H95.5787V26.08ZM93.6587 19.84V19.36V18.88H91.2587V19.36H90.7787V24.64H91.2587V23.68H91.7387V22.72H92.2187V21.76H92.6987V20.8H93.1787V19.84H93.6587ZM94.1387 26.08V21.28H93.6587V22.24H93.1787V23.2H92.6987V24.16H92.2187V25.12H91.7387V26.08H91.2587V26.56H93.6587V26.08H94.1387ZM102.302 28H96.0619V26.56H98.4619V18.88H97.0219V17.44H99.9019V26.56H102.302V28Z" fill="#4B4B4B"/>
<rect x="32" width="6" height="6" fill="#4B4B4B"/>
<rect x="136" y="17" width="4" height="4" fill="#4B4B4B"/>
<rect x="144" y="17" width="4" height="4" fill="#4B4B4B"/>
<rect x="140" y="21" width="4" height="4" fill="#4B4B4B"/>
<rect x="136" y="25" width="4" height="4" fill="#4B4B4B"/>
<rect x="144" y="25" width="4" height="4" fill="#4B4B4B"/>
<rect x="159" width="6" height="6" fill="#4B4B4B"/>
<rect x="32" y="213" width="6" height="6" fill="#4B4B4B"/>
<rect x="159" y="213" width="6" height="6" fill="#4B4B4B"/>
</g>
<rect x="32.5" y="0.5" width="132" height="218" stroke="#4B4B4B"/>
<g clip-path="url(#clip1_2681_4124)">
<path d="M203.24 142H202.28V141.52H201.8H201.32V142H198.92V141.52H198.44V141.04H197.96V140.56H197.48V140.08H197V133.36H197.48V132.88H197.96V132.4H198.44V131.92H198.92V131.44H201.32V131.92H201.8V132.4H202.28V132.88H202.76V133.36H203.24V140.08H202.76V140.56V141.04H203.24V142ZM201.8 139.6V133.84H201.32V133.36H200.84V132.88H199.4V133.36H198.92V133.84H198.44V139.6H198.92V140.08H199.4V140.56H200.84V140.08H200.36V139.6H199.88V139.12H199.4V138.64H199.88H200.36H200.84V139.12H201.32V139.6H201.8ZM209.963 140.56H209.483V141.04H209.003V141.52H208.523V142H205.163V141.52H204.683V141.04H204.203V140.56H203.723V131.44H205.163V140.08H205.643V140.56H208.043V140.08H208.523V131.44H209.963V140.56ZM216.686 142H210.446V140.56H212.846V132.88H211.886V131.44H215.246V132.88H214.286V140.56H216.686V142ZM223.409 140.56H222.929V141.04H222.449V141.52H221.969V142H219.089V141.52H218.609V141.04H218.129V140.56H217.649V140.08H217.169V133.36H217.649V132.88H218.129V132.4H218.609V131.92H219.089V131.44H221.969V131.92H222.449V132.4H222.929V132.88H223.409V134.32H221.969V133.36H221.489V132.88H219.569V133.36H219.089V133.84H218.609V139.6H219.089V140.08H219.569V140.56H221.489V140.08H221.969V139.12H223.409V140.56ZM230.133 142H228.693V141.04H228.213V140.08H227.733V139.12H227.253V138.16H226.773V137.2H225.812V137.68H225.332V142H223.892V131.44H225.332V135.76H225.812V135.28H226.293V134.8H226.773V134.32H227.253V133.84H227.733V133.36H228.213V132.864H228.693V132.4H229.173V131.92H229.653V131.44H230.133V133.36H229.653V133.84H229.173V134.32H228.693V134.784H228.213V135.28H227.733V135.76H227.253V136.24H227.733V136.72H228.213V137.68H228.693V138.64H229.173V139.6H229.653V140.56H230.133V142ZM243.579 132.88H241.179V142H239.739V132.88H237.339V131.44H243.579V132.88ZM250.302 142H244.062V131.44H250.302V132.88H245.502V135.76H249.342V137.2H245.502V140.56H250.302V142ZM257.025 140.56H256.545V141.04H256.065V141.52H255.585V142H252.705V141.52H252.225V141.04H251.745V140.56H251.265V140.08H250.785V133.36H251.265V132.88H251.745V132.4H252.225V131.92H252.705V131.44H255.585V131.92H256.065V132.4H256.545V132.88H257.025V134.32H255.585V133.36H255.105V132.88H253.185V133.36H252.705V133.84H252.225V139.6H252.705V140.08H253.185V140.56H255.105V140.08H255.585V139.12H257.025V140.56ZM263.748 142H262.308V137.2H258.948V142H257.508V131.44H258.948V135.76H262.308V131.44H263.748V142ZM203.24 161H201.8V158.6H198.44V161H197V157.16V156.68V155.72H197.48V154.76H197.96V153.8H198.44V152.84H198.92V151.88H199.4V150.92H199.88V150.44H200.36V150.92H200.84V151.88H201.32V152.84H201.8V153.8H202.28V154.76H202.76V155.72H203.24V156.68V157.16V161ZM201.8 157.16V156.68V156.2H201.32V155.24H200.84V154.28H200.36V153.32H199.88V154.28H199.4V155.24H198.92V156.2H198.44V156.68V157.16H201.8ZM209.963 159.56H209.483V160.04H209.003V160.52H208.523V161H205.163V160.52H204.683V160.04H204.203V159.56H203.723V150.44H205.163V159.08H205.643V159.56H208.043V159.08H208.523V150.44H209.963V159.56ZM216.686 158.6H216.206V159.08H215.726V159.56H215.246V160.04H214.766V160.52H214.27V161H210.446V150.44H214.286V150.92H214.766V151.4H215.246V151.88H215.726V152.36H216.206V152.84H216.686V158.6ZM215.246 158.12V153.32H214.766V152.84H214.286V152.36H213.806V151.88H211.886V159.56H213.806V159.08H214.286V158.6H214.766V158.12H215.246ZM223.409 161H217.169V159.56H219.569V151.88H218.609V150.44H221.969V151.88H221.009V159.56H223.409V161ZM230.133 151.88H227.733V161H226.293V151.88H223.892V150.44H230.133V151.88ZM236.856 159.56H236.376V160.04H235.896V160.52H235.416V161H232.056V160.52H231.576V160.04H231.096V159.56H230.616V158.12H232.056V159.08H232.536V159.56H234.936V159.08H235.416V156.68H234.936V156.2H232.056V155.72H231.576V155.24H231.096V154.76H230.616V151.88H231.096V151.4H231.576V150.92H232.056V150.44H235.416V150.92H235.896V151.4H236.376V151.88H236.856V153.32H235.416V152.36H234.936V151.88H232.536V152.36H232.056V154.28H232.536V154.76H235.416V155.24H235.896V155.72H236.376V156.2H236.856V159.56ZM203.24 178.08H202.76V178.56H202.28V179.04H201.8V179.52H201.32V180H198.92V179.52H198.44V179.04H197.96V178.56H197.48V178.08H197V171.36H197.48V170.88H197.96V170.4H198.44V169.92H198.92V169.44H201.32V169.92H201.8V170.4H202.28V170.88H202.76V171.36H203.24V178.08ZM201.8 177.6V171.84H201.32V171.36H200.84V170.88H199.4V171.36H198.92V171.84H198.44V177.6H198.92V178.08H199.4V178.56H200.84V178.08H201.32V177.6H201.8ZM209.963 180H208.523V178.08H208.043V177.12H207.563V176.16H207.083V175.2H205.163V180H203.723V169.44H208.523V169.92H209.003V170.4H209.483V170.88H209.963V173.76H209.483V174.24H209.003V174.72H208.523V175.68H209.003V176.64H209.483V177.6H209.963V180ZM208.523 173.28V171.36H208.043V170.88H205.163V173.76H208.043V173.28H208.523ZM223.409 170.88H218.609V173.76H221.969V175.2H218.609V180H217.169V169.44H223.409V170.88ZM230.133 180H223.892V169.44H230.133V170.88H225.332V173.76H229.173V175.2H225.332V178.56H230.133V180ZM236.856 180H235.416V177.6H232.056V180H230.616V176.16V175.68V174.72H231.096V173.76H231.576V172.8H232.056V171.84H232.536V170.88H233.016V169.92H233.496V169.44H233.976V169.92H234.456V170.88H234.936V171.84H235.416V172.8H235.896V173.76H236.376V174.72H236.856V175.68V176.16V180ZM235.416 176.16V175.68V175.2H234.936V174.24H234.456V173.28H233.976V172.32H233.496V173.28H233.016V174.24H232.536V175.2H232.056V175.68V176.16H235.416ZM243.579 178.56H243.099V179.04H242.619V179.52H242.139V180H238.779V179.52H238.299V179.04H237.819V178.56H237.339V177.12H238.779V178.08H239.259V178.56H241.659V178.08H242.139V175.68H241.659V175.2H238.779V174.72H238.299V174.24H237.819V173.76H237.339V170.88H237.819V170.4H238.299V169.92H238.779V169.44H242.139V169.92H242.619V170.4H243.099V170.88H243.579V172.32H242.139V171.36H241.659V170.88H239.259V171.36H238.779V173.28H239.259V173.76H242.139V174.24H242.619V174.72H243.099V175.2H243.579V178.56ZM250.302 180H244.062V178.56H246.462V170.88H245.502V169.44H248.862V170.88H247.902V178.56H250.302V180ZM257.025 178.56H256.545V179.04H256.065V179.52H255.585V180H250.785V169.44H255.585V169.92H256.065V170.4H256.545V170.88H257.025V173.28H256.545V173.76H256.065V174.24H255.585V174.72H256.065V175.2H256.545V175.68H257.025V178.56ZM255.585 172.8V171.36H255.105V170.88H252.225V173.76H254.625V173.28H255.105V172.8H255.585ZM255.585 178.08V176.16H255.105V175.68H254.625V175.2H252.225V178.56H255.105V178.08H255.585ZM263.748 180H257.508V178.56H259.908V170.88H258.948V169.44H262.308V170.88H261.348V178.56H263.748V180ZM270.471 180H264.231V169.44H265.671V178.56H270.471V180ZM277.194 180H270.954V178.56H273.354V170.88H272.394V169.44H275.754V170.88H274.794V178.56H277.194V180ZM283.917 170.88H281.517V180H280.077V170.88H277.677V169.44H283.917V170.88ZM290.641 170.88H290.161V171.84H289.681V172.8H289.201V173.76H288.721V174.72H288.241V180H286.801V174.72H286.321V173.76H285.841V172.8H285.361V171.84H284.881V170.88H284.401V169.44H285.841V170.4H286.321V171.36H286.801V172.32H287.281V173.28H287.761V172.32H288.241V171.36H288.721V170.4H289.201V169.44H290.641V170.88ZM203.24 197.56H202.76V198.04H202.28V198.52H201.8V199H198.92V198.52H198.44V198.04H197.96V197.56H197.48V197.08H197V190.36H197.48V189.88H197.96V189.4H198.44V188.92H198.92V188.44H201.8V188.92H202.28V189.4H202.76V189.88H203.24V191.32H201.8V190.36H201.32V189.88H199.4V190.36H198.92V190.84H198.44V196.6H198.92V197.08H199.4V197.56H201.32V197.08H201.8V196.12H203.24V197.56ZM209.963 199H208.523V194.2H205.163V199H203.723V188.44H205.163V192.76H208.523V188.44H209.963V199ZM216.686 199H210.446V188.44H216.686V189.88H211.886V192.76H215.726V194.2H211.886V197.56H216.686V199ZM223.409 197.56H222.929V198.04H222.449V198.52H221.969V199H219.089V198.52H218.609V198.04H218.129V197.56H217.649V197.08H217.169V190.36H217.649V189.88H218.129V189.4H218.609V188.92H219.089V188.44H221.969V188.92H222.449V189.4H222.929V189.88H223.409V191.32H221.969V190.36H221.489V189.88H219.569V190.36H219.089V190.84H218.609V196.6H219.089V197.08H219.569V197.56H221.489V197.08H221.969V196.12H223.409V197.56ZM230.133 199H228.693V198.04H228.213V197.08H227.733V196.12H227.253V195.16H226.773V194.2H225.812V194.68H225.332V199H223.892V188.44H225.332V192.76H225.812V192.28H226.293V191.8H226.773V191.32H227.253V190.84H227.733V190.36H228.213V189.864H228.693V189.4H229.173V188.92H229.653V188.44H230.133V190.36H229.653V190.84H229.173V191.32H228.693V191.784H228.213V192.28H227.733V192.76H227.253V193.24H227.733V193.72H228.213V194.68H228.693V195.64H229.173V196.6H229.653V197.56H230.133V199ZM236.856 197.56H236.376V198.04H235.896V198.52H235.416V199H232.056V198.52H231.576V198.04H231.096V197.56H230.616V196.12H232.056V197.08H232.536V197.56H234.936V197.08H235.416V194.68H234.936V194.2H232.056V193.72H231.576V193.24H231.096V192.76H230.616V189.88H231.096V189.4H231.576V188.92H232.056V188.44H235.416V188.92H235.896V189.4H236.376V189.88H236.856V191.32H235.416V190.36H234.936V189.88H232.536V190.36H232.056V192.28H232.536V192.76H235.416V193.24H235.896V193.72H236.376V194.2H236.856V197.56Z" fill="#D9D9D9"/>
<path d="M203.24 28H197V26.56H199.4V18.88H198.44V17.44H201.8V18.88H200.84V26.56H203.24V28ZM209.963 25.6H209.483V26.08H209.003V26.56H208.523V27.04H208.043V27.52H207.547V28H203.723V17.44H207.563V17.92H208.043V18.4H208.523V18.88H209.003V19.36H209.483V19.84H209.963V25.6ZM208.523 25.12V20.32H208.043V19.84H207.563V19.36H207.083V18.88H205.163V26.56H207.083V26.08H207.563V25.6H208.043V25.12H208.523ZM214.286 28H212.366V26.08H214.286V28ZM223.409 28H217.169V26.56H219.569V18.88H218.129V17.44H221.009V26.56H223.409V28ZM227.733 28H225.812V26.08H227.733V28ZM236.856 26.08H236.376V26.56H235.896V27.04H235.416V27.52H234.936V28H232.536V27.52H232.056V27.04H231.576V26.56H231.096V26.08H230.616V19.36H231.096V18.88H231.576V18.4H232.056V17.92H232.536V17.44H234.936V17.92H235.416V18.4H235.896V18.88H236.376V19.36H236.856V26.08ZM234.936 19.84V19.36V18.88H232.536V19.36H232.056V24.64H232.536V23.68H233.016V22.72H233.496V21.76H233.976V20.8H234.456V19.84H234.936ZM235.416 26.08V21.28H234.936V22.24H234.456V23.2H233.976V24.16H233.496V25.12H233.016V26.08H232.536V26.56H234.936V26.08H235.416ZM243.579 26.08H243.099V26.56H242.619V27.04H242.139V27.52H241.659V28H239.259V27.52H238.779V27.04H238.299V26.56H237.819V26.08H237.339V19.36H237.819V18.88H238.299V18.4H238.779V17.92H239.259V17.44H241.659V17.92H242.139V18.4H242.619V18.88H243.099V19.36H243.579V26.08ZM241.659 19.84V19.36V18.88H239.259V19.36H238.779V24.64H239.259V23.68H239.739V22.72H240.219V21.76H240.699V20.8H241.179V19.84H241.659ZM242.139 26.08V21.28H241.659V22.24H241.179V23.2H240.699V24.16H240.219V25.12H239.739V26.08H239.259V26.56H241.659V26.08H242.139ZM250.302 28H244.062V24.16H244.542V23.68H245.022V23.2H245.502V22.72H245.982V22.24H247.902V21.76H248.382V21.28H248.862V19.36H248.382V18.88H245.982V19.36H245.502V20.32H244.062V18.88H244.542V18.4H245.022V17.92H245.502V17.44H248.862V17.92H249.342V18.4H249.822V18.88H250.302V21.76H249.822V22.24H249.342V22.72H248.862V23.2H248.382V23.68H246.462V24.16H245.982V24.64H245.502V26.56H250.302V28Z" fill="#4B4B4B"/>
<rect x="180" width="6" height="6" fill="#4B4B4B"/>
<rect x="307" width="6" height="6" fill="#4B4B4B"/>
<rect x="180" y="213" width="6" height="6" fill="#4B4B4B"/>
<rect x="307" y="213" width="6" height="6" fill="#4B4B4B"/>
<rect x="288" y="17" width="4" height="4" fill="#4B4B4B"/>
<rect x="292" y="25" width="4" height="4" fill="#4B4B4B"/>
<rect x="292" y="21" width="4" height="4" fill="#4B4B4B"/>
<rect x="284" y="21" width="4" height="4" fill="#4B4B4B"/>
<rect x="288" y="25" width="4" height="4" fill="#4B4B4B"/>
</g>
<rect x="180.5" y="0.5" width="132" height="218" stroke="#4B4B4B"/>
<g clip-path="url(#clip2_2681_4124)">
<path d="M351.24 142H349.8V137.2H346.44V142H345V131.44H346.44V135.76H349.8V131.44H351.24V142ZM357.963 140.08H357.483V140.56H357.003V141.04H356.523V141.52H356.043V142H353.643V141.52H353.163V141.04H352.683V140.56H352.203V140.08H351.723V133.36H352.203V132.88H352.683V132.4H353.163V131.92H353.643V131.44H356.043V131.92H356.523V132.4H357.003V132.88H357.483V133.36H357.963V140.08ZM356.523 139.6V133.84H356.043V133.36H355.563V132.88H354.123V133.36H353.643V133.84H353.163V139.6H353.643V140.08H354.123V140.56H355.563V140.08H356.043V139.6H356.523ZM364.686 142H363.246V141.52H362.766V140.56H362.286V139.6H361.806V138.64H361.326V137.68H360.846V136.72H360.366V135.76H359.886V142H358.446V131.44H359.406V132.4H359.886V133.36H360.366V134.32H360.846V135.28H361.326V136.24H361.806V137.2H362.286V138.16H362.766V139.12H363.246V131.44H364.686V142ZM371.409 142H365.169V131.44H371.409V132.88H366.609V135.76H370.449V137.2H366.609V140.56H371.409V142ZM378.133 140.56H377.653V141.04H377.173V141.52H376.693V142H373.332V141.52H372.852V141.04H372.372V140.56H371.892V139.12H373.332V140.08H373.812V140.56H376.213V140.08H376.693V137.68H376.213V137.2H373.332V136.72H372.852V136.24H372.372V135.76H371.892V132.88H372.372V132.4H372.852V131.92H373.332V131.44H376.693V131.92H377.173V132.4H377.653V132.88H378.133V134.32H376.693V133.36H376.213V132.88H373.812V133.36H373.332V135.28H373.812V135.76H376.693V136.24H377.173V136.72H377.653V137.2H378.133V140.56ZM384.856 132.88H382.456V142H381.016V132.88H378.616V131.44H384.856V132.88ZM398.302 142H392.062V140.56H394.462V132.88H393.502V131.44H396.862V132.88H395.902V140.56H398.302V142ZM405.025 142H403.585V141.52H403.105V140.56H402.625V139.6H402.145V138.64H401.665V137.68H401.185V136.72H400.705V135.76H400.225V142H398.785V131.44H399.745V132.4H400.225V133.36H400.705V134.32H401.185V135.28H401.665V136.24H402.145V137.2H402.625V138.16H403.105V139.12H403.585V131.44H405.025V142ZM411.748 136.24H411.268V136.72H410.788V137.2H410.308V137.68H406.948V142H405.508V131.44H410.308V131.92H410.788V132.4H411.268V132.88H411.748V136.24ZM410.308 135.76V133.36H409.828V132.88H406.948V136.24H409.828V135.76H410.308ZM418.471 140.56H417.991V141.04H417.511V141.52H417.031V142H413.671V141.52H413.191V141.04H412.711V140.56H412.231V131.44H413.671V140.08H414.151V140.56H416.551V140.08H417.031V131.44H418.471V140.56ZM425.194 132.88H422.794V142H421.354V132.88H418.954V131.44H425.194V132.88ZM438.641 138.64H432.401V137.2H438.641V138.64ZM351.24 161H345V159.56H347.4V151.88H346.44V150.44H349.8V151.88H348.84V159.56H351.24V161ZM357.963 151.88H353.163V154.76H356.523V156.2H353.163V161H351.723V150.44H357.963V151.88ZM371.409 159.56H370.929V160.04H370.449V160.52H369.969V161H366.609V160.52H366.129V160.04H365.649V159.56H365.169V158.12H366.609V159.08H367.089V159.56H369.489V159.08H369.969V156.68H369.489V156.2H366.609V155.72H366.129V155.24H365.649V154.76H365.169V151.88H365.649V151.4H366.129V150.92H366.609V150.44H369.969V150.92H370.449V151.4H370.929V151.88H371.409V153.32H369.969V152.36H369.489V151.88H367.089V152.36H366.609V154.28H367.089V154.76H369.969V155.24H370.449V155.72H370.929V156.2H371.409V159.56ZM378.133 159.08H377.653V159.56H377.173V160.04H376.693V160.52H376.213V161H373.812V160.52H373.332V160.04H372.852V159.56H372.372V159.08H371.892V152.36H372.372V151.88H372.852V151.4H373.332V150.92H373.812V150.44H376.213V150.92H376.693V151.4H377.173V151.88H377.653V152.36H378.133V159.08ZM376.693 158.6V152.84H376.213V152.36H375.733V151.88H374.293V152.36H373.812V152.84H373.332V158.6H373.812V159.08H374.293V159.56H375.733V159.08H376.213V158.6H376.693ZM384.856 161H383.416V155.72H382.936V156.68H382.456V157.64H381.976V158.6H381.496V157.64H381.016V156.68H380.536V155.72H380.056V161H378.616V150.44H379.096V151.4H379.576V152.36H380.056V153.32H380.536V154.28H381.016V155.24H381.496V156.2H381.976V155.24H382.456V154.28H382.936V153.32H383.416V152.36H383.896V151.4H384.376V150.44H384.856V161ZM391.579 161H385.339V150.44H391.579V151.88H386.779V154.76H390.619V156.2H386.779V159.56H391.579V161ZM398.302 151.88H395.902V161H394.462V151.88H392.062V150.44H398.302V151.88ZM405.025 161H403.585V156.2H400.225V161H398.785V150.44H400.225V154.76H403.585V150.44H405.025V161ZM411.748 161H405.508V159.56H407.908V151.88H406.948V150.44H410.308V151.88H409.348V159.56H411.748V161ZM418.471 161H417.031V160.52H416.551V159.56H416.071V158.6H415.591V157.64H415.111V156.68H414.631V155.72H414.151V154.76H413.671V161H412.231V150.44H413.191V151.4H413.671V152.36H414.151V153.32H414.631V154.28H415.111V155.24H415.591V156.2H416.071V157.16H416.551V158.12H417.031V150.44H418.471V161ZM425.194 160.04H424.714V160.52H424.234V161H420.874V160.52H420.394V160.04H419.914V159.56H419.434V159.08H418.954V152.36H419.434V151.88H419.914V151.4H420.394V150.92H420.874V150.44H424.234V150.92H424.714V151.4H425.194V152.36H423.754V151.88H421.354V152.36H420.874V152.84H420.394V158.6H420.874V159.08H421.354V159.56H423.754V156.68H423.274V157.16H421.834V155.24H425.194V160.04ZM429.517 152.84H428.077V150.44H429.517V152.84ZM438.641 159.56H438.161V160.04H437.681V160.52H437.201V161H433.841V160.52H433.361V160.04H432.881V159.56H432.401V158.12H433.841V159.08H434.321V159.56H436.721V159.08H437.201V156.68H436.721V156.2H433.841V155.72H433.361V155.24H432.881V154.76H432.401V151.88H432.881V151.4H433.361V150.92H433.841V150.44H437.201V150.92H437.681V151.4H438.161V151.88H438.641V153.32H437.201V152.36H436.721V151.88H434.321V152.36H433.841V154.28H434.321V154.76H437.201V155.24H437.681V155.72H438.161V156.2H438.641V159.56ZM351.24 180H349.8V177.6H346.44V180H345V176.16V175.68V174.72H345.48V173.76H345.96V172.8H346.44V171.84H346.92V170.88H347.4V169.92H347.88V169.44H348.36V169.92H348.84V170.88H349.32V171.84H349.8V172.8H350.28V173.76H350.76V174.72H351.24V175.68V176.16V180ZM349.8 176.16V175.68V175.2H349.32V174.24H348.84V173.28H348.36V172.32H347.88V173.28H347.4V174.24H346.92V175.2H346.44V175.68V176.16H349.8ZM364.686 178.56H364.206V179.04H363.726V179.52H363.246V180H358.446V169.44H363.246V169.92H363.726V170.4H364.206V170.88H364.686V173.28H364.206V173.76H363.726V174.24H363.246V174.72H363.726V175.2H364.206V175.68H364.686V178.56ZM363.246 172.8V171.36H362.766V170.88H359.886V173.76H362.286V173.28H362.766V172.8H363.246ZM363.246 178.08V176.16H362.766V175.68H362.286V175.2H359.886V178.56H362.766V178.08H363.246ZM371.409 180H369.969V177.6H366.609V180H365.169V176.16V175.68V174.72H365.649V173.76H366.129V172.8H366.609V171.84H367.089V170.88H367.569V169.92H368.049V169.44H368.529V169.92H369.009V170.88H369.489V171.84H369.969V172.8H370.449V173.76H370.929V174.72H371.409V175.68V176.16V180ZM369.969 176.16V175.68V175.2H369.489V174.24H369.009V173.28H368.529V172.32H368.049V173.28H367.569V174.24H367.089V175.2H366.609V175.68V176.16H369.969ZM378.133 177.6H377.653V178.08H377.173V178.56H376.693V179.04H376.213V179.52H375.717V180H371.892V169.44H375.733V169.92H376.213V170.4H376.693V170.88H377.173V171.36H377.653V171.84H378.133V177.6ZM376.693 177.12V172.32H376.213V171.84H375.733V171.36H375.253V170.88H373.332V178.56H375.253V178.08H375.733V177.6H376.213V177.12H376.693ZM391.579 180H385.339V178.56H387.739V170.88H386.779V169.44H390.139V170.88H389.179V178.56H391.579V180ZM398.302 177.6H397.822V178.08H397.342V178.56H396.862V179.04H396.382V179.52H395.886V180H392.062V169.44H395.902V169.92H396.382V170.4H396.862V170.88H397.342V171.36H397.822V171.84H398.302V177.6ZM396.862 177.12V172.32H396.382V171.84H395.902V171.36H395.422V170.88H393.502V178.56H395.422V178.08H395.902V177.6H396.382V177.12H396.862ZM405.025 180H398.785V169.44H405.025V170.88H400.225V173.76H404.065V175.2H400.225V178.56H405.025V180ZM411.748 180H410.308V177.6H406.948V180H405.508V176.16V175.68V174.72H405.988V173.76H406.468V172.8H406.948V171.84H407.428V170.88H407.908V169.92H408.388V169.44H408.868V169.92H409.348V170.88H409.828V171.84H410.308V172.8H410.788V173.76H411.268V174.72H411.748V175.68V176.16V180ZM410.308 176.16V175.68V175.2H409.828V174.24H409.348V173.28H408.868V172.32H408.388V173.28H407.908V174.24H407.428V175.2H406.948V175.68V176.16H410.308ZM414.631 180.96H415.111V180H414.151V178.08H416.071V180.96H415.591V181.44H414.631V180.96ZM351.24 199H350.76V198.04H350.28V197.08H349.8V196.12H349.32V195.16H348.84V194.2H348.36V193.24H347.88V194.2H347.4V195.16H346.92V196.12H346.44V197.08H345.96V198.04H345.48V199H345V188.44H346.44V193.72H346.92V192.76H347.4V191.8H347.88V190.84H348.36V191.8H348.84V192.76H349.32V193.72H349.8V188.44H351.24V199ZM357.963 199H351.723V188.44H357.963V189.88H353.163V192.76H357.003V194.2H353.163V197.56H357.963V199ZM362.286 190.84H360.846V188.44H362.286V190.84ZM371.409 199H365.169V188.44H366.609V197.56H371.409V199ZM378.133 199H371.892V188.44H373.332V197.56H378.133V199ZM391.579 189.88H389.179V199H387.739V189.88H385.339V188.44H391.579V189.88ZM398.302 199H392.062V188.44H398.302V189.88H393.502V192.76H397.342V194.2H393.502V197.56H398.302V199ZM405.025 199H398.785V188.44H400.225V197.56H405.025V199ZM411.748 199H405.508V188.44H406.948V197.56H411.748V199ZM425.194 189.88H424.714V190.84H424.234V191.8H423.754V192.76H423.274V193.72H422.794V199H421.354V193.72H420.874V192.76H420.394V191.8H419.914V190.84H419.434V189.88H418.954V188.44H420.394V189.4H420.874V190.36H421.354V191.32H421.834V192.28H422.314V191.32H422.794V190.36H423.274V189.4H423.754V188.44H425.194V189.88ZM431.917 197.08H431.437V197.56H430.957V198.04H430.477V198.52H429.997V199H427.597V198.52H427.117V198.04H426.637V197.56H426.157V197.08H425.677V190.36H426.157V189.88H426.637V189.4H427.117V188.92H427.597V188.44H429.997V188.92H430.477V189.4H430.957V189.88H431.437V190.36H431.917V197.08ZM430.477 196.6V190.84H429.997V190.36H429.517V189.88H428.077V190.36H427.597V190.84H427.117V196.6H427.597V197.08H428.077V197.56H429.517V197.08H429.997V196.6H430.477ZM438.641 197.56H438.161V198.04H437.681V198.52H437.201V199H433.841V198.52H433.361V198.04H432.881V197.56H432.401V188.44H433.841V197.08H434.321V197.56H436.721V197.08H437.201V188.44H438.641V197.56Z" fill="#D9D9D9"/>
<path d="M351.24 28H345V26.56H347.4V18.88H346.44V17.44H349.8V18.88H348.84V26.56H351.24V28ZM357.963 25.6H357.483V26.08H357.003V26.56H356.523V27.04H356.043V27.52H355.547V28H351.723V17.44H355.563V17.92H356.043V18.4H356.523V18.88H357.003V19.36H357.483V19.84H357.963V25.6ZM356.523 25.12V20.32H356.043V19.84H355.563V19.36H355.083V18.88H353.163V26.56H355.083V26.08H355.563V25.6H356.043V25.12H356.523ZM362.286 28H360.366V26.08H362.286V28ZM371.409 28H365.169V26.56H367.569V18.88H366.129V17.44H369.009V26.56H371.409V28ZM375.733 28H373.812V26.08H375.733V28ZM384.856 26.08H384.376V26.56H383.896V27.04H383.416V27.52H382.936V28H380.536V27.52H380.056V27.04H379.576V26.56H379.096V26.08H378.616V19.36H379.096V18.88H379.576V18.4H380.056V17.92H380.536V17.44H382.936V17.92H383.416V18.4H383.896V18.88H384.376V19.36H384.856V26.08ZM382.936 19.84V19.36V18.88H380.536V19.36H380.056V24.64H380.536V23.68H381.016V22.72H381.496V21.76H381.976V20.8H382.456V19.84H382.936ZM383.416 26.08V21.28H382.936V22.24H382.456V23.2H381.976V24.16H381.496V25.12H381.016V26.08H380.536V26.56H382.936V26.08H383.416ZM391.579 26.08H391.099V26.56H390.619V27.04H390.139V27.52H389.659V28H387.259V27.52H386.779V27.04H386.299V26.56H385.819V26.08H385.339V19.36H385.819V18.88H386.299V18.4H386.779V17.92H387.259V17.44H389.659V17.92H390.139V18.4H390.619V18.88H391.099V19.36H391.579V26.08ZM389.659 19.84V19.36V18.88H387.259V19.36H386.779V24.64H387.259V23.68H387.739V22.72H388.219V21.76H388.699V20.8H389.179V19.84H389.659ZM390.139 26.08V21.28H389.659V22.24H389.179V23.2H388.699V24.16H388.219V25.12H387.739V26.08H387.259V26.56H389.659V26.08H390.139ZM398.302 26.56H397.822V27.04H397.342V27.52H396.862V28H393.502V27.52H393.022V27.04H392.542V26.56H392.062V25.12H393.502V26.08H393.982V26.56H396.382V26.08H396.862V24.16H396.382V23.68H395.902V23.2H395.422V22.72H394.942V22.24H394.462V21.76H393.982V21.28H394.462V20.8H394.942V20.32H395.422V19.84H395.902V19.36H396.382V18.88H392.062V17.44H398.302V19.36H397.822V19.84H397.342V20.32H396.862V20.8H396.382V21.28H395.902V21.76H396.382V22.24H396.862V22.72H397.342V23.2H397.822V23.68H398.302V26.56Z" fill="#4B4B4B"/>
<rect x="328" width="6" height="6" fill="#4B4B4B"/>
<rect x="455" width="6" height="6" fill="#4B4B4B"/>
<rect x="328" y="213" width="6" height="6" fill="#4B4B4B"/>
<rect x="455" y="213" width="6" height="6" fill="#4B4B4B"/>
<rect x="432" y="21" width="4" height="4" fill="#4B4B4B"/>
<rect x="432" y="17" width="4" height="4" fill="#4B4B4B"/>
<rect x="440" y="17" width="4" height="4" fill="#4B4B4B"/>
<rect x="436" y="21" width="4" height="4" fill="#4B4B4B"/>
<rect x="432" y="25" width="4" height="4" fill="#4B4B4B"/>
</g>
<rect x="328.5" y="0.5" width="132" height="218" stroke="#4B4B4B"/>
<g clip-path="url(#clip3_2681_4124)">
<path d="M499.24 132.88H496.84V142H495.4V132.88H493V131.44H499.24V132.88ZM505.963 142H499.723V140.56H502.123V132.88H501.163V131.44H504.523V132.88H503.563V140.56H505.963V142ZM512.686 142H511.246V136.72H510.766V137.68H510.286V138.64H509.806V139.6H509.326V138.64H508.846V137.68H508.366V136.72H507.886V142H506.446V131.44H506.926V132.4H507.406V133.36H507.886V134.32H508.366V135.28H508.846V136.24H509.326V137.2H509.806V136.24H510.286V135.28H510.766V134.32H511.246V133.36H511.726V132.4H512.206V131.44H512.686V142ZM519.409 142H513.169V131.44H519.409V132.88H514.609V135.76H518.449V137.2H514.609V140.56H519.409V142ZM526.133 142H519.892V131.44H521.332V140.56H526.133V142ZM532.856 142H526.616V140.56H529.016V132.88H528.056V131.44H531.416V132.88H530.456V140.56H532.856V142ZM539.579 142H538.139V141.52H537.659V140.56H537.179V139.6H536.699V138.64H536.219V137.68H535.739V136.72H535.259V135.76H534.779V142H533.339V131.44H534.299V132.4H534.779V133.36H535.259V134.32H535.739V135.28H536.219V136.24H536.699V137.2H537.179V138.16H537.659V139.12H538.139V131.44H539.579V142ZM546.302 142H540.062V131.44H546.302V132.88H541.502V135.76H545.342V137.2H541.502V140.56H546.302V142ZM549.185 142.96H549.665V142H548.705V140.08H550.625V142.96H550.145V143.44H549.185V142.96ZM499.24 159.56H498.76V160.04H498.28V160.52H497.8V161H493V150.44H497.8V150.92H498.28V151.4H498.76V151.88H499.24V154.28H498.76V154.76H498.28V155.24H497.8V155.72H498.28V156.2H498.76V156.68H499.24V159.56ZM497.8 153.8V152.36H497.32V151.88H494.44V154.76H496.84V154.28H497.32V153.8H497.8ZM497.8 159.08V157.16H497.32V156.68H496.84V156.2H494.44V159.56H497.32V159.08H497.8ZM505.963 159.56H505.483V160.04H505.003V160.52H504.523V161H501.163V160.52H500.683V160.04H500.203V159.56H499.723V150.44H501.163V159.08H501.643V159.56H504.043V159.08H504.523V150.44H505.963V159.56ZM512.686 158.6H512.206V159.08H511.726V159.56H511.246V160.04H510.766V160.52H510.27V161H506.446V150.44H510.286V150.92H510.766V151.4H511.246V151.88H511.726V152.36H512.206V152.84H512.686V158.6ZM511.246 158.12V153.32H510.766V152.84H510.286V152.36H509.806V151.88H507.886V159.56H509.806V159.08H510.286V158.6H510.766V158.12H511.246ZM519.409 160.04H518.929V160.52H518.449V161H515.089V160.52H514.609V160.04H514.129V159.56H513.649V159.08H513.169V152.36H513.649V151.88H514.129V151.4H514.609V150.92H515.089V150.44H518.449V150.92H518.929V151.4H519.409V152.36H517.969V151.88H515.569V152.36H515.089V152.84H514.609V158.6H515.089V159.08H515.569V159.56H517.969V156.68H517.489V157.16H516.049V155.24H519.409V160.04ZM526.133 161H519.892V150.44H526.133V151.88H521.332V154.76H525.173V156.2H521.332V159.56H526.133V161ZM532.856 151.88H530.456V161H529.016V151.88H526.616V150.44H532.856V151.88ZM535.739 161.96H536.219V161H535.259V159.08H537.179V161.96H536.699V162.44H535.739V161.96ZM553.025 161H551.585V158.6H548.225V161H546.785V157.16V156.68V155.72H547.265V154.76H547.745V153.8H548.225V152.84H548.705V151.88H549.185V150.92H549.665V150.44H550.145V150.92H550.625V151.88H551.105V152.84H551.585V153.8H552.065V154.76H552.545V155.72H553.025V156.68V157.16V161ZM551.585 157.16V156.68V156.2H551.105V155.24H550.625V154.28H550.145V153.32H549.665V154.28H549.185V155.24H548.705V156.2H548.225V156.68V157.16H551.585ZM559.748 161H558.308V160.52H557.828V159.56H557.348V158.6H556.868V157.64H556.388V156.68H555.908V155.72H555.428V154.76H554.948V161H553.508V150.44H554.468V151.4H554.948V152.36H555.428V153.32H555.908V154.28H556.388V155.24H556.868V156.2H557.348V157.16H557.828V158.12H558.308V150.44H559.748V161ZM566.471 158.6H565.991V159.08H565.511V159.56H565.031V160.04H564.551V160.52H564.055V161H560.231V150.44H564.071V150.92H564.551V151.4H565.031V151.88H565.511V152.36H565.991V152.84H566.471V158.6ZM565.031 158.12V153.32H564.551V152.84H564.071V152.36H563.591V151.88H561.671V159.56H563.591V159.08H564.071V158.6H564.551V158.12H565.031ZM499.24 178.56H498.76V179.04H498.28V179.52H497.8V180H494.44V179.52H493.96V179.04H493.48V178.56H493V177.12H494.44V178.08H494.92V178.56H497.32V178.08H497.8V175.68H497.32V175.2H494.44V174.72H493.96V174.24H493.48V173.76H493V170.88H493.48V170.4H493.96V169.92H494.44V169.44H497.8V169.92H498.28V170.4H498.76V170.88H499.24V172.32H497.8V171.36H497.32V170.88H494.92V171.36H494.44V173.28H494.92V173.76H497.8V174.24H498.28V174.72H498.76V175.2H499.24V178.56ZM505.963 178.56H505.483V179.04H505.003V179.52H504.523V180H501.643V179.52H501.163V179.04H500.683V178.56H500.203V178.08H499.723V171.36H500.203V170.88H500.683V170.4H501.163V169.92H501.643V169.44H504.523V169.92H505.003V170.4H505.483V170.88H505.963V172.32H504.523V171.36H504.043V170.88H502.123V171.36H501.643V171.84H501.163V177.6H501.643V178.08H502.123V178.56H504.043V178.08H504.523V177.12H505.963V178.56ZM512.686 178.08H512.206V178.56H511.726V179.04H511.246V179.52H510.766V180H508.366V179.52H507.886V179.04H507.406V178.56H506.926V178.08H506.446V171.36H506.926V170.88H507.406V170.4H507.886V169.92H508.366V169.44H510.766V169.92H511.246V170.4H511.726V170.88H512.206V171.36H512.686V178.08ZM511.246 177.6V171.84H510.766V171.36H510.286V170.88H508.846V171.36H508.366V171.84H507.886V177.6H508.366V178.08H508.846V178.56H510.286V178.08H510.766V177.6H511.246ZM519.409 174.24H518.929V174.72H518.449V175.2H517.969V175.68H514.609V180H513.169V169.44H517.969V169.92H518.449V170.4H518.929V170.88H519.409V174.24ZM517.969 173.76V171.36H517.489V170.88H514.609V174.24H517.489V173.76H517.969ZM526.133 180H519.892V169.44H526.133V170.88H521.332V173.76H525.173V175.2H521.332V178.56H526.133V180ZM539.579 178.08H539.099V178.56H538.619V179.04H538.139V179.52H537.659V180H535.259V179.52H534.779V179.04H534.299V178.56H533.819V178.08H533.339V171.36H533.819V170.88H534.299V170.4H534.779V169.92H535.259V169.44H537.659V169.92H538.139V170.4H538.619V170.88H539.099V171.36H539.579V178.08ZM538.139 177.6V171.84H537.659V171.36H537.179V170.88H535.739V171.36H535.259V171.84H534.779V177.6H535.259V178.08H535.739V178.56H537.179V178.08H537.659V177.6H538.139ZM546.302 178.56H545.822V179.04H545.342V179.52H544.862V180H541.502V179.52H541.022V179.04H540.542V178.56H540.062V169.44H541.502V178.08H541.982V178.56H544.382V178.08H544.862V169.44H546.302V178.56ZM553.025 170.88H550.625V180H549.185V170.88H546.785V169.44H553.025V170.88ZM559.748 180H553.508V169.44H554.948V178.56H559.748V180ZM566.471 180H560.231V178.56H562.631V170.88H561.671V169.44H565.031V170.88H564.071V178.56H566.471V180ZM573.194 180H571.754V179.52H571.274V178.56H570.794V177.6H570.314V176.64H569.834V175.68H569.354V174.72H568.874V173.76H568.394V180H566.954V169.44H567.914V170.4H568.394V171.36H568.874V172.32H569.354V173.28H569.834V174.24H570.314V175.2H570.794V176.16H571.274V177.12H571.754V169.44H573.194V180ZM579.917 180H573.677V169.44H579.917V170.88H575.117V173.76H578.957V175.2H575.117V178.56H579.917V180ZM586.641 177.6H586.161V178.08H585.681V178.56H585.201V179.04H584.721V179.52H584.225V180H580.401V169.44H584.241V169.92H584.721V170.4H585.201V170.88H585.681V171.36H586.161V171.84H586.641V177.6ZM585.201 177.12V172.32H584.721V171.84H584.241V171.36H583.761V170.88H581.841V178.56H583.761V178.08H584.241V177.6H584.721V177.12H585.201ZM499.24 197.56H498.76V198.04H498.28V198.52H497.8V199H494.92V198.52H494.44V198.04H493.96V197.56H493.48V197.08H493V190.36H493.48V189.88H493.96V189.4H494.44V188.92H494.92V188.44H497.8V188.92H498.28V189.4H498.76V189.88H499.24V191.32H497.8V190.36H497.32V189.88H495.4V190.36H494.92V190.84H494.44V196.6H494.92V197.08H495.4V197.56H497.32V197.08H497.8V196.12H499.24V197.56ZM505.963 199H499.723V188.44H501.163V197.56H505.963V199ZM512.686 199H506.446V188.44H512.686V189.88H507.886V192.76H511.726V194.2H507.886V197.56H512.686V199ZM519.409 199H517.969V196.6H514.609V199H513.169V195.16V194.68V193.72H513.649V192.76H514.129V191.8H514.609V190.84H515.089V189.88H515.569V188.92H516.049V188.44H516.529V188.92H517.009V189.88H517.489V190.84H517.969V191.8H518.449V192.76H518.929V193.72H519.409V194.68V195.16V199ZM517.969 195.16V194.68V194.2H517.489V193.24H517.009V192.28H516.529V191.32H516.049V192.28H515.569V193.24H515.089V194.2H514.609V194.68V195.16H517.969ZM526.133 199H524.693V197.08H524.213V196.12H523.733V195.16H523.253V194.2H521.332V199H519.892V188.44H524.693V188.92H525.173V189.4H525.653V189.88H526.133V192.76H525.653V193.24H525.173V193.72H524.693V194.68H525.173V195.64H525.653V196.6H526.133V199ZM524.693 192.28V190.36H524.213V189.88H521.332V192.76H524.213V192.28H524.693ZM532.856 199H526.616V188.44H528.056V197.56H532.856V199ZM539.579 189.88H539.099V190.84H538.619V191.8H538.139V192.76H537.659V193.72H537.179V199H535.739V193.72H535.259V192.76H534.779V191.8H534.299V190.84H533.819V189.88H533.339V188.44H534.779V189.4H535.259V190.36H535.739V191.32H536.219V192.28H536.699V191.32H537.179V190.36H537.659V189.4H538.139V188.44H539.579V189.88Z" fill="#D9D9D9"/>
<path d="M499.24 28H493V26.56H495.4V18.88H494.44V17.44H497.8V18.88H496.84V26.56H499.24V28ZM505.963 25.6H505.483V26.08H505.003V26.56H504.523V27.04H504.043V27.52H503.547V28H499.723V17.44H503.563V17.92H504.043V18.4H504.523V18.88H505.003V19.36H505.483V19.84H505.963V25.6ZM504.523 25.12V20.32H504.043V19.84H503.563V19.36H503.083V18.88H501.163V26.56H503.083V26.08H503.563V25.6H504.043V25.12H504.523ZM510.286 28H508.366V26.08H510.286V28ZM519.409 28H513.169V26.56H515.569V18.88H514.129V17.44H517.009V26.56H519.409V28ZM523.733 28H521.812V26.08H523.733V28ZM532.856 26.08H532.376V26.56H531.896V27.04H531.416V27.52H530.936V28H528.536V27.52H528.056V27.04H527.576V26.56H527.096V26.08H526.616V19.36H527.096V18.88H527.576V18.4H528.056V17.92H528.536V17.44H530.936V17.92H531.416V18.4H531.896V18.88H532.376V19.36H532.856V26.08ZM530.936 19.84V19.36V18.88H528.536V19.36H528.056V24.64H528.536V23.68H529.016V22.72H529.496V21.76H529.976V20.8H530.456V19.84H530.936ZM531.416 26.08V21.28H530.936V22.24H530.456V23.2H529.976V24.16H529.496V25.12H529.016V26.08H528.536V26.56H530.936V26.08H531.416ZM539.579 26.08H539.099V26.56H538.619V27.04H538.139V27.52H537.659V28H535.259V27.52H534.779V27.04H534.299V26.56H533.819V26.08H533.339V19.36H533.819V18.88H534.299V18.4H534.779V17.92H535.259V17.44H537.659V17.92H538.139V18.4H538.619V18.88H539.099V19.36H539.579V26.08ZM537.659 19.84V19.36V18.88H535.259V19.36H534.779V24.64H535.259V23.68H535.739V22.72H536.219V21.76H536.699V20.8H537.179V19.84H537.659ZM538.139 26.08V21.28H537.659V22.24H537.179V23.2H536.699V24.16H536.219V25.12H535.739V26.08H535.259V26.56H537.659V26.08H538.139ZM546.302 26.08H545.342V28H543.902V26.08H540.062V25.6V25.12H540.542V24.16H541.022V23.2H541.502V22.24H541.982V21.28H542.462V20.32H542.942V19.36H543.422V18.4H543.902V17.44H545.342V24.64H546.302V26.08ZM543.902 24.64V20.8H543.422V21.76H542.942V22.72H542.462V23.68H541.982V24.64H543.902Z" fill="#4B4B4B"/>
<rect x="476" width="6" height="6" fill="#4B4B4B"/>
<rect x="603" width="6" height="6" fill="#4B4B4B"/>
<rect x="476" y="213" width="6" height="6" fill="#4B4B4B"/>
<rect x="603" y="213" width="6" height="6" fill="#4B4B4B"/>
<rect x="580" y="17" width="4" height="4" fill="#4B4B4B"/>
<rect x="588" y="21" width="4" height="4" fill="#4B4B4B"/>
<rect x="588" y="17" width="4" height="4" fill="#4B4B4B"/>
<rect x="584" y="21" width="4" height="4" fill="#4B4B4B"/>
<rect x="580" y="25" width="4" height="4" fill="#4B4B4B"/>
</g>
<rect x="476.5" y="0.5" width="132" height="218" stroke="#4B4B4B"/>
<rect x="165.25" y="23.25" width="14.5" height="0.5" fill="#4B4B4B" stroke="#4B4B4B" stroke-width="0.5"/>
<rect x="0.25" y="23.25" width="31.5" height="0.5" fill="#4B4B4B" stroke="#4B4B4B" stroke-width="0.5"/>
<rect x="313.25" y="23.25" width="14.5" height="0.5" fill="#4B4B4B" stroke="#4B4B4B" stroke-width="0.5"/>
<rect x="461.25" y="23.25" width="14.5" height="0.5" fill="#4B4B4B" stroke="#4B4B4B" stroke-width="0.5"/>
<defs>
<clipPath id="clip0_2681_4124">
<rect x="32" width="133" height="219" fill="white"/>
</clipPath>
<clipPath id="clip1_2681_4124">
<rect x="180" width="133" height="219" fill="white"/>
</clipPath>
<clipPath id="clip2_2681_4124">
<rect x="328" width="133" height="219" fill="white"/>
</clipPath>
<clipPath id="clip3_2681_4124">
<rect x="476" width="133" height="219" fill="white"/>
</clipPath>
</defs>
</svg>
