<svg width="1540" height="627" viewBox="0 0 1540 627" fill="none" xmlns="http://www.w3.org/2000/svg">
<path d="M851 626V623C851 611.954 859.954 603 871 603H1519C1530.05 603 1539 594.046 1539 583V43C1539 31.9543 1530.05 23 1519 23H871C859.954 23 851 14.0457 851 3V0M686 626V623C686 611.954 677.046 603 666 603H21C9.95431 603 1 594.046 1 583V43C1 31.9543 9.95431 23 21 23H666C677.046 23 686 14.0457 686 3V0" stroke="#FF4000" stroke-width="2"/>
<path d="M771 140H781V141H771V151H770V141H760V140H770V130H771V140Z" fill="#4B4B4B"/>
<path d="M771 485H781V486H771V496H770V486H760V485H770V475H771V485Z" fill="#4B4B4B"/>
<rect x="2" y="253" width="314" height="1" fill="#4B4B4B"/>
<rect x="2" y="324" width="32" height="1" fill="#4B4B4B"/>
<rect x="2" y="395" width="253" height="1" fill="#4B4B4B"/>
<rect x="2" y="466" width="32" height="1" fill="#4B4B4B"/>
<path d="M803.411 308.151L789.651 345.5H751.349L737.588 308.151L770.5 279.661L803.411 308.151Z" stroke="#FF4000"/>
<path d="M770.5 280V315M770.5 315L737.5 308.5M770.5 315L803 308.5M770.5 315L789.5 345M770.5 315L751.5 345" stroke="#FF4000"/>
<g clip-path="url(#clip0_2681_4828)">
<path d="M57.24 336.56H56.76V337.04H56.28V337.52H55.8V338H52.44V337.52H51.96V337.04H51.48V336.56H51V335.12H52.44V336.08H52.92V336.56H55.32V336.08H55.8V333.68H55.32V333.2H52.44V332.72H51.96V332.24H51.48V331.76H51V328.88H51.48V328.4H51.96V327.92H52.44V327.44H55.8V327.92H56.28V328.4H56.76V328.88H57.24V330.32H55.8V329.36H55.32V328.88H52.92V329.36H52.44V331.28H52.92V331.76H55.8V332.24H56.28V332.72H56.76V333.2H57.24V336.56ZM63.9631 338H62.5231V337.04H62.0431V336.08H61.5631V335.12H61.0831V334.16H60.6031V333.2H59.6431V333.68H59.1631V338H57.7231V327.44H59.1631V331.76H59.6431V331.28H60.1231V330.8H60.6031V330.32H61.0831V329.84H61.5631V329.36H62.0431V328.864H62.5231V328.4H63.0031V327.92H63.4831V327.44H63.9631V329.36H63.4831V329.84H63.0031V330.32H62.5231V330.784H62.0431V331.28H61.5631V331.76H61.0831V332.24H61.5631V332.72H62.0431V333.68H62.5231V334.64H63.0031V335.6H63.4831V336.56H63.9631V338ZM70.6863 338H64.4462V327.44H70.6863V328.88H65.8863V331.76H69.7263V333.2H65.8863V336.56H70.6863V338ZM77.4094 328.88H75.0094V338H73.5694V328.88H71.1694V327.44H77.4094V328.88ZM84.1325 336.56H83.6525V337.04H83.1725V337.52H82.6925V338H79.8125V337.52H79.3325V337.04H78.8525V336.56H78.3725V336.08H77.8925V329.36H78.3725V328.88H78.8525V328.4H79.3325V327.92H79.8125V327.44H82.6925V327.92H83.1725V328.4H83.6525V328.88H84.1325V330.32H82.6925V329.36H82.2125V328.88H80.2925V329.36H79.8125V329.84H79.3325V335.6H79.8125V336.08H80.2925V336.56H82.2125V336.08H82.6925V335.12H84.1325V336.56ZM90.8556 338H89.4156V333.2H86.0556V338H84.6156V327.44H86.0556V331.76H89.4156V327.44H90.8556V338ZM97.5787 338H91.3387V336.56H93.7387V328.88H92.7787V327.44H96.1387V328.88H95.1787V336.56H97.5787V338ZM104.302 338H102.862V337.52H102.382V336.56H101.902V335.6H101.422V334.64H100.942V333.68H100.462V332.72H99.9819V331.76H99.5019V338H98.0619V327.44H99.0219V328.4H99.5019V329.36H99.9819V330.32H100.462V331.28H100.942V332.24H101.422V333.2H101.902V334.16H102.382V335.12H102.862V327.44H104.302V338ZM111.025 337.04H110.545V337.52H110.065V338H106.705V337.52H106.225V337.04H105.745V336.56H105.265V336.08H104.785V329.36H105.265V328.88H105.745V328.4H106.225V327.92H106.705V327.44H110.065V327.92H110.545V328.4H111.025V329.36H109.585V328.88H107.185V329.36H106.705V329.84H106.225V335.6H106.705V336.08H107.185V336.56H109.585V333.68H109.105V334.16H107.665V332.24H111.025V337.04ZM124.471 328.88H119.671V331.76H123.031V333.2H119.671V338H118.231V327.44H124.471V328.88ZM131.194 338H124.954V327.44H126.394V336.56H131.194V338ZM137.917 336.08H137.437V336.56H136.957V337.04H136.477V337.52H135.997V338H133.597V337.52H133.117V337.04H132.637V336.56H132.157V336.08H131.677V329.36H132.157V328.88H132.637V328.4H133.117V327.92H133.597V327.44H135.997V327.92H136.477V328.4H136.957V328.88H137.437V329.36H137.917V336.08ZM136.477 335.6V329.84H135.997V329.36H135.517V328.88H134.077V329.36H133.597V329.84H133.117V335.6H133.597V336.08H134.077V336.56H135.517V336.08H135.997V335.6H136.477ZM144.641 338H144.161V337.04H143.681V336.08H143.201V335.12H142.721V334.16H142.241V333.2H141.761V332.24H141.281V333.2H140.801V334.16H140.321V335.12H139.841V336.08H139.361V337.04H138.881V338H138.401V327.44H139.841V332.72H140.321V331.76H140.801V330.8H141.281V329.84H141.761V330.8H142.241V331.76H142.721V332.72H143.201V327.44H144.641V338ZM151.364 336.56H150.884V337.04H150.404V337.52H149.924V338H146.564V337.52H146.084V337.04H145.604V336.56H145.124V335.12H146.564V336.08H147.044V336.56H149.444V336.08H149.924V333.68H149.444V333.2H146.564V332.72H146.084V332.24H145.604V331.76H145.124V328.88H145.604V328.4H146.084V327.92H146.564V327.44H149.924V327.92H150.404V328.4H150.884V328.88H151.364V330.32H149.924V329.36H149.444V328.88H147.044V329.36H146.564V331.28H147.044V331.76H149.924V332.24H150.404V332.72H150.884V333.2H151.364V336.56ZM164.81 338H163.37V335.6H160.01V338H158.57V334.16V333.68V332.72H159.05V331.76H159.53V330.8H160.01V329.84H160.49V328.88H160.97V327.92H161.45V327.44H161.93V327.92H162.41V328.88H162.89V329.84H163.37V330.8H163.85V331.76H164.33V332.72H164.81V333.68V334.16V338ZM163.37 334.16V333.68V333.2H162.89V332.24H162.41V331.28H161.93V330.32H161.45V331.28H160.97V332.24H160.49V333.2H160.01V333.68V334.16H163.37ZM171.533 338H170.093V337.52H169.613V336.56H169.133V335.6H168.653V334.64H168.173V333.68H167.693V332.72H167.213V331.76H166.733V338H165.293V327.44H166.253V328.4H166.733V329.36H167.213V330.32H167.693V331.28H168.173V332.24H168.653V333.2H169.133V334.16H169.613V335.12H170.093V327.44H171.533V338ZM178.256 335.6H177.776V336.08H177.296V336.56H176.816V337.04H176.336V337.52H175.84V338H172.016V327.44H175.856V327.92H176.336V328.4H176.816V328.88H177.296V329.36H177.776V329.84H178.256V335.6ZM176.816 335.12V330.32H176.336V329.84H175.856V329.36H175.376V328.88H173.456V336.56H175.376V336.08H175.856V335.6H176.336V335.12H176.816ZM191.702 338H185.462V336.56H187.862V328.88H186.902V327.44H190.262V328.88H189.302V336.56H191.702V338ZM198.426 338H196.986V337.52H196.506V336.56H196.026V335.6H195.546V334.64H195.066V333.68H194.586V332.72H194.106V331.76H193.626V338H192.186V327.44H193.146V328.4H193.626V329.36H194.106V330.32H194.586V331.28H195.066V332.24H195.546V333.2H196.026V334.16H196.506V335.12H196.986V327.44H198.426V338ZM205.149 328.88H202.749V338H201.309V328.88H198.909V327.44H205.149V328.88ZM211.872 338H205.632V327.44H211.872V328.88H207.072V331.76H210.912V333.2H207.072V336.56H211.872V338ZM218.595 338H217.155V336.08H216.675V335.12H216.195V334.16H215.715V333.2H213.795V338H212.355V327.44H217.155V327.92H217.635V328.4H218.115V328.88H218.595V331.76H218.115V332.24H217.635V332.72H217.155V333.68H217.635V334.64H218.115V335.6H218.595V338ZM217.155 331.28V329.36H216.675V328.88H213.795V331.76H216.675V331.28H217.155ZM225.318 328.88H220.518V331.76H223.878V333.2H220.518V338H219.078V327.44H225.318V328.88ZM232.041 338H230.601V335.6H227.241V338H225.801V334.16V333.68V332.72H226.281V331.76H226.761V330.8H227.241V329.84H227.721V328.88H228.201V327.92H228.681V327.44H229.161V327.92H229.641V328.88H230.121V329.84H230.601V330.8H231.081V331.76H231.561V332.72H232.041V333.68V334.16V338ZM230.601 334.16V333.68V333.2H230.121V332.24H229.641V331.28H229.161V330.32H228.681V331.28H228.201V332.24H227.721V333.2H227.241V333.68V334.16H230.601ZM238.764 336.56H238.284V337.04H237.804V337.52H237.324V338H234.444V337.52H233.964V337.04H233.484V336.56H233.004V336.08H232.524V329.36H233.004V328.88H233.484V328.4H233.964V327.92H234.444V327.44H237.324V327.92H237.804V328.4H238.284V328.88H238.764V330.32H237.324V329.36H236.844V328.88H234.924V329.36H234.444V329.84H233.964V335.6H234.444V336.08H234.924V336.56H236.844V336.08H237.324V335.12H238.764V336.56ZM245.487 338H239.247V327.44H245.487V328.88H240.687V331.76H244.527V333.2H240.687V336.56H245.487V338ZM258.934 338H252.694V327.44H254.134V336.56H258.934V338ZM265.657 336.08H265.177V336.56H264.697V337.04H264.217V337.52H263.737V338H261.337V337.52H260.857V337.04H260.377V336.56H259.897V336.08H259.417V329.36H259.897V328.88H260.377V328.4H260.857V327.92H261.337V327.44H263.737V327.92H264.217V328.4H264.697V328.88H265.177V329.36H265.657V336.08ZM264.217 335.6V329.84H263.737V329.36H263.257V328.88H261.817V329.36H261.337V329.84H260.857V335.6H261.337V336.08H261.817V336.56H263.257V336.08H263.737V335.6H264.217ZM272.38 337.04H271.9V337.52H271.42V338H268.06V337.52H267.58V337.04H267.1V336.56H266.62V336.08H266.14V329.36H266.62V328.88H267.1V328.4H267.58V327.92H268.06V327.44H271.42V327.92H271.9V328.4H272.38V329.36H270.94V328.88H268.54V329.36H268.06V329.84H267.58V335.6H268.06V336.08H268.54V336.56H270.94V333.68H270.46V334.16H269.02V332.24H272.38V337.04ZM279.103 338H272.863V336.56H275.263V328.88H274.303V327.44H277.663V328.88H276.703V336.56H279.103V338ZM285.826 336.56H285.346V337.04H284.866V337.52H284.386V338H281.506V337.52H281.026V337.04H280.546V336.56H280.066V336.08H279.586V329.36H280.066V328.88H280.546V328.4H281.026V327.92H281.506V327.44H284.386V327.92H284.866V328.4H285.346V328.88H285.826V330.32H284.386V329.36H283.906V328.88H281.986V329.36H281.506V329.84H281.026V335.6H281.506V336.08H281.986V336.56H283.906V336.08H284.386V335.12H285.826V336.56ZM298.313 338H295.913V337.52H295.433V337.04H294.953V336.08H294.473V329.36H294.953V328.4H295.433V327.92H295.913V327.44H298.313V328.4H296.393V328.88H295.913V336.56H296.393V337.04H298.313V338ZM305.996 338H305.516V337.04H305.036V336.08H304.556V335.12H304.076V334.16H303.596V333.2H303.116V332.24H302.636V333.2H302.156V334.16H301.676V335.12H301.196V336.08H300.716V337.04H300.236V338H299.756V327.44H301.196V332.72H301.676V331.76H302.156V330.8H302.636V329.84H303.116V330.8H303.596V331.76H304.076V332.72H304.556V327.44H305.996V338ZM312.719 338H306.479V327.44H312.719V328.88H307.919V331.76H311.759V333.2H307.919V336.56H312.719V338ZM326.165 336.56H325.685V337.04H325.205V337.52H324.725V338H321.845V337.52H321.365V337.04H320.885V336.56H320.405V336.08H319.925V329.36H320.405V328.88H320.885V328.4H321.365V327.92H321.845V327.44H324.725V327.92H325.205V328.4H325.685V328.88H326.165V330.32H324.725V329.36H324.245V328.88H322.325V329.36H321.845V329.84H321.365V335.6H321.845V336.08H322.325V336.56H324.245V336.08H324.725V335.12H326.165V336.56ZM332.888 338H331.448V335.6H328.088V338H326.648V334.16V333.68V332.72H327.128V331.76H327.608V330.8H328.088V329.84H328.568V328.88H329.048V327.92H329.528V327.44H330.008V327.92H330.488V328.88H330.968V329.84H331.448V330.8H331.928V331.76H332.408V332.72H332.888V333.68V334.16V338ZM331.448 334.16V333.68V333.2H330.968V332.24H330.488V331.28H330.008V330.32H329.528V331.28H329.048V332.24H328.568V333.2H328.088V333.68V334.16H331.448ZM339.611 338H338.171V337.52H337.691V336.56H337.211V335.6H336.731V334.64H336.251V333.68H335.771V332.72H335.291V331.76H334.811V338H333.371V327.44H334.331V328.4H334.811V329.36H335.291V330.32H335.771V331.28H336.251V332.24H336.731V333.2H337.211V334.16H337.691V335.12H338.171V327.44H339.611V338ZM353.058 336.56H352.578V337.04H352.098V337.52H351.618V338H346.818V327.44H351.618V327.92H352.098V328.4H352.578V328.88H353.058V331.28H352.578V331.76H352.098V332.24H351.618V332.72H352.098V333.2H352.578V333.68H353.058V336.56ZM351.618 330.8V329.36H351.138V328.88H348.258V331.76H350.658V331.28H351.138V330.8H351.618ZM351.618 336.08V334.16H351.138V333.68H350.658V333.2H348.258V336.56H351.138V336.08H351.618ZM359.781 338H358.341V336.08H357.861V335.12H357.381V334.16H356.901V333.2H354.981V338H353.541V327.44H358.341V327.92H358.821V328.4H359.301V328.88H359.781V331.76H359.301V332.24H358.821V332.72H358.341V333.68H358.821V334.64H359.301V335.6H359.781V338ZM358.341 331.28V329.36H357.861V328.88H354.981V331.76H357.861V331.28H358.341ZM366.504 338H360.264V336.56H362.664V328.88H361.704V327.44H365.064V328.88H364.104V336.56H366.504V338ZM373.227 338H371.787V337.52H371.307V336.56H370.827V335.6H370.347V334.64H369.867V333.68H369.387V332.72H368.907V331.76H368.427V338H366.987V327.44H367.947V328.4H368.427V329.36H368.907V330.32H369.387V331.28H369.867V332.24H370.347V333.2H370.827V334.16H371.307V335.12H371.787V327.44H373.227V338ZM379.95 337.04H379.47V337.52H378.99V338H375.63V337.52H375.15V337.04H374.67V336.56H374.19V336.08H373.71V329.36H374.19V328.88H374.67V328.4H375.15V327.92H375.63V327.44H378.99V327.92H379.47V328.4H379.95V329.36H378.51V328.88H376.11V329.36H375.63V329.84H375.15V335.6H375.63V336.08H376.11V336.56H378.51V333.68H378.03V334.16H376.59V332.24H379.95V337.04ZM393.396 338H387.156V336.56H389.556V328.88H388.596V327.44H391.956V328.88H390.996V336.56H393.396V338ZM400.119 338H398.679V337.52H398.199V336.56H397.719V335.6H397.239V334.64H396.759V333.68H396.279V332.72H395.799V331.76H395.319V338H393.879V327.44H394.839V328.4H395.319V329.36H395.799V330.32H396.279V331.28H396.759V332.24H397.239V333.2H397.719V334.16H398.199V335.12H398.679V327.44H400.119V338ZM413.566 338H412.126V335.6H408.766V338H407.326V334.16V333.68V332.72H407.806V331.76H408.286V330.8H408.766V329.84H409.246V328.88H409.726V327.92H410.206V327.44H410.686V327.92H411.166V328.88H411.646V329.84H412.126V330.8H412.606V331.76H413.086V332.72H413.566V333.68V334.16V338ZM412.126 334.16V333.68V333.2H411.646V332.24H411.166V331.28H410.686V330.32H410.206V331.28H409.726V332.24H409.246V333.2H408.766V333.68V334.16H412.126ZM427.012 335.6H426.532V336.08H426.052V336.56H425.572V337.04H425.092V337.52H424.596V338H420.772V327.44H424.612V327.92H425.092V328.4H425.572V328.88H426.052V329.36H426.532V329.84H427.012V335.6ZM425.572 335.12V330.32H425.092V329.84H424.612V329.36H424.132V328.88H422.212V336.56H424.132V336.08H424.612V335.6H425.092V335.12H425.572ZM433.735 338H427.495V327.44H433.735V328.88H428.935V331.76H432.775V333.2H428.935V336.56H433.735V338ZM440.458 336.56H439.978V337.04H439.498V337.52H439.018V338H435.658V337.52H435.178V337.04H434.698V336.56H434.218V335.12H435.658V336.08H436.138V336.56H438.538V336.08H439.018V333.68H438.538V333.2H435.658V332.72H435.178V332.24H434.698V331.76H434.218V328.88H434.698V328.4H435.178V327.92H435.658V327.44H439.018V327.92H439.498V328.4H439.978V328.88H440.458V330.32H439.018V329.36H438.538V328.88H436.138V329.36H435.658V331.28H436.138V331.76H439.018V332.24H439.498V332.72H439.978V333.2H440.458V336.56ZM447.181 338H440.941V336.56H443.341V328.88H442.381V327.44H445.741V328.88H444.781V336.56H447.181V338ZM453.904 337.04H453.424V337.52H452.944V338H449.584V337.52H449.104V337.04H448.624V336.56H448.144V336.08H447.664V329.36H448.144V328.88H448.624V328.4H449.104V327.92H449.584V327.44H452.944V327.92H453.424V328.4H453.904V329.36H452.464V328.88H450.064V329.36H449.584V329.84H449.104V335.6H449.584V336.08H450.064V336.56H452.464V333.68H451.984V334.16H450.544V332.24H453.904V337.04ZM460.628 338H459.188V337.52H458.708V336.56H458.228V335.6H457.748V334.64H457.268V333.68H456.788V332.72H456.308V331.76H455.828V338H454.388V327.44H455.348V328.4H455.828V329.36H456.308V330.32H456.788V331.28H457.268V332.24H457.748V333.2H458.228V334.16H458.708V335.12H459.188V327.44H460.628V338ZM467.351 338H461.111V327.44H467.351V328.88H462.551V331.76H466.391V333.2H462.551V336.56H467.351V338ZM474.074 338H472.634V336.08H472.154V335.12H471.674V334.16H471.194V333.2H469.274V338H467.834V327.44H472.634V327.92H473.114V328.4H473.594V328.88H474.074V331.76H473.594V332.24H473.114V332.72H472.634V333.68H473.114V334.64H473.594V335.6H474.074V338ZM472.634 331.28V329.36H472.154V328.88H469.274V331.76H472.154V331.28H472.634ZM487.52 338H481.28V336.56H483.68V328.88H482.72V327.44H486.08V328.88H485.12V336.56H487.52V338ZM494.243 328.88H489.443V331.76H492.803V333.2H489.443V338H488.003V327.44H494.243V328.88ZM507.689 338H506.249V337.52H505.769V336.56H505.289V335.6H504.809V334.64H504.329V333.68H503.849V332.72H503.369V331.76H502.889V338H501.449V327.44H502.409V328.4H502.889V329.36H503.369V330.32H503.849V331.28H504.329V332.24H504.809V333.2H505.289V334.16H505.769V335.12H506.249V327.44H507.689V338ZM514.413 338H508.173V327.44H514.413V328.88H509.613V331.76H513.453V333.2H509.613V336.56H514.413V338ZM521.136 338H514.896V327.44H521.136V328.88H516.336V331.76H520.176V333.2H516.336V336.56H521.136V338ZM527.859 335.6H527.379V336.08H526.899V336.56H526.419V337.04H525.939V337.52H525.443V338H521.619V327.44H525.459V327.92H525.939V328.4H526.419V328.88H526.899V329.36H527.379V329.84H527.859V335.6ZM526.419 335.12V330.32H525.939V329.84H525.459V329.36H524.979V328.88H523.059V336.56H524.979V336.08H525.459V335.6H525.939V335.12H526.419ZM534.582 338H528.342V327.44H534.582V328.88H529.782V331.76H533.622V333.2H529.782V336.56H534.582V338ZM541.305 335.6H540.825V336.08H540.345V336.56H539.865V337.04H539.385V337.52H538.889V338H535.065V327.44H538.905V327.92H539.385V328.4H539.865V328.88H540.345V329.36H540.825V329.84H541.305V335.6ZM539.865 335.12V330.32H539.385V329.84H538.905V329.36H538.425V328.88H536.505V336.56H538.425V336.08H538.905V335.6H539.385V335.12H539.865ZM546.588 336.08H546.108V337.04H545.628V337.52H545.148V338H542.748V337.04H544.668V336.56H545.148V328.88H544.668V328.4H542.748V327.44H545.148V327.92H545.628V328.4H546.108V329.36H546.588V336.08Z" fill="#D9D9D9"/>
<path d="M57.24 319H51V317.56H53.4V309.88H52.44V308.44H55.8V309.88H54.84V317.56H57.24V319ZM63.9631 316.6H63.4831V317.08H63.0031V317.56H62.5231V318.04H62.0431V318.52H61.5471V319H57.7231V308.44H61.5631V308.92H62.0431V309.4H62.5231V309.88H63.0031V310.36H63.4831V310.84H63.9631V316.6ZM62.5231 316.12V311.32H62.0431V310.84H61.5631V310.36H61.0831V309.88H59.1631V317.56H61.0831V317.08H61.5631V316.6H62.0431V316.12H62.5231ZM68.2863 319H66.3663V317.08H68.2863V319ZM77.4094 319H71.1694V315.16H71.6494V314.68H72.1294V314.2H72.6094V313.72H73.0894V313.24H75.0094V312.76H75.4894V312.28H75.9694V310.36H75.4894V309.88H73.0894V310.36H72.6094V311.32H71.1694V309.88H71.6494V309.4H72.1294V308.92H72.6094V308.44H75.9694V308.92H76.4494V309.4H76.9294V309.88H77.4094V312.76H76.9294V313.24H76.4494V313.72H75.9694V314.2H75.4894V314.68H73.5694V315.16H73.0894V315.64H72.6094V317.56H77.4094V319ZM81.7325 319H79.8125V317.08H81.7325V319ZM90.8556 317.08H90.3756V317.56H89.8956V318.04H89.4156V318.52H88.9356V319H86.5356V318.52H86.0556V318.04H85.5756V317.56H85.0956V317.08H84.6156V310.36H85.0956V309.88H85.5756V309.4H86.0556V308.92H86.5356V308.44H88.9356V308.92H89.4156V309.4H89.8956V309.88H90.3756V310.36H90.8556V317.08ZM88.9356 310.84V310.36V309.88H86.5356V310.36H86.0556V315.64H86.5356V314.68H87.0156V313.72H87.4956V312.76H87.9756V311.8H88.4556V310.84H88.9356ZM89.4156 317.08V312.28H88.9356V313.24H88.4556V314.2H87.9756V315.16H87.4956V316.12H87.0156V317.08H86.5356V317.56H88.9356V317.08H89.4156ZM97.5787 317.08H97.0987V317.56H96.6187V318.04H96.1387V318.52H95.6587V319H93.2587V318.52H92.7787V318.04H92.2987V317.56H91.8187V317.08H91.3387V310.36H91.8187V309.88H92.2987V309.4H92.7787V308.92H93.2587V308.44H95.6587V308.92H96.1387V309.4H96.6187V309.88H97.0987V310.36H97.5787V317.08ZM95.6587 310.84V310.36V309.88H93.2587V310.36H92.7787V315.64H93.2587V314.68H93.7387V313.72H94.2187V312.76H94.6987V311.8H95.1787V310.84H95.6587ZM96.1387 317.08V312.28H95.6587V313.24H95.1787V314.2H94.6987V315.16H94.2187V316.12H93.7387V317.08H93.2587V317.56H95.6587V317.08H96.1387ZM104.302 319H98.0619V315.16H98.5419V314.68H99.0219V314.2H99.5019V313.72H99.9819V313.24H101.902V312.76H102.382V312.28H102.862V310.36H102.382V309.88H99.9819V310.36H99.5019V311.32H98.0619V309.88H98.5419V309.4H99.0219V308.92H99.5019V308.44H102.862V308.92H103.342V309.4H103.822V309.88H104.302V312.76H103.822V313.24H103.342V313.72H102.862V314.2H102.382V314.68H100.462V315.16H99.9819V315.64H99.5019V317.56H104.302V319Z" fill="#4B4B4B"/>
<rect x="34" y="291" width="6" height="6" fill="#4B4B4B"/>
<rect x="541" y="308" width="4" height="4" fill="#4B4B4B"/>
<rect x="537" y="308" width="4" height="4" fill="#4B4B4B"/>
<rect x="545" y="308" width="4" height="4" fill="#4B4B4B"/>
<rect x="541" y="312" width="4" height="4" fill="#4B4B4B"/>
<rect x="533" y="312" width="4" height="4" fill="#4B4B4B"/>
<rect x="560" y="291" width="6" height="6" fill="#4B4B4B"/>
<rect x="34" y="352" width="6" height="6" fill="#4B4B4B"/>
<rect x="560" y="352" width="6" height="6" fill="#4B4B4B"/>
</g>
<rect x="34.5" y="291.5" width="531" height="66" stroke="#4B4B4B"/>
<g clip-path="url(#clip1_2681_4828)">
<path d="M57.24 478.56H56.76V479.04H56.28V479.52H55.8V480H51V469.44H55.8V469.92H56.28V470.4H56.76V470.88H57.24V473.28H56.76V473.76H56.28V474.24H55.8V474.72H56.28V475.2H56.76V475.68H57.24V478.56ZM55.8 472.8V471.36H55.32V470.88H52.44V473.76H54.84V473.28H55.32V472.8H55.8ZM55.8 478.08V476.16H55.32V475.68H54.84V475.2H52.44V478.56H55.32V478.08H55.8ZM63.9631 478.56H63.4831V479.04H63.0031V479.52H62.5231V480H59.1631V479.52H58.6831V479.04H58.2031V478.56H57.7231V469.44H59.1631V478.08H59.6431V478.56H62.0431V478.08H62.5231V469.44H63.9631V478.56ZM70.6863 480H64.4462V478.56H66.8463V470.88H65.8863V469.44H69.2463V470.88H68.2863V478.56H70.6863V480ZM77.4094 480H71.1694V469.44H72.6094V478.56H77.4094V480ZM84.1325 477.6H83.6525V478.08H83.1725V478.56H82.6925V479.04H82.2125V479.52H81.7165V480H77.8925V469.44H81.7325V469.92H82.2125V470.4H82.6925V470.88H83.1725V471.36H83.6525V471.84H84.1325V477.6ZM82.6925 477.12V472.32H82.2125V471.84H81.7325V471.36H81.2525V470.88H79.3325V478.56H81.2525V478.08H81.7325V477.6H82.2125V477.12H82.6925ZM90.8556 480H84.6156V478.56H87.0156V470.88H86.0556V469.44H89.4156V470.88H88.4556V478.56H90.8556V480ZM97.5787 480H96.1387V479.52H95.6587V478.56H95.1787V477.6H94.6987V476.64H94.2187V475.68H93.7387V474.72H93.2587V473.76H92.7787V480H91.3387V469.44H92.2987V470.4H92.7787V471.36H93.2587V472.32H93.7387V473.28H94.2187V474.24H94.6987V475.2H95.1787V476.16H95.6587V477.12H96.1387V469.44H97.5787V480ZM104.302 479.04H103.822V479.52H103.342V480H99.9819V479.52H99.5019V479.04H99.0219V478.56H98.5419V478.08H98.0619V471.36H98.5419V470.88H99.0219V470.4H99.5019V469.92H99.9819V469.44H103.342V469.92H103.822V470.4H104.302V471.36H102.862V470.88H100.462V471.36H99.9819V471.84H99.5019V477.6H99.9819V478.08H100.462V478.56H102.862V475.68H102.382V476.16H100.942V474.24H104.302V479.04ZM117.748 470.88H112.948V473.76H116.308V475.2H112.948V480H111.508V469.44H117.748V470.88ZM124.471 478.08H123.991V478.56H123.511V479.04H123.031V479.52H122.551V480H120.151V479.52H119.671V479.04H119.191V478.56H118.711V478.08H118.231V471.36H118.711V470.88H119.191V470.4H119.671V469.92H120.151V469.44H122.551V469.92H123.031V470.4H123.511V470.88H123.991V471.36H124.471V478.08ZM123.031 477.6V471.84H122.551V471.36H122.071V470.88H120.631V471.36H120.151V471.84H119.671V477.6H120.151V478.08H120.631V478.56H122.071V478.08H122.551V477.6H123.031ZM131.194 480H129.754V478.08H129.274V477.12H128.794V476.16H128.314V475.2H126.394V480H124.954V469.44H129.754V469.92H130.234V470.4H130.714V470.88H131.194V473.76H130.714V474.24H130.234V474.72H129.754V475.68H130.234V476.64H130.714V477.6H131.194V480ZM129.754 473.28V471.36H129.274V470.88H126.394V473.76H129.274V473.28H129.754ZM144.641 478.56H144.161V479.04H143.681V479.52H143.201V480H140.321V479.52H139.841V479.04H139.361V478.56H138.881V478.08H138.401V471.36H138.881V470.88H139.361V470.4H139.841V469.92H140.321V469.44H143.201V469.92H143.681V470.4H144.161V470.88H144.641V472.32H143.201V471.36H142.721V470.88H140.801V471.36H140.321V471.84H139.841V477.6H140.321V478.08H140.801V478.56H142.721V478.08H143.201V477.12H144.641V478.56ZM151.364 480H149.924V475.2H146.564V480H145.124V469.44H146.564V473.76H149.924V469.44H151.364V480ZM158.087 480H156.647V477.6H153.287V480H151.847V476.16V475.68V474.72H152.327V473.76H152.807V472.8H153.287V471.84H153.767V470.88H154.247V469.92H154.727V469.44H155.207V469.92H155.687V470.88H156.167V471.84H156.647V472.8H157.127V473.76H157.607V474.72H158.087V475.68V476.16V480ZM156.647 476.16V475.68V475.2H156.167V474.24H155.687V473.28H155.207V472.32H154.727V473.28H154.247V474.24H153.767V475.2H153.287V475.68V476.16H156.647ZM164.81 480H163.37V479.52H162.89V478.56H162.41V477.6H161.93V476.64H161.45V475.68H160.97V474.72H160.49V473.76H160.01V480H158.57V469.44H159.53V470.4H160.01V471.36H160.49V472.32H160.97V473.28H161.45V474.24H161.93V475.2H162.41V476.16H162.89V477.12H163.37V469.44H164.81V480ZM171.533 479.04H171.053V479.52H170.573V480H167.213V479.52H166.733V479.04H166.253V478.56H165.773V478.08H165.293V471.36H165.773V470.88H166.253V470.4H166.733V469.92H167.213V469.44H170.573V469.92H171.053V470.4H171.533V471.36H170.093V470.88H167.693V471.36H167.213V471.84H166.733V477.6H167.213V478.08H167.693V478.56H170.093V475.68H169.613V476.16H168.173V474.24H171.533V479.04ZM178.256 480H172.016V469.44H178.256V470.88H173.456V473.76H177.296V475.2H173.456V478.56H178.256V480ZM191.702 476.64H185.462V475.2H191.702V476.64ZM205.149 470.88H200.349V473.76H203.709V475.2H200.349V480H198.909V469.44H205.149V470.88ZM211.872 478.56H211.392V479.04H210.912V479.52H210.432V480H207.072V479.52H206.592V479.04H206.112V478.56H205.632V469.44H207.072V478.08H207.552V478.56H209.952V478.08H210.432V469.44H211.872V478.56ZM218.595 470.88H216.195V480H214.755V470.88H212.355V469.44H218.595V470.88ZM225.318 478.56H224.838V479.04H224.358V479.52H223.878V480H220.518V479.52H220.038V479.04H219.558V478.56H219.078V469.44H220.518V478.08H220.998V478.56H223.398V478.08H223.878V469.44H225.318V478.56ZM232.041 480H230.601V478.08H230.121V477.12H229.641V476.16H229.161V475.2H227.241V480H225.801V469.44H230.601V469.92H231.081V470.4H231.561V470.88H232.041V473.76H231.561V474.24H231.081V474.72H230.601V475.68H231.081V476.64H231.561V477.6H232.041V480ZM230.601 473.28V471.36H230.121V470.88H227.241V473.76H230.121V473.28H230.601ZM238.764 480H232.524V469.44H238.764V470.88H233.964V473.76H237.804V475.2H233.964V478.56H238.764V480ZM244.527 476.64H240.207V475.2H244.527V476.64ZM252.211 474.24H251.731V474.72H251.251V475.2H250.771V475.68H247.411V480H245.971V469.44H250.771V469.92H251.251V470.4H251.731V470.88H252.211V474.24ZM250.771 473.76V471.36H250.291V470.88H247.411V474.24H250.291V473.76H250.771ZM258.934 480H257.494V478.08H257.014V477.12H256.534V476.16H256.054V475.2H254.134V480H252.694V469.44H257.494V469.92H257.974V470.4H258.454V470.88H258.934V473.76H258.454V474.24H257.974V474.72H257.494V475.68H257.974V476.64H258.454V477.6H258.934V480ZM257.494 473.28V471.36H257.014V470.88H254.134V473.76H257.014V473.28H257.494ZM265.657 478.08H265.177V478.56H264.697V479.04H264.217V479.52H263.737V480H261.337V479.52H260.857V479.04H260.377V478.56H259.897V478.08H259.417V471.36H259.897V470.88H260.377V470.4H260.857V469.92H261.337V469.44H263.737V469.92H264.217V470.4H264.697V470.88H265.177V471.36H265.657V478.08ZM264.217 477.6V471.84H263.737V471.36H263.257V470.88H261.817V471.36H261.337V471.84H260.857V477.6H261.337V478.08H261.817V478.56H263.257V478.08H263.737V477.6H264.217ZM272.38 478.08H271.9V478.56H271.42V479.04H270.94V479.52H270.46V480H268.06V479.52H267.58V479.04H267.1V478.56H266.62V478.08H266.14V471.36H266.62V470.88H267.1V470.4H267.58V469.92H268.06V469.44H270.46V469.92H270.94V470.4H271.42V470.88H271.9V471.36H272.38V478.08ZM270.94 477.6V471.84H270.46V471.36H269.98V470.88H268.54V471.36H268.06V471.84H267.58V477.6H268.06V478.08H268.54V478.56H269.98V478.08H270.46V477.6H270.94ZM279.103 470.88H274.303V473.76H277.663V475.2H274.303V480H272.863V469.44H279.103V470.88ZM292.549 480H292.069V479.04H291.589V478.08H291.109V477.12H290.629V476.16H290.149V475.2H289.669V474.24H289.189V475.2H288.709V476.16H288.229V477.12H287.749V478.08H287.269V479.04H286.789V480H286.309V469.44H287.749V474.72H288.229V473.76H288.709V472.8H289.189V471.84H289.669V472.8H290.149V473.76H290.629V474.72H291.109V469.44H292.549V480ZM299.273 480H297.833V475.2H294.473V480H293.033V469.44H294.473V473.76H297.833V469.44H299.273V480ZM305.996 480H299.756V469.44H305.996V470.88H301.196V473.76H305.036V475.2H301.196V478.56H305.996V480ZM312.719 480H311.279V478.08H310.799V477.12H310.319V476.16H309.839V475.2H307.919V480H306.479V469.44H311.279V469.92H311.759V470.4H312.239V470.88H312.719V473.76H312.239V474.24H311.759V474.72H311.279V475.68H311.759V476.64H312.239V477.6H312.719V480ZM311.279 473.28V471.36H310.799V470.88H307.919V473.76H310.799V473.28H311.279ZM319.442 480H313.202V469.44H319.442V470.88H314.642V473.76H318.482V475.2H314.642V478.56H319.442V480ZM332.888 480H326.648V478.56H329.048V470.88H328.088V469.44H331.448V470.88H330.488V478.56H332.888V480ZM339.611 470.88H337.211V480H335.771V470.88H333.371V469.44H339.611V470.88ZM353.058 480H351.618V474.72H351.138V475.68H350.658V476.64H350.178V477.6H349.698V476.64H349.218V475.68H348.738V474.72H348.258V480H346.818V469.44H347.298V470.4H347.778V471.36H348.258V472.32H348.738V473.28H349.218V474.24H349.698V475.2H350.178V474.24H350.658V473.28H351.138V472.32H351.618V471.36H352.098V470.4H352.578V469.44H353.058V480ZM359.781 480H358.341V477.6H354.981V480H353.541V476.16V475.68V474.72H354.021V473.76H354.501V472.8H354.981V471.84H355.461V470.88H355.941V469.92H356.421V469.44H356.901V469.92H357.381V470.88H357.861V471.84H358.341V472.8H358.821V473.76H359.301V474.72H359.781V475.68V476.16V480ZM358.341 476.16V475.68V475.2H357.861V474.24H357.381V473.28H356.901V472.32H356.421V473.28H355.941V474.24H355.461V475.2H354.981V475.68V476.16H358.341ZM366.504 470.88H364.104V480H362.664V470.88H360.264V469.44H366.504V470.88ZM373.227 470.88H370.827V480H369.387V470.88H366.987V469.44H373.227V470.88ZM379.95 480H373.71V469.44H379.95V470.88H375.15V473.76H378.99V475.2H375.15V478.56H379.95V480ZM386.673 480H385.233V478.08H384.753V477.12H384.273V476.16H383.793V475.2H381.873V480H380.433V469.44H385.233V469.92H385.713V470.4H386.193V470.88H386.673V473.76H386.193V474.24H385.713V474.72H385.233V475.68H385.713V476.64H386.193V477.6H386.673V480ZM385.233 473.28V471.36H384.753V470.88H381.873V473.76H384.753V473.28H385.233ZM393.396 478.56H392.916V479.04H392.436V479.52H391.956V480H388.596V479.52H388.116V479.04H387.636V478.56H387.156V477.12H388.596V478.08H389.076V478.56H391.476V478.08H391.956V475.68H391.476V475.2H388.596V474.72H388.116V474.24H387.636V473.76H387.156V470.88H387.636V470.4H388.116V469.92H388.596V469.44H391.956V469.92H392.436V470.4H392.916V470.88H393.396V472.32H391.956V471.36H391.476V470.88H389.076V471.36H388.596V473.28H389.076V473.76H391.956V474.24H392.436V474.72H392.916V475.2H393.396V478.56ZM396.279 480.96H396.759V480H395.799V478.08H397.719V480.96H397.239V481.44H396.279V480.96ZM413.566 470.88H408.766V473.76H412.126V475.2H408.766V480H407.326V469.44H413.566V470.88ZM420.289 480H418.849V477.6H415.489V480H414.049V476.16V475.68V474.72H414.529V473.76H415.009V472.8H415.489V471.84H415.969V470.88H416.449V469.92H416.929V469.44H417.409V469.92H417.889V470.88H418.369V471.84H418.849V472.8H419.329V473.76H419.809V474.72H420.289V475.68V476.16V480ZM418.849 476.16V475.68V475.2H418.369V474.24H417.889V473.28H417.409V472.32H416.929V473.28H416.449V474.24H415.969V475.2H415.489V475.68V476.16H418.849ZM427.012 478.56H426.532V479.04H426.052V479.52H425.572V480H422.212V479.52H421.732V479.04H421.252V478.56H420.772V477.12H422.212V478.08H422.692V478.56H425.092V478.08H425.572V475.68H425.092V475.2H422.212V474.72H421.732V474.24H421.252V473.76H420.772V470.88H421.252V470.4H421.732V469.92H422.212V469.44H425.572V469.92H426.052V470.4H426.532V470.88H427.012V472.32H425.572V471.36H425.092V470.88H422.692V471.36H422.212V473.28H422.692V473.76H425.572V474.24H426.052V474.72H426.532V475.2H427.012V478.56ZM433.735 470.88H431.335V480H429.895V470.88H427.495V469.44H433.735V470.88ZM447.181 480H446.701V479.04H446.221V478.08H445.741V477.12H445.261V476.16H444.781V475.2H444.301V474.24H443.821V475.2H443.341V476.16H442.861V477.12H442.381V478.08H441.901V479.04H441.421V480H440.941V469.44H442.381V474.72H442.861V473.76H443.341V472.8H443.821V471.84H444.301V472.8H444.781V473.76H445.261V474.72H445.741V469.44H447.181V480ZM453.904 480H452.464V475.2H449.104V480H447.664V469.44H449.104V473.76H452.464V469.44H453.904V480ZM460.628 480H454.388V469.44H460.628V470.88H455.828V473.76H459.668V475.2H455.828V478.56H460.628V480ZM467.351 480H465.911V478.08H465.431V477.12H464.951V476.16H464.471V475.2H462.551V480H461.111V469.44H465.911V469.92H466.391V470.4H466.871V470.88H467.351V473.76H466.871V474.24H466.391V474.72H465.911V475.68H466.391V476.64H466.871V477.6H467.351V480ZM465.911 473.28V471.36H465.431V470.88H462.551V473.76H465.431V473.28H465.911ZM474.074 480H467.834V469.44H474.074V470.88H469.274V473.76H473.114V475.2H469.274V478.56H474.074V480ZM487.52 480H481.28V478.56H483.68V470.88H482.72V469.44H486.08V470.88H485.12V478.56H487.52V480ZM494.243 470.88H491.843V480H490.403V470.88H488.003V469.44H494.243V470.88ZM507.689 477.6H507.209V478.08H506.729V478.56H506.249V479.04H505.769V479.52H505.273V480H501.449V469.44H505.289V469.92H505.769V470.4H506.249V470.88H506.729V471.36H507.209V471.84H507.689V477.6ZM506.249 477.12V472.32H505.769V471.84H505.289V471.36H504.809V470.88H502.889V478.56H504.809V478.08H505.289V477.6H505.769V477.12H506.249ZM514.413 478.08H513.933V478.56H513.453V479.04H512.973V479.52H512.493V480H510.093V479.52H509.613V479.04H509.133V478.56H508.653V478.08H508.173V471.36H508.653V470.88H509.133V470.4H509.613V469.92H510.093V469.44H512.493V469.92H512.973V470.4H513.453V470.88H513.933V471.36H514.413V478.08ZM512.973 477.6V471.84H512.493V471.36H512.013V470.88H510.573V471.36H510.093V471.84H509.613V477.6H510.093V478.08H510.573V478.56H512.013V478.08H512.493V477.6H512.973ZM521.136 480H514.896V469.44H521.136V470.88H516.336V473.76H520.176V475.2H516.336V478.56H521.136V480ZM527.859 478.56H527.379V479.04H526.899V479.52H526.419V480H523.059V479.52H522.579V479.04H522.099V478.56H521.619V477.12H523.059V478.08H523.539V478.56H525.939V478.08H526.419V475.68H525.939V475.2H523.059V474.72H522.579V474.24H522.099V473.76H521.619V470.88H522.099V470.4H522.579V469.92H523.059V469.44H526.419V469.92H526.899V470.4H527.379V470.88H527.859V472.32H526.419V471.36H525.939V470.88H523.539V471.36H523.059V473.28H523.539V473.76H526.419V474.24H526.899V474.72H527.379V475.2H527.859V478.56ZM534.582 480H533.142V479.52H532.662V478.56H532.182V477.6H531.702V476.64H531.222V475.68H530.742V474.72H530.262V473.76H529.782V480H528.342V469.44H529.302V470.4H529.782V471.36H530.262V472.32H530.742V473.28H531.222V474.24H531.702V475.2H532.182V476.16H532.662V477.12H533.142V469.44H534.582V480ZM538.905 471.84H537.465V469.44H538.905V471.84ZM548.028 470.88H545.628V480H544.188V470.88H541.788V469.44H548.028V470.88Z" fill="#D9D9D9"/>
<path d="M57.24 461H51V459.56H53.4V451.88H52.44V450.44H55.8V451.88H54.84V459.56H57.24V461ZM63.9631 458.6H63.4831V459.08H63.0031V459.56H62.5231V460.04H62.0431V460.52H61.5471V461H57.7231V450.44H61.5631V450.92H62.0431V451.4H62.5231V451.88H63.0031V452.36H63.4831V452.84H63.9631V458.6ZM62.5231 458.12V453.32H62.0431V452.84H61.5631V452.36H61.0831V451.88H59.1631V459.56H61.0831V459.08H61.5631V458.6H62.0431V458.12H62.5231ZM68.2863 461H66.3663V459.08H68.2863V461ZM77.4094 461H71.1694V457.16H71.6494V456.68H72.1294V456.2H72.6094V455.72H73.0894V455.24H75.0094V454.76H75.4894V454.28H75.9694V452.36H75.4894V451.88H73.0894V452.36H72.6094V453.32H71.1694V451.88H71.6494V451.4H72.1294V450.92H72.6094V450.44H75.9694V450.92H76.4494V451.4H76.9294V451.88H77.4094V454.76H76.9294V455.24H76.4494V455.72H75.9694V456.2H75.4894V456.68H73.5694V457.16H73.0894V457.64H72.6094V459.56H77.4094V461ZM81.7325 461H79.8125V459.08H81.7325V461ZM90.8556 459.08H90.3756V459.56H89.8956V460.04H89.4156V460.52H88.9356V461H86.5356V460.52H86.0556V460.04H85.5756V459.56H85.0956V459.08H84.6156V452.36H85.0956V451.88H85.5756V451.4H86.0556V450.92H86.5356V450.44H88.9356V450.92H89.4156V451.4H89.8956V451.88H90.3756V452.36H90.8556V459.08ZM88.9356 452.84V452.36V451.88H86.5356V452.36H86.0556V457.64H86.5356V456.68H87.0156V455.72H87.4956V454.76H87.9756V453.8H88.4556V452.84H88.9356ZM89.4156 459.08V454.28H88.9356V455.24H88.4556V456.2H87.9756V457.16H87.4956V458.12H87.0156V459.08H86.5356V459.56H88.9356V459.08H89.4156ZM97.5787 459.08H97.0987V459.56H96.6187V460.04H96.1387V460.52H95.6587V461H93.2587V460.52H92.7787V460.04H92.2987V459.56H91.8187V459.08H91.3387V452.36H91.8187V451.88H92.2987V451.4H92.7787V450.92H93.2587V450.44H95.6587V450.92H96.1387V451.4H96.6187V451.88H97.0987V452.36H97.5787V459.08ZM95.6587 452.84V452.36V451.88H93.2587V452.36H92.7787V457.64H93.2587V456.68H93.7387V455.72H94.2187V454.76H94.6987V453.8H95.1787V452.84H95.6587ZM96.1387 459.08V454.28H95.6587V455.24H95.1787V456.2H94.6987V457.16H94.2187V458.12H93.7387V459.08H93.2587V459.56H95.6587V459.08H96.1387ZM104.302 459.08H103.342V461H101.902V459.08H98.0619V458.6V458.12H98.5419V457.16H99.0219V456.2H99.5019V455.24H99.9819V454.28H100.462V453.32H100.942V452.36H101.422V451.4H101.902V450.44H103.342V457.64H104.302V459.08ZM101.902 457.64V453.8H101.422V454.76H100.942V455.72H100.462V456.68H99.9819V457.64H101.902Z" fill="#4B4B4B"/>
<rect x="34" y="433" width="6" height="6" fill="#4B4B4B"/>
<rect x="545" y="454" width="4" height="4" fill="#4B4B4B"/>
<rect x="545" y="450" width="4" height="4" fill="#4B4B4B"/>
<rect x="541" y="454" width="4" height="4" fill="#4B4B4B"/>
<rect x="533" y="450" width="4" height="4" fill="#4B4B4B"/>
<rect x="537" y="450" width="4" height="4" fill="#4B4B4B"/>
<rect x="560" y="433" width="6" height="6" fill="#4B4B4B"/>
<rect x="34" y="494" width="6" height="6" fill="#4B4B4B"/>
<rect x="560" y="494" width="6" height="6" fill="#4B4B4B"/>
</g>
<rect x="34.5" y="433.5" width="531" height="66" stroke="#4B4B4B"/>
<g clip-path="url(#clip2_2681_4828)">
<path d="M278.24 403.24H277.76V403.72H277.28V404.2H276.8V404.68H273.44V409H272V398.44H276.8V398.92H277.28V399.4H277.76V399.88H278.24V403.24ZM276.8 402.76V400.36H276.32V399.88H273.44V403.24H276.32V402.76H276.8ZM284.963 409H278.723V407.56H281.123V399.88H280.163V398.44H283.523V399.88H282.563V407.56H284.963V409ZM291.686 407.56H291.206V408.04H290.726V408.52H290.246V409H287.366V408.52H286.886V408.04H286.406V407.56H285.926V407.08H285.446V400.36H285.926V399.88H286.406V399.4H286.886V398.92H287.366V398.44H290.246V398.92H290.726V399.4H291.206V399.88H291.686V401.32H290.246V400.36H289.766V399.88H287.846V400.36H287.366V400.84H286.886V406.6H287.366V407.08H287.846V407.56H289.766V407.08H290.246V406.12H291.686V407.56ZM298.409 409H296.969V408.04H296.489V407.08H296.009V406.12H295.529V405.16H295.049V404.2H294.089V404.68H293.609V409H292.169V398.44H293.609V402.76H294.089V402.28H294.569V401.8H295.049V401.32H295.529V400.84H296.009V400.36H296.489V399.864H296.969V399.4H297.449V398.92H297.929V398.44H298.409V400.36H297.929V400.84H297.449V401.32H296.969V401.784H296.489V402.28H296.009V402.76H295.529V403.24H296.009V403.72H296.489V404.68H296.969V405.64H297.449V406.6H297.929V407.56H298.409V409ZM305.133 409H298.892V407.56H301.293V399.88H300.332V398.44H303.693V399.88H302.733V407.56H305.133V409ZM311.856 409H310.416V408.52H309.936V407.56H309.456V406.6H308.976V405.64H308.496V404.68H308.016V403.72H307.536V402.76H307.056V409H305.616V398.44H306.576V399.4H307.056V400.36H307.536V401.32H308.016V402.28H308.496V403.24H308.976V404.2H309.456V405.16H309.936V406.12H310.416V398.44H311.856V409ZM318.579 408.04H318.099V408.52H317.619V409H314.259V408.52H313.779V408.04H313.299V407.56H312.819V407.08H312.339V400.36H312.819V399.88H313.299V399.4H313.779V398.92H314.259V398.44H317.619V398.92H318.099V399.4H318.579V400.36H317.139V399.88H314.739V400.36H314.259V400.84H313.779V406.6H314.259V407.08H314.739V407.56H317.139V404.68H316.659V405.16H315.219V403.24H318.579V408.04ZM332.025 399.88H329.625V409H328.185V399.88H325.785V398.44H332.025V399.88ZM338.748 409H337.308V404.2H333.948V409H332.508V398.44H333.948V402.76H337.308V398.44H338.748V409ZM345.471 409H339.231V398.44H345.471V399.88H340.671V402.76H344.511V404.2H340.671V407.56H345.471V409ZM358.917 409H357.477V407.08H356.997V406.12H356.517V405.16H356.037V404.2H354.117V409H352.677V398.44H357.477V398.92H357.957V399.4H358.437V399.88H358.917V402.76H358.437V403.24H357.957V403.72H357.477V404.68H357.957V405.64H358.437V406.6H358.917V409ZM357.477 402.28V400.36H356.997V399.88H354.117V402.76H356.997V402.28H357.477ZM365.641 409H359.401V407.56H361.801V399.88H360.841V398.44H364.201V399.88H363.241V407.56H365.641V409ZM372.364 408.04H371.884V408.52H371.404V409H368.044V408.52H367.564V408.04H367.084V407.56H366.604V407.08H366.124V400.36H366.604V399.88H367.084V399.4H367.564V398.92H368.044V398.44H371.404V398.92H371.884V399.4H372.364V400.36H370.924V399.88H368.524V400.36H368.044V400.84H367.564V406.6H368.044V407.08H368.524V407.56H370.924V404.68H370.444V405.16H369.004V403.24H372.364V408.04ZM379.087 409H377.647V404.2H374.287V409H372.847V398.44H374.287V402.76H377.647V398.44H379.087V409ZM385.81 399.88H383.41V409H381.97V399.88H379.57V398.44H385.81V399.88ZM399.256 399.88H396.856V409H395.416V399.88H393.016V398.44H399.256V399.88ZM405.979 407.08H405.499V407.56H405.019V408.04H404.539V408.52H404.059V409H401.659V408.52H401.179V408.04H400.699V407.56H400.219V407.08H399.739V400.36H400.219V399.88H400.699V399.4H401.179V398.92H401.659V398.44H404.059V398.92H404.539V399.4H405.019V399.88H405.499V400.36H405.979V407.08ZM404.539 406.6V400.84H404.059V400.36H403.579V399.88H402.139V400.36H401.659V400.84H401.179V406.6H401.659V407.08H402.139V407.56H403.579V407.08H404.059V406.6H404.539ZM412.702 407.08H412.222V407.56H411.742V408.04H411.262V408.52H410.782V409H408.382V408.52H407.902V408.04H407.422V407.56H406.942V407.08H406.462V400.36H406.942V399.88H407.422V399.4H407.902V398.92H408.382V398.44H410.782V398.92H411.262V399.4H411.742V399.88H412.222V400.36H412.702V407.08ZM411.262 406.6V400.84H410.782V400.36H410.302V399.88H408.862V400.36H408.382V400.84H407.902V406.6H408.382V407.08H408.862V407.56H410.302V407.08H410.782V406.6H411.262ZM419.426 409H413.186V398.44H414.626V407.56H419.426V409ZM426.149 407.56H425.669V408.04H425.189V408.52H424.709V409H421.349V408.52H420.869V408.04H420.389V407.56H419.909V406.12H421.349V407.08H421.829V407.56H424.229V407.08H424.709V404.68H424.229V404.2H421.349V403.72H420.869V403.24H420.389V402.76H419.909V399.88H420.389V399.4H420.869V398.92H421.349V398.44H424.709V398.92H425.189V399.4H425.669V399.88H426.149V401.32H424.709V400.36H424.229V399.88H421.829V400.36H421.349V402.28H421.829V402.76H424.709V403.24H425.189V403.72H425.669V404.2H426.149V407.56ZM429.032 409.96H429.512V409H428.552V407.08H430.472V409.96H429.992V410.44H429.032V409.96ZM446.318 407.56H445.838V408.04H445.358V408.52H444.878V409H441.518V408.52H441.038V408.04H440.558V407.56H440.078V406.12H441.518V407.08H441.998V407.56H444.398V407.08H444.878V404.68H444.398V404.2H441.518V403.72H441.038V403.24H440.558V402.76H440.078V399.88H440.558V399.4H441.038V398.92H441.518V398.44H444.878V398.92H445.358V399.4H445.838V399.88H446.318V401.32H444.878V400.36H444.398V399.88H441.998V400.36H441.518V402.28H441.998V402.76H444.878V403.24H445.358V403.72H445.838V404.2H446.318V407.56ZM453.041 399.88H450.641V409H449.201V399.88H446.801V398.44H453.041V399.88ZM459.764 409H458.324V406.6H454.964V409H453.524V405.16V404.68V403.72H454.004V402.76H454.484V401.8H454.964V400.84H455.444V399.88H455.924V398.92H456.404V398.44H456.884V398.92H457.364V399.88H457.844V400.84H458.324V401.8H458.804V402.76H459.284V403.72H459.764V404.68V405.16V409ZM458.324 405.16V404.68V404.2H457.844V403.24H457.364V402.28H456.884V401.32H456.404V402.28H455.924V403.24H455.444V404.2H454.964V404.68V405.16H458.324ZM466.487 407.56H466.007V408.04H465.527V408.52H465.047V409H462.167V408.52H461.687V408.04H461.207V407.56H460.727V407.08H460.247V400.36H460.727V399.88H461.207V399.4H461.687V398.92H462.167V398.44H465.047V398.92H465.527V399.4H466.007V399.88H466.487V401.32H465.047V400.36H464.567V399.88H462.647V400.36H462.167V400.84H461.687V406.6H462.167V407.08H462.647V407.56H464.567V407.08H465.047V406.12H466.487V407.56ZM473.211 409H471.771V408.04H471.291V407.08H470.811V406.12H470.331V405.16H469.851V404.2H468.891V404.68H468.411V409H466.971V398.44H468.411V402.76H468.891V402.28H469.371V401.8H469.851V401.32H470.331V400.84H470.811V400.36H471.291V399.864H471.771V399.4H472.251V398.92H472.731V398.44H473.211V400.36H472.731V400.84H472.251V401.32H471.771V401.784H471.291V402.28H470.811V402.76H470.331V403.24H470.811V403.72H471.291V404.68H471.771V405.64H472.251V406.6H472.731V407.56H473.211V409ZM476.094 409.96H476.574V409H475.614V407.08H477.534V409.96H477.054V410.44H476.094V409.96ZM493.38 409H491.94V406.6H488.58V409H487.14V405.16V404.68V403.72H487.62V402.76H488.1V401.8H488.58V400.84H489.06V399.88H489.54V398.92H490.02V398.44H490.5V398.92H490.98V399.88H491.46V400.84H491.94V401.8H492.42V402.76H492.9V403.72H493.38V404.68V405.16V409ZM491.94 405.16V404.68V404.2H491.46V403.24H490.98V402.28H490.5V401.32H490.02V402.28H489.54V403.24H489.06V404.2H488.58V404.68V405.16H491.94ZM500.103 409H498.663V408.52H498.183V407.56H497.703V406.6H497.223V405.64H496.743V404.68H496.263V403.72H495.783V402.76H495.303V409H493.863V398.44H494.823V399.4H495.303V400.36H495.783V401.32H496.263V402.28H496.743V403.24H497.223V404.2H497.703V405.16H498.183V406.12H498.663V398.44H500.103V409ZM506.826 406.6H506.346V407.08H505.866V407.56H505.386V408.04H504.906V408.52H504.41V409H500.586V398.44H504.426V398.92H504.906V399.4H505.386V399.88H505.866V400.36H506.346V400.84H506.826V406.6ZM505.386 406.12V401.32H504.906V400.84H504.426V400.36H503.946V399.88H502.026V407.56H503.946V407.08H504.426V406.6H504.906V406.12H505.386ZM520.273 409H514.033V407.56H516.433V399.88H515.473V398.44H518.833V399.88H517.873V407.56H520.273V409ZM526.996 409H525.556V408.52H525.076V407.56H524.596V406.6H524.116V405.64H523.636V404.68H523.156V403.72H522.676V402.76H522.196V409H520.756V398.44H521.716V399.4H522.196V400.36H522.676V401.32H523.156V402.28H523.636V403.24H524.116V404.2H524.596V405.16H525.076V406.12H525.556V398.44H526.996V409ZM533.719 399.88H528.919V402.76H532.279V404.2H528.919V409H527.479V398.44H533.719V399.88ZM540.442 409H539.002V407.08H538.522V406.12H538.042V405.16H537.562V404.2H535.642V409H534.202V398.44H539.002V398.92H539.482V399.4H539.962V399.88H540.442V402.76H539.962V403.24H539.482V403.72H539.002V404.68H539.482V405.64H539.962V406.6H540.442V409ZM539.002 402.28V400.36H538.522V399.88H535.642V402.76H538.522V402.28H539.002ZM547.165 409H545.725V406.6H542.365V409H540.925V405.16V404.68V403.72H541.405V402.76H541.885V401.8H542.365V400.84H542.845V399.88H543.325V398.92H543.805V398.44H544.285V398.92H544.765V399.88H545.245V400.84H545.725V401.8H546.205V402.76H546.685V403.72H547.165V404.68V405.16V409ZM545.725 405.16V404.68V404.2H545.245V403.24H544.765V402.28H544.285V401.32H543.805V402.28H543.325V403.24H542.845V404.2H542.365V404.68V405.16H545.725Z" fill="#D9D9D9"/>
<path d="M278.24 390H272V388.56H274.4V380.88H273.44V379.44H276.8V380.88H275.84V388.56H278.24V390ZM284.963 387.6H284.483V388.08H284.003V388.56H283.523V389.04H283.043V389.52H282.547V390H278.723V379.44H282.563V379.92H283.043V380.4H283.523V380.88H284.003V381.36H284.483V381.84H284.963V387.6ZM283.523 387.12V382.32H283.043V381.84H282.563V381.36H282.083V380.88H280.163V388.56H282.083V388.08H282.563V387.6H283.043V387.12H283.523ZM289.286 390H287.366V388.08H289.286V390ZM298.409 390H292.169V386.16H292.649V385.68H293.129V385.2H293.609V384.72H294.089V384.24H296.009V383.76H296.489V383.28H296.969V381.36H296.489V380.88H294.089V381.36H293.609V382.32H292.169V380.88H292.649V380.4H293.129V379.92H293.609V379.44H296.969V379.92H297.449V380.4H297.929V380.88H298.409V383.76H297.929V384.24H297.449V384.72H296.969V385.2H296.489V385.68H294.569V386.16H294.089V386.64H293.609V388.56H298.409V390ZM302.733 390H300.812V388.08H302.733V390ZM311.856 388.08H311.376V388.56H310.896V389.04H310.416V389.52H309.936V390H307.536V389.52H307.056V389.04H306.576V388.56H306.096V388.08H305.616V381.36H306.096V380.88H306.576V380.4H307.056V379.92H307.536V379.44H309.936V379.92H310.416V380.4H310.896V380.88H311.376V381.36H311.856V388.08ZM309.936 381.84V381.36V380.88H307.536V381.36H307.056V386.64H307.536V385.68H308.016V384.72H308.496V383.76H308.976V382.8H309.456V381.84H309.936ZM310.416 388.08V383.28H309.936V384.24H309.456V385.2H308.976V386.16H308.496V387.12H308.016V388.08H307.536V388.56H309.936V388.08H310.416ZM318.579 388.08H318.099V388.56H317.619V389.04H317.139V389.52H316.659V390H314.259V389.52H313.779V389.04H313.299V388.56H312.819V388.08H312.339V381.36H312.819V380.88H313.299V380.4H313.779V379.92H314.259V379.44H316.659V379.92H317.139V380.4H317.619V380.88H318.099V381.36H318.579V388.08ZM316.659 381.84V381.36V380.88H314.259V381.36H313.779V386.64H314.259V385.68H314.739V384.72H315.219V383.76H315.699V382.8H316.179V381.84H316.659ZM317.139 388.08V383.28H316.659V384.24H316.179V385.2H315.699V386.16H315.219V387.12H314.739V388.08H314.259V388.56H316.659V388.08H317.139ZM325.302 388.56H324.822V389.04H324.342V389.52H323.862V390H320.502V389.52H320.022V389.04H319.542V388.56H319.062V387.12H320.502V388.08H320.982V388.56H323.382V388.08H323.862V386.16H323.382V385.68H322.902V385.2H322.422V384.72H321.942V384.24H321.462V383.76H320.982V383.28H321.462V382.8H321.942V382.32H322.422V381.84H322.902V381.36H323.382V380.88H319.062V379.44H325.302V381.36H324.822V381.84H324.342V382.32H323.862V382.8H323.382V383.28H322.902V383.76H323.382V384.24H323.862V384.72H324.342V385.2H324.822V385.68H325.302V388.56Z" fill="#4B4B4B"/>
<rect x="255" y="362" width="6" height="6" fill="#4B4B4B"/>
<rect x="541" y="379" width="4" height="4" fill="#4B4B4B"/>
<rect x="533" y="379" width="4" height="4" fill="#4B4B4B"/>
<rect x="545" y="379" width="4" height="4" fill="#4B4B4B"/>
<rect x="545" y="383" width="4" height="4" fill="#4B4B4B"/>
<rect x="537" y="383" width="4" height="4" fill="#4B4B4B"/>
<rect x="560" y="362" width="6" height="6" fill="#4B4B4B"/>
<rect x="255" y="423" width="6" height="6" fill="#4B4B4B"/>
<rect x="560" y="423" width="6" height="6" fill="#4B4B4B"/>
</g>
<rect x="255.5" y="362.5" width="310" height="66" stroke="#4B4B4B"/>
<g clip-path="url(#clip3_2681_4828)">
<path d="M339.24 264.6H338.76V265.08H338.28V265.56H337.8V266.04H337.32V266.52H336.824V267H333V256.44H336.84V256.92H337.32V257.4H337.8V257.88H338.28V258.36H338.76V258.84H339.24V264.6ZM337.8 264.12V259.32H337.32V258.84H336.84V258.36H336.36V257.88H334.44V265.56H336.36V265.08H336.84V264.6H337.32V264.12H337.8ZM345.963 267H339.723V256.44H345.963V257.88H341.163V260.76H345.003V262.2H341.163V265.56H345.963V267ZM352.686 257.88H347.886V260.76H351.246V262.2H347.886V267H346.446V256.44H352.686V257.88ZM359.409 267H353.169V265.56H355.569V257.88H354.609V256.44H357.969V257.88H357.009V265.56H359.409V267ZM366.133 267H364.693V266.52H364.213V265.56H363.733V264.6H363.253V263.64H362.773V262.68H362.293V261.72H361.812V260.76H361.332V267H359.892V256.44H360.852V257.4H361.332V258.36H361.812V259.32H362.293V260.28H362.773V261.24H363.253V262.2H363.733V263.16H364.213V264.12H364.693V256.44H366.133V267ZM372.856 267H366.616V265.56H369.016V257.88H368.056V256.44H371.416V257.88H370.456V265.56H372.856V267ZM379.579 267H378.139V266.52H377.659V265.56H377.179V264.6H376.699V263.64H376.219V262.68H375.739V261.72H375.259V260.76H374.779V267H373.339V256.44H374.299V257.4H374.779V258.36H375.259V259.32H375.739V260.28H376.219V261.24H376.699V262.2H377.179V263.16H377.659V264.12H378.139V256.44H379.579V267ZM386.302 266.04H385.822V266.52H385.342V267H381.982V266.52H381.502V266.04H381.022V265.56H380.542V265.08H380.062V258.36H380.542V257.88H381.022V257.4H381.502V256.92H381.982V256.44H385.342V256.92H385.822V257.4H386.302V258.36H384.862V257.88H382.462V258.36H381.982V258.84H381.502V264.6H381.982V265.08H382.462V265.56H384.862V262.68H384.382V263.16H382.942V261.24H386.302V266.04ZM399.748 257.88H394.948V260.76H398.308V262.2H394.948V267H393.508V256.44H399.748V257.88ZM406.471 267H400.231V256.44H406.471V257.88H401.671V260.76H405.511V262.2H401.671V265.56H406.471V267ZM413.194 267H411.754V264.6H408.394V267H406.954V263.16V262.68V261.72H407.434V260.76H407.914V259.8H408.394V258.84H408.874V257.88H409.354V256.92H409.834V256.44H410.314V256.92H410.794V257.88H411.274V258.84H411.754V259.8H412.234V260.76H412.714V261.72H413.194V262.68V263.16V267ZM411.754 263.16V262.68V262.2H411.274V261.24H410.794V260.28H410.314V259.32H409.834V260.28H409.354V261.24H408.874V262.2H408.394V262.68V263.16H411.754ZM419.917 257.88H417.517V267H416.077V257.88H413.677V256.44H419.917V257.88ZM426.641 265.56H426.161V266.04H425.681V266.52H425.201V267H421.841V266.52H421.361V266.04H420.881V265.56H420.401V256.44H421.841V265.08H422.321V265.56H424.721V265.08H425.201V256.44H426.641V265.56ZM433.364 267H431.924V265.08H431.444V264.12H430.964V263.16H430.484V262.2H428.564V267H427.124V256.44H431.924V256.92H432.404V257.4H432.884V257.88H433.364V260.76H432.884V261.24H432.404V261.72H431.924V262.68H432.404V263.64H432.884V264.6H433.364V267ZM431.924 260.28V258.36H431.444V257.88H428.564V260.76H431.444V260.28H431.924ZM440.087 267H433.847V256.44H440.087V257.88H435.287V260.76H439.127V262.2H435.287V265.56H440.087V267ZM446.81 265.56H446.33V266.04H445.85V266.52H445.37V267H442.01V266.52H441.53V266.04H441.05V265.56H440.57V264.12H442.01V265.08H442.49V265.56H444.89V265.08H445.37V262.68H444.89V262.2H442.01V261.72H441.53V261.24H441.05V260.76H440.57V257.88H441.05V257.4H441.53V256.92H442.01V256.44H445.37V256.92H445.85V257.4H446.33V257.88H446.81V259.32H445.37V258.36H444.89V257.88H442.49V258.36H442.01V260.28H442.49V260.76H445.37V261.24H445.85V261.72H446.33V262.2H446.81V265.56ZM460.256 267H458.816V264.6H455.456V267H454.016V263.16V262.68V261.72H454.496V260.76H454.976V259.8H455.456V258.84H455.936V257.88H456.416V256.92H456.896V256.44H457.376V256.92H457.856V257.88H458.336V258.84H458.816V259.8H459.296V260.76H459.776V261.72H460.256V262.68V263.16V267ZM458.816 263.16V262.68V262.2H458.336V261.24H457.856V260.28H457.376V259.32H456.896V260.28H456.416V261.24H455.936V262.2H455.456V262.68V263.16H458.816ZM466.979 267H465.539V266.52H465.059V265.56H464.579V264.6H464.099V263.64H463.619V262.68H463.139V261.72H462.659V260.76H462.179V267H460.739V256.44H461.699V257.4H462.179V258.36H462.659V259.32H463.139V260.28H463.619V261.24H464.099V262.2H464.579V263.16H465.059V264.12H465.539V256.44H466.979V267ZM473.702 264.6H473.222V265.08H472.742V265.56H472.262V266.04H471.782V266.52H471.286V267H467.462V256.44H471.302V256.92H471.782V257.4H472.262V257.88H472.742V258.36H473.222V258.84H473.702V264.6ZM472.262 264.12V259.32H471.782V258.84H471.302V258.36H470.822V257.88H468.902V265.56H470.822V265.08H471.302V264.6H471.782V264.12H472.262ZM487.149 261.24H486.669V261.72H486.189V262.2H485.709V262.68H482.349V267H480.909V256.44H485.709V256.92H486.189V257.4H486.669V257.88H487.149V261.24ZM485.709 260.76V258.36H485.229V257.88H482.349V261.24H485.229V260.76H485.709ZM493.872 267H492.432V265.08H491.952V264.12H491.472V263.16H490.992V262.2H489.072V267H487.632V256.44H492.432V256.92H492.912V257.4H493.392V257.88H493.872V260.76H493.392V261.24H492.912V261.72H492.432V262.68H492.912V263.64H493.392V264.6H493.872V267ZM492.432 260.28V258.36H491.952V257.88H489.072V260.76H491.952V260.28H492.432ZM500.595 267H494.355V265.56H496.755V257.88H495.795V256.44H499.155V257.88H498.195V265.56H500.595V267ZM507.318 265.08H506.838V265.56H506.358V266.04H505.878V266.52H505.398V267H502.998V266.52H502.518V266.04H502.038V265.56H501.558V265.08H501.078V258.36H501.558V257.88H502.038V257.4H502.518V256.92H502.998V256.44H505.398V256.92H505.878V257.4H506.358V257.88H506.838V258.36H507.318V265.08ZM505.878 264.6V258.84H505.398V258.36H504.918V257.88H503.478V258.36H502.998V258.84H502.518V264.6H502.998V265.08H503.478V265.56H504.918V265.08H505.398V264.6H505.878ZM514.041 267H512.601V265.08H512.121V264.12H511.641V263.16H511.161V262.2H509.241V267H507.801V256.44H512.601V256.92H513.081V257.4H513.561V257.88H514.041V260.76H513.561V261.24H513.081V261.72H512.601V262.68H513.081V263.64H513.561V264.6H514.041V267ZM512.601 260.28V258.36H512.121V257.88H509.241V260.76H512.121V260.28H512.601ZM520.764 267H514.524V265.56H516.924V257.88H515.964V256.44H519.324V257.88H518.364V265.56H520.764V267ZM527.487 257.88H525.087V267H523.647V257.88H521.247V256.44H527.487V257.88ZM534.211 267H527.971V265.56H530.371V257.88H529.411V256.44H532.771V257.88H531.811V265.56H534.211V267ZM540.934 267H534.694V256.44H540.934V257.88H536.134V260.76H539.974V262.2H536.134V265.56H540.934V267ZM547.657 265.56H547.177V266.04H546.697V266.52H546.217V267H542.857V266.52H542.377V266.04H541.897V265.56H541.417V264.12H542.857V265.08H543.337V265.56H545.737V265.08H546.217V262.68H545.737V262.2H542.857V261.72H542.377V261.24H541.897V260.76H541.417V257.88H541.897V257.4H542.377V256.92H542.857V256.44H546.217V256.92H546.697V257.4H547.177V257.88H547.657V259.32H546.217V258.36H545.737V257.88H543.337V258.36H542.857V260.28H543.337V260.76H546.217V261.24H546.697V261.72H547.177V262.2H547.657V265.56Z" fill="#D9D9D9"/>
<path d="M339.24 248H333V246.56H335.4V238.88H334.44V237.44H337.8V238.88H336.84V246.56H339.24V248ZM345.963 245.6H345.483V246.08H345.003V246.56H344.523V247.04H344.043V247.52H343.547V248H339.723V237.44H343.563V237.92H344.043V238.4H344.523V238.88H345.003V239.36H345.483V239.84H345.963V245.6ZM344.523 245.12V240.32H344.043V239.84H343.563V239.36H343.083V238.88H341.163V246.56H343.083V246.08H343.563V245.6H344.043V245.12H344.523ZM350.286 248H348.366V246.08H350.286V248ZM359.409 248H353.169V244.16H353.649V243.68H354.129V243.2H354.609V242.72H355.089V242.24H357.009V241.76H357.489V241.28H357.969V239.36H357.489V238.88H355.089V239.36H354.609V240.32H353.169V238.88H353.649V238.4H354.129V237.92H354.609V237.44H357.969V237.92H358.449V238.4H358.929V238.88H359.409V241.76H358.929V242.24H358.449V242.72H357.969V243.2H357.489V243.68H355.569V244.16H355.089V244.64H354.609V246.56H359.409V248ZM363.733 248H361.812V246.08H363.733V248ZM372.856 246.08H372.376V246.56H371.896V247.04H371.416V247.52H370.936V248H368.536V247.52H368.056V247.04H367.576V246.56H367.096V246.08H366.616V239.36H367.096V238.88H367.576V238.4H368.056V237.92H368.536V237.44H370.936V237.92H371.416V238.4H371.896V238.88H372.376V239.36H372.856V246.08ZM370.936 239.84V239.36V238.88H368.536V239.36H368.056V244.64H368.536V243.68H369.016V242.72H369.496V241.76H369.976V240.8H370.456V239.84H370.936ZM371.416 246.08V241.28H370.936V242.24H370.456V243.2H369.976V244.16H369.496V245.12H369.016V246.08H368.536V246.56H370.936V246.08H371.416ZM379.579 246.08H379.099V246.56H378.619V247.04H378.139V247.52H377.659V248H375.259V247.52H374.779V247.04H374.299V246.56H373.819V246.08H373.339V239.36H373.819V238.88H374.299V238.4H374.779V237.92H375.259V237.44H377.659V237.92H378.139V238.4H378.619V238.88H379.099V239.36H379.579V246.08ZM377.659 239.84V239.36V238.88H375.259V239.36H374.779V244.64H375.259V243.68H375.739V242.72H376.219V241.76H376.699V240.8H377.179V239.84H377.659ZM378.139 246.08V241.28H377.659V242.24H377.179V243.2H376.699V244.16H376.219V245.12H375.739V246.08H375.259V246.56H377.659V246.08H378.139ZM386.302 248H380.062V246.56H382.462V238.88H381.022V237.44H383.902V246.56H386.302V248Z" fill="#4B4B4B"/>
<rect x="316" y="220" width="6" height="6" fill="#4B4B4B"/>
<rect x="541" y="237" width="4" height="4" fill="#4B4B4B"/>
<rect x="545" y="241" width="4" height="4" fill="#4B4B4B"/>
<rect x="541" y="241" width="4" height="4" fill="#4B4B4B"/>
<rect x="537" y="237" width="4" height="4" fill="#4B4B4B"/>
<rect x="533" y="241" width="4" height="4" fill="#4B4B4B"/>
<rect x="560" y="220" width="6" height="6" fill="#4B4B4B"/>
<rect x="316" y="281" width="6" height="6" fill="#4B4B4B"/>
<rect x="560" y="281" width="6" height="6" fill="#4B4B4B"/>
</g>
<rect x="316.5" y="220.5" width="249" height="66" stroke="#4B4B4B"/>
<rect x="580.5" y="220.5" width="30" height="279" rx="15" stroke="#4B4B4B" stroke-dasharray="2 2"/>
<path d="M598.4 429.284L598.4 429.584L598.7 429.584L598.7 429.884L599 429.884L599 431.984L598.7 431.984L598.7 432.284L598.4 432.284L598.4 432.584L598.1 432.584L598.1 432.884L597.8 432.884L597.8 433.184L593.6 433.184L593.6 432.884L593.3 432.884L593.3 432.584L593 432.584L593 432.284L592.7 432.284L592.7 431.984L592.4 431.984L592.4 429.884L592.7 429.884L592.7 429.584L593 429.584L593 429.284L593.6 429.284L593.6 430.184L593.3 430.184L593.3 431.684L593.6 431.684L593.6 431.984L593.9 431.984L593.9 432.284L597.5 432.284L597.5 431.984L597.8 431.984L597.8 431.684L598.1 431.684L598.1 430.184L596.3 430.184L596.3 430.484L596.6 430.484L596.6 431.384L595.4 431.384L595.4 429.284L598.4 429.284ZM599 425.082L599 428.982L592.4 428.982L592.4 425.082L593.3 425.082L593.3 428.082L595.1 428.082L595.1 425.682L596 425.682L596 428.082L598.1 428.082L598.1 425.082L599 425.082ZM597.8 420.88L597.8 421.18L598.1 421.18L598.1 421.48L598.4 421.48L598.4 421.78L598.7 421.78L598.7 422.08L599 422.08L599 423.58L598.7 423.58L598.7 423.88L598.4 423.88L598.4 424.18L598.1 424.18L598.1 424.48L597.8 424.48L597.8 424.78L593.6 424.78L593.6 424.48L593.3 424.48L593.3 424.18L593 424.18L593 423.88L592.7 423.88L592.7 423.58L592.4 423.58L592.4 422.08L592.7 422.08L592.7 421.78L593 421.78L593 421.48L593.3 421.48L593.3 421.18L593.6 421.18L593.6 420.88L597.8 420.88ZM597.5 421.78L593.9 421.78L593.9 422.08L593.6 422.08L593.6 422.38L593.3 422.38L593.3 423.28L593.6 423.28L593.6 423.58L593.9 423.58L593.9 423.88L597.5 423.88L597.5 423.58L597.8 423.58L597.8 423.28L598.1 423.28L598.1 422.38L597.8 422.38L597.8 422.08L597.5 422.08L597.5 421.78ZM599 416.678L599 417.578L595.7 417.578L595.7 417.878L596.3 417.878L596.3 418.178L596.9 418.178L596.9 418.478L597.5 418.478L597.5 418.778L596.9 418.778L596.9 419.078L596.3 419.078L596.3 419.378L595.7 419.378L595.7 419.678L599 419.678L599 420.578L592.4 420.578L592.4 420.278L593 420.278L593 419.978L593.6 419.978L593.6 419.678L594.2 419.678L594.2 419.378L594.8 419.378L594.8 419.078L595.4 419.078L595.4 418.778L596 418.778L596 418.478L595.4 418.478L595.4 418.178L594.8 418.178L594.8 417.878L594.2 417.878L594.2 417.578L593.6 417.578L593.6 417.278L593 417.278L593 416.978L592.4 416.978L592.4 416.678L599 416.678ZM600.2 412.476L600.2 416.376L599.6 416.376L599.6 412.476L600.2 412.476ZM599 408.274L599 409.174L596 409.174L596 411.274L599 411.274L599 412.174L592.4 412.174L592.4 411.274L595.1 411.274L595.1 409.174L592.4 409.174L592.4 408.274L599 408.274ZM599 404.072L599 404.972L597.5 404.972L597.5 407.072L599 407.072L599 407.972L596.6 407.972L596.3 407.972L595.7 407.972L595.7 407.672L595.1 407.672L595.1 407.372L594.5 407.372L594.5 407.072L593.9 407.072L593.9 406.772L593.3 406.772L593.3 406.472L592.7 406.472L592.7 406.172L592.4 406.172L592.4 405.872L592.7 405.872L592.7 405.572L593.3 405.572L593.3 405.272L593.9 405.272L593.9 404.972L594.5 404.972L594.5 404.672L595.1 404.672L595.1 404.372L595.7 404.372L595.7 404.072L596.3 404.072L596.6 404.072L599 404.072ZM596.6 404.972L596.3 404.972L596 404.972L596 405.272L595.4 405.272L595.4 405.572L594.8 405.572L594.8 405.872L594.2 405.872L594.2 406.172L594.8 406.172L594.8 406.472L595.4 406.472L595.4 406.772L596 406.772L596 407.072L596.3 407.072L596.6 407.072L596.6 404.972ZM598.1 399.871L598.1 400.171L598.4 400.171L598.4 400.471L598.7 400.471L598.7 400.771L599 400.771L599 402.871L598.7 402.871L598.7 403.171L598.4 403.171L598.4 403.471L598.1 403.471L598.1 403.771L597.2 403.771L597.2 402.871L597.8 402.871L597.8 402.571L598.1 402.571L598.1 401.071L597.8 401.071L597.8 400.771L596.3 400.771L596.3 401.071L596 401.071L596 402.871L595.7 402.871L595.7 403.171L595.4 403.171L595.4 403.471L595.1 403.471L595.1 403.771L593.3 403.771L593.3 403.471L593 403.471L593 403.171L592.7 403.171L592.7 402.871L592.4 402.871L592.4 400.771L592.7 400.771L592.7 400.471L593 400.471L593 400.171L593.3 400.171L593.3 399.871L594.2 399.871L594.2 400.771L593.6 400.771L593.6 401.071L593.3 401.071L593.3 402.571L593.6 402.571L593.6 402.871L594.8 402.871L594.8 402.571L595.1 402.571L595.1 400.771L595.4 400.771L595.4 400.471L595.7 400.471L595.7 400.171L596 400.171L596 399.871L598.1 399.871ZM599 395.669L599 396.569L596 396.569L596 398.669L599 398.669L599 399.569L592.4 399.569L592.4 398.669L595.1 398.669L595.1 396.569L592.4 396.569L592.4 395.669L599 395.669ZM596.6 392.967L596.6 394.167L595.4 394.167L595.4 392.967L596.6 392.967ZM599 392.967L599 394.167L597.8 394.167L597.8 392.967L599 392.967ZM598.1 383.063L598.1 383.363L598.4 383.363L598.4 383.663L598.7 383.663L598.7 383.963L599 383.963L599 386.063L598.7 386.063L598.7 386.363L598.4 386.363L598.4 386.663L598.1 386.663L598.1 386.963L596 386.963L596 386.663L595.7 386.663L595.7 386.363L595.4 386.363L595.4 386.663L595.1 386.663L595.1 386.963L593.3 386.963L593.3 386.663L593 386.663L593 386.363L592.7 386.363L592.7 386.063L592.4 386.063L592.4 383.963L592.7 383.963L592.7 383.663L593 383.663L593 383.363L593.3 383.363L593.3 383.063L595.1 383.063L595.1 383.363L595.4 383.363L595.4 383.663L595.7 383.663L595.7 383.363L596 383.363L596 383.063L598.1 383.063ZM594.8 383.963L593.6 383.963L593.6 384.263L593.3 384.263L593.3 385.763L593.6 385.763L593.6 386.063L594.8 386.063L594.8 385.763L595.1 385.763L595.1 384.263L594.8 384.263L594.8 383.963ZM597.8 383.963L596.3 383.963L596.3 384.263L596 384.263L596 385.763L596.3 385.763L596.3 386.063L597.8 386.063L597.8 385.763L598.1 385.763L598.1 384.263L597.8 384.263L597.8 383.963ZM596 378.861L596 379.161L596.6 379.161L596.6 379.461L596.9 379.461L596.9 379.761L597.2 379.761L597.2 380.061L597.5 380.061L597.5 380.361L597.8 380.361L597.8 380.661L598.1 380.661L598.1 380.961L598.4 380.961L598.4 381.261L598.7 381.261L598.7 381.561L599 381.561L599 382.461L598.4 382.461L598.4 382.161L598.1 382.161L598.1 381.861L597.8 381.861L597.8 381.561L597.5 381.561L597.5 381.261L597.2 381.261L597.2 380.961L596.9 380.961L596.9 380.661L596.6 380.661L596.6 380.361L596.3 380.361L596.3 381.861L596 381.861L596 382.161L595.7 382.161L595.7 382.461L595.4 382.461L595.4 382.761L593.3 382.761L593.3 382.461L593 382.461L593 382.161L592.7 382.161L592.7 381.861L592.4 381.861L592.4 379.761L592.7 379.761L592.7 379.461L593 379.461L593 379.161L593.3 379.161L593.3 378.861L596 378.861ZM595.1 379.761L593.6 379.761L593.6 380.061L593.3 380.061L593.3 381.561L593.6 381.561L593.6 381.861L595.1 381.861L595.1 381.561L595.4 381.561L595.4 380.061L595.1 380.061L595.1 379.761ZM597.5 374.659L597.5 374.959L597.8 374.959L597.8 375.259L598.1 375.259L598.1 375.559L598.4 375.559L598.4 375.859L598.7 375.859L598.7 376.169L599 376.169L599 378.559L592.4 378.559L592.4 376.159L592.7 376.159L592.7 375.859L593 375.859L593 375.559L593.3 375.559L593.3 375.259L593.6 375.259L593.6 374.959L593.9 374.959L593.9 374.659L597.5 374.659ZM597.2 375.559L594.2 375.559L594.2 375.859L593.9 375.859L593.9 376.159L593.6 376.159L593.6 376.459L593.3 376.459L593.3 377.659L598.1 377.659L598.1 376.459L597.8 376.459L597.8 376.159L597.5 376.159L597.5 375.859L597.2 375.859L597.2 375.559ZM599 370.457L599 374.357L596.6 374.357L596.6 374.057L596.3 374.057L596.3 373.757L596 373.757L596 373.457L595.7 373.457L595.7 373.157L595.4 373.157L595.4 371.957L595.1 371.957L595.1 371.657L594.8 371.657L594.8 371.357L593.6 371.357L593.6 371.657L593.3 371.657L593.3 373.157L593.6 373.157L593.6 373.457L594.2 373.457L594.2 374.357L593.3 374.357L593.3 374.057L593 374.057L593 373.757L592.7 373.757L592.7 373.457L592.4 373.457L592.4 371.357L592.7 371.357L592.7 371.057L593 371.057L593 370.757L593.3 370.757L593.3 370.457L595.1 370.457L595.1 370.757L595.4 370.757L595.4 371.057L595.7 371.057L595.7 371.357L596 371.357L596 371.657L596.3 371.657L596.3 372.857L596.6 372.857L596.6 373.157L596.9 373.157L596.9 373.457L598.1 373.457L598.1 370.457L599 370.457ZM593.3 366.255L593.3 369.255L595.1 369.255L595.1 367.155L596 367.155L596 369.255L599 369.255L599 370.155L592.4 370.155L592.4 366.255L593.3 366.255ZM599 362.053L599 362.953L597.5 362.953L597.5 365.053L599 365.053L599 365.953L596.6 365.953L596.3 365.953L595.7 365.953L595.7 365.653L595.1 365.653L595.1 365.353L594.5 365.353L594.5 365.053L593.9 365.053L593.9 364.753L593.3 364.753L593.3 364.453L592.7 364.453L592.7 364.153L592.4 364.153L592.4 363.853L592.7 363.853L592.7 363.553L593.3 363.553L593.3 363.253L593.9 363.253L593.9 362.953L594.5 362.953L594.5 362.653L595.1 362.653L595.1 362.353L595.7 362.353L595.7 362.053L596.3 362.053L596.6 362.053L599 362.053ZM596.6 362.953L596.3 362.953L596 362.953L596 363.253L595.4 363.253L595.4 363.553L594.8 363.553L594.8 363.853L594.2 363.853L594.2 364.153L594.8 364.153L594.8 364.453L595.4 364.453L595.4 364.753L596 364.753L596 365.053L596.3 365.053L596.6 365.053L596.6 362.953ZM598.1 336.841L598.1 337.141L598.4 337.141L598.4 337.441L598.7 337.441L598.7 337.741L599 337.741L599 339.541L598.7 339.541L598.7 339.841L598.4 339.841L598.4 340.141L598.1 340.141L598.1 340.441L597.8 340.441L597.8 340.741L593.6 340.741L593.6 340.441L593.3 340.441L593.3 340.141L593 340.141L593 339.841L592.7 339.841L592.7 339.541L592.4 339.541L592.4 337.741L592.7 337.741L592.7 337.441L593 337.441L593 337.141L593.3 337.141L593.3 336.841L594.2 336.841L594.2 337.741L593.6 337.741L593.6 338.041L593.3 338.041L593.3 339.241L593.6 339.241L593.6 339.541L593.9 339.541L593.9 339.841L597.5 339.841L597.5 339.541L597.8 339.541L597.8 339.241L598.1 339.241L598.1 338.041L597.8 338.041L597.8 337.741L597.2 337.741L597.2 336.841L598.1 336.841ZM599 332.639L599 333.539L596 333.539L596 335.639L599 335.639L599 336.539L592.4 336.539L592.4 335.639L595.1 335.639L595.1 333.539L592.4 333.539L592.4 332.639L599 332.639ZM599 328.437L599 329.337L598.4 329.337L598.4 329.637L597.8 329.637L597.8 329.937L597.2 329.937L597.2 330.237L596.6 330.237L596.6 330.537L596 330.537L596 331.137L596.3 331.137L596.3 331.437L599 331.437L599 332.337L592.4 332.337L592.4 331.437L595.1 331.437L595.1 331.137L594.8 331.137L594.8 330.837L594.5 330.837L594.5 330.537L594.2 330.537L594.2 330.237L593.9 330.237L593.9 329.937L593.6 329.937L593.6 329.637L593.29 329.637L593.29 329.337L593 329.337L593 329.037L592.7 329.037L592.7 328.737L592.4 328.737L592.4 328.437L593.6 328.437L593.6 328.737L593.9 328.737L593.9 329.037L594.2 329.037L594.2 329.337L594.49 329.337L594.49 329.637L594.8 329.637L594.8 329.937L595.1 329.937L595.1 330.237L595.4 330.237L595.4 329.937L595.7 329.937L595.7 329.637L596.3 329.637L596.3 329.337L596.9 329.337L596.9 329.037L597.5 329.037L597.5 328.737L598.1 328.737L598.1 328.437L599 328.437ZM596.9 324.835L596.9 327.535L596 327.535L596 324.835L596.9 324.835ZM595.4 320.033L595.4 320.333L596 320.333L596 320.633L596.6 320.633L596.6 320.933L597.2 320.933L597.2 321.233L597.8 321.233L597.8 321.533L598.4 321.533L598.4 321.833L599 321.833L599 322.133L598.4 322.133L598.4 322.433L597.8 322.433L597.8 322.733L597.2 322.733L597.2 323.033L596.6 323.033L596.6 323.333L596 323.333L596 323.633L595.4 323.633L595.4 323.933L592.4 323.933L592.4 323.033L595.1 323.033L595.1 322.733L595.7 322.733L595.7 322.433L596.3 322.433L596.3 322.133L596.9 322.133L596.9 321.833L596.3 321.833L596.3 321.533L595.7 321.533L595.7 321.233L595.1 321.233L595.1 320.933L592.4 320.933L592.4 320.033L595.4 320.033ZM599 315.831L599 316.731L597.8 316.731L597.8 317.031L597.2 317.031L597.2 317.331L596.6 317.331L596.6 317.631L596 317.631L596 318.831L599 318.831L599 319.731L592.4 319.731L592.4 316.731L592.7 316.731L592.7 316.431L593 316.431L593 316.131L593.3 316.131L593.3 315.831L595.1 315.831L595.1 316.131L595.4 316.131L595.4 316.431L595.7 316.431L595.7 316.731L596.3 316.731L596.3 316.431L596.9 316.431L596.9 316.131L597.5 316.131L597.5 315.831L599 315.831ZM594.8 316.731L593.6 316.731L593.6 317.031L593.3 317.031L593.3 318.831L595.1 318.831L595.1 317.031L594.8 317.031L594.8 316.731ZM593.3 311.629L593.3 313.129L599 313.129L599 314.029L593.3 314.029L593.3 315.529L592.4 315.529L592.4 311.629L593.3 311.629ZM598.1 307.428L598.1 307.728L598.4 307.728L598.4 308.028L598.7 308.028L598.7 308.328L599 308.328L599 310.428L598.7 310.428L598.7 310.728L598.4 310.728L598.4 311.028L598.1 311.028L598.1 311.328L597.2 311.328L597.2 310.428L597.8 310.428L597.8 310.128L598.1 310.128L598.1 308.628L597.8 308.628L597.8 308.328L596.3 308.328L596.3 308.628L596 308.628L596 310.428L595.7 310.428L595.7 310.728L595.4 310.728L595.4 311.028L595.1 311.028L595.1 311.328L593.3 311.328L593.3 311.028L593 311.028L593 310.728L592.7 310.728L592.7 310.428L592.4 310.428L592.4 308.328L592.7 308.328L592.7 308.028L593 308.028L593 307.728L593.3 307.728L593.3 307.428L594.2 307.428L594.2 308.328L593.6 308.328L593.6 308.628L593.3 308.628L593.3 310.128L593.6 310.128L593.6 310.428L594.8 310.428L594.8 310.128L595.1 310.128L595.1 308.328L595.4 308.328L595.4 308.028L595.7 308.028L595.7 307.728L596 307.728L596 307.428L598.1 307.428ZM596.6 304.726L596.6 305.926L595.4 305.926L595.4 304.726L596.6 304.726ZM599 304.726L599 305.926L597.8 305.926L597.8 304.726L599 304.726ZM598.1 294.822L598.1 295.122L598.4 295.122L598.4 295.422L598.7 295.422L598.7 295.722L599 295.722L599 297.822L598.7 297.822L598.7 298.122L598.4 298.122L598.4 298.422L598.1 298.422L598.1 298.722L596 298.722L596 298.422L595.7 298.422L595.7 298.122L595.4 298.122L595.4 298.422L595.1 298.422L595.1 298.722L593.3 298.722L593.3 298.422L593 298.422L593 298.122L592.7 298.122L592.7 297.822L592.4 297.822L592.4 295.722L592.7 295.722L592.7 295.422L593 295.422L593 295.122L593.3 295.122L593.3 294.822L595.1 294.822L595.1 295.122L595.4 295.122L595.4 295.422L595.7 295.422L595.7 295.122L596 295.122L596 294.822L598.1 294.822ZM594.8 295.722L593.6 295.722L593.6 296.022L593.3 296.022L593.3 297.522L593.6 297.522L593.6 297.822L594.8 297.822L594.8 297.522L595.1 297.522L595.1 296.022L594.8 296.022L594.8 295.722ZM597.8 295.722L596.3 295.722L596.3 296.022L596 296.022L596 297.522L596.3 297.522L596.3 297.822L597.8 297.822L597.8 297.522L598.1 297.522L598.1 296.022L597.8 296.022L597.8 295.722ZM597.8 290.62L597.8 291.22L599 291.22L599 292.12L597.8 292.12L597.8 294.52L597.5 294.52L597.2 294.52L597.2 294.22L596.6 294.22L596.6 293.92L596 293.92L596 293.62L595.4 293.62L595.4 293.32L594.8 293.32L594.8 293.02L594.2 293.02L594.2 292.72L593.6 292.72L593.6 292.42L593 292.42L593 292.12L592.4 292.12L592.4 291.22L596.9 291.22L596.9 290.62L597.8 290.62ZM596.9 292.12L594.5 292.12L594.5 292.42L595.1 292.42L595.1 292.72L595.7 292.72L595.7 293.02L596.3 293.02L596.3 293.32L596.9 293.32L596.9 292.12ZM599 286.418L599 290.318L596.6 290.318L596.6 290.018L596.3 290.018L596.3 289.718L596 289.718L596 289.418L595.7 289.418L595.7 289.118L595.4 289.118L595.4 287.918L595.1 287.918L595.1 287.618L594.8 287.618L594.8 287.318L593.6 287.318L593.6 287.618L593.3 287.618L593.3 289.118L593.6 289.118L593.6 289.418L594.2 289.418L594.2 290.318L593.3 290.318L593.3 290.018L593 290.018L593 289.718L592.7 289.718L592.7 289.418L592.4 289.418L592.4 287.318L592.7 287.318L592.7 287.018L593 287.018L593 286.718L593.3 286.718L593.3 286.418L595.1 286.418L595.1 286.718L595.4 286.718L595.4 287.018L595.7 287.018L595.7 287.318L596 287.318L596 287.618L596.3 287.618L596.3 288.818L596.6 288.818L596.6 289.118L596.9 289.118L596.9 289.418L598.1 289.418L598.1 286.418L599 286.418Z" fill="#4B4B4B"/>
<path d="M769.646 626.854C769.841 627.049 770.158 627.049 770.353 626.854L773.535 623.672C773.73 623.476 773.73 623.16 773.535 622.964C773.34 622.769 773.023 622.769 772.828 622.964L769.999 625.793L767.171 622.964C766.976 622.769 766.659 622.769 766.464 622.964C766.268 623.16 766.268 623.476 766.464 623.672L769.646 626.854ZM360 561V561.5H361V561V560.5H360V561ZM363 561V561.5H365V561V560.5H363V561ZM367 561V561.5H369V561V560.5H367V561ZM371 561V561.5H373V561V560.5H371V561ZM375 561V561.5H377V561V560.5H375V561ZM379 561V561.5H381V561V560.5H379V561ZM383 561V561.5H385V561V560.5H383V561ZM387 561V561.5H389V561V560.5H387V561ZM391 561V561.5H393V561V560.5H391V561ZM395 561V561.5H397V561V560.5H395V561ZM399 561V561.5H401V561V560.5H399V561ZM403 561V561.5H405V561V560.5H403V561ZM407 561V561.5H409V561V560.5H407V561ZM411 561V561.5H413V561V560.5H411V561ZM415 561V561.5H417V561V560.5H415V561ZM419 561V561.5H421V561V560.5H419V561ZM423 561V561.5H425V561V560.5H423V561ZM427 561V561.5H429V561V560.5H427V561ZM431 561V561.5H433V561V560.5H431V561ZM435 561V561.5H437V561V560.5H435V561ZM439 561V561.5H441V561V560.5H439V561ZM443 561V561.5H445V561V560.5H443V561ZM447 561V561.5H449V561V560.5H447V561ZM451 561V561.5H453V561V560.5H451V561ZM455 561V561.5H457V561V560.5H455V561ZM459 561V561.5H461V561V560.5H459V561ZM463 561V561.5H465V561V560.5H463V561ZM467 561V561.5H469V561V560.5H467V561ZM471 561V561.5H473V561V560.5H471V561ZM475 561V561.5H477V561V560.5H475V561ZM479 561V561.5H481V561V560.5H479V561ZM483 561V561.5H485V561V560.5H483V561ZM487 561V561.5H489V561V560.5H487V561ZM491 561V561.5H493V561V560.5H491V561ZM495 561V561.5H497V561V560.5H495V561ZM499 561V561.5H501V561V560.5H499V561ZM503 561V561.5H505V561V560.5H503V561ZM507 561V561.5H509V561V560.5H507V561ZM511 561V561.5H513V561V560.5H511V561ZM515 561V561.5H517V561V560.5H515V561ZM519 561V561.5H521V561V560.5H519V561ZM523 561V561.5H525V561V560.5H523V561ZM527 561V561.5H529V561V560.5H527V561ZM531 561V561.5H533V561V560.5H531V561ZM535 561V561.5H537V561V560.5H535V561ZM539 561V561.5H541V561V560.5H539V561ZM543 561V561.5H545V561V560.5H543V561ZM547 561V561.5H549V561V560.5H547V561ZM551 561V561.5H553V561V560.5H551V561ZM555 561V561.5H557V561V560.5H555V561ZM559 561V561.5H561V561V560.5H559V561ZM563 561V561.5H565V561V560.5H563V561ZM567 561V561.5H569V561V560.5H567V561ZM571 561V561.5H573V561V560.5H571V561ZM575 561V561.5H577V561V560.5H575V561ZM579 561V561.5H581V561V560.5H579V561ZM583 561V561.5H585V561V560.5H583V561ZM587 561V561.5H589V561V560.5H587V561ZM591 561V561.5H593V561V560.5H591V561ZM595 561V561.5H597V561V560.5H595V561ZM599 561V561.5H601V561V560.5H599V561ZM603 561V561.5H605V561V560.5H603V561ZM607 561V561.5H609V561V560.5H607V561ZM611 561V561.5H613V561V560.5H611V561ZM615 561V561.5H617V561V560.5H615V561ZM619 561V561.5H621V561V560.5H619V561ZM623 561V561.5H625V561V560.5H623V561ZM627 561V561.5H629V561V560.5H627V561ZM631 561V561.5H633V561V560.5H631V561ZM635 561V561.5H637V561V560.5H635V561ZM639 561V561.5H641V561V560.5H639V561ZM643 561V561.5H645V561V560.5H643V561ZM647 561V561.5H649V561V560.5H647V561ZM651 561V561.5H653V561V560.5H651V561ZM655 561V561.5H657V561V560.5H655V561ZM659 561V561.5H661V561V560.5H659V561ZM663 561V561.5H665V561V560.5H663V561ZM667 561V561.5H669V561V560.5H667V561ZM671 561V561.5H673V561V560.5H671V561ZM675 561V561.5H677V561V560.5H675V561ZM679 561V561.5H681V561V560.5H679V561ZM683 561V561.5H685V561V560.5H683V561ZM687 561V561.5H689V561V560.5H687V561ZM691 561V561.5H693V561V560.5H691V561ZM695 561V561.5H697V561V560.5H695V561ZM699 561V561.5H701V561V560.5H699V561ZM703 561V561.5H705V561V560.5H703V561ZM707 561V561.5H709V561V560.5H707V561ZM711 561V561.5H713V561V560.5H711V561ZM715 561V561.5H717V561V560.5H715V561ZM719 561V561.5H721V561V560.5H719V561ZM723 561V561.5H725V561V560.5H723V561ZM727 561V561.5H729V561V560.5H727V561ZM731 561V561.5H733V561V560.5H731V561ZM735 561V561.5H737V561V560.5H735V561ZM739 561V561.5H741V561V560.5H739V561ZM743 561V561.5H745V561V560.5H743V561ZM747 561V561.5H749V561V560.5H747V561ZM751 561V561.5H753V561V560.5H751V561ZM755 561V561.5H757V561V560.5H755V561ZM759 561V561.5H759.999V561V560.5H759V561ZM759.999 561V561.5C760.314 561.5 760.625 561.515 760.931 561.545L760.98 561.047L761.028 560.55C760.69 560.517 760.346 560.5 759.999 560.5V561ZM762.903 561.428L762.758 561.907C763.359 562.089 763.934 562.328 764.478 562.62L764.714 562.179L764.95 561.738C764.349 561.416 763.712 561.151 763.048 560.95L762.903 561.428ZM766.343 563.27L766.026 563.656C766.507 564.051 766.948 564.492 767.343 564.973L767.73 564.656L768.116 564.339C767.68 563.807 767.192 563.32 766.661 562.883L766.343 563.27ZM768.82 566.285L768.379 566.521C768.671 567.065 768.911 567.641 769.093 568.241L769.571 568.096L770.05 567.951C769.848 567.287 769.583 566.65 769.261 566.049L768.82 566.285ZM769.952 570.019L769.454 570.068C769.484 570.374 769.499 570.685 769.499 571H769.999H770.499C770.499 570.653 770.482 570.31 770.449 569.971L769.952 570.019ZM769.999 571H769.499V571.991H769.999H770.499V571H769.999ZM769.999 573.973H769.499V575.955H769.999H770.499V573.973H769.999ZM769.999 577.937H769.499V579.92H769.999H770.499V577.937H769.999ZM769.999 581.902H769.499V583.884H769.999H770.499V581.902H769.999ZM769.999 585.866H769.499V587.848H769.999H770.499V585.866H769.999ZM769.999 589.83H769.499V591.812H769.999H770.499V589.83H769.999ZM769.999 593.795H769.499V595.777H769.999H770.499V593.795H769.999ZM769.999 597.759H769.499V599.741H769.999H770.499V597.759H769.999ZM769.999 601.723H769.499V603.705H769.999H770.499V601.723H769.999ZM769.999 605.688H769.499V607.67H769.999H770.499V605.688H769.999ZM769.999 609.652H769.499V611.634H769.999H770.499V609.652H769.999ZM769.999 613.616H769.499V615.598H769.999H770.499V613.616H769.999ZM769.999 617.58H769.499V619.563H769.999H770.499V617.58H769.999ZM769.999 621.545H769.499V623.527H769.999H770.499V621.545H769.999ZM769.999 625.509H769.499V626.5H769.999H770.499V625.509H769.999Z" fill="#4B4B4B"/>
<defs>
<clipPath id="clip0_2681_4828">
<rect x="34" y="291" width="532" height="67" fill="white"/>
</clipPath>
<clipPath id="clip1_2681_4828">
<rect x="34" y="433" width="532" height="67" fill="white"/>
</clipPath>
<clipPath id="clip2_2681_4828">
<rect x="255" y="362" width="311" height="67" fill="white"/>
</clipPath>
<clipPath id="clip3_2681_4828">
<rect x="316" y="220" width="250" height="67" fill="white"/>
</clipPath>
</defs>
</svg>
