<svg width="1540" height="604" viewBox="0 0 1540 604" fill="none" xmlns="http://www.w3.org/2000/svg">
<path d="M851 0V3C851 14.0457 859.954 23 871 23H1519C1530.05 23 1539 31.9543 1539 43V583C1539 594.046 1530.05 603 1519 603H21C9.95431 603 1 594.046 1 583V43C1 31.9543 9.95431 23 21 23H666C677.046 23 686 14.0457 686 3V0" stroke="#FF4000" stroke-width="2"/>
<path d="M771 140H781V141H771V151H770V141H760V140H770V130H771V140Z" fill="#4B4B4B"/>
<path d="M771 485H781V486H771V496H770V486H760V485H770V475H771V485Z" fill="#4B4B4B"/>
<g clip-path="url(#clip0_2685_16523)">
<path d="M57.24 149H51V147.56H53.4V139.88H52.44V138.44H55.8V139.88H54.84V147.56H57.24V149ZM63.9631 146.6H63.4831V147.08H63.0031V147.56H62.5231V148.04H62.0431V148.52H61.5471V149H57.7231V138.44H61.5631V138.92H62.0431V139.4H62.5231V139.88H63.0031V140.36H63.4831V140.84H63.9631V146.6ZM62.5231 146.12V141.32H62.0431V140.84H61.5631V140.36H61.0831V139.88H59.1631V147.56H61.0831V147.08H61.5631V146.6H62.0431V146.12H62.5231ZM68.2863 149H66.3663V147.08H68.2863V149ZM77.4094 147.56H76.9294V148.04H76.4494V148.52H75.9694V149H72.1294V148.52H71.6494V148.04H71.1694V147.08H72.6094V147.56H75.4894V147.08H75.9694V144.2H75.4894V143.72H71.1694V138.44H77.4094V139.88H72.6094V142.28H75.9694V142.76H76.4494V143.24H76.9294V143.72H77.4094V147.56ZM81.7325 149H79.8125V147.08H81.7325V149ZM90.8556 147.08H90.3756V147.56H89.8956V148.04H89.4156V148.52H88.9356V149H86.5356V148.52H86.0556V148.04H85.5756V147.56H85.0956V147.08H84.6156V140.36H85.0956V139.88H85.5756V139.4H86.0556V138.92H86.5356V138.44H88.9356V138.92H89.4156V139.4H89.8956V139.88H90.3756V140.36H90.8556V147.08ZM88.9356 140.84V140.36V139.88H86.5356V140.36H86.0556V145.64H86.5356V144.68H87.0156V143.72H87.4956V142.76H87.9756V141.8H88.4556V140.84H88.9356ZM89.4156 147.08V142.28H88.9356V143.24H88.4556V144.2H87.9756V145.16H87.4956V146.12H87.0156V147.08H86.5356V147.56H88.9356V147.08H89.4156ZM97.5787 147.08H97.0987V147.56H96.6187V148.04H96.1387V148.52H95.6587V149H93.2587V148.52H92.7787V148.04H92.2987V147.56H91.8187V147.08H91.3387V140.36H91.8187V139.88H92.2987V139.4H92.7787V138.92H93.2587V138.44H95.6587V138.92H96.1387V139.4H96.6187V139.88H97.0987V140.36H97.5787V147.08ZM95.6587 140.84V140.36V139.88H93.2587V140.36H92.7787V145.64H93.2587V144.68H93.7387V143.72H94.2187V142.76H94.6987V141.8H95.1787V140.84H95.6587ZM96.1387 147.08V142.28H95.6587V143.24H95.1787V144.2H94.6987V145.16H94.2187V146.12H93.7387V147.08H93.2587V147.56H95.6587V147.08H96.1387ZM104.302 149H98.0619V147.56H100.462V139.88H99.0219V138.44H101.902V147.56H104.302V149Z" fill="#4B4B4B"/>
<rect x="34" y="121" width="6" height="6" fill="#4B4B4B"/>
<rect x="590" y="138" width="4" height="4" fill="#4B4B4B"/>
<rect x="582" y="138" width="4" height="4" fill="#4B4B4B"/>
<rect x="582" y="142" width="4" height="4" fill="#4B4B4B"/>
<rect x="590" y="146" width="4" height="4" fill="#4B4B4B"/>
<rect x="586" y="142" width="4" height="4" fill="#4B4B4B"/>
<rect x="605" y="121" width="6" height="6" fill="#4B4B4B"/>
<rect x="34" y="562" width="6" height="6" fill="#4B4B4B"/>
<rect x="605" y="562" width="6" height="6" fill="#4B4B4B"/>
<path d="M57.24 175.68H56.76V176.16H55.8V176.64H54.84V177.12H53.88V177.6H52.92V178.08H51.96V178.56H51V177.6H51.48V177.12H52.44V176.64H53.4V176.16H54.36V175.68H55.32V175.2H54.36V174.72H53.4V174.24H52.44V173.76H51.48V173.28H51V172.32H51.96V172.8H52.92V173.28H53.88V173.76H54.84V174.24H55.8V174.72H56.76V175.2H57.24V175.68ZM70.6863 180H69.2463V179.52H68.7663V178.56H68.2863V177.6H67.8063V176.64H67.3263V175.68H66.8463V174.72H66.3663V173.76H65.8863V180H64.4462V169.44H65.4062V170.4H65.8863V171.36H66.3663V172.32H66.8463V173.28H67.3263V174.24H67.8063V175.2H68.2863V176.16H68.7663V177.12H69.2463V169.44H70.6863V180ZM77.4094 180H71.1694V169.44H77.4094V170.88H72.6094V173.76H76.4494V175.2H72.6094V178.56H77.4094V180ZM84.1325 180H77.8925V169.44H84.1325V170.88H79.3325V173.76H83.1725V175.2H79.3325V178.56H84.1325V180ZM90.8556 177.6H90.3756V178.08H89.8956V178.56H89.4156V179.04H88.9356V179.52H88.4396V180H84.6156V169.44H88.4556V169.92H88.9356V170.4H89.4156V170.88H89.8956V171.36H90.3756V171.84H90.8556V177.6ZM89.4156 177.12V172.32H88.9356V171.84H88.4556V171.36H87.9756V170.88H86.0556V178.56H87.9756V178.08H88.4556V177.6H88.9356V177.12H89.4156ZM104.302 180H98.0619V169.44H99.5019V178.56H104.302V180ZM111.025 178.08H110.545V178.56H110.065V179.04H109.585V179.52H109.105V180H106.705V179.52H106.225V179.04H105.745V178.56H105.265V178.08H104.785V171.36H105.265V170.88H105.745V170.4H106.225V169.92H106.705V169.44H109.105V169.92H109.585V170.4H110.065V170.88H110.545V171.36H111.025V178.08ZM109.585 177.6V171.84H109.105V171.36H108.625V170.88H107.185V171.36H106.705V171.84H106.225V177.6H106.705V178.08H107.185V178.56H108.625V178.08H109.105V177.6H109.585ZM117.748 180H116.308V179.52H115.828V178.56H115.348V177.6H114.868V176.64H114.388V175.68H113.908V174.72H113.428V173.76H112.948V180H111.508V169.44H112.468V170.4H112.948V171.36H113.428V172.32H113.908V173.28H114.388V174.24H114.868V175.2H115.348V176.16H115.828V177.12H116.308V169.44H117.748V180ZM124.471 179.04H123.991V179.52H123.511V180H120.151V179.52H119.671V179.04H119.191V178.56H118.711V178.08H118.231V171.36H118.711V170.88H119.191V170.4H119.671V169.92H120.151V169.44H123.511V169.92H123.991V170.4H124.471V171.36H123.031V170.88H120.631V171.36H120.151V171.84H119.671V177.6H120.151V178.08H120.631V178.56H123.031V175.68H122.551V176.16H121.111V174.24H124.471V179.04ZM130.234 176.64H125.914V175.2H130.234V176.64ZM137.917 170.88H135.517V180H134.077V170.88H131.677V169.44H137.917V170.88ZM144.641 180H138.401V169.44H144.641V170.88H139.841V173.76H143.681V175.2H139.841V178.56H144.641V180ZM151.364 180H149.924V178.08H149.444V177.12H148.964V176.16H148.484V175.2H146.564V180H145.124V169.44H149.924V169.92H150.404V170.4H150.884V170.88H151.364V173.76H150.884V174.24H150.404V174.72H149.924V175.68H150.404V176.64H150.884V177.6H151.364V180ZM149.924 173.28V171.36H149.444V170.88H146.564V173.76H149.444V173.28H149.924ZM158.087 180H156.647V174.72H156.167V175.68H155.687V176.64H155.207V177.6H154.727V176.64H154.247V175.68H153.767V174.72H153.287V180H151.847V169.44H152.327V170.4H152.807V171.36H153.287V172.32H153.767V173.28H154.247V174.24H154.727V175.2H155.207V174.24H155.687V173.28H156.167V172.32H156.647V171.36H157.127V170.4H157.607V169.44H158.087V180ZM171.533 177.6H171.053V178.08H170.573V178.56H170.093V179.04H169.613V179.52H169.117V180H165.293V169.44H169.133V169.92H169.613V170.4H170.093V170.88H170.573V171.36H171.053V171.84H171.533V177.6ZM170.093 177.12V172.32H169.613V171.84H169.133V171.36H168.653V170.88H166.733V178.56H168.653V178.08H169.133V177.6H169.613V177.12H170.093ZM178.256 180H172.016V169.44H178.256V170.88H173.456V173.76H177.296V175.2H173.456V178.56H178.256V180ZM184.979 174.24H184.499V175.2H184.019V176.16H183.539V177.12H183.059V178.08H182.579V179.04H182.099V180H181.619V179.04H181.139V178.08H180.659V177.12H180.179V176.16H179.699V175.2H179.219V174.24H178.739V169.44H180.179V173.76H180.659V174.72H181.139V175.68H181.619V176.64H182.099V175.68H182.579V174.72H183.059V173.76H183.539V169.44H184.979V174.24ZM198.426 178.56H197.946V179.04H197.466V179.52H196.986V180H193.626V179.52H193.146V179.04H192.666V178.56H192.186V177.12H193.626V178.08H194.106V178.56H196.506V178.08H196.986V175.68H196.506V175.2H193.626V174.72H193.146V174.24H192.666V173.76H192.186V170.88H192.666V170.4H193.146V169.92H193.626V169.44H196.986V169.92H197.466V170.4H197.946V170.88H198.426V172.32H196.986V171.36H196.506V170.88H194.106V171.36H193.626V173.28H194.106V173.76H196.986V174.24H197.466V174.72H197.946V175.2H198.426V178.56ZM205.149 178.56H204.669V179.04H204.189V179.52H203.709V180H200.349V179.52H199.869V179.04H199.389V178.56H198.909V169.44H200.349V178.08H200.829V178.56H203.229V178.08H203.709V169.44H205.149V178.56ZM211.872 174.24H211.392V174.72H210.912V175.2H210.432V175.68H207.072V180H205.632V169.44H210.432V169.92H210.912V170.4H211.392V170.88H211.872V174.24ZM210.432 173.76V171.36H209.952V170.88H207.072V174.24H209.952V173.76H210.432ZM218.595 174.24H218.115V174.72H217.635V175.2H217.155V175.68H213.795V180H212.355V169.44H217.155V169.92H217.635V170.4H218.115V170.88H218.595V174.24ZM217.155 173.76V171.36H216.675V170.88H213.795V174.24H216.675V173.76H217.155ZM225.318 178.08H224.838V178.56H224.358V179.04H223.878V179.52H223.398V180H220.998V179.52H220.518V179.04H220.038V178.56H219.558V178.08H219.078V171.36H219.558V170.88H220.038V170.4H220.518V169.92H220.998V169.44H223.398V169.92H223.878V170.4H224.358V170.88H224.838V171.36H225.318V178.08ZM223.878 177.6V171.84H223.398V171.36H222.918V170.88H221.478V171.36H220.998V171.84H220.518V177.6H220.998V178.08H221.478V178.56H222.918V178.08H223.398V177.6H223.878ZM232.041 180H230.601V178.08H230.121V177.12H229.641V176.16H229.161V175.2H227.241V180H225.801V169.44H230.601V169.92H231.081V170.4H231.561V170.88H232.041V173.76H231.561V174.24H231.081V174.72H230.601V175.68H231.081V176.64H231.561V177.6H232.041V180ZM230.601 173.28V171.36H230.121V170.88H227.241V173.76H230.121V173.28H230.601ZM238.764 170.88H236.364V180H234.924V170.88H232.524V169.44H238.764V170.88ZM245.487 173.28H245.007V173.76H244.527V174.24H244.047V174.72H243.567V175.2H243.087V175.68H242.607V176.16H242.127V177.12H240.687V175.68H241.167V175.2H241.647V174.72H242.127V174.24H242.607V173.76H243.087V173.28H243.567V172.8H244.047V171.36H243.567V170.88H241.167V171.36H240.687V172.32H239.247V170.88H239.727V170.4H240.207V169.92H240.687V169.44H244.047V169.92H244.527V170.4H245.007V170.88H245.487V173.28ZM242.127 180H240.687V178.56H242.127V180ZM57.24 194.68H56.76V195.16H55.8V195.64H54.84V196.12H53.88V196.6H52.92V197.08H51.96V197.56H51V196.6H51.48V196.12H52.44V195.64H53.4V195.16H54.36V194.68H55.32V194.2H54.36V193.72H53.4V193.24H52.44V192.76H51.48V192.28H51V191.32H51.96V191.8H52.92V192.28H53.88V192.76H54.84V193.24H55.8V193.72H56.76V194.2H57.24V194.68ZM70.6863 199H69.2463V196.6H65.8863V199H64.4462V195.16V194.68V193.72H64.9262V192.76H65.4062V191.8H65.8863V190.84H66.3663V189.88H66.8463V188.92H67.3263V188.44H67.8063V188.92H68.2863V189.88H68.7663V190.84H69.2463V191.8H69.7263V192.76H70.2063V193.72H70.6863V194.68V195.16V199ZM69.2463 195.16V194.68V194.2H68.7663V193.24H68.2863V192.28H67.8063V191.32H67.3263V192.28H66.8463V193.24H66.3663V194.2H65.8863V194.68V195.16H69.2463ZM84.1325 193.24H83.6525V193.72H83.1725V194.2H82.6925V194.68H79.3325V199H77.8925V188.44H82.6925V188.92H83.1725V189.4H83.6525V189.88H84.1325V193.24ZM82.6925 192.76V190.36H82.2125V189.88H79.3325V193.24H82.2125V192.76H82.6925ZM90.8556 199H89.4156V196.6H86.0556V199H84.6156V195.16V194.68V193.72H85.0956V192.76H85.5756V191.8H86.0556V190.84H86.5356V189.88H87.0156V188.92H87.4956V188.44H87.9756V188.92H88.4556V189.88H88.9356V190.84H89.4156V191.8H89.8956V192.76H90.3756V193.72H90.8556V194.68V195.16V199ZM89.4156 195.16V194.68V194.2H88.9356V193.24H88.4556V192.28H87.9756V191.32H87.4956V192.28H87.0156V193.24H86.5356V194.2H86.0556V194.68V195.16H89.4156ZM97.5787 199H96.1387V197.08H95.6587V196.12H95.1787V195.16H94.6987V194.2H92.7787V199H91.3387V188.44H96.1387V188.92H96.6187V189.4H97.0987V189.88H97.5787V192.76H97.0987V193.24H96.6187V193.72H96.1387V194.68H96.6187V195.64H97.0987V196.6H97.5787V199ZM96.1387 192.28V190.36H95.6587V189.88H92.7787V192.76H95.6587V192.28H96.1387ZM104.302 189.88H101.902V199H100.462V189.88H98.0619V188.44H104.302V189.88ZM110.065 195.64H105.745V194.2H110.065V195.64ZM117.748 189.88H115.348V199H113.908V189.88H111.508V188.44H117.748V189.88ZM124.471 199H118.231V197.56H120.631V189.88H119.671V188.44H123.031V189.88H122.071V197.56H124.471V199ZM131.194 199H129.754V193.72H129.274V194.68H128.794V195.64H128.314V196.6H127.834V195.64H127.354V194.68H126.874V193.72H126.394V199H124.954V188.44H125.434V189.4H125.914V190.36H126.394V191.32H126.874V192.28H127.354V193.24H127.834V194.2H128.314V193.24H128.794V192.28H129.274V191.32H129.754V190.36H130.234V189.4H130.714V188.44H131.194V199ZM137.917 199H131.677V188.44H137.917V189.88H133.117V192.76H136.957V194.2H133.117V197.56H137.917V199ZM151.364 197.56H150.884V198.04H150.404V198.52H149.924V199H147.044V198.52H146.564V198.04H146.084V197.56H145.604V197.08H145.124V190.36H145.604V189.88H146.084V189.4H146.564V188.92H147.044V188.44H149.924V188.92H150.404V189.4H150.884V189.88H151.364V191.32H149.924V190.36H149.444V189.88H147.524V190.36H147.044V190.84H146.564V196.6H147.044V197.08H147.524V197.56H149.444V197.08H149.924V196.12H151.364V197.56ZM158.087 189.88H155.687V199H154.247V189.88H151.847V188.44H158.087V189.88ZM164.81 197.08H164.33V197.56H163.85V198.04H163.37V198.52H162.89V199H160.49V198.52H160.01V198.04H159.53V197.56H159.05V197.08H158.57V190.36H159.05V189.88H159.53V189.4H160.01V188.92H160.49V188.44H162.89V188.92H163.37V189.4H163.85V189.88H164.33V190.36H164.81V197.08ZM163.37 196.6V190.84H162.89V190.36H162.41V189.88H160.97V190.36H160.49V190.84H160.01V196.6H160.49V197.08H160.97V197.56H162.41V197.08H162.89V196.6H163.37ZM171.533 192.28H171.053V192.76H170.573V193.24H170.093V193.72H169.613V194.2H169.133V194.68H168.653V195.16H168.173V196.12H166.733V194.68H167.213V194.2H167.693V193.72H168.173V193.24H168.653V192.76H169.133V192.28H169.613V191.8H170.093V190.36H169.613V189.88H167.213V190.36H166.733V191.32H165.293V189.88H165.773V189.4H166.253V188.92H166.733V188.44H170.093V188.92H170.573V189.4H171.053V189.88H171.533V192.28ZM168.173 199H166.733V197.56H168.173V199ZM57.24 213.68H56.76V214.16H55.8V214.64H54.84V215.12H53.88V215.6H52.92V216.08H51.96V216.56H51V215.6H51.48V215.12H52.44V214.64H53.4V214.16H54.36V213.68H55.32V213.2H54.36V212.72H53.4V212.24H52.44V211.76H51.48V211.28H51V210.32H51.96V210.8H52.92V211.28H53.88V211.76H54.84V212.24H55.8V212.72H56.76V213.2H57.24V213.68ZM70.6863 218H69.2463V215.6H65.8863V218H64.4462V214.16V213.68V212.72H64.9262V211.76H65.4062V210.8H65.8863V209.84H66.3663V208.88H66.8463V207.92H67.3263V207.44H67.8063V207.92H68.2863V208.88H68.7663V209.84H69.2463V210.8H69.7263V211.76H70.2063V212.72H70.6863V213.68V214.16V218ZM69.2463 214.16V213.68V213.2H68.7663V212.24H68.2863V211.28H67.8063V210.32H67.3263V211.28H66.8463V212.24H66.3663V213.2H65.8863V213.68V214.16H69.2463ZM84.1325 216.56H83.6525V217.04H83.1725V217.52H82.6925V218H79.3325V217.52H78.8525V217.04H78.3725V216.56H77.8925V215.12H79.3325V216.08H79.8125V216.56H82.2125V216.08H82.6925V213.68H82.2125V213.2H79.3325V212.72H78.8525V212.24H78.3725V211.76H77.8925V208.88H78.3725V208.4H78.8525V207.92H79.3325V207.44H82.6925V207.92H83.1725V208.4H83.6525V208.88H84.1325V210.32H82.6925V209.36H82.2125V208.88H79.8125V209.36H79.3325V211.28H79.8125V211.76H82.6925V212.24H83.1725V212.72H83.6525V213.2H84.1325V216.56ZM90.8556 218H89.8956V217.52H89.4156H88.9356V218H86.5356V217.52H86.0556V217.04H85.5756V216.56H85.0956V216.08H84.6156V209.36H85.0956V208.88H85.5756V208.4H86.0556V207.92H86.5356V207.44H88.9356V207.92H89.4156V208.4H89.8956V208.88H90.3756V209.36H90.8556V216.08H90.3756V216.56V217.04H90.8556V218ZM89.4156 215.6V209.84H88.9356V209.36H88.4556V208.88H87.0156V209.36H86.5356V209.84H86.0556V215.6H86.5356V216.08H87.0156V216.56H88.4556V216.08H87.9756V215.6H87.4956V215.12H87.0156V214.64H87.4956H87.9756H88.4556V215.12H88.9356V215.6H89.4156ZM97.5787 216.56H97.0987V217.04H96.6187V217.52H96.1387V218H92.7787V217.52H92.2987V217.04H91.8187V216.56H91.3387V207.44H92.7787V216.08H93.2587V216.56H95.6587V216.08H96.1387V207.44H97.5787V216.56ZM104.302 218H102.862V215.6H99.5019V218H98.0619V214.16V213.68V212.72H98.5419V211.76H99.0219V210.8H99.5019V209.84H99.9819V208.88H100.462V207.92H100.942V207.44H101.422V207.92H101.902V208.88H102.382V209.84H102.862V210.8H103.342V211.76H103.822V212.72H104.302V213.68V214.16V218ZM102.862 214.16V213.68V213.2H102.382V212.24H101.902V211.28H101.422V210.32H100.942V211.28H100.462V212.24H99.9819V213.2H99.5019V213.68V214.16H102.862ZM111.025 215.6H110.545V216.08H110.065V216.56H109.585V217.04H109.105V217.52H108.609V218H104.785V207.44H108.625V207.92H109.105V208.4H109.585V208.88H110.065V209.36H110.545V209.84H111.025V215.6ZM109.585 215.12V210.32H109.105V209.84H108.625V209.36H108.145V208.88H106.225V216.56H108.145V216.08H108.625V215.6H109.105V215.12H109.585ZM124.471 208.88H122.071V218H120.631V208.88H118.231V207.44H124.471V208.88ZM131.194 216.08H130.714V216.56H130.234V217.04H129.754V217.52H129.274V218H126.874V217.52H126.394V217.04H125.914V216.56H125.434V216.08H124.954V209.36H125.434V208.88H125.914V208.4H126.394V207.92H126.874V207.44H129.274V207.92H129.754V208.4H130.234V208.88H130.714V209.36H131.194V216.08ZM129.754 215.6V209.84H129.274V209.36H128.794V208.88H127.354V209.36H126.874V209.84H126.394V215.6H126.874V216.08H127.354V216.56H128.794V216.08H129.274V215.6H129.754ZM144.641 208.88H142.241V218H140.801V208.88H138.401V207.44H144.641V208.88ZM151.364 218H149.924V215.6H146.564V218H145.124V214.16V213.68V212.72H145.604V211.76H146.084V210.8H146.564V209.84H147.044V208.88H147.524V207.92H148.004V207.44H148.484V207.92H148.964V208.88H149.444V209.84H149.924V210.8H150.404V211.76H150.884V212.72H151.364V213.68V214.16V218ZM149.924 214.16V213.68V213.2H149.444V212.24H148.964V211.28H148.484V210.32H148.004V211.28H147.524V212.24H147.044V213.2H146.564V213.68V214.16H149.924ZM158.087 216.56H157.607V217.04H157.127V217.52H156.647V218H153.767V217.52H153.287V217.04H152.807V216.56H152.327V216.08H151.847V209.36H152.327V208.88H152.807V208.4H153.287V207.92H153.767V207.44H156.647V207.92H157.127V208.4H157.607V208.88H158.087V210.32H156.647V209.36H156.167V208.88H154.247V209.36H153.767V209.84H153.287V215.6H153.767V216.08H154.247V216.56H156.167V216.08H156.647V215.12H158.087V216.56ZM164.81 218H163.37V217.04H162.89V216.08H162.41V215.12H161.93V214.16H161.45V213.2H160.49V213.68H160.01V218H158.57V207.44H160.01V211.76H160.49V211.28H160.97V210.8H161.45V210.32H161.93V209.84H162.41V209.36H162.89V208.864H163.37V208.4H163.85V207.92H164.33V207.44H164.81V209.36H164.33V209.84H163.85V210.32H163.37V210.784H162.89V211.28H162.41V211.76H161.93V212.24H162.41V212.72H162.89V213.68H163.37V214.64H163.85V215.6H164.33V216.56H164.81V218ZM171.533 218H165.293V207.44H166.733V216.56H171.533V218ZM178.256 218H172.016V207.44H178.256V208.88H173.456V211.76H177.296V213.2H173.456V216.56H178.256V218ZM191.702 212.24H191.222V213.2H190.742V214.16H190.262V215.12H189.782V216.08H189.302V217.04H188.822V218H188.342V217.04H187.862V216.08H187.382V215.12H186.902V214.16H186.422V213.2H185.942V212.24H185.462V207.44H186.902V211.76H187.382V212.72H187.862V213.68H188.342V214.64H188.822V213.68H189.302V212.72H189.782V211.76H190.262V207.44H191.702V212.24ZM198.426 218H192.186V214.16H192.666V213.68H193.146V213.2H193.626V212.72H194.106V212.24H196.026V211.76H196.506V211.28H196.986V209.36H196.506V208.88H194.106V209.36H193.626V210.32H192.186V208.88H192.666V208.4H193.146V207.92H193.626V207.44H196.986V207.92H197.466V208.4H197.946V208.88H198.426V211.76H197.946V212.24H197.466V212.72H196.986V213.2H196.506V213.68H194.586V214.16H194.106V214.64H193.626V216.56H198.426V218ZM205.149 211.28H204.669V211.76H204.189V212.24H203.709V212.72H203.229V213.2H202.749V213.68H202.269V214.16H201.789V215.12H200.349V213.68H200.829V213.2H201.309V212.72H201.789V212.24H202.269V211.76H202.749V211.28H203.229V210.8H203.709V209.36H203.229V208.88H200.829V209.36H200.349V210.32H198.909V208.88H199.389V208.4H199.869V207.92H200.349V207.44H203.709V207.92H204.189V208.4H204.669V208.88H205.149V211.28ZM201.789 218H200.349V216.56H201.789V218Z" fill="#4B4B4B"/>
<path d="M120.752 142.968H135.264V144.664H120.752V142.968ZM124.48 138.36H133.136V139.848H124.48V138.36ZM124.48 140.664H133.136V142.152H124.48V140.664ZM121.456 148.584C122.085 148.509 122.805 148.419 123.616 148.312C124.437 148.195 125.296 148.072 126.192 147.944C127.099 147.816 127.989 147.688 128.864 147.56L128.96 149.24C128.139 149.368 127.307 149.501 126.464 149.64C125.621 149.779 124.811 149.901 124.032 150.008C123.253 150.125 122.539 150.237 121.888 150.344L121.456 148.584ZM128.672 143.448C129.195 144.845 130.021 145.992 131.152 146.888C132.283 147.784 133.755 148.397 135.568 148.728C135.429 148.867 135.28 149.037 135.12 149.24C134.971 149.443 134.827 149.651 134.688 149.864C134.549 150.077 134.437 150.275 134.352 150.456C133.04 150.147 131.909 149.699 130.96 149.112C130.011 148.536 129.205 147.811 128.544 146.936C127.893 146.061 127.349 145.037 126.912 143.864L128.672 143.448ZM133.216 144.456L134.768 145.528C134.373 145.816 133.957 146.099 133.52 146.376C133.093 146.643 132.661 146.893 132.224 147.128C131.787 147.363 131.381 147.571 131.008 147.752L129.728 146.76C130.101 146.568 130.501 146.344 130.928 146.088C131.355 145.821 131.765 145.544 132.16 145.256C132.565 144.968 132.917 144.701 133.216 144.456ZM123.424 135.96H133.568V137.528H125.392V143.672H123.424V135.96ZM123.424 143.48H125.392V148.792L123.424 149V143.48ZM145.36 136.12H149.488V137.864H145.36V136.12ZM145.36 139.736H149.488V141.432H145.36V139.736ZM145.344 143.4H149.504V145.112H145.344V143.4ZM148.672 136.12H150.512V148.312C150.512 148.781 150.459 149.149 150.352 149.416C150.245 149.693 150.053 149.912 149.776 150.072C149.499 150.221 149.147 150.317 148.72 150.36C148.304 150.403 147.797 150.419 147.2 150.408C147.168 150.152 147.099 149.843 146.992 149.48C146.885 149.128 146.773 148.829 146.656 148.584C146.997 148.605 147.333 148.616 147.664 148.616C148.005 148.616 148.235 148.616 148.352 148.616C148.469 148.616 148.549 148.595 148.592 148.552C148.645 148.499 148.672 148.413 148.672 148.296V136.12ZM144.56 136.12H146.368V142.008C146.368 142.637 146.347 143.325 146.304 144.072C146.272 144.819 146.197 145.576 146.08 146.344C145.973 147.101 145.819 147.837 145.616 148.552C145.413 149.267 145.136 149.907 144.784 150.472C144.688 150.355 144.544 150.221 144.352 150.072C144.16 149.933 143.968 149.8 143.776 149.672C143.584 149.544 143.413 149.448 143.264 149.384C143.669 148.691 143.963 147.917 144.144 147.064C144.325 146.211 144.437 145.347 144.48 144.472C144.533 143.587 144.56 142.765 144.56 142.008V136.12ZM136.192 137.288H144.032V138.968H136.192V137.288ZM138.272 139.912H142.096V141.368H138.272V139.912ZM138.272 142.392H142.096V143.864H138.272V142.392ZM136 144.936H143.92V146.616H136V144.936ZM137.44 135.592H139.168V145.544H137.44V135.592ZM141.168 135.592H142.928V145.544H141.168V135.592ZM137.984 146.728L139.808 147.256C139.509 147.843 139.141 148.424 138.704 149C138.267 149.587 137.835 150.077 137.408 150.472C137.301 150.355 137.152 150.227 136.96 150.088C136.779 149.949 136.587 149.811 136.384 149.672C136.192 149.533 136.021 149.421 135.872 149.336C136.299 149.016 136.699 148.621 137.072 148.152C137.456 147.683 137.76 147.208 137.984 146.728ZM140.368 147.448L141.824 146.648C142.037 146.872 142.256 147.128 142.48 147.416C142.715 147.693 142.933 147.971 143.136 148.248C143.349 148.515 143.52 148.76 143.648 148.984L142.096 149.88C141.989 149.667 141.835 149.416 141.632 149.128C141.44 148.851 141.232 148.563 141.008 148.264C140.784 147.965 140.571 147.693 140.368 147.448ZM153.328 138.008H158.24V148.776H153.328V147.096H156.512V139.672H153.328V138.008ZM152.208 138.008H153.952V149.96H152.208V138.008ZM153.264 142.28H157.344V143.944H153.264V142.28ZM154.496 135.4L156.576 135.704C156.405 136.248 156.219 136.787 156.016 137.32C155.824 137.853 155.648 138.307 155.488 138.68L153.952 138.328C154.027 138.051 154.096 137.741 154.16 137.4C154.235 137.059 154.304 136.712 154.368 136.36C154.432 136.008 154.475 135.688 154.496 135.4ZM160.352 137.88H165.04V139.64H160.352V137.88ZM164.368 137.88H166.144C166.144 137.88 166.144 137.939 166.144 138.056C166.144 138.163 166.144 138.285 166.144 138.424C166.144 138.563 166.139 138.669 166.128 138.744C166.085 140.547 166.032 142.077 165.968 143.336C165.915 144.584 165.845 145.619 165.76 146.44C165.685 147.251 165.595 147.885 165.488 148.344C165.381 148.803 165.243 149.139 165.072 149.352C164.859 149.661 164.629 149.875 164.384 149.992C164.139 150.109 163.856 150.195 163.536 150.248C163.227 150.291 162.843 150.307 162.384 150.296C161.936 150.296 161.477 150.291 161.008 150.28C160.997 150.013 160.933 149.699 160.816 149.336C160.699 148.984 160.555 148.675 160.384 148.408C160.896 148.451 161.371 148.477 161.808 148.488C162.256 148.499 162.581 148.504 162.784 148.504C162.944 148.504 163.072 148.488 163.168 148.456C163.275 148.413 163.376 148.339 163.472 148.232C163.611 148.093 163.723 147.811 163.808 147.384C163.904 146.947 163.984 146.333 164.048 145.544C164.112 144.755 164.171 143.757 164.224 142.552C164.277 141.347 164.325 139.912 164.368 138.248V137.88ZM160.4 135.416L162.256 135.848C162.053 136.627 161.803 137.405 161.504 138.184C161.216 138.963 160.896 139.699 160.544 140.392C160.203 141.075 159.851 141.672 159.488 142.184C159.381 142.077 159.227 141.955 159.024 141.816C158.832 141.667 158.635 141.523 158.432 141.384C158.24 141.245 158.069 141.139 157.92 141.064C158.272 140.605 158.603 140.077 158.912 139.48C159.232 138.872 159.515 138.221 159.76 137.528C160.016 136.824 160.229 136.12 160.4 135.416ZM159.616 142.504L161.12 141.656C161.387 142.019 161.669 142.419 161.968 142.856C162.267 143.293 162.549 143.72 162.816 144.136C163.083 144.552 163.301 144.92 163.472 145.24L161.84 146.232C161.691 145.901 161.488 145.523 161.232 145.096C160.987 144.669 160.72 144.232 160.432 143.784C160.155 143.325 159.883 142.899 159.616 142.504ZM167.888 138.52C168.229 138.563 168.592 138.595 168.976 138.616C169.371 138.627 169.717 138.632 170.016 138.632C170.677 138.632 171.344 138.595 172.016 138.52C172.699 138.445 173.355 138.349 173.984 138.232C174.613 138.104 175.184 137.96 175.696 137.8L175.76 139.656C175.301 139.773 174.752 139.896 174.112 140.024C173.483 140.141 172.816 140.243 172.112 140.328C171.408 140.403 170.715 140.44 170.032 140.44C169.712 140.44 169.387 140.435 169.056 140.424C168.725 140.413 168.384 140.397 168.032 140.376L167.888 138.52ZM174.112 136.12C174.048 136.387 173.963 136.733 173.856 137.16C173.749 137.587 173.627 138.035 173.488 138.504C173.36 138.973 173.221 139.437 173.072 139.896C172.837 140.664 172.528 141.48 172.144 142.344C171.76 143.208 171.344 144.051 170.896 144.872C170.448 145.693 169.995 146.424 169.536 147.064L167.6 146.072C167.963 145.624 168.32 145.128 168.672 144.584C169.024 144.04 169.355 143.48 169.664 142.904C169.973 142.328 170.251 141.773 170.496 141.24C170.752 140.696 170.955 140.205 171.104 139.768C171.307 139.203 171.483 138.573 171.632 137.88C171.792 137.176 171.883 136.515 171.904 135.896L174.112 136.12ZM177.856 141.096C177.835 141.437 177.824 141.779 177.824 142.12C177.835 142.451 177.845 142.792 177.856 143.144C177.867 143.389 177.877 143.704 177.888 144.088C177.909 144.461 177.931 144.861 177.952 145.288C177.973 145.704 177.989 146.104 178 146.488C178.021 146.861 178.032 147.16 178.032 147.384C178.032 147.875 177.931 148.323 177.728 148.728C177.525 149.123 177.2 149.437 176.752 149.672C176.315 149.907 175.712 150.024 174.944 150.024C174.283 150.024 173.685 149.923 173.152 149.72C172.619 149.528 172.192 149.24 171.872 148.856C171.552 148.461 171.392 147.971 171.392 147.384C171.392 146.861 171.531 146.392 171.808 145.976C172.085 145.549 172.485 145.219 173.008 144.984C173.541 144.739 174.181 144.616 174.928 144.616C175.867 144.616 176.731 144.749 177.52 145.016C178.309 145.272 179.019 145.603 179.648 146.008C180.277 146.413 180.816 146.819 181.264 147.224L180.192 148.936C179.904 148.68 179.573 148.392 179.2 148.072C178.837 147.752 178.427 147.453 177.968 147.176C177.52 146.899 177.029 146.669 176.496 146.488C175.973 146.307 175.408 146.216 174.8 146.216C174.341 146.216 173.973 146.307 173.696 146.488C173.419 146.669 173.28 146.904 173.28 147.192C173.28 147.491 173.397 147.731 173.632 147.912C173.877 148.093 174.219 148.184 174.656 148.184C175.019 148.184 175.307 148.125 175.52 148.008C175.733 147.88 175.883 147.704 175.968 147.48C176.053 147.245 176.096 146.984 176.096 146.696C176.096 146.451 176.085 146.104 176.064 145.656C176.043 145.208 176.016 144.712 175.984 144.168C175.963 143.624 175.941 143.08 175.92 142.536C175.899 141.992 175.877 141.512 175.856 141.096H177.856ZM180.608 141.944C180.299 141.688 179.915 141.416 179.456 141.128C178.997 140.84 178.523 140.568 178.032 140.312C177.552 140.045 177.131 139.832 176.768 139.672L177.792 138.088C178.08 138.216 178.405 138.376 178.768 138.568C179.141 138.749 179.515 138.941 179.888 139.144C180.272 139.347 180.624 139.549 180.944 139.752C181.275 139.944 181.541 140.115 181.744 140.264L180.608 141.944ZM194.896 137.496C194.896 137.752 194.987 137.971 195.168 138.152C195.349 138.323 195.568 138.408 195.824 138.408C196.08 138.408 196.299 138.323 196.48 138.152C196.661 137.971 196.752 137.752 196.752 137.496C196.752 137.24 196.661 137.021 196.48 136.84C196.299 136.659 196.08 136.568 195.824 136.568C195.568 136.568 195.349 136.659 195.168 136.84C194.987 137.021 194.896 137.24 194.896 137.496ZM193.904 137.496C193.904 137.144 193.989 136.824 194.16 136.536C194.341 136.237 194.576 136.003 194.864 135.832C195.152 135.661 195.472 135.576 195.824 135.576C196.176 135.576 196.496 135.661 196.784 135.832C197.072 136.003 197.301 136.237 197.472 136.536C197.653 136.824 197.744 137.144 197.744 137.496C197.744 137.837 197.653 138.152 197.472 138.44C197.301 138.728 197.072 138.963 196.784 139.144C196.496 139.315 196.176 139.4 195.824 139.4C195.472 139.4 195.152 139.315 194.864 139.144C194.576 138.963 194.341 138.728 194.16 138.44C193.989 138.152 193.904 137.837 193.904 137.496ZM185.152 144.024C185.333 143.576 185.504 143.107 185.664 142.616C185.835 142.115 185.984 141.603 186.112 141.08C186.24 140.547 186.352 140.019 186.448 139.496C186.555 138.973 186.629 138.456 186.672 137.944L189.008 138.424C188.965 138.573 188.917 138.749 188.864 138.952C188.811 139.155 188.763 139.352 188.72 139.544C188.677 139.736 188.645 139.896 188.624 140.024C188.571 140.301 188.496 140.637 188.4 141.032C188.304 141.427 188.192 141.848 188.064 142.296C187.936 142.733 187.803 143.176 187.664 143.624C187.536 144.061 187.403 144.467 187.264 144.84C187.072 145.352 186.843 145.885 186.576 146.44C186.32 146.995 186.043 147.528 185.744 148.04C185.456 148.552 185.173 149.011 184.896 149.416L182.656 148.472C183.168 147.811 183.643 147.08 184.08 146.28C184.528 145.48 184.885 144.728 185.152 144.024ZM193.056 143.688C192.896 143.261 192.72 142.808 192.528 142.328C192.336 141.848 192.133 141.368 191.92 140.888C191.707 140.408 191.499 139.955 191.296 139.528C191.093 139.101 190.907 138.733 190.736 138.424L192.864 137.736C193.024 138.045 193.211 138.419 193.424 138.856C193.637 139.293 193.851 139.757 194.064 140.248C194.277 140.728 194.485 141.208 194.688 141.688C194.891 142.168 195.072 142.6 195.232 142.984C195.371 143.336 195.52 143.752 195.68 144.232C195.851 144.712 196.021 145.213 196.192 145.736C196.373 146.248 196.539 146.749 196.688 147.24C196.848 147.731 196.981 148.173 197.088 148.568L194.72 149.336C194.581 148.707 194.421 148.067 194.24 147.416C194.059 146.765 193.867 146.125 193.664 145.496C193.472 144.867 193.269 144.264 193.056 143.688ZM199.072 141.592C199.264 141.603 199.509 141.619 199.808 141.64C200.107 141.651 200.416 141.661 200.736 141.672C201.067 141.683 201.371 141.688 201.648 141.688C201.915 141.688 202.245 141.688 202.64 141.688C203.035 141.688 203.461 141.688 203.92 141.688C204.389 141.688 204.869 141.688 205.36 141.688C205.861 141.688 206.357 141.688 206.848 141.688C207.339 141.688 207.803 141.688 208.24 141.688C208.677 141.688 209.067 141.688 209.408 141.688C209.76 141.688 210.037 141.688 210.24 141.688C210.613 141.688 210.965 141.677 211.296 141.656C211.627 141.624 211.899 141.603 212.112 141.592V144.104C211.931 144.093 211.659 144.077 211.296 144.056C210.933 144.035 210.581 144.024 210.24 144.024C210.037 144.024 209.76 144.024 209.408 144.024C209.056 144.024 208.661 144.024 208.224 144.024C207.787 144.024 207.323 144.024 206.832 144.024C206.352 144.024 205.861 144.024 205.36 144.024C204.859 144.024 204.373 144.024 203.904 144.024C203.445 144.024 203.019 144.024 202.624 144.024C202.24 144.024 201.915 144.024 201.648 144.024C201.189 144.024 200.72 144.035 200.24 144.056C199.76 144.067 199.371 144.083 199.072 144.104V141.592ZM218.144 147.464C218.144 147.261 218.144 146.931 218.144 146.472C218.144 146.003 218.144 145.464 218.144 144.856C218.144 144.237 218.144 143.592 218.144 142.92C218.144 142.248 218.144 141.603 218.144 140.984C218.144 140.355 218.144 139.8 218.144 139.32C218.144 138.84 218.144 138.488 218.144 138.264C218.144 137.987 218.128 137.667 218.096 137.304C218.075 136.941 218.037 136.621 217.984 136.344H220.48C220.448 136.621 220.416 136.931 220.384 137.272C220.352 137.603 220.336 137.933 220.336 138.264C220.336 138.563 220.336 138.968 220.336 139.48C220.336 139.992 220.336 140.563 220.336 141.192C220.336 141.811 220.336 142.445 220.336 143.096C220.336 143.736 220.336 144.355 220.336 144.952C220.336 145.549 220.336 146.072 220.336 146.52C220.336 146.957 220.336 147.272 220.336 147.464C220.336 147.613 220.341 147.827 220.352 148.104C220.363 148.371 220.384 148.648 220.416 148.936C220.448 149.224 220.469 149.48 220.48 149.704H217.984C218.027 149.384 218.064 149.011 218.096 148.584C218.128 148.157 218.144 147.784 218.144 147.464ZM219.856 140.488C220.389 140.627 220.987 140.808 221.648 141.032C222.309 141.245 222.976 141.475 223.648 141.72C224.32 141.965 224.949 142.211 225.536 142.456C226.133 142.691 226.629 142.909 227.024 143.112L226.112 145.32C225.664 145.085 225.168 144.851 224.624 144.616C224.08 144.371 223.525 144.136 222.96 143.912C222.405 143.688 221.856 143.48 221.312 143.288C220.779 143.096 220.293 142.925 219.856 142.776V140.488ZM235.968 138.216C235.968 137.949 235.952 137.635 235.92 137.272C235.888 136.899 235.835 136.589 235.76 136.344H238.304C238.261 136.589 238.229 136.904 238.208 137.288C238.187 137.661 238.176 137.976 238.176 138.232C238.176 138.531 238.176 138.856 238.176 139.208C238.176 139.56 238.176 139.923 238.176 140.296C238.176 140.669 238.176 141.032 238.176 141.384C238.176 142.259 238.107 143.091 237.968 143.88C237.829 144.659 237.589 145.405 237.248 146.12C236.917 146.835 236.453 147.507 235.856 148.136C235.269 148.765 234.517 149.352 233.6 149.896L231.616 148.424C232.459 148.04 233.157 147.597 233.712 147.096C234.277 146.595 234.725 146.045 235.056 145.448C235.387 144.851 235.621 144.211 235.76 143.528C235.899 142.845 235.968 142.131 235.968 141.384C235.968 141.032 235.968 140.669 235.968 140.296C235.968 139.912 235.968 139.544 235.968 139.192C235.968 138.829 235.968 138.504 235.968 138.216ZM230.032 139.864C230.277 139.885 230.555 139.912 230.864 139.944C231.173 139.965 231.488 139.976 231.808 139.976C231.947 139.976 232.208 139.976 232.592 139.976C232.987 139.976 233.461 139.976 234.016 139.976C234.571 139.976 235.168 139.976 235.808 139.976C236.448 139.976 237.088 139.976 237.728 139.976C238.379 139.976 238.981 139.976 239.536 139.976C240.091 139.976 240.565 139.976 240.96 139.976C241.355 139.976 241.627 139.976 241.776 139.976C242.149 139.976 242.491 139.965 242.8 139.944C243.12 139.923 243.36 139.901 243.52 139.88V142.056C243.36 142.045 243.104 142.035 242.752 142.024C242.411 142.003 242.08 141.992 241.76 141.992C241.611 141.992 241.339 141.992 240.944 141.992C240.56 141.992 240.085 141.992 239.52 141.992C238.965 141.992 238.368 141.992 237.728 141.992C237.099 141.992 236.464 141.992 235.824 141.992C235.184 141.992 234.587 141.992 234.032 141.992C233.477 141.992 233.008 141.992 232.624 141.992C232.24 141.992 231.989 141.992 231.872 141.992C231.52 141.992 231.189 142.003 230.88 142.024C230.571 142.035 230.288 142.051 230.032 142.072V139.864ZM245.632 141.592C245.824 141.603 246.069 141.619 246.368 141.64C246.667 141.651 246.976 141.661 247.296 141.672C247.627 141.683 247.931 141.688 248.208 141.688C248.475 141.688 248.805 141.688 249.2 141.688C249.595 141.688 250.021 141.688 250.48 141.688C250.949 141.688 251.429 141.688 251.92 141.688C252.421 141.688 252.917 141.688 253.408 141.688C253.899 141.688 254.363 141.688 254.8 141.688C255.237 141.688 255.627 141.688 255.968 141.688C256.32 141.688 256.597 141.688 256.8 141.688C257.173 141.688 257.525 141.677 257.856 141.656C258.187 141.624 258.459 141.603 258.672 141.592V144.104C258.491 144.093 258.219 144.077 257.856 144.056C257.493 144.035 257.141 144.024 256.8 144.024C256.597 144.024 256.32 144.024 255.968 144.024C255.616 144.024 255.221 144.024 254.784 144.024C254.347 144.024 253.883 144.024 253.392 144.024C252.912 144.024 252.421 144.024 251.92 144.024C251.419 144.024 250.933 144.024 250.464 144.024C250.005 144.024 249.579 144.024 249.184 144.024C248.8 144.024 248.475 144.024 248.208 144.024C247.749 144.024 247.28 144.035 246.8 144.056C246.32 144.067 245.931 144.083 245.632 144.104V141.592ZM264.311 136.328C264.567 136.477 264.861 136.653 265.191 136.856C265.522 137.059 265.858 137.267 266.199 137.48C266.551 137.693 266.877 137.901 267.175 138.104C267.485 138.296 267.746 138.467 267.959 138.616L266.759 140.392C266.546 140.232 266.285 140.051 265.975 139.848C265.666 139.645 265.346 139.437 265.015 139.224C264.685 139.011 264.354 138.808 264.023 138.616C263.703 138.413 263.41 138.237 263.143 138.088L264.311 136.328ZM261.335 147.688C261.943 147.581 262.551 147.453 263.159 147.304C263.778 147.144 264.391 146.947 264.999 146.712C265.618 146.477 266.215 146.205 266.791 145.896C267.698 145.384 268.541 144.808 269.319 144.168C270.109 143.528 270.813 142.845 271.431 142.12C272.061 141.395 272.589 140.653 273.015 139.896L274.247 142.072C273.501 143.181 272.578 144.227 271.479 145.208C270.391 146.189 269.191 147.059 267.879 147.816C267.335 148.125 266.738 148.413 266.087 148.68C265.447 148.947 264.813 149.176 264.183 149.368C263.565 149.571 263.015 149.715 262.535 149.8L261.335 147.688ZM261.847 139.976C262.114 140.125 262.413 140.301 262.743 140.504C263.085 140.696 263.426 140.899 263.767 141.112C264.109 141.325 264.429 141.528 264.727 141.72C265.037 141.912 265.293 142.083 265.495 142.232L264.327 144.024C264.093 143.864 263.826 143.688 263.527 143.496C263.229 143.293 262.909 143.085 262.567 142.872C262.237 142.648 261.906 142.44 261.575 142.248C261.255 142.056 260.957 141.891 260.679 141.752L261.847 139.976ZM282.967 139.496C283.042 139.667 283.138 139.912 283.255 140.232C283.383 140.541 283.517 140.877 283.655 141.24C283.794 141.592 283.917 141.928 284.023 142.248C284.13 142.568 284.215 142.819 284.279 143L282.359 143.672C282.317 143.469 282.242 143.213 282.135 142.904C282.029 142.595 281.911 142.269 281.783 141.928C281.655 141.576 281.527 141.24 281.399 140.92C281.271 140.6 281.159 140.333 281.063 140.12L282.967 139.496ZM288.871 140.664C288.786 140.92 288.711 141.139 288.647 141.32C288.594 141.501 288.541 141.672 288.487 141.832C288.285 142.643 288.007 143.453 287.655 144.264C287.303 145.064 286.855 145.816 286.311 146.52C285.565 147.48 284.717 148.296 283.767 148.968C282.829 149.629 281.89 150.136 280.951 150.488L279.271 148.776C279.858 148.616 280.477 148.381 281.127 148.072C281.778 147.752 282.407 147.368 283.015 146.92C283.623 146.472 284.146 145.976 284.583 145.432C284.946 144.973 285.266 144.451 285.543 143.864C285.831 143.267 286.066 142.632 286.247 141.96C286.439 141.277 286.567 140.605 286.631 139.944L288.871 140.664ZM279.255 140.344C279.362 140.547 279.479 140.808 279.607 141.128C279.746 141.448 279.885 141.784 280.023 142.136C280.162 142.488 280.295 142.829 280.423 143.16C280.562 143.491 280.669 143.768 280.743 143.992L278.791 144.728C278.727 144.515 278.631 144.237 278.503 143.896C278.386 143.555 278.253 143.197 278.103 142.824C277.954 142.44 277.81 142.088 277.671 141.768C277.543 141.448 277.431 141.203 277.335 141.032L279.255 140.344ZM303.272 137.272C303.272 137.528 303.362 137.747 303.544 137.928C303.725 138.099 303.938 138.184 304.184 138.184C304.44 138.184 304.658 138.099 304.84 137.928C305.021 137.747 305.112 137.528 305.112 137.272C305.112 137.016 305.021 136.797 304.84 136.616C304.658 136.435 304.44 136.344 304.184 136.344C303.938 136.344 303.725 136.435 303.544 136.616C303.362 136.797 303.272 137.016 303.272 137.272ZM302.28 137.272C302.28 136.92 302.365 136.6 302.536 136.312C302.717 136.013 302.952 135.779 303.24 135.608C303.528 135.437 303.842 135.352 304.184 135.352C304.536 135.352 304.856 135.437 305.144 135.608C305.442 135.779 305.677 136.013 305.848 136.312C306.018 136.6 306.104 136.92 306.104 137.272C306.104 137.613 306.018 137.928 305.848 138.216C305.677 138.504 305.442 138.739 305.144 138.92C304.856 139.091 304.536 139.176 304.184 139.176C303.842 139.176 303.528 139.091 303.24 138.92C302.952 138.739 302.717 138.504 302.536 138.216C302.365 137.928 302.28 137.613 302.28 137.272ZM304.216 138.536C304.141 138.685 304.077 138.867 304.024 139.08C303.97 139.283 303.917 139.469 303.864 139.64C303.778 140.035 303.666 140.477 303.528 140.968C303.389 141.448 303.224 141.949 303.032 142.472C302.84 142.995 302.61 143.512 302.344 144.024C302.088 144.536 301.794 145.016 301.464 145.464C300.984 146.104 300.424 146.701 299.784 147.256C299.144 147.811 298.429 148.312 297.64 148.76C296.85 149.208 295.981 149.587 295.032 149.896L293.288 147.976C294.354 147.72 295.272 147.405 296.04 147.032C296.808 146.659 297.474 146.232 298.04 145.752C298.616 145.272 299.122 144.76 299.56 144.216C299.912 143.768 300.21 143.283 300.456 142.76C300.712 142.237 300.92 141.715 301.08 141.192C301.25 140.659 301.368 140.163 301.432 139.704C301.272 139.704 301.005 139.704 300.632 139.704C300.269 139.704 299.837 139.704 299.336 139.704C298.845 139.704 298.328 139.704 297.784 139.704C297.25 139.704 296.733 139.704 296.232 139.704C295.73 139.704 295.277 139.704 294.872 139.704C294.477 139.704 294.184 139.704 293.992 139.704C293.618 139.704 293.256 139.709 292.904 139.72C292.562 139.731 292.29 139.747 292.088 139.768V137.512C292.248 137.533 292.44 137.555 292.664 137.576C292.898 137.597 293.133 137.613 293.368 137.624C293.613 137.635 293.821 137.64 293.992 137.64C294.162 137.64 294.402 137.64 294.712 137.64C295.032 137.64 295.4 137.64 295.816 137.64C296.232 137.64 296.664 137.64 297.112 137.64C297.57 137.64 298.024 137.64 298.472 137.64C298.93 137.64 299.357 137.64 299.752 137.64C300.146 137.64 300.488 137.64 300.776 137.64C301.064 137.64 301.272 137.64 301.4 137.64C301.56 137.64 301.752 137.635 301.976 137.624C302.21 137.613 302.434 137.576 302.648 137.512L304.216 138.536Z" fill="#4B4B4B"/>
<path d="M513.561 399.3H510.561V401.1H512.661V402H510.561V405H509.661V398.4H513.561V399.3ZM517.763 405H516.863V403.5H514.763V405H513.863V402.6V402.3V401.7H514.163V401.1H514.463V400.5H514.763V399.9H515.063V399.3H515.363V398.7H515.663V398.4H515.963V398.7H516.263V399.3H516.563V399.9H516.863V400.5H517.163V401.1H517.463V401.7H517.763V402.3V402.6V405ZM516.863 402.6V402.3V402H516.563V401.4H516.263V400.8H515.963V400.2H515.663V400.8H515.363V401.4H515.063V402H514.763V402.3V402.6H516.863ZM521.965 404.1H521.665V404.4H521.365V404.7H521.065V405H518.065V398.4H521.065V398.7H521.365V399H521.665V399.3H521.965V400.8H521.665V401.1H521.365V401.4H521.065V401.7H521.365V402H521.665V402.3H521.965V404.1ZM521.065 400.5V399.6H520.765V399.3H518.965V401.1H520.465V400.8H520.765V400.5H521.065ZM521.065 403.8V402.6H520.765V402.3H520.465V402H518.965V404.1H520.765V403.8H521.065ZM524.667 402.6H523.467V401.4H524.667V402.6ZM524.667 405H523.467V403.8H524.667V405ZM534.571 404.1H534.271V404.4H533.971V404.7H533.671V405H530.671V398.4H533.671V398.7H533.971V399H534.271V399.3H534.571V400.8H534.271V401.1H533.971V401.4H533.671V401.7H533.971V402H534.271V402.3H534.571V404.1ZM533.671 400.5V399.6H533.371V399.3H531.571V401.1H533.071V400.8H533.371V400.5H533.671ZM533.671 403.8V402.6H533.371V402.3H533.071V402H531.571V404.1H533.371V403.8H533.671ZM538.773 399.3H538.473V399.9H538.173V400.5H537.873V401.1H537.573V401.7H537.273V405H536.373V401.7H536.073V401.1H535.773V400.5H535.473V399.9H535.173V399.3H534.873V398.4H535.773V399H536.073V399.6H536.373V400.2H536.673V400.8H536.973V400.2H537.273V399.6H537.573V399H537.873V398.4H538.773V399.3ZM542.975 405H539.075V398.4H539.975V404.1H542.975V405ZM547.177 403.5H546.877V403.8H546.577V404.1H546.277V404.4H545.977V404.7H545.667V405H543.277V398.4H545.677V398.7H545.977V399H546.277V399.3H546.577V399.6H546.877V399.9H547.177V403.5ZM546.277 403.2V400.2H545.977V399.9H545.677V399.6H545.377V399.3H544.177V404.1H545.377V403.8H545.677V403.5H545.977V403.2H546.277ZM555.58 405H551.68V404.1H553.18V399.3H552.58V398.4H554.68V399.3H554.08V404.1H555.58V405ZM559.782 405H558.882V404.7H558.582V404.1H558.282V403.5H557.982V402.9H557.682V402.3H557.382V401.7H557.082V401.1H556.782V405H555.882V398.4H556.482V399H556.782V399.6H557.082V400.2H557.382V400.8H557.682V401.4H557.982V402H558.282V402.6H558.582V403.2H558.882V398.4H559.782V405ZM563.984 403.5H563.684V403.8H563.384V404.1H563.084V404.4H562.784V404.7H562.474V405H560.084V398.4H562.484V398.7H562.784V399H563.084V399.3H563.384V399.6H563.684V399.9H563.984V403.5ZM563.084 403.2V400.2H562.784V399.9H562.484V399.6H562.184V399.3H560.984V404.1H562.184V403.8H562.484V403.5H562.784V403.2H563.084ZM568.186 404.1H567.886V404.4H567.586V404.7H567.286V405H565.186V404.7H564.886V404.4H564.586V404.1H564.286V398.4H565.186V403.8H565.486V404.1H566.986V403.8H567.286V398.4H568.186V404.1ZM572.388 404.1H572.088V404.4H571.788V404.7H571.488V405H569.388V404.7H569.088V404.4H568.788V404.1H568.488V403.2H569.388V403.8H569.688V404.1H571.188V403.8H571.488V402.3H571.188V402H569.388V401.7H569.088V401.4H568.788V401.1H568.488V399.3H568.788V399H569.088V398.7H569.388V398.4H571.488V398.7H571.788V399H572.088V399.3H572.388V400.2H571.488V399.6H571.188V399.3H569.688V399.6H569.388V400.8H569.688V401.1H571.488V401.4H571.788V401.7H572.088V402H572.388V404.1ZM576.59 399.3H575.09V405H574.19V399.3H572.69V398.4H576.59V399.3ZM580.792 405H579.892V403.8H579.592V403.2H579.292V402.6H578.992V402H577.792V405H576.892V398.4H579.892V398.7H580.192V399H580.492V399.3H580.792V401.1H580.492V401.4H580.192V401.7H579.892V402.3H580.192V402.9H580.492V403.5H580.792V405ZM579.892 400.8V399.6H579.592V399.3H577.792V401.1H579.592V400.8H579.892ZM584.994 405H581.094V404.1H582.594V399.3H581.994V398.4H584.094V399.3H583.494V404.1H584.994V405ZM589.196 405H585.296V398.4H589.196V399.3H586.196V401.1H588.596V402H586.196V404.1H589.196V405ZM593.398 404.1H593.098V404.4H592.798V404.7H592.498V405H590.398V404.7H590.098V404.4H589.798V404.1H589.498V403.2H590.398V403.8H590.698V404.1H592.198V403.8H592.498V402.3H592.198V402H590.398V401.7H590.098V401.4H589.798V401.1H589.498V399.3H589.798V399H590.098V398.7H590.398V398.4H592.498V398.7H592.798V399H593.098V399.3H593.398V400.2H592.498V399.6H592.198V399.3H590.698V399.6H590.398V400.8H590.698V401.1H592.498V401.4H592.798V401.7H593.098V402H593.398V404.1ZM521.965 417H518.065V416.1H519.565V411.3H518.965V410.4H521.065V411.3H520.465V416.1H521.965V417ZM526.167 417H525.267V416.7H524.967V416.1H524.667V415.5H524.367V414.9H524.067V414.3H523.767V413.7H523.467V413.1H523.167V417H522.267V410.4H522.867V411H523.167V411.6H523.467V412.2H523.767V412.8H524.067V413.4H524.367V414H524.667V414.6H524.967V415.2H525.267V410.4H526.167V417ZM530.369 416.1H530.069V416.4H529.769V416.7H529.469V417H527.369V416.7H527.069V416.4H526.769V416.1H526.469V415.2H527.369V415.8H527.669V416.1H529.169V415.8H529.469V414.3H529.169V414H527.369V413.7H527.069V413.4H526.769V413.1H526.469V411.3H526.769V411H527.069V410.7H527.369V410.4H529.469V410.7H529.769V411H530.069V411.3H530.369V412.2H529.469V411.6H529.169V411.3H527.669V411.6H527.369V412.8H527.669V413.1H529.469V413.4H529.769V413.7H530.069V414H530.369V416.1ZM534.571 413.4H534.271V413.7H533.971V414H533.671V414.3H531.571V417H530.671V410.4H533.671V410.7H533.971V411H534.271V411.3H534.571V413.4ZM533.671 413.1V411.6H533.371V411.3H531.571V413.4H533.371V413.1H533.671ZM538.773 417H534.873V410.4H538.773V411.3H535.773V413.1H538.173V414H535.773V416.1H538.773V417ZM542.975 416.1H542.675V416.4H542.375V416.7H542.075V417H540.275V416.7H539.975V416.4H539.675V416.1H539.375V415.8H539.075V411.6H539.375V411.3H539.675V411H539.975V410.7H540.275V410.4H542.075V410.7H542.375V411H542.675V411.3H542.975V412.2H542.075V411.6H541.775V411.3H540.575V411.6H540.275V411.9H539.975V415.5H540.275V415.8H540.575V416.1H541.775V415.8H542.075V415.2H542.975V416.1ZM547.177 411.3H545.677V417H544.777V411.3H543.277V410.4H547.177V411.3ZM555.58 416.1H555.28V416.4H554.98V416.7H554.68V417H551.68V410.4H554.68V410.7H554.98V411H555.28V411.3H555.58V412.8H555.28V413.1H554.98V413.4H554.68V413.7H554.98V414H555.28V414.3H555.58V416.1ZM554.68 412.5V411.6H554.38V411.3H552.58V413.1H554.08V412.8H554.38V412.5H554.68ZM554.68 415.8V414.6H554.38V414.3H554.08V414H552.58V416.1H554.38V415.8H554.68ZM559.782 417H555.882V410.4H559.782V411.3H556.782V413.1H559.182V414H556.782V416.1H559.782V417ZM563.984 411.3H560.984V413.1H563.084V414H560.984V417H560.084V410.4H563.984V411.3ZM568.186 415.8H567.886V416.1H567.586V416.4H567.286V416.7H566.986V417H565.486V416.7H565.186V416.4H564.886V416.1H564.586V415.8H564.286V411.6H564.586V411.3H564.886V411H565.186V410.7H565.486V410.4H566.986V410.7H567.286V411H567.586V411.3H567.886V411.6H568.186V415.8ZM567.286 415.5V411.9H566.986V411.6H566.686V411.3H565.786V411.6H565.486V411.9H565.186V415.5H565.486V415.8H565.786V416.1H566.686V415.8H566.986V415.5H567.286ZM572.388 417H571.488V415.8H571.188V415.2H570.888V414.6H570.588V414H569.388V417H568.488V410.4H571.488V410.7H571.788V411H572.088V411.3H572.388V413.1H572.088V413.4H571.788V413.7H571.488V414.3H571.788V414.9H572.088V415.5H572.388V417ZM571.488 412.8V411.6H571.188V411.3H569.388V413.1H571.188V412.8H571.488ZM576.59 417H572.69V410.4H576.59V411.3H573.59V413.1H575.99V414H573.59V416.1H576.59V417ZM584.994 416.1H584.694V416.4H584.394V416.7H584.094V417H581.994V416.7H581.694V416.4H581.394V416.1H581.094V410.4H581.994V415.8H582.294V416.1H583.794V415.8H584.094V410.4H584.994V416.1ZM589.196 416.1H588.896V416.4H588.596V416.7H588.296V417H586.196V416.7H585.896V416.4H585.596V416.1H585.296V415.2H586.196V415.8H586.496V416.1H587.996V415.8H588.296V414.3H587.996V414H586.196V413.7H585.896V413.4H585.596V413.1H585.296V411.3H585.596V411H585.896V410.7H586.196V410.4H588.296V410.7H588.596V411H588.896V411.3H589.196V412.2H588.296V411.6H587.996V411.3H586.496V411.6H586.196V412.8H586.496V413.1H588.296V413.4H588.596V413.7H588.896V414H589.196V416.1ZM593.398 417H589.498V410.4H593.398V411.3H590.398V413.1H592.798V414H590.398V416.1H593.398V417ZM547.177 440.1H546.877V440.4H546.577V440.7H546.277V441H544.177V440.7H543.877V440.4H543.577V440.1H543.277V439.2H544.177V439.8H544.477V440.1H545.977V439.8H546.277V438.3H545.977V438H544.177V437.7H543.877V437.4H543.577V437.1H543.277V435.3H543.577V435H543.877V434.7H544.177V434.4H546.277V434.7H546.577V435H546.877V435.3H547.177V436.2H546.277V435.6H545.977V435.3H544.477V435.6H544.177V436.8H544.477V437.1H546.277V437.4H546.577V437.7H546.877V438H547.177V440.1ZM551.379 441H550.479V440.7H550.179V440.1H549.879V439.5H549.579V438.9H549.279V438.3H548.979V437.7H548.679V437.1H548.379V441H547.479V434.4H548.079V435H548.379V435.6H548.679V436.2H548.979V436.8H549.279V437.4H549.579V438H549.879V438.6H550.179V439.2H550.479V434.4H551.379V441ZM554.08 438.6H552.88V437.4H554.08V438.6ZM554.08 441H552.88V439.8H554.08V441ZM563.984 439.8H563.684V440.1H563.384V440.4H563.084V440.7H562.784V441H561.284V440.7H560.984V440.4H560.684V440.1H560.384V439.8H560.084V435.6H560.384V435.3H560.684V435H560.984V434.7H561.284V434.4H562.784V434.7H563.084V435H563.384V435.3H563.684V435.6H563.984V439.8ZM562.784 435.9V435.6V435.3H561.284V435.6H560.984V438.9H561.284V438.3H561.584V437.7H561.884V437.1H562.184V436.5H562.484V435.9H562.784ZM563.084 439.8V436.8H562.784V437.4H562.484V438H562.184V438.6H561.884V439.2H561.584V439.8H561.284V440.1H562.784V439.8H563.084ZM568.186 439.8H567.886V440.1H567.586V440.4H567.286V440.7H566.986V441H565.486V440.7H565.186V440.4H564.886V440.1H564.586V439.8H564.286V435.6H564.586V435.3H564.886V435H565.186V434.7H565.486V434.4H566.986V434.7H567.286V435H567.586V435.3H567.886V435.6H568.186V439.8ZM566.986 435.9V435.6V435.3H565.486V435.6H565.186V438.9H565.486V438.3H565.786V437.7H566.086V437.1H566.386V436.5H566.686V435.9H566.986ZM567.286 439.8V436.8H566.986V437.4H566.686V438H566.386V438.6H566.086V439.2H565.786V439.8H565.486V440.1H566.986V439.8H567.286ZM572.388 441H568.488V438.6H568.788V438.3H569.088V438H569.388V437.7H569.688V437.4H570.888V437.1H571.188V436.8H571.488V435.6H571.188V435.3H569.688V435.6H569.388V436.2H568.488V435.3H568.788V435H569.088V434.7H569.388V434.4H571.488V434.7H571.788V435H572.088V435.3H572.388V437.1H572.088V437.4H571.788V437.7H571.488V438H571.188V438.3H569.988V438.6H569.688V438.9H569.388V440.1H572.388V441ZM576.59 441H572.69V440.1H574.19V435.3H573.29V434.4H575.09V440.1H576.59V441ZM580.792 438H580.492V438.6H580.192V438.9H579.892V439.2H579.592V439.5H579.292V439.8H578.992V440.1H578.692V440.4H578.392V440.7H578.092V441H577.192V440.4H577.492V440.1H577.792V439.8H578.092V439.5H578.392V439.2H578.692V438.9H578.992V438.6H579.292V438.3H577.792V438H577.492V437.7H577.192V437.4H576.892V435.3H577.192V435H577.492V434.7H577.792V434.4H579.892V434.7H580.192V435H580.492V435.3H580.792V438ZM579.892 437.1V435.6H579.592V435.3H578.092V435.6H577.792V437.1H578.092V437.4H579.592V437.1H579.892ZM584.994 439.8H584.394V441H583.494V439.8H581.094V439.5V439.2H581.394V438.6H581.694V438H581.994V437.4H582.294V436.8H582.594V436.2H582.894V435.6H583.194V435H583.494V434.4H584.394V438.9H584.994V439.8ZM583.494 438.9V436.5H583.194V437.1H582.894V437.7H582.594V438.3H582.294V438.9H583.494ZM588.596 438.9H585.896V438H588.596V438.9ZM593.398 440.1H593.098V440.4H592.798V440.7H592.498V441H590.698V440.7H590.398V440.4H590.098V440.1H589.798V439.8H589.498V435.6H589.798V435.3H590.098V435H590.398V434.7H590.698V434.4H592.498V434.7H592.798V435H593.098V435.3H593.398V436.2H592.498V435.6H592.198V435.3H590.998V435.6H590.698V435.9H590.398V439.5H590.698V439.8H590.998V440.1H592.198V439.8H592.498V439.2H593.398V440.1ZM538.773 453H537.873V449.7H537.573V450.3H537.273V450.9H536.973V451.5H536.673V450.9H536.373V450.3H536.073V449.7H535.773V453H534.873V446.4H535.173V447H535.473V447.6H535.773V448.2H536.073V448.8H536.373V449.4H536.673V450H536.973V449.4H537.273V448.8H537.573V448.2H537.873V447.6H538.173V447H538.473V446.4H538.773V453ZM542.975 453H542.075V451.5H539.975V453H539.075V450.6V450.3V449.7H539.375V449.1H539.675V448.5H539.975V447.9H540.275V447.3H540.575V446.7H540.875V446.4H541.175V446.7H541.475V447.3H541.775V447.9H542.075V448.5H542.375V449.1H542.675V449.7H542.975V450.3V450.6V453ZM542.075 450.6V450.3V450H541.775V449.4H541.475V448.8H541.175V448.2H540.875V448.8H540.575V449.4H540.275V450H539.975V450.3V450.6H542.075ZM547.177 447.3H545.677V453H544.777V447.3H543.277V446.4H547.177V447.3ZM549.879 450.6H548.679V449.4H549.879V450.6ZM549.879 453H548.679V451.8H549.879V453ZM559.782 453H558.882V451.5H556.782V453H555.882V450.6V450.3V449.7H556.182V449.1H556.482V448.5H556.782V447.9H557.082V447.3H557.382V446.7H557.682V446.4H557.982V446.7H558.282V447.3H558.582V447.9H558.882V448.5H559.182V449.1H559.482V449.7H559.782V450.3V450.6V453ZM558.882 450.6V450.3V450H558.582V449.4H558.282V448.8H557.982V448.2H557.682V448.8H557.382V449.4H557.082V450H556.782V450.3V450.6H558.882ZM563.984 453H560.084V446.4H560.984V452.1H563.984V453ZM568.186 452.1H567.886V452.4H567.586V452.7H567.286V453H565.186V452.7H564.886V452.4H564.586V452.1H564.286V449.4H564.586V448.8H564.886V448.5H565.186V448.2H565.486V447.9H565.786V447.6H566.086V447.3H566.386V447H566.686V446.7H566.986V446.4H567.886V447H567.586V447.3H567.286V447.6H566.986V447.9H566.686V448.2H566.386V448.5H566.086V448.8H565.786V449.1H567.286V449.4H567.586V449.7H567.886V450H568.186V452.1ZM567.286 451.8V450.3H566.986V450H565.486V450.3H565.186V451.8H565.486V452.1H566.986V451.8H567.286ZM572.388 451.8H572.088V452.1H571.788V452.4H571.488V452.7H571.188V453H569.688V452.7H569.388V452.4H569.088V452.1H568.788V451.8H568.488V447.6H568.788V447.3H569.088V447H569.388V446.7H569.688V446.4H571.188V446.7H571.488V447H571.788V447.3H572.088V447.6H572.388V451.8ZM571.188 447.9V447.6V447.3H569.688V447.6H569.388V450.9H569.688V450.3H569.988V449.7H570.288V449.1H570.588V448.5H570.888V447.9H571.188ZM571.488 451.8V448.8H571.188V449.4H570.888V450H570.588V450.6H570.288V451.2H569.988V451.8H569.688V452.1H571.188V451.8H571.488ZM576.59 452.1H576.29V452.4H575.99V452.7H575.69V453H573.59V452.7H573.29V452.4H572.99V452.1H572.69V449.4H572.99V448.8H573.29V448.5H573.59V448.2H573.89V447.9H574.19V447.6H574.49V447.3H574.79V447H575.09V446.7H575.39V446.4H576.29V447H575.99V447.3H575.69V447.6H575.39V447.9H575.09V448.2H574.79V448.5H574.49V448.8H574.19V449.1H575.69V449.4H575.99V449.7H576.29V450H576.59V452.1ZM575.69 451.8V450.3H575.39V450H573.89V450.3H573.59V451.8H573.89V452.1H575.39V451.8H575.69ZM580.792 453H576.892V452.1H578.392V447.3H577.492V446.4H579.292V452.1H580.792V453ZM584.394 450.9H581.694V450H584.394V450.9ZM589.196 447.3H587.696V453H586.796V447.3H585.296V446.4H589.196V447.3ZM593.398 452.1H593.098V452.4H592.798V452.7H592.498V453H590.398V452.7H590.098V452.4H589.798V452.1H589.498V449.4H589.798V448.8H590.098V448.5H590.398V448.2H590.698V447.9H590.998V447.6H591.298V447.3H591.598V447H591.898V446.7H592.198V446.4H593.098V447H592.798V447.3H592.498V447.6H592.198V447.9H591.898V448.2H591.598V448.5H591.298V448.8H590.998V449.1H592.498V449.4H592.798V449.7H593.098V450H593.398V452.1ZM592.498 451.8V450.3H592.198V450H590.698V450.3H590.398V451.8H590.698V452.1H592.198V451.8H592.498ZM526.167 476.4H525.867V476.7H525.567V477H523.467V476.7H523.167V476.4H522.867V476.1H522.567V475.8H522.267V471.6H522.567V471.3H522.867V471H523.167V470.7H523.467V470.4H525.567V470.7H525.867V471H526.167V471.6H525.267V471.3H523.767V471.6H523.467V471.9H523.167V475.5H523.467V475.8H523.767V476.1H525.267V474.3H524.967V474.6H524.067V473.4H526.167V476.4ZM530.369 477H526.469V470.4H530.369V471.3H527.369V473.1H529.769V474H527.369V476.1H530.369V477ZM534.571 475.8H534.271V476.1H533.971V476.4H533.671V476.7H533.371V477H531.871V476.7H531.571V476.4H531.271V476.1H530.971V475.8H530.671V471.6H530.971V471.3H531.271V471H531.571V470.7H531.871V470.4H533.371V470.7H533.671V471H533.971V471.3H534.271V471.6H534.571V475.8ZM533.671 475.5V471.9H533.371V471.6H533.071V471.3H532.171V471.6H531.871V471.9H531.571V475.5H531.871V475.8H532.171V476.1H533.071V475.8H533.371V475.5H533.671ZM538.773 477H537.873V473.7H537.573V474.3H537.273V474.9H536.973V475.5H536.673V474.9H536.373V474.3H536.073V473.7H535.773V477H534.873V470.4H535.173V471H535.473V471.6H535.773V472.2H536.073V472.8H536.373V473.4H536.673V474H536.973V473.4H537.273V472.8H537.573V472.2H537.873V471.6H538.173V471H538.473V470.4H538.773V477ZM542.975 478.2H539.075V477.6H542.975V478.2ZM547.177 477H546.277V474H544.177V477H543.277V470.4H544.177V473.1H546.277V470.4H547.177V477ZM551.379 477H550.479V475.5H548.379V477H547.479V474.6V474.3V473.7H547.779V473.1H548.079V472.5H548.379V471.9H548.679V471.3H548.979V470.7H549.279V470.4H549.579V470.7H549.879V471.3H550.179V471.9H550.479V472.5H550.779V473.1H551.079V473.7H551.379V474.3V474.6V477ZM550.479 474.6V474.3V474H550.179V473.4H549.879V472.8H549.579V472.2H549.279V472.8H548.979V473.4H548.679V474H548.379V474.3V474.6H550.479ZM555.58 476.1H555.28V476.4H554.98V476.7H554.68V477H552.58V476.7H552.28V476.4H551.98V476.1H551.68V475.2H552.58V475.8H552.88V476.1H554.38V475.8H554.68V474.3H554.38V474H552.58V473.7H552.28V473.4H551.98V473.1H551.68V471.3H551.98V471H552.28V470.7H552.58V470.4H554.68V470.7H554.98V471H555.28V471.3H555.58V472.2H554.68V471.6H554.38V471.3H552.88V471.6H552.58V472.8H552.88V473.1H554.68V473.4H554.98V473.7H555.28V474H555.58V476.1ZM559.782 477H558.882V474H556.782V477H555.882V470.4H556.782V473.1H558.882V470.4H559.782V477ZM562.484 474.6H561.284V473.4H562.484V474.6ZM562.484 477H561.284V475.8H562.484V477ZM572.388 476.1H572.088V476.4H571.788V476.7H571.488V477H569.388V476.7H569.088V476.4H568.788V476.1H568.488V474H568.788V473.7H569.088V473.4H568.788V473.1H568.488V471.3H568.788V471H569.088V470.7H569.388V470.4H571.488V470.7H571.788V471H572.088V471.3H572.388V473.1H572.088V473.4H571.788V473.7H572.088V474H572.388V476.1ZM571.488 472.8V471.6H571.188V471.3H569.688V471.6H569.388V472.8H569.688V473.1H571.188V472.8H571.488ZM571.488 475.8V474.3H571.188V474H569.688V474.3H569.388V475.8H569.688V476.1H571.188V475.8H571.488ZM576.59 474H576.29V474.6H575.99V474.9H575.69V475.2H575.39V475.5H575.09V475.8H574.79V476.1H574.49V476.4H574.19V476.7H573.89V477H572.99V476.4H573.29V476.1H573.59V475.8H573.89V475.5H574.19V475.2H574.49V474.9H574.79V474.6H575.09V474.3H573.59V474H573.29V473.7H572.99V473.4H572.69V471.3H572.99V471H573.29V470.7H573.59V470.4H575.69V470.7H575.99V471H576.29V471.3H576.59V474ZM575.69 473.1V471.6H575.39V471.3H573.89V471.6H573.59V473.1H573.89V473.4H575.39V473.1H575.69ZM580.792 475.5H580.492V475.8H580.192V476.1H579.892V476.4H579.592V476.7H579.282V477H576.892V470.4H579.292V470.7H579.592V471H579.892V471.3H580.192V471.6H580.492V471.9H580.792V475.5ZM579.892 475.2V472.2H579.592V471.9H579.292V471.6H578.992V471.3H577.792V476.1H578.992V475.8H579.292V475.5H579.592V475.2H579.892ZM584.994 477H581.094V474.6H581.394V474.3H581.694V474H581.994V473.7H582.294V473.4H583.494V473.1H583.794V472.8H584.094V471.6H583.794V471.3H582.294V471.6H581.994V472.2H581.094V471.3H581.394V471H581.694V470.7H581.994V470.4H584.094V470.7H584.394V471H584.694V471.3H584.994V473.1H584.694V473.4H584.394V473.7H584.094V474H583.794V474.3H582.594V474.6H582.294V474.9H581.994V476.1H584.994V477ZM589.196 471.3H586.196V473.1H588.296V474H586.196V477H585.296V470.4H589.196V471.3ZM593.398 477H592.498V475.5H590.398V477H589.498V474.6V474.3V473.7H589.798V473.1H590.098V472.5H590.398V471.9H590.698V471.3H590.998V470.7H591.298V470.4H591.598V470.7H591.898V471.3H592.198V471.9H592.498V472.5H592.798V473.1H593.098V473.7H593.398V474.3V474.6V477ZM592.498 474.6V474.3V474H592.198V473.4H591.898V472.8H591.598V472.2H591.298V472.8H590.998V473.4H590.698V474H590.398V474.3V474.6H592.498ZM542.975 488.1H542.675V488.4H542.375V488.7H542.075V489H540.275V488.7H539.975V488.4H539.675V488.1H539.375V487.8H539.075V483.6H539.375V483.3H539.675V483H539.975V482.7H540.275V482.4H542.075V482.7H542.375V483H542.675V483.3H542.975V484.2H542.075V483.6H541.775V483.3H540.575V483.6H540.275V483.9H539.975V487.5H540.275V487.8H540.575V488.1H541.775V487.8H542.075V487.2H542.975V488.1ZM547.177 489H546.277V486H544.177V489H543.277V482.4H544.177V485.1H546.277V482.4H547.177V489ZM551.379 489H550.479V488.4H550.179V487.8H549.879V487.2H549.579V486.6H549.279V486H548.679V486.3H548.379V489H547.479V482.4H548.379V485.1H548.679V484.8H548.979V484.5H549.279V484.2H549.579V483.9H549.879V483.6H550.179V483.29H550.479V483H550.779V482.7H551.079V482.4H551.379V483.6H551.079V483.9H550.779V484.2H550.479V484.49H550.179V484.8H549.879V485.1H549.579V485.4H549.879V485.7H550.179V486.3H550.479V486.9H550.779V487.5H551.079V488.1H551.379V489ZM554.98 486.9H552.28V486H554.98V486.9ZM559.782 485.4H559.482V486H559.182V486.6H558.882V487.2H558.582V487.8H558.282V488.4H557.982V489H557.682V488.4H557.382V487.8H557.082V487.2H556.782V486.6H556.482V486H556.182V485.4H555.882V482.4H556.782V485.1H557.082V485.7H557.382V486.3H557.682V486.9H557.982V486.3H558.282V485.7H558.582V485.1H558.882V482.4H559.782V485.4ZM563.984 489H563.084V487.8H562.784V487.2H562.484V486.6H562.184V486H560.984V489H560.084V482.4H563.084V482.7H563.384V483H563.684V483.3H563.984V485.1H563.684V485.4H563.384V485.7H563.084V486.3H563.384V486.9H563.684V487.5H563.984V489ZM563.084 484.8V483.6H562.784V483.3H560.984V485.1H562.784V484.8H563.084ZM568.186 483.3H566.686V489H565.786V483.3H564.286V482.4H568.186V483.3ZM572.388 488.1H572.088V488.4H571.788V488.7H571.488V489H569.388V488.7H569.088V488.4H568.788V488.1H568.488V487.2H569.388V487.8H569.688V488.1H571.188V487.8H571.488V486.3H571.188V486H569.388V485.7H569.088V485.4H568.788V485.1H568.488V483.3H568.788V483H569.088V482.7H569.388V482.4H571.488V482.7H571.788V483H572.088V483.3H572.388V484.2H571.488V483.6H571.188V483.3H569.688V483.6H569.388V484.8H569.688V485.1H571.488V485.4H571.788V485.7H572.088V486H572.388V488.1ZM575.09 486.6H573.89V485.4H575.09V486.6ZM575.09 489H573.89V487.8H575.09V489ZM584.994 488.1H584.694V488.4H584.394V488.7H584.094V489H581.994V488.7H581.694V488.4H581.394V488.1H581.094V486H581.394V485.7H581.694V485.4H581.394V485.1H581.094V483.3H581.394V483H581.694V482.7H581.994V482.4H584.094V482.7H584.394V483H584.694V483.3H584.994V485.1H584.694V485.4H584.394V485.7H584.694V486H584.994V488.1ZM584.094 484.8V483.6H583.794V483.3H582.294V483.6H581.994V484.8H582.294V485.1H583.794V484.8H584.094ZM584.094 487.8V486.3H583.794V486H582.294V486.3H581.994V487.8H582.294V488.1H583.794V487.8H584.094ZM589.196 487.8H588.596V489H587.696V487.8H585.296V487.5V487.2H585.596V486.6H585.896V486H586.196V485.4H586.496V484.8H586.796V484.2H587.096V483.6H587.396V483H587.696V482.4H588.596V486.9H589.196V487.8ZM587.696 486.9V484.5H587.396V485.1H587.096V485.7H586.796V486.3H586.496V486.9H587.696ZM593.398 489H589.498V486.6H589.798V486.3H590.098V486H590.398V485.7H590.698V485.4H591.898V485.1H592.198V484.8H592.498V483.6H592.198V483.3H590.698V483.6H590.398V484.2H589.498V483.3H589.798V483H590.098V482.7H590.398V482.4H592.498V482.7H592.798V483H593.098V483.3H593.398V485.1H593.098V485.4H592.798V485.7H592.498V486H592.198V486.3H590.998V486.6H590.698V486.9H590.398V488.1H593.398V489ZM547.177 507.3H545.677V513H544.777V507.3H543.277V506.4H547.177V507.3ZM551.379 511.8H551.079V512.1H550.779V512.4H550.479V512.7H550.179V513H548.679V512.7H548.379V512.4H548.079V512.1H547.779V511.8H547.479V507.6H547.779V507.3H548.079V507H548.379V506.7H548.679V506.4H550.179V506.7H550.479V507H550.779V507.3H551.079V507.6H551.379V511.8ZM550.479 511.5V507.9H550.179V507.6H549.879V507.3H548.979V507.6H548.679V507.9H548.379V511.5H548.679V511.8H548.979V512.1H549.879V511.8H550.179V511.5H550.479ZM555.58 513H551.68V506.4H552.58V512.1H555.58V513ZM558.282 510.6H557.082V509.4H558.282V510.6ZM558.282 513H557.082V511.8H558.282V513ZM568.186 509.7H566.686V511.2H565.786V509.7H564.286V508.8H565.786V507.3H566.686V508.8H568.186V509.7ZM568.186 512.7H564.286V511.8H568.186V512.7ZM572.388 511.8H572.088V512.1H571.788V512.4H571.488V512.7H571.188V513H569.688V512.7H569.388V512.4H569.088V512.1H568.788V511.8H568.488V507.6H568.788V507.3H569.088V507H569.388V506.7H569.688V506.4H571.188V506.7H571.488V507H571.788V507.3H572.088V507.6H572.388V511.8ZM571.188 507.9V507.6V507.3H569.688V507.6H569.388V510.9H569.688V510.3H569.988V509.7H570.288V509.1H570.588V508.5H570.888V507.9H571.188ZM571.488 511.8V508.8H571.188V509.4H570.888V510H570.588V510.6H570.288V511.2H569.988V511.8H569.688V512.1H571.188V511.8H571.488ZM575.09 513H573.89V511.8H575.09V513ZM580.792 511.8H580.492V512.1H580.192V512.4H579.892V512.7H579.592V513H578.092V512.7H577.792V512.4H577.492V512.1H577.192V511.8H576.892V507.6H577.192V507.3H577.492V507H577.792V506.7H578.092V506.4H579.592V506.7H579.892V507H580.192V507.3H580.492V507.6H580.792V511.8ZM579.592 507.9V507.6V507.3H578.092V507.6H577.792V510.9H578.092V510.3H578.392V509.7H578.692V509.1H578.992V508.5H579.292V507.9H579.592ZM579.892 511.8V508.8H579.592V509.4H579.292V510H578.992V510.6H578.692V511.2H578.392V511.8H578.092V512.1H579.592V511.8H579.892ZM584.994 513H581.094V510.6H581.394V510.3H581.694V510H581.994V509.7H582.294V509.4H583.494V509.1H583.794V508.8H584.094V507.6H583.794V507.3H582.294V507.6H581.994V508.2H581.094V507.3H581.394V507H581.694V506.7H581.994V506.4H584.094V506.7H584.394V507H584.694V507.3H584.994V509.1H584.694V509.4H584.394V509.7H584.094V510H583.794V510.3H582.594V510.6H582.294V510.9H581.994V512.1H584.994V513ZM589.196 513H588.296V509.7H587.996V510.3H587.696V510.9H587.396V511.5H587.096V510.9H586.796V510.3H586.496V509.7H586.196V513H585.296V506.4H585.596V507H585.896V507.6H586.196V508.2H586.496V508.8H586.796V509.4H587.096V510H587.396V509.4H587.696V508.8H587.996V508.2H588.296V507.6H588.596V507H588.896V506.4H589.196V513ZM593.398 513H592.498V509.7H592.198V510.3H591.898V510.9H591.598V511.5H591.298V510.9H590.998V510.3H590.698V509.7H590.398V513H589.498V506.4H589.798V507H590.098V507.6H590.398V508.2H590.698V508.8H590.998V509.4H591.298V510H591.598V509.4H591.898V508.8H592.198V508.2H592.498V507.6H592.798V507H593.098V506.4H593.398V513ZM547.177 533.4H546.877V533.7H546.577V534H546.277V534.3H544.177V537H543.277V530.4H546.277V530.7H546.577V531H546.877V531.3H547.177V533.4ZM546.277 533.1V531.6H545.977V531.3H544.177V533.4H545.977V533.1H546.277ZM551.379 537H550.479V536.7H550.179V536.1H549.879V535.5H549.579V534.9H549.279V534.3H548.979V533.7H548.679V533.1H548.379V537H547.479V530.4H548.079V531H548.379V531.6H548.679V532.2H548.979V532.8H549.279V533.4H549.579V534H549.879V534.6H550.179V535.2H550.479V530.4H551.379V537ZM554.08 534.6H552.88V533.4H554.08V534.6ZM554.08 537H552.88V535.8H554.08V537ZM563.984 537H560.084V534.6H560.384V534.3H560.684V534H560.984V533.7H561.284V533.4H562.484V533.1H562.784V532.8H563.084V531.6H562.784V531.3H561.284V531.6H560.984V532.2H560.084V531.3H560.384V531H560.684V530.7H560.984V530.4H563.084V530.7H563.384V531H563.684V531.3H563.984V533.1H563.684V533.4H563.384V533.7H563.084V534H562.784V534.3H561.584V534.6H561.284V534.9H560.984V536.1H563.984V537ZM568.186 535.8H567.586V537H566.686V535.8H564.286V535.5V535.2H564.586V534.6H564.886V534H565.186V533.4H565.486V532.8H565.786V532.2H566.086V531.6H566.386V531H566.686V530.4H567.586V534.9H568.186V535.8ZM566.686 534.9V532.5H566.386V533.1H566.086V533.7H565.786V534.3H565.486V534.9H566.686ZM572.388 536.1H572.088V536.4H571.788V536.7H571.488V537H569.388V536.7H569.088V536.4H568.788V536.1H568.488V534H568.788V533.7H569.088V533.4H568.788V533.1H568.488V531.3H568.788V531H569.088V530.7H569.388V530.4H571.488V530.7H571.788V531H572.088V531.3H572.388V533.1H572.088V533.4H571.788V533.7H572.088V534H572.388V536.1ZM571.488 532.8V531.6H571.188V531.3H569.688V531.6H569.388V532.8H569.688V533.1H571.188V532.8H571.488ZM571.488 535.8V534.3H571.188V534H569.688V534.3H569.388V535.8H569.688V536.1H571.188V535.8H571.488ZM576.59 536.1H576.29V536.4H575.99V536.7H575.69V537H573.59V536.7H573.29V536.4H572.99V536.1H572.69V535.2H573.59V535.8H573.89V536.1H575.39V535.8H575.69V534.6H575.39V534.3H575.09V534H574.79V533.7H574.49V533.4H574.19V533.1H573.89V532.8H574.19V532.5H574.49V532.2H574.79V531.9H575.09V531.6H575.39V531.3H572.69V530.4H576.59V531.6H576.29V531.9H575.99V532.2H575.69V532.5H575.39V532.8H575.09V533.1H575.39V533.4H575.69V533.7H575.99V534H576.29V534.3H576.59V536.1ZM580.192 534.9H577.492V534H580.192V534.9ZM584.994 537H584.094V535.5H581.994V537H581.094V534.6V534.3V533.7H581.394V533.1H581.694V532.5H581.994V531.9H582.294V531.3H582.594V530.7H582.894V530.4H583.194V530.7H583.494V531.3H583.794V531.9H584.094V532.5H584.394V533.1H584.694V533.7H584.994V534.3V534.6V537ZM584.094 534.6V534.3V534H583.794V533.4H583.494V532.8H583.194V532.2H582.894V532.8H582.594V533.4H582.294V534H581.994V534.3V534.6H584.094ZM589.196 537H588.296V536.1H587.996V535.2H587.696V534.6H587.396V534.3H587.096V534.6H586.796V535.2H586.496V536.1H586.196V537H585.296V536.1H585.596V535.2H585.896V534.6H586.196V534H586.496V533.4H586.196V532.8H585.896V532.2H585.596V531.3H585.296V530.4H586.196V531.3H586.496V532.2H586.796V532.8H587.096V533.1H587.396V532.8H587.696V532.2H587.996V531.3H588.296V530.4H589.196V531.3H588.896V532.2H588.596V532.8H588.296V533.4H587.996V534H588.296V534.6H588.596V535.2H588.896V536.1H589.196V537ZM593.398 534H593.098V534.6H592.798V534.9H592.498V535.2H592.198V535.5H591.898V535.8H591.598V536.1H591.298V536.4H590.998V536.7H590.698V537H589.798V536.4H590.098V536.1H590.398V535.8H590.698V535.5H590.998V535.2H591.298V534.9H591.598V534.6H591.898V534.3H590.398V534H590.098V533.7H589.798V533.4H589.498V531.3H589.798V531H590.098V530.7H590.398V530.4H592.498V530.7H592.798V531H593.098V531.3H593.398V534ZM592.498 533.1V531.6H592.198V531.3H590.698V531.6H590.398V533.1H590.698V533.4H592.198V533.1H592.498ZM471.541 547.5H471.241V547.8H470.941V548.1H470.641V548.4H470.341V548.7H470.031V549H467.641V542.4H470.041V542.7H470.341V543H470.641V543.3H470.941V543.6H471.241V543.9H471.541V547.5ZM470.641 547.2V544.2H470.341V543.9H470.041V543.6H469.741V543.3H468.541V548.1H469.741V547.8H470.041V547.5H470.341V547.2H470.641ZM475.743 547.8H475.443V548.1H475.143V548.4H474.843V548.7H474.543V549H473.043V548.7H472.743V548.4H472.443V548.1H472.143V547.8H471.843V543.6H472.143V543.3H472.443V543H472.743V542.7H473.043V542.4H474.543V542.7H474.843V543H475.143V543.3H475.443V543.6H475.743V547.8ZM474.843 547.5V543.9H474.543V543.6H474.243V543.3H473.343V543.6H473.043V543.9H472.743V547.5H473.043V547.8H473.343V548.1H474.243V547.8H474.543V547.5H474.843ZM484.147 549H483.247V548.7H482.947V548.1H482.647V547.5H482.347V546.9H482.047V546.3H481.747V545.7H481.447V545.1H481.147V549H480.247V542.4H480.847V543H481.147V543.6H481.447V544.2H481.747V544.8H482.047V545.4H482.347V546H482.647V546.6H482.947V547.2H483.247V542.4H484.147V549ZM488.349 547.8H488.049V548.1H487.749V548.4H487.449V548.7H487.149V549H485.649V548.7H485.349V548.4H485.049V548.1H484.749V547.8H484.449V543.6H484.749V543.3H485.049V543H485.349V542.7H485.649V542.4H487.149V542.7H487.449V543H487.749V543.3H488.049V543.6H488.349V547.8ZM487.449 547.5V543.9H487.149V543.6H486.849V543.3H485.949V543.6H485.649V543.9H485.349V547.5H485.649V547.8H485.949V548.1H486.849V547.8H487.149V547.5H487.449ZM492.551 543.3H491.051V549H490.151V543.3H488.651V542.4H492.551V543.3ZM500.955 549H500.055V547.8H499.755V547.2H499.455V546.6H499.155V546H497.955V549H497.055V542.4H500.055V542.7H500.355V543H500.655V543.3H500.955V545.1H500.655V545.4H500.355V545.7H500.055V546.3H500.355V546.9H500.655V547.5H500.955V549ZM500.055 544.8V543.6H499.755V543.3H497.955V545.1H499.755V544.8H500.055ZM505.157 549H501.257V542.4H505.157V543.3H502.157V545.1H504.557V546H502.157V548.1H505.157V549ZM509.359 549H508.459V545.7H508.159V546.3H507.859V546.9H507.559V547.5H507.259V546.9H506.959V546.3H506.659V545.7H506.359V549H505.459V542.4H505.759V543H506.059V543.6H506.359V544.2H506.659V544.8H506.959V545.4H507.259V546H507.559V545.4H507.859V544.8H508.159V544.2H508.459V543.6H508.759V543H509.059V542.4H509.359V549ZM513.561 547.8H513.261V548.1H512.961V548.4H512.661V548.7H512.361V549H510.861V548.7H510.561V548.4H510.261V548.1H509.961V547.8H509.661V543.6H509.961V543.3H510.261V543H510.561V542.7H510.861V542.4H512.361V542.7H512.661V543H512.961V543.3H513.261V543.6H513.561V547.8ZM512.661 547.5V543.9H512.361V543.6H512.061V543.3H511.161V543.6H510.861V543.9H510.561V547.5H510.861V547.8H511.161V548.1H512.061V547.8H512.361V547.5H512.661ZM517.763 545.4H517.463V546H517.163V546.6H516.863V547.2H516.563V547.8H516.263V548.4H515.963V549H515.663V548.4H515.363V547.8H515.063V547.2H514.763V546.6H514.463V546H514.163V545.4H513.863V542.4H514.763V545.1H515.063V545.7H515.363V546.3H515.663V546.9H515.963V546.3H516.263V545.7H516.563V545.1H516.863V542.4H517.763V545.4ZM521.965 549H518.065V542.4H521.965V543.3H518.965V545.1H521.365V546H518.965V548.1H521.965V549ZM530.369 547.5H530.069V547.8H529.769V548.1H529.469V548.4H529.169V548.7H528.859V549H526.469V542.4H528.869V542.7H529.169V543H529.469V543.3H529.769V543.6H530.069V543.9H530.369V547.5ZM529.469 547.2V544.2H529.169V543.9H528.869V543.6H528.569V543.3H527.369V548.1H528.569V547.8H528.869V547.5H529.169V547.2H529.469ZM534.571 548.1H534.271V548.4H533.971V548.7H533.671V549H531.571V548.7H531.271V548.4H530.971V548.1H530.671V542.4H531.571V547.8H531.871V548.1H533.371V547.8H533.671V542.4H534.571V548.1ZM538.773 549H537.873V547.8H537.573V547.2H537.273V546.6H536.973V546H535.773V549H534.873V542.4H537.873V542.7H538.173V543H538.473V543.3H538.773V545.1H538.473V545.4H538.173V545.7H537.873V546.3H538.173V546.9H538.473V547.5H538.773V549ZM537.873 544.8V543.6H537.573V543.3H535.773V545.1H537.573V544.8H537.873ZM542.975 549H539.075V548.1H540.575V543.3H539.975V542.4H542.075V543.3H541.475V548.1H542.975V549ZM547.177 549H546.277V548.7H545.977V548.1H545.677V547.5H545.377V546.9H545.077V546.3H544.777V545.7H544.477V545.1H544.177V549H543.277V542.4H543.877V543H544.177V543.6H544.477V544.2H544.777V544.8H545.077V545.4H545.377V546H545.677V546.6H545.977V547.2H546.277V542.4H547.177V549ZM551.379 548.4H551.079V548.7H550.779V549H548.679V548.7H548.379V548.4H548.079V548.1H547.779V547.8H547.479V543.6H547.779V543.3H548.079V543H548.379V542.7H548.679V542.4H550.779V542.7H551.079V543H551.379V543.6H550.479V543.3H548.979V543.6H548.679V543.9H548.379V547.5H548.679V547.8H548.979V548.1H550.479V546.3H550.179V546.6H549.279V545.4H551.379V548.4ZM559.782 547.8H559.482V548.1H559.182V548.4H558.882V548.7H558.582V549H557.082V548.7H556.782V548.4H556.482V548.1H556.182V547.8H555.882V543.6H556.182V543.3H556.482V543H556.782V542.7H557.082V542.4H558.582V542.7H558.882V543H559.182V543.3H559.482V543.6H559.782V547.8ZM558.882 547.5V543.9H558.582V543.6H558.282V543.3H557.382V543.6H557.082V543.9H556.782V547.5H557.082V547.8H557.382V548.1H558.282V547.8H558.582V547.5H558.882ZM563.984 545.4H563.684V545.7H563.384V546H563.084V546.3H560.984V549H560.084V542.4H563.084V542.7H563.384V543H563.684V543.3H563.984V545.4ZM563.084 545.1V543.6H562.784V543.3H560.984V545.4H562.784V545.1H563.084ZM568.186 549H564.286V542.4H568.186V543.3H565.186V545.1H567.586V546H565.186V548.1H568.186V549ZM572.388 549H571.488V547.8H571.188V547.2H570.888V546.6H570.588V546H569.388V549H568.488V542.4H571.488V542.7H571.788V543H572.088V543.3H572.388V545.1H572.088V545.4H571.788V545.7H571.488V546.3H571.788V546.9H572.088V547.5H572.388V549ZM571.488 544.8V543.6H571.188V543.3H569.388V545.1H571.188V544.8H571.488ZM576.59 549H575.69V547.5H573.59V549H572.69V546.6V546.3V545.7H572.99V545.1H573.29V544.5H573.59V543.9H573.89V543.3H574.19V542.7H574.49V542.4H574.79V542.7H575.09V543.3H575.39V543.9H575.69V544.5H575.99V545.1H576.29V545.7H576.59V546.3V546.6V549ZM575.69 546.6V546.3V546H575.39V545.4H575.09V544.8H574.79V544.2H574.49V544.8H574.19V545.4H573.89V546H573.59V546.3V546.6H575.69ZM580.792 543.3H579.292V549H578.392V543.3H576.892V542.4H580.792V543.3ZM584.994 549H581.094V548.1H582.594V543.3H581.994V542.4H584.094V543.3H583.494V548.1H584.994V549ZM589.196 547.8H588.896V548.1H588.596V548.4H588.296V548.7H587.996V549H586.496V548.7H586.196V548.4H585.896V548.1H585.596V547.8H585.296V543.6H585.596V543.3H585.896V543H586.196V542.7H586.496V542.4H587.996V542.7H588.296V543H588.596V543.3H588.896V543.6H589.196V547.8ZM588.296 547.5V543.9H587.996V543.6H587.696V543.3H586.796V543.6H586.496V543.9H586.196V547.5H586.496V547.8H586.796V548.1H587.696V547.8H587.996V547.5H588.296ZM593.398 549H592.498V548.7H592.198V548.1H591.898V547.5H591.598V546.9H591.298V546.3H590.998V545.7H590.698V545.1H590.398V549H589.498V542.4H590.098V543H590.398V543.6H590.698V544.2H590.998V544.8H591.298V545.4H591.598V546H591.898V546.6H592.198V547.2H592.498V542.4H593.398V549Z" fill="#4B4B4B"/>
</g>
<rect x="34.5" y="121.5" width="576" height="446" stroke="#4B4B4B"/>
<path d="M803.191 345.5H737.809L770.5 280.118L803.191 345.5Z" stroke="#FF4000"/>
<path d="M803.191 279.5H737.809L770.5 344.882L803.191 279.5Z" stroke="#FF4000"/>
<circle cx="770.5" cy="312" r="9" stroke="#FF4000"/>
<defs>
<clipPath id="clip0_2685_16523">
<rect x="34" y="121" width="577" height="447" fill="white"/>
</clipPath>
</defs>
</svg>
