<svg width="1540" height="627" viewBox="0 0 1540 627" fill="none" xmlns="http://www.w3.org/2000/svg">
<path d="M851 626V623C851 611.954 859.954 603 871 603H1519C1530.05 603 1539 594.046 1539 583V43C1539 31.9543 1530.05 23 1519 23H871C859.954 23 851 14.0457 851 3V0M686 626V623C686 611.954 677.046 603 666 603H21C9.95431 603 1 594.046 1 583V43C1 31.9543 9.95431 23 21 23H666C677.046 23 686 14.0457 686 3V0" stroke="#FF4000" stroke-width="2"/>
<path d="M771 140H781V141H771V151H770V141H760V140H770V130H771V140Z" fill="#4B4B4B"/>
<path d="M771 485H781V486H771V496H770V486H760V485H770V475H771V485Z" fill="#4B4B4B"/>
<path d="M803.5 279.5V345.5H737.5V279.5H803.5Z" stroke="#FF4000"/>
<path d="M789.5 293.5V331.5H751.5V293.5H789.5Z" stroke="#FF4000"/>
<path d="M775.5 307.5V317.5H765.5V307.5H775.5Z" stroke="#FF4000"/>
<path d="M766 308L738 280" stroke="#FF4000"/>
<path d="M775 308L803 280" stroke="#FF4000"/>
<path d="M766 317L738 345" stroke="#FF4000"/>
<path d="M775 317L803 345" stroke="#FF4000"/>
<g clip-path="url(#clip0_2685_16365)">
<path d="M57.24 325H56.76V324.04H56.28V323.08H55.8V322.12H55.32V321.16H54.84V320.2H54.36V319.24H53.88V320.2H53.4V321.16H52.92V322.12H52.44V323.08H51.96V324.04H51.48V325H51V314.44H52.44V319.72H52.92V318.76H53.4V317.8H53.88V316.84H54.36V317.8H54.84V318.76H55.32V319.72H55.8V314.44H57.24V325ZM63.9631 325H57.7231V314.44H63.9631V315.88H59.1631V318.76H63.0031V320.2H59.1631V323.56H63.9631V325ZM70.6863 325H64.4462V314.44H70.6863V315.88H65.8863V318.76H69.7263V320.2H65.8863V323.56H70.6863V325ZM77.4094 325H75.9694V324.04H75.4894V323.08H75.0094V322.12H74.5294V321.16H74.0494V320.2H73.0894V320.68H72.6094V325H71.1694V314.44H72.6094V318.76H73.0894V318.28H73.5694V317.8H74.0494V317.32H74.5294V316.84H75.0094V316.36H75.4894V315.864H75.9694V315.4H76.4494V314.92H76.9294V314.44H77.4094V316.36H76.9294V316.84H76.4494V317.32H75.9694V317.784H75.4894V318.28H75.0094V318.76H74.5294V319.24H75.0094V319.72H75.4894V320.68H75.9694V321.64H76.4494V322.6H76.9294V323.56H77.4094V325ZM84.1325 325H77.8925V314.44H79.3325V323.56H84.1325V325ZM90.8556 315.88H90.3756V316.84H89.8956V317.8H89.4156V318.76H88.9356V319.72H88.4556V325H87.0156V319.72H86.5356V318.76H86.0556V317.8H85.5756V316.84H85.0956V315.88H84.6156V314.44H86.0556V315.4H86.5356V316.36H87.0156V317.32H87.4956V318.28H87.9756V317.32H88.4556V316.36H88.9356V315.4H89.4156V314.44H90.8556V315.88ZM104.302 323.56H103.822V324.04H103.342V324.52H102.862V325H99.9819V324.52H99.5019V324.04H99.0219V323.56H98.5419V323.08H98.0619V316.36H98.5419V315.88H99.0219V315.4H99.5019V314.92H99.9819V314.44H102.862V314.92H103.342V315.4H103.822V315.88H104.302V317.32H102.862V316.36H102.382V315.88H100.462V316.36H99.9819V316.84H99.5019V322.6H99.9819V323.08H100.462V323.56H102.382V323.08H102.862V322.12H104.302V323.56ZM111.025 325H109.585V320.2H106.225V325H104.785V314.44H106.225V318.76H109.585V314.44H111.025V325ZM117.748 325H111.508V314.44H117.748V315.88H112.948V318.76H116.788V320.2H112.948V323.56H117.748V325ZM124.471 323.56H123.991V324.04H123.511V324.52H123.031V325H120.151V324.52H119.671V324.04H119.191V323.56H118.711V323.08H118.231V316.36H118.711V315.88H119.191V315.4H119.671V314.92H120.151V314.44H123.031V314.92H123.511V315.4H123.991V315.88H124.471V317.32H123.031V316.36H122.551V315.88H120.631V316.36H120.151V316.84H119.671V322.6H120.151V323.08H120.631V323.56H122.551V323.08H123.031V322.12H124.471V323.56ZM131.194 325H129.754V324.04H129.274V323.08H128.794V322.12H128.314V321.16H127.834V320.2H126.874V320.68H126.394V325H124.954V314.44H126.394V318.76H126.874V318.28H127.354V317.8H127.834V317.32H128.314V316.84H128.794V316.36H129.274V315.864H129.754V315.4H130.234V314.92H130.714V314.44H131.194V316.36H130.714V316.84H130.234V317.32H129.754V317.784H129.274V318.28H128.794V318.76H128.314V319.24H128.794V319.72H129.274V320.68H129.754V321.64H130.234V322.6H130.714V323.56H131.194V325ZM136.957 321.64H132.637V320.2H136.957V321.64ZM144.641 325H138.401V323.56H140.801V315.88H139.841V314.44H143.201V315.88H142.241V323.56H144.641V325ZM151.364 325H149.924V324.52H149.444V323.56H148.964V322.6H148.484V321.64H148.004V320.68H147.524V319.72H147.044V318.76H146.564V325H145.124V314.44H146.084V315.4H146.564V316.36H147.044V317.32H147.524V318.28H148.004V319.24H148.484V320.2H148.964V321.16H149.444V322.12H149.924V314.44H151.364V325ZM158.087 323.56H157.607V324.04H157.127V324.52H156.647V325H153.287V324.52H152.807V324.04H152.327V323.56H151.847V322.12H153.287V323.08H153.767V323.56H156.167V323.08H156.647V320.68H156.167V320.2H153.287V319.72H152.807V319.24H152.327V318.76H151.847V315.88H152.327V315.4H152.807V314.92H153.287V314.44H156.647V314.92H157.127V315.4H157.607V315.88H158.087V317.32H156.647V316.36H156.167V315.88H153.767V316.36H153.287V318.28H153.767V318.76H156.647V319.24H157.127V319.72H157.607V320.2H158.087V323.56ZM171.533 323.08H171.053V323.56H170.573V324.04H170.093V324.52H169.613V325H167.213V324.52H166.733V324.04H166.253V323.56H165.773V323.08H165.293V316.36H165.773V315.88H166.253V315.4H166.733V314.92H167.213V314.44H169.613V314.92H170.093V315.4H170.573V315.88H171.053V316.36H171.533V323.08ZM170.093 322.6V316.84H169.613V316.36H169.133V315.88H167.693V316.36H167.213V316.84H166.733V322.6H167.213V323.08H167.693V323.56H169.133V323.08H169.613V322.6H170.093ZM178.256 325H176.816V323.08H176.336V322.12H175.856V321.16H175.376V320.2H173.456V325H172.016V314.44H176.816V314.92H177.296V315.4H177.776V315.88H178.256V318.76H177.776V319.24H177.296V319.72H176.816V320.68H177.296V321.64H177.776V322.6H178.256V325ZM176.816 318.28V316.36H176.336V315.88H173.456V318.76H176.336V318.28H176.816ZM191.702 325H190.262V322.6H186.902V325H185.462V321.16V320.68V319.72H185.942V318.76H186.422V317.8H186.902V316.84H187.382V315.88H187.862V314.92H188.342V314.44H188.822V314.92H189.302V315.88H189.782V316.84H190.262V317.8H190.742V318.76H191.222V319.72H191.702V320.68V321.16V325ZM190.262 321.16V320.68V320.2H189.782V319.24H189.302V318.28H188.822V317.32H188.342V318.28H187.862V319.24H187.382V320.2H186.902V320.68V321.16H190.262ZM198.426 323.56H197.946V324.04H197.466V324.52H196.986V325H193.626V324.52H193.146V324.04H192.666V323.56H192.186V322.12H193.626V323.08H194.106V323.56H196.506V323.08H196.986V320.68H196.506V320.2H193.626V319.72H193.146V319.24H192.666V318.76H192.186V315.88H192.666V315.4H193.146V314.92H193.626V314.44H196.986V314.92H197.466V315.4H197.946V315.88H198.426V317.32H196.986V316.36H196.506V315.88H194.106V316.36H193.626V318.28H194.106V318.76H196.986V319.24H197.466V319.72H197.946V320.2H198.426V323.56ZM205.149 315.88H204.669V316.84H204.189V317.8H203.709V318.76H203.229V319.72H202.749V325H201.309V319.72H200.829V318.76H200.349V317.8H199.869V316.84H199.389V315.88H198.909V314.44H200.349V315.4H200.829V316.36H201.309V317.32H201.789V318.28H202.269V317.32H202.749V316.36H203.229V315.4H203.709V314.44H205.149V315.88ZM211.872 325H210.432V324.52H209.952V323.56H209.472V322.6H208.992V321.64H208.512V320.68H208.032V319.72H207.552V318.76H207.072V325H205.632V314.44H206.592V315.4H207.072V316.36H207.552V317.32H208.032V318.28H208.512V319.24H208.992V320.2H209.472V321.16H209.952V322.12H210.432V314.44H211.872V325ZM218.595 323.56H218.115V324.04H217.635V324.52H217.155V325H214.275V324.52H213.795V324.04H213.315V323.56H212.835V323.08H212.355V316.36H212.835V315.88H213.315V315.4H213.795V314.92H214.275V314.44H217.155V314.92H217.635V315.4H218.115V315.88H218.595V317.32H217.155V316.36H216.675V315.88H214.755V316.36H214.275V316.84H213.795V322.6H214.275V323.08H214.755V323.56H216.675V323.08H217.155V322.12H218.595V323.56ZM57.24 342.56H56.76V343.04H56.28V343.52H55.8V344H52.44V343.52H51.96V343.04H51.48V342.56H51V333.44H52.44V342.08H52.92V342.56H55.32V342.08H55.8V333.44H57.24V342.56ZM63.9631 338.24H63.4831V338.72H63.0031V339.2H62.5231V339.68H59.1631V344H57.7231V333.44H62.5231V333.92H63.0031V334.4H63.4831V334.88H63.9631V338.24ZM62.5231 337.76V335.36H62.0431V334.88H59.1631V338.24H62.0431V337.76H62.5231ZM70.6863 341.6H70.2063V342.08H69.7263V342.56H69.2463V343.04H68.7663V343.52H68.2703V344H64.4462V333.44H68.2863V333.92H68.7663V334.4H69.2463V334.88H69.7263V335.36H70.2063V335.84H70.6863V341.6ZM69.2463 341.12V336.32H68.7663V335.84H68.2863V335.36H67.8063V334.88H65.8863V342.56H67.8063V342.08H68.2863V341.6H68.7663V341.12H69.2463ZM77.4094 344H75.9694V341.6H72.6094V344H71.1694V340.16V339.68V338.72H71.6494V337.76H72.1294V336.8H72.6094V335.84H73.0894V334.88H73.5694V333.92H74.0494V333.44H74.5294V333.92H75.0094V334.88H75.4894V335.84H75.9694V336.8H76.4494V337.76H76.9294V338.72H77.4094V339.68V340.16V344ZM75.9694 340.16V339.68V339.2H75.4894V338.24H75.0094V337.28H74.5294V336.32H74.0494V337.28H73.5694V338.24H73.0894V339.2H72.6094V339.68V340.16H75.9694ZM84.1325 334.88H81.7325V344H80.2925V334.88H77.8925V333.44H84.1325V334.88ZM90.8556 344H84.6156V333.44H90.8556V334.88H86.0556V337.76H89.8956V339.2H86.0556V342.56H90.8556V344ZM97.5787 342.56H97.0987V343.04H96.6187V343.52H96.1387V344H92.7787V343.52H92.2987V343.04H91.8187V342.56H91.3387V341.12H92.7787V342.08H93.2587V342.56H95.6587V342.08H96.1387V339.68H95.6587V339.2H92.7787V338.72H92.2987V338.24H91.8187V337.76H91.3387V334.88H91.8187V334.4H92.2987V333.92H92.7787V333.44H96.1387V333.92H96.6187V334.4H97.0987V334.88H97.5787V336.32H96.1387V335.36H95.6587V334.88H93.2587V335.36H92.7787V337.28H93.2587V337.76H96.1387V338.24H96.6187V338.72H97.0987V339.2H97.5787V342.56ZM110.065 344H107.665V343.52H107.185V343.04H106.705V342.08H106.225V335.36H106.705V334.4H107.185V333.92H107.665V333.44H110.065V334.4H108.145V334.88H107.665V342.56H108.145V343.04H110.065V344ZM117.748 334.88H117.268V335.84H116.788V336.8H116.308V337.76H115.828V338.72H115.348V344H113.908V338.72H113.428V337.76H112.948V336.8H112.468V335.84H111.988V334.88H111.508V333.44H112.948V334.4H113.428V335.36H113.908V336.32H114.388V337.28H114.868V336.32H115.348V335.36H115.828V334.4H116.308V333.44H117.748V334.88ZM124.471 342.08H123.991V342.56H123.511V343.04H123.031V343.52H122.551V344H120.151V343.52H119.671V343.04H119.191V342.56H118.711V342.08H118.231V335.36H118.711V334.88H119.191V334.4H119.671V333.92H120.151V333.44H122.551V333.92H123.031V334.4H123.511V334.88H123.991V335.36H124.471V342.08ZM123.031 341.6V335.84H122.551V335.36H122.071V334.88H120.631V335.36H120.151V335.84H119.671V341.6H120.151V342.08H120.631V342.56H122.071V342.08H122.551V341.6H123.031ZM131.194 342.56H130.714V343.04H130.234V343.52H129.754V344H126.394V343.52H125.914V343.04H125.434V342.56H124.954V333.44H126.394V342.08H126.874V342.56H129.274V342.08H129.754V333.44H131.194V342.56ZM137.917 344H136.477V342.08H135.997V341.12H135.517V340.16H135.037V339.2H133.117V344H131.677V333.44H136.477V333.92H136.957V334.4H137.437V334.88H137.917V337.76H137.437V338.24H136.957V338.72H136.477V339.68H136.957V340.64H137.437V341.6H137.917V344ZM136.477 337.28V335.36H135.997V334.88H133.117V337.76H135.997V337.28H136.477ZM151.364 342.56H150.884V343.04H150.404V343.52H149.924V344H147.044V343.52H146.564V343.04H146.084V342.56H145.604V342.08H145.124V335.36H145.604V334.88H146.084V334.4H146.564V333.92H147.044V333.44H149.924V333.92H150.404V334.4H150.884V334.88H151.364V336.32H149.924V335.36H149.444V334.88H147.524V335.36H147.044V335.84H146.564V341.6H147.044V342.08H147.524V342.56H149.444V342.08H149.924V341.12H151.364V342.56ZM158.087 344H156.647V341.6H153.287V344H151.847V340.16V339.68V338.72H152.327V337.76H152.807V336.8H153.287V335.84H153.767V334.88H154.247V333.92H154.727V333.44H155.207V333.92H155.687V334.88H156.167V335.84H156.647V336.8H157.127V337.76H157.607V338.72H158.087V339.68V340.16V344ZM156.647 340.16V339.68V339.2H156.167V338.24H155.687V337.28H155.207V336.32H154.727V337.28H154.247V338.24H153.767V339.2H153.287V339.68V340.16H156.647ZM164.81 344H158.57V333.44H160.01V342.56H164.81V344ZM171.533 344H165.293V333.44H166.733V342.56H171.533V344ZM176.816 342.08H176.336V343.04H175.856V343.52H175.376V344H172.976V343.04H174.896V342.56H175.376V334.88H174.896V334.4H172.976V333.44H175.376V333.92H175.856V334.4H176.336V335.36H176.816V342.08Z" fill="#D9D9D9"/>
<path d="M57.24 272H51V270.56H53.4V262.88H52.44V261.44H55.8V262.88H54.84V270.56H57.24V272ZM63.9631 269.6H63.4831V270.08H63.0031V270.56H62.5231V271.04H62.0431V271.52H61.5471V272H57.7231V261.44H61.5631V261.92H62.0431V262.4H62.5231V262.88H63.0031V263.36H63.4831V263.84H63.9631V269.6ZM62.5231 269.12V264.32H62.0431V263.84H61.5631V263.36H61.0831V262.88H59.1631V270.56H61.0831V270.08H61.5631V269.6H62.0431V269.12H62.5231ZM68.2863 272H66.3663V270.08H68.2863V272ZM77.4094 270.56H76.9294V271.04H76.4494V271.52H75.9694V272H72.6094V271.52H72.1294V271.04H71.6494V270.56H71.1694V269.12H72.6094V270.08H73.0894V270.56H75.4894V270.08H75.9694V268.16H75.4894V267.68H75.0094V267.2H74.5294V266.72H74.0494V266.24H73.5694V265.76H73.0894V265.28H73.5694V264.8H74.0494V264.32H74.5294V263.84H75.0094V263.36H75.4894V262.88H71.1694V261.44H77.4094V263.36H76.9294V263.84H76.4494V264.32H75.9694V264.8H75.4894V265.28H75.0094V265.76H75.4894V266.24H75.9694V266.72H76.4494V267.2H76.9294V267.68H77.4094V270.56ZM81.7325 272H79.8125V270.08H81.7325V272ZM90.8556 270.08H90.3756V270.56H89.8956V271.04H89.4156V271.52H88.9356V272H86.5356V271.52H86.0556V271.04H85.5756V270.56H85.0956V270.08H84.6156V263.36H85.0956V262.88H85.5756V262.4H86.0556V261.92H86.5356V261.44H88.9356V261.92H89.4156V262.4H89.8956V262.88H90.3756V263.36H90.8556V270.08ZM88.9356 263.84V263.36V262.88H86.5356V263.36H86.0556V268.64H86.5356V267.68H87.0156V266.72H87.4956V265.76H87.9756V264.8H88.4556V263.84H88.9356ZM89.4156 270.08V265.28H88.9356V266.24H88.4556V267.2H87.9756V268.16H87.4956V269.12H87.0156V270.08H86.5356V270.56H88.9356V270.08H89.4156ZM97.5787 270.08H97.0987V270.56H96.6187V271.04H96.1387V271.52H95.6587V272H93.2587V271.52H92.7787V271.04H92.2987V270.56H91.8187V270.08H91.3387V263.36H91.8187V262.88H92.2987V262.4H92.7787V261.92H93.2587V261.44H95.6587V261.92H96.1387V262.4H96.6187V262.88H97.0987V263.36H97.5787V270.08ZM95.6587 263.84V263.36V262.88H93.2587V263.36H92.7787V268.64H93.2587V267.68H93.7387V266.72H94.2187V265.76H94.6987V264.8H95.1787V263.84H95.6587ZM96.1387 270.08V265.28H95.6587V266.24H95.1787V267.2H94.6987V268.16H94.2187V269.12H93.7387V270.08H93.2587V270.56H95.6587V270.08H96.1387ZM104.302 272H98.0619V270.56H100.462V262.88H99.0219V261.44H101.902V270.56H104.302V272Z" fill="#4B4B4B"/>
<rect x="34" y="244" width="6" height="6" fill="#4B4B4B"/>
<rect x="218" y="265" width="4" height="4" fill="#4B4B4B"/>
<rect x="226" y="261" width="4" height="4" fill="#4B4B4B"/>
<rect x="222" y="265" width="4" height="4" fill="#4B4B4B"/>
<rect x="226" y="269" width="4" height="4" fill="#4B4B4B"/>
<rect x="218" y="269" width="4" height="4" fill="#4B4B4B"/>
<rect x="241" y="244" width="6" height="6" fill="#4B4B4B"/>
<rect x="34" y="358" width="6" height="6" fill="#4B4B4B"/>
<rect x="241" y="358" width="6" height="6" fill="#4B4B4B"/>
</g>
<rect x="34.5" y="244.5" width="212" height="119" stroke="#4B4B4B"/>
<g clip-path="url(#clip1_2685_16365)">
<path d="M284.24 325H282.8V323.08H282.32V322.12H281.84V321.16H281.36V320.2H279.44V325H278V314.44H282.8V314.92H283.28V315.4H283.76V315.88H284.24V318.76H283.76V319.24H283.28V319.72H282.8V320.68H283.28V321.64H283.76V322.6H284.24V325ZM282.8 318.28V316.36H282.32V315.88H279.44V318.76H282.32V318.28H282.8ZM290.963 325H284.723V314.44H290.963V315.88H286.163V318.76H290.003V320.2H286.163V323.56H290.963V325ZM297.686 325H296.246V322.6H292.886V325H291.446V321.16V320.68V319.72H291.926V318.76H292.406V317.8H292.886V316.84H293.366V315.88H293.846V314.92H294.326V314.44H294.806V314.92H295.286V315.88H295.766V316.84H296.246V317.8H296.726V318.76H297.206V319.72H297.686V320.68V321.16V325ZM296.246 321.16V320.68V320.2H295.766V319.24H295.286V318.28H294.806V317.32H294.326V318.28H293.846V319.24H293.366V320.2H292.886V320.68V321.16H296.246ZM304.409 325H298.169V314.44H299.609V323.56H304.409V325ZM317.856 323.56H317.376V324.04H316.896V324.52H316.416V325H313.536V324.52H313.056V324.04H312.576V323.56H312.096V323.08H311.616V316.36H312.096V315.88H312.576V315.4H313.056V314.92H313.536V314.44H316.416V314.92H316.896V315.4H317.376V315.88H317.856V317.32H316.416V316.36H315.936V315.88H314.016V316.36H313.536V316.84H313.056V322.6H313.536V323.08H314.016V323.56H315.936V323.08H316.416V322.12H317.856V323.56ZM324.579 323.08H324.099V323.56H323.619V324.04H323.139V324.52H322.659V325H320.259V324.52H319.779V324.04H319.299V323.56H318.819V323.08H318.339V316.36H318.819V315.88H319.299V315.4H319.779V314.92H320.259V314.44H322.659V314.92H323.139V315.4H323.619V315.88H324.099V316.36H324.579V323.08ZM323.139 322.6V316.84H322.659V316.36H322.179V315.88H320.739V316.36H320.259V316.84H319.779V322.6H320.259V323.08H320.739V323.56H322.179V323.08H322.659V322.6H323.139ZM331.302 322.6H330.822V323.08H330.342V323.56H329.862V324.04H329.382V324.52H328.886V325H325.062V314.44H328.902V314.92H329.382V315.4H329.862V315.88H330.342V316.36H330.822V316.84H331.302V322.6ZM329.862 322.12V317.32H329.382V316.84H328.902V316.36H328.422V315.88H326.502V323.56H328.422V323.08H328.902V322.6H329.382V322.12H329.862ZM338.025 325H331.785V314.44H338.025V315.88H333.225V318.76H337.065V320.2H333.225V323.56H338.025V325ZM351.471 325H345.231V323.56H347.631V315.88H346.671V314.44H350.031V315.88H349.071V323.56H351.471V325ZM358.194 325H356.754V324.52H356.274V323.56H355.794V322.6H355.314V321.64H354.834V320.68H354.354V319.72H353.874V318.76H353.394V325H351.954V314.44H352.914V315.4H353.394V316.36H353.874V317.32H354.354V318.28H354.834V319.24H355.314V320.2H355.794V321.16H356.274V322.12H356.754V314.44H358.194V325ZM371.641 323.56H371.161V324.04H370.681V324.52H370.201V325H366.841V324.52H366.361V324.04H365.881V323.56H365.401V322.12H366.841V323.08H367.321V323.56H369.721V323.08H370.201V320.68H369.721V320.2H366.841V319.72H366.361V319.24H365.881V318.76H365.401V315.88H365.881V315.4H366.361V314.92H366.841V314.44H370.201V314.92H370.681V315.4H371.161V315.88H371.641V317.32H370.201V316.36H369.721V315.88H367.321V316.36H366.841V318.28H367.321V318.76H370.201V319.24H370.681V319.72H371.161V320.2H371.641V323.56ZM378.364 315.88H375.964V325H374.524V315.88H372.124V314.44H378.364V315.88ZM385.087 325H383.647V322.6H380.287V325H378.847V321.16V320.68V319.72H379.327V318.76H379.807V317.8H380.287V316.84H380.767V315.88H381.247V314.92H381.727V314.44H382.207V314.92H382.687V315.88H383.167V316.84H383.647V317.8H384.127V318.76H384.607V319.72H385.087V320.68V321.16V325ZM383.647 321.16V320.68V320.2H383.167V319.24H382.687V318.28H382.207V317.32H381.727V318.28H381.247V319.24H380.767V320.2H380.287V320.68V321.16H383.647ZM391.81 324.04H391.33V324.52H390.85V325H387.49V324.52H387.01V324.04H386.53V323.56H386.05V323.08H385.57V316.36H386.05V315.88H386.53V315.4H387.01V314.92H387.49V314.44H390.85V314.92H391.33V315.4H391.81V316.36H390.37V315.88H387.97V316.36H387.49V316.84H387.01V322.6H387.49V323.08H387.97V323.56H390.37V320.68H389.89V321.16H388.45V319.24H391.81V324.04ZM398.533 325H392.293V323.56H394.693V315.88H393.733V314.44H397.093V315.88H396.133V323.56H398.533V325ZM405.256 325H403.816V324.52H403.336V323.56H402.856V322.6H402.376V321.64H401.896V320.68H401.416V319.72H400.936V318.76H400.456V325H399.016V314.44H399.976V315.4H400.456V316.36H400.936V317.32H401.416V318.28H401.896V319.24H402.376V320.2H402.856V321.16H403.336V322.12H403.816V314.44H405.256V325ZM411.979 324.04H411.499V324.52H411.019V325H407.659V324.52H407.179V324.04H406.699V323.56H406.219V323.08H405.739V316.36H406.219V315.88H406.699V315.4H407.179V314.92H407.659V314.44H411.019V314.92H411.499V315.4H411.979V316.36H410.539V315.88H408.139V316.36H407.659V316.84H407.179V322.6H407.659V323.08H408.139V323.56H410.539V320.68H410.059V321.16H408.619V319.24H411.979V324.04ZM425.426 315.88H420.626V318.76H423.986V320.2H420.626V325H419.186V314.44H425.426V315.88ZM432.149 325H430.709V322.6H427.349V325H425.909V321.16V320.68V319.72H426.389V318.76H426.869V317.8H427.349V316.84H427.829V315.88H428.309V314.92H428.789V314.44H429.269V314.92H429.749V315.88H430.229V316.84H430.709V317.8H431.189V318.76H431.669V319.72H432.149V320.68V321.16V325ZM430.709 321.16V320.68V320.2H430.229V319.24H429.749V318.28H429.269V317.32H428.789V318.28H428.309V319.24H427.829V320.2H427.349V320.68V321.16H430.709ZM438.872 323.56H438.392V324.04H437.912V324.52H437.432V325H434.072V324.52H433.592V324.04H433.112V323.56H432.632V322.12H434.072V323.08H434.552V323.56H436.952V323.08H437.432V320.68H436.952V320.2H434.072V319.72H433.592V319.24H433.112V318.76H432.632V315.88H433.112V315.4H433.592V314.92H434.072V314.44H437.432V314.92H437.912V315.4H438.392V315.88H438.872V317.32H437.432V316.36H436.952V315.88H434.552V316.36H434.072V318.28H434.552V318.76H437.432V319.24H437.912V319.72H438.392V320.2H438.872V323.56ZM445.595 315.88H443.195V325H441.755V315.88H439.355V314.44H445.595V315.88ZM284.24 340.64H278V339.2H284.24V340.64ZM297.686 344H296.246V343.52H295.766V342.56H295.286V341.6H294.806V340.64H294.326V339.68H293.846V338.72H293.366V337.76H292.886V344H291.446V333.44H292.406V334.4H292.886V335.36H293.366V336.32H293.846V337.28H294.326V338.24H294.806V339.2H295.286V340.16H295.766V341.12H296.246V333.44H297.686V344ZM304.409 342.08H303.929V342.56H303.449V343.04H302.969V343.52H302.489V344H300.089V343.52H299.609V343.04H299.129V342.56H298.649V342.08H298.169V335.36H298.649V334.88H299.129V334.4H299.609V333.92H300.089V333.44H302.489V333.92H302.969V334.4H303.449V334.88H303.929V335.36H304.409V342.08ZM302.969 341.6V335.84H302.489V335.36H302.009V334.88H300.569V335.36H300.089V335.84H299.609V341.6H300.089V342.08H300.569V342.56H302.009V342.08H302.489V341.6H302.969ZM317.856 344H311.616V333.44H313.056V342.56H317.856V344ZM324.579 342.08H324.099V342.56H323.619V343.04H323.139V343.52H322.659V344H320.259V343.52H319.779V343.04H319.299V342.56H318.819V342.08H318.339V335.36H318.819V334.88H319.299V334.4H319.779V333.92H320.259V333.44H322.659V333.92H323.139V334.4H323.619V334.88H324.099V335.36H324.579V342.08ZM323.139 341.6V335.84H322.659V335.36H322.179V334.88H320.739V335.36H320.259V335.84H319.779V341.6H320.259V342.08H320.739V342.56H322.179V342.08H322.659V341.6H323.139ZM331.302 344H329.862V343.52H329.382V342.56H328.902V341.6H328.422V340.64H327.942V339.68H327.462V338.72H326.982V337.76H326.502V344H325.062V333.44H326.022V334.4H326.502V335.36H326.982V336.32H327.462V337.28H327.942V338.24H328.422V339.2H328.902V340.16H329.382V341.12H329.862V333.44H331.302V344ZM338.025 343.04H337.545V343.52H337.065V344H333.705V343.52H333.225V343.04H332.745V342.56H332.265V342.08H331.785V335.36H332.265V334.88H332.745V334.4H333.225V333.92H333.705V333.44H337.065V333.92H337.545V334.4H338.025V335.36H336.585V334.88H334.185V335.36H333.705V335.84H333.225V341.6H333.705V342.08H334.185V342.56H336.585V339.68H336.105V340.16H334.665V338.24H338.025V343.04ZM351.471 342.56H350.991V343.04H350.511V343.52H350.031V344H346.671V343.52H346.191V343.04H345.711V342.56H345.231V341.12H346.671V342.08H347.151V342.56H349.551V342.08H350.031V339.68H349.551V339.2H346.671V338.72H346.191V338.24H345.711V337.76H345.231V334.88H345.711V334.4H346.191V333.92H346.671V333.44H350.031V333.92H350.511V334.4H350.991V334.88H351.471V336.32H350.031V335.36H349.551V334.88H347.151V335.36H346.671V337.28H347.151V337.76H350.031V338.24H350.511V338.72H350.991V339.2H351.471V342.56ZM358.194 344H351.954V342.56H354.354V334.88H353.394V333.44H356.754V334.88H355.794V342.56H358.194V344ZM364.917 344H358.677V333.44H360.117V342.56H364.917V344ZM371.641 344H365.401V333.44H371.641V334.88H366.841V337.76H370.681V339.2H366.841V342.56H371.641V344ZM378.364 344H376.924V343.52H376.444V342.56H375.964V341.6H375.484V340.64H375.004V339.68H374.524V338.72H374.044V337.76H373.564V344H372.124V333.44H373.084V334.4H373.564V335.36H374.044V336.32H374.524V337.28H375.004V338.24H375.484V339.2H375.964V340.16H376.444V341.12H376.924V333.44H378.364V344ZM385.087 342.56H384.607V343.04H384.127V343.52H383.647V344H380.767V343.52H380.287V343.04H379.807V342.56H379.327V342.08H378.847V335.36H379.327V334.88H379.807V334.4H380.287V333.92H380.767V333.44H383.647V333.92H384.127V334.4H384.607V334.88H385.087V336.32H383.647V335.36H383.167V334.88H381.247V335.36H380.767V335.84H380.287V341.6H380.767V342.08H381.247V342.56H383.167V342.08H383.647V341.12H385.087V342.56ZM391.81 344H385.57V333.44H391.81V334.88H387.01V337.76H390.85V339.2H387.01V342.56H391.81V344ZM398.533 342.56H398.053V343.04H397.573V343.52H397.093V344H393.733V343.52H393.253V343.04H392.773V342.56H392.293V341.12H393.733V342.08H394.213V342.56H396.613V342.08H397.093V339.68H396.613V339.2H393.733V338.72H393.253V338.24H392.773V337.76H392.293V334.88H392.773V334.4H393.253V333.92H393.733V333.44H397.093V333.92H397.573V334.4H398.053V334.88H398.533V336.32H397.093V335.36H396.613V334.88H394.213V335.36H393.733V337.28H394.213V337.76H397.093V338.24H397.573V338.72H398.053V339.2H398.533V342.56Z" fill="#D9D9D9"/>
<path d="M284.24 272H278V270.56H280.4V262.88H279.44V261.44H282.8V262.88H281.84V270.56H284.24V272ZM290.963 269.6H290.483V270.08H290.003V270.56H289.523V271.04H289.043V271.52H288.547V272H284.723V261.44H288.563V261.92H289.043V262.4H289.523V262.88H290.003V263.36H290.483V263.84H290.963V269.6ZM289.523 269.12V264.32H289.043V263.84H288.563V263.36H288.083V262.88H286.163V270.56H288.083V270.08H288.563V269.6H289.043V269.12H289.523ZM295.286 272H293.366V270.08H295.286V272ZM304.409 270.56H303.929V271.04H303.449V271.52H302.969V272H299.609V271.52H299.129V271.04H298.649V270.56H298.169V269.12H299.609V270.08H300.089V270.56H302.489V270.08H302.969V268.16H302.489V267.68H302.009V267.2H301.529V266.72H301.049V266.24H300.569V265.76H300.089V265.28H300.569V264.8H301.049V264.32H301.529V263.84H302.009V263.36H302.489V262.88H298.169V261.44H304.409V263.36H303.929V263.84H303.449V264.32H302.969V264.8H302.489V265.28H302.009V265.76H302.489V266.24H302.969V266.72H303.449V267.2H303.929V267.68H304.409V270.56ZM308.733 272H306.812V270.08H308.733V272ZM317.856 270.08H317.376V270.56H316.896V271.04H316.416V271.52H315.936V272H313.536V271.52H313.056V271.04H312.576V270.56H312.096V270.08H311.616V263.36H312.096V262.88H312.576V262.4H313.056V261.92H313.536V261.44H315.936V261.92H316.416V262.4H316.896V262.88H317.376V263.36H317.856V270.08ZM315.936 263.84V263.36V262.88H313.536V263.36H313.056V268.64H313.536V267.68H314.016V266.72H314.496V265.76H314.976V264.8H315.456V263.84H315.936ZM316.416 270.08V265.28H315.936V266.24H315.456V267.2H314.976V268.16H314.496V269.12H314.016V270.08H313.536V270.56H315.936V270.08H316.416ZM324.579 270.08H324.099V270.56H323.619V271.04H323.139V271.52H322.659V272H320.259V271.52H319.779V271.04H319.299V270.56H318.819V270.08H318.339V263.36H318.819V262.88H319.299V262.4H319.779V261.92H320.259V261.44H322.659V261.92H323.139V262.4H323.619V262.88H324.099V263.36H324.579V270.08ZM322.659 263.84V263.36V262.88H320.259V263.36H319.779V268.64H320.259V267.68H320.739V266.72H321.219V265.76H321.699V264.8H322.179V263.84H322.659ZM323.139 270.08V265.28H322.659V266.24H322.179V267.2H321.699V268.16H321.219V269.12H320.739V270.08H320.259V270.56H322.659V270.08H323.139ZM331.302 272H325.062V268.16H325.542V267.68H326.022V267.2H326.502V266.72H326.982V266.24H328.902V265.76H329.382V265.28H329.862V263.36H329.382V262.88H326.982V263.36H326.502V264.32H325.062V262.88H325.542V262.4H326.022V261.92H326.502V261.44H329.862V261.92H330.342V262.4H330.822V262.88H331.302V265.76H330.822V266.24H330.342V266.72H329.862V267.2H329.382V267.68H327.462V268.16H326.982V268.64H326.502V270.56H331.302V272Z" fill="#4B4B4B"/>
<rect x="261" y="244" width="6" height="6" fill="#4B4B4B"/>
<rect x="445" y="261" width="4" height="4" fill="#4B4B4B"/>
<rect x="453" y="265" width="4" height="4" fill="#4B4B4B"/>
<rect x="449" y="261" width="4" height="4" fill="#4B4B4B"/>
<rect x="445" y="265" width="4" height="4" fill="#4B4B4B"/>
<rect x="449" y="269" width="4" height="4" fill="#4B4B4B"/>
<rect x="468" y="244" width="6" height="6" fill="#4B4B4B"/>
<rect x="261" y="358" width="6" height="6" fill="#4B4B4B"/>
<rect x="468" y="358" width="6" height="6" fill="#4B4B4B"/>
</g>
<rect x="261.5" y="244.5" width="212" height="119" stroke="#4B4B4B"/>
<g clip-path="url(#clip2_2685_16365)">
<path d="M57.24 449.88H52.44V452.76H55.8V454.2H52.44V459H51V448.44H57.24V449.88ZM63.9631 459H62.5231V456.6H59.1631V459H57.7231V455.16V454.68V453.72H58.2031V452.76H58.6831V451.8H59.1631V450.84H59.6431V449.88H60.1231V448.92H60.6031V448.44H61.0831V448.92H61.5631V449.88H62.0431V450.84H62.5231V451.8H63.0031V452.76H63.4831V453.72H63.9631V454.68V455.16V459ZM62.5231 455.16V454.68V454.2H62.0431V453.24H61.5631V452.28H61.0831V451.32H60.6031V452.28H60.1231V453.24H59.6431V454.2H59.1631V454.68V455.16H62.5231ZM70.6863 457.56H70.2063V458.04H69.7263V458.52H69.2463V459H65.8863V458.52H65.4062V458.04H64.9262V457.56H64.4462V456.12H65.8863V457.08H66.3663V457.56H68.7663V457.08H69.2463V454.68H68.7663V454.2H65.8863V453.72H65.4062V453.24H64.9262V452.76H64.4462V449.88H64.9262V449.4H65.4062V448.92H65.8863V448.44H69.2463V448.92H69.7263V449.4H70.2063V449.88H70.6863V451.32H69.2463V450.36H68.7663V449.88H66.3663V450.36H65.8863V452.28H66.3663V452.76H69.2463V453.24H69.7263V453.72H70.2063V454.2H70.6863V457.56ZM77.4094 449.88H75.0094V459H73.5694V449.88H71.1694V448.44H77.4094V449.88ZM90.8556 449.88H86.0556V452.76H89.4156V454.2H86.0556V459H84.6156V448.44H90.8556V449.88ZM97.5787 459H91.3387V448.44H97.5787V449.88H92.7787V452.76H96.6187V454.2H92.7787V457.56H97.5787V459ZM104.302 459H98.0619V448.44H104.302V449.88H99.5019V452.76H103.342V454.2H99.5019V457.56H104.302V459ZM111.025 456.6H110.545V457.08H110.065V457.56H109.585V458.04H109.105V458.52H108.609V459H104.785V448.44H108.625V448.92H109.105V449.4H109.585V449.88H110.065V450.36H110.545V450.84H111.025V456.6ZM109.585 456.12V451.32H109.105V450.84H108.625V450.36H108.145V449.88H106.225V457.56H108.145V457.08H108.625V456.6H109.105V456.12H109.585ZM117.748 457.56H117.268V458.04H116.788V458.52H116.308V459H111.508V448.44H116.308V448.92H116.788V449.4H117.268V449.88H117.748V452.28H117.268V452.76H116.788V453.24H116.308V453.72H116.788V454.2H117.268V454.68H117.748V457.56ZM116.308 451.8V450.36H115.828V449.88H112.948V452.76H115.348V452.28H115.828V451.8H116.308ZM116.308 457.08V455.16H115.828V454.68H115.348V454.2H112.948V457.56H115.828V457.08H116.308ZM124.471 459H123.031V456.6H119.671V459H118.231V455.16V454.68V453.72H118.711V452.76H119.191V451.8H119.671V450.84H120.151V449.88H120.631V448.92H121.111V448.44H121.591V448.92H122.071V449.88H122.551V450.84H123.031V451.8H123.511V452.76H123.991V453.72H124.471V454.68V455.16V459ZM123.031 455.16V454.68V454.2H122.551V453.24H122.071V452.28H121.591V451.32H121.111V452.28H120.631V453.24H120.151V454.2H119.671V454.68V455.16H123.031ZM131.194 457.56H130.714V458.04H130.234V458.52H129.754V459H126.874V458.52H126.394V458.04H125.914V457.56H125.434V457.08H124.954V450.36H125.434V449.88H125.914V449.4H126.394V448.92H126.874V448.44H129.754V448.92H130.234V449.4H130.714V449.88H131.194V451.32H129.754V450.36H129.274V449.88H127.354V450.36H126.874V450.84H126.394V456.6H126.874V457.08H127.354V457.56H129.274V457.08H129.754V456.12H131.194V457.56ZM137.917 459H136.477V458.04H135.997V457.08H135.517V456.12H135.037V455.16H134.557V454.2H133.597V454.68H133.117V459H131.677V448.44H133.117V452.76H133.597V452.28H134.077V451.8H134.557V451.32H135.037V450.84H135.517V450.36H135.997V449.864H136.477V449.4H136.957V448.92H137.437V448.44H137.917V450.36H137.437V450.84H136.957V451.32H136.477V451.784H135.997V452.28H135.517V452.76H135.037V453.24H135.517V453.72H135.997V454.68H136.477V455.64H136.957V456.6H137.437V457.56H137.917V459ZM151.364 459H145.124V448.44H146.564V457.56H151.364V459ZM158.087 457.08H157.607V457.56H157.127V458.04H156.647V458.52H156.167V459H153.767V458.52H153.287V458.04H152.807V457.56H152.327V457.08H151.847V450.36H152.327V449.88H152.807V449.4H153.287V448.92H153.767V448.44H156.167V448.92H156.647V449.4H157.127V449.88H157.607V450.36H158.087V457.08ZM156.647 456.6V450.84H156.167V450.36H155.687V449.88H154.247V450.36H153.767V450.84H153.287V456.6H153.767V457.08H154.247V457.56H155.687V457.08H156.167V456.6H156.647ZM164.81 457.08H164.33V457.56H163.85V458.04H163.37V458.52H162.89V459H160.49V458.52H160.01V458.04H159.53V457.56H159.05V457.08H158.57V450.36H159.05V449.88H159.53V449.4H160.01V448.92H160.49V448.44H162.89V448.92H163.37V449.4H163.85V449.88H164.33V450.36H164.81V457.08ZM163.37 456.6V450.84H162.89V450.36H162.41V449.88H160.97V450.36H160.49V450.84H160.01V456.6H160.49V457.08H160.97V457.56H162.41V457.08H162.89V456.6H163.37ZM171.533 453.24H171.053V453.72H170.573V454.2H170.093V454.68H166.733V459H165.293V448.44H170.093V448.92H170.573V449.4H171.053V449.88H171.533V453.24ZM170.093 452.76V450.36H169.613V449.88H166.733V453.24H169.613V452.76H170.093ZM178.256 457.56H177.776V458.04H177.296V458.52H176.816V459H173.456V458.52H172.976V458.04H172.496V457.56H172.016V456.12H173.456V457.08H173.936V457.56H176.336V457.08H176.816V454.68H176.336V454.2H173.456V453.72H172.976V453.24H172.496V452.76H172.016V449.88H172.496V449.4H172.976V448.92H173.456V448.44H176.816V448.92H177.296V449.4H177.776V449.88H178.256V451.32H176.816V450.36H176.336V449.88H173.936V450.36H173.456V452.28H173.936V452.76H176.816V453.24H177.296V453.72H177.776V454.2H178.256V457.56ZM191.702 459H191.222V458.04H190.742V457.08H190.262V456.12H189.782V455.16H189.302V454.2H188.822V453.24H188.342V454.2H187.862V455.16H187.382V456.12H186.902V457.08H186.422V458.04H185.942V459H185.462V448.44H186.902V453.72H187.382V452.76H187.862V451.8H188.342V450.84H188.822V451.8H189.302V452.76H189.782V453.72H190.262V448.44H191.702V459ZM198.426 459H192.186V457.56H194.586V449.88H193.626V448.44H196.986V449.88H196.026V457.56H198.426V459ZM205.149 449.88H202.749V459H201.309V449.88H198.909V448.44H205.149V449.88ZM211.872 459H210.432V454.2H207.072V459H205.632V448.44H207.072V452.76H210.432V448.44H211.872V459ZM57.24 478H55.8V476.08H55.32V475.12H54.84V474.16H54.36V473.2H52.44V478H51V467.44H55.8V467.92H56.28V468.4H56.76V468.88H57.24V471.76H56.76V472.24H56.28V472.72H55.8V473.68H56.28V474.64H56.76V475.6H57.24V478ZM55.8 471.28V469.36H55.32V468.88H52.44V471.76H55.32V471.28H55.8ZM63.9631 476.08H63.4831V476.56H63.0031V477.04H62.5231V477.52H62.0431V478H59.6431V477.52H59.1631V477.04H58.6831V476.56H58.2031V476.08H57.7231V469.36H58.2031V468.88H58.6831V468.4H59.1631V467.92H59.6431V467.44H62.0431V467.92H62.5231V468.4H63.0031V468.88H63.4831V469.36H63.9631V476.08ZM62.5231 475.6V469.84H62.0431V469.36H61.5631V468.88H60.1231V469.36H59.6431V469.84H59.1631V475.6H59.6431V476.08H60.1231V476.56H61.5631V476.08H62.0431V475.6H62.5231ZM70.6863 476.08H70.2063V476.56H69.7263V477.04H69.2463V477.52H68.7663V478H66.3663V477.52H65.8863V477.04H65.4062V476.56H64.9262V476.08H64.4462V469.36H64.9262V468.88H65.4062V468.4H65.8863V467.92H66.3663V467.44H68.7663V467.92H69.2463V468.4H69.7263V468.88H70.2063V469.36H70.6863V476.08ZM69.2463 475.6V469.84H68.7663V469.36H68.2863V468.88H66.8463V469.36H66.3663V469.84H65.8863V475.6H66.3663V476.08H66.8463V476.56H68.2863V476.08H68.7663V475.6H69.2463ZM77.4094 478H75.9694V472.72H75.4894V473.68H75.0094V474.64H74.5294V475.6H74.0494V474.64H73.5694V473.68H73.0894V472.72H72.6094V478H71.1694V467.44H71.6494V468.4H72.1294V469.36H72.6094V470.32H73.0894V471.28H73.5694V472.24H74.0494V473.2H74.5294V472.24H75.0094V471.28H75.4894V470.32H75.9694V469.36H76.4494V468.4H76.9294V467.44H77.4094V478ZM90.8556 468.88H88.4556V478H87.0156V468.88H84.6156V467.44H90.8556V468.88ZM97.5787 476.08H97.0987V476.56H96.6187V477.04H96.1387V477.52H95.6587V478H93.2587V477.52H92.7787V477.04H92.2987V476.56H91.8187V476.08H91.3387V469.36H91.8187V468.88H92.2987V468.4H92.7787V467.92H93.2587V467.44H95.6587V467.92H96.1387V468.4H96.6187V468.88H97.0987V469.36H97.5787V476.08ZM96.1387 475.6V469.84H95.6587V469.36H95.1787V468.88H93.7387V469.36H93.2587V469.84H92.7787V475.6H93.2587V476.08H93.7387V476.56H95.1787V476.08H95.6587V475.6H96.1387ZM111.025 478H109.585V475.6H106.225V478H104.785V474.16V473.68V472.72H105.265V471.76H105.745V470.8H106.225V469.84H106.705V468.88H107.185V467.92H107.665V467.44H108.145V467.92H108.625V468.88H109.105V469.84H109.585V470.8H110.065V471.76H110.545V472.72H111.025V473.68V474.16V478ZM109.585 474.16V473.68V473.2H109.105V472.24H108.625V471.28H108.145V470.32H107.665V471.28H107.185V472.24H106.705V473.2H106.225V473.68V474.16H109.585ZM117.748 475.6H117.268V476.08H116.788V476.56H116.308V477.04H115.828V477.52H115.332V478H111.508V467.44H115.348V467.92H115.828V468.4H116.308V468.88H116.788V469.36H117.268V469.84H117.748V475.6ZM116.308 475.12V470.32H115.828V469.84H115.348V469.36H114.868V468.88H112.948V476.56H114.868V476.08H115.348V475.6H115.828V475.12H116.308ZM124.471 476.08H123.991V476.56H123.511V477.04H123.031V477.52H122.551V478H119.671V477.52H119.191V477.04H118.711V476.56H118.231V474.64H119.671V476.08H120.151V476.56H122.071V476.08H122.551V475.6H123.031V468.88H120.151V467.44H124.471V476.08ZM131.194 476.56H130.714V477.04H130.234V477.52H129.754V478H126.394V477.52H125.914V477.04H125.434V476.56H124.954V467.44H126.394V476.08H126.874V476.56H129.274V476.08H129.754V467.44H131.194V476.56ZM137.917 476.56H137.437V477.04H136.957V477.52H136.477V478H133.117V477.52H132.637V477.04H132.157V476.56H131.677V475.12H133.117V476.08H133.597V476.56H135.997V476.08H136.477V473.68H135.997V473.2H133.117V472.72H132.637V472.24H132.157V471.76H131.677V468.88H132.157V468.4H132.637V467.92H133.117V467.44H136.477V467.92H136.957V468.4H137.437V468.88H137.917V470.32H136.477V469.36H135.997V468.88H133.597V469.36H133.117V471.28H133.597V471.76H136.477V472.24H136.957V472.72H137.437V473.2H137.917V476.56ZM144.641 468.88H142.241V478H140.801V468.88H138.401V467.44H144.641V468.88Z" fill="#D9D9D9"/>
<path d="M57.24 406H51V404.56H53.4V396.88H52.44V395.44H55.8V396.88H54.84V404.56H57.24V406ZM63.9631 403.6H63.4831V404.08H63.0031V404.56H62.5231V405.04H62.0431V405.52H61.5471V406H57.7231V395.44H61.5631V395.92H62.0431V396.4H62.5231V396.88H63.0031V397.36H63.4831V397.84H63.9631V403.6ZM62.5231 403.12V398.32H62.0431V397.84H61.5631V397.36H61.0831V396.88H59.1631V404.56H61.0831V404.08H61.5631V403.6H62.0431V403.12H62.5231ZM68.2863 406H66.3663V404.08H68.2863V406ZM77.4094 404.56H76.9294V405.04H76.4494V405.52H75.9694V406H72.6094V405.52H72.1294V405.04H71.6494V404.56H71.1694V403.12H72.6094V404.08H73.0894V404.56H75.4894V404.08H75.9694V402.16H75.4894V401.68H75.0094V401.2H74.5294V400.72H74.0494V400.24H73.5694V399.76H73.0894V399.28H73.5694V398.8H74.0494V398.32H74.5294V397.84H75.0094V397.36H75.4894V396.88H71.1694V395.44H77.4094V397.36H76.9294V397.84H76.4494V398.32H75.9694V398.8H75.4894V399.28H75.0094V399.76H75.4894V400.24H75.9694V400.72H76.4494V401.2H76.9294V401.68H77.4094V404.56ZM81.7325 406H79.8125V404.08H81.7325V406ZM90.8556 404.08H90.3756V404.56H89.8956V405.04H89.4156V405.52H88.9356V406H86.5356V405.52H86.0556V405.04H85.5756V404.56H85.0956V404.08H84.6156V397.36H85.0956V396.88H85.5756V396.4H86.0556V395.92H86.5356V395.44H88.9356V395.92H89.4156V396.4H89.8956V396.88H90.3756V397.36H90.8556V404.08ZM88.9356 397.84V397.36V396.88H86.5356V397.36H86.0556V402.64H86.5356V401.68H87.0156V400.72H87.4956V399.76H87.9756V398.8H88.4556V397.84H88.9356ZM89.4156 404.08V399.28H88.9356V400.24H88.4556V401.2H87.9756V402.16H87.4956V403.12H87.0156V404.08H86.5356V404.56H88.9356V404.08H89.4156ZM97.5787 404.08H97.0987V404.56H96.6187V405.04H96.1387V405.52H95.6587V406H93.2587V405.52H92.7787V405.04H92.2987V404.56H91.8187V404.08H91.3387V397.36H91.8187V396.88H92.2987V396.4H92.7787V395.92H93.2587V395.44H95.6587V395.92H96.1387V396.4H96.6187V396.88H97.0987V397.36H97.5787V404.08ZM95.6587 397.84V397.36V396.88H93.2587V397.36H92.7787V402.64H93.2587V401.68H93.7387V400.72H94.2187V399.76H94.6987V398.8H95.1787V397.84H95.6587ZM96.1387 404.08V399.28H95.6587V400.24H95.1787V401.2H94.6987V402.16H94.2187V403.12H93.7387V404.08H93.2587V404.56H95.6587V404.08H96.1387ZM104.302 404.56H103.822V405.04H103.342V405.52H102.862V406H99.5019V405.52H99.0219V405.04H98.5419V404.56H98.0619V403.12H99.5019V404.08H99.9819V404.56H102.382V404.08H102.862V402.16H102.382V401.68H101.902V401.2H101.422V400.72H100.942V400.24H100.462V399.76H99.9819V399.28H100.462V398.8H100.942V398.32H101.422V397.84H101.902V397.36H102.382V396.88H98.0619V395.44H104.302V397.36H103.822V397.84H103.342V398.32H102.862V398.8H102.382V399.28H101.902V399.76H102.382V400.24H102.862V400.72H103.342V401.2H103.822V401.68H104.302V404.56Z" fill="#4B4B4B"/>
<rect x="34" y="378" width="6" height="6" fill="#4B4B4B"/>
<rect x="218" y="395" width="4" height="4" fill="#4B4B4B"/>
<rect x="218" y="399" width="4" height="4" fill="#4B4B4B"/>
<rect x="226" y="395" width="4" height="4" fill="#4B4B4B"/>
<rect x="226" y="403" width="4" height="4" fill="#4B4B4B"/>
<rect x="222" y="399" width="4" height="4" fill="#4B4B4B"/>
<rect x="241" y="378" width="6" height="6" fill="#4B4B4B"/>
<rect x="34" y="492" width="6" height="6" fill="#4B4B4B"/>
<rect x="241" y="492" width="6" height="6" fill="#4B4B4B"/>
</g>
<rect x="34.5" y="378.5" width="212" height="119" stroke="#4B4B4B"/>
<g clip-path="url(#clip3_2685_16365)">
<path d="M284.24 459H283.76V458.04H283.28V457.08H282.8V456.12H282.32V455.16H281.84V454.2H281.36V453.24H280.88V454.2H280.4V455.16H279.92V456.12H279.44V457.08H278.96V458.04H278.48V459H278V448.44H279.44V453.72H279.92V452.76H280.4V451.8H280.88V450.84H281.36V451.8H281.84V452.76H282.32V453.72H282.8V448.44H284.24V459ZM290.963 459H284.723V448.44H290.963V449.88H286.163V452.76H290.003V454.2H286.163V457.56H290.963V459ZM304.409 457.56H303.929V458.04H303.449V458.52H302.969V459H299.609V458.52H299.129V458.04H298.649V457.56H298.169V456.12H299.609V457.08H300.089V457.56H302.489V457.08H302.969V454.68H302.489V454.2H299.609V453.72H299.129V453.24H298.649V452.76H298.169V449.88H298.649V449.4H299.129V448.92H299.609V448.44H302.969V448.92H303.449V449.4H303.929V449.88H304.409V451.32H302.969V450.36H302.489V449.88H300.089V450.36H299.609V452.28H300.089V452.76H302.969V453.24H303.449V453.72H303.929V454.2H304.409V457.56ZM311.133 459H309.693V454.2H306.332V459H304.892V448.44H306.332V452.76H309.693V448.44H311.133V459ZM317.856 459H311.616V457.56H314.016V449.88H313.056V448.44H316.416V449.88H315.456V457.56H317.856V459ZM324.579 453.24H324.099V453.72H323.619V454.2H323.139V454.68H319.779V459H318.339V448.44H323.139V448.92H323.619V449.4H324.099V449.88H324.579V453.24ZM323.139 452.76V450.36H322.659V449.88H319.779V453.24H322.659V452.76H323.139ZM338.025 459H331.785V448.44H338.025V449.88H333.225V452.76H337.065V454.2H333.225V457.56H338.025V459ZM344.748 459H343.308V456.6H339.948V459H338.508V455.16V454.68V453.72H338.988V452.76H339.468V451.8H339.948V450.84H340.428V449.88H340.908V448.92H341.388V448.44H341.868V448.92H342.348V449.88H342.828V450.84H343.308V451.8H343.788V452.76H344.268V453.72H344.748V454.68V455.16V459ZM343.308 455.16V454.68V454.2H342.828V453.24H342.348V452.28H341.868V451.32H341.388V452.28H340.908V453.24H340.428V454.2H339.948V454.68V455.16H343.308ZM351.471 459H350.031V457.08H349.551V456.12H349.071V455.16H348.591V454.2H346.671V459H345.231V448.44H350.031V448.92H350.511V449.4H350.991V449.88H351.471V452.76H350.991V453.24H350.511V453.72H350.031V454.68H350.511V455.64H350.991V456.6H351.471V459ZM350.031 452.28V450.36H349.551V449.88H346.671V452.76H349.551V452.28H350.031ZM358.194 459H351.954V448.44H353.394V457.56H358.194V459ZM364.917 449.88H364.437V450.84H363.957V451.8H363.477V452.76H362.997V453.72H362.517V459H361.077V453.72H360.597V452.76H360.117V451.8H359.637V450.84H359.157V449.88H358.677V448.44H360.117V449.4H360.597V450.36H361.077V451.32H361.557V452.28H362.037V451.32H362.517V450.36H362.997V449.4H363.477V448.44H364.917V449.88ZM378.364 459H376.924V456.6H373.564V459H372.124V455.16V454.68V453.72H372.604V452.76H373.084V451.8H373.564V450.84H374.044V449.88H374.524V448.92H375.004V448.44H375.484V448.92H375.964V449.88H376.444V450.84H376.924V451.8H377.404V452.76H377.884V453.72H378.364V454.68V455.16V459ZM376.924 455.16V454.68V454.2H376.444V453.24H375.964V452.28H375.484V451.32H375.004V452.28H374.524V453.24H374.044V454.2H373.564V454.68V455.16H376.924ZM385.087 459H383.647V458.52H383.167V457.56H382.687V456.6H382.207V455.64H381.727V454.68H381.247V453.72H380.767V452.76H380.287V459H378.847V448.44H379.807V449.4H380.287V450.36H380.767V451.32H381.247V452.28H381.727V453.24H382.207V454.2H382.687V455.16H383.167V456.12H383.647V448.44H385.087V459ZM391.81 456.6H391.33V457.08H390.85V457.56H390.37V458.04H389.89V458.52H389.394V459H385.57V448.44H389.41V448.92H389.89V449.4H390.37V449.88H390.85V450.36H391.33V450.84H391.81V456.6ZM390.37 456.12V451.32H389.89V450.84H389.41V450.36H388.93V449.88H387.01V457.56H388.93V457.08H389.41V456.6H389.89V456.12H390.37ZM405.256 457.08H404.776V457.56H404.296V458.04H403.816V458.52H403.336V459H400.936V458.52H400.456V458.04H399.976V457.56H399.496V457.08H399.016V450.36H399.496V449.88H399.976V449.4H400.456V448.92H400.936V448.44H403.336V448.92H403.816V449.4H404.296V449.88H404.776V450.36H405.256V457.08ZM403.816 456.6V450.84H403.336V450.36H402.856V449.88H401.416V450.36H400.936V450.84H400.456V456.6H400.936V457.08H401.416V457.56H402.856V457.08H403.336V456.6H403.816ZM411.979 449.88H407.179V452.76H410.539V454.2H407.179V459H405.739V448.44H411.979V449.88ZM418.702 449.88H416.302V459H414.862V449.88H412.462V448.44H418.702V449.88ZM425.426 459H419.186V448.44H425.426V449.88H420.626V452.76H424.466V454.2H420.626V457.56H425.426V459ZM432.149 459H430.709V458.52H430.229V457.56H429.749V456.6H429.269V455.64H428.789V454.68H428.309V453.72H427.829V452.76H427.349V459H425.909V448.44H426.869V449.4H427.349V450.36H427.829V451.32H428.309V452.28H428.789V453.24H429.269V454.2H429.749V455.16H430.229V456.12H430.709V448.44H432.149V459ZM436.472 459H434.552V457.08H436.472V459ZM284.24 478H282.8V477.52H282.32V476.56H281.84V475.6H281.36V474.64H280.88V473.68H280.4V472.72H279.92V471.76H279.44V478H278V467.44H278.96V468.4H279.44V469.36H279.92V470.32H280.4V471.28H280.88V472.24H281.36V473.2H281.84V474.16H282.32V475.12H282.8V467.44H284.24V478ZM290.963 476.08H290.483V476.56H290.003V477.04H289.523V477.52H289.043V478H286.643V477.52H286.163V477.04H285.683V476.56H285.203V476.08H284.723V469.36H285.203V468.88H285.683V468.4H286.163V467.92H286.643V467.44H289.043V467.92H289.523V468.4H290.003V468.88H290.483V469.36H290.963V476.08ZM289.523 475.6V469.84H289.043V469.36H288.563V468.88H287.123V469.36H286.643V469.84H286.163V475.6H286.643V476.08H287.123V476.56H288.563V476.08H289.043V475.6H289.523ZM303.449 469.84H302.009V467.44H303.449V469.84ZM301.049 469.84H299.609V467.44H301.049V469.84ZM311.133 476.56H310.653V477.04H310.173V477.52H309.693V478H304.892V467.44H309.693V467.92H310.173V468.4H310.653V468.88H311.133V471.28H310.653V471.76H310.173V472.24H309.693V472.72H310.173V473.2H310.653V473.68H311.133V476.56ZM309.693 470.8V469.36H309.213V468.88H306.332V471.76H308.733V471.28H309.213V470.8H309.693ZM309.693 476.08V474.16H309.213V473.68H308.733V473.2H306.332V476.56H309.213V476.08H309.693ZM317.856 478H311.616V476.56H314.016V468.88H313.056V467.44H316.416V468.88H315.456V476.56H317.856V478ZM324.579 477.04H324.099V477.52H323.619V478H320.259V477.52H319.779V477.04H319.299V476.56H318.819V476.08H318.339V469.36H318.819V468.88H319.299V468.4H319.779V467.92H320.259V467.44H323.619V467.92H324.099V468.4H324.579V469.36H323.139V468.88H320.739V469.36H320.259V469.84H319.779V475.6H320.259V476.08H320.739V476.56H323.139V473.68H322.659V474.16H321.219V472.24H324.579V477.04ZM338.025 478H336.585V476.08H336.105V475.12H335.625V474.16H335.145V473.2H333.225V478H331.785V467.44H336.585V467.92H337.065V468.4H337.545V468.88H338.025V471.76H337.545V472.24H337.065V472.72H336.585V473.68H337.065V474.64H337.545V475.6H338.025V478ZM336.585 471.28V469.36H336.105V468.88H333.225V471.76H336.105V471.28H336.585ZM344.748 478H338.508V467.44H344.748V468.88H339.948V471.76H343.788V473.2H339.948V476.56H344.748V478ZM351.471 472.24H350.991V473.2H350.511V474.16H350.031V475.12H349.551V476.08H349.071V477.04H348.591V478H348.111V477.04H347.631V476.08H347.151V475.12H346.671V474.16H346.191V473.2H345.711V472.24H345.231V467.44H346.671V471.76H347.151V472.72H347.631V473.68H348.111V474.64H348.591V473.68H349.071V472.72H349.551V471.76H350.031V467.44H351.471V472.24ZM358.194 478H351.954V467.44H358.194V468.88H353.394V471.76H357.234V473.2H353.394V476.56H358.194V478ZM364.917 478H363.477V475.6H360.117V478H358.677V474.16V473.68V472.72H359.157V471.76H359.637V470.8H360.117V469.84H360.597V468.88H361.077V467.92H361.557V467.44H362.037V467.92H362.517V468.88H362.997V469.84H363.477V470.8H363.957V471.76H364.437V472.72H364.917V473.68V474.16V478ZM363.477 474.16V473.68V473.2H362.997V472.24H362.517V471.28H362.037V470.32H361.557V471.28H361.077V472.24H360.597V473.2H360.117V473.68V474.16H363.477ZM371.641 478H365.401V467.44H366.841V476.56H371.641V478ZM377.404 469.84H375.964V467.44H377.404V469.84ZM375.004 469.84H373.564V467.44H375.004V469.84ZM391.81 478H390.37V477.52H389.89V476.56H389.41V475.6H388.93V474.64H388.45V473.68H387.97V472.72H387.49V471.76H387.01V478H385.57V467.44H386.53V468.4H387.01V469.36H387.49V470.32H387.97V471.28H388.45V472.24H388.93V473.2H389.41V474.16H389.89V475.12H390.37V467.44H391.81V478ZM398.533 476.08H398.053V476.56H397.573V477.04H397.093V477.52H396.613V478H394.213V477.52H393.733V477.04H393.253V476.56H392.773V476.08H392.293V469.36H392.773V468.88H393.253V468.4H393.733V467.92H394.213V467.44H396.613V467.92H397.093V468.4H397.573V468.88H398.053V469.36H398.533V476.08ZM397.093 475.6V469.84H396.613V469.36H396.133V468.88H394.693V469.36H394.213V469.84H393.733V475.6H394.213V476.08H394.693V476.56H396.133V476.08H396.613V475.6H397.093ZM405.256 478H403.816V477.52H403.336V476.56H402.856V475.6H402.376V474.64H401.896V473.68H401.416V472.72H400.936V471.76H400.456V478H399.016V467.44H399.976V468.4H400.456V469.36H400.936V470.32H401.416V471.28H401.896V472.24H402.376V473.2H402.856V474.16H403.336V475.12H403.816V467.44H405.256V478ZM411.979 476.56H411.499V477.04H411.019V477.52H410.539V478H407.179V477.52H406.699V477.04H406.219V476.56H405.739V475.12H407.179V476.08H407.659V476.56H410.059V476.08H410.539V473.68H410.059V473.2H407.179V472.72H406.699V472.24H406.219V471.76H405.739V468.88H406.219V468.4H406.699V467.92H407.179V467.44H410.539V467.92H411.019V468.4H411.499V468.88H411.979V470.32H410.539V469.36H410.059V468.88H407.659V469.36H407.179V471.28H407.659V471.76H410.539V472.24H411.019V472.72H411.499V473.2H411.979V476.56ZM418.702 478H412.462V467.44H418.702V468.88H413.902V471.76H417.742V473.2H413.902V476.56H418.702V478ZM425.426 478H423.986V477.52H423.506V476.56H423.026V475.6H422.546V474.64H422.066V473.68H421.586V472.72H421.106V471.76H420.626V478H419.186V467.44H420.146V468.4H420.626V469.36H421.106V470.32H421.586V471.28H422.066V472.24H422.546V473.2H423.026V474.16H423.506V475.12H423.986V467.44H425.426V478ZM432.149 476.56H431.669V477.04H431.189V477.52H430.709V478H427.349V477.52H426.869V477.04H426.389V476.56H425.909V475.12H427.349V476.08H427.829V476.56H430.229V476.08H430.709V473.68H430.229V473.2H427.349V472.72H426.869V472.24H426.389V471.76H425.909V468.88H426.389V468.4H426.869V467.92H427.349V467.44H430.709V467.92H431.189V468.4H431.669V468.88H432.149V470.32H430.709V469.36H430.229V468.88H427.829V469.36H427.349V471.28H427.829V471.76H430.709V472.24H431.189V472.72H431.669V473.2H432.149V476.56ZM438.872 478H432.632V467.44H438.872V468.88H434.072V471.76H437.912V473.2H434.072V476.56H438.872V478ZM443.195 478H441.275V476.08H443.195V478Z" fill="#D9D9D9"/>
<path d="M284.24 406H278V404.56H280.4V396.88H279.44V395.44H282.8V396.88H281.84V404.56H284.24V406ZM290.963 403.6H290.483V404.08H290.003V404.56H289.523V405.04H289.043V405.52H288.547V406H284.723V395.44H288.563V395.92H289.043V396.4H289.523V396.88H290.003V397.36H290.483V397.84H290.963V403.6ZM289.523 403.12V398.32H289.043V397.84H288.563V397.36H288.083V396.88H286.163V404.56H288.083V404.08H288.563V403.6H289.043V403.12H289.523ZM295.286 406H293.366V404.08H295.286V406ZM304.409 404.56H303.929V405.04H303.449V405.52H302.969V406H299.609V405.52H299.129V405.04H298.649V404.56H298.169V403.12H299.609V404.08H300.089V404.56H302.489V404.08H302.969V402.16H302.489V401.68H302.009V401.2H301.529V400.72H301.049V400.24H300.569V399.76H300.089V399.28H300.569V398.8H301.049V398.32H301.529V397.84H302.009V397.36H302.489V396.88H298.169V395.44H304.409V397.36H303.929V397.84H303.449V398.32H302.969V398.8H302.489V399.28H302.009V399.76H302.489V400.24H302.969V400.72H303.449V401.2H303.929V401.68H304.409V404.56ZM308.733 406H306.812V404.08H308.733V406ZM317.856 404.08H317.376V404.56H316.896V405.04H316.416V405.52H315.936V406H313.536V405.52H313.056V405.04H312.576V404.56H312.096V404.08H311.616V397.36H312.096V396.88H312.576V396.4H313.056V395.92H313.536V395.44H315.936V395.92H316.416V396.4H316.896V396.88H317.376V397.36H317.856V404.08ZM315.936 397.84V397.36V396.88H313.536V397.36H313.056V402.64H313.536V401.68H314.016V400.72H314.496V399.76H314.976V398.8H315.456V397.84H315.936ZM316.416 404.08V399.28H315.936V400.24H315.456V401.2H314.976V402.16H314.496V403.12H314.016V404.08H313.536V404.56H315.936V404.08H316.416ZM324.579 404.08H324.099V404.56H323.619V405.04H323.139V405.52H322.659V406H320.259V405.52H319.779V405.04H319.299V404.56H318.819V404.08H318.339V397.36H318.819V396.88H319.299V396.4H319.779V395.92H320.259V395.44H322.659V395.92H323.139V396.4H323.619V396.88H324.099V397.36H324.579V404.08ZM322.659 397.84V397.36V396.88H320.259V397.36H319.779V402.64H320.259V401.68H320.739V400.72H321.219V399.76H321.699V398.8H322.179V397.84H322.659ZM323.139 404.08V399.28H322.659V400.24H322.179V401.2H321.699V402.16H321.219V403.12H320.739V404.08H320.259V404.56H322.659V404.08H323.139ZM331.302 404.08H330.342V406H328.902V404.08H325.062V403.6V403.12H325.542V402.16H326.022V401.2H326.502V400.24H326.982V399.28H327.462V398.32H327.942V397.36H328.422V396.4H328.902V395.44H330.342V402.64H331.302V404.08ZM328.902 402.64V398.8H328.422V399.76H327.942V400.72H327.462V401.68H326.982V402.64H328.902Z" fill="#4B4B4B"/>
<rect x="261" y="378" width="6" height="6" fill="#4B4B4B"/>
<rect x="449" y="395" width="4" height="4" fill="#4B4B4B"/>
<rect x="453" y="399" width="4" height="4" fill="#4B4B4B"/>
<rect x="449" y="399" width="4" height="4" fill="#4B4B4B"/>
<rect x="453" y="403" width="4" height="4" fill="#4B4B4B"/>
<rect x="445" y="403" width="4" height="4" fill="#4B4B4B"/>
<rect x="468" y="378" width="6" height="6" fill="#4B4B4B"/>
<rect x="261" y="492" width="6" height="6" fill="#4B4B4B"/>
<rect x="468" y="492" width="6" height="6" fill="#4B4B4B"/>
</g>
<rect x="261.5" y="378.5" width="212" height="119" stroke="#4B4B4B"/>
<rect x="247.25" y="304.25" width="13.5" height="0.5" fill="#4B4B4B" stroke="#4B4B4B" stroke-width="0.5"/>
<rect x="247.25" y="438.25" width="13.5" height="0.5" fill="#4B4B4B" stroke="#4B4B4B" stroke-width="0.5"/>
<rect x="140.75" y="364.25" width="13.5" height="0.5" transform="rotate(90 140.75 364.25)" fill="#4B4B4B" stroke="#4B4B4B" stroke-width="0.5"/>
<rect x="367.75" y="364.25" width="13.5" height="0.5" transform="rotate(90 367.75 364.25)" fill="#4B4B4B" stroke="#4B4B4B" stroke-width="0.5"/>
<rect x="488.5" y="244.5" width="122" height="253" rx="61" stroke="#4B4B4B" stroke-dasharray="2 2"/>
<path d="M528.038 442.4H527.738V442.7H527.438V443H527.138V443.3H525.038V446H524.138V439.4H527.138V439.7H527.438V440H527.738V440.3H528.038V442.4ZM527.138 442.1V440.6H526.838V440.3H525.038V442.4H526.838V442.1H527.138ZM532.24 446H531.34V445.7H531.04V445.1H530.74V444.5H530.44V443.9H530.14V443.3H529.84V442.7H529.54V442.1H529.24V446H528.34V439.4H528.94V440H529.24V440.6H529.54V441.2H529.84V441.8H530.14V442.4H530.44V443H530.74V443.6H531.04V444.2H531.34V439.4H532.24V446ZM534.942 443.6H533.742V442.4H534.942V443.6ZM534.942 446H533.742V444.8H534.942V446ZM544.846 446H540.946V443.6H541.246V443.3H541.546V443H541.846V442.7H542.146V442.4H543.346V442.1H543.646V441.8H543.946V440.6H543.646V440.3H542.146V440.6H541.846V441.2H540.946V440.3H541.246V440H541.546V439.7H541.846V439.4H543.946V439.7H544.246V440H544.546V440.3H544.846V442.1H544.546V442.4H544.246V442.7H543.946V443H543.646V443.3H542.446V443.6H542.146V443.9H541.846V445.1H544.846V446ZM549.048 444.8H548.448V446H547.548V444.8H545.148V444.5V444.2H545.448V443.6H545.748V443H546.048V442.4H546.348V441.8H546.648V441.2H546.948V440.6H547.248V440H547.548V439.4H548.448V443.9H549.048V444.8ZM547.548 443.9V441.5H547.248V442.1H546.948V442.7H546.648V443.3H546.348V443.9H547.548ZM553.25 445.1H552.95V445.4H552.65V445.7H552.35V446H550.25V445.7H549.95V445.4H549.65V445.1H549.35V443H549.65V442.7H549.95V442.4H549.65V442.1H549.35V440.3H549.65V440H549.95V439.7H550.25V439.4H552.35V439.7H552.65V440H552.95V440.3H553.25V442.1H552.95V442.4H552.65V442.7H552.95V443H553.25V445.1ZM552.35 441.8V440.6H552.05V440.3H550.55V440.6H550.25V441.8H550.55V442.1H552.05V441.8H552.35ZM552.35 444.8V443.3H552.05V443H550.55V443.3H550.25V444.8H550.55V445.1H552.05V444.8H552.35ZM557.452 445.1H557.152V445.4H556.852V445.7H556.552V446H554.452V445.7H554.152V445.4H553.852V445.1H553.552V444.2H554.452V444.8H554.752V445.1H556.252V444.8H556.552V443.6H556.252V443.3H555.952V443H555.652V442.7H555.352V442.4H555.052V442.1H554.752V441.8H555.052V441.5H555.352V441.2H555.652V440.9H555.952V440.6H556.252V440.3H553.552V439.4H557.452V440.6H557.152V440.9H556.852V441.2H556.552V441.5H556.252V441.8H555.952V442.1H556.252V442.4H556.552V442.7H556.852V443H557.152V443.3H557.452V445.1ZM561.054 443.9H558.354V443H561.054V443.9ZM565.856 446H564.956V444.5H562.856V446H561.956V443.6V443.3V442.7H562.256V442.1H562.556V441.5H562.856V440.9H563.156V440.3H563.456V439.7H563.756V439.4H564.056V439.7H564.356V440.3H564.656V440.9H564.956V441.5H565.256V442.1H565.556V442.7H565.856V443.3V443.6V446ZM564.956 443.6V443.3V443H564.656V442.4H564.356V441.8H564.056V441.2H563.756V441.8H563.456V442.4H563.156V443H562.856V443.3V443.6H564.956ZM570.058 446H569.158V445.1H568.858V444.2H568.558V443.6H568.258V443.3H567.958V443.6H567.658V444.2H567.358V445.1H567.058V446H566.158V445.1H566.458V444.2H566.758V443.6H567.058V443H567.358V442.4H567.058V441.8H566.758V441.2H566.458V440.3H566.158V439.4H567.058V440.3H567.358V441.2H567.658V441.8H567.958V442.1H568.258V441.8H568.558V441.2H568.858V440.3H569.158V439.4H570.058V440.3H569.758V441.2H569.458V441.8H569.158V442.4H568.858V443H569.158V443.6H569.458V444.2H569.758V445.1H570.058V446ZM574.26 443H573.96V443.6H573.66V443.9H573.36V444.2H573.06V444.5H572.76V444.8H572.46V445.1H572.16V445.4H571.86V445.7H571.56V446H570.66V445.4H570.96V445.1H571.26V444.8H571.56V444.5H571.86V444.2H572.16V443.9H572.46V443.6H572.76V443.3H571.26V443H570.96V442.7H570.66V442.4H570.36V440.3H570.66V440H570.96V439.7H571.26V439.4H573.36V439.7H573.66V440H573.96V440.3H574.26V443ZM573.36 442.1V440.6H573.06V440.3H571.56V440.6H571.26V442.1H571.56V442.4H573.06V442.1H573.36ZM525.937 456.5H525.637V456.8H525.337V457.1H525.037V457.4H524.737V457.7H524.427V458H522.037V451.4H524.437V451.7H524.737V452H525.037V452.3H525.337V452.6H525.637V452.9H525.937V456.5ZM525.037 456.2V453.2H524.737V452.9H524.437V452.6H524.137V452.3H522.937V457.1H524.137V456.8H524.437V456.5H524.737V456.2H525.037ZM530.139 456.8H529.839V457.1H529.539V457.4H529.239V457.7H528.939V458H527.439V457.7H527.139V457.4H526.839V457.1H526.539V456.8H526.239V452.6H526.539V452.3H526.839V452H527.139V451.7H527.439V451.4H528.939V451.7H529.239V452H529.539V452.3H529.839V452.6H530.139V456.8ZM529.239 456.5V452.9H528.939V452.6H528.639V452.3H527.739V452.6H527.439V452.9H527.139V456.5H527.439V456.8H527.739V457.1H528.639V456.8H528.939V456.5H529.239ZM538.543 458H537.643V457.7H537.343V457.1H537.043V456.5H536.743V455.9H536.443V455.3H536.143V454.7H535.843V454.1H535.543V458H534.643V451.4H535.243V452H535.543V452.6H535.843V453.2H536.143V453.8H536.443V454.4H536.743V455H537.043V455.6H537.343V456.2H537.643V451.4H538.543V458ZM542.745 456.8H542.445V457.1H542.145V457.4H541.845V457.7H541.545V458H540.045V457.7H539.745V457.4H539.445V457.1H539.145V456.8H538.845V452.6H539.145V452.3H539.445V452H539.745V451.7H540.045V451.4H541.545V451.7H541.845V452H542.145V452.3H542.445V452.6H542.745V456.8ZM541.845 456.5V452.9H541.545V452.6H541.245V452.3H540.345V452.6H540.045V452.9H539.745V456.5H540.045V456.8H540.345V457.1H541.245V456.8H541.545V456.5H541.845ZM546.947 452.3H545.447V458H544.547V452.3H543.047V451.4H546.947V452.3ZM555.351 458H554.451V456.8H554.151V456.2H553.851V455.6H553.551V455H552.351V458H551.451V451.4H554.451V451.7H554.751V452H555.051V452.3H555.351V454.1H555.051V454.4H554.751V454.7H554.451V455.3H554.751V455.9H555.051V456.5H555.351V458ZM554.451 453.8V452.6H554.151V452.3H552.351V454.1H554.151V453.8H554.451ZM559.553 458H555.653V451.4H559.553V452.3H556.553V454.1H558.953V455H556.553V457.1H559.553V458ZM563.755 458H562.855V454.7H562.555V455.3H562.255V455.9H561.955V456.5H561.655V455.9H561.355V455.3H561.055V454.7H560.755V458H559.855V451.4H560.155V452H560.455V452.6H560.755V453.2H561.055V453.8H561.355V454.4H561.655V455H561.955V454.4H562.255V453.8H562.555V453.2H562.855V452.6H563.155V452H563.455V451.4H563.755V458ZM567.957 456.8H567.657V457.1H567.357V457.4H567.057V457.7H566.757V458H565.257V457.7H564.957V457.4H564.657V457.1H564.357V456.8H564.057V452.6H564.357V452.3H564.657V452H564.957V451.7H565.257V451.4H566.757V451.7H567.057V452H567.357V452.3H567.657V452.6H567.957V456.8ZM567.057 456.5V452.9H566.757V452.6H566.457V452.3H565.557V452.6H565.257V452.9H564.957V456.5H565.257V456.8H565.557V457.1H566.457V456.8H566.757V456.5H567.057ZM572.159 454.4H571.859V455H571.559V455.6H571.259V456.2H570.959V456.8H570.659V457.4H570.359V458H570.059V457.4H569.759V456.8H569.459V456.2H569.159V455.6H568.859V455H568.559V454.4H568.259V451.4H569.159V454.1H569.459V454.7H569.759V455.3H570.059V455.9H570.359V455.3H570.659V454.7H570.959V454.1H571.259V451.4H572.159V454.4ZM576.361 458H572.461V451.4H576.361V452.3H573.361V454.1H575.761V455H573.361V457.1H576.361V458ZM519.634 468.5H519.334V468.8H519.034V469.1H518.734V469.4H518.434V469.7H518.124V470H515.734V463.4H518.134V463.7H518.434V464H518.734V464.3H519.034V464.6H519.334V464.9H519.634V468.5ZM518.734 468.2V465.2H518.434V464.9H518.134V464.6H517.834V464.3H516.634V469.1H517.834V468.8H518.134V468.5H518.434V468.2H518.734ZM523.836 469.1H523.536V469.4H523.236V469.7H522.936V470H520.836V469.7H520.536V469.4H520.236V469.1H519.936V463.4H520.836V468.8H521.136V469.1H522.636V468.8H522.936V463.4H523.836V469.1ZM528.038 470H527.138V468.8H526.838V468.2H526.538V467.6H526.238V467H525.038V470H524.138V463.4H527.138V463.7H527.438V464H527.738V464.3H528.038V466.1H527.738V466.4H527.438V466.7H527.138V467.3H527.438V467.9H527.738V468.5H528.038V470ZM527.138 465.8V464.6H526.838V464.3H525.038V466.1H526.838V465.8H527.138ZM532.24 470H528.34V469.1H529.84V464.3H529.24V463.4H531.34V464.3H530.74V469.1H532.24V470ZM536.442 470H535.542V469.7H535.242V469.1H534.942V468.5H534.642V467.9H534.342V467.3H534.042V466.7H533.742V466.1H533.442V470H532.542V463.4H533.142V464H533.442V464.6H533.742V465.2H534.042V465.8H534.342V466.4H534.642V467H534.942V467.6H535.242V468.2H535.542V463.4H536.442V470ZM540.644 469.4H540.344V469.7H540.044V470H537.944V469.7H537.644V469.4H537.344V469.1H537.044V468.8H536.744V464.6H537.044V464.3H537.344V464H537.644V463.7H537.944V463.4H540.044V463.7H540.344V464H540.644V464.6H539.744V464.3H538.244V464.6H537.944V464.9H537.644V468.5H537.944V468.8H538.244V469.1H539.744V467.3H539.444V467.6H538.544V466.4H540.644V469.4ZM549.048 468.8H548.748V469.1H548.448V469.4H548.148V469.7H547.848V470H546.348V469.7H546.048V469.4H545.748V469.1H545.448V468.8H545.148V464.6H545.448V464.3H545.748V464H546.048V463.7H546.348V463.4H547.848V463.7H548.148V464H548.448V464.3H548.748V464.6H549.048V468.8ZM548.148 468.5V464.9H547.848V464.6H547.548V464.3H546.648V464.6H546.348V464.9H546.048V468.5H546.348V468.8H546.648V469.1H547.548V468.8H547.848V468.5H548.148ZM553.25 466.4H552.95V466.7H552.65V467H552.35V467.3H550.25V470H549.35V463.4H552.35V463.7H552.65V464H552.95V464.3H553.25V466.4ZM552.35 466.1V464.6H552.05V464.3H550.25V466.4H552.05V466.1H552.35ZM557.452 470H553.552V463.4H557.452V464.3H554.452V466.1H556.852V467H554.452V469.1H557.452V470ZM561.654 470H560.754V468.8H560.454V468.2H560.154V467.6H559.854V467H558.654V470H557.754V463.4H560.754V463.7H561.054V464H561.354V464.3H561.654V466.1H561.354V466.4H561.054V466.7H560.754V467.3H561.054V467.9H561.354V468.5H561.654V470ZM560.754 465.8V464.6H560.454V464.3H558.654V466.1H560.454V465.8H560.754ZM565.856 470H564.956V468.5H562.856V470H561.956V467.6V467.3V466.7H562.256V466.1H562.556V465.5H562.856V464.9H563.156V464.3H563.456V463.7H563.756V463.4H564.056V463.7H564.356V464.3H564.656V464.9H564.956V465.5H565.256V466.1H565.556V466.7H565.856V467.3V467.6V470ZM564.956 467.6V467.3V467H564.656V466.4H564.356V465.8H564.056V465.2H563.756V465.8H563.456V466.4H563.156V467H562.856V467.3V467.6H564.956ZM570.058 464.3H568.558V470H567.658V464.3H566.158V463.4H570.058V464.3ZM574.26 470H570.36V469.1H571.86V464.3H571.26V463.4H573.36V464.3H572.76V469.1H574.26V470ZM578.462 468.8H578.162V469.1H577.862V469.4H577.562V469.7H577.262V470H575.762V469.7H575.462V469.4H575.162V469.1H574.862V468.8H574.562V464.6H574.862V464.3H575.162V464H575.462V463.7H575.762V463.4H577.262V463.7H577.562V464H577.862V464.3H578.162V464.6H578.462V468.8ZM577.562 468.5V464.9H577.262V464.6H576.962V464.3H576.062V464.6H575.762V464.9H575.462V468.5H575.762V468.8H576.062V469.1H576.962V468.8H577.262V468.5H577.562ZM582.664 470H581.764V469.7H581.464V469.1H581.164V468.5H580.864V467.9H580.564V467.3H580.264V466.7H579.964V466.1H579.664V470H578.764V463.4H579.364V464H579.664V464.6H579.964V465.2H580.264V465.8H580.564V466.4H580.864V467H581.164V467.6H581.464V468.2H581.764V463.4H582.664V470Z" fill="#4B4B4B"/>
<path d="M545.24 274.62C545.62 274.52 546.073 274.39 546.6 274.23C547.133 274.063 547.667 273.893 548.2 273.72L548.39 274.78C547.903 274.953 547.41 275.127 546.91 275.3C546.41 275.473 545.947 275.633 545.52 275.78L545.24 274.62ZM545.38 271.4H548.31V272.5H545.38V271.4ZM546.35 269.5H547.47V277.57C547.47 277.83 547.443 278.037 547.39 278.19C547.343 278.35 547.247 278.473 547.1 278.56C546.96 278.653 546.79 278.713 546.59 278.74C546.39 278.773 546.15 278.79 545.87 278.79C545.857 278.637 545.82 278.457 545.76 278.25C545.7 278.05 545.637 277.873 545.57 277.72C545.703 277.727 545.83 277.73 545.95 277.73C546.077 277.73 546.163 277.73 546.21 277.73C546.303 277.73 546.35 277.68 546.35 277.58V269.5ZM550.56 270.71V271.37H552.38V270.71H550.56ZM549.54 269.88H553.47V272.21H549.54V269.88ZM549.53 273.37V274.11H550.35V273.37H549.53ZM548.63 272.55H551.29V274.93H548.63V272.55ZM552.6 273.37V274.11H553.46V273.37H552.6ZM551.69 272.55H554.43V274.93H551.69V272.55ZM548.5 275.53H554.59V276.5H548.5V275.53ZM550.92 274.88H552.07V278.91H550.92V274.88ZM550.81 276.02L551.74 276.37C551.5 276.717 551.21 277.047 550.87 277.36C550.53 277.667 550.157 277.94 549.75 278.18C549.35 278.42 548.933 278.61 548.5 278.75C548.413 278.61 548.297 278.447 548.15 278.26C548.01 278.08 547.88 277.933 547.76 277.82C548.173 277.713 548.573 277.57 548.96 277.39C549.347 277.203 549.7 276.997 550.02 276.77C550.347 276.537 550.61 276.287 550.81 276.02ZM552.25 276.14C552.43 276.367 552.653 276.587 552.92 276.8C553.193 277.007 553.49 277.193 553.81 277.36C554.13 277.52 554.457 277.653 554.79 277.76C554.71 277.827 554.62 277.913 554.52 278.02C554.427 278.127 554.337 278.237 554.25 278.35C554.163 278.47 554.09 278.577 554.03 278.67C553.697 278.523 553.363 278.337 553.03 278.11C552.703 277.883 552.4 277.627 552.12 277.34C551.847 277.053 551.613 276.757 551.42 276.45L552.25 276.14ZM549.93 281.14H554.72V282.28H549.36L549.93 281.14ZM551.24 283.33H554.47V284.43H551.24V283.33ZM551.23 285.55H554.6V286.67H551.23V285.55ZM550.63 281.52H551.87V288.89H550.63V281.52ZM550.16 279.6L551.31 279.9C551.123 280.44 550.903 280.977 550.65 281.51C550.403 282.043 550.133 282.543 549.84 283.01C549.547 283.47 549.247 283.877 548.94 284.23C548.88 284.15 548.793 284.057 548.68 283.95C548.567 283.843 548.45 283.74 548.33 283.64C548.217 283.533 548.113 283.45 548.02 283.39C548.32 283.09 548.6 282.737 548.86 282.33C549.127 281.923 549.37 281.487 549.59 281.02C549.817 280.547 550.007 280.073 550.16 279.6ZM547.51 279.54L548.67 279.91C548.457 280.477 548.203 281.047 547.91 281.62C547.617 282.193 547.297 282.737 546.95 283.25C546.603 283.757 546.247 284.2 545.88 284.58C545.84 284.48 545.78 284.35 545.7 284.19C545.627 284.03 545.547 283.867 545.46 283.7C545.373 283.533 545.293 283.4 545.22 283.3C545.527 282.993 545.82 282.64 546.1 282.24C546.387 281.84 546.65 281.41 546.89 280.95C547.137 280.49 547.343 280.02 547.51 279.54ZM546.5 282.31L547.71 281.1V281.11V288.88H546.5V282.31ZM545.88 291.24H554.14V296.26H552.88V292.42H547.08V296.31H545.88V291.24ZM546.5 294.58H553.58V295.76H546.5V294.58ZM549.34 289.5H550.61V298.89H549.34V289.5ZM548.91 301.86C549.197 301.887 549.483 301.91 549.77 301.93C550.063 301.943 550.36 301.95 550.66 301.95C551.273 301.95 551.883 301.923 552.49 301.87C553.097 301.817 553.657 301.733 554.17 301.62V302.87C553.65 302.943 553.087 303.003 552.48 303.05C551.873 303.09 551.267 303.11 550.66 303.11C550.367 303.11 550.073 303.107 549.78 303.1C549.493 303.087 549.203 303.07 548.91 303.05V301.86ZM552.71 300.17C552.697 300.263 552.683 300.367 552.67 300.48C552.663 300.593 552.657 300.707 552.65 300.82C552.643 300.927 552.637 301.07 552.63 301.25C552.623 301.43 552.62 301.633 552.62 301.86C552.62 302.08 552.62 302.313 552.62 302.56C552.62 303.013 552.627 303.44 552.64 303.84C552.653 304.233 552.67 304.6 552.69 304.94C552.71 305.273 552.727 305.58 552.74 305.86C552.76 306.14 552.77 306.4 552.77 306.64C552.77 306.9 552.733 307.14 552.66 307.36C552.593 307.58 552.483 307.773 552.33 307.94C552.177 308.107 551.973 308.233 551.72 308.32C551.473 308.413 551.17 308.46 550.81 308.46C550.117 308.46 549.57 308.32 549.17 308.04C548.77 307.76 548.57 307.357 548.57 306.83C548.57 306.49 548.66 306.193 548.84 305.94C549.02 305.68 549.277 305.48 549.61 305.34C549.943 305.193 550.337 305.12 550.79 305.12C551.263 305.12 551.693 305.17 552.08 305.27C552.467 305.37 552.82 305.503 553.14 305.67C553.46 305.837 553.743 306.02 553.99 306.22C554.243 306.413 554.47 306.6 554.67 306.78L553.98 307.83C553.6 307.47 553.23 307.16 552.87 306.9C552.51 306.64 552.15 306.44 551.79 306.3C551.437 306.16 551.07 306.09 550.69 306.09C550.41 306.09 550.18 306.143 550 306.25C549.827 306.357 549.74 306.507 549.74 306.7C549.74 306.9 549.83 307.047 550.01 307.14C550.19 307.233 550.41 307.28 550.67 307.28C550.877 307.28 551.04 307.247 551.16 307.18C551.28 307.107 551.363 307.003 551.41 306.87C551.463 306.73 551.49 306.563 551.49 306.37C551.49 306.197 551.483 305.97 551.47 305.69C551.457 305.41 551.44 305.097 551.42 304.75C551.407 304.403 551.393 304.043 551.38 303.67C551.367 303.29 551.36 302.92 551.36 302.56C551.36 302.18 551.357 301.837 551.35 301.53C551.35 301.217 551.35 300.983 551.35 300.83C551.35 300.757 551.343 300.653 551.33 300.52C551.317 300.387 551.3 300.27 551.28 300.17H552.71ZM547.83 300.28C547.81 300.347 547.78 300.44 547.74 300.56C547.707 300.68 547.677 300.797 547.65 300.91C547.63 301.023 547.613 301.11 547.6 301.17C547.567 301.31 547.53 301.5 547.49 301.74C547.45 301.973 547.407 302.24 547.36 302.54C547.32 302.833 547.28 303.137 547.24 303.45C547.2 303.757 547.17 304.05 547.15 304.33C547.13 304.603 547.12 304.84 547.12 305.04C547.12 305.14 547.12 305.25 547.12 305.37C547.127 305.483 547.14 305.59 547.16 305.69C547.207 305.57 547.253 305.453 547.3 305.34C547.353 305.227 547.407 305.113 547.46 305C547.513 304.887 547.563 304.773 547.61 304.66L548.22 305.16C548.127 305.433 548.03 305.72 547.93 306.02C547.837 306.32 547.75 306.603 547.67 306.87C547.597 307.137 547.54 307.36 547.5 307.54C547.487 307.607 547.473 307.687 547.46 307.78C547.453 307.873 547.45 307.95 547.45 308.01C547.45 308.063 547.45 308.127 547.45 308.2C547.457 308.28 547.463 308.353 547.47 308.42L546.34 308.51C546.233 308.157 546.14 307.707 546.06 307.16C545.98 306.607 545.94 305.99 545.94 305.31C545.94 304.937 545.957 304.547 545.99 304.14C546.023 303.727 546.06 303.33 546.1 302.95C546.147 302.57 546.193 302.223 546.24 301.91C546.287 301.59 546.323 301.333 546.35 301.14C546.37 301 546.39 300.843 546.41 300.67C546.43 300.49 546.443 300.32 546.45 300.16L547.83 300.28ZM550.19 310.79H553.6V311.96H550.19V310.79ZM545.43 310.07H550.48V311.18H545.43V310.07ZM546.75 312.13H549.15V313.2H546.75V312.13ZM546.75 314.21H549.15V315.28H546.75V314.21ZM553.27 310.79H553.48L553.69 310.75L554.47 310.95C554.343 312.303 554.11 313.483 553.77 314.49C553.437 315.497 553 316.357 552.46 317.07C551.92 317.783 551.27 318.37 550.51 318.83C550.423 318.677 550.303 318.5 550.15 318.3C550.003 318.107 549.863 317.957 549.73 317.85C550.397 317.497 550.973 317 551.46 316.36C551.947 315.713 552.343 314.943 552.65 314.05C552.963 313.15 553.17 312.15 553.27 311.05V310.79ZM551.37 311.99C551.53 312.85 551.76 313.66 552.06 314.42C552.36 315.18 552.74 315.853 553.2 316.44C553.66 317.027 554.21 317.493 554.85 317.84C554.763 317.913 554.663 318.007 554.55 318.12C554.443 318.24 554.343 318.36 554.25 318.48C554.157 318.607 554.08 318.723 554.02 318.83C553.32 318.403 552.723 317.867 552.23 317.22C551.743 316.573 551.34 315.827 551.02 314.98C550.7 314.133 550.433 313.21 550.22 312.21L551.37 311.99ZM546.12 310.52H547.26V317.06H546.12V310.52ZM548.69 310.52H549.84V318.89H548.69V310.52ZM545.19 316.62C545.523 316.587 545.9 316.543 546.32 316.49C546.747 316.437 547.197 316.377 547.67 316.31C548.15 316.243 548.623 316.177 549.09 316.11L549.15 317.21C548.503 317.323 547.85 317.433 547.19 317.54C546.53 317.64 545.94 317.733 545.42 317.82L545.19 316.62ZM548.61 319.97C548.577 320.09 548.54 320.24 548.5 320.42C548.46 320.6 548.42 320.79 548.38 320.99C548.34 321.183 548.303 321.373 548.27 321.56C548.243 321.747 548.223 321.91 548.21 322.05C548.33 321.85 548.473 321.657 548.64 321.47C548.807 321.277 548.993 321.103 549.2 320.95C549.413 320.79 549.643 320.663 549.89 320.57C550.143 320.477 550.41 320.43 550.69 320.43C551.157 320.43 551.577 320.573 551.95 320.86C552.323 321.147 552.617 321.557 552.83 322.09C553.05 322.623 553.16 323.257 553.16 323.99C553.16 324.697 553.057 325.317 552.85 325.85C552.643 326.377 552.347 326.827 551.96 327.2C551.573 327.573 551.11 327.877 550.57 328.11C550.037 328.35 549.44 328.53 548.78 328.65L548.02 327.49C548.573 327.403 549.08 327.287 549.54 327.14C550.007 326.987 550.407 326.78 550.74 326.52C551.08 326.26 551.34 325.927 551.52 325.52C551.707 325.107 551.8 324.6 551.8 324C551.8 323.487 551.747 323.053 551.64 322.7C551.533 322.34 551.377 322.067 551.17 321.88C550.97 321.693 550.73 321.6 550.45 321.6C550.157 321.6 549.877 321.697 549.61 321.89C549.343 322.083 549.103 322.337 548.89 322.65C548.683 322.957 548.517 323.29 548.39 323.65C548.27 324.01 548.203 324.357 548.19 324.69C548.183 324.83 548.18 324.983 548.18 325.15C548.187 325.317 548.207 325.517 548.24 325.75L547.01 325.83C546.983 325.637 546.953 325.397 546.92 325.11C546.893 324.817 546.88 324.5 546.88 324.16C546.88 323.927 546.887 323.677 546.9 323.41C546.92 323.143 546.94 322.873 546.96 322.6C546.987 322.32 547.017 322.04 547.05 321.76C547.09 321.48 547.127 321.213 547.16 320.96C547.187 320.767 547.207 320.577 547.22 320.39C547.233 320.203 547.24 320.043 547.24 319.91L548.61 319.97ZM547.39 330.96H549.84V332.1H547.39V330.96ZM551.57 329.53H552.82V338.88H551.57V329.53ZM546.28 333.93L546.89 333.03C547.137 333.163 547.397 333.32 547.67 333.5C547.95 333.68 548.213 333.86 548.46 334.04C548.707 334.22 548.907 334.393 549.06 334.56L548.41 335.57C548.27 335.403 548.08 335.223 547.84 335.03C547.6 334.83 547.343 334.633 547.07 334.44C546.797 334.247 546.533 334.077 546.28 333.93ZM547.51 329.49L548.71 329.74C548.537 330.413 548.32 331.06 548.06 331.68C547.807 332.3 547.517 332.873 547.19 333.4C546.87 333.92 546.523 334.373 546.15 334.76C546.083 334.687 545.987 334.603 545.86 334.51C545.74 334.41 545.617 334.313 545.49 334.22C545.363 334.12 545.25 334.043 545.15 333.99C545.523 333.65 545.86 333.247 546.16 332.78C546.46 332.313 546.723 331.8 546.95 331.24C547.177 330.673 547.363 330.09 547.51 329.49ZM550.95 331.93C551.15 332.297 551.39 332.66 551.67 333.02C551.957 333.373 552.273 333.71 552.62 334.03C552.967 334.35 553.333 334.64 553.72 334.9C554.113 335.16 554.51 335.383 554.91 335.57C554.823 335.65 554.723 335.753 554.61 335.88C554.497 336 554.39 336.127 554.29 336.26C554.19 336.387 554.107 336.503 554.04 336.61C553.62 336.39 553.213 336.127 552.82 335.82C552.433 335.513 552.063 335.173 551.71 334.8C551.357 334.427 551.03 334.03 550.73 333.61C550.437 333.19 550.173 332.757 549.94 332.31L550.95 331.93ZM549.5 330.96H549.73L549.94 330.92L550.73 331.19C550.53 332.477 550.227 333.617 549.82 334.61C549.42 335.603 548.93 336.45 548.35 337.15C547.77 337.843 547.12 338.397 546.4 338.81C546.333 338.723 546.243 338.62 546.13 338.5C546.017 338.387 545.897 338.273 545.77 338.16C545.65 338.053 545.54 337.97 545.44 337.91C546.153 337.537 546.787 337.047 547.34 336.44C547.893 335.827 548.353 335.087 548.72 334.22C549.087 333.353 549.347 332.357 549.5 331.23V330.96ZM550.07 340.9C550.03 340.787 549.983 340.647 549.93 340.48C549.877 340.313 549.817 340.147 549.75 339.98L551.1 339.82C551.153 340.08 551.213 340.34 551.28 340.6C551.347 340.853 551.42 341.103 551.5 341.35C551.58 341.59 551.66 341.817 551.74 342.03C551.893 342.443 552.073 342.85 552.28 343.25C552.493 343.643 552.68 343.953 552.84 344.18C552.927 344.307 553.013 344.427 553.1 344.54C553.193 344.647 553.287 344.75 553.38 344.85L552.76 345.75C552.62 345.723 552.443 345.697 552.23 345.67C552.017 345.637 551.783 345.607 551.53 345.58C551.283 345.553 551.033 345.527 550.78 345.5C550.533 345.473 550.307 345.453 550.1 345.44L550.2 344.38C550.367 344.393 550.543 344.41 550.73 344.43C550.917 344.443 551.09 344.457 551.25 344.47C551.417 344.483 551.553 344.493 551.66 344.5C551.54 344.307 551.413 344.087 551.28 343.84C551.147 343.593 551.017 343.337 550.89 343.07C550.763 342.797 550.647 342.523 550.54 342.25C550.433 341.97 550.34 341.717 550.26 341.49C550.187 341.263 550.123 341.067 550.07 340.9ZM546.43 341.37C547.05 341.443 547.633 341.493 548.18 341.52C548.727 341.547 549.237 341.553 549.71 341.54C550.183 341.527 550.617 341.497 551.01 341.45C551.317 341.41 551.613 341.367 551.9 341.32C552.193 341.273 552.48 341.217 552.76 341.15C553.047 341.083 553.317 341.01 553.57 340.93L553.73 342.19C553.51 342.25 553.27 342.307 553.01 342.36C552.757 342.413 552.493 342.463 552.22 342.51C551.947 342.55 551.677 342.587 551.41 342.62C550.737 342.693 549.997 342.737 549.19 342.75C548.383 342.763 547.47 342.73 546.45 342.65L546.43 341.37ZM548.43 344.78C548.277 345.013 548.157 345.243 548.07 345.47C547.983 345.69 547.94 345.91 547.94 346.13C547.94 346.55 548.123 346.857 548.49 347.05C548.857 347.237 549.38 347.33 550.06 347.33C550.607 347.33 551.1 347.307 551.54 347.26C551.987 347.213 552.387 347.157 552.74 347.09L552.67 348.35C552.39 348.403 552.023 348.457 551.57 348.51C551.123 348.563 550.593 348.59 549.98 348.59C549.307 348.583 548.72 348.493 548.22 348.32C547.72 348.153 547.333 347.903 547.06 347.57C546.787 347.23 546.65 346.823 546.65 346.35C546.65 346.043 546.693 345.743 546.78 345.45C546.873 345.15 547.007 344.83 547.18 344.49L548.43 344.78ZM545.83 351.45C546.043 351.477 546.27 351.497 546.51 351.51C546.757 351.517 546.973 351.52 547.16 351.52C547.573 351.52 547.99 351.497 548.41 351.45C548.837 351.403 549.247 351.343 549.64 351.27C550.033 351.19 550.39 351.1 550.71 351L550.75 352.16C550.463 352.233 550.12 352.31 549.72 352.39C549.327 352.463 548.91 352.527 548.47 352.58C548.03 352.627 547.597 352.65 547.17 352.65C546.97 352.65 546.767 352.647 546.56 352.64C546.353 352.633 546.14 352.623 545.92 352.61L545.83 351.45ZM549.72 349.95C549.68 350.117 549.627 350.333 549.56 350.6C549.493 350.867 549.417 351.147 549.33 351.44C549.25 351.733 549.163 352.023 549.07 352.31C548.923 352.79 548.73 353.3 548.49 353.84C548.25 354.38 547.99 354.907 547.71 355.42C547.43 355.933 547.147 356.39 546.86 356.79L545.65 356.17C545.877 355.89 546.1 355.58 546.32 355.24C546.54 354.9 546.747 354.55 546.94 354.19C547.133 353.83 547.307 353.483 547.46 353.15C547.62 352.81 547.747 352.503 547.84 352.23C547.967 351.877 548.077 351.483 548.17 351.05C548.27 350.61 548.327 350.197 548.34 349.81L549.72 349.95ZM552.06 353.06C552.047 353.273 552.04 353.487 552.04 353.7C552.047 353.907 552.053 354.12 552.06 354.34C552.067 354.493 552.073 354.69 552.08 354.93C552.093 355.163 552.107 355.413 552.12 355.68C552.133 355.94 552.143 356.19 552.15 356.43C552.163 356.663 552.17 356.85 552.17 356.99C552.17 357.297 552.107 357.577 551.98 357.83C551.853 358.077 551.65 358.273 551.37 358.42C551.097 358.567 550.72 358.64 550.24 358.64C549.827 358.64 549.453 358.577 549.12 358.45C548.787 358.33 548.52 358.15 548.32 357.91C548.12 357.663 548.02 357.357 548.02 356.99C548.02 356.663 548.107 356.37 548.28 356.11C548.453 355.843 548.703 355.637 549.03 355.49C549.363 355.337 549.763 355.26 550.23 355.26C550.817 355.26 551.357 355.343 551.85 355.51C552.343 355.67 552.787 355.877 553.18 356.13C553.573 356.383 553.91 356.637 554.19 356.89L553.52 357.96C553.34 357.8 553.133 357.62 552.9 357.42C552.673 357.22 552.417 357.033 552.13 356.86C551.85 356.687 551.543 356.543 551.21 356.43C550.883 356.317 550.53 356.26 550.15 356.26C549.863 356.26 549.633 356.317 549.46 356.43C549.287 356.543 549.2 356.69 549.2 356.87C549.2 357.057 549.273 357.207 549.42 357.32C549.573 357.433 549.787 357.49 550.06 357.49C550.287 357.49 550.467 357.453 550.6 357.38C550.733 357.3 550.827 357.19 550.88 357.05C550.933 356.903 550.96 356.74 550.96 356.56C550.96 356.407 550.953 356.19 550.94 355.91C550.927 355.63 550.91 355.32 550.89 354.98C550.877 354.64 550.863 354.3 550.85 353.96C550.837 353.62 550.823 353.32 550.81 353.06H552.06ZM553.78 353.59C553.587 353.43 553.347 353.26 553.06 353.08C552.773 352.9 552.477 352.73 552.17 352.57C551.87 352.403 551.607 352.27 551.38 352.17L552.02 351.18C552.2 351.26 552.403 351.36 552.63 351.48C552.863 351.593 553.097 351.713 553.33 351.84C553.57 351.967 553.79 352.093 553.99 352.22C554.197 352.34 554.363 352.447 554.49 352.54L553.78 353.59ZM547.6 360.85C547.573 360.97 547.55 361.107 547.53 361.26C547.517 361.413 547.503 361.563 547.49 361.71C547.483 361.857 547.48 361.977 547.48 362.07C547.473 362.29 547.47 362.517 547.47 362.75C547.477 362.983 547.483 363.223 547.49 363.47C547.503 363.71 547.52 363.95 547.54 364.19C547.587 364.67 547.653 365.093 547.74 365.46C547.827 365.827 547.94 366.113 548.08 366.32C548.22 366.52 548.397 366.62 548.61 366.62C548.723 366.62 548.833 366.557 548.94 366.43C549.053 366.303 549.153 366.14 549.24 365.94C549.333 365.733 549.413 365.517 549.48 365.29C549.553 365.063 549.617 364.85 549.67 364.65L550.67 365.87C550.45 366.45 550.23 366.913 550.01 367.26C549.797 367.6 549.573 367.847 549.34 368C549.107 368.147 548.853 368.22 548.58 368.22C548.22 368.22 547.877 368.1 547.55 367.86C547.23 367.62 546.957 367.233 546.73 366.7C546.503 366.16 546.343 365.443 546.25 364.55C546.217 364.243 546.19 363.92 546.17 363.58C546.157 363.24 546.147 362.917 546.14 362.61C546.14 362.303 546.14 362.05 546.14 361.85C546.14 361.71 546.133 361.543 546.12 361.35C546.107 361.157 546.087 360.983 546.06 360.83L547.6 360.85ZM552.6 361.08C552.787 361.307 552.967 361.583 553.14 361.91C553.313 362.237 553.473 362.587 553.62 362.96C553.767 363.333 553.897 363.717 554.01 364.11C554.123 364.497 554.213 364.877 554.28 365.25C554.353 365.617 554.4 365.953 554.42 366.26L553.1 366.77C553.067 366.363 553.007 365.92 552.92 365.44C552.833 364.96 552.717 364.477 552.57 363.99C552.423 363.503 552.247 363.043 552.04 362.61C551.84 362.177 551.603 361.803 551.33 361.49L552.6 361.08ZM545.69 371.14C545.89 371.133 546.08 371.127 546.26 371.12C546.44 371.107 546.577 371.097 546.67 371.09C546.877 371.077 547.13 371.057 547.43 371.03C547.737 370.997 548.077 370.963 548.45 370.93C548.83 370.897 549.233 370.863 549.66 370.83C550.087 370.797 550.53 370.76 550.99 370.72C551.337 370.687 551.68 370.66 552.02 370.64C552.367 370.613 552.693 370.593 553 370.58C553.313 370.56 553.587 370.547 553.82 370.54L553.83 371.82C553.65 371.82 553.443 371.823 553.21 371.83C552.977 371.837 552.743 371.85 552.51 371.87C552.283 371.883 552.08 371.913 551.9 371.96C551.6 372.04 551.32 372.177 551.06 372.37C550.8 372.557 550.573 372.78 550.38 373.04C550.193 373.293 550.047 373.57 549.94 373.87C549.833 374.163 549.78 374.46 549.78 374.76C549.78 375.087 549.837 375.377 549.95 375.63C550.07 375.877 550.23 376.09 550.43 376.27C550.637 376.443 550.877 376.59 551.15 376.71C551.423 376.823 551.717 376.91 552.03 376.97C552.35 377.03 552.68 377.07 553.02 377.09L552.55 378.46C552.13 378.433 551.72 378.367 551.32 378.26C550.927 378.153 550.557 378.007 550.21 377.82C549.863 377.633 549.56 377.407 549.3 377.14C549.047 376.867 548.843 376.557 548.69 376.21C548.543 375.857 548.47 375.463 548.47 375.03C548.47 374.55 548.547 374.11 548.7 373.71C548.853 373.303 549.043 372.95 549.27 372.65C549.503 372.343 549.733 372.107 549.96 371.94C549.773 371.967 549.547 371.993 549.28 372.02C549.02 372.047 548.737 372.08 548.43 372.12C548.13 372.153 547.823 372.19 547.51 372.23C547.197 372.27 546.893 372.317 546.6 372.37C546.313 372.417 546.053 372.463 545.82 372.51L545.69 371.14ZM552.4 372.8C552.487 372.92 552.577 373.063 552.67 373.23C552.77 373.39 552.867 373.553 552.96 373.72C553.053 373.88 553.133 374.027 553.2 374.16L552.44 374.5C552.313 374.22 552.19 373.973 552.07 373.76C551.957 373.547 551.82 373.33 551.66 373.11L552.4 372.8ZM553.52 372.34C553.607 372.46 553.7 372.6 553.8 372.76C553.907 372.913 554.01 373.073 554.11 373.24C554.21 373.4 554.293 373.543 554.36 373.67L553.61 374.03C553.477 373.763 553.347 373.527 553.22 373.32C553.1 373.113 552.957 372.9 552.79 372.68L553.52 372.34ZM552.34 380.79C552.18 380.903 552.023 381.023 551.87 381.15C551.717 381.27 551.583 381.38 551.47 381.48C551.303 381.607 551.103 381.763 550.87 381.95C550.643 382.13 550.403 382.32 550.15 382.52C549.903 382.713 549.663 382.903 549.43 383.09C549.197 383.277 548.997 383.443 548.83 383.59C548.657 383.743 548.54 383.87 548.48 383.97C548.42 384.063 548.42 384.157 548.48 384.25C548.547 384.343 548.67 384.47 548.85 384.63C548.997 384.757 549.183 384.913 549.41 385.1C549.643 385.287 549.893 385.493 550.16 385.72C550.433 385.94 550.71 386.17 550.99 386.41C551.277 386.643 551.55 386.877 551.81 387.11C552.077 387.337 552.313 387.55 552.52 387.75L551.35 388.82C551.07 388.507 550.78 388.197 550.48 387.89C550.327 387.737 550.127 387.55 549.88 387.33C549.64 387.103 549.377 386.867 549.09 386.62C548.81 386.373 548.53 386.13 548.25 385.89C547.97 385.643 547.717 385.423 547.49 385.23C547.157 384.95 546.94 384.693 546.84 384.46C546.747 384.227 546.76 383.997 546.88 383.77C547.007 383.537 547.237 383.283 547.57 383.01C547.77 382.857 547.997 382.677 548.25 382.47C548.503 382.257 548.763 382.04 549.03 381.82C549.297 381.593 549.55 381.377 549.79 381.17C550.03 380.957 550.233 380.77 550.4 380.61C550.547 380.463 550.693 380.313 550.84 380.16C550.987 380.007 551.097 379.873 551.17 379.76L552.34 380.79ZM549.44 390.13C549.4 390.27 549.357 390.437 549.31 390.63C549.27 390.817 549.24 390.967 549.22 391.08C549.173 391.307 549.113 391.583 549.04 391.91C548.973 392.237 548.9 392.583 548.82 392.95C548.74 393.31 548.657 393.66 548.57 394C548.477 394.347 548.367 394.727 548.24 395.14C548.12 395.553 547.987 395.97 547.84 396.39C547.7 396.81 547.557 397.213 547.41 397.6C547.263 397.987 547.12 398.33 546.98 398.63L545.58 398.16C545.733 397.907 545.89 397.597 546.05 397.23C546.217 396.863 546.38 396.473 546.54 396.06C546.7 395.64 546.847 395.223 546.98 394.81C547.113 394.39 547.227 394.007 547.32 393.66C547.38 393.42 547.44 393.177 547.5 392.93C547.56 392.683 547.613 392.443 547.66 392.21C547.713 391.977 547.757 391.76 547.79 391.56C547.83 391.353 547.86 391.177 547.88 391.03C547.9 390.843 547.913 390.657 547.92 390.47C547.927 390.283 547.923 390.13 547.91 390.01L549.44 390.13ZM546.89 391.63C547.297 391.63 547.72 391.61 548.16 391.57C548.6 391.53 549.043 391.473 549.49 391.4C549.937 391.32 550.38 391.23 550.82 391.13V392.38C550.407 392.48 549.967 392.563 549.5 392.63C549.033 392.697 548.573 392.75 548.12 392.79C547.667 392.823 547.25 392.84 546.87 392.84C546.63 392.84 546.413 392.837 546.22 392.83C546.027 392.817 545.84 392.807 545.66 392.8L545.63 391.55C545.89 391.577 546.113 391.597 546.3 391.61C546.487 391.623 546.683 391.63 546.89 391.63ZM550.03 393.16C550.31 393.127 550.62 393.103 550.96 393.09C551.3 393.07 551.63 393.06 551.95 393.06C552.237 393.06 552.527 393.067 552.82 393.08C553.12 393.093 553.417 393.117 553.71 393.15L553.68 394.35C553.433 394.317 553.16 394.287 552.86 394.26C552.567 394.233 552.267 394.22 551.96 394.22C551.613 394.22 551.283 394.23 550.97 394.25C550.657 394.263 550.343 394.29 550.03 394.33V393.16ZM550.57 395.67C550.53 395.81 550.497 395.957 550.47 396.11C550.443 396.263 550.43 396.393 550.43 396.5C550.43 396.613 550.453 396.717 550.5 396.81C550.547 396.903 550.62 396.987 550.72 397.06C550.82 397.127 550.957 397.18 551.13 397.22C551.31 397.253 551.533 397.27 551.8 397.27C552.133 397.27 552.473 397.253 552.82 397.22C553.167 397.187 553.52 397.137 553.88 397.07L553.83 398.34C553.55 398.38 553.24 398.413 552.9 398.44C552.56 398.473 552.19 398.49 551.79 398.49C550.95 398.49 550.307 398.35 549.86 398.07C549.42 397.79 549.2 397.4 549.2 396.9C549.2 396.667 549.217 396.433 549.25 396.2C549.29 395.967 549.33 395.753 549.37 395.56L550.57 395.67ZM552.64 390.42C552.727 390.54 552.817 390.683 552.91 390.85C553.01 391.017 553.107 391.183 553.2 391.35C553.293 391.517 553.37 391.663 553.43 391.79L552.63 392.14C552.563 392 552.487 391.847 552.4 391.68C552.313 391.513 552.223 391.347 552.13 391.18C552.037 391.013 551.943 390.87 551.85 390.75L552.64 390.42ZM553.82 389.97C553.913 390.09 554.01 390.237 554.11 390.41C554.21 390.577 554.307 390.743 554.4 390.91C554.5 391.07 554.577 391.21 554.63 391.33L553.84 391.67C553.733 391.457 553.607 391.22 553.46 390.96C553.313 390.7 553.17 390.477 553.03 390.29L553.82 389.97ZM550.07 400.9C550.03 400.787 549.983 400.647 549.93 400.48C549.877 400.313 549.817 400.147 549.75 399.98L551.1 399.82C551.153 400.08 551.213 400.34 551.28 400.6C551.347 400.853 551.42 401.103 551.5 401.35C551.58 401.59 551.66 401.817 551.74 402.03C551.893 402.443 552.073 402.85 552.28 403.25C552.493 403.643 552.68 403.953 552.84 404.18C552.927 404.307 553.013 404.427 553.1 404.54C553.193 404.647 553.287 404.75 553.38 404.85L552.76 405.75C552.62 405.723 552.443 405.697 552.23 405.67C552.017 405.637 551.783 405.607 551.53 405.58C551.283 405.553 551.033 405.527 550.78 405.5C550.533 405.473 550.307 405.453 550.1 405.44L550.2 404.38C550.367 404.393 550.543 404.41 550.73 404.43C550.917 404.443 551.09 404.457 551.25 404.47C551.417 404.483 551.553 404.493 551.66 404.5C551.54 404.307 551.413 404.087 551.28 403.84C551.147 403.593 551.017 403.337 550.89 403.07C550.763 402.797 550.647 402.523 550.54 402.25C550.433 401.97 550.34 401.717 550.26 401.49C550.187 401.263 550.123 401.067 550.07 400.9ZM546.43 401.37C547.05 401.443 547.633 401.493 548.18 401.52C548.727 401.547 549.237 401.553 549.71 401.54C550.183 401.527 550.617 401.497 551.01 401.45C551.317 401.41 551.613 401.367 551.9 401.32C552.193 401.273 552.48 401.217 552.76 401.15C553.047 401.083 553.317 401.01 553.57 400.93L553.73 402.19C553.51 402.25 553.27 402.307 553.01 402.36C552.757 402.413 552.493 402.463 552.22 402.51C551.947 402.55 551.677 402.587 551.41 402.62C550.737 402.693 549.997 402.737 549.19 402.75C548.383 402.763 547.47 402.73 546.45 402.65L546.43 401.37ZM548.43 404.78C548.277 405.013 548.157 405.243 548.07 405.47C547.983 405.69 547.94 405.91 547.94 406.13C547.94 406.55 548.123 406.857 548.49 407.05C548.857 407.237 549.38 407.33 550.06 407.33C550.607 407.33 551.1 407.307 551.54 407.26C551.987 407.213 552.387 407.157 552.74 407.09L552.67 408.35C552.39 408.403 552.023 408.457 551.57 408.51C551.123 408.563 550.593 408.59 549.98 408.59C549.307 408.583 548.72 408.493 548.22 408.32C547.72 408.153 547.333 407.903 547.06 407.57C546.787 407.23 546.65 406.823 546.65 406.35C546.65 406.043 546.693 405.743 546.78 405.45C546.873 405.15 547.007 404.83 547.18 404.49L548.43 404.78ZM547.6 410.85C547.573 410.97 547.55 411.107 547.53 411.26C547.517 411.413 547.503 411.563 547.49 411.71C547.483 411.857 547.48 411.977 547.48 412.07C547.473 412.29 547.47 412.517 547.47 412.75C547.477 412.983 547.483 413.223 547.49 413.47C547.503 413.71 547.52 413.95 547.54 414.19C547.587 414.67 547.653 415.093 547.74 415.46C547.827 415.827 547.94 416.113 548.08 416.32C548.22 416.52 548.397 416.62 548.61 416.62C548.723 416.62 548.833 416.557 548.94 416.43C549.053 416.303 549.153 416.14 549.24 415.94C549.333 415.733 549.413 415.517 549.48 415.29C549.553 415.063 549.617 414.85 549.67 414.65L550.67 415.87C550.45 416.45 550.23 416.913 550.01 417.26C549.797 417.6 549.573 417.847 549.34 418C549.107 418.147 548.853 418.22 548.58 418.22C548.22 418.22 547.877 418.1 547.55 417.86C547.23 417.62 546.957 417.233 546.73 416.7C546.503 416.16 546.343 415.443 546.25 414.55C546.217 414.243 546.19 413.92 546.17 413.58C546.157 413.24 546.147 412.917 546.14 412.61C546.14 412.303 546.14 412.05 546.14 411.85C546.14 411.71 546.133 411.543 546.12 411.35C546.107 411.157 546.087 410.983 546.06 410.83L547.6 410.85ZM552.6 411.08C552.787 411.307 552.967 411.583 553.14 411.91C553.313 412.237 553.473 412.587 553.62 412.96C553.767 413.333 553.897 413.717 554.01 414.11C554.123 414.497 554.213 414.877 554.28 415.25C554.353 415.617 554.4 415.953 554.42 416.26L553.1 416.77C553.067 416.363 553.007 415.92 552.92 415.44C552.833 414.96 552.717 414.477 552.57 413.99C552.423 413.503 552.247 413.043 552.04 412.61C551.84 412.177 551.603 411.803 551.33 411.49L552.6 411.08Z" fill="#4B4B4B"/>
<path d="M769.646 626.854C769.841 627.049 770.158 627.049 770.353 626.854L773.535 623.672C773.73 623.476 773.73 623.16 773.535 622.964C773.34 622.769 773.023 622.769 772.828 622.964L769.999 625.793L767.171 622.964C766.976 622.769 766.659 622.769 766.464 622.964C766.268 623.16 766.268 623.476 766.464 623.672L769.646 626.854ZM444 561V561.5H445V561V560.5H444V561ZM447 561V561.5H449V561V560.5H447V561ZM451 561V561.5H453V561V560.5H451V561ZM455 561V561.5H457V561V560.5H455V561ZM459 561V561.5H461V561V560.5H459V561ZM463 561V561.5H465V561V560.5H463V561ZM467 561V561.5H469V561V560.5H467V561ZM471 561V561.5H473V561V560.5H471V561ZM475 561V561.5H477V561V560.5H475V561ZM479 561V561.5H481V561V560.5H479V561ZM483 561V561.5H485V561V560.5H483V561ZM487 561V561.5H489V561V560.5H487V561ZM491 561V561.5H493V561V560.5H491V561ZM495 561V561.5H497V561V560.5H495V561ZM499 561V561.5H501V561V560.5H499V561ZM503 561V561.5H505V561V560.5H503V561ZM507 561V561.5H509V561V560.5H507V561ZM511 561V561.5H513V561V560.5H511V561ZM515 561V561.5H517V561V560.5H515V561ZM519 561V561.5H521V561V560.5H519V561ZM523 561V561.5H525V561V560.5H523V561ZM527 561V561.5H529V561V560.5H527V561ZM531 561V561.5H533V561V560.5H531V561ZM535 561V561.5H537V561V560.5H535V561ZM539 561V561.5H541V561V560.5H539V561ZM543 561V561.5H545V561V560.5H543V561ZM547 561V561.5H549V561V560.5H547V561ZM551 561V561.5H553V561V560.5H551V561ZM555 561V561.5H557V561V560.5H555V561ZM559 561V561.5H561V561V560.5H559V561ZM563 561V561.5H565V561V560.5H563V561ZM567 561V561.5H569V561V560.5H567V561ZM571 561V561.5H573V561V560.5H571V561ZM575 561V561.5H577V561V560.5H575V561ZM579 561V561.5H581V561V560.5H579V561ZM583 561V561.5H585V561V560.5H583V561ZM587 561V561.5H589V561V560.5H587V561ZM591 561V561.5H593V561V560.5H591V561ZM595 561V561.5H597V561V560.5H595V561ZM599 561V561.5H601V561V560.5H599V561ZM603 561V561.5H605V561V560.5H603V561ZM607 561V561.5H609V561V560.5H607V561ZM611 561V561.5H613V561V560.5H611V561ZM615 561V561.5H617V561V560.5H615V561ZM619 561V561.5H621V561V560.5H619V561ZM623 561V561.5H625V561V560.5H623V561ZM627 561V561.5H629V561V560.5H627V561ZM631 561V561.5H633V561V560.5H631V561ZM635 561V561.5H637V561V560.5H635V561ZM639 561V561.5H641V561V560.5H639V561ZM643 561V561.5H645V561V560.5H643V561ZM647 561V561.5H649V561V560.5H647V561ZM651 561V561.5H653V561V560.5H651V561ZM655 561V561.5H657V561V560.5H655V561ZM659 561V561.5H661V561V560.5H659V561ZM663 561V561.5H665V561V560.5H663V561ZM667 561V561.5H669V561V560.5H667V561ZM671 561V561.5H673V561V560.5H671V561ZM675 561V561.5H677V561V560.5H675V561ZM679 561V561.5H681V561V560.5H679V561ZM683 561V561.5H685V561V560.5H683V561ZM687 561V561.5H689V561V560.5H687V561ZM691 561V561.5H693V561V560.5H691V561ZM695 561V561.5H697V561V560.5H695V561ZM699 561V561.5H701V561V560.5H699V561ZM703 561V561.5H705V561V560.5H703V561ZM707 561V561.5H709V561V560.5H707V561ZM711 561V561.5H713V561V560.5H711V561ZM715 561V561.5H717V561V560.5H715V561ZM719 561V561.5H721V561V560.5H719V561ZM723 561V561.5H725V561V560.5H723V561ZM727 561V561.5H729V561V560.5H727V561ZM731 561V561.5H733V561V560.5H731V561ZM735 561V561.5H737V561V560.5H735V561ZM739 561V561.5H741V561V560.5H739V561ZM743 561V561.5H745V561V560.5H743V561ZM747 561V561.5H749V561V560.5H747V561ZM751 561V561.5H753V561V560.5H751V561ZM755 561V561.5H757V561V560.5H755V561ZM759 561V561.5H759.999V561V560.5H759V561ZM759.999 561V561.5C760.314 561.5 760.625 561.515 760.931 561.545L760.98 561.047L761.028 560.55C760.69 560.517 760.346 560.5 759.999 560.5V561ZM762.903 561.428L762.758 561.907C763.359 562.089 763.934 562.328 764.478 562.62L764.714 562.179L764.95 561.738C764.349 561.416 763.712 561.151 763.048 560.95L762.903 561.428ZM766.343 563.27L766.026 563.656C766.507 564.051 766.948 564.492 767.343 564.973L767.73 564.656L768.116 564.339C767.679 563.807 767.192 563.32 766.661 562.883L766.343 563.27ZM768.82 566.285L768.379 566.521C768.671 567.065 768.911 567.641 769.093 568.241L769.571 568.096L770.05 567.951C769.848 567.287 769.583 566.65 769.261 566.049L768.82 566.285ZM769.952 570.019L769.454 570.068C769.484 570.374 769.499 570.685 769.499 571H769.999H770.499C770.499 570.653 770.482 570.31 770.449 569.971L769.952 570.019ZM769.999 571H769.499V571.991H769.999H770.499V571H769.999ZM769.999 573.973H769.499V575.955H769.999H770.499V573.973H769.999ZM769.999 577.937H769.499V579.92H769.999H770.499V577.937H769.999ZM769.999 581.902H769.499V583.884H769.999H770.499V581.902H769.999ZM769.999 585.866H769.499V587.848H769.999H770.499V585.866H769.999ZM769.999 589.83H769.499V591.812H769.999H770.499V589.83H769.999ZM769.999 593.795H769.499V595.777H769.999H770.499V593.795H769.999ZM769.999 597.759H769.499V599.741H769.999H770.499V597.759H769.999ZM769.999 601.723H769.499V603.705H769.999H770.499V601.723H769.999ZM769.999 605.688H769.499V607.67H769.999H770.499V605.688H769.999ZM769.999 609.652H769.499V611.634H769.999H770.499V609.652H769.999ZM769.999 613.616H769.499V615.598H769.999H770.499V613.616H769.999ZM769.999 617.58H769.499V619.563H769.999H770.499V617.58H769.999ZM769.999 621.545H769.499V623.527H769.999H770.499V621.545H769.999ZM769.999 625.509H769.499V626.5H769.999H770.499V625.509H769.999Z" fill="#4B4B4B"/>
<defs>
<clipPath id="clip0_2685_16365">
<rect x="34" y="244" width="213" height="120" fill="white"/>
</clipPath>
<clipPath id="clip1_2685_16365">
<rect x="261" y="244" width="213" height="120" fill="white"/>
</clipPath>
<clipPath id="clip2_2685_16365">
<rect x="34" y="378" width="213" height="120" fill="white"/>
</clipPath>
<clipPath id="clip3_2685_16365">
<rect x="261" y="378" width="213" height="120" fill="white"/>
</clipPath>
</defs>
</svg>
