<svg width="593" height="219" viewBox="0 0 593 219" fill="none" xmlns="http://www.w3.org/2000/svg">
<g clip-path="url(#clip0_3101_6784)">
<g clip-path="url(#clip1_3101_6784)">
<path d="M37.68 159H36.6V157.2H34.08V159H33V156.12V155.76V155.04H33.36V154.32H33.72V153.6H34.08V152.88H34.44V152.16H34.8V151.44H35.16V151.08H35.52V151.44H35.88V152.16H36.24V152.88H36.6V153.6H36.96V154.32H37.32V155.04H37.68V155.76V156.12V159ZM36.6 156.12V155.76V155.4H36.24V154.68H35.88V153.96H35.52V153.24H35.16V153.96H34.8V154.68H34.44V155.4H34.08V155.76V156.12H36.6ZM47.7647 157.2H47.4047V157.56H47.0447V157.92H46.6847V158.28H46.3247V158.64H45.9527V159H43.0847V151.08H45.9647V151.44H46.3247V151.8H46.6847V152.16H47.0447V152.52H47.4047V152.88H47.7647V157.2ZM46.6847 156.84V153.24H46.3247V152.88H45.9647V152.52H45.6047V152.16H44.1647V157.92H45.6047V157.56H45.9647V157.2H46.3247V156.84H46.6847ZM52.807 159H48.127V151.08H52.807V152.16H49.207V154.32H52.087V155.4H49.207V157.92H52.807V159ZM57.8494 159H53.1694V151.08H57.8494V152.16H54.2494V154.32H57.1294V155.4H54.2494V157.92H57.8494V159ZM62.8917 154.68H62.5317V155.04H62.1717V155.4H61.8117V155.76H59.2917V159H58.2117V151.08H61.8117V151.44H62.1717V151.8H62.5317V152.16H62.8917V154.68ZM61.8117 154.32V152.52H61.4517V152.16H59.2917V154.68H61.4517V154.32H61.8117ZM67.2141 156.48H63.9741V155.4H67.2141V156.48ZM72.9764 157.2H72.6164V157.56H72.2564V157.92H71.8964V158.28H71.5364V158.64H71.1644V159H68.2964V151.08H71.1764V151.44H71.5364V151.8H71.8964V152.16H72.2564V152.52H72.6164V152.88H72.9764V157.2ZM71.8964 156.84V153.24H71.5364V152.88H71.1764V152.52H70.8164V152.16H69.3764V157.92H70.8164V157.56H71.1764V157.2H71.5364V156.84H71.8964ZM78.0187 159H73.3387V157.92H75.1387V152.16H74.4187V151.08H76.9387V152.16H76.2187V157.92H78.0187V159ZM83.0611 154.68H82.7011V155.4H82.3411V156.12H81.9811V156.84H81.6211V157.56H81.2611V158.28H80.9011V159H80.5411V158.28H80.1811V157.56H79.8211V156.84H79.4611V156.12H79.1011V155.4H78.7411V154.68H78.3811V151.08H79.4611V154.32H79.8211V155.04H80.1811V155.76H80.5411V156.48H80.9011V155.76H81.2611V155.04H81.6211V154.32H81.9811V151.08H83.0611V154.68ZM88.1034 159H83.4234V151.08H88.1034V152.16H84.5034V154.32H87.3834V155.4H84.5034V157.92H88.1034V159ZM98.1881 157.92H97.8281V158.28H97.4681V158.64H97.1081V159H94.5881V158.64H94.2281V158.28H93.8681V157.92H93.5081V156.84H94.5881V157.56H94.9481V157.92H96.7481V157.56H97.1081V155.76H96.7481V155.4H94.5881V155.04H94.2281V154.68H93.8681V154.32H93.5081V152.16H93.8681V151.8H94.2281V151.44H94.5881V151.08H97.1081V151.44H97.4681V151.8H97.8281V152.16H98.1881V153.24H97.1081V152.52H96.7481V152.16H94.9481V152.52H94.5881V153.96H94.9481V154.32H97.1081V154.68H97.4681V155.04H97.8281V155.4H98.1881V157.92ZM103.23 159H98.5505V151.08H103.23V152.16H99.6305V154.32H102.51V155.4H99.6305V157.92H103.23V159ZM108.273 157.92H107.913V158.28H107.553V158.64H107.193V159H104.673V158.64H104.313V158.28H103.953V157.92H103.593V156.84H104.673V157.56H105.033V157.92H106.833V157.56H107.193V155.76H106.833V155.4H104.673V155.04H104.313V154.68H103.953V154.32H103.593V152.16H103.953V151.8H104.313V151.44H104.673V151.08H107.193V151.44H107.553V151.8H107.913V152.16H108.273V153.24H107.193V152.52H106.833V152.16H105.033V152.52H104.673V153.96H105.033V154.32H107.193V154.68H107.553V155.04H107.913V155.4H108.273V157.92ZM113.315 157.92H112.955V158.28H112.595V158.64H112.235V159H109.715V158.64H109.355V158.28H108.995V157.92H108.635V156.84H109.715V157.56H110.075V157.92H111.875V157.56H112.235V155.76H111.875V155.4H109.715V155.04H109.355V154.68H108.995V154.32H108.635V152.16H108.995V151.8H109.355V151.44H109.715V151.08H112.235V151.44H112.595V151.8H112.955V152.16H113.315V153.24H112.235V152.52H111.875V152.16H110.075V152.52H109.715V153.96H110.075V154.32H112.235V154.68H112.595V155.04H112.955V155.4H113.315V157.92ZM118.357 159H113.677V157.92H115.477V152.16H114.757V151.08H117.277V152.16H116.557V157.92H118.357V159ZM123.4 157.56H123.04V157.92H122.68V158.28H122.32V158.64H121.96V159H120.16V158.64H119.8V158.28H119.44V157.92H119.08V157.56H118.72V152.52H119.08V152.16H119.44V151.8H119.8V151.44H120.16V151.08H121.96V151.44H122.32V151.8H122.68V152.16H123.04V152.52H123.4V157.56ZM122.32 157.2V152.88H121.96V152.52H121.6V152.16H120.52V152.52H120.16V152.88H119.8V157.2H120.16V157.56H120.52V157.92H121.6V157.56H121.96V157.2H122.32ZM128.442 159H127.362V158.64H127.002V157.92H126.642V157.2H126.282V156.48H125.922V155.76H125.562V155.04H125.202V154.32H124.842V159H123.762V151.08H124.482V151.8H124.842V152.52H125.202V153.24H125.562V153.96H125.922V154.68H126.282V155.4H126.642V156.12H127.002V156.84H127.362V151.08H128.442V159ZM37.68 166.16H35.88V173H34.8V166.16H33V165.08H37.68V166.16ZM42.7223 171.56H42.3623V171.92H42.0023V172.28H41.6423V172.64H41.2823V173H39.4823V172.64H39.1223V172.28H38.7623V171.92H38.4023V171.56H38.0423V166.52H38.4023V166.16H38.7623V165.8H39.1223V165.44H39.4823V165.08H41.2823V165.44H41.6423V165.8H42.0023V166.16H42.3623V166.52H42.7223V171.56ZM41.6423 171.2V166.88H41.2823V166.52H40.9223V166.16H39.8423V166.52H39.4823V166.88H39.1223V171.2H39.4823V171.56H39.8423V171.92H40.9223V171.56H41.2823V171.2H41.6423ZM52.807 173H51.727V171.2H49.207V173H48.127V170.12V169.76V169.04H48.487V168.32H48.847V167.6H49.207V166.88H49.567V166.16H49.927V165.44H50.287V165.08H50.647V165.44H51.007V166.16H51.367V166.88H51.727V167.6H52.087V168.32H52.447V169.04H52.807V169.76V170.12V173ZM51.727 170.12V169.76V169.4H51.367V168.68H51.007V167.96H50.647V167.24H50.287V167.96H49.927V168.68H49.567V169.4H49.207V169.76V170.12H51.727ZM57.8494 173H53.1694V165.08H54.2494V171.92H57.8494V173ZM62.8917 173H58.2117V171.92H60.0117V166.16H59.2917V165.08H61.8117V166.16H61.0917V171.92H62.8917V173ZM67.9341 172.28H67.5741V172.64H67.2141V173H64.6941V172.64H64.3341V172.28H63.9741V171.92H63.6141V171.56H63.2541V166.52H63.6141V166.16H63.9741V165.8H64.3341V165.44H64.6941V165.08H67.2141V165.44H67.5741V165.8H67.9341V166.52H66.8541V166.16H65.0541V166.52H64.6941V166.88H64.3341V171.2H64.6941V171.56H65.0541V171.92H66.8541V169.76H66.4941V170.12H65.4141V168.68H67.9341V172.28ZM72.9764 173H71.8964V172.64H71.5364V171.92H71.1764V171.2H70.8164V170.48H70.4564V169.76H70.0964V169.04H69.7364V168.32H69.3764V173H68.2964V165.08H69.0164V165.8H69.3764V166.52H69.7364V167.24H70.0964V167.96H70.4564V168.68H70.8164V169.4H71.1764V170.12H71.5364V170.84H71.8964V165.08H72.9764V173ZM83.0611 171.56H82.7011V171.92H82.3411V172.28H81.9811V172.64H81.6211V173H79.8211V172.64H79.4611V172.28H79.1011V171.92H78.7411V171.56H78.3811V166.52H78.7411V166.16H79.1011V165.8H79.4611V165.44H79.8211V165.08H81.6211V165.44H81.9811V165.8H82.3411V166.16H82.7011V166.52H83.0611V171.56ZM81.9811 171.2V166.88H81.6211V166.52H81.2611V166.16H80.1811V166.52H79.8211V166.88H79.4611V171.2H79.8211V171.56H80.1811V171.92H81.2611V171.56H81.6211V171.2H81.9811ZM88.1034 173H87.0234V172.64H86.6634V171.92H86.3034V171.2H85.9434V170.48H85.5834V169.76H85.2234V169.04H84.8634V168.32H84.5034V173H83.4234V165.08H84.1434V165.8H84.5034V166.52H84.8634V167.24H85.2234V167.96H85.5834V168.68H85.9434V169.4H86.3034V170.12H86.6634V170.84H87.0234V165.08H88.1034V173ZM98.1881 172.28H97.8281V172.64H97.4681V173H94.9481V172.64H94.5881V172.28H94.2281V171.92H93.8681V171.56H93.5081V166.52H93.8681V166.16H94.2281V165.8H94.5881V165.44H94.9481V165.08H97.4681V165.44H97.8281V165.8H98.1881V166.52H97.1081V166.16H95.3081V166.52H94.9481V166.88H94.5881V171.2H94.9481V171.56H95.3081V171.92H97.1081V169.76H96.7481V170.12H95.6681V168.68H98.1881V172.28ZM103.23 171.56H102.87V171.92H102.51V172.28H102.15V172.64H101.79V173H99.9905V172.64H99.6305V172.28H99.2705V171.92H98.9105V171.56H98.5505V166.52H98.9105V166.16H99.2705V165.8H99.6305V165.44H99.9905V165.08H101.79V165.44H102.15V165.8H102.51V166.16H102.87V166.52H103.23V171.56ZM102.15 171.2V166.88H101.79V166.52H101.43V166.16H100.35V166.52H99.9905V166.88H99.6305V171.2H99.9905V171.56H100.35V171.92H101.43V171.56H101.79V171.2H102.15ZM108.273 173H107.193V171.2H104.673V173H103.593V170.12V169.76V169.04H103.953V168.32H104.313V167.6H104.673V166.88H105.033V166.16H105.393V165.44H105.753V165.08H106.113V165.44H106.473V166.16H106.833V166.88H107.193V167.6H107.553V168.32H107.913V169.04H108.273V169.76V170.12V173ZM107.193 170.12V169.76V169.4H106.833V168.68H106.473V167.96H106.113V167.24H105.753V167.96H105.393V168.68H105.033V169.4H104.673V169.76V170.12H107.193ZM113.315 173H108.635V165.08H109.715V171.92H113.315V173ZM118.357 171.92H117.997V172.28H117.637V172.64H117.277V173H114.757V172.64H114.397V172.28H114.037V171.92H113.677V170.84H114.757V171.56H115.117V171.92H116.917V171.56H117.277V169.76H116.917V169.4H114.757V169.04H114.397V168.68H114.037V168.32H113.677V166.16H114.037V165.8H114.397V165.44H114.757V165.08H117.277V165.44H117.637V165.8H117.997V166.16H118.357V167.24H117.277V166.52H116.917V166.16H115.117V166.52H114.757V167.96H115.117V168.32H117.277V168.68H117.637V169.04H117.997V169.4H118.357V171.92ZM120.52 173.72H120.88V173H120.16V171.56H121.6V173.72H121.24V174.08H120.52V173.72ZM37.68 185.92H37.32V186.28H36.96V186.64H36.6V187H34.44V186.64H34.08V186.28H33.72V185.92H33.36V185.56H33V180.52H33.36V180.16H33.72V179.8H34.08V179.44H34.44V179.08H36.6V179.44H36.96V179.8H37.32V180.16H37.68V181.24H36.6V180.52H36.24V180.16H34.8V180.52H34.44V180.88H34.08V185.2H34.44V185.56H34.8V185.92H36.24V185.56H36.6V184.84H37.68V185.92ZM42.7223 185.56H42.3623V185.92H42.0023V186.28H41.6423V186.64H41.2823V187H39.4823V186.64H39.1223V186.28H38.7623V185.92H38.4023V185.56H38.0423V180.52H38.4023V180.16H38.7623V179.8H39.1223V179.44H39.4823V179.08H41.2823V179.44H41.6423V179.8H42.0023V180.16H42.3623V180.52H42.7223V185.56ZM41.6423 185.2V180.88H41.2823V180.52H40.9223V180.16H39.8423V180.52H39.4823V180.88H39.1223V185.2H39.4823V185.56H39.8423V185.92H40.9223V185.56H41.2823V185.2H41.6423ZM47.7647 187H46.6847V186.64H46.3247V185.92H45.9647V185.2H45.6047V184.48H45.2447V183.76H44.8847V183.04H44.5247V182.32H44.1647V187H43.0847V179.08H43.8047V179.8H44.1647V180.52H44.5247V181.24H44.8847V181.96H45.2447V182.68H45.6047V183.4H45.9647V184.12H46.3247V184.84H46.6847V179.08H47.7647V187ZM52.807 185.92H52.447V186.28H52.087V186.64H51.727V187H49.207V186.64H48.847V186.28H48.487V185.92H48.127V184.84H49.207V185.56H49.567V185.92H51.367V185.56H51.727V183.76H51.367V183.4H49.207V183.04H48.847V182.68H48.487V182.32H48.127V180.16H48.487V179.8H48.847V179.44H49.207V179.08H51.727V179.44H52.087V179.8H52.447V180.16H52.807V181.24H51.727V180.52H51.367V180.16H49.567V180.52H49.207V181.96H49.567V182.32H51.727V182.68H52.087V183.04H52.447V183.4H52.807V185.92ZM57.8494 180.16H56.0494V187H54.9694V180.16H53.1694V179.08H57.8494V180.16ZM62.8917 187H61.8117V185.56H61.4517V184.84H61.0917V184.12H60.7317V183.4H59.2917V187H58.2117V179.08H61.8117V179.44H62.1717V179.8H62.5317V180.16H62.8917V182.32H62.5317V182.68H62.1717V183.04H61.8117V183.76H62.1717V184.48H62.5317V185.2H62.8917V187ZM61.8117 181.96V180.52H61.4517V180.16H59.2917V182.32H61.4517V181.96H61.8117ZM67.9341 187H66.8541V185.2H64.3341V187H63.2541V184.12V183.76V183.04H63.6141V182.32H63.9741V181.6H64.3341V180.88H64.6941V180.16H65.0541V179.44H65.4141V179.08H65.7741V179.44H66.1341V180.16H66.4941V180.88H66.8541V181.6H67.2141V182.32H67.5741V183.04H67.9341V183.76V184.12V187ZM66.8541 184.12V183.76V183.4H66.4941V182.68H66.1341V181.96H65.7741V181.24H65.4141V181.96H65.0541V182.68H64.6941V183.4H64.3341V183.76V184.12H66.8541ZM72.9764 187H68.2964V185.92H70.0964V180.16H69.3764V179.08H71.8964V180.16H71.1764V185.92H72.9764V187ZM78.0187 187H76.9387V186.64H76.5787V185.92H76.2187V185.2H75.8587V184.48H75.4987V183.76H75.1387V183.04H74.7787V182.32H74.4187V187H73.3387V179.08H74.0587V179.8H74.4187V180.52H74.7787V181.24H75.1387V181.96H75.4987V182.68H75.8587V183.4H76.2187V184.12H76.5787V184.84H76.9387V179.08H78.0187V187ZM83.0611 180.16H81.2611V187H80.1811V180.16H78.3811V179.08H83.0611V180.16ZM88.1034 185.92H87.7434V186.28H87.3834V186.64H87.0234V187H84.5034V186.64H84.1434V186.28H83.7834V185.92H83.4234V184.84H84.5034V185.56H84.8634V185.92H86.6634V185.56H87.0234V183.76H86.6634V183.4H84.5034V183.04H84.1434V182.68H83.7834V182.32H83.4234V180.16H83.7834V179.8H84.1434V179.44H84.5034V179.08H87.0234V179.44H87.3834V179.8H87.7434V180.16H88.1034V181.24H87.0234V180.52H86.6634V180.16H84.8634V180.52H84.5034V181.96H84.8634V182.32H87.0234V182.68H87.3834V183.04H87.7434V183.4H88.1034V185.92ZM90.2658 187.72H90.6258V187H89.9058V185.56H91.3458V187.72H90.9858V188.08H90.2658V187.72ZM103.23 187H102.15V185.2H99.6305V187H98.5505V184.12V183.76V183.04H98.9105V182.32H99.2705V181.6H99.6305V180.88H99.9905V180.16H100.35V179.44H100.71V179.08H101.07V179.44H101.43V180.16H101.79V180.88H102.15V181.6H102.51V182.32H102.87V183.04H103.23V183.76V184.12V187ZM102.15 184.12V183.76V183.4H101.79V182.68H101.43V181.96H101.07V181.24H100.71V181.96H100.35V182.68H99.9905V183.4H99.6305V183.76V184.12H102.15ZM108.273 187H107.193V186.64H106.833V185.92H106.473V185.2H106.113V184.48H105.753V183.76H105.393V183.04H105.033V182.32H104.673V187H103.593V179.08H104.313V179.8H104.673V180.52H105.033V181.24H105.393V181.96H105.753V182.68H106.113V183.4H106.473V184.12H106.833V184.84H107.193V179.08H108.273V187ZM113.315 185.2H112.955V185.56H112.595V185.92H112.235V186.28H111.875V186.64H111.503V187H108.635V179.08H111.515V179.44H111.875V179.8H112.235V180.16H112.595V180.52H112.955V180.88H113.315V185.2ZM112.235 184.84V181.24H111.875V180.88H111.515V180.52H111.155V180.16H109.715V185.92H111.155V185.56H111.515V185.2H111.875V184.84H112.235ZM37.68 201H36.6V199.56H36.24V198.84H35.88V198.12H35.52V197.4H34.08V201H33V193.08H36.6V193.44H36.96V193.8H37.32V194.16H37.68V196.32H37.32V196.68H36.96V197.04H36.6V197.76H36.96V198.48H37.32V199.2H37.68V201ZM36.6 195.96V194.52H36.24V194.16H34.08V196.32H36.24V195.96H36.6ZM42.7223 201H38.0423V199.92H39.8423V194.16H39.1223V193.08H41.6423V194.16H40.9223V199.92H42.7223V201ZM47.7647 199.92H47.4047V200.28H47.0447V200.64H46.6847V201H44.1647V200.64H43.8047V200.28H43.4447V199.92H43.0847V198.84H44.1647V199.56H44.5247V199.92H46.3247V199.56H46.6847V197.76H46.3247V197.4H44.1647V197.04H43.8047V196.68H43.4447V196.32H43.0847V194.16H43.4447V193.8H43.8047V193.44H44.1647V193.08H46.6847V193.44H47.0447V193.8H47.4047V194.16H47.7647V195.24H46.6847V194.52H46.3247V194.16H44.5247V194.52H44.1647V195.96H44.5247V196.32H46.6847V196.68H47.0447V197.04H47.4047V197.4H47.7647V199.92ZM52.807 201H51.727V200.28H51.367V199.56H51.007V198.84H50.647V198.12H50.287V197.4H49.567V197.76H49.207V201H48.127V193.08H49.207V196.32H49.567V195.96H49.927V195.6H50.287V195.24H50.647V194.88H51.007V194.52H51.367V194.148H51.727V193.8H52.087V193.44H52.447V193.08H52.807V194.52H52.447V194.88H52.087V195.24H51.727V195.588H51.367V195.96H51.007V196.32H50.647V196.68H51.007V197.04H51.367V197.76H51.727V198.48H52.087V199.2H52.447V199.92H52.807V201ZM57.8494 199.92H57.4894V200.28H57.1294V200.64H56.7694V201H54.2494V200.64H53.8894V200.28H53.5294V199.92H53.1694V198.84H54.2494V199.56H54.6094V199.92H56.4094V199.56H56.7694V197.76H56.4094V197.4H54.2494V197.04H53.8894V196.68H53.5294V196.32H53.1694V194.16H53.5294V193.8H53.8894V193.44H54.2494V193.08H56.7694V193.44H57.1294V193.8H57.4894V194.16H57.8494V195.24H56.7694V194.52H56.4094V194.16H54.6094V194.52H54.2494V195.96H54.6094V196.32H56.7694V196.68H57.1294V197.04H57.4894V197.4H57.8494V199.92Z" fill="#D9D9D9"/>
<path d="M37.68 25H33V23.92H34.8V18.16H34.08V17.08H36.6V18.16H35.88V23.92H37.68V25ZM42.7223 23.2H42.3623V23.56H42.0023V23.92H41.6423V24.28H41.2823V24.64H40.9103V25H38.0423V17.08H40.9223V17.44H41.2823V17.8H41.6423V18.16H42.0023V18.52H42.3623V18.88H42.7223V23.2ZM41.6423 22.84V19.24H41.2823V18.88H40.9223V18.52H40.5623V18.16H39.1223V23.92H40.5623V23.56H40.9223V23.2H41.2823V22.84H41.6423ZM45.9647 25H44.5247V23.56H45.9647V25ZM52.807 25H48.127V23.92H49.927V18.16H48.847V17.08H51.007V23.92H52.807V25ZM56.0494 25H54.6094V23.56H56.0494V25ZM62.8917 23.56H62.5317V23.92H62.1717V24.28H61.8117V24.64H61.4517V25H59.6517V24.64H59.2917V24.28H58.9317V23.92H58.5717V23.56H58.2117V18.52H58.5717V18.16H58.9317V17.8H59.2917V17.44H59.6517V17.08H61.4517V17.44H61.8117V17.8H62.1717V18.16H62.5317V18.52H62.8917V23.56ZM61.4517 18.88V18.52V18.16H59.6517V18.52H59.2917V22.48H59.6517V21.76H60.0117V21.04H60.3717V20.32H60.7317V19.6H61.0917V18.88H61.4517ZM61.8117 23.56V19.96H61.4517V20.68H61.0917V21.4H60.7317V22.12H60.3717V22.84H60.0117V23.56H59.6517V23.92H61.4517V23.56H61.8117ZM67.9341 23.56H67.5741V23.92H67.2141V24.28H66.8541V24.64H66.4941V25H64.6941V24.64H64.3341V24.28H63.9741V23.92H63.6141V23.56H63.2541V18.52H63.6141V18.16H63.9741V17.8H64.3341V17.44H64.6941V17.08H66.4941V17.44H66.8541V17.8H67.2141V18.16H67.5741V18.52H67.9341V23.56ZM66.4941 18.88V18.52V18.16H64.6941V18.52H64.3341V22.48H64.6941V21.76H65.0541V21.04H65.4141V20.32H65.7741V19.6H66.1341V18.88H66.4941ZM66.8541 23.56V19.96H66.4941V20.68H66.1341V21.4H65.7741V22.12H65.4141V22.84H65.0541V23.56H64.6941V23.92H66.4941V23.56H66.8541ZM72.9764 25H68.2964V23.92H70.0964V18.16H69.0164V17.08H71.1764V23.92H72.9764V25Z" fill="#4B4B4B"/>
<rect x="16" width="6" height="6" fill="#4B4B4B"/>
<path d="M124 29H120V25H124V29ZM132 29H128V25H132V29ZM128 25H124V21H128V25ZM124 21H120V17H124V21ZM132 21H128V17H132V21Z" fill="#4B4B4B"/>
<rect x="143" width="6" height="6" fill="#4B4B4B"/>
<rect x="16" y="213" width="6" height="6" fill="#4B4B4B"/>
<rect x="143" y="213" width="6" height="6" fill="#4B4B4B"/>
</g>
<rect x="16.5" y="0.5" width="132" height="218" stroke="#4B4B4B"/>
<g clip-path="url(#clip2_3101_6784)">
<path d="M185.68 173H184.96V172.64H184.6H184.24V173H182.44V172.64H182.08V172.28H181.72V171.92H181.36V171.56H181V166.52H181.36V166.16H181.72V165.8H182.08V165.44H182.44V165.08H184.24V165.44H184.6V165.8H184.96V166.16H185.32V166.52H185.68V171.56H185.32V171.92V172.28H185.68V173ZM184.6 171.2V166.88H184.24V166.52H183.88V166.16H182.8V166.52H182.44V166.88H182.08V171.2H182.44V171.56H182.8V171.92H183.88V171.56H183.52V171.2H183.16V170.84H182.8V170.48H183.16H183.52H183.88V170.84H184.24V171.2H184.6ZM190.722 171.92H190.362V172.28H190.002V172.64H189.642V173H187.122V172.64H186.762V172.28H186.402V171.92H186.042V165.08H187.122V171.56H187.482V171.92H189.282V171.56H189.642V165.08H190.722V171.92ZM195.765 173H191.085V171.92H192.885V166.16H192.165V165.08H194.685V166.16H193.965V171.92H195.765V173ZM200.807 171.92H200.447V172.28H200.087V172.64H199.727V173H197.567V172.64H197.207V172.28H196.847V171.92H196.487V171.56H196.127V166.52H196.487V166.16H196.847V165.8H197.207V165.44H197.567V165.08H199.727V165.44H200.087V165.8H200.447V166.16H200.807V167.24H199.727V166.52H199.367V166.16H197.927V166.52H197.567V166.88H197.207V171.2H197.567V171.56H197.927V171.92H199.367V171.56H199.727V170.84H200.807V171.92ZM205.849 173H204.769V172.28H204.409V171.56H204.049V170.84H203.689V170.12H203.329V169.4H202.609V169.76H202.249V173H201.169V165.08H202.249V168.32H202.609V167.96H202.969V167.6H203.329V167.24H203.689V166.88H204.049V166.52H204.409V166.148H204.769V165.8H205.129V165.44H205.489V165.08H205.849V166.52H205.489V166.88H205.129V167.24H204.769V167.588H204.409V167.96H204.049V168.32H203.689V168.68H204.049V169.04H204.409V169.76H204.769V170.48H205.129V171.2H205.489V171.92H205.849V173ZM215.934 166.16H214.134V173H213.054V166.16H211.254V165.08H215.934V166.16ZM220.976 173H216.296V165.08H220.976V166.16H217.376V168.32H220.256V169.4H217.376V171.92H220.976V173ZM226.019 171.92H225.659V172.28H225.299V172.64H224.939V173H222.779V172.64H222.419V172.28H222.059V171.92H221.699V171.56H221.339V166.52H221.699V166.16H222.059V165.8H222.419V165.44H222.779V165.08H224.939V165.44H225.299V165.8H225.659V166.16H226.019V167.24H224.939V166.52H224.579V166.16H223.139V166.52H222.779V166.88H222.419V171.2H222.779V171.56H223.139V171.92H224.579V171.56H224.939V170.84H226.019V171.92ZM231.061 173H229.981V169.4H227.461V173H226.381V165.08H227.461V168.32H229.981V165.08H231.061V173ZM241.146 173H240.066V171.2H237.546V173H236.466V170.12V169.76V169.04H236.826V168.32H237.186V167.6H237.546V166.88H237.906V166.16H238.266V165.44H238.626V165.08H238.986V165.44H239.346V166.16H239.706V166.88H240.066V167.6H240.426V168.32H240.786V169.04H241.146V169.76V170.12V173ZM240.066 170.12V169.76V169.4H239.706V168.68H239.346V167.96H238.986V167.24H238.626V167.96H238.266V168.68H237.906V169.4H237.546V169.76V170.12H240.066ZM246.188 171.92H245.828V172.28H245.468V172.64H245.108V173H242.588V172.64H242.228V172.28H241.868V171.92H241.508V165.08H242.588V171.56H242.948V171.92H244.748V171.56H245.108V165.08H246.188V171.92ZM251.23 171.2H250.87V171.56H250.51V171.92H250.15V172.28H249.79V172.64H249.418V173H246.55V165.08H249.43V165.44H249.79V165.8H250.15V166.16H250.51V166.52H250.87V166.88H251.23V171.2ZM250.15 170.84V167.24H249.79V166.88H249.43V166.52H249.07V166.16H247.63V171.92H249.07V171.56H249.43V171.2H249.79V170.84H250.15ZM256.273 173H251.593V171.92H253.393V166.16H252.673V165.08H255.193V166.16H254.473V171.92H256.273V173ZM261.315 166.16H259.515V173H258.435V166.16H256.635V165.08H261.315V166.16ZM266.357 171.92H265.997V172.28H265.637V172.64H265.277V173H262.757V172.64H262.397V172.28H262.037V171.92H261.677V170.84H262.757V171.56H263.117V171.92H264.917V171.56H265.277V169.76H264.917V169.4H262.757V169.04H262.397V168.68H262.037V168.32H261.677V166.16H262.037V165.8H262.397V165.44H262.757V165.08H265.277V165.44H265.637V165.8H265.997V166.16H266.357V167.24H265.277V166.52H264.917V166.16H263.117V166.52H262.757V167.96H263.117V168.32H265.277V168.68H265.637V169.04H265.997V169.4H266.357V171.92ZM185.68 185.56H185.32V185.92H184.96V186.28H184.6V186.64H184.24V187H182.44V186.64H182.08V186.28H181.72V185.92H181.36V185.56H181V180.52H181.36V180.16H181.72V179.8H182.08V179.44H182.44V179.08H184.24V179.44H184.6V179.8H184.96V180.16H185.32V180.52H185.68V185.56ZM184.6 185.2V180.88H184.24V180.52H183.88V180.16H182.8V180.52H182.44V180.88H182.08V185.2H182.44V185.56H182.8V185.92H183.88V185.56H184.24V185.2H184.6ZM190.722 187H189.642V185.56H189.282V184.84H188.922V184.12H188.562V183.4H187.122V187H186.042V179.08H189.642V179.44H190.002V179.8H190.362V180.16H190.722V182.32H190.362V182.68H190.002V183.04H189.642V183.76H190.002V184.48H190.362V185.2H190.722V187ZM189.642 181.96V180.52H189.282V180.16H187.122V182.32H189.282V181.96H189.642ZM200.807 180.16H197.207V182.32H199.727V183.4H197.207V187H196.127V179.08H200.807V180.16ZM205.849 187H201.169V179.08H205.849V180.16H202.249V182.32H205.129V183.4H202.249V185.92H205.849V187ZM210.892 187H209.812V185.2H207.292V187H206.212V184.12V183.76V183.04H206.572V182.32H206.932V181.6H207.292V180.88H207.652V180.16H208.012V179.44H208.372V179.08H208.732V179.44H209.092V180.16H209.452V180.88H209.812V181.6H210.172V182.32H210.532V183.04H210.892V183.76V184.12V187ZM209.812 184.12V183.76V183.4H209.452V182.68H209.092V181.96H208.732V181.24H208.372V181.96H208.012V182.68H207.652V183.4H207.292V183.76V184.12H209.812ZM215.934 185.92H215.574V186.28H215.214V186.64H214.854V187H212.334V186.64H211.974V186.28H211.614V185.92H211.254V184.84H212.334V185.56H212.694V185.92H214.494V185.56H214.854V183.76H214.494V183.4H212.334V183.04H211.974V182.68H211.614V182.32H211.254V180.16H211.614V179.8H211.974V179.44H212.334V179.08H214.854V179.44H215.214V179.8H215.574V180.16H215.934V181.24H214.854V180.52H214.494V180.16H212.694V180.52H212.334V181.96H212.694V182.32H214.854V182.68H215.214V183.04H215.574V183.4H215.934V185.92ZM220.976 187H216.296V185.92H218.096V180.16H217.376V179.08H219.896V180.16H219.176V185.92H220.976V187ZM226.019 185.92H225.659V186.28H225.299V186.64H224.939V187H221.339V179.08H224.939V179.44H225.299V179.8H225.659V180.16H226.019V181.96H225.659V182.32H225.299V182.68H224.939V183.04H225.299V183.4H225.659V183.76H226.019V185.92ZM224.939 181.6V180.52H224.579V180.16H222.419V182.32H224.219V181.96H224.579V181.6H224.939ZM224.939 185.56V184.12H224.579V183.76H224.219V183.4H222.419V185.92H224.579V185.56H224.939ZM231.061 187H226.381V185.92H228.181V180.16H227.461V179.08H229.981V180.16H229.261V185.92H231.061V187ZM236.103 187H231.423V179.08H232.503V185.92H236.103V187ZM241.146 187H236.466V185.92H238.266V180.16H237.546V179.08H240.066V180.16H239.346V185.92H241.146V187ZM246.188 180.16H244.388V187H243.308V180.16H241.508V179.08H246.188V180.16ZM251.23 180.16H250.87V180.88H250.51V181.6H250.15V182.32H249.79V183.04H249.43V187H248.35V183.04H247.99V182.32H247.63V181.6H247.27V180.88H246.91V180.16H246.55V179.08H247.63V179.8H247.99V180.52H248.35V181.24H248.71V181.96H249.07V181.24H249.43V180.52H249.79V179.8H250.15V179.08H251.23V180.16ZM185.68 199.92H185.32V200.28H184.96V200.64H184.6V201H182.44V200.64H182.08V200.28H181.72V199.92H181.36V199.56H181V194.52H181.36V194.16H181.72V193.8H182.08V193.44H182.44V193.08H184.6V193.44H184.96V193.8H185.32V194.16H185.68V195.24H184.6V194.52H184.24V194.16H182.8V194.52H182.44V194.88H182.08V199.2H182.44V199.56H182.8V199.92H184.24V199.56H184.6V198.84H185.68V199.92ZM190.722 201H189.642V197.4H187.122V201H186.042V193.08H187.122V196.32H189.642V193.08H190.722V201ZM195.765 201H191.085V193.08H195.765V194.16H192.165V196.32H195.045V197.4H192.165V199.92H195.765V201ZM200.807 199.92H200.447V200.28H200.087V200.64H199.727V201H197.567V200.64H197.207V200.28H196.847V199.92H196.487V199.56H196.127V194.52H196.487V194.16H196.847V193.8H197.207V193.44H197.567V193.08H199.727V193.44H200.087V193.8H200.447V194.16H200.807V195.24H199.727V194.52H199.367V194.16H197.927V194.52H197.567V194.88H197.207V199.2H197.567V199.56H197.927V199.92H199.367V199.56H199.727V198.84H200.807V199.92ZM205.849 201H204.769V200.28H204.409V199.56H204.049V198.84H203.689V198.12H203.329V197.4H202.609V197.76H202.249V201H201.169V193.08H202.249V196.32H202.609V195.96H202.969V195.6H203.329V195.24H203.689V194.88H204.049V194.52H204.409V194.148H204.769V193.8H205.129V193.44H205.489V193.08H205.849V194.52H205.489V194.88H205.129V195.24H204.769V195.588H204.409V195.96H204.049V196.32H203.689V196.68H204.049V197.04H204.409V197.76H204.769V198.48H205.129V199.2H205.489V199.92H205.849V201ZM210.892 199.92H210.532V200.28H210.172V200.64H209.812V201H207.292V200.64H206.932V200.28H206.572V199.92H206.212V198.84H207.292V199.56H207.652V199.92H209.452V199.56H209.812V197.76H209.452V197.4H207.292V197.04H206.932V196.68H206.572V196.32H206.212V194.16H206.572V193.8H206.932V193.44H207.292V193.08H209.812V193.44H210.172V193.8H210.532V194.16H210.892V195.24H209.812V194.52H209.452V194.16H207.652V194.52H207.292V195.96H207.652V196.32H209.812V196.68H210.172V197.04H210.532V197.4H210.892V199.92Z" fill="#D9D9D9"/>
<path d="M185.68 25H181V23.92H182.8V18.16H182.08V17.08H184.6V18.16H183.88V23.92H185.68V25ZM190.722 23.2H190.362V23.56H190.002V23.92H189.642V24.28H189.282V24.64H188.91V25H186.042V17.08H188.922V17.44H189.282V17.8H189.642V18.16H190.002V18.52H190.362V18.88H190.722V23.2ZM189.642 22.84V19.24H189.282V18.88H188.922V18.52H188.562V18.16H187.122V23.92H188.562V23.56H188.922V23.2H189.282V22.84H189.642ZM193.965 25H192.525V23.56H193.965V25ZM200.807 25H196.127V23.92H197.927V18.16H196.847V17.08H199.007V23.92H200.807V25ZM204.049 25H202.609V23.56H204.049V25ZM210.892 23.56H210.532V23.92H210.172V24.28H209.812V24.64H209.452V25H207.652V24.64H207.292V24.28H206.932V23.92H206.572V23.56H206.212V18.52H206.572V18.16H206.932V17.8H207.292V17.44H207.652V17.08H209.452V17.44H209.812V17.8H210.172V18.16H210.532V18.52H210.892V23.56ZM209.452 18.88V18.52V18.16H207.652V18.52H207.292V22.48H207.652V21.76H208.012V21.04H208.372V20.32H208.732V19.6H209.092V18.88H209.452ZM209.812 23.56V19.96H209.452V20.68H209.092V21.4H208.732V22.12H208.372V22.84H208.012V23.56H207.652V23.92H209.452V23.56H209.812ZM215.934 23.56H215.574V23.92H215.214V24.28H214.854V24.64H214.494V25H212.694V24.64H212.334V24.28H211.974V23.92H211.614V23.56H211.254V18.52H211.614V18.16H211.974V17.8H212.334V17.44H212.694V17.08H214.494V17.44H214.854V17.8H215.214V18.16H215.574V18.52H215.934V23.56ZM214.494 18.88V18.52V18.16H212.694V18.52H212.334V22.48H212.694V21.76H213.054V21.04H213.414V20.32H213.774V19.6H214.134V18.88H214.494ZM214.854 23.56V19.96H214.494V20.68H214.134V21.4H213.774V22.12H213.414V22.84H213.054V23.56H212.694V23.92H214.494V23.56H214.854ZM220.976 25H216.296V22.12H216.656V21.76H217.016V21.4H217.376V21.04H217.736V20.68H219.176V20.32H219.536V19.96H219.896V18.52H219.536V18.16H217.736V18.52H217.376V19.24H216.296V18.16H216.656V17.8H217.016V17.44H217.376V17.08H219.896V17.44H220.256V17.8H220.616V18.16H220.976V20.32H220.616V20.68H220.256V21.04H219.896V21.4H219.536V21.76H218.096V22.12H217.736V22.48H217.376V23.92H220.976V25Z" fill="#4B4B4B"/>
<rect x="164" width="6" height="6" fill="#4B4B4B"/>
<rect x="291" width="6" height="6" fill="#4B4B4B"/>
<rect x="164" y="213" width="6" height="6" fill="#4B4B4B"/>
<rect x="291" y="213" width="6" height="6" fill="#4B4B4B"/>
<rect x="272" y="17" width="4" height="4" fill="#4B4B4B"/>
<rect x="276" y="25" width="4" height="4" fill="#4B4B4B"/>
<rect x="276" y="21" width="4" height="4" fill="#4B4B4B"/>
<rect x="268" y="21" width="4" height="4" fill="#4B4B4B"/>
<rect x="272" y="25" width="4" height="4" fill="#4B4B4B"/>
</g>
<rect x="164.5" y="0.5" width="132" height="218" stroke="#4B4B4B"/>
<g clip-path="url(#clip3_3101_6784)">
<path d="M333.68 159H332.6V155.4H330.08V159H329V151.08H330.08V154.32H332.6V151.08H333.68V159ZM338.722 157.56H338.362V157.92H338.002V158.28H337.642V158.64H337.282V159H335.482V158.64H335.122V158.28H334.762V157.92H334.402V157.56H334.042V152.52H334.402V152.16H334.762V151.8H335.122V151.44H335.482V151.08H337.282V151.44H337.642V151.8H338.002V152.16H338.362V152.52H338.722V157.56ZM337.642 157.2V152.88H337.282V152.52H336.922V152.16H335.842V152.52H335.482V152.88H335.122V157.2H335.482V157.56H335.842V157.92H336.922V157.56H337.282V157.2H337.642ZM343.765 159H342.685V158.64H342.325V157.92H341.965V157.2H341.605V156.48H341.245V155.76H340.885V155.04H340.525V154.32H340.165V159H339.085V151.08H339.805V151.8H340.165V152.52H340.525V153.24H340.885V153.96H341.245V154.68H341.605V155.4H341.965V156.12H342.325V156.84H342.685V151.08H343.765V159ZM348.807 159H344.127V151.08H348.807V152.16H345.207V154.32H348.087V155.4H345.207V157.92H348.807V159ZM353.849 157.92H353.489V158.28H353.129V158.64H352.769V159H350.249V158.64H349.889V158.28H349.529V157.92H349.169V156.84H350.249V157.56H350.609V157.92H352.409V157.56H352.769V155.76H352.409V155.4H350.249V155.04H349.889V154.68H349.529V154.32H349.169V152.16H349.529V151.8H349.889V151.44H350.249V151.08H352.769V151.44H353.129V151.8H353.489V152.16H353.849V153.24H352.769V152.52H352.409V152.16H350.609V152.52H350.249V153.96H350.609V154.32H352.769V154.68H353.129V155.04H353.489V155.4H353.849V157.92ZM358.892 152.16H357.092V159H356.012V152.16H354.212V151.08H358.892V152.16ZM368.976 159H364.296V157.92H366.096V152.16H365.376V151.08H367.896V152.16H367.176V157.92H368.976V159ZM374.019 159H372.939V158.64H372.579V157.92H372.219V157.2H371.859V156.48H371.499V155.76H371.139V155.04H370.779V154.32H370.419V159H369.339V151.08H370.059V151.8H370.419V152.52H370.779V153.24H371.139V153.96H371.499V154.68H371.859V155.4H372.219V156.12H372.579V156.84H372.939V151.08H374.019V159ZM379.061 154.68H378.701V155.04H378.341V155.4H377.981V155.76H375.461V159H374.381V151.08H377.981V151.44H378.341V151.8H378.701V152.16H379.061V154.68ZM377.981 154.32V152.52H377.621V152.16H375.461V154.68H377.621V154.32H377.981ZM384.103 157.92H383.743V158.28H383.383V158.64H383.023V159H380.503V158.64H380.143V158.28H379.783V157.92H379.423V151.08H380.503V157.56H380.863V157.92H382.663V157.56H383.023V151.08H384.103V157.92ZM389.146 152.16H387.346V159H386.266V152.16H384.466V151.08H389.146V152.16ZM399.23 156.48H394.55V155.4H399.23V156.48ZM333.68 173H329V171.92H330.8V166.16H330.08V165.08H332.6V166.16H331.88V171.92H333.68V173ZM338.722 166.16H335.122V168.32H337.642V169.4H335.122V173H334.042V165.08H338.722V166.16ZM348.807 171.92H348.447V172.28H348.087V172.64H347.727V173H345.207V172.64H344.847V172.28H344.487V171.92H344.127V170.84H345.207V171.56H345.567V171.92H347.367V171.56H347.727V169.76H347.367V169.4H345.207V169.04H344.847V168.68H344.487V168.32H344.127V166.16H344.487V165.8H344.847V165.44H345.207V165.08H347.727V165.44H348.087V165.8H348.447V166.16H348.807V167.24H347.727V166.52H347.367V166.16H345.567V166.52H345.207V167.96H345.567V168.32H347.727V168.68H348.087V169.04H348.447V169.4H348.807V171.92ZM353.849 171.56H353.489V171.92H353.129V172.28H352.769V172.64H352.409V173H350.609V172.64H350.249V172.28H349.889V171.92H349.529V171.56H349.169V166.52H349.529V166.16H349.889V165.8H350.249V165.44H350.609V165.08H352.409V165.44H352.769V165.8H353.129V166.16H353.489V166.52H353.849V171.56ZM352.769 171.2V166.88H352.409V166.52H352.049V166.16H350.969V166.52H350.609V166.88H350.249V171.2H350.609V171.56H350.969V171.92H352.049V171.56H352.409V171.2H352.769ZM358.892 173H357.812V169.04H357.452V169.76H357.092V170.48H356.732V171.2H356.372V170.48H356.012V169.76H355.652V169.04H355.292V173H354.212V165.08H354.572V165.8H354.932V166.52H355.292V167.24H355.652V167.96H356.012V168.68H356.372V169.4H356.732V168.68H357.092V167.96H357.452V167.24H357.812V166.52H358.172V165.8H358.532V165.08H358.892V173ZM363.934 173H359.254V165.08H363.934V166.16H360.334V168.32H363.214V169.4H360.334V171.92H363.934V173ZM368.976 166.16H367.176V173H366.096V166.16H364.296V165.08H368.976V166.16ZM374.019 173H372.939V169.4H370.419V173H369.339V165.08H370.419V168.32H372.939V165.08H374.019V173ZM379.061 173H374.381V171.92H376.181V166.16H375.461V165.08H377.981V166.16H377.261V171.92H379.061V173ZM384.103 173H383.023V172.64H382.663V171.92H382.303V171.2H381.943V170.48H381.583V169.76H381.223V169.04H380.863V168.32H380.503V173H379.423V165.08H380.143V165.8H380.503V166.52H380.863V167.24H381.223V167.96H381.583V168.68H381.943V169.4H382.303V170.12H382.663V170.84H383.023V165.08H384.103V173ZM389.146 172.28H388.786V172.64H388.426V173H385.906V172.64H385.546V172.28H385.186V171.92H384.826V171.56H384.466V166.52H384.826V166.16H385.186V165.8H385.546V165.44H385.906V165.08H388.426V165.44H388.786V165.8H389.146V166.52H388.066V166.16H386.266V166.52H385.906V166.88H385.546V171.2H385.906V171.56H386.266V171.92H388.066V169.76H387.706V170.12H386.626V168.68H389.146V172.28ZM392.388 166.88H391.308V165.08H392.388V166.88ZM399.23 171.92H398.87V172.28H398.51V172.64H398.15V173H395.63V172.64H395.27V172.28H394.91V171.92H394.55V170.84H395.63V171.56H395.99V171.92H397.79V171.56H398.15V169.76H397.79V169.4H395.63V169.04H395.27V168.68H394.91V168.32H394.55V166.16H394.91V165.8H395.27V165.44H395.63V165.08H398.15V165.44H398.51V165.8H398.87V166.16H399.23V167.24H398.15V166.52H397.79V166.16H395.99V166.52H395.63V167.96H395.99V168.32H398.15V168.68H398.51V169.04H398.87V169.4H399.23V171.92ZM409.315 173H408.235V171.2H405.715V173H404.635V170.12V169.76V169.04H404.995V168.32H405.355V167.6H405.715V166.88H406.075V166.16H406.435V165.44H406.795V165.08H407.155V165.44H407.515V166.16H407.875V166.88H408.235V167.6H408.595V168.32H408.955V169.04H409.315V169.76V170.12V173ZM408.235 170.12V169.76V169.4H407.875V168.68H407.515V167.96H407.155V167.24H406.795V167.96H406.435V168.68H406.075V169.4H405.715V169.76V170.12H408.235ZM333.68 185.92H333.32V186.28H332.96V186.64H332.6V187H329V179.08H332.6V179.44H332.96V179.8H333.32V180.16H333.68V181.96H333.32V182.32H332.96V182.68H332.6V183.04H332.96V183.4H333.32V183.76H333.68V185.92ZM332.6 181.6V180.52H332.24V180.16H330.08V182.32H331.88V181.96H332.24V181.6H332.6ZM332.6 185.56V184.12H332.24V183.76H331.88V183.4H330.08V185.92H332.24V185.56H332.6ZM338.722 187H337.642V185.2H335.122V187H334.042V184.12V183.76V183.04H334.402V182.32H334.762V181.6H335.122V180.88H335.482V180.16H335.842V179.44H336.202V179.08H336.562V179.44H336.922V180.16H337.282V180.88H337.642V181.6H338.002V182.32H338.362V183.04H338.722V183.76V184.12V187ZM337.642 184.12V183.76V183.4H337.282V182.68H336.922V181.96H336.562V181.24H336.202V181.96H335.842V182.68H335.482V183.4H335.122V183.76V184.12H337.642ZM343.765 185.2H343.405V185.56H343.045V185.92H342.685V186.28H342.325V186.64H341.953V187H339.085V179.08H341.965V179.44H342.325V179.8H342.685V180.16H343.045V180.52H343.405V180.88H343.765V185.2ZM342.685 184.84V181.24H342.325V180.88H341.965V180.52H341.605V180.16H340.165V185.92H341.605V185.56H341.965V185.2H342.325V184.84H342.685ZM353.849 187H349.169V185.92H350.969V180.16H350.249V179.08H352.769V180.16H352.049V185.92H353.849V187ZM358.892 185.2H358.532V185.56H358.172V185.92H357.812V186.28H357.452V186.64H357.08V187H354.212V179.08H357.092V179.44H357.452V179.8H357.812V180.16H358.172V180.52H358.532V180.88H358.892V185.2ZM357.812 184.84V181.24H357.452V180.88H357.092V180.52H356.732V180.16H355.292V185.92H356.732V185.56H357.092V185.2H357.452V184.84H357.812ZM363.934 187H359.254V179.08H363.934V180.16H360.334V182.32H363.214V183.4H360.334V185.92H363.934V187ZM368.976 187H367.896V185.2H365.376V187H364.296V184.12V183.76V183.04H364.656V182.32H365.016V181.6H365.376V180.88H365.736V180.16H366.096V179.44H366.456V179.08H366.816V179.44H367.176V180.16H367.536V180.88H367.896V181.6H368.256V182.32H368.616V183.04H368.976V183.76V184.12V187ZM367.896 184.12V183.76V183.4H367.536V182.68H367.176V181.96H366.816V181.24H366.456V181.96H366.096V182.68H365.736V183.4H365.376V183.76V184.12H367.896ZM371.139 187.72H371.499V187H370.779V185.56H372.219V187.72H371.859V188.08H371.139V187.72ZM384.103 187H383.743V186.28H383.383V185.56H383.023V184.84H382.663V184.12H382.303V183.4H381.943V182.68H381.583V183.4H381.223V184.12H380.863V184.84H380.503V185.56H380.143V186.28H379.783V187H379.423V179.08H380.503V183.04H380.863V182.32H381.223V181.6H381.583V180.88H381.943V181.6H382.303V182.32H382.663V183.04H383.023V179.08H384.103V187ZM389.146 187H384.466V179.08H389.146V180.16H385.546V182.32H388.426V183.4H385.546V185.92H389.146V187ZM392.388 180.88H391.308V179.08H392.388V180.88ZM399.23 187H394.55V179.08H395.63V185.92H399.23V187ZM404.273 187H399.593V179.08H400.673V185.92H404.273V187ZM333.68 194.16H331.88V201H330.8V194.16H329V193.08H333.68V194.16ZM338.722 201H334.042V193.08H338.722V194.16H335.122V196.32H338.002V197.4H335.122V199.92H338.722V201ZM343.765 201H339.085V193.08H340.165V199.92H343.765V201ZM348.807 201H344.127V193.08H345.207V199.92H348.807V201ZM358.892 194.16H358.532V194.88H358.172V195.6H357.812V196.32H357.452V197.04H357.092V201H356.012V197.04H355.652V196.32H355.292V195.6H354.932V194.88H354.572V194.16H354.212V193.08H355.292V193.8H355.652V194.52H356.012V195.24H356.372V195.96H356.732V195.24H357.092V194.52H357.452V193.8H357.812V193.08H358.892V194.16ZM363.934 199.56H363.574V199.92H363.214V200.28H362.854V200.64H362.494V201H360.694V200.64H360.334V200.28H359.974V199.92H359.614V199.56H359.254V194.52H359.614V194.16H359.974V193.8H360.334V193.44H360.694V193.08H362.494V193.44H362.854V193.8H363.214V194.16H363.574V194.52H363.934V199.56ZM362.854 199.2V194.88H362.494V194.52H362.134V194.16H361.054V194.52H360.694V194.88H360.334V199.2H360.694V199.56H361.054V199.92H362.134V199.56H362.494V199.2H362.854ZM368.976 199.92H368.616V200.28H368.256V200.64H367.896V201H365.376V200.64H365.016V200.28H364.656V199.92H364.296V193.08H365.376V199.56H365.736V199.92H367.536V199.56H367.896V193.08H368.976V199.92Z" fill="#D9D9D9"/>
<path d="M333.68 25H329V23.92H330.8V18.16H330.08V17.08H332.6V18.16H331.88V23.92H333.68V25ZM338.722 23.2H338.362V23.56H338.002V23.92H337.642V24.28H337.282V24.64H336.91V25H334.042V17.08H336.922V17.44H337.282V17.8H337.642V18.16H338.002V18.52H338.362V18.88H338.722V23.2ZM337.642 22.84V19.24H337.282V18.88H336.922V18.52H336.562V18.16H335.122V23.92H336.562V23.56H336.922V23.2H337.282V22.84H337.642ZM341.965 25H340.525V23.56H341.965V25ZM348.807 25H344.127V23.92H345.927V18.16H344.847V17.08H347.007V23.92H348.807V25ZM352.049 25H350.609V23.56H352.049V25ZM358.892 23.56H358.532V23.92H358.172V24.28H357.812V24.64H357.452V25H355.652V24.64H355.292V24.28H354.932V23.92H354.572V23.56H354.212V18.52H354.572V18.16H354.932V17.8H355.292V17.44H355.652V17.08H357.452V17.44H357.812V17.8H358.172V18.16H358.532V18.52H358.892V23.56ZM357.452 18.88V18.52V18.16H355.652V18.52H355.292V22.48H355.652V21.76H356.012V21.04H356.372V20.32H356.732V19.6H357.092V18.88H357.452ZM357.812 23.56V19.96H357.452V20.68H357.092V21.4H356.732V22.12H356.372V22.84H356.012V23.56H355.652V23.92H357.452V23.56H357.812ZM363.934 23.56H363.574V23.92H363.214V24.28H362.854V24.64H362.494V25H360.694V24.64H360.334V24.28H359.974V23.92H359.614V23.56H359.254V18.52H359.614V18.16H359.974V17.8H360.334V17.44H360.694V17.08H362.494V17.44H362.854V17.8H363.214V18.16H363.574V18.52H363.934V23.56ZM362.494 18.88V18.52V18.16H360.694V18.52H360.334V22.48H360.694V21.76H361.054V21.04H361.414V20.32H361.774V19.6H362.134V18.88H362.494ZM362.854 23.56V19.96H362.494V20.68H362.134V21.4H361.774V22.12H361.414V22.84H361.054V23.56H360.694V23.92H362.494V23.56H362.854ZM368.976 23.92H368.616V24.28H368.256V24.64H367.896V25H365.376V24.64H365.016V24.28H364.656V23.92H364.296V22.84H365.376V23.56H365.736V23.92H367.536V23.56H367.896V22.12H367.536V21.76H367.176V21.4H366.816V21.04H366.456V20.68H366.096V20.32H365.736V19.96H366.096V19.6H366.456V19.24H366.816V18.88H367.176V18.52H367.536V18.16H364.296V17.08H368.976V18.52H368.616V18.88H368.256V19.24H367.896V19.6H367.536V19.96H367.176V20.32H367.536V20.68H367.896V21.04H368.256V21.4H368.616V21.76H368.976V23.92Z" fill="#4B4B4B"/>
<rect x="312" width="6" height="6" fill="#4B4B4B"/>
<rect x="439" width="6" height="6" fill="#4B4B4B"/>
<rect x="312" y="213" width="6" height="6" fill="#4B4B4B"/>
<rect x="439" y="213" width="6" height="6" fill="#4B4B4B"/>
<path d="M420 29H416V17H420V21H424V25H420V29ZM428 21H424V17H428V21Z" fill="#4B4B4B"/>
</g>
<rect x="312.5" y="0.5" width="132" height="218" stroke="#4B4B4B"/>
<g clip-path="url(#clip4_3101_6784)">
<path d="M481.68 166.16H479.88V173H478.8V166.16H477V165.08H481.68V166.16ZM486.722 173H482.042V171.92H483.842V166.16H483.122V165.08H485.642V166.16H484.922V171.92H486.722V173ZM491.765 173H490.685V169.04H490.325V169.76H489.965V170.48H489.605V171.2H489.245V170.48H488.885V169.76H488.525V169.04H488.165V173H487.085V165.08H487.445V165.8H487.805V166.52H488.165V167.24H488.525V167.96H488.885V168.68H489.245V169.4H489.605V168.68H489.965V167.96H490.325V167.24H490.685V166.52H491.045V165.8H491.405V165.08H491.765V173ZM496.807 173H492.127V165.08H496.807V166.16H493.207V168.32H496.087V169.4H493.207V171.92H496.807V173ZM501.849 173H497.169V165.08H498.249V171.92H501.849V173ZM506.892 173H502.212V171.92H504.012V166.16H503.292V165.08H505.812V166.16H505.092V171.92H506.892V173ZM511.934 173H510.854V172.64H510.494V171.92H510.134V171.2H509.774V170.48H509.414V169.76H509.054V169.04H508.694V168.32H508.334V173H507.254V165.08H507.974V165.8H508.334V166.52H508.694V167.24H509.054V167.96H509.414V168.68H509.774V169.4H510.134V170.12H510.494V170.84H510.854V165.08H511.934V173ZM516.976 173H512.296V165.08H516.976V166.16H513.376V168.32H516.256V169.4H513.376V171.92H516.976V173ZM519.139 173.72H519.499V173H518.779V171.56H520.219V173.72H519.859V174.08H519.139V173.72ZM532.103 171.92H531.743V172.28H531.383V172.64H531.023V173H527.423V165.08H531.023V165.44H531.383V165.8H531.743V166.16H532.103V167.96H531.743V168.32H531.383V168.68H531.023V169.04H531.383V169.4H531.743V169.76H532.103V171.92ZM531.023 167.6V166.52H530.663V166.16H528.503V168.32H530.303V167.96H530.663V167.6H531.023ZM531.023 171.56V170.12H530.663V169.76H530.303V169.4H528.503V171.92H530.663V171.56H531.023ZM537.146 171.92H536.786V172.28H536.426V172.64H536.066V173H533.546V172.64H533.186V172.28H532.826V171.92H532.466V165.08H533.546V171.56H533.906V171.92H535.706V171.56H536.066V165.08H537.146V171.92ZM542.188 171.2H541.828V171.56H541.468V171.92H541.108V172.28H540.748V172.64H540.376V173H537.508V165.08H540.388V165.44H540.748V165.8H541.108V166.16H541.468V166.52H541.828V166.88H542.188V171.2ZM541.108 170.84V167.24H540.748V166.88H540.388V166.52H540.028V166.16H538.588V171.92H540.028V171.56H540.388V171.2H540.748V170.84H541.108ZM547.23 172.28H546.87V172.64H546.51V173H543.99V172.64H543.63V172.28H543.27V171.92H542.91V171.56H542.55V166.52H542.91V166.16H543.27V165.8H543.63V165.44H543.99V165.08H546.51V165.44H546.87V165.8H547.23V166.52H546.15V166.16H544.35V166.52H543.99V166.88H543.63V171.2H543.99V171.56H544.35V171.92H546.15V169.76H545.79V170.12H544.71V168.68H547.23V172.28ZM552.273 173H547.593V165.08H552.273V166.16H548.673V168.32H551.553V169.4H548.673V171.92H552.273V173ZM557.315 166.16H555.515V173H554.435V166.16H552.635V165.08H557.315V166.16ZM559.477 173.72H559.837V173H559.117V171.56H560.557V173.72H560.197V174.08H559.477V173.72ZM481.68 187H480.6V185.2H478.08V187H477V184.12V183.76V183.04H477.36V182.32H477.72V181.6H478.08V180.88H478.44V180.16H478.8V179.44H479.16V179.08H479.52V179.44H479.88V180.16H480.24V180.88H480.6V181.6H480.96V182.32H481.32V183.04H481.68V183.76V184.12V187ZM480.6 184.12V183.76V183.4H480.24V182.68H479.88V181.96H479.52V181.24H479.16V181.96H478.8V182.68H478.44V183.4H478.08V183.76V184.12H480.6ZM486.722 187H485.642V186.64H485.282V185.92H484.922V185.2H484.562V184.48H484.202V183.76H483.842V183.04H483.482V182.32H483.122V187H482.042V179.08H482.762V179.8H483.122V180.52H483.482V181.24H483.842V181.96H484.202V182.68H484.562V183.4H484.922V184.12H485.282V184.84H485.642V179.08H486.722V187ZM491.765 185.2H491.405V185.56H491.045V185.92H490.685V186.28H490.325V186.64H489.953V187H487.085V179.08H489.965V179.44H490.325V179.8H490.685V180.16H491.045V180.52H491.405V180.88H491.765V185.2ZM490.685 184.84V181.24H490.325V180.88H489.965V180.52H489.605V180.16H488.165V185.92H489.605V185.56H489.965V185.2H490.325V184.84H490.685ZM501.849 185.92H501.489V186.28H501.129V186.64H500.769V187H498.249V186.64H497.889V186.28H497.529V185.92H497.169V184.84H498.249V185.56H498.609V185.92H500.409V185.56H500.769V183.76H500.409V183.4H498.249V183.04H497.889V182.68H497.529V182.32H497.169V180.16H497.529V179.8H497.889V179.44H498.249V179.08H500.769V179.44H501.129V179.8H501.489V180.16H501.849V181.24H500.769V180.52H500.409V180.16H498.609V180.52H498.249V181.96H498.609V182.32H500.769V182.68H501.129V183.04H501.489V183.4H501.849V185.92ZM506.892 185.92H506.532V186.28H506.172V186.64H505.812V187H503.652V186.64H503.292V186.28H502.932V185.92H502.572V185.56H502.212V180.52H502.572V180.16H502.932V179.8H503.292V179.44H503.652V179.08H505.812V179.44H506.172V179.8H506.532V180.16H506.892V181.24H505.812V180.52H505.452V180.16H504.012V180.52H503.652V180.88H503.292V185.2H503.652V185.56H504.012V185.92H505.452V185.56H505.812V184.84H506.892V185.92ZM511.934 185.56H511.574V185.92H511.214V186.28H510.854V186.64H510.494V187H508.694V186.64H508.334V186.28H507.974V185.92H507.614V185.56H507.254V180.52H507.614V180.16H507.974V179.8H508.334V179.44H508.694V179.08H510.494V179.44H510.854V179.8H511.214V180.16H511.574V180.52H511.934V185.56ZM510.854 185.2V180.88H510.494V180.52H510.134V180.16H509.054V180.52H508.694V180.88H508.334V185.2H508.694V185.56H509.054V185.92H510.134V185.56H510.494V185.2H510.854ZM516.976 182.68H516.616V183.04H516.256V183.4H515.896V183.76H513.376V187H512.296V179.08H515.896V179.44H516.256V179.8H516.616V180.16H516.976V182.68ZM515.896 182.32V180.52H515.536V180.16H513.376V182.68H515.536V182.32H515.896ZM522.019 187H517.339V179.08H522.019V180.16H518.419V182.32H521.299V183.4H518.419V185.92H522.019V187ZM532.103 185.56H531.743V185.92H531.383V186.28H531.023V186.64H530.663V187H528.863V186.64H528.503V186.28H528.143V185.92H527.783V185.56H527.423V180.52H527.783V180.16H528.143V179.8H528.503V179.44H528.863V179.08H530.663V179.44H531.023V179.8H531.383V180.16H531.743V180.52H532.103V185.56ZM531.023 185.2V180.88H530.663V180.52H530.303V180.16H529.223V180.52H528.863V180.88H528.503V185.2H528.863V185.56H529.223V185.92H530.303V185.56H530.663V185.2H531.023ZM537.146 185.92H536.786V186.28H536.426V186.64H536.066V187H533.546V186.64H533.186V186.28H532.826V185.92H532.466V179.08H533.546V185.56H533.906V185.92H535.706V185.56H536.066V179.08H537.146V185.92ZM542.188 180.16H540.388V187H539.308V180.16H537.508V179.08H542.188V180.16ZM547.23 187H542.55V179.08H543.63V185.92H547.23V187ZM552.273 187H547.593V185.92H549.393V180.16H548.673V179.08H551.193V180.16H550.473V185.92H552.273V187ZM557.315 187H556.235V186.64H555.875V185.92H555.515V185.2H555.155V184.48H554.795V183.76H554.435V183.04H554.075V182.32H553.715V187H552.635V179.08H553.355V179.8H553.715V180.52H554.075V181.24H554.435V181.96H554.795V182.68H555.155V183.4H555.515V184.12H555.875V184.84H556.235V179.08H557.315V187ZM562.357 187H557.677V179.08H562.357V180.16H558.757V182.32H561.637V183.4H558.757V185.92H562.357V187ZM567.4 185.2H567.04V185.56H566.68V185.92H566.32V186.28H565.96V186.64H565.588V187H562.72V179.08H565.6V179.44H565.96V179.8H566.32V180.16H566.68V180.52H567.04V180.88H567.4V185.2ZM566.32 184.84V181.24H565.96V180.88H565.6V180.52H565.24V180.16H563.8V185.92H565.24V185.56H565.6V185.2H565.96V184.84H566.32ZM481.68 199.92H481.32V200.28H480.96V200.64H480.6V201H478.44V200.64H478.08V200.28H477.72V199.92H477.36V199.56H477V194.52H477.36V194.16H477.72V193.8H478.08V193.44H478.44V193.08H480.6V193.44H480.96V193.8H481.32V194.16H481.68V195.24H480.6V194.52H480.24V194.16H478.8V194.52H478.44V194.88H478.08V199.2H478.44V199.56H478.8V199.92H480.24V199.56H480.6V198.84H481.68V199.92ZM486.722 201H482.042V193.08H483.122V199.92H486.722V201ZM491.765 201H487.085V193.08H491.765V194.16H488.165V196.32H491.045V197.4H488.165V199.92H491.765V201ZM496.807 201H495.727V199.2H493.207V201H492.127V198.12V197.76V197.04H492.487V196.32H492.847V195.6H493.207V194.88H493.567V194.16H493.927V193.44H494.287V193.08H494.647V193.44H495.007V194.16H495.367V194.88H495.727V195.6H496.087V196.32H496.447V197.04H496.807V197.76V198.12V201ZM495.727 198.12V197.76V197.4H495.367V196.68H495.007V195.96H494.647V195.24H494.287V195.96H493.927V196.68H493.567V197.4H493.207V197.76V198.12H495.727ZM501.849 201H500.769V199.56H500.409V198.84H500.049V198.12H499.689V197.4H498.249V201H497.169V193.08H500.769V193.44H501.129V193.8H501.489V194.16H501.849V196.32H501.489V196.68H501.129V197.04H500.769V197.76H501.129V198.48H501.489V199.2H501.849V201ZM500.769 195.96V194.52H500.409V194.16H498.249V196.32H500.409V195.96H500.769ZM506.892 201H502.212V193.08H503.292V199.92H506.892V201ZM511.934 194.16H511.574V194.88H511.214V195.6H510.854V196.32H510.494V197.04H510.134V201H509.054V197.04H508.694V196.32H508.334V195.6H507.974V194.88H507.614V194.16H507.254V193.08H508.334V193.8H508.694V194.52H509.054V195.24H509.414V195.96H509.774V195.24H510.134V194.52H510.494V193.8H510.854V193.08H511.934V194.16Z" fill="#D9D9D9"/>
<path d="M481.68 25H477V23.92H478.8V18.16H478.08V17.08H480.6V18.16H479.88V23.92H481.68V25ZM486.722 23.2H486.362V23.56H486.002V23.92H485.642V24.28H485.282V24.64H484.91V25H482.042V17.08H484.922V17.44H485.282V17.8H485.642V18.16H486.002V18.52H486.362V18.88H486.722V23.2ZM485.642 22.84V19.24H485.282V18.88H484.922V18.52H484.562V18.16H483.122V23.92H484.562V23.56H484.922V23.2H485.282V22.84H485.642ZM489.965 25H488.525V23.56H489.965V25ZM496.807 25H492.127V23.92H493.927V18.16H492.847V17.08H495.007V23.92H496.807V25ZM500.049 25H498.609V23.56H500.049V25ZM506.892 23.56H506.532V23.92H506.172V24.28H505.812V24.64H505.452V25H503.652V24.64H503.292V24.28H502.932V23.92H502.572V23.56H502.212V18.52H502.572V18.16H502.932V17.8H503.292V17.44H503.652V17.08H505.452V17.44H505.812V17.8H506.172V18.16H506.532V18.52H506.892V23.56ZM505.452 18.88V18.52V18.16H503.652V18.52H503.292V22.48H503.652V21.76H504.012V21.04H504.372V20.32H504.732V19.6H505.092V18.88H505.452ZM505.812 23.56V19.96H505.452V20.68H505.092V21.4H504.732V22.12H504.372V22.84H504.012V23.56H503.652V23.92H505.452V23.56H505.812ZM511.934 23.56H511.574V23.92H511.214V24.28H510.854V24.64H510.494V25H508.694V24.64H508.334V24.28H507.974V23.92H507.614V23.56H507.254V18.52H507.614V18.16H507.974V17.8H508.334V17.44H508.694V17.08H510.494V17.44H510.854V17.8H511.214V18.16H511.574V18.52H511.934V23.56ZM510.494 18.88V18.52V18.16H508.694V18.52H508.334V22.48H508.694V21.76H509.054V21.04H509.414V20.32H509.774V19.6H510.134V18.88H510.494ZM510.854 23.56V19.96H510.494V20.68H510.134V21.4H509.774V22.12H509.414V22.84H509.054V23.56H508.694V23.92H510.494V23.56H510.854ZM516.976 23.56H516.256V25H515.176V23.56H512.296V23.2V22.84H512.656V22.12H513.016V21.4H513.376V20.68H513.736V19.96H514.096V19.24H514.456V18.52H514.816V17.8H515.176V17.08H516.256V22.48H516.976V23.56ZM515.176 22.48V19.6H514.816V20.32H514.456V21.04H514.096V21.76H513.736V22.48H515.176Z" fill="#4B4B4B"/>
<rect x="460" width="6" height="6" fill="#4B4B4B"/>
<rect x="587" width="6" height="6" fill="#4B4B4B"/>
<rect x="460" y="213" width="6" height="6" fill="#4B4B4B"/>
<rect x="587" y="213" width="6" height="6" fill="#4B4B4B"/>
<path d="M568 29H564V25H568V29ZM576 25H568V21H572V17H576V25ZM568 21H564V17H568V21Z" fill="#4B4B4B"/>
</g>
<rect x="460.5" y="0.5" width="132" height="218" stroke="#4B4B4B"/>
<rect x="149.25" y="23.25" width="14.5" height="0.5" fill="#4B4B4B" stroke="#4B4B4B" stroke-width="0.5"/>
<rect x="-15.75" y="23.25" width="31.5" height="0.5" fill="#4B4B4B" stroke="#4B4B4B" stroke-width="0.5"/>
<rect x="297.25" y="23.25" width="14.5" height="0.5" fill="#4B4B4B" stroke="#4B4B4B" stroke-width="0.5"/>
<rect x="445.25" y="23.25" width="14.5" height="0.5" fill="#4B4B4B" stroke="#4B4B4B" stroke-width="0.5"/>
</g>
<defs>
<clipPath id="clip0_3101_6784">
<rect width="593" height="219" fill="white"/>
</clipPath>
<clipPath id="clip1_3101_6784">
<rect x="16" width="133" height="219" fill="white"/>
</clipPath>
<clipPath id="clip2_3101_6784">
<rect x="164" width="133" height="219" fill="white"/>
</clipPath>
<clipPath id="clip3_3101_6784">
<rect x="312" width="133" height="219" fill="white"/>
</clipPath>
<clipPath id="clip4_3101_6784">
<rect x="460" width="133" height="219" fill="white"/>
</clipPath>
</defs>
</svg>
