<svg width="350" height="280" viewBox="0 0 350 280" fill="none" xmlns="http://www.w3.org/2000/svg">
<g clip-path="url(#clip0_3101_7312)">
<path d="M39.68 65.16H36.08V67.32H38.6V68.4H36.08V72H35V64.08H39.68V65.16ZM44.7223 72H40.0423V70.92H41.8423V65.16H41.1223V64.08H43.6423V65.16H42.9223V70.92H44.7223V72ZM49.7647 72H48.6847V71.64H48.3247V70.92H47.9647V70.2H47.6047V69.48H47.2447V68.76H46.8847V68.04H46.5247V67.32H46.1647V72H45.0847V64.08H45.8047V64.8H46.1647V65.52H46.5247V66.24H46.8847V66.96H47.2447V67.68H47.6047V68.4H47.9647V69.12H48.3247V69.84H48.6847V64.08H49.7647V72ZM54.807 72H53.727V70.2H51.207V72H50.127V69.12V68.76V68.04H50.487V67.32H50.847V66.6H51.207V65.88H51.567V65.16H51.927V64.44H52.287V64.08H52.647V64.44H53.007V65.16H53.367V65.88H53.727V66.6H54.087V67.32H54.447V68.04H54.807V68.76V69.12V72ZM53.727 69.12V68.76V68.4H53.367V67.68H53.007V66.96H52.647V66.24H52.287V66.96H51.927V67.68H51.567V68.4H51.207V68.76V69.12H53.727ZM59.8494 72H55.1694V64.08H56.2494V70.92H59.8494V72ZM69.9341 72H69.2141V71.64H68.8541H68.4941V72H66.6941V71.64H66.3341V71.28H65.9741V70.92H65.6141V70.56H65.2541V65.52H65.6141V65.16H65.9741V64.8H66.3341V64.44H66.6941V64.08H68.4941V64.44H68.8541V64.8H69.2141V65.16H69.5741V65.52H69.9341V70.56H69.5741V70.92V71.28H69.9341V72ZM68.8541 70.2V65.88H68.4941V65.52H68.1341V65.16H67.0541V65.52H66.6941V65.88H66.3341V70.2H66.6941V70.56H67.0541V70.92H68.1341V70.56H67.7741V70.2H67.4141V69.84H67.0541V69.48H67.4141H67.7741H68.1341V69.84H68.4941V70.2H68.8541ZM74.9764 72H73.8964V70.2H71.3764V72H70.2964V69.12V68.76V68.04H70.6564V67.32H71.0164V66.6H71.3764V65.88H71.7364V65.16H72.0964V64.44H72.4564V64.08H72.8164V64.44H73.1764V65.16H73.5364V65.88H73.8964V66.6H74.2564V67.32H74.6164V68.04H74.9764V68.76V69.12V72ZM73.8964 69.12V68.76V68.4H73.5364V67.68H73.1764V66.96H72.8164V66.24H72.4564V66.96H72.0964V67.68H71.7364V68.4H71.3764V68.76V69.12H73.8964ZM77.1387 72.72H77.4987V72H76.7787V70.56H78.2187V72.72H77.8587V73.08H77.1387V72.72ZM90.1034 67.68H89.7434V68.04H89.3834V68.4H89.0234V68.76H86.5034V72H85.4234V64.08H89.0234V64.44H89.3834V64.8H89.7434V65.16H90.1034V67.68ZM89.0234 67.32V65.52H88.6634V65.16H86.5034V67.68H88.6634V67.32H89.0234ZM95.1458 70.56H94.7858V70.92H94.4258V71.28H94.0658V71.64H93.7058V72H91.9058V71.64H91.5458V71.28H91.1858V70.92H90.8258V70.56H90.4658V65.52H90.8258V65.16H91.1858V64.8H91.5458V64.44H91.9058V64.08H93.7058V64.44H94.0658V64.8H94.4258V65.16H94.7858V65.52H95.1458V70.56ZM94.0658 70.2V65.88H93.7058V65.52H93.3458V65.16H92.2658V65.52H91.9058V65.88H91.5458V70.2H91.9058V70.56H92.2658V70.92H93.3458V70.56H93.7058V70.2H94.0658ZM100.188 72H95.5081V64.08H96.5881V70.92H100.188V72ZM105.23 72H100.55V70.92H102.35V65.16H101.63V64.08H104.15V65.16H103.43V70.92H105.23V72ZM110.273 70.92H109.913V71.28H109.553V71.64H109.193V72H106.673V71.64H106.313V71.28H105.953V70.92H105.593V69.84H106.673V70.56H107.033V70.92H108.833V70.56H109.193V68.76H108.833V68.4H106.673V68.04H106.313V67.68H105.953V67.32H105.593V65.16H105.953V64.8H106.313V64.44H106.673V64.08H109.193V64.44H109.553V64.8H109.913V65.16H110.273V66.24H109.193V65.52H108.833V65.16H107.033V65.52H106.673V66.96H107.033V67.32H109.193V67.68H109.553V68.04H109.913V68.4H110.273V70.92ZM115.315 72H114.235V68.4H111.715V72H110.635V64.08H111.715V67.32H114.235V64.08H115.315V72ZM117.477 72.72H117.837V72H117.117V70.56H118.557V72.72H118.197V73.08H117.477V72.72ZM39.68 86H38.6V84.2H36.08V86H35V83.12V82.76V82.04H35.36V81.32H35.72V80.6H36.08V79.88H36.44V79.16H36.8V78.44H37.16V78.08H37.52V78.44H37.88V79.16H38.24V79.88H38.6V80.6H38.96V81.32H39.32V82.04H39.68V82.76V83.12V86ZM38.6 83.12V82.76V82.4H38.24V81.68H37.88V80.96H37.52V80.24H37.16V80.96H36.8V81.68H36.44V82.4H36.08V82.76V83.12H38.6ZM44.7223 86H43.6423V85.64H43.2823V84.92H42.9223V84.2H42.5623V83.48H42.2023V82.76H41.8423V82.04H41.4823V81.32H41.1223V86H40.0423V78.08H40.7623V78.8H41.1223V79.52H41.4823V80.24H41.8423V80.96H42.2023V81.68H42.5623V82.4H42.9223V83.12H43.2823V83.84H43.6423V78.08H44.7223V86ZM49.7647 84.2H49.4047V84.56H49.0447V84.92H48.6847V85.28H48.3247V85.64H47.9527V86H45.0847V78.08H47.9647V78.44H48.3247V78.8H48.6847V79.16H49.0447V79.52H49.4047V79.88H49.7647V84.2ZM48.6847 83.84V80.24H48.3247V79.88H47.9647V79.52H47.6047V79.16H46.1647V84.92H47.6047V84.56H47.9647V84.2H48.3247V83.84H48.6847ZM59.8494 84.2H59.4894V84.56H59.1294V84.92H58.7694V85.28H58.4094V85.64H58.0374V86H55.1694V78.08H58.0494V78.44H58.4094V78.8H58.7694V79.16H59.1294V79.52H59.4894V79.88H59.8494V84.2ZM58.7694 83.84V80.24H58.4094V79.88H58.0494V79.52H57.6894V79.16H56.2494V84.92H57.6894V84.56H58.0494V84.2H58.4094V83.84H58.7694ZM64.8917 86H60.2117V78.08H64.8917V79.16H61.2917V81.32H64.1717V82.4H61.2917V84.92H64.8917V86ZM69.9341 81.68H69.5741V82.04H69.2141V82.4H68.8541V82.76H66.3341V86H65.2541V78.08H68.8541V78.44H69.2141V78.8H69.5741V79.16H69.9341V81.68ZM68.8541 81.32V79.52H68.4941V79.16H66.3341V81.68H68.4941V81.32H68.8541ZM74.9764 86H70.2964V78.08H71.3764V84.92H74.9764V86ZM80.0187 84.56H79.6587V84.92H79.2987V85.28H78.9387V85.64H78.5787V86H76.7787V85.64H76.4187V85.28H76.0587V84.92H75.6987V84.56H75.3387V79.52H75.6987V79.16H76.0587V78.8H76.4187V78.44H76.7787V78.08H78.5787V78.44H78.9387V78.8H79.2987V79.16H79.6587V79.52H80.0187V84.56ZM78.9387 84.2V79.88H78.5787V79.52H78.2187V79.16H77.1387V79.52H76.7787V79.88H76.4187V84.2H76.7787V84.56H77.1387V84.92H78.2187V84.56H78.5787V84.2H78.9387ZM85.0611 79.16H84.7011V79.88H84.3411V80.6H83.9811V81.32H83.6211V82.04H83.2611V86H82.1811V82.04H81.8211V81.32H81.4611V80.6H81.1011V79.88H80.7411V79.16H80.3811V78.08H81.4611V78.8H81.8211V79.52H82.1811V80.24H82.5411V80.96H82.9011V80.24H83.2611V79.52H83.6211V78.8H83.9811V78.08H85.0611V79.16ZM90.1034 86H89.0234V82.04H88.6634V82.76H88.3034V83.48H87.9434V84.2H87.5834V83.48H87.2234V82.76H86.8634V82.04H86.5034V86H85.4234V78.08H85.7834V78.8H86.1434V79.52H86.5034V80.24H86.8634V80.96H87.2234V81.68H87.5834V82.4H87.9434V81.68H88.3034V80.96H88.6634V80.24H89.0234V79.52H89.3834V78.8H89.7434V78.08H90.1034V86ZM95.1458 86H90.4658V78.08H95.1458V79.16H91.5458V81.32H94.4258V82.4H91.5458V84.92H95.1458V86ZM100.188 86H99.1081V85.64H98.7481V84.92H98.3881V84.2H98.0281V83.48H97.6681V82.76H97.3081V82.04H96.9481V81.32H96.5881V86H95.5081V78.08H96.2281V78.8H96.5881V79.52H96.9481V80.24H97.3081V80.96H97.6681V81.68H98.0281V82.4H98.3881V83.12H98.7481V83.84H99.1081V78.08H100.188V86ZM105.23 79.16H103.43V86H102.35V79.16H100.55V78.08H105.23V79.16Z" fill="#D9D9D9"/>
<path d="M39.68 25H35V23.92H36.8V18.16H36.08V17.08H38.6V18.16H37.88V23.92H39.68V25ZM44.7223 23.2H44.3623V23.56H44.0023V23.92H43.6423V24.28H43.2823V24.64H42.9103V25H40.0423V17.08H42.9223V17.44H43.2823V17.8H43.6423V18.16H44.0023V18.52H44.3623V18.88H44.7223V23.2ZM43.6423 22.84V19.24H43.2823V18.88H42.9223V18.52H42.5623V18.16H41.1223V23.92H42.5623V23.56H42.9223V23.2H43.2823V22.84H43.6423ZM47.9647 25H46.5247V23.56H47.9647V25ZM54.807 23.56H54.087V25H53.007V23.56H50.127V23.2V22.84H50.487V22.12H50.847V21.4H51.207V20.68H51.567V19.96H51.927V19.24H52.287V18.52H52.647V17.8H53.007V17.08H54.087V22.48H54.807V23.56ZM53.007 22.48V19.6H52.647V20.32H52.287V21.04H51.927V21.76H51.567V22.48H53.007ZM58.0494 25H56.6094V23.56H58.0494V25ZM64.8917 23.56H64.5317V23.92H64.1717V24.28H63.8117V24.64H63.4517V25H61.6517V24.64H61.2917V24.28H60.9317V23.92H60.5717V23.56H60.2117V18.52H60.5717V18.16H60.9317V17.8H61.2917V17.44H61.6517V17.08H63.4517V17.44H63.8117V17.8H64.1717V18.16H64.5317V18.52H64.8917V23.56ZM63.4517 18.88V18.52V18.16H61.6517V18.52H61.2917V22.48H61.6517V21.76H62.0117V21.04H62.3717V20.32H62.7317V19.6H63.0917V18.88H63.4517ZM63.8117 23.56V19.96H63.4517V20.68H63.0917V21.4H62.7317V22.12H62.3717V22.84H62.0117V23.56H61.6517V23.92H63.4517V23.56H63.8117ZM69.9341 23.56H69.5741V23.92H69.2141V24.28H68.8541V24.64H68.4941V25H66.6941V24.64H66.3341V24.28H65.9741V23.92H65.6141V23.56H65.2541V18.52H65.6141V18.16H65.9741V17.8H66.3341V17.44H66.6941V17.08H68.4941V17.44H68.8541V17.8H69.2141V18.16H69.5741V18.52H69.9341V23.56ZM68.4941 18.88V18.52V18.16H66.6941V18.52H66.3341V22.48H66.6941V21.76H67.0541V21.04H67.4141V20.32H67.7741V19.6H68.1341V18.88H68.4941ZM68.8541 23.56V19.96H68.4941V20.68H68.1341V21.4H67.7741V22.12H67.4141V22.84H67.0541V23.56H66.6941V23.92H68.4941V23.56H68.8541ZM74.9764 25H70.2964V23.92H72.0964V18.16H71.0164V17.08H73.1764V23.92H74.9764V25Z" fill="#4B4B4B"/>
<rect x="18" width="6" height="6" fill="#4B4B4B"/>
<path d="M142 29H138V25H142V29ZM150 29H146V25H150V29ZM150 21H146V25H142V17H150V21Z" fill="#4B4B4B"/>
<rect x="161" width="6" height="6" fill="#4B4B4B"/>
<rect x="18" y="98" width="6" height="6" fill="#4B4B4B"/>
<rect x="161" y="98" width="6" height="6" fill="#4B4B4B"/>
</g>
<rect x="18.5" y="0.5" width="148" height="103" stroke="#4B4B4B"/>
<g clip-path="url(#clip1_3101_7312)">
<path d="M204.68 67.68H204.32V68.04H203.96V68.4H203.6V68.76H201.08V72H200V64.08H203.6V64.44H203.96V64.8H204.32V65.16H204.68V67.68ZM203.6 67.32V65.52H203.24V65.16H201.08V67.68H203.24V67.32H203.6ZM209.722 70.56H209.362V70.92H209.002V71.28H208.642V71.64H208.282V72H206.482V71.64H206.122V71.28H205.762V70.92H205.402V70.56H205.042V65.52H205.402V65.16H205.762V64.8H206.122V64.44H206.482V64.08H208.282V64.44H208.642V64.8H209.002V65.16H209.362V65.52H209.722V70.56ZM208.642 70.2V65.88H208.282V65.52H207.922V65.16H206.842V65.52H206.482V65.88H206.122V70.2H206.482V70.56H206.842V70.92H207.922V70.56H208.282V70.2H208.642ZM214.765 70.92H214.405V71.28H214.045V71.64H213.685V72H211.165V71.64H210.805V71.28H210.445V70.92H210.085V69.84H211.165V70.56H211.525V70.92H213.325V70.56H213.685V68.76H213.325V68.4H211.165V68.04H210.805V67.68H210.445V67.32H210.085V65.16H210.445V64.8H210.805V64.44H211.165V64.08H213.685V64.44H214.045V64.8H214.405V65.16H214.765V66.24H213.685V65.52H213.325V65.16H211.525V65.52H211.165V66.96H211.525V67.32H213.685V67.68H214.045V68.04H214.405V68.4H214.765V70.92ZM219.807 65.16H218.007V72H216.927V65.16H215.127V64.08H219.807V65.16ZM224.129 69.48H220.889V68.4H224.129V69.48ZM229.892 72H225.212V64.08H226.292V70.92H229.892V72ZM234.934 72H233.854V70.2H231.334V72H230.254V69.12V68.76V68.04H230.614V67.32H230.974V66.6H231.334V65.88H231.694V65.16H232.054V64.44H232.414V64.08H232.774V64.44H233.134V65.16H233.494V65.88H233.854V66.6H234.214V67.32H234.574V68.04H234.934V68.76V69.12V72ZM233.854 69.12V68.76V68.4H233.494V67.68H233.134V66.96H232.774V66.24H232.414V66.96H232.054V67.68H231.694V68.4H231.334V68.76V69.12H233.854ZM239.976 70.92H239.616V71.28H239.256V71.64H238.896V72H236.376V71.64H236.016V71.28H235.656V70.92H235.296V64.08H236.376V70.56H236.736V70.92H238.536V70.56H238.896V64.08H239.976V70.92ZM245.019 72H243.939V71.64H243.579V70.92H243.219V70.2H242.859V69.48H242.499V68.76H242.139V68.04H241.779V67.32H241.419V72H240.339V64.08H241.059V64.8H241.419V65.52H241.779V66.24H242.139V66.96H242.499V67.68H242.859V68.4H243.219V69.12H243.579V69.84H243.939V64.08H245.019V72ZM250.061 70.92H249.701V71.28H249.341V71.64H248.981V72H246.821V71.64H246.461V71.28H246.101V70.92H245.741V70.56H245.381V65.52H245.741V65.16H246.101V64.8H246.461V64.44H246.821V64.08H248.981V64.44H249.341V64.8H249.701V65.16H250.061V66.24H248.981V65.52H248.621V65.16H247.181V65.52H246.821V65.88H246.461V70.2H246.821V70.56H247.181V70.92H248.621V70.56H248.981V69.84H250.061V70.92ZM255.103 72H254.023V68.4H251.503V72H250.423V64.08H251.503V67.32H254.023V64.08H255.103V72ZM265.188 72H264.108V68.04H263.748V68.76H263.388V69.48H263.028V70.2H262.668V69.48H262.308V68.76H261.948V68.04H261.588V72H260.508V64.08H260.868V64.8H261.228V65.52H261.588V66.24H261.948V66.96H262.308V67.68H262.668V68.4H263.028V67.68H263.388V66.96H263.748V66.24H264.108V65.52H264.468V64.8H264.828V64.08H265.188V72ZM270.23 70.56H269.87V70.92H269.51V71.28H269.15V71.64H268.79V72H266.99V71.64H266.63V71.28H266.27V70.92H265.91V70.56H265.55V65.52H265.91V65.16H266.27V64.8H266.63V64.44H266.99V64.08H268.79V64.44H269.15V64.8H269.51V65.16H269.87V65.52H270.23V70.56ZM269.15 70.2V65.88H268.79V65.52H268.43V65.16H267.35V65.52H266.99V65.88H266.63V70.2H266.99V70.56H267.35V70.92H268.43V70.56H268.79V70.2H269.15ZM275.273 72H274.193V71.64H273.833V70.92H273.473V70.2H273.113V69.48H272.753V68.76H272.393V68.04H272.033V67.32H271.673V72H270.593V64.08H271.313V64.8H271.673V65.52H272.033V66.24H272.393V66.96H272.753V67.68H273.113V68.4H273.473V69.12H273.833V69.84H274.193V64.08H275.273V72ZM280.315 72H275.635V70.92H277.435V65.16H276.715V64.08H279.235V65.16H278.515V70.92H280.315V72ZM285.357 65.16H283.557V72H282.477V65.16H280.677V64.08H285.357V65.16ZM290.4 70.56H290.04V70.92H289.68V71.28H289.32V71.64H288.96V72H287.16V71.64H286.8V71.28H286.44V70.92H286.08V70.56H285.72V65.52H286.08V65.16H286.44V64.8H286.8V64.44H287.16V64.08H288.96V64.44H289.32V64.8H289.68V65.16H290.04V65.52H290.4V70.56ZM289.32 70.2V65.88H288.96V65.52H288.6V65.16H287.52V65.52H287.16V65.88H286.8V70.2H287.16V70.56H287.52V70.92H288.6V70.56H288.96V70.2H289.32ZM295.442 72H294.362V70.56H294.002V69.84H293.642V69.12H293.282V68.4H291.842V72H290.762V64.08H294.362V64.44H294.722V64.8H295.082V65.16H295.442V67.32H295.082V67.68H294.722V68.04H294.362V68.76H294.722V69.48H295.082V70.2H295.442V72ZM294.362 66.96V65.52H294.002V65.16H291.842V67.32H294.002V66.96H294.362ZM300.485 72H295.805V70.92H297.605V65.16H296.885V64.08H299.405V65.16H298.685V70.92H300.485V72ZM305.527 72H304.447V71.64H304.087V70.92H303.727V70.2H303.367V69.48H303.007V68.76H302.647V68.04H302.287V67.32H301.927V72H300.847V64.08H301.567V64.8H301.927V65.52H302.287V66.24H302.647V66.96H303.007V67.68H303.367V68.4H303.727V69.12H304.087V69.84H304.447V64.08H305.527V72ZM310.569 71.28H310.209V71.64H309.849V72H307.329V71.64H306.969V71.28H306.609V70.92H306.249V70.56H305.889V65.52H306.249V65.16H306.609V64.8H306.969V64.44H307.329V64.08H309.849V64.44H310.209V64.8H310.569V65.52H309.489V65.16H307.689V65.52H307.329V65.88H306.969V70.2H307.329V70.56H307.689V70.92H309.489V68.76H309.129V69.12H308.049V67.68H310.569V71.28ZM204.68 83.12H202.88V84.92H201.8V83.12H200V82.04H201.8V80.24H202.88V82.04H204.68V83.12ZM214.765 84.92H214.405V85.28H214.045V85.64H213.685V86H210.085V78.08H213.685V78.44H214.045V78.8H214.405V79.16H214.765V80.96H214.405V81.32H214.045V81.68H213.685V82.04H214.045V82.4H214.405V82.76H214.765V84.92ZM213.685 80.6V79.52H213.325V79.16H211.165V81.32H212.965V80.96H213.325V80.6H213.685ZM213.685 84.56V83.12H213.325V82.76H212.965V82.4H211.165V84.92H213.325V84.56H213.685ZM219.807 84.92H219.447V85.28H219.087V85.64H218.727V86H216.207V85.64H215.847V85.28H215.487V84.92H215.127V78.08H216.207V84.56H216.567V84.92H218.367V84.56H218.727V78.08H219.807V84.92ZM224.849 85.28H224.489V85.64H224.129V86H221.609V85.64H221.249V85.28H220.889V84.92H220.529V84.56H220.169V79.52H220.529V79.16H220.889V78.8H221.249V78.44H221.609V78.08H224.129V78.44H224.489V78.8H224.849V79.52H223.769V79.16H221.969V79.52H221.609V79.88H221.249V84.2H221.609V84.56H221.969V84.92H223.769V82.76H223.409V83.12H222.329V81.68H224.849V85.28ZM234.934 79.16H231.334V81.32H233.854V82.4H231.334V86H230.254V78.08H234.934V79.16ZM239.976 86H235.296V84.92H237.096V79.16H236.376V78.08H238.896V79.16H238.176V84.92H239.976V86ZM245.019 86H243.939V84.92H243.579V83.84H243.219V83.12H242.859V82.76H242.499V83.12H242.139V83.84H241.779V84.92H241.419V86H240.339V84.92H240.699V83.84H241.059V83.12H241.419V82.4H241.779V81.68H241.419V80.96H241.059V80.24H240.699V79.16H240.339V78.08H241.419V79.16H241.779V80.24H242.139V80.96H242.499V81.32H242.859V80.96H243.219V80.24H243.579V79.16H243.939V78.08H245.019V79.16H244.659V80.24H244.299V80.96H243.939V81.68H243.579V82.4H243.939V83.12H244.299V83.84H244.659V84.92H245.019V86ZM250.061 86H245.381V78.08H250.061V79.16H246.461V81.32H249.341V82.4H246.461V84.92H250.061V86ZM255.103 84.92H254.743V85.28H254.383V85.64H254.023V86H251.503V85.64H251.143V85.28H250.783V84.92H250.423V83.84H251.503V84.56H251.863V84.92H253.663V84.56H254.023V82.76H253.663V82.4H251.503V82.04H251.143V81.68H250.783V81.32H250.423V79.16H250.783V78.8H251.143V78.44H251.503V78.08H254.023V78.44H254.383V78.8H254.743V79.16H255.103V80.24H254.023V79.52H253.663V79.16H251.863V79.52H251.503V80.96H251.863V81.32H254.023V81.68H254.383V82.04H254.743V82.4H255.103V84.92Z" fill="#D9D9D9"/>
<path d="M204.68 25H200V23.92H201.8V18.16H201.08V17.08H203.6V18.16H202.88V23.92H204.68V25ZM209.722 23.2H209.362V23.56H209.002V23.92H208.642V24.28H208.282V24.64H207.91V25H205.042V17.08H207.922V17.44H208.282V17.8H208.642V18.16H209.002V18.52H209.362V18.88H209.722V23.2ZM208.642 22.84V19.24H208.282V18.88H207.922V18.52H207.562V18.16H206.122V23.92H207.562V23.56H207.922V23.2H208.282V22.84H208.642ZM212.965 25H211.525V23.56H212.965V25ZM219.807 23.56H219.087V25H218.007V23.56H215.127V23.2V22.84H215.487V22.12H215.847V21.4H216.207V20.68H216.567V19.96H216.927V19.24H217.287V18.52H217.647V17.8H218.007V17.08H219.087V22.48H219.807V23.56ZM218.007 22.48V19.6H217.647V20.32H217.287V21.04H216.927V21.76H216.567V22.48H218.007ZM223.049 25H221.609V23.56H223.049V25ZM229.892 23.56H229.532V23.92H229.172V24.28H228.812V24.64H228.452V25H226.652V24.64H226.292V24.28H225.932V23.92H225.572V23.56H225.212V18.52H225.572V18.16H225.932V17.8H226.292V17.44H226.652V17.08H228.452V17.44H228.812V17.8H229.172V18.16H229.532V18.52H229.892V23.56ZM228.452 18.88V18.52V18.16H226.652V18.52H226.292V22.48H226.652V21.76H227.012V21.04H227.372V20.32H227.732V19.6H228.092V18.88H228.452ZM228.812 23.56V19.96H228.452V20.68H228.092V21.4H227.732V22.12H227.372V22.84H227.012V23.56H226.652V23.92H228.452V23.56H228.812ZM234.934 23.56H234.574V23.92H234.214V24.28H233.854V24.64H233.494V25H231.694V24.64H231.334V24.28H230.974V23.92H230.614V23.56H230.254V18.52H230.614V18.16H230.974V17.8H231.334V17.44H231.694V17.08H233.494V17.44H233.854V17.8H234.214V18.16H234.574V18.52H234.934V23.56ZM233.494 18.88V18.52V18.16H231.694V18.52H231.334V22.48H231.694V21.76H232.054V21.04H232.414V20.32H232.774V19.6H233.134V18.88H233.494ZM233.854 23.56V19.96H233.494V20.68H233.134V21.4H232.774V22.12H232.414V22.84H232.054V23.56H231.694V23.92H233.494V23.56H233.854ZM239.976 25H235.296V22.12H235.656V21.76H236.016V21.4H236.376V21.04H236.736V20.68H238.176V20.32H238.536V19.96H238.896V18.52H238.536V18.16H236.736V18.52H236.376V19.24H235.296V18.16H235.656V17.8H236.016V17.44H236.376V17.08H238.896V17.44H239.256V17.8H239.616V18.16H239.976V20.32H239.616V20.68H239.256V21.04H238.896V21.4H238.536V21.76H237.096V22.12H236.736V22.48H236.376V23.92H239.976V25Z" fill="#4B4B4B"/>
<rect x="183" width="6" height="6" fill="#4B4B4B"/>
<path d="M307 25H311V29H303V21H307V25ZM315 25H311V21H315V25ZM311 21H307V17H311V21Z" fill="#4B4B4B"/>
<rect x="326" width="6" height="6" fill="#4B4B4B"/>
<rect x="183" y="98" width="6" height="6" fill="#4B4B4B"/>
<rect x="326" y="98" width="6" height="6" fill="#4B4B4B"/>
</g>
<rect x="183.5" y="0.5" width="148" height="103" stroke="#4B4B4B"/>
<g clip-path="url(#clip2_3101_7312)">
<path d="M204.68 206H203.6V202.4H201.08V206H200V198.08H201.08V201.32H203.6V198.08H204.68V206ZM209.722 206H208.642V204.2H206.122V206H205.042V203.12V202.76V202.04H205.402V201.32H205.762V200.6H206.122V199.88H206.482V199.16H206.842V198.44H207.202V198.08H207.562V198.44H207.922V199.16H208.282V199.88H208.642V200.6H209.002V201.32H209.362V202.04H209.722V202.76V203.12V206ZM208.642 203.12V202.76V202.4H208.282V201.68H207.922V200.96H207.562V200.24H207.202V200.96H206.842V201.68H206.482V202.4H206.122V202.76V203.12H208.642ZM214.765 206H213.685V205.64H213.325V204.92H212.965V204.2H212.605V203.48H212.245V202.76H211.885V202.04H211.525V201.32H211.165V206H210.085V198.08H210.805V198.8H211.165V199.52H211.525V200.24H211.885V200.96H212.245V201.68H212.605V202.4H212.965V203.12H213.325V203.84H213.685V198.08H214.765V206ZM219.807 204.2H219.447V204.56H219.087V204.92H218.727V205.28H218.367V205.64H217.995V206H215.127V198.08H218.007V198.44H218.367V198.8H218.727V199.16H219.087V199.52H219.447V199.88H219.807V204.2ZM218.727 203.84V200.24H218.367V199.88H218.007V199.52H217.647V199.16H216.207V204.92H217.647V204.56H218.007V204.2H218.367V203.84H218.727ZM224.849 204.56H224.489V204.92H224.129V205.28H223.769V205.64H223.409V206H221.609V205.64H221.249V205.28H220.889V204.92H220.529V204.56H220.169V199.52H220.529V199.16H220.889V198.8H221.249V198.44H221.609V198.08H223.409V198.44H223.769V198.8H224.129V199.16H224.489V199.52H224.849V204.56ZM223.769 204.2V199.88H223.409V199.52H223.049V199.16H221.969V199.52H221.609V199.88H221.249V204.2H221.609V204.56H221.969V204.92H223.049V204.56H223.409V204.2H223.769ZM229.892 199.16H226.292V201.32H228.812V202.4H226.292V206H225.212V198.08H229.892V199.16ZM234.934 199.16H231.334V201.32H233.854V202.4H231.334V206H230.254V198.08H234.934V199.16ZM245.019 206H244.659V205.28H244.299V204.56H243.939V203.84H243.579V203.12H243.219V202.4H242.859V201.68H242.499V202.4H242.139V203.12H241.779V203.84H241.419V204.56H241.059V205.28H240.699V206H240.339V198.08H241.419V202.04H241.779V201.32H242.139V200.6H242.499V199.88H242.859V200.6H243.219V201.32H243.579V202.04H243.939V198.08H245.019V206ZM250.061 206H245.381V204.92H247.181V199.16H246.461V198.08H248.981V199.16H248.261V204.92H250.061V206ZM255.103 199.16H253.303V206H252.223V199.16H250.423V198.08H255.103V199.16ZM260.146 206H259.066V202.4H256.546V206H255.466V198.08H256.546V201.32H259.066V198.08H260.146V206ZM204.68 218.2H204.32V218.56H203.96V218.92H203.6V219.28H203.24V219.64H202.868V220H200V212.08H202.88V212.44H203.24V212.8H203.6V213.16H203.96V213.52H204.32V213.88H204.68V218.2ZM203.6 217.84V214.24H203.24V213.88H202.88V213.52H202.52V213.16H201.08V218.92H202.52V218.56H202.88V218.2H203.24V217.84H203.6ZM209.722 218.56H209.362V218.92H209.002V219.28H208.642V219.64H208.282V220H206.482V219.64H206.122V219.28H205.762V218.92H205.402V218.56H205.042V213.52H205.402V213.16H205.762V212.8H206.122V212.44H206.482V212.08H208.282V212.44H208.642V212.8H209.002V213.16H209.362V213.52H209.722V218.56ZM208.642 218.2V213.88H208.282V213.52H207.922V213.16H206.842V213.52H206.482V213.88H206.122V218.2H206.482V218.56H206.842V218.92H207.922V218.56H208.282V218.2H208.642ZM214.765 218.92H214.405V219.28H214.045V219.64H213.685V220H211.525V219.64H211.165V219.28H210.805V218.92H210.445V218.56H210.085V213.52H210.445V213.16H210.805V212.8H211.165V212.44H211.525V212.08H213.685V212.44H214.045V212.8H214.405V213.16H214.765V214.24H213.685V213.52H213.325V213.16H211.885V213.52H211.525V213.88H211.165V218.2H211.525V218.56H211.885V218.92H213.325V218.56H213.685V217.84H214.765V218.92ZM219.807 218.92H219.447V219.28H219.087V219.64H218.727V220H216.207V219.64H215.847V219.28H215.487V218.92H215.127V212.08H216.207V218.56H216.567V218.92H218.367V218.56H218.727V212.08H219.807V218.92ZM224.849 220H223.769V216.04H223.409V216.76H223.049V217.48H222.689V218.2H222.329V217.48H221.969V216.76H221.609V216.04H221.249V220H220.169V212.08H220.529V212.8H220.889V213.52H221.249V214.24H221.609V214.96H221.969V215.68H222.329V216.4H222.689V215.68H223.049V214.96H223.409V214.24H223.769V213.52H224.129V212.8H224.489V212.08H224.849V220ZM229.892 220H225.212V212.08H229.892V213.16H226.292V215.32H229.172V216.4H226.292V218.92H229.892V220ZM234.934 220H233.854V219.64H233.494V218.92H233.134V218.2H232.774V217.48H232.414V216.76H232.054V216.04H231.694V215.32H231.334V220H230.254V212.08H230.974V212.8H231.334V213.52H231.694V214.24H232.054V214.96H232.414V215.68H232.774V216.4H233.134V217.12H233.494V217.84H233.854V212.08H234.934V220ZM239.976 213.16H238.176V220H237.096V213.16H235.296V212.08H239.976V213.16ZM245.019 220H243.939V218.2H241.419V220H240.339V217.12V216.76V216.04H240.699V215.32H241.059V214.6H241.419V213.88H241.779V213.16H242.139V212.44H242.499V212.08H242.859V212.44H243.219V213.16H243.579V213.88H243.939V214.6H244.299V215.32H244.659V216.04H245.019V216.76V217.12V220ZM243.939 217.12V216.76V216.4H243.579V215.68H243.219V214.96H242.859V214.24H242.499V214.96H242.139V215.68H241.779V216.4H241.419V216.76V217.12H243.939ZM250.061 213.16H248.261V220H247.181V213.16H245.381V212.08H250.061V213.16ZM255.103 220H250.423V218.92H252.223V213.16H251.503V212.08H254.023V213.16H253.303V218.92H255.103V220ZM260.146 218.56H259.786V218.92H259.426V219.28H259.066V219.64H258.706V220H256.906V219.64H256.546V219.28H256.186V218.92H255.826V218.56H255.466V213.52H255.826V213.16H256.186V212.8H256.546V212.44H256.906V212.08H258.706V212.44H259.066V212.8H259.426V213.16H259.786V213.52H260.146V218.56ZM259.066 218.2V213.88H258.706V213.52H258.346V213.16H257.266V213.52H256.906V213.88H256.546V218.2H256.906V218.56H257.266V218.92H258.346V218.56H258.706V218.2H259.066ZM265.188 220H264.108V219.64H263.748V218.92H263.388V218.2H263.028V217.48H262.668V216.76H262.308V216.04H261.948V215.32H261.588V220H260.508V212.08H261.228V212.8H261.588V213.52H261.948V214.24H262.308V214.96H262.668V215.68H263.028V216.4H263.388V217.12H263.748V217.84H264.108V212.08H265.188V220ZM275.273 217.48H270.593V216.4H275.273V217.48ZM285.357 218.56H284.997V218.92H284.637V219.28H284.277V219.64H283.917V220H282.117V219.64H281.757V219.28H281.397V218.92H281.037V218.56H280.677V213.52H281.037V213.16H281.397V212.8H281.757V212.44H282.117V212.08H283.917V212.44H284.277V212.8H284.637V213.16H284.997V213.52H285.357V218.56ZM284.277 218.2V213.88H283.917V213.52H283.557V213.16H282.477V213.52H282.117V213.88H281.757V218.2H282.117V218.56H282.477V218.92H283.557V218.56H283.917V218.2H284.277ZM290.4 220H289.32V218.56H288.96V217.84H288.6V217.12H288.24V216.4H286.8V220H285.72V212.08H289.32V212.44H289.68V212.8H290.04V213.16H290.4V215.32H290.04V215.68H289.68V216.04H289.32V216.76H289.68V217.48H290.04V218.2H290.4V220ZM289.32 214.96V213.52H288.96V213.16H286.8V215.32H288.96V214.96H289.32ZM204.68 234H203.6V233.28H203.24V232.56H202.88V231.84H202.52V231.12H202.16V230.4H201.44V230.76H201.08V234H200V226.08H201.08V229.32H201.44V228.96H201.8V228.6H202.16V228.24H202.52V227.88H202.88V227.52H203.24V227.148H203.6V226.8H203.96V226.44H204.32V226.08H204.68V227.52H204.32V227.88H203.96V228.24H203.6V228.588H203.24V228.96H202.88V229.32H202.52V229.68H202.88V230.04H203.24V230.76H203.6V231.48H203.96V232.2H204.32V232.92H204.68V234ZM209.722 234H205.042V226.08H209.722V227.16H206.122V229.32H209.002V230.4H206.122V232.92H209.722V234ZM214.765 234H210.085V226.08H214.765V227.16H211.165V229.32H214.045V230.4H211.165V232.92H214.765V234ZM219.807 229.68H219.447V230.04H219.087V230.4H218.727V230.76H216.207V234H215.127V226.08H218.727V226.44H219.087V226.8H219.447V227.16H219.807V229.68ZM218.727 229.32V227.52H218.367V227.16H216.207V229.68H218.367V229.32H218.727ZM229.892 232.92H229.532V233.28H229.172V233.64H228.812V234H226.292V233.64H225.932V233.28H225.572V232.92H225.212V226.08H226.292V232.56H226.652V232.92H228.452V232.56H228.812V226.08H229.892V232.92ZM234.934 232.92H234.574V233.28H234.214V233.64H233.854V234H231.334V233.64H230.974V233.28H230.614V232.92H230.254V231.84H231.334V232.56H231.694V232.92H233.494V232.56H233.854V230.76H233.494V230.4H231.334V230.04H230.974V229.68H230.614V229.32H230.254V227.16H230.614V226.8H230.974V226.44H231.334V226.08H233.854V226.44H234.214V226.8H234.574V227.16H234.934V228.24H233.854V227.52H233.494V227.16H231.694V227.52H231.334V228.96H231.694V229.32H233.854V229.68H234.214V230.04H234.574V230.4H234.934V232.92ZM245.019 232.56H244.659V232.92H244.299V233.28H243.939V233.64H243.579V234H241.779V233.64H241.419V233.28H241.059V232.92H240.699V232.56H240.339V227.52H240.699V227.16H241.059V226.8H241.419V226.44H241.779V226.08H243.579V226.44H243.939V226.8H244.299V227.16H244.659V227.52H245.019V232.56ZM243.939 232.2V227.88H243.579V227.52H243.219V227.16H242.139V227.52H241.779V227.88H241.419V232.2H241.779V232.56H242.139V232.92H243.219V232.56H243.579V232.2H243.939ZM250.061 234H248.981V233.64H248.621V232.92H248.261V232.2H247.901V231.48H247.541V230.76H247.181V230.04H246.821V229.32H246.461V234H245.381V226.08H246.101V226.8H246.461V227.52H246.821V228.24H247.181V228.96H247.541V229.68H247.901V230.4H248.261V231.12H248.621V231.84H248.981V226.08H250.061V234ZM260.146 234H259.066V232.2H256.546V234H255.466V231.12V230.76V230.04H255.826V229.32H256.186V228.6H256.546V227.88H256.906V227.16H257.266V226.44H257.626V226.08H257.986V226.44H258.346V227.16H258.706V227.88H259.066V228.6H259.426V229.32H259.786V230.04H260.146V230.76V231.12V234ZM259.066 231.12V230.76V230.4H258.706V229.68H258.346V228.96H257.986V228.24H257.626V228.96H257.266V229.68H256.906V230.4H256.546V230.76V231.12H259.066ZM265.188 232.92H264.828V233.28H264.468V233.64H264.108V234H261.588V233.64H261.228V233.28H260.868V232.92H260.508V231.84H261.588V232.56H261.948V232.92H263.748V232.56H264.108V230.76H263.748V230.4H261.588V230.04H261.228V229.68H260.868V229.32H260.508V227.16H260.868V226.8H261.228V226.44H261.588V226.08H264.108V226.44H264.468V226.8H264.828V227.16H265.188V228.24H264.108V227.52H263.748V227.16H261.948V227.52H261.588V228.96H261.948V229.32H264.108V229.68H264.468V230.04H264.828V230.4H265.188V232.92ZM275.273 227.16H274.913V227.88H274.553V228.6H274.193V229.32H273.833V230.04H273.473V234H272.393V230.04H272.033V229.32H271.673V228.6H271.313V227.88H270.953V227.16H270.593V226.08H271.673V226.8H272.033V227.52H272.393V228.24H272.753V228.96H273.113V228.24H273.473V227.52H273.833V226.8H274.193V226.08H275.273V227.16ZM280.315 232.56H279.955V232.92H279.595V233.28H279.235V233.64H278.875V234H277.075V233.64H276.715V233.28H276.355V232.92H275.995V232.56H275.635V227.52H275.995V227.16H276.355V226.8H276.715V226.44H277.075V226.08H278.875V226.44H279.235V226.8H279.595V227.16H279.955V227.52H280.315V232.56ZM279.235 232.2V227.88H278.875V227.52H278.515V227.16H277.435V227.52H277.075V227.88H276.715V232.2H277.075V232.56H277.435V232.92H278.515V232.56H278.875V232.2H279.235ZM285.357 232.92H284.997V233.28H284.637V233.64H284.277V234H281.757V233.64H281.397V233.28H281.037V232.92H280.677V226.08H281.757V232.56H282.117V232.92H283.917V232.56H284.277V226.08H285.357V232.92ZM290.4 234H289.32V232.56H288.96V231.84H288.6V231.12H288.24V230.4H286.8V234H285.72V226.08H289.32V226.44H289.68V226.8H290.04V227.16H290.4V229.32H290.04V229.68H289.68V230.04H289.32V230.76H289.68V231.48H290.04V232.2H290.4V234ZM289.32 228.96V227.52H288.96V227.16H286.8V229.32H288.96V228.96H289.32ZM204.68 241.16H202.88V248H201.8V241.16H200V240.08H204.68V241.16ZM209.722 248H205.042V240.08H209.722V241.16H206.122V243.32H209.002V244.4H206.122V246.92H209.722V248ZM214.765 248H213.685V246.2H211.165V248H210.085V245.12V244.76V244.04H210.445V243.32H210.805V242.6H211.165V241.88H211.525V241.16H211.885V240.44H212.245V240.08H212.605V240.44H212.965V241.16H213.325V241.88H213.685V242.6H214.045V243.32H214.405V244.04H214.765V244.76V245.12V248ZM213.685 245.12V244.76V244.4H213.325V243.68H212.965V242.96H212.605V242.24H212.245V242.96H211.885V243.68H211.525V244.4H211.165V244.76V245.12H213.685ZM219.807 248H218.727V244.04H218.367V244.76H218.007V245.48H217.647V246.2H217.287V245.48H216.927V244.76H216.567V244.04H216.207V248H215.127V240.08H215.487V240.8H215.847V241.52H216.207V242.24H216.567V242.96H216.927V243.68H217.287V244.4H217.647V243.68H218.007V242.96H218.367V242.24H218.727V241.52H219.087V240.8H219.447V240.08H219.807V248ZM229.892 248H229.532V247.28H229.172V246.56H228.812V245.84H228.452V245.12H228.092V244.4H227.732V243.68H227.372V244.4H227.012V245.12H226.652V245.84H226.292V246.56H225.932V247.28H225.572V248H225.212V240.08H226.292V244.04H226.652V243.32H227.012V242.6H227.372V241.88H227.732V242.6H228.092V243.32H228.452V244.04H228.812V240.08H229.892V248ZM234.934 248H230.254V240.08H234.934V241.16H231.334V243.32H234.214V244.4H231.334V246.92H234.934V248ZM238.176 241.88H237.096V240.08H238.176V241.88ZM245.019 248H243.939V246.56H243.579V245.84H243.219V245.12H242.859V244.4H241.419V248H240.339V240.08H243.939V240.44H244.299V240.8H244.659V241.16H245.019V243.32H244.659V243.68H244.299V244.04H243.939V244.76H244.299V245.48H244.659V246.2H245.019V248ZM243.939 242.96V241.52H243.579V241.16H241.419V243.32H243.579V242.96H243.939ZM250.061 248H245.381V240.08H250.061V241.16H246.461V243.32H249.341V244.4H246.461V246.92H250.061V248ZM260.146 248H259.066V247.64H258.706V246.92H258.346V246.2H257.986V245.48H257.626V244.76H257.266V244.04H256.906V243.32H256.546V248H255.466V240.08H256.186V240.8H256.546V241.52H256.906V242.24H257.266V242.96H257.626V243.68H257.986V244.4H258.346V245.12H258.706V245.84H259.066V240.08H260.146V248ZM265.188 246.56H264.828V246.92H264.468V247.28H264.108V247.64H263.748V248H261.948V247.64H261.588V247.28H261.228V246.92H260.868V246.56H260.508V241.52H260.868V241.16H261.228V240.8H261.588V240.44H261.948V240.08H263.748V240.44H264.108V240.8H264.468V241.16H264.828V241.52H265.188V246.56ZM264.108 246.2V241.88H263.748V241.52H263.388V241.16H262.308V241.52H261.948V241.88H261.588V246.2H261.948V246.56H262.308V246.92H263.388V246.56H263.748V246.2H264.108ZM270.23 241.16H268.43V248H267.35V241.16H265.55V240.08H270.23V241.16ZM279.595 241.88H278.515V240.08H279.595V241.88ZM277.795 241.88H276.715V240.08H277.795V241.88ZM285.357 246.2H284.997V246.56H284.637V246.92H284.277V247.28H283.917V247.64H283.545V248H280.677V240.08H283.557V240.44H283.917V240.8H284.277V241.16H284.637V241.52H284.997V241.88H285.357V246.2ZM284.277 245.84V242.24H283.917V241.88H283.557V241.52H283.197V241.16H281.757V246.92H283.197V246.56H283.557V246.2H283.917V245.84H284.277ZM290.4 246.56H290.04V246.92H289.68V247.28H289.32V247.64H288.96V248H287.16V247.64H286.8V247.28H286.44V246.92H286.08V246.56H285.72V241.52H286.08V241.16H286.44V240.8H286.8V240.44H287.16V240.08H288.96V240.44H289.32V240.8H289.68V241.16H290.04V241.52H290.4V246.56ZM289.32 246.2V241.88H288.96V241.52H288.6V241.16H287.52V241.52H287.16V241.88H286.8V246.2H287.16V246.56H287.52V246.92H288.6V246.56H288.96V246.2H289.32ZM295.442 248H294.362V247.64H294.002V246.92H293.642V246.2H293.282V245.48H292.922V244.76H292.562V244.04H292.202V243.32H291.842V248H290.762V240.08H291.482V240.8H291.842V241.52H292.202V242.24H292.562V242.96H292.922V243.68H293.282V244.4H293.642V245.12H294.002V245.84H294.362V240.08H295.442V248ZM300.485 248H295.805V240.08H300.485V241.16H296.885V243.32H299.765V244.4H296.885V246.92H300.485V248ZM304.807 241.88H303.727V240.08H304.807V241.88ZM303.007 241.88H301.927V240.08H303.007V241.88ZM204.68 260.92H204.32V261.28H203.96V261.64H203.6V262H201.08V261.64H200.72V261.28H200.36V260.92H200V254.08H201.08V260.56H201.44V260.92H203.24V260.56H203.6V254.08H204.68V260.92ZM209.722 262H208.642V261.64H208.282V260.92H207.922V260.2H207.562V259.48H207.202V258.76H206.842V258.04H206.482V257.32H206.122V262H205.042V254.08H205.762V254.8H206.122V255.52H206.482V256.24H206.842V256.96H207.202V257.68H207.562V258.4H207.922V259.12H208.282V259.84H208.642V254.08H209.722V262ZM214.765 255.16H212.965V262H211.885V255.16H210.085V254.08H214.765V255.16ZM219.807 262H215.127V260.92H216.927V255.16H216.207V254.08H218.727V255.16H218.007V260.92H219.807V262ZM224.849 262H220.169V254.08H221.249V260.92H224.849V262ZM234.934 255.16H234.574V255.88H234.214V256.6H233.854V257.32H233.494V258.04H233.134V262H232.054V258.04H231.694V257.32H231.334V256.6H230.974V255.88H230.614V255.16H230.254V254.08H231.334V254.8H231.694V255.52H232.054V256.24H232.414V256.96H232.774V256.24H233.134V255.52H233.494V254.8H233.854V254.08H234.934V255.16ZM239.976 260.56H239.616V260.92H239.256V261.28H238.896V261.64H238.536V262H236.736V261.64H236.376V261.28H236.016V260.92H235.656V260.56H235.296V255.52H235.656V255.16H236.016V254.8H236.376V254.44H236.736V254.08H238.536V254.44H238.896V254.8H239.256V255.16H239.616V255.52H239.976V260.56ZM238.896 260.2V255.88H238.536V255.52H238.176V255.16H237.096V255.52H236.736V255.88H236.376V260.2H236.736V260.56H237.096V260.92H238.176V260.56H238.536V260.2H238.896ZM245.019 260.92H244.659V261.28H244.299V261.64H243.939V262H241.419V261.64H241.059V261.28H240.699V260.92H240.339V254.08H241.419V260.56H241.779V260.92H243.579V260.56H243.939V254.08H245.019V260.92ZM255.103 260.92H254.743V261.28H254.383V261.64H254.023V262H251.503V261.64H251.143V261.28H250.783V260.92H250.423V259.84H251.503V260.56H251.863V260.92H253.663V260.56H254.023V258.76H253.663V258.4H251.503V258.04H251.143V257.68H250.783V257.32H250.423V255.16H250.783V254.8H251.143V254.44H251.503V254.08H254.023V254.44H254.383V254.8H254.743V255.16H255.103V256.24H254.023V255.52H253.663V255.16H251.863V255.52H251.503V256.96H251.863V257.32H254.023V257.68H254.383V258.04H254.743V258.4H255.103V260.92ZM260.146 262H259.066V260.2H256.546V262H255.466V259.12V258.76V258.04H255.826V257.32H256.186V256.6H256.546V255.88H256.906V255.16H257.266V254.44H257.626V254.08H257.986V254.44H258.346V255.16H258.706V255.88H259.066V256.6H259.426V257.32H259.786V258.04H260.146V258.76V259.12V262ZM259.066 259.12V258.76V258.4H258.706V257.68H258.346V256.96H257.986V256.24H257.626V256.96H257.266V257.68H256.906V258.4H256.546V258.76V259.12H259.066ZM265.188 255.16H264.828V255.88H264.468V256.6H264.108V257.32H263.748V258.04H263.388V262H262.308V258.04H261.948V257.32H261.588V256.6H261.228V255.88H260.868V255.16H260.508V254.08H261.588V254.8H261.948V255.52H262.308V256.24H262.668V256.96H263.028V256.24H263.388V255.52H263.748V254.8H264.108V254.08H265.188V255.16ZM275.273 262H274.913V261.28H274.553V260.56H274.193V259.84H273.833V259.12H273.473V258.4H273.113V257.68H272.753V258.4H272.393V259.12H272.033V259.84H271.673V260.56H271.313V261.28H270.953V262H270.593V254.08H271.673V258.04H272.033V257.32H272.393V256.6H272.753V255.88H273.113V256.6H273.473V257.32H273.833V258.04H274.193V254.08H275.273V262ZM280.315 262H275.635V254.08H280.315V255.16H276.715V257.32H279.595V258.4H276.715V260.92H280.315V262ZM290.4 262H289.32V260.2H286.8V262H285.72V259.12V258.76V258.04H286.08V257.32H286.44V256.6H286.8V255.88H287.16V255.16H287.52V254.44H287.88V254.08H288.24V254.44H288.6V255.16H288.96V255.88H289.32V256.6H289.68V257.32H290.04V258.04H290.4V258.76V259.12V262ZM289.32 259.12V258.76V258.4H288.96V257.68H288.6V256.96H288.24V256.24H287.88V256.96H287.52V257.68H287.16V258.4H286.8V258.76V259.12H289.32ZM295.442 262H294.362V260.56H294.002V259.84H293.642V259.12H293.282V258.4H291.842V262H290.762V254.08H294.362V254.44H294.722V254.8H295.082V255.16H295.442V257.32H295.082V257.68H294.722V258.04H294.362V258.76H294.722V259.48H295.082V260.2H295.442V262ZM294.362 256.96V255.52H294.002V255.16H291.842V257.32H294.002V256.96H294.362ZM300.485 262H295.805V254.08H300.485V255.16H296.885V257.32H299.765V258.4H296.885V260.92H300.485V262Z" fill="#D9D9D9"/>
<path d="M204.68 145H200V143.92H201.8V138.16H201.08V137.08H203.6V138.16H202.88V143.92H204.68V145ZM209.722 143.2H209.362V143.56H209.002V143.92H208.642V144.28H208.282V144.64H207.91V145H205.042V137.08H207.922V137.44H208.282V137.8H208.642V138.16H209.002V138.52H209.362V138.88H209.722V143.2ZM208.642 142.84V139.24H208.282V138.88H207.922V138.52H207.562V138.16H206.122V143.92H207.562V143.56H207.922V143.2H208.282V142.84H208.642ZM212.965 145H211.525V143.56H212.965V145ZM219.807 143.56H219.087V145H218.007V143.56H215.127V143.2V142.84H215.487V142.12H215.847V141.4H216.207V140.68H216.567V139.96H216.927V139.24H217.287V138.52H217.647V137.8H218.007V137.08H219.087V142.48H219.807V143.56ZM218.007 142.48V139.6H217.647V140.32H217.287V141.04H216.927V141.76H216.567V142.48H218.007ZM223.049 145H221.609V143.56H223.049V145ZM229.892 143.56H229.532V143.92H229.172V144.28H228.812V144.64H228.452V145H226.652V144.64H226.292V144.28H225.932V143.92H225.572V143.56H225.212V138.52H225.572V138.16H225.932V137.8H226.292V137.44H226.652V137.08H228.452V137.44H228.812V137.8H229.172V138.16H229.532V138.52H229.892V143.56ZM228.452 138.88V138.52V138.16H226.652V138.52H226.292V142.48H226.652V141.76H227.012V141.04H227.372V140.32H227.732V139.6H228.092V138.88H228.452ZM228.812 143.56V139.96H228.452V140.68H228.092V141.4H227.732V142.12H227.372V142.84H227.012V143.56H226.652V143.92H228.452V143.56H228.812ZM234.934 143.56H234.574V143.92H234.214V144.28H233.854V144.64H233.494V145H231.694V144.64H231.334V144.28H230.974V143.92H230.614V143.56H230.254V138.52H230.614V138.16H230.974V137.8H231.334V137.44H231.694V137.08H233.494V137.44H233.854V137.8H234.214V138.16H234.574V138.52H234.934V143.56ZM233.494 138.88V138.52V138.16H231.694V138.52H231.334V142.48H231.694V141.76H232.054V141.04H232.414V140.32H232.774V139.6H233.134V138.88H233.494ZM233.854 143.56V139.96H233.494V140.68H233.134V141.4H232.774V142.12H232.414V142.84H232.054V143.56H231.694V143.92H233.494V143.56H233.854ZM239.976 143.92H239.616V144.28H239.256V144.64H238.896V145H236.376V144.64H236.016V144.28H235.656V143.92H235.296V142.84H236.376V143.56H236.736V143.92H238.536V143.56H238.896V142.12H238.536V141.76H238.176V141.4H237.816V141.04H237.456V140.68H237.096V140.32H236.736V139.96H237.096V139.6H237.456V139.24H237.816V138.88H238.176V138.52H238.536V138.16H235.296V137.08H239.976V138.52H239.616V138.88H239.256V139.24H238.896V139.6H238.536V139.96H238.176V140.32H238.536V140.68H238.896V141.04H239.256V141.4H239.616V141.76H239.976V143.92Z" fill="#4B4B4B"/>
<rect x="183" y="120" width="6" height="6" fill="#4B4B4B"/>
<path d="M315 149H311V145H315V149ZM315 141H311V145H303V141H307V137H315V141Z" fill="#4B4B4B"/>
<rect x="326" y="120" width="6" height="6" fill="#4B4B4B"/>
<rect x="183" y="274" width="6" height="6" fill="#4B4B4B"/>
<rect x="326" y="274" width="6" height="6" fill="#4B4B4B"/>
</g>
<rect x="183.5" y="120.5" width="148" height="159" stroke="#4B4B4B"/>
<rect x="167.25" y="52.25" width="15.5" height="0.5" fill="#4B4B4B" stroke="#4B4B4B" stroke-width="0.5"/>
<rect x="257.75" y="104.25" width="15.5" height="0.5" transform="rotate(90 257.75 104.25)" fill="#4B4B4B" stroke="#4B4B4B" stroke-width="0.5"/>
<rect x="18.5" y="120.5" width="148" height="71" rx="35.5" stroke="#4B4B4B" stroke-dasharray="2 2"/>
<path d="M71.0383 170.1H70.7383V170.4H70.4383V170.7H70.1383V171H68.0383V170.7H67.7383V170.4H67.4383V170.1H67.1383V169.2H68.0383V169.8H68.3383V170.1H69.8383V169.8H70.1383V168.3H69.8383V168H68.0383V167.7H67.7383V167.4H67.4383V167.1H67.1383V165.3H67.4383V165H67.7383V164.7H68.0383V164.4H70.1383V164.7H70.4383V165H70.7383V165.3H71.0383V166.2H70.1383V165.6H69.8383V165.3H68.3383V165.6H68.0383V166.8H68.3383V167.1H70.1383V167.4H70.4383V167.7H70.7383V168H71.0383V170.1ZM75.2402 171H74.3402V170.7H74.0402V170.1H73.7402V169.5H73.4402V168.9H73.1402V168.3H72.8402V167.7H72.5402V167.1H72.2402V171H71.3402V164.4H71.9402V165H72.2402V165.6H72.5402V166.2H72.8402V166.8H73.1402V167.4H73.4402V168H73.7402V168.6H74.0402V169.2H74.3402V164.4H75.2402V171ZM77.9422 168.6H76.7422V167.4H77.9422V168.6ZM77.9422 171H76.7422V169.8H77.9422V171ZM87.8461 169.8H87.5461V170.1H87.2461V170.4H86.9461V170.7H86.6461V171H85.1461V170.7H84.8461V170.4H84.5461V170.1H84.2461V169.8H83.9461V165.6H84.2461V165.3H84.5461V165H84.8461V164.7H85.1461V164.4H86.6461V164.7H86.9461V165H87.2461V165.3H87.5461V165.6H87.8461V169.8ZM86.6461 165.9V165.6V165.3H85.1461V165.6H84.8461V168.9H85.1461V168.3H85.4461V167.7H85.7461V167.1H86.0461V166.5H86.3461V165.9H86.6461ZM86.9461 169.8V166.8H86.6461V167.4H86.3461V168H86.0461V168.6H85.7461V169.2H85.4461V169.8H85.1461V170.1H86.6461V169.8H86.9461ZM92.048 169.8H91.748V170.1H91.448V170.4H91.148V170.7H90.848V171H89.348V170.7H89.048V170.4H88.748V170.1H88.448V169.8H88.148V165.6H88.448V165.3H88.748V165H89.048V164.7H89.348V164.4H90.848V164.7H91.148V165H91.448V165.3H91.748V165.6H92.048V169.8ZM90.848 165.9V165.6V165.3H89.348V165.6H89.048V168.9H89.348V168.3H89.648V167.7H89.948V167.1H90.248V166.5H90.548V165.9H90.848ZM91.148 169.8V166.8H90.848V167.4H90.548V168H90.248V168.6H89.948V169.2H89.648V169.8H89.348V170.1H90.848V169.8H91.148ZM96.25 171H92.35V168.6H92.65V168.3H92.95V168H93.25V167.7H93.55V167.4H94.75V167.1H95.05V166.8H95.35V165.6H95.05V165.3H93.55V165.6H93.25V166.2H92.35V165.3H92.65V165H92.95V164.7H93.25V164.4H95.35V164.7H95.65V165H95.95V165.3H96.25V167.1H95.95V167.4H95.65V167.7H95.35V168H95.05V168.3H93.85V168.6H93.55V168.9H93.25V170.1H96.25V171ZM100.452 171H96.552V170.1H98.052V165.3H97.152V164.4H98.952V170.1H100.452V171ZM104.654 168H104.354V168.6H104.054V168.9H103.754V169.2H103.454V169.5H103.154V169.8H102.854V170.1H102.554V170.4H102.254V170.7H101.954V171H101.054V170.4H101.354V170.1H101.654V169.8H101.954V169.5H102.254V169.2H102.554V168.9H102.854V168.6H103.154V168.3H101.654V168H101.354V167.7H101.054V167.4H100.754V165.3H101.054V165H101.354V164.7H101.654V164.4H103.754V164.7H104.054V165H104.354V165.3H104.654V168ZM103.754 167.1V165.6H103.454V165.3H101.954V165.6H101.654V167.1H101.954V167.4H103.454V167.1H103.754ZM108.856 169.8H108.256V171H107.356V169.8H104.956V169.5V169.2H105.256V168.6H105.556V168H105.856V167.4H106.156V166.8H106.456V166.2H106.756V165.6H107.056V165H107.356V164.4H108.256V168.9H108.856V169.8ZM107.356 168.9V166.5H107.056V167.1H106.756V167.7H106.456V168.3H106.156V168.9H107.356ZM112.458 168.9H109.758V168H112.458V168.9ZM117.26 170.1H116.96V170.4H116.66V170.7H116.36V171H114.56V170.7H114.26V170.4H113.96V170.1H113.66V169.8H113.36V165.6H113.66V165.3H113.96V165H114.26V164.7H114.56V164.4H116.36V164.7H116.66V165H116.96V165.3H117.26V166.2H116.36V165.6H116.06V165.3H114.86V165.6H114.56V165.9H114.26V169.5H114.56V169.8H114.86V170.1H116.06V169.8H116.36V169.2H117.26V170.1ZM66.8363 183H65.9363V179.7H65.6363V180.3H65.3363V180.9H65.0363V181.5H64.7363V180.9H64.4363V180.3H64.1363V179.7H63.8363V183H62.9363V176.4H63.2363V177H63.5363V177.6H63.8363V178.2H64.1363V178.8H64.4363V179.4H64.7363V180H65.0363V179.4H65.3363V178.8H65.6363V178.2H65.9363V177.6H66.2363V177H66.5363V176.4H66.8363V183ZM71.0383 183H70.1383V181.5H68.0383V183H67.1383V180.6V180.3V179.7H67.4383V179.1H67.7383V178.5H68.0383V177.9H68.3383V177.3H68.6383V176.7H68.9383V176.4H69.2383V176.7H69.5383V177.3H69.8383V177.9H70.1383V178.5H70.4383V179.1H70.7383V179.7H71.0383V180.3V180.6V183ZM70.1383 180.6V180.3V180H69.8383V179.4H69.5383V178.8H69.2383V178.2H68.9383V178.8H68.6383V179.4H68.3383V180H68.0383V180.3V180.6H70.1383ZM75.2402 177.3H73.7402V183H72.8402V177.3H71.3402V176.4H75.2402V177.3ZM77.9422 180.6H76.7422V179.4H77.9422V180.6ZM77.9422 183H76.7422V181.8H77.9422V183ZM87.8461 183H86.9461V181.5H84.8461V183H83.9461V180.6V180.3V179.7H84.2461V179.1H84.5461V178.5H84.8461V177.9H85.1461V177.3H85.4461V176.7H85.7461V176.4H86.0461V176.7H86.3461V177.3H86.6461V177.9H86.9461V178.5H87.2461V179.1H87.5461V179.7H87.8461V180.3V180.6V183ZM86.9461 180.6V180.3V180H86.6461V179.4H86.3461V178.8H86.0461V178.2H85.7461V178.8H85.4461V179.4H85.1461V180H84.8461V180.3V180.6H86.9461ZM92.048 183H88.148V176.4H89.048V182.1H92.048V183ZM96.25 182.1H95.95V182.4H95.65V182.7H95.35V183H93.25V182.7H92.95V182.4H92.65V182.1H92.35V179.4H92.65V178.8H92.95V178.5H93.25V178.2H93.55V177.9H93.85V177.6H94.15V177.3H94.45V177H94.75V176.7H95.05V176.4H95.95V177H95.65V177.3H95.35V177.6H95.05V177.9H94.75V178.2H94.45V178.5H94.15V178.8H93.85V179.1H95.35V179.4H95.65V179.7H95.95V180H96.25V182.1ZM95.35 181.8V180.3H95.05V180H93.55V180.3H93.25V181.8H93.55V182.1H95.05V181.8H95.35ZM100.452 181.8H100.152V182.1H99.852V182.4H99.552V182.7H99.252V183H97.752V182.7H97.452V182.4H97.152V182.1H96.852V181.8H96.552V177.6H96.852V177.3H97.152V177H97.452V176.7H97.752V176.4H99.252V176.7H99.552V177H99.852V177.3H100.152V177.6H100.452V181.8ZM99.252 177.9V177.6V177.3H97.752V177.6H97.452V180.9H97.752V180.3H98.052V179.7H98.352V179.1H98.652V178.5H98.952V177.9H99.252ZM99.552 181.8V178.8H99.252V179.4H98.952V180H98.652V180.6H98.352V181.2H98.052V181.8H97.752V182.1H99.252V181.8H99.552ZM104.654 182.1H104.354V182.4H104.054V182.7H103.754V183H101.654V182.7H101.354V182.4H101.054V182.1H100.754V179.4H101.054V178.8H101.354V178.5H101.654V178.2H101.954V177.9H102.254V177.6H102.554V177.3H102.854V177H103.154V176.7H103.454V176.4H104.354V177H104.054V177.3H103.754V177.6H103.454V177.9H103.154V178.2H102.854V178.5H102.554V178.8H102.254V179.1H103.754V179.4H104.054V179.7H104.354V180H104.654V182.1ZM103.754 181.8V180.3H103.454V180H101.954V180.3H101.654V181.8H101.954V182.1H103.454V181.8H103.754ZM108.856 183H104.956V182.1H106.456V177.3H105.556V176.4H107.356V182.1H108.856V183ZM112.458 180.9H109.758V180H112.458V180.9ZM117.26 177.3H115.76V183H114.86V177.3H113.36V176.4H117.26V177.3ZM121.462 182.1H121.162V182.4H120.862V182.7H120.562V183H118.462V182.7H118.162V182.4H117.862V182.1H117.562V179.4H117.862V178.8H118.162V178.5H118.462V178.2H118.762V177.9H119.062V177.6H119.362V177.3H119.662V177H119.962V176.7H120.262V176.4H121.162V177H120.862V177.3H120.562V177.6H120.262V177.9H119.962V178.2H119.662V178.5H119.362V178.8H119.062V179.1H120.562V179.4H120.862V179.7H121.162V180H121.462V182.1ZM120.562 181.8V180.3H120.262V180H118.762V180.3H118.462V181.8H118.762V182.1H120.262V181.8H120.562Z" fill="#4B4B4B"/>
<path d="M57.2877 129.08C57.4477 129.173 57.631 129.283 57.8377 129.41C58.0443 129.537 58.2543 129.667 58.4677 129.8C58.6877 129.933 58.891 130.063 59.0777 130.19C59.271 130.31 59.4343 130.417 59.5677 130.51L58.8177 131.62C58.6843 131.52 58.521 131.407 58.3277 131.28C58.1343 131.153 57.9343 131.023 57.7277 130.89C57.521 130.757 57.3143 130.63 57.1077 130.51C56.9077 130.383 56.7243 130.273 56.5577 130.18L57.2877 129.08ZM55.4277 136.18C55.8077 136.113 56.1877 136.033 56.5677 135.94C56.9543 135.84 57.3377 135.717 57.7177 135.57C58.1043 135.423 58.4777 135.253 58.8377 135.06C59.4043 134.74 59.931 134.38 60.4177 133.98C60.911 133.58 61.351 133.153 61.7377 132.7C62.131 132.247 62.461 131.783 62.7277 131.31L63.4977 132.67C63.031 133.363 62.4543 134.017 61.7677 134.63C61.0877 135.243 60.3377 135.787 59.5177 136.26C59.1777 136.453 58.8043 136.633 58.3977 136.8C57.9977 136.967 57.601 137.11 57.2077 137.23C56.821 137.357 56.4777 137.447 56.1777 137.5L55.4277 136.18ZM55.7477 131.36C55.9143 131.453 56.101 131.563 56.3077 131.69C56.521 131.81 56.7343 131.937 56.9477 132.07C57.161 132.203 57.361 132.33 57.5477 132.45C57.741 132.57 57.901 132.677 58.0277 132.77L57.2977 133.89C57.151 133.79 56.9843 133.68 56.7977 133.56C56.611 133.433 56.411 133.303 56.1977 133.17C55.991 133.03 55.7843 132.9 55.5777 132.78C55.3777 132.66 55.191 132.557 55.0177 132.47L55.7477 131.36ZM71.9277 129.24C71.921 129.38 71.911 129.533 71.8977 129.7C71.891 129.86 71.8877 130.04 71.8877 130.24C71.8877 130.413 71.8877 130.623 71.8877 130.87C71.8877 131.117 71.8877 131.363 71.8877 131.61C71.8877 131.85 71.8877 132.053 71.8877 132.22C71.8877 132.753 71.861 133.22 71.8077 133.62C71.761 134.02 71.6877 134.37 71.5877 134.67C71.4877 134.97 71.3643 135.237 71.2177 135.47C71.0777 135.697 70.9143 135.913 70.7277 136.12C70.5077 136.36 70.2543 136.577 69.9677 136.77C69.681 136.957 69.391 137.113 69.0977 137.24C68.811 137.373 68.5443 137.48 68.2977 137.56L67.2477 136.46C67.7477 136.347 68.1977 136.19 68.5977 135.99C69.0043 135.783 69.3577 135.52 69.6577 135.2C69.831 135.007 69.971 134.813 70.0777 134.62C70.1843 134.427 70.2643 134.213 70.3177 133.98C70.3777 133.74 70.4177 133.47 70.4377 133.17C70.4643 132.87 70.4777 132.527 70.4777 132.14C70.4777 131.967 70.4777 131.76 70.4777 131.52C70.4777 131.28 70.4777 131.043 70.4777 130.81C70.4777 130.577 70.4777 130.387 70.4777 130.24C70.4777 130.04 70.471 129.86 70.4577 129.7C70.451 129.533 70.4377 129.38 70.4177 129.24H71.9277ZM67.2877 129.32C67.281 129.44 67.2743 129.56 67.2677 129.68C67.261 129.793 67.2577 129.93 67.2577 130.09C67.2577 130.163 67.2577 130.283 67.2577 130.45C67.2577 130.617 67.2577 130.813 67.2577 131.04C67.2577 131.26 67.2577 131.493 67.2577 131.74C67.2577 131.98 67.2577 132.213 67.2577 132.44C67.2577 132.667 67.2577 132.873 67.2577 133.06C67.2577 133.24 67.2577 133.377 67.2577 133.47C67.2577 133.597 67.261 133.743 67.2677 133.91C67.2743 134.077 67.281 134.22 67.2877 134.34H65.8377C65.8443 134.247 65.8543 134.113 65.8677 133.94C65.881 133.767 65.8877 133.607 65.8877 133.46C65.8877 133.367 65.8877 133.23 65.8877 133.05C65.8877 132.87 65.8877 132.667 65.8877 132.44C65.8877 132.207 65.8877 131.97 65.8877 131.73C65.8877 131.483 65.8877 131.25 65.8877 131.03C65.8877 130.81 65.8877 130.617 65.8877 130.45C65.8877 130.283 65.8877 130.163 65.8877 130.09C65.8877 129.997 65.8843 129.877 65.8777 129.73C65.871 129.577 65.861 129.44 65.8477 129.32H67.2877ZM83.1477 130.23C83.0943 130.297 83.0277 130.383 82.9477 130.49C82.8677 130.59 82.8043 130.677 82.7577 130.75C82.6043 131.01 82.401 131.31 82.1477 131.65C81.8943 131.983 81.6143 132.317 81.3077 132.65C81.001 132.977 80.6843 133.257 80.3577 133.49L79.3177 132.66C79.5177 132.54 79.7143 132.4 79.9077 132.24C80.101 132.08 80.2777 131.913 80.4377 131.74C80.6043 131.56 80.7477 131.39 80.8677 131.23C80.9943 131.07 81.091 130.927 81.1577 130.8C81.071 130.8 80.9243 130.8 80.7177 130.8C80.511 130.8 80.2643 130.8 79.9777 130.8C79.691 130.8 79.381 130.8 79.0477 130.8C78.721 130.8 78.3943 130.8 78.0677 130.8C77.741 130.8 77.431 130.8 77.1377 130.8C76.851 130.8 76.601 130.8 76.3877 130.8C76.181 130.8 76.0343 130.8 75.9477 130.8C75.741 130.8 75.5443 130.807 75.3577 130.82C75.171 130.833 74.961 130.85 74.7277 130.87V129.48C74.921 129.507 75.121 129.53 75.3277 129.55C75.5343 129.57 75.741 129.58 75.9477 129.58C76.0343 129.58 76.1877 129.58 76.4077 129.58C76.6277 129.58 76.8877 129.58 77.1877 129.58C77.4943 129.58 77.8177 129.58 78.1577 129.58C78.5043 129.58 78.8477 129.58 79.1877 129.58C79.5343 129.58 79.8543 129.58 80.1477 129.58C80.4477 129.58 80.701 129.58 80.9077 129.58C81.121 129.58 81.2643 129.58 81.3377 129.58C81.431 129.58 81.5443 129.577 81.6777 129.57C81.811 129.563 81.941 129.553 82.0677 129.54C82.201 129.527 82.2977 129.51 82.3577 129.49L83.1477 130.23ZM79.0677 131.58C79.0677 132.073 79.0577 132.55 79.0377 133.01C79.0177 133.47 78.961 133.913 78.8677 134.34C78.781 134.76 78.6377 135.16 78.4377 135.54C78.2443 135.92 77.9743 136.28 77.6277 136.62C77.281 136.96 76.8377 137.273 76.2977 137.56L75.1277 136.61C75.2877 136.557 75.4577 136.487 75.6377 136.4C75.8177 136.307 75.9977 136.193 76.1777 136.06C76.4977 135.84 76.7543 135.607 76.9477 135.36C77.1477 135.113 77.301 134.847 77.4077 134.56C77.5143 134.267 77.5877 133.95 77.6277 133.61C77.6677 133.263 77.6877 132.887 77.6877 132.48C77.6877 132.327 77.6843 132.18 77.6777 132.04C77.671 131.893 77.651 131.74 77.6177 131.58H79.0677ZM88.23 136.78C88.25 136.68 88.2667 136.567 88.28 136.44C88.3 136.307 88.31 136.173 88.31 136.04C88.31 135.967 88.31 135.82 88.31 135.6C88.31 135.38 88.31 135.113 88.31 134.8C88.31 134.487 88.31 134.15 88.31 133.79C88.31 133.423 88.31 133.053 88.31 132.68C88.31 132.307 88.31 131.957 88.31 131.63C88.31 131.297 88.31 131.007 88.31 130.76C88.31 130.507 88.31 130.323 88.31 130.21C88.31 129.983 88.2967 129.787 88.27 129.62C88.25 129.453 88.2367 129.363 88.23 129.35H89.72C89.7133 129.363 89.7 129.457 89.68 129.63C89.66 129.797 89.65 129.993 89.65 130.22C89.65 130.333 89.65 130.503 89.65 130.73C89.65 130.95 89.65 131.207 89.65 131.5C89.65 131.787 89.65 132.093 89.65 132.42C89.65 132.747 89.65 133.07 89.65 133.39C89.65 133.703 89.65 134.003 89.65 134.29C89.65 134.57 89.65 134.81 89.65 135.01C89.65 135.21 89.65 135.357 89.65 135.45C89.9233 135.33 90.2067 135.167 90.5 134.96C90.7933 134.753 91.08 134.513 91.36 134.24C91.6467 133.96 91.9 133.66 92.12 133.34L92.89 134.44C92.6167 134.8 92.2833 135.153 91.89 135.5C91.5033 135.847 91.1033 136.163 90.69 136.45C90.2767 136.737 89.88 136.977 89.5 137.17C89.3933 137.23 89.3067 137.283 89.24 137.33C89.1733 137.383 89.1167 137.43 89.07 137.47L88.23 136.78ZM83.6 136.63C84.04 136.323 84.4 135.953 84.68 135.52C84.96 135.087 85.1667 134.66 85.3 134.24C85.3733 134.02 85.4267 133.75 85.46 133.43C85.5 133.103 85.53 132.757 85.55 132.39C85.57 132.017 85.58 131.65 85.58 131.29C85.5867 130.923 85.59 130.587 85.59 130.28C85.59 130.08 85.58 129.91 85.56 129.77C85.5467 129.623 85.5267 129.487 85.5 129.36H86.97C86.9633 129.373 86.9533 129.43 86.94 129.53C86.9333 129.623 86.9233 129.737 86.91 129.87C86.9033 129.997 86.9 130.13 86.9 130.27C86.9 130.563 86.8967 130.907 86.89 131.3C86.8833 131.687 86.87 132.083 86.85 132.49C86.83 132.897 86.8 133.283 86.76 133.65C86.72 134.01 86.6667 134.317 86.6 134.57C86.4467 135.137 86.2167 135.663 85.91 136.15C85.61 136.63 85.2467 137.06 84.82 137.44L83.6 136.63ZM97.48 130.26C97.48 130.093 97.47 129.897 97.45 129.67C97.43 129.437 97.3967 129.243 97.35 129.09H98.94C98.9133 129.243 98.8933 129.44 98.88 129.68C98.8667 129.913 98.86 130.11 98.86 130.27C98.86 130.457 98.86 130.66 98.86 130.88C98.86 131.1 98.86 131.327 98.86 131.56C98.86 131.793 98.86 132.02 98.86 132.24C98.86 132.787 98.8167 133.307 98.73 133.8C98.6433 134.287 98.4933 134.753 98.28 135.2C98.0733 135.647 97.7833 136.067 97.41 136.46C97.0433 136.853 96.5733 137.22 96 137.56L94.76 136.64C95.2867 136.4 95.7233 136.123 96.07 135.81C96.4233 135.497 96.7033 135.153 96.91 134.78C97.1167 134.407 97.2633 134.007 97.35 133.58C97.4367 133.153 97.48 132.707 97.48 132.24C97.48 132.02 97.48 131.793 97.48 131.56C97.48 131.32 97.48 131.09 97.48 130.87C97.48 130.643 97.48 130.44 97.48 130.26ZM93.77 131.29C93.9233 131.303 94.0967 131.32 94.29 131.34C94.4833 131.353 94.68 131.36 94.88 131.36C94.9667 131.36 95.13 131.36 95.37 131.36C95.6167 131.36 95.9133 131.36 96.26 131.36C96.6067 131.36 96.98 131.36 97.38 131.36C97.78 131.36 98.18 131.36 98.58 131.36C98.9867 131.36 99.3633 131.36 99.71 131.36C100.057 131.36 100.353 131.36 100.6 131.36C100.847 131.36 101.017 131.36 101.11 131.36C101.343 131.36 101.557 131.353 101.75 131.34C101.95 131.327 102.1 131.313 102.2 131.3V132.66C102.1 132.653 101.94 132.647 101.72 132.64C101.507 132.627 101.3 132.62 101.1 132.62C101.007 132.62 100.837 132.62 100.59 132.62C100.35 132.62 100.053 132.62 99.7 132.62C99.3533 132.62 98.98 132.62 98.58 132.62C98.1867 132.62 97.79 132.62 97.39 132.62C96.99 132.62 96.6167 132.62 96.27 132.62C95.9233 132.62 95.63 132.62 95.39 132.62C95.15 132.62 94.9933 132.62 94.92 132.62C94.7 132.62 94.4933 132.627 94.3 132.64C94.1067 132.647 93.93 132.657 93.77 132.67V131.29ZM105.01 129.4C105.183 129.52 105.387 129.667 105.62 129.84C105.853 130.013 106.093 130.203 106.34 130.41C106.593 130.61 106.83 130.807 107.05 131C107.27 131.193 107.45 131.367 107.59 131.52L106.57 132.56C106.443 132.42 106.277 132.253 106.07 132.06C105.863 131.867 105.64 131.667 105.4 131.46C105.16 131.253 104.923 131.057 104.69 130.87C104.457 130.683 104.25 130.527 104.07 130.4L105.01 129.4ZM103.76 136.06C104.28 135.987 104.77 135.883 105.23 135.75C105.69 135.617 106.117 135.463 106.51 135.29C106.903 135.117 107.263 134.937 107.59 134.75C108.157 134.41 108.677 134.023 109.15 133.59C109.623 133.157 110.037 132.707 110.39 132.24C110.743 131.767 111.023 131.307 111.23 130.86L112.01 132.27C111.757 132.717 111.443 133.163 111.07 133.61C110.703 134.057 110.287 134.483 109.82 134.89C109.353 135.29 108.85 135.65 108.31 135.97C107.97 136.177 107.603 136.373 107.21 136.56C106.817 136.74 106.4 136.9 105.96 137.04C105.527 137.187 105.073 137.3 104.6 137.38L103.76 136.06ZM120.1 129.02C120.187 129.14 120.277 129.283 120.37 129.45C120.47 129.617 120.567 129.783 120.66 129.95C120.753 130.117 120.83 130.263 120.89 130.39L120.09 130.74C119.983 130.533 119.86 130.3 119.72 130.04C119.58 129.773 119.443 129.543 119.31 129.35L120.1 129.02ZM121.28 128.57C121.367 128.697 121.46 128.847 121.56 129.02C121.667 129.187 121.767 129.353 121.86 129.52C121.953 129.68 122.03 129.817 122.09 129.93L121.29 130.27C121.19 130.063 121.063 129.83 120.91 129.57C120.763 129.31 120.623 129.087 120.49 128.9L121.28 128.57ZM114.22 133.89C114.333 133.61 114.44 133.317 114.54 133.01C114.647 132.697 114.74 132.377 114.82 132.05C114.9 131.717 114.97 131.387 115.03 131.06C115.097 130.733 115.143 130.41 115.17 130.09L116.63 130.39C116.603 130.483 116.573 130.593 116.54 130.72C116.507 130.847 116.477 130.97 116.45 131.09C116.423 131.21 116.403 131.31 116.39 131.39C116.357 131.563 116.31 131.773 116.25 132.02C116.19 132.267 116.12 132.53 116.04 132.81C115.96 133.083 115.877 133.36 115.79 133.64C115.71 133.913 115.627 134.167 115.54 134.4C115.42 134.72 115.277 135.053 115.11 135.4C114.95 135.747 114.777 136.08 114.59 136.4C114.41 136.72 114.233 137.007 114.06 137.26L112.66 136.67C112.98 136.257 113.277 135.8 113.55 135.3C113.83 134.8 114.053 134.33 114.22 133.89ZM119.16 133.68C119.06 133.413 118.95 133.13 118.83 132.83C118.71 132.53 118.583 132.23 118.45 131.93C118.317 131.63 118.187 131.347 118.06 131.08C117.933 130.813 117.817 130.583 117.71 130.39L119.04 129.96C119.14 130.153 119.257 130.387 119.39 130.66C119.523 130.933 119.657 131.223 119.79 131.53C119.923 131.83 120.053 132.13 120.18 132.43C120.307 132.73 120.42 133 120.52 133.24C120.607 133.46 120.7 133.72 120.8 134.02C120.907 134.32 121.013 134.633 121.12 134.96C121.233 135.28 121.337 135.593 121.43 135.9C121.53 136.207 121.613 136.483 121.68 136.73L120.2 137.21C120.113 136.817 120.013 136.417 119.9 136.01C119.787 135.603 119.667 135.203 119.54 134.81C119.42 134.417 119.293 134.04 119.16 133.68ZM122.92 132.37C123.04 132.377 123.193 132.387 123.38 132.4C123.567 132.407 123.76 132.413 123.96 132.42C124.167 132.427 124.357 132.43 124.53 132.43C124.697 132.43 124.903 132.43 125.15 132.43C125.397 132.43 125.663 132.43 125.95 132.43C126.243 132.43 126.543 132.43 126.85 132.43C127.163 132.43 127.473 132.43 127.78 132.43C128.087 132.43 128.377 132.43 128.65 132.43C128.923 132.43 129.167 132.43 129.38 132.43C129.6 132.43 129.773 132.43 129.9 132.43C130.133 132.43 130.353 132.423 130.56 132.41C130.767 132.39 130.937 132.377 131.07 132.37V133.94C130.957 133.933 130.787 133.923 130.56 133.91C130.333 133.897 130.113 133.89 129.9 133.89C129.773 133.89 129.6 133.89 129.38 133.89C129.16 133.89 128.913 133.89 128.64 133.89C128.367 133.89 128.077 133.89 127.77 133.89C127.47 133.89 127.163 133.89 126.85 133.89C126.537 133.89 126.233 133.89 125.94 133.89C125.653 133.89 125.387 133.89 125.14 133.89C124.9 133.89 124.697 133.89 124.53 133.89C124.243 133.89 123.95 133.897 123.65 133.91C123.35 133.917 123.107 133.927 122.92 133.94V132.37Z" fill="#4B4B4B"/>
<rect x="18.5" y="208.5" width="148" height="71" rx="35.5" stroke="#4B4B4B" stroke-dasharray="2 2"/>
<path d="M60.5334 258.4H60.2334V258.7H59.9334V259H57.8334V258.7H57.5334V258.4H57.2334V258.1H56.9334V257.8H56.6334V253.6H56.9334V253.3H57.2334V253H57.5334V252.7H57.8334V252.4H59.9334V252.7H60.2334V253H60.5334V253.6H59.6334V253.3H58.1334V253.6H57.8334V253.9H57.5334V257.5H57.8334V257.8H58.1334V258.1H59.6334V256.3H59.3334V256.6H58.4334V255.4H60.5334V258.4ZM64.7354 259H60.8354V252.4H64.7354V253.3H61.7354V255.1H64.1354V256H61.7354V258.1H64.7354V259ZM68.9373 257.8H68.6373V258.1H68.3373V258.4H68.0373V258.7H67.7373V259H66.2373V258.7H65.9373V258.4H65.6373V258.1H65.3373V257.8H65.0373V253.6H65.3373V253.3H65.6373V253H65.9373V252.7H66.2373V252.4H67.7373V252.7H68.0373V253H68.3373V253.3H68.6373V253.6H68.9373V257.8ZM68.0373 257.5V253.9H67.7373V253.6H67.4373V253.3H66.5373V253.6H66.2373V253.9H65.9373V257.5H66.2373V257.8H66.5373V258.1H67.4373V257.8H67.7373V257.5H68.0373ZM73.1393 259H72.2393V255.7H71.9393V256.3H71.6393V256.9H71.3393V257.5H71.0393V256.9H70.7393V256.3H70.4393V255.7H70.1393V259H69.2393V252.4H69.5393V253H69.8393V253.6H70.1393V254.2H70.4393V254.8H70.7393V255.4H71.0393V256H71.3393V255.4H71.6393V254.8H71.9393V254.2H72.2393V253.6H72.5393V253H72.8393V252.4H73.1393V259ZM77.3412 260.2H73.4412V259.6H77.3412V260.2ZM81.5432 259H80.6432V256H78.5432V259H77.6432V252.4H78.5432V255.1H80.6432V252.4H81.5432V259ZM85.7451 259H84.8451V257.5H82.7451V259H81.8451V256.6V256.3V255.7H82.1451V255.1H82.4451V254.5H82.7451V253.9H83.0451V253.3H83.3451V252.7H83.6451V252.4H83.9451V252.7H84.2451V253.3H84.5451V253.9H84.8451V254.5H85.1451V255.1H85.4451V255.7H85.7451V256.3V256.6V259ZM84.8451 256.6V256.3V256H84.5451V255.4H84.2451V254.8H83.9451V254.2H83.6451V254.8H83.3451V255.4H83.0451V256H82.7451V256.3V256.6H84.8451ZM89.9471 258.1H89.6471V258.4H89.3471V258.7H89.0471V259H86.9471V258.7H86.6471V258.4H86.3471V258.1H86.0471V257.2H86.9471V257.8H87.2471V258.1H88.7471V257.8H89.0471V256.3H88.7471V256H86.9471V255.7H86.6471V255.4H86.3471V255.1H86.0471V253.3H86.3471V253H86.6471V252.7H86.9471V252.4H89.0471V252.7H89.3471V253H89.6471V253.3H89.9471V254.2H89.0471V253.6H88.7471V253.3H87.2471V253.6H86.9471V254.8H87.2471V255.1H89.0471V255.4H89.3471V255.7H89.6471V256H89.9471V258.1ZM94.149 259H93.249V256H91.149V259H90.249V252.4H91.149V255.1H93.249V252.4H94.149V259ZM96.851 256.6H95.651V255.4H96.851V256.6ZM96.851 259H95.651V257.8H96.851V259ZM106.755 258.1H106.455V258.4H106.155V258.7H105.855V259H103.755V258.7H103.455V258.4H103.155V258.1H102.855V256H103.155V255.7H103.455V255.4H103.155V255.1H102.855V253.3H103.155V253H103.455V252.7H103.755V252.4H105.855V252.7H106.155V253H106.455V253.3H106.755V255.1H106.455V255.4H106.155V255.7H106.455V256H106.755V258.1ZM105.855 254.8V253.6H105.555V253.3H104.055V253.6H103.755V254.8H104.055V255.1H105.555V254.8H105.855ZM105.855 257.8V256.3H105.555V256H104.055V256.3H103.755V257.8H104.055V258.1H105.555V257.8H105.855ZM110.957 256H110.657V256.6H110.357V256.9H110.057V257.2H109.757V257.5H109.457V257.8H109.157V258.1H108.857V258.4H108.557V258.7H108.257V259H107.357V258.4H107.657V258.1H107.957V257.8H108.257V257.5H108.557V257.2H108.857V256.9H109.157V256.6H109.457V256.3H107.957V256H107.657V255.7H107.357V255.4H107.057V253.3H107.357V253H107.657V252.7H107.957V252.4H110.057V252.7H110.357V253H110.657V253.3H110.957V256ZM110.057 255.1V253.6H109.757V253.3H108.257V253.6H107.957V255.1H108.257V255.4H109.757V255.1H110.057ZM115.159 257.5H114.859V257.8H114.559V258.1H114.259V258.4H113.959V258.7H113.649V259H111.259V252.4H113.659V252.7H113.959V253H114.259V253.3H114.559V253.6H114.859V253.9H115.159V257.5ZM114.259 257.2V254.2H113.959V253.9H113.659V253.6H113.359V253.3H112.159V258.1H113.359V257.8H113.659V257.5H113.959V257.2H114.259ZM119.361 259H115.461V256.6H115.761V256.3H116.061V256H116.361V255.7H116.661V255.4H117.861V255.1H118.161V254.8H118.461V253.6H118.161V253.3H116.661V253.6H116.361V254.2H115.461V253.3H115.761V253H116.061V252.7H116.361V252.4H118.461V252.7H118.761V253H119.061V253.3H119.361V255.1H119.061V255.4H118.761V255.7H118.461V256H118.161V256.3H116.961V256.6H116.661V256.9H116.361V258.1H119.361V259ZM123.563 253.3H120.563V255.1H122.663V256H120.563V259H119.663V252.4H123.563V253.3ZM127.765 259H126.865V257.5H124.765V259H123.865V256.6V256.3V255.7H124.165V255.1H124.465V254.5H124.765V253.9H125.065V253.3H125.365V252.7H125.665V252.4H125.965V252.7H126.265V253.3H126.565V253.9H126.865V254.5H127.165V255.1H127.465V255.7H127.765V256.3V256.6V259ZM126.865 256.6V256.3V256H126.565V255.4H126.265V254.8H125.965V254.2H125.665V254.8H125.365V255.4H125.065V256H124.765V256.3V256.6H126.865ZM68.9373 270.1H68.6373V270.4H68.3373V270.7H68.0373V271H66.2373V270.7H65.9373V270.4H65.6373V270.1H65.3373V269.8H65.0373V265.6H65.3373V265.3H65.6373V265H65.9373V264.7H66.2373V264.4H68.0373V264.7H68.3373V265H68.6373V265.3H68.9373V266.2H68.0373V265.6H67.7373V265.3H66.5373V265.6H66.2373V265.9H65.9373V269.5H66.2373V269.8H66.5373V270.1H67.7373V269.8H68.0373V269.2H68.9373V270.1ZM73.1393 271H72.2393V268H70.1393V271H69.2393V264.4H70.1393V267.1H72.2393V264.4H73.1393V271ZM77.3412 271H76.4412V270.4H76.1412V269.8H75.8412V269.2H75.5412V268.6H75.2412V268H74.6412V268.3H74.3412V271H73.4412V264.4H74.3412V267.1H74.6412V266.8H74.9412V266.5H75.2412V266.2H75.5412V265.9H75.8412V265.6H76.1412V265.29H76.4412V265H76.7412V264.7H77.0412V264.4H77.3412V265.6H77.0412V265.9H76.7412V266.2H76.4412V266.49H76.1412V266.8H75.8412V267.1H75.5412V267.4H75.8412V267.7H76.1412V268.3H76.4412V268.9H76.7412V269.5H77.0412V270.1H77.3412V271ZM80.9432 268.9H78.2432V268H80.9432V268.9ZM85.7451 267.4H85.4451V268H85.1451V268.6H84.8451V269.2H84.5451V269.8H84.2451V270.4H83.9451V271H83.6451V270.4H83.3451V269.8H83.0451V269.2H82.7451V268.6H82.4451V268H82.1451V267.4H81.8451V264.4H82.7451V267.1H83.0451V267.7H83.3451V268.3H83.6451V268.9H83.9451V268.3H84.2451V267.7H84.5451V267.1H84.8451V264.4H85.7451V267.4ZM89.9471 271H89.0471V269.8H88.7471V269.2H88.4471V268.6H88.1471V268H86.9471V271H86.0471V264.4H89.0471V264.7H89.3471V265H89.6471V265.3H89.9471V267.1H89.6471V267.4H89.3471V267.7H89.0471V268.3H89.3471V268.9H89.6471V269.5H89.9471V271ZM89.0471 266.8V265.6H88.7471V265.3H86.9471V267.1H88.7471V266.8H89.0471ZM94.149 265.3H92.649V271H91.749V265.3H90.249V264.4H94.149V265.3ZM98.351 270.1H98.051V270.4H97.751V270.7H97.451V271H95.351V270.7H95.051V270.4H94.751V270.1H94.451V269.2H95.351V269.8H95.651V270.1H97.151V269.8H97.451V268.3H97.151V268H95.351V267.7H95.051V267.4H94.751V267.1H94.451V265.3H94.751V265H95.051V264.7H95.351V264.4H97.451V264.7H97.751V265H98.051V265.3H98.351V266.2H97.451V265.6H97.151V265.3H95.651V265.6H95.351V266.8H95.651V267.1H97.451V267.4H97.751V267.7H98.051V268H98.351V270.1ZM101.053 268.6H99.8529V267.4H101.053V268.6ZM101.053 271H99.8529V269.8H101.053V271ZM110.957 270.1H110.657V270.4H110.357V270.7H110.057V271H107.957V270.7H107.657V270.4H107.357V270.1H107.057V268H107.357V267.7H107.657V267.4H107.357V267.1H107.057V265.3H107.357V265H107.657V264.7H107.957V264.4H110.057V264.7H110.357V265H110.657V265.3H110.957V267.1H110.657V267.4H110.357V267.7H110.657V268H110.957V270.1ZM110.057 266.8V265.6H109.757V265.3H108.257V265.6H107.957V266.8H108.257V267.1H109.757V266.8H110.057ZM110.057 269.8V268.3H109.757V268H108.257V268.3H107.957V269.8H108.257V270.1H109.757V269.8H110.057ZM115.159 269.8H114.559V271H113.659V269.8H111.259V269.5V269.2H111.559V268.6H111.859V268H112.159V267.4H112.459V266.8H112.759V266.2H113.059V265.6H113.359V265H113.659V264.4H114.559V268.9H115.159V269.8ZM113.659 268.9V266.5H113.359V267.1H113.059V267.7H112.759V268.3H112.459V268.9H113.659ZM119.361 271H115.461V268.6H115.761V268.3H116.061V268H116.361V267.7H116.661V267.4H117.861V267.1H118.161V266.8H118.461V265.6H118.161V265.3H116.661V265.6H116.361V266.2H115.461V265.3H115.761V265H116.061V264.7H116.361V264.4H118.461V264.7H118.761V265H119.061V265.3H119.361V267.1H119.061V267.4H118.761V267.7H118.461V268H118.161V268.3H116.961V268.6H116.661V268.9H116.361V270.1H119.361V271Z" fill="#4B4B4B"/>
<path d="M71.0383 218.3H69.5383V224H68.6383V218.3H67.1383V217.4H71.0383V218.3ZM75.2402 222.8H74.9402V223.1H74.6402V223.4H74.3402V223.7H74.0402V224H72.5402V223.7H72.2402V223.4H71.9402V223.1H71.6402V222.8H71.3402V218.6H71.6402V218.3H71.9402V218H72.2402V217.7H72.5402V217.4H74.0402V217.7H74.3402V218H74.6402V218.3H74.9402V218.6H75.2402V222.8ZM74.3402 222.5V218.9H74.0402V218.6H73.7402V218.3H72.8402V218.6H72.5402V218.9H72.2402V222.5H72.5402V222.8H72.8402V223.1H73.7402V222.8H74.0402V222.5H74.3402ZM79.4422 224H75.5422V217.4H76.4422V223.1H79.4422V224ZM82.1441 221.6H80.9441V220.4H82.1441V221.6ZM82.1441 224H80.9441V222.8H82.1441V224ZM92.048 220.7H90.548V222.2H89.648V220.7H88.148V219.8H89.648V218.3H90.548V219.8H92.048V220.7ZM92.048 223.7H88.148V222.8H92.048V223.7ZM96.25 222.8H95.95V223.1H95.65V223.4H95.35V223.7H95.05V224H93.55V223.7H93.25V223.4H92.95V223.1H92.65V222.8H92.35V218.6H92.65V218.3H92.95V218H93.25V217.7H93.55V217.4H95.05V217.7H95.35V218H95.65V218.3H95.95V218.6H96.25V222.8ZM95.05 218.9V218.6V218.3H93.55V218.6H93.25V221.9H93.55V221.3H93.85V220.7H94.15V220.1H94.45V219.5H94.75V218.9H95.05ZM95.35 222.8V219.8H95.05V220.4H94.75V221H94.45V221.6H94.15V222.2H93.85V222.8H93.55V223.1H95.05V222.8H95.35ZM98.952 224H97.752V222.8H98.952V224ZM104.654 222.8H104.354V223.1H104.054V223.4H103.754V223.7H103.454V224H101.954V223.7H101.654V223.4H101.354V223.1H101.054V222.8H100.754V218.6H101.054V218.3H101.354V218H101.654V217.7H101.954V217.4H103.454V217.7H103.754V218H104.054V218.3H104.354V218.6H104.654V222.8ZM103.454 218.9V218.6V218.3H101.954V218.6H101.654V221.9H101.954V221.3H102.254V220.7H102.554V220.1H102.854V219.5H103.154V218.9H103.454ZM103.754 222.8V219.8H103.454V220.4H103.154V221H102.854V221.6H102.554V222.2H102.254V222.8H101.954V223.1H103.454V222.8H103.754ZM108.856 224H104.956V221.6H105.256V221.3H105.556V221H105.856V220.7H106.156V220.4H107.356V220.1H107.656V219.8H107.956V218.6H107.656V218.3H106.156V218.6H105.856V219.2H104.956V218.3H105.256V218H105.556V217.7H105.856V217.4H107.956V217.7H108.256V218H108.556V218.3H108.856V220.1H108.556V220.4H108.256V220.7H107.956V221H107.656V221.3H106.456V221.6H106.156V221.9H105.856V223.1H108.856V224ZM113.058 224H112.158V220.7H111.858V221.3H111.558V221.9H111.258V222.5H110.958V221.9H110.658V221.3H110.358V220.7H110.058V224H109.158V217.4H109.458V218H109.758V218.6H110.058V219.2H110.358V219.8H110.658V220.4H110.958V221H111.258V220.4H111.558V219.8H111.858V219.2H112.158V218.6H112.458V218H112.758V217.4H113.058V224ZM117.26 224H116.36V220.7H116.06V221.3H115.76V221.9H115.46V222.5H115.16V221.9H114.86V221.3H114.56V220.7H114.26V224H113.36V217.4H113.66V218H113.96V218.6H114.26V219.2H114.56V219.8H114.86V220.4H115.16V221H115.46V220.4H115.76V219.8H116.06V219.2H116.36V218.6H116.66V218H116.96V217.4H117.26V224Z" fill="#4B4B4B"/>
<defs>
<clipPath id="clip0_3101_7312">
<rect x="18" width="149" height="104" fill="white"/>
</clipPath>
<clipPath id="clip1_3101_7312">
<rect x="183" width="149" height="104" fill="white"/>
</clipPath>
<clipPath id="clip2_3101_7312">
<rect x="183" y="120" width="149" height="160" fill="white"/>
</clipPath>
</defs>
</svg>
