<svg width="350" height="219" viewBox="0 0 350 219" fill="none" xmlns="http://www.w3.org/2000/svg">
<g clip-path="url(#clip0_3116_5972)">
<path d="M39.68 75H38.6V73.2H36.08V75H35V72.12V71.76V71.04H35.36V70.32H35.72V69.6H36.08V68.88H36.44V68.16H36.8V67.44H37.16V67.08H37.52V67.44H37.88V68.16H38.24V68.88H38.6V69.6H38.96V70.32H39.32V71.04H39.68V71.76V72.12V75ZM38.6 72.12V71.76V71.4H38.24V70.68H37.88V69.96H37.52V69.24H37.16V69.96H36.8V70.68H36.44V71.4H36.08V71.76V72.12H38.6ZM49.7647 73.2H49.4047V73.56H49.0447V73.92H48.6847V74.28H48.3247V74.64H47.9527V75H45.0847V67.08H47.9647V67.44H48.3247V67.8H48.6847V68.16H49.0447V68.52H49.4047V68.88H49.7647V73.2ZM48.6847 72.84V69.24H48.3247V68.88H47.9647V68.52H47.6047V68.16H46.1647V73.92H47.6047V73.56H47.9647V73.2H48.3247V72.84H48.6847ZM54.807 75H50.127V67.08H54.807V68.16H51.207V70.32H54.087V71.4H51.207V73.92H54.807V75ZM59.8494 75H55.1694V67.08H59.8494V68.16H56.2494V70.32H59.1294V71.4H56.2494V73.92H59.8494V75ZM64.8917 70.68H64.5317V71.04H64.1717V71.4H63.8117V71.76H61.2917V75H60.2117V67.08H63.8117V67.44H64.1717V67.8H64.5317V68.16H64.8917V70.68ZM63.8117 70.32V68.52H63.4517V68.16H61.2917V70.68H63.4517V70.32H63.8117ZM69.2141 72.48H65.9741V71.4H69.2141V72.48ZM74.9764 73.2H74.6164V73.56H74.2564V73.92H73.8964V74.28H73.5364V74.64H73.1644V75H70.2964V67.08H73.1764V67.44H73.5364V67.8H73.8964V68.16H74.2564V68.52H74.6164V68.88H74.9764V73.2ZM73.8964 72.84V69.24H73.5364V68.88H73.1764V68.52H72.8164V68.16H71.3764V73.92H72.8164V73.56H73.1764V73.2H73.5364V72.84H73.8964ZM80.0187 75H75.3387V73.92H77.1387V68.16H76.4187V67.08H78.9387V68.16H78.2187V73.92H80.0187V75ZM85.0611 70.68H84.7011V71.4H84.3411V72.12H83.9811V72.84H83.6211V73.56H83.2611V74.28H82.9011V75H82.5411V74.28H82.1811V73.56H81.8211V72.84H81.4611V72.12H81.1011V71.4H80.7411V70.68H80.3811V67.08H81.4611V70.32H81.8211V71.04H82.1811V71.76H82.5411V72.48H82.9011V71.76H83.2611V71.04H83.6211V70.32H83.9811V67.08H85.0611V70.68ZM90.1034 75H85.4234V67.08H90.1034V68.16H86.5034V70.32H89.3834V71.4H86.5034V73.92H90.1034V75ZM100.188 73.92H99.8281V74.28H99.4681V74.64H99.1081V75H96.5881V74.64H96.2281V74.28H95.8681V73.92H95.5081V72.84H96.5881V73.56H96.9481V73.92H98.7481V73.56H99.1081V71.76H98.7481V71.4H96.5881V71.04H96.2281V70.68H95.8681V70.32H95.5081V68.16H95.8681V67.8H96.2281V67.44H96.5881V67.08H99.1081V67.44H99.4681V67.8H99.8281V68.16H100.188V69.24H99.1081V68.52H98.7481V68.16H96.9481V68.52H96.5881V69.96H96.9481V70.32H99.1081V70.68H99.4681V71.04H99.8281V71.4H100.188V73.92ZM105.23 75H100.55V67.08H105.23V68.16H101.63V70.32H104.51V71.4H101.63V73.92H105.23V75ZM110.273 73.92H109.913V74.28H109.553V74.64H109.193V75H106.673V74.64H106.313V74.28H105.953V73.92H105.593V72.84H106.673V73.56H107.033V73.92H108.833V73.56H109.193V71.76H108.833V71.4H106.673V71.04H106.313V70.68H105.953V70.32H105.593V68.16H105.953V67.8H106.313V67.44H106.673V67.08H109.193V67.44H109.553V67.8H109.913V68.16H110.273V69.24H109.193V68.52H108.833V68.16H107.033V68.52H106.673V69.96H107.033V70.32H109.193V70.68H109.553V71.04H109.913V71.4H110.273V73.92ZM115.315 73.92H114.955V74.28H114.595V74.64H114.235V75H111.715V74.64H111.355V74.28H110.995V73.92H110.635V72.84H111.715V73.56H112.075V73.92H113.875V73.56H114.235V71.76H113.875V71.4H111.715V71.04H111.355V70.68H110.995V70.32H110.635V68.16H110.995V67.8H111.355V67.44H111.715V67.08H114.235V67.44H114.595V67.8H114.955V68.16H115.315V69.24H114.235V68.52H113.875V68.16H112.075V68.52H111.715V69.96H112.075V70.32H114.235V70.68H114.595V71.04H114.955V71.4H115.315V73.92ZM120.357 75H115.677V73.92H117.477V68.16H116.757V67.08H119.277V68.16H118.557V73.92H120.357V75ZM125.4 73.56H125.04V73.92H124.68V74.28H124.32V74.64H123.96V75H122.16V74.64H121.8V74.28H121.44V73.92H121.08V73.56H120.72V68.52H121.08V68.16H121.44V67.8H121.8V67.44H122.16V67.08H123.96V67.44H124.32V67.8H124.68V68.16H125.04V68.52H125.4V73.56ZM124.32 73.2V68.88H123.96V68.52H123.6V68.16H122.52V68.52H122.16V68.88H121.8V73.2H122.16V73.56H122.52V73.92H123.6V73.56H123.96V73.2H124.32ZM130.442 75H129.362V74.64H129.002V73.92H128.642V73.2H128.282V72.48H127.922V71.76H127.562V71.04H127.202V70.32H126.842V75H125.762V67.08H126.482V67.8H126.842V68.52H127.202V69.24H127.562V69.96H127.922V70.68H128.282V71.4H128.642V72.12H129.002V72.84H129.362V67.08H130.442V75ZM39.68 82.16H37.88V89H36.8V82.16H35V81.08H39.68V82.16ZM44.7223 87.56H44.3623V87.92H44.0023V88.28H43.6423V88.64H43.2823V89H41.4823V88.64H41.1223V88.28H40.7623V87.92H40.4023V87.56H40.0423V82.52H40.4023V82.16H40.7623V81.8H41.1223V81.44H41.4823V81.08H43.2823V81.44H43.6423V81.8H44.0023V82.16H44.3623V82.52H44.7223V87.56ZM43.6423 87.2V82.88H43.2823V82.52H42.9223V82.16H41.8423V82.52H41.4823V82.88H41.1223V87.2H41.4823V87.56H41.8423V87.92H42.9223V87.56H43.2823V87.2H43.6423ZM54.807 89H53.727V87.2H51.207V89H50.127V86.12V85.76V85.04H50.487V84.32H50.847V83.6H51.207V82.88H51.567V82.16H51.927V81.44H52.287V81.08H52.647V81.44H53.007V82.16H53.367V82.88H53.727V83.6H54.087V84.32H54.447V85.04H54.807V85.76V86.12V89ZM53.727 86.12V85.76V85.4H53.367V84.68H53.007V83.96H52.647V83.24H52.287V83.96H51.927V84.68H51.567V85.4H51.207V85.76V86.12H53.727ZM59.8494 89H55.1694V81.08H56.2494V87.92H59.8494V89ZM64.8917 89H60.2117V87.92H62.0117V82.16H61.2917V81.08H63.8117V82.16H63.0917V87.92H64.8917V89ZM69.9341 88.28H69.5741V88.64H69.2141V89H66.6941V88.64H66.3341V88.28H65.9741V87.92H65.6141V87.56H65.2541V82.52H65.6141V82.16H65.9741V81.8H66.3341V81.44H66.6941V81.08H69.2141V81.44H69.5741V81.8H69.9341V82.52H68.8541V82.16H67.0541V82.52H66.6941V82.88H66.3341V87.2H66.6941V87.56H67.0541V87.92H68.8541V85.76H68.4941V86.12H67.4141V84.68H69.9341V88.28ZM74.9764 89H73.8964V88.64H73.5364V87.92H73.1764V87.2H72.8164V86.48H72.4564V85.76H72.0964V85.04H71.7364V84.32H71.3764V89H70.2964V81.08H71.0164V81.8H71.3764V82.52H71.7364V83.24H72.0964V83.96H72.4564V84.68H72.8164V85.4H73.1764V86.12H73.5364V86.84H73.8964V81.08H74.9764V89ZM85.0611 87.56H84.7011V87.92H84.3411V88.28H83.9811V88.64H83.6211V89H81.8211V88.64H81.4611V88.28H81.1011V87.92H80.7411V87.56H80.3811V82.52H80.7411V82.16H81.1011V81.8H81.4611V81.44H81.8211V81.08H83.6211V81.44H83.9811V81.8H84.3411V82.16H84.7011V82.52H85.0611V87.56ZM83.9811 87.2V82.88H83.6211V82.52H83.2611V82.16H82.1811V82.52H81.8211V82.88H81.4611V87.2H81.8211V87.56H82.1811V87.92H83.2611V87.56H83.6211V87.2H83.9811ZM90.1034 89H89.0234V88.64H88.6634V87.92H88.3034V87.2H87.9434V86.48H87.5834V85.76H87.2234V85.04H86.8634V84.32H86.5034V89H85.4234V81.08H86.1434V81.8H86.5034V82.52H86.8634V83.24H87.2234V83.96H87.5834V84.68H87.9434V85.4H88.3034V86.12H88.6634V86.84H89.0234V81.08H90.1034V89ZM100.188 88.28H99.8281V88.64H99.4681V89H96.9481V88.64H96.5881V88.28H96.2281V87.92H95.8681V87.56H95.5081V82.52H95.8681V82.16H96.2281V81.8H96.5881V81.44H96.9481V81.08H99.4681V81.44H99.8281V81.8H100.188V82.52H99.1081V82.16H97.3081V82.52H96.9481V82.88H96.5881V87.2H96.9481V87.56H97.3081V87.92H99.1081V85.76H98.7481V86.12H97.6681V84.68H100.188V88.28ZM105.23 87.56H104.87V87.92H104.51V88.28H104.15V88.64H103.79V89H101.99V88.64H101.63V88.28H101.27V87.92H100.91V87.56H100.55V82.52H100.91V82.16H101.27V81.8H101.63V81.44H101.99V81.08H103.79V81.44H104.15V81.8H104.51V82.16H104.87V82.52H105.23V87.56ZM104.15 87.2V82.88H103.79V82.52H103.43V82.16H102.35V82.52H101.99V82.88H101.63V87.2H101.99V87.56H102.35V87.92H103.43V87.56H103.79V87.2H104.15ZM110.273 89H109.193V87.2H106.673V89H105.593V86.12V85.76V85.04H105.953V84.32H106.313V83.6H106.673V82.88H107.033V82.16H107.393V81.44H107.753V81.08H108.113V81.44H108.473V82.16H108.833V82.88H109.193V83.6H109.553V84.32H109.913V85.04H110.273V85.76V86.12V89ZM109.193 86.12V85.76V85.4H108.833V84.68H108.473V83.96H108.113V83.24H107.753V83.96H107.393V84.68H107.033V85.4H106.673V85.76V86.12H109.193ZM115.315 89H110.635V81.08H111.715V87.92H115.315V89ZM120.357 87.92H119.997V88.28H119.637V88.64H119.277V89H116.757V88.64H116.397V88.28H116.037V87.92H115.677V86.84H116.757V87.56H117.117V87.92H118.917V87.56H119.277V85.76H118.917V85.4H116.757V85.04H116.397V84.68H116.037V84.32H115.677V82.16H116.037V81.8H116.397V81.44H116.757V81.08H119.277V81.44H119.637V81.8H119.997V82.16H120.357V83.24H119.277V82.52H118.917V82.16H117.117V82.52H116.757V83.96H117.117V84.32H119.277V84.68H119.637V85.04H119.997V85.4H120.357V87.92ZM122.52 89.72H122.88V89H122.16V87.56H123.6V89.72H123.24V90.08H122.52V89.72ZM39.68 101.92H39.32V102.28H38.96V102.64H38.6V103H36.44V102.64H36.08V102.28H35.72V101.92H35.36V101.56H35V96.52H35.36V96.16H35.72V95.8H36.08V95.44H36.44V95.08H38.6V95.44H38.96V95.8H39.32V96.16H39.68V97.24H38.6V96.52H38.24V96.16H36.8V96.52H36.44V96.88H36.08V101.2H36.44V101.56H36.8V101.92H38.24V101.56H38.6V100.84H39.68V101.92ZM44.7223 101.56H44.3623V101.92H44.0023V102.28H43.6423V102.64H43.2823V103H41.4823V102.64H41.1223V102.28H40.7623V101.92H40.4023V101.56H40.0423V96.52H40.4023V96.16H40.7623V95.8H41.1223V95.44H41.4823V95.08H43.2823V95.44H43.6423V95.8H44.0023V96.16H44.3623V96.52H44.7223V101.56ZM43.6423 101.2V96.88H43.2823V96.52H42.9223V96.16H41.8423V96.52H41.4823V96.88H41.1223V101.2H41.4823V101.56H41.8423V101.92H42.9223V101.56H43.2823V101.2H43.6423ZM49.7647 103H48.6847V102.64H48.3247V101.92H47.9647V101.2H47.6047V100.48H47.2447V99.76H46.8847V99.04H46.5247V98.32H46.1647V103H45.0847V95.08H45.8047V95.8H46.1647V96.52H46.5247V97.24H46.8847V97.96H47.2447V98.68H47.6047V99.4H47.9647V100.12H48.3247V100.84H48.6847V95.08H49.7647V103ZM54.807 101.92H54.447V102.28H54.087V102.64H53.727V103H51.207V102.64H50.847V102.28H50.487V101.92H50.127V100.84H51.207V101.56H51.567V101.92H53.367V101.56H53.727V99.76H53.367V99.4H51.207V99.04H50.847V98.68H50.487V98.32H50.127V96.16H50.487V95.8H50.847V95.44H51.207V95.08H53.727V95.44H54.087V95.8H54.447V96.16H54.807V97.24H53.727V96.52H53.367V96.16H51.567V96.52H51.207V97.96H51.567V98.32H53.727V98.68H54.087V99.04H54.447V99.4H54.807V101.92ZM59.8494 96.16H58.0494V103H56.9694V96.16H55.1694V95.08H59.8494V96.16ZM64.8917 103H63.8117V101.56H63.4517V100.84H63.0917V100.12H62.7317V99.4H61.2917V103H60.2117V95.08H63.8117V95.44H64.1717V95.8H64.5317V96.16H64.8917V98.32H64.5317V98.68H64.1717V99.04H63.8117V99.76H64.1717V100.48H64.5317V101.2H64.8917V103ZM63.8117 97.96V96.52H63.4517V96.16H61.2917V98.32H63.4517V97.96H63.8117ZM69.9341 103H68.8541V101.2H66.3341V103H65.2541V100.12V99.76V99.04H65.6141V98.32H65.9741V97.6H66.3341V96.88H66.6941V96.16H67.0541V95.44H67.4141V95.08H67.7741V95.44H68.1341V96.16H68.4941V96.88H68.8541V97.6H69.2141V98.32H69.5741V99.04H69.9341V99.76V100.12V103ZM68.8541 100.12V99.76V99.4H68.4941V98.68H68.1341V97.96H67.7741V97.24H67.4141V97.96H67.0541V98.68H66.6941V99.4H66.3341V99.76V100.12H68.8541ZM74.9764 103H70.2964V101.92H72.0964V96.16H71.3764V95.08H73.8964V96.16H73.1764V101.92H74.9764V103ZM80.0187 103H78.9387V102.64H78.5787V101.92H78.2187V101.2H77.8587V100.48H77.4987V99.76H77.1387V99.04H76.7787V98.32H76.4187V103H75.3387V95.08H76.0587V95.8H76.4187V96.52H76.7787V97.24H77.1387V97.96H77.4987V98.68H77.8587V99.4H78.2187V100.12H78.5787V100.84H78.9387V95.08H80.0187V103ZM85.0611 96.16H83.2611V103H82.1811V96.16H80.3811V95.08H85.0611V96.16ZM90.1034 101.92H89.7434V102.28H89.3834V102.64H89.0234V103H86.5034V102.64H86.1434V102.28H85.7834V101.92H85.4234V100.84H86.5034V101.56H86.8634V101.92H88.6634V101.56H89.0234V99.76H88.6634V99.4H86.5034V99.04H86.1434V98.68H85.7834V98.32H85.4234V96.16H85.7834V95.8H86.1434V95.44H86.5034V95.08H89.0234V95.44H89.3834V95.8H89.7434V96.16H90.1034V97.24H89.0234V96.52H88.6634V96.16H86.8634V96.52H86.5034V97.96H86.8634V98.32H89.0234V98.68H89.3834V99.04H89.7434V99.4H90.1034V101.92ZM92.2658 103.72H92.6258V103H91.9058V101.56H93.3458V103.72H92.9858V104.08H92.2658V103.72ZM105.23 103H104.15V101.2H101.63V103H100.55V100.12V99.76V99.04H100.91V98.32H101.27V97.6H101.63V96.88H101.99V96.16H102.35V95.44H102.71V95.08H103.07V95.44H103.43V96.16H103.79V96.88H104.15V97.6H104.51V98.32H104.87V99.04H105.23V99.76V100.12V103ZM104.15 100.12V99.76V99.4H103.79V98.68H103.43V97.96H103.07V97.24H102.71V97.96H102.35V98.68H101.99V99.4H101.63V99.76V100.12H104.15ZM110.273 103H109.193V102.64H108.833V101.92H108.473V101.2H108.113V100.48H107.753V99.76H107.393V99.04H107.033V98.32H106.673V103H105.593V95.08H106.313V95.8H106.673V96.52H107.033V97.24H107.393V97.96H107.753V98.68H108.113V99.4H108.473V100.12H108.833V100.84H109.193V95.08H110.273V103ZM115.315 101.2H114.955V101.56H114.595V101.92H114.235V102.28H113.875V102.64H113.503V103H110.635V95.08H113.515V95.44H113.875V95.8H114.235V96.16H114.595V96.52H114.955V96.88H115.315V101.2ZM114.235 100.84V97.24H113.875V96.88H113.515V96.52H113.155V96.16H111.715V101.92H113.155V101.56H113.515V101.2H113.875V100.84H114.235ZM39.68 117H38.6V115.56H38.24V114.84H37.88V114.12H37.52V113.4H36.08V117H35V109.08H38.6V109.44H38.96V109.8H39.32V110.16H39.68V112.32H39.32V112.68H38.96V113.04H38.6V113.76H38.96V114.48H39.32V115.2H39.68V117ZM38.6 111.96V110.52H38.24V110.16H36.08V112.32H38.24V111.96H38.6ZM44.7223 117H40.0423V115.92H41.8423V110.16H41.1223V109.08H43.6423V110.16H42.9223V115.92H44.7223V117ZM49.7647 115.92H49.4047V116.28H49.0447V116.64H48.6847V117H46.1647V116.64H45.8047V116.28H45.4447V115.92H45.0847V114.84H46.1647V115.56H46.5247V115.92H48.3247V115.56H48.6847V113.76H48.3247V113.4H46.1647V113.04H45.8047V112.68H45.4447V112.32H45.0847V110.16H45.4447V109.8H45.8047V109.44H46.1647V109.08H48.6847V109.44H49.0447V109.8H49.4047V110.16H49.7647V111.24H48.6847V110.52H48.3247V110.16H46.5247V110.52H46.1647V111.96H46.5247V112.32H48.6847V112.68H49.0447V113.04H49.4047V113.4H49.7647V115.92ZM54.807 117H53.727V116.28H53.367V115.56H53.007V114.84H52.647V114.12H52.287V113.4H51.567V113.76H51.207V117H50.127V109.08H51.207V112.32H51.567V111.96H51.927V111.6H52.287V111.24H52.647V110.88H53.007V110.52H53.367V110.148H53.727V109.8H54.087V109.44H54.447V109.08H54.807V110.52H54.447V110.88H54.087V111.24H53.727V111.588H53.367V111.96H53.007V112.32H52.647V112.68H53.007V113.04H53.367V113.76H53.727V114.48H54.087V115.2H54.447V115.92H54.807V117ZM59.8494 115.92H59.4894V116.28H59.1294V116.64H58.7694V117H56.2494V116.64H55.8894V116.28H55.5294V115.92H55.1694V114.84H56.2494V115.56H56.6094V115.92H58.4094V115.56H58.7694V113.76H58.4094V113.4H56.2494V113.04H55.8894V112.68H55.5294V112.32H55.1694V110.16H55.5294V109.8H55.8894V109.44H56.2494V109.08H58.7694V109.44H59.1294V109.8H59.4894V110.16H59.8494V111.24H58.7694V110.52H58.4094V110.16H56.6094V110.52H56.2494V111.96H56.6094V112.32H58.7694V112.68H59.1294V113.04H59.4894V113.4H59.8494V115.92Z" fill="#D9D9D9"/>
<path d="M39.68 25H35V23.92H36.8V18.16H36.08V17.08H38.6V18.16H37.88V23.92H39.68V25ZM44.7223 23.2H44.3623V23.56H44.0023V23.92H43.6423V24.28H43.2823V24.64H42.9103V25H40.0423V17.08H42.9223V17.44H43.2823V17.8H43.6423V18.16H44.0023V18.52H44.3623V18.88H44.7223V23.2ZM43.6423 22.84V19.24H43.2823V18.88H42.9223V18.52H42.5623V18.16H41.1223V23.92H42.5623V23.56H42.9223V23.2H43.2823V22.84H43.6423ZM47.9647 25H46.5247V23.56H47.9647V25ZM54.807 25H50.127V23.92H51.927V18.16H50.847V17.08H53.007V23.92H54.807V25ZM58.0494 25H56.6094V23.56H58.0494V25ZM64.8917 23.56H64.5317V23.92H64.1717V24.28H63.8117V24.64H63.4517V25H61.6517V24.64H61.2917V24.28H60.9317V23.92H60.5717V23.56H60.2117V18.52H60.5717V18.16H60.9317V17.8H61.2917V17.44H61.6517V17.08H63.4517V17.44H63.8117V17.8H64.1717V18.16H64.5317V18.52H64.8917V23.56ZM63.4517 18.88V18.52V18.16H61.6517V18.52H61.2917V22.48H61.6517V21.76H62.0117V21.04H62.3717V20.32H62.7317V19.6H63.0917V18.88H63.4517ZM63.8117 23.56V19.96H63.4517V20.68H63.0917V21.4H62.7317V22.12H62.3717V22.84H62.0117V23.56H61.6517V23.92H63.4517V23.56H63.8117ZM69.9341 23.56H69.5741V23.92H69.2141V24.28H68.8541V24.64H68.4941V25H66.6941V24.64H66.3341V24.28H65.9741V23.92H65.6141V23.56H65.2541V18.52H65.6141V18.16H65.9741V17.8H66.3341V17.44H66.6941V17.08H68.4941V17.44H68.8541V17.8H69.2141V18.16H69.5741V18.52H69.9341V23.56ZM68.4941 18.88V18.52V18.16H66.6941V18.52H66.3341V22.48H66.6941V21.76H67.0541V21.04H67.4141V20.32H67.7741V19.6H68.1341V18.88H68.4941ZM68.8541 23.56V19.96H68.4941V20.68H68.1341V21.4H67.7741V22.12H67.4141V22.84H67.0541V23.56H66.6941V23.92H68.4941V23.56H68.8541ZM74.9764 25H70.2964V23.92H72.0964V18.16H71.0164V17.08H73.1764V23.92H74.9764V25Z" fill="#4B4B4B"/>
<rect x="18" width="6" height="6" fill="#4B4B4B"/>
<path d="M126 29H122V25H126V29ZM134 29H130V25H134V29ZM130 25H126V21H130V25ZM126 21H122V17H126V21ZM134 21H130V17H134V21Z" fill="#4B4B4B"/>
<rect x="145" width="6" height="6" fill="#4B4B4B"/>
<rect x="18" y="213" width="6" height="6" fill="#4B4B4B"/>
<rect x="145" y="213" width="6" height="6" fill="#4B4B4B"/>
<path d="M39.68 154H38.96V153.64H38.6H38.24V154H36.44V153.64H36.08V153.28H35.72V152.92H35.36V152.56H35V147.52H35.36V147.16H35.72V146.8H36.08V146.44H36.44V146.08H38.24V146.44H38.6V146.8H38.96V147.16H39.32V147.52H39.68V152.56H39.32V152.92V153.28H39.68V154ZM38.6 152.2V147.88H38.24V147.52H37.88V147.16H36.8V147.52H36.44V147.88H36.08V152.2H36.44V152.56H36.8V152.92H37.88V152.56H37.52V152.2H37.16V151.84H36.8V151.48H37.16H37.52H37.88V151.84H38.24V152.2H38.6ZM44.7223 152.92H44.3623V153.28H44.0023V153.64H43.6423V154H41.1223V153.64H40.7623V153.28H40.4023V152.92H40.0423V146.08H41.1223V152.56H41.4823V152.92H43.2823V152.56H43.6423V146.08H44.7223V152.92ZM49.7647 154H45.0847V152.92H46.8847V147.16H46.1647V146.08H48.6847V147.16H47.9647V152.92H49.7647V154ZM54.807 152.92H54.447V153.28H54.087V153.64H53.727V154H51.567V153.64H51.207V153.28H50.847V152.92H50.487V152.56H50.127V147.52H50.487V147.16H50.847V146.8H51.207V146.44H51.567V146.08H53.727V146.44H54.087V146.8H54.447V147.16H54.807V148.24H53.727V147.52H53.367V147.16H51.927V147.52H51.567V147.88H51.207V152.2H51.567V152.56H51.927V152.92H53.367V152.56H53.727V151.84H54.807V152.92ZM59.8494 154H58.7694V153.28H58.4094V152.56H58.0494V151.84H57.6894V151.12H57.3294V150.4H56.6094V150.76H56.2494V154H55.1694V146.08H56.2494V149.32H56.6094V148.96H56.9694V148.6H57.3294V148.24H57.6894V147.88H58.0494V147.52H58.4094V147.148H58.7694V146.8H59.1294V146.44H59.4894V146.08H59.8494V147.52H59.4894V147.88H59.1294V148.24H58.7694V148.588H58.4094V148.96H58.0494V149.32H57.6894V149.68H58.0494V150.04H58.4094V150.76H58.7694V151.48H59.1294V152.2H59.4894V152.92H59.8494V154ZM69.9341 147.16H68.1341V154H67.0541V147.16H65.2541V146.08H69.9341V147.16ZM74.9764 154H70.2964V146.08H74.9764V147.16H71.3764V149.32H74.2564V150.4H71.3764V152.92H74.9764V154ZM80.0187 152.92H79.6587V153.28H79.2987V153.64H78.9387V154H76.7787V153.64H76.4187V153.28H76.0587V152.92H75.6987V152.56H75.3387V147.52H75.6987V147.16H76.0587V146.8H76.4187V146.44H76.7787V146.08H78.9387V146.44H79.2987V146.8H79.6587V147.16H80.0187V148.24H78.9387V147.52H78.5787V147.16H77.1387V147.52H76.7787V147.88H76.4187V152.2H76.7787V152.56H77.1387V152.92H78.5787V152.56H78.9387V151.84H80.0187V152.92ZM85.0611 154H83.9811V150.4H81.4611V154H80.3811V146.08H81.4611V149.32H83.9811V146.08H85.0611V154ZM95.1458 154H94.0658V152.2H91.5458V154H90.4658V151.12V150.76V150.04H90.8258V149.32H91.1858V148.6H91.5458V147.88H91.9058V147.16H92.2658V146.44H92.6258V146.08H92.9858V146.44H93.3458V147.16H93.7058V147.88H94.0658V148.6H94.4258V149.32H94.7858V150.04H95.1458V150.76V151.12V154ZM94.0658 151.12V150.76V150.4H93.7058V149.68H93.3458V148.96H92.9858V148.24H92.6258V148.96H92.2658V149.68H91.9058V150.4H91.5458V150.76V151.12H94.0658ZM100.188 152.92H99.8281V153.28H99.4681V153.64H99.1081V154H96.5881V153.64H96.2281V153.28H95.8681V152.92H95.5081V146.08H96.5881V152.56H96.9481V152.92H98.7481V152.56H99.1081V146.08H100.188V152.92ZM105.23 152.2H104.87V152.56H104.51V152.92H104.15V153.28H103.79V153.64H103.418V154H100.55V146.08H103.43V146.44H103.79V146.8H104.15V147.16H104.51V147.52H104.87V147.88H105.23V152.2ZM104.15 151.84V148.24H103.79V147.88H103.43V147.52H103.07V147.16H101.63V152.92H103.07V152.56H103.43V152.2H103.79V151.84H104.15ZM110.273 154H105.593V152.92H107.393V147.16H106.673V146.08H109.193V147.16H108.473V152.92H110.273V154ZM115.315 147.16H113.515V154H112.435V147.16H110.635V146.08H115.315V147.16ZM120.357 152.92H119.997V153.28H119.637V153.64H119.277V154H116.757V153.64H116.397V153.28H116.037V152.92H115.677V151.84H116.757V152.56H117.117V152.92H118.917V152.56H119.277V150.76H118.917V150.4H116.757V150.04H116.397V149.68H116.037V149.32H115.677V147.16H116.037V146.8H116.397V146.44H116.757V146.08H119.277V146.44H119.637V146.8H119.997V147.16H120.357V148.24H119.277V147.52H118.917V147.16H117.117V147.52H116.757V148.96H117.117V149.32H119.277V149.68H119.637V150.04H119.997V150.4H120.357V152.92ZM39.68 166.56H39.32V166.92H38.96V167.28H38.6V167.64H38.24V168H36.44V167.64H36.08V167.28H35.72V166.92H35.36V166.56H35V161.52H35.36V161.16H35.72V160.8H36.08V160.44H36.44V160.08H38.24V160.44H38.6V160.8H38.96V161.16H39.32V161.52H39.68V166.56ZM38.6 166.2V161.88H38.24V161.52H37.88V161.16H36.8V161.52H36.44V161.88H36.08V166.2H36.44V166.56H36.8V166.92H37.88V166.56H38.24V166.2H38.6ZM44.7223 168H43.6423V166.56H43.2823V165.84H42.9223V165.12H42.5623V164.4H41.1223V168H40.0423V160.08H43.6423V160.44H44.0023V160.8H44.3623V161.16H44.7223V163.32H44.3623V163.68H44.0023V164.04H43.6423V164.76H44.0023V165.48H44.3623V166.2H44.7223V168ZM43.6423 162.96V161.52H43.2823V161.16H41.1223V163.32H43.2823V162.96H43.6423ZM54.807 161.16H51.207V163.32H53.727V164.4H51.207V168H50.127V160.08H54.807V161.16ZM59.8494 168H55.1694V160.08H59.8494V161.16H56.2494V163.32H59.1294V164.4H56.2494V166.92H59.8494V168ZM64.8917 168H63.8117V166.2H61.2917V168H60.2117V165.12V164.76V164.04H60.5717V163.32H60.9317V162.6H61.2917V161.88H61.6517V161.16H62.0117V160.44H62.3717V160.08H62.7317V160.44H63.0917V161.16H63.4517V161.88H63.8117V162.6H64.1717V163.32H64.5317V164.04H64.8917V164.76V165.12V168ZM63.8117 165.12V164.76V164.4H63.4517V163.68H63.0917V162.96H62.7317V162.24H62.3717V162.96H62.0117V163.68H61.6517V164.4H61.2917V164.76V165.12H63.8117ZM69.9341 166.92H69.5741V167.28H69.2141V167.64H68.8541V168H66.3341V167.64H65.9741V167.28H65.6141V166.92H65.2541V165.84H66.3341V166.56H66.6941V166.92H68.4941V166.56H68.8541V164.76H68.4941V164.4H66.3341V164.04H65.9741V163.68H65.6141V163.32H65.2541V161.16H65.6141V160.8H65.9741V160.44H66.3341V160.08H68.8541V160.44H69.2141V160.8H69.5741V161.16H69.9341V162.24H68.8541V161.52H68.4941V161.16H66.6941V161.52H66.3341V162.96H66.6941V163.32H68.8541V163.68H69.2141V164.04H69.5741V164.4H69.9341V166.92ZM74.9764 168H70.2964V166.92H72.0964V161.16H71.3764V160.08H73.8964V161.16H73.1764V166.92H74.9764V168ZM80.0187 166.92H79.6587V167.28H79.2987V167.64H78.9387V168H75.3387V160.08H78.9387V160.44H79.2987V160.8H79.6587V161.16H80.0187V162.96H79.6587V163.32H79.2987V163.68H78.9387V164.04H79.2987V164.4H79.6587V164.76H80.0187V166.92ZM78.9387 162.6V161.52H78.5787V161.16H76.4187V163.32H78.2187V162.96H78.5787V162.6H78.9387ZM78.9387 166.56V165.12H78.5787V164.76H78.2187V164.4H76.4187V166.92H78.5787V166.56H78.9387ZM85.0611 168H80.3811V166.92H82.1811V161.16H81.4611V160.08H83.9811V161.16H83.2611V166.92H85.0611V168ZM90.1034 168H85.4234V160.08H86.5034V166.92H90.1034V168ZM95.1458 168H90.4658V166.92H92.2658V161.16H91.5458V160.08H94.0658V161.16H93.3458V166.92H95.1458V168ZM100.188 161.16H98.3881V168H97.3081V161.16H95.5081V160.08H100.188V161.16ZM105.23 161.16H104.87V161.88H104.51V162.6H104.15V163.32H103.79V164.04H103.43V168H102.35V164.04H101.99V163.32H101.63V162.6H101.27V161.88H100.91V161.16H100.55V160.08H101.63V160.8H101.99V161.52H102.35V162.24H102.71V162.96H103.07V162.24H103.43V161.52H103.79V160.8H104.15V160.08H105.23V161.16ZM39.68 180.92H39.32V181.28H38.96V181.64H38.6V182H36.44V181.64H36.08V181.28H35.72V180.92H35.36V180.56H35V175.52H35.36V175.16H35.72V174.8H36.08V174.44H36.44V174.08H38.6V174.44H38.96V174.8H39.32V175.16H39.68V176.24H38.6V175.52H38.24V175.16H36.8V175.52H36.44V175.88H36.08V180.2H36.44V180.56H36.8V180.92H38.24V180.56H38.6V179.84H39.68V180.92ZM44.7223 182H43.6423V178.4H41.1223V182H40.0423V174.08H41.1223V177.32H43.6423V174.08H44.7223V182ZM49.7647 182H45.0847V174.08H49.7647V175.16H46.1647V177.32H49.0447V178.4H46.1647V180.92H49.7647V182ZM54.807 180.92H54.447V181.28H54.087V181.64H53.727V182H51.567V181.64H51.207V181.28H50.847V180.92H50.487V180.56H50.127V175.52H50.487V175.16H50.847V174.8H51.207V174.44H51.567V174.08H53.727V174.44H54.087V174.8H54.447V175.16H54.807V176.24H53.727V175.52H53.367V175.16H51.927V175.52H51.567V175.88H51.207V180.2H51.567V180.56H51.927V180.92H53.367V180.56H53.727V179.84H54.807V180.92ZM59.8494 182H58.7694V181.28H58.4094V180.56H58.0494V179.84H57.6894V179.12H57.3294V178.4H56.6094V178.76H56.2494V182H55.1694V174.08H56.2494V177.32H56.6094V176.96H56.9694V176.6H57.3294V176.24H57.6894V175.88H58.0494V175.52H58.4094V175.148H58.7694V174.8H59.1294V174.44H59.4894V174.08H59.8494V175.52H59.4894V175.88H59.1294V176.24H58.7694V176.588H58.4094V176.96H58.0494V177.32H57.6894V177.68H58.0494V178.04H58.4094V178.76H58.7694V179.48H59.1294V180.2H59.4894V180.92H59.8494V182ZM64.8917 180.92H64.5317V181.28H64.1717V181.64H63.8117V182H61.2917V181.64H60.9317V181.28H60.5717V180.92H60.2117V179.84H61.2917V180.56H61.6517V180.92H63.4517V180.56H63.8117V178.76H63.4517V178.4H61.2917V178.04H60.9317V177.68H60.5717V177.32H60.2117V175.16H60.5717V174.8H60.9317V174.44H61.2917V174.08H63.8117V174.44H64.1717V174.8H64.5317V175.16H64.8917V176.24H63.8117V175.52H63.4517V175.16H61.6517V175.52H61.2917V176.96H61.6517V177.32H63.8117V177.68H64.1717V178.04H64.5317V178.4H64.8917V180.92Z" fill="#D9D9D9"/>
</g>
<rect x="18.5" y="0.5" width="132" height="218" stroke="#4B4B4B"/>
<g clip-path="url(#clip1_3116_5972)">
<path d="M187.68 25H183V23.92H184.8V18.16H184.08V17.08H186.6V18.16H185.88V23.92H187.68V25ZM192.722 23.2H192.362V23.56H192.002V23.92H191.642V24.28H191.282V24.64H190.91V25H188.042V17.08H190.922V17.44H191.282V17.8H191.642V18.16H192.002V18.52H192.362V18.88H192.722V23.2ZM191.642 22.84V19.24H191.282V18.88H190.922V18.52H190.562V18.16H189.122V23.92H190.562V23.56H190.922V23.2H191.282V22.84H191.642ZM195.965 25H194.525V23.56H195.965V25ZM202.807 25H198.127V23.92H199.927V18.16H198.847V17.08H201.007V23.92H202.807V25ZM206.049 25H204.609V23.56H206.049V25ZM212.892 23.56H212.532V23.92H212.172V24.28H211.812V24.64H211.452V25H209.652V24.64H209.292V24.28H208.932V23.92H208.572V23.56H208.212V18.52H208.572V18.16H208.932V17.8H209.292V17.44H209.652V17.08H211.452V17.44H211.812V17.8H212.172V18.16H212.532V18.52H212.892V23.56ZM211.452 18.88V18.52V18.16H209.652V18.52H209.292V22.48H209.652V21.76H210.012V21.04H210.372V20.32H210.732V19.6H211.092V18.88H211.452ZM211.812 23.56V19.96H211.452V20.68H211.092V21.4H210.732V22.12H210.372V22.84H210.012V23.56H209.652V23.92H211.452V23.56H211.812ZM217.934 23.56H217.574V23.92H217.214V24.28H216.854V24.64H216.494V25H214.694V24.64H214.334V24.28H213.974V23.92H213.614V23.56H213.254V18.52H213.614V18.16H213.974V17.8H214.334V17.44H214.694V17.08H216.494V17.44H216.854V17.8H217.214V18.16H217.574V18.52H217.934V23.56ZM216.494 18.88V18.52V18.16H214.694V18.52H214.334V22.48H214.694V21.76H215.054V21.04H215.414V20.32H215.774V19.6H216.134V18.88H216.494ZM216.854 23.56V19.96H216.494V20.68H216.134V21.4H215.774V22.12H215.414V22.84H215.054V23.56H214.694V23.92H216.494V23.56H216.854ZM222.976 25H218.296V22.12H218.656V21.76H219.016V21.4H219.376V21.04H219.736V20.68H221.176V20.32H221.536V19.96H221.896V18.52H221.536V18.16H219.736V18.52H219.376V19.24H218.296V18.16H218.656V17.8H219.016V17.44H219.376V17.08H221.896V17.44H222.256V17.8H222.616V18.16H222.976V20.32H222.616V20.68H222.256V21.04H221.896V21.4H221.536V21.76H220.096V22.12H219.736V22.48H219.376V23.92H222.976V25Z" fill="#4B4B4B"/>
<rect x="166" width="6" height="6" fill="#4B4B4B"/>
<rect x="293" width="6" height="6" fill="#4B4B4B"/>
<rect x="166" y="213" width="6" height="6" fill="#4B4B4B"/>
<rect x="293" y="213" width="6" height="6" fill="#4B4B4B"/>
<rect x="274" y="17" width="4" height="4" fill="#4B4B4B"/>
<rect x="278" y="25" width="4" height="4" fill="#4B4B4B"/>
<rect x="278" y="21" width="4" height="4" fill="#4B4B4B"/>
<rect x="270" y="21" width="4" height="4" fill="#4B4B4B"/>
<rect x="274" y="25" width="4" height="4" fill="#4B4B4B"/>
<path d="M187.68 73H186.6V69.4H184.08V73H183V65.08H184.08V68.32H186.6V65.08H187.68V73ZM192.722 71.56H192.362V71.92H192.002V72.28H191.642V72.64H191.282V73H189.482V72.64H189.122V72.28H188.762V71.92H188.402V71.56H188.042V66.52H188.402V66.16H188.762V65.8H189.122V65.44H189.482V65.08H191.282V65.44H191.642V65.8H192.002V66.16H192.362V66.52H192.722V71.56ZM191.642 71.2V66.88H191.282V66.52H190.922V66.16H189.842V66.52H189.482V66.88H189.122V71.2H189.482V71.56H189.842V71.92H190.922V71.56H191.282V71.2H191.642ZM197.765 73H196.685V72.64H196.325V71.92H195.965V71.2H195.605V70.48H195.245V69.76H194.885V69.04H194.525V68.32H194.165V73H193.085V65.08H193.805V65.8H194.165V66.52H194.525V67.24H194.885V67.96H195.245V68.68H195.605V69.4H195.965V70.12H196.325V70.84H196.685V65.08H197.765V73ZM202.807 73H198.127V65.08H202.807V66.16H199.207V68.32H202.087V69.4H199.207V71.92H202.807V73ZM207.849 71.92H207.489V72.28H207.129V72.64H206.769V73H204.249V72.64H203.889V72.28H203.529V71.92H203.169V70.84H204.249V71.56H204.609V71.92H206.409V71.56H206.769V69.76H206.409V69.4H204.249V69.04H203.889V68.68H203.529V68.32H203.169V66.16H203.529V65.8H203.889V65.44H204.249V65.08H206.769V65.44H207.129V65.8H207.489V66.16H207.849V67.24H206.769V66.52H206.409V66.16H204.609V66.52H204.249V67.96H204.609V68.32H206.769V68.68H207.129V69.04H207.489V69.4H207.849V71.92ZM212.892 66.16H211.092V73H210.012V66.16H208.212V65.08H212.892V66.16ZM222.976 73H218.296V71.92H220.096V66.16H219.376V65.08H221.896V66.16H221.176V71.92H222.976V73ZM228.019 73H226.939V72.64H226.579V71.92H226.219V71.2H225.859V70.48H225.499V69.76H225.139V69.04H224.779V68.32H224.419V73H223.339V65.08H224.059V65.8H224.419V66.52H224.779V67.24H225.139V67.96H225.499V68.68H225.859V69.4H226.219V70.12H226.579V70.84H226.939V65.08H228.019V73ZM233.061 68.68H232.701V69.04H232.341V69.4H231.981V69.76H229.461V73H228.381V65.08H231.981V65.44H232.341V65.8H232.701V66.16H233.061V68.68ZM231.981 68.32V66.52H231.621V66.16H229.461V68.68H231.621V68.32H231.981ZM238.103 71.92H237.743V72.28H237.383V72.64H237.023V73H234.503V72.64H234.143V72.28H233.783V71.92H233.423V65.08H234.503V71.56H234.863V71.92H236.663V71.56H237.023V65.08H238.103V71.92ZM243.146 66.16H241.346V73H240.266V66.16H238.466V65.08H243.146V66.16ZM253.23 70.48H248.55V69.4H253.23V70.48ZM187.68 87H183V85.92H184.8V80.16H184.08V79.08H186.6V80.16H185.88V85.92H187.68V87ZM192.722 80.16H189.122V82.32H191.642V83.4H189.122V87H188.042V79.08H192.722V80.16ZM202.807 85.92H202.447V86.28H202.087V86.64H201.727V87H199.207V86.64H198.847V86.28H198.487V85.92H198.127V84.84H199.207V85.56H199.567V85.92H201.367V85.56H201.727V83.76H201.367V83.4H199.207V83.04H198.847V82.68H198.487V82.32H198.127V80.16H198.487V79.8H198.847V79.44H199.207V79.08H201.727V79.44H202.087V79.8H202.447V80.16H202.807V81.24H201.727V80.52H201.367V80.16H199.567V80.52H199.207V81.96H199.567V82.32H201.727V82.68H202.087V83.04H202.447V83.4H202.807V85.92ZM207.849 85.56H207.489V85.92H207.129V86.28H206.769V86.64H206.409V87H204.609V86.64H204.249V86.28H203.889V85.92H203.529V85.56H203.169V80.52H203.529V80.16H203.889V79.8H204.249V79.44H204.609V79.08H206.409V79.44H206.769V79.8H207.129V80.16H207.489V80.52H207.849V85.56ZM206.769 85.2V80.88H206.409V80.52H206.049V80.16H204.969V80.52H204.609V80.88H204.249V85.2H204.609V85.56H204.969V85.92H206.049V85.56H206.409V85.2H206.769ZM212.892 87H211.812V83.04H211.452V83.76H211.092V84.48H210.732V85.2H210.372V84.48H210.012V83.76H209.652V83.04H209.292V87H208.212V79.08H208.572V79.8H208.932V80.52H209.292V81.24H209.652V81.96H210.012V82.68H210.372V83.4H210.732V82.68H211.092V81.96H211.452V81.24H211.812V80.52H212.172V79.8H212.532V79.08H212.892V87ZM217.934 87H213.254V79.08H217.934V80.16H214.334V82.32H217.214V83.4H214.334V85.92H217.934V87ZM222.976 80.16H221.176V87H220.096V80.16H218.296V79.08H222.976V80.16ZM228.019 87H226.939V83.4H224.419V87H223.339V79.08H224.419V82.32H226.939V79.08H228.019V87ZM233.061 87H228.381V85.92H230.181V80.16H229.461V79.08H231.981V80.16H231.261V85.92H233.061V87ZM238.103 87H237.023V86.64H236.663V85.92H236.303V85.2H235.943V84.48H235.583V83.76H235.223V83.04H234.863V82.32H234.503V87H233.423V79.08H234.143V79.8H234.503V80.52H234.863V81.24H235.223V81.96H235.583V82.68H235.943V83.4H236.303V84.12H236.663V84.84H237.023V79.08H238.103V87ZM243.146 86.28H242.786V86.64H242.426V87H239.906V86.64H239.546V86.28H239.186V85.92H238.826V85.56H238.466V80.52H238.826V80.16H239.186V79.8H239.546V79.44H239.906V79.08H242.426V79.44H242.786V79.8H243.146V80.52H242.066V80.16H240.266V80.52H239.906V80.88H239.546V85.2H239.906V85.56H240.266V85.92H242.066V83.76H241.706V84.12H240.626V82.68H243.146V86.28ZM246.388 80.88H245.308V79.08H246.388V80.88ZM253.23 85.92H252.87V86.28H252.51V86.64H252.15V87H249.63V86.64H249.27V86.28H248.91V85.92H248.55V84.84H249.63V85.56H249.99V85.92H251.79V85.56H252.15V83.76H251.79V83.4H249.63V83.04H249.27V82.68H248.91V82.32H248.55V80.16H248.91V79.8H249.27V79.44H249.63V79.08H252.15V79.44H252.51V79.8H252.87V80.16H253.23V81.24H252.15V80.52H251.79V80.16H249.99V80.52H249.63V81.96H249.99V82.32H252.15V82.68H252.51V83.04H252.87V83.4H253.23V85.92ZM263.315 87H262.235V85.2H259.715V87H258.635V84.12V83.76V83.04H258.995V82.32H259.355V81.6H259.715V80.88H260.075V80.16H260.435V79.44H260.795V79.08H261.155V79.44H261.515V80.16H261.875V80.88H262.235V81.6H262.595V82.32H262.955V83.04H263.315V83.76V84.12V87ZM262.235 84.12V83.76V83.4H261.875V82.68H261.515V81.96H261.155V81.24H260.795V81.96H260.435V82.68H260.075V83.4H259.715V83.76V84.12H262.235ZM187.68 99.92H187.32V100.28H186.96V100.64H186.6V101H183V93.08H186.6V93.44H186.96V93.8H187.32V94.16H187.68V95.96H187.32V96.32H186.96V96.68H186.6V97.04H186.96V97.4H187.32V97.76H187.68V99.92ZM186.6 95.6V94.52H186.24V94.16H184.08V96.32H185.88V95.96H186.24V95.6H186.6ZM186.6 99.56V98.12H186.24V97.76H185.88V97.4H184.08V99.92H186.24V99.56H186.6ZM192.722 101H191.642V99.2H189.122V101H188.042V98.12V97.76V97.04H188.402V96.32H188.762V95.6H189.122V94.88H189.482V94.16H189.842V93.44H190.202V93.08H190.562V93.44H190.922V94.16H191.282V94.88H191.642V95.6H192.002V96.32H192.362V97.04H192.722V97.76V98.12V101ZM191.642 98.12V97.76V97.4H191.282V96.68H190.922V95.96H190.562V95.24H190.202V95.96H189.842V96.68H189.482V97.4H189.122V97.76V98.12H191.642ZM197.765 99.2H197.405V99.56H197.045V99.92H196.685V100.28H196.325V100.64H195.953V101H193.085V93.08H195.965V93.44H196.325V93.8H196.685V94.16H197.045V94.52H197.405V94.88H197.765V99.2ZM196.685 98.84V95.24H196.325V94.88H195.965V94.52H195.605V94.16H194.165V99.92H195.605V99.56H195.965V99.2H196.325V98.84H196.685ZM207.849 101H203.169V99.92H204.969V94.16H204.249V93.08H206.769V94.16H206.049V99.92H207.849V101ZM212.892 99.2H212.532V99.56H212.172V99.92H211.812V100.28H211.452V100.64H211.08V101H208.212V93.08H211.092V93.44H211.452V93.8H211.812V94.16H212.172V94.52H212.532V94.88H212.892V99.2ZM211.812 98.84V95.24H211.452V94.88H211.092V94.52H210.732V94.16H209.292V99.92H210.732V99.56H211.092V99.2H211.452V98.84H211.812ZM217.934 101H213.254V93.08H217.934V94.16H214.334V96.32H217.214V97.4H214.334V99.92H217.934V101ZM222.976 101H221.896V99.2H219.376V101H218.296V98.12V97.76V97.04H218.656V96.32H219.016V95.6H219.376V94.88H219.736V94.16H220.096V93.44H220.456V93.08H220.816V93.44H221.176V94.16H221.536V94.88H221.896V95.6H222.256V96.32H222.616V97.04H222.976V97.76V98.12V101ZM221.896 98.12V97.76V97.4H221.536V96.68H221.176V95.96H220.816V95.24H220.456V95.96H220.096V96.68H219.736V97.4H219.376V97.76V98.12H221.896ZM225.139 101.72H225.499V101H224.779V99.56H226.219V101.72H225.859V102.08H225.139V101.72ZM238.103 101H237.743V100.28H237.383V99.56H237.023V98.84H236.663V98.12H236.303V97.4H235.943V96.68H235.583V97.4H235.223V98.12H234.863V98.84H234.503V99.56H234.143V100.28H233.783V101H233.423V93.08H234.503V97.04H234.863V96.32H235.223V95.6H235.583V94.88H235.943V95.6H236.303V96.32H236.663V97.04H237.023V93.08H238.103V101ZM243.146 101H238.466V93.08H243.146V94.16H239.546V96.32H242.426V97.4H239.546V99.92H243.146V101ZM246.388 94.88H245.308V93.08H246.388V94.88ZM253.23 101H248.55V93.08H249.63V99.92H253.23V101ZM258.273 101H253.593V93.08H254.673V99.92H258.273V101ZM187.68 108.16H185.88V115H184.8V108.16H183V107.08H187.68V108.16ZM192.722 115H188.042V107.08H192.722V108.16H189.122V110.32H192.002V111.4H189.122V113.92H192.722V115ZM197.765 115H193.085V107.08H194.165V113.92H197.765V115ZM202.807 115H198.127V107.08H199.207V113.92H202.807V115ZM212.892 108.16H212.532V108.88H212.172V109.6H211.812V110.32H211.452V111.04H211.092V115H210.012V111.04H209.652V110.32H209.292V109.6H208.932V108.88H208.572V108.16H208.212V107.08H209.292V107.8H209.652V108.52H210.012V109.24H210.372V109.96H210.732V109.24H211.092V108.52H211.452V107.8H211.812V107.08H212.892V108.16ZM217.934 113.56H217.574V113.92H217.214V114.28H216.854V114.64H216.494V115H214.694V114.64H214.334V114.28H213.974V113.92H213.614V113.56H213.254V108.52H213.614V108.16H213.974V107.8H214.334V107.44H214.694V107.08H216.494V107.44H216.854V107.8H217.214V108.16H217.574V108.52H217.934V113.56ZM216.854 113.2V108.88H216.494V108.52H216.134V108.16H215.054V108.52H214.694V108.88H214.334V113.2H214.694V113.56H215.054V113.92H216.134V113.56H216.494V113.2H216.854ZM222.976 113.92H222.616V114.28H222.256V114.64H221.896V115H219.376V114.64H219.016V114.28H218.656V113.92H218.296V107.08H219.376V113.56H219.736V113.92H221.536V113.56H221.896V107.08H222.976V113.92Z" fill="#D9D9D9"/>
<path d="M189.68 147.16H187.88V154H186.8V147.16H185V146.08H189.68V147.16ZM194.722 154H190.042V152.92H191.842V147.16H191.122V146.08H193.642V147.16H192.922V152.92H194.722V154ZM199.765 154H198.685V150.04H198.325V150.76H197.965V151.48H197.605V152.2H197.245V151.48H196.885V150.76H196.525V150.04H196.165V154H195.085V146.08H195.445V146.8H195.805V147.52H196.165V148.24H196.525V148.96H196.885V149.68H197.245V150.4H197.605V149.68H197.965V148.96H198.325V148.24H198.685V147.52H199.045V146.8H199.405V146.08H199.765V154ZM204.807 154H200.127V146.08H204.807V147.16H201.207V149.32H204.087V150.4H201.207V152.92H204.807V154ZM209.849 154H205.169V146.08H206.249V152.92H209.849V154ZM214.892 154H210.212V152.92H212.012V147.16H211.292V146.08H213.812V147.16H213.092V152.92H214.892V154ZM219.934 154H218.854V153.64H218.494V152.92H218.134V152.2H217.774V151.48H217.414V150.76H217.054V150.04H216.694V149.32H216.334V154H215.254V146.08H215.974V146.8H216.334V147.52H216.694V148.24H217.054V148.96H217.414V149.68H217.774V150.4H218.134V151.12H218.494V151.84H218.854V146.08H219.934V154ZM224.976 154H220.296V146.08H224.976V147.16H221.376V149.32H224.256V150.4H221.376V152.92H224.976V154ZM227.139 154.72H227.499V154H226.779V152.56H228.219V154.72H227.859V155.08H227.139V154.72ZM240.103 152.92H239.743V153.28H239.383V153.64H239.023V154H235.423V146.08H239.023V146.44H239.383V146.8H239.743V147.16H240.103V148.96H239.743V149.32H239.383V149.68H239.023V150.04H239.383V150.4H239.743V150.76H240.103V152.92ZM239.023 148.6V147.52H238.663V147.16H236.503V149.32H238.303V148.96H238.663V148.6H239.023ZM239.023 152.56V151.12H238.663V150.76H238.303V150.4H236.503V152.92H238.663V152.56H239.023ZM245.146 152.92H244.786V153.28H244.426V153.64H244.066V154H241.546V153.64H241.186V153.28H240.826V152.92H240.466V146.08H241.546V152.56H241.906V152.92H243.706V152.56H244.066V146.08H245.146V152.92ZM250.188 152.2H249.828V152.56H249.468V152.92H249.108V153.28H248.748V153.64H248.376V154H245.508V146.08H248.388V146.44H248.748V146.8H249.108V147.16H249.468V147.52H249.828V147.88H250.188V152.2ZM249.108 151.84V148.24H248.748V147.88H248.388V147.52H248.028V147.16H246.588V152.92H248.028V152.56H248.388V152.2H248.748V151.84H249.108ZM255.23 153.28H254.87V153.64H254.51V154H251.99V153.64H251.63V153.28H251.27V152.92H250.91V152.56H250.55V147.52H250.91V147.16H251.27V146.8H251.63V146.44H251.99V146.08H254.51V146.44H254.87V146.8H255.23V147.52H254.15V147.16H252.35V147.52H251.99V147.88H251.63V152.2H251.99V152.56H252.35V152.92H254.15V150.76H253.79V151.12H252.71V149.68H255.23V153.28ZM260.273 154H255.593V146.08H260.273V147.16H256.673V149.32H259.553V150.4H256.673V152.92H260.273V154ZM265.315 147.16H263.515V154H262.435V147.16H260.635V146.08H265.315V147.16ZM267.477 154.72H267.837V154H267.117V152.56H268.557V154.72H268.197V155.08H267.477V154.72ZM189.68 168H188.6V166.2H186.08V168H185V165.12V164.76V164.04H185.36V163.32H185.72V162.6H186.08V161.88H186.44V161.16H186.8V160.44H187.16V160.08H187.52V160.44H187.88V161.16H188.24V161.88H188.6V162.6H188.96V163.32H189.32V164.04H189.68V164.76V165.12V168ZM188.6 165.12V164.76V164.4H188.24V163.68H187.88V162.96H187.52V162.24H187.16V162.96H186.8V163.68H186.44V164.4H186.08V164.76V165.12H188.6ZM194.722 168H193.642V167.64H193.282V166.92H192.922V166.2H192.562V165.48H192.202V164.76H191.842V164.04H191.482V163.32H191.122V168H190.042V160.08H190.762V160.8H191.122V161.52H191.482V162.24H191.842V162.96H192.202V163.68H192.562V164.4H192.922V165.12H193.282V165.84H193.642V160.08H194.722V168ZM199.765 166.2H199.405V166.56H199.045V166.92H198.685V167.28H198.325V167.64H197.953V168H195.085V160.08H197.965V160.44H198.325V160.8H198.685V161.16H199.045V161.52H199.405V161.88H199.765V166.2ZM198.685 165.84V162.24H198.325V161.88H197.965V161.52H197.605V161.16H196.165V166.92H197.605V166.56H197.965V166.2H198.325V165.84H198.685ZM209.849 166.92H209.489V167.28H209.129V167.64H208.769V168H206.249V167.64H205.889V167.28H205.529V166.92H205.169V165.84H206.249V166.56H206.609V166.92H208.409V166.56H208.769V164.76H208.409V164.4H206.249V164.04H205.889V163.68H205.529V163.32H205.169V161.16H205.529V160.8H205.889V160.44H206.249V160.08H208.769V160.44H209.129V160.8H209.489V161.16H209.849V162.24H208.769V161.52H208.409V161.16H206.609V161.52H206.249V162.96H206.609V163.32H208.769V163.68H209.129V164.04H209.489V164.4H209.849V166.92ZM214.892 166.92H214.532V167.28H214.172V167.64H213.812V168H211.652V167.64H211.292V167.28H210.932V166.92H210.572V166.56H210.212V161.52H210.572V161.16H210.932V160.8H211.292V160.44H211.652V160.08H213.812V160.44H214.172V160.8H214.532V161.16H214.892V162.24H213.812V161.52H213.452V161.16H212.012V161.52H211.652V161.88H211.292V166.2H211.652V166.56H212.012V166.92H213.452V166.56H213.812V165.84H214.892V166.92ZM219.934 166.56H219.574V166.92H219.214V167.28H218.854V167.64H218.494V168H216.694V167.64H216.334V167.28H215.974V166.92H215.614V166.56H215.254V161.52H215.614V161.16H215.974V160.8H216.334V160.44H216.694V160.08H218.494V160.44H218.854V160.8H219.214V161.16H219.574V161.52H219.934V166.56ZM218.854 166.2V161.88H218.494V161.52H218.134V161.16H217.054V161.52H216.694V161.88H216.334V166.2H216.694V166.56H217.054V166.92H218.134V166.56H218.494V166.2H218.854ZM224.976 163.68H224.616V164.04H224.256V164.4H223.896V164.76H221.376V168H220.296V160.08H223.896V160.44H224.256V160.8H224.616V161.16H224.976V163.68ZM223.896 163.32V161.52H223.536V161.16H221.376V163.68H223.536V163.32H223.896ZM230.019 168H225.339V160.08H230.019V161.16H226.419V163.32H229.299V164.4H226.419V166.92H230.019V168ZM240.103 166.56H239.743V166.92H239.383V167.28H239.023V167.64H238.663V168H236.863V167.64H236.503V167.28H236.143V166.92H235.783V166.56H235.423V161.52H235.783V161.16H236.143V160.8H236.503V160.44H236.863V160.08H238.663V160.44H239.023V160.8H239.383V161.16H239.743V161.52H240.103V166.56ZM239.023 166.2V161.88H238.663V161.52H238.303V161.16H237.223V161.52H236.863V161.88H236.503V166.2H236.863V166.56H237.223V166.92H238.303V166.56H238.663V166.2H239.023ZM245.146 166.92H244.786V167.28H244.426V167.64H244.066V168H241.546V167.64H241.186V167.28H240.826V166.92H240.466V160.08H241.546V166.56H241.906V166.92H243.706V166.56H244.066V160.08H245.146V166.92ZM250.188 161.16H248.388V168H247.308V161.16H245.508V160.08H250.188V161.16ZM255.23 168H250.55V160.08H251.63V166.92H255.23V168ZM260.273 168H255.593V166.92H257.393V161.16H256.673V160.08H259.193V161.16H258.473V166.92H260.273V168ZM265.315 168H264.235V167.64H263.875V166.92H263.515V166.2H263.155V165.48H262.795V164.76H262.435V164.04H262.075V163.32H261.715V168H260.635V160.08H261.355V160.8H261.715V161.52H262.075V162.24H262.435V162.96H262.795V163.68H263.155V164.4H263.515V165.12H263.875V165.84H264.235V160.08H265.315V168ZM270.357 168H265.677V160.08H270.357V161.16H266.757V163.32H269.637V164.4H266.757V166.92H270.357V168ZM275.4 166.2H275.04V166.56H274.68V166.92H274.32V167.28H273.96V167.64H273.588V168H270.72V160.08H273.6V160.44H273.96V160.8H274.32V161.16H274.68V161.52H275.04V161.88H275.4V166.2ZM274.32 165.84V162.24H273.96V161.88H273.6V161.52H273.24V161.16H271.8V166.92H273.24V166.56H273.6V166.2H273.96V165.84H274.32ZM189.68 180.92H189.32V181.28H188.96V181.64H188.6V182H186.44V181.64H186.08V181.28H185.72V180.92H185.36V180.56H185V175.52H185.36V175.16H185.72V174.8H186.08V174.44H186.44V174.08H188.6V174.44H188.96V174.8H189.32V175.16H189.68V176.24H188.6V175.52H188.24V175.16H186.8V175.52H186.44V175.88H186.08V180.2H186.44V180.56H186.8V180.92H188.24V180.56H188.6V179.84H189.68V180.92ZM194.722 182H190.042V174.08H191.122V180.92H194.722V182ZM199.765 182H195.085V174.08H199.765V175.16H196.165V177.32H199.045V178.4H196.165V180.92H199.765V182ZM204.807 182H203.727V180.2H201.207V182H200.127V179.12V178.76V178.04H200.487V177.32H200.847V176.6H201.207V175.88H201.567V175.16H201.927V174.44H202.287V174.08H202.647V174.44H203.007V175.16H203.367V175.88H203.727V176.6H204.087V177.32H204.447V178.04H204.807V178.76V179.12V182ZM203.727 179.12V178.76V178.4H203.367V177.68H203.007V176.96H202.647V176.24H202.287V176.96H201.927V177.68H201.567V178.4H201.207V178.76V179.12H203.727ZM209.849 182H208.769V180.56H208.409V179.84H208.049V179.12H207.689V178.4H206.249V182H205.169V174.08H208.769V174.44H209.129V174.8H209.489V175.16H209.849V177.32H209.489V177.68H209.129V178.04H208.769V178.76H209.129V179.48H209.489V180.2H209.849V182ZM208.769 176.96V175.52H208.409V175.16H206.249V177.32H208.409V176.96H208.769ZM214.892 182H210.212V174.08H211.292V180.92H214.892V182ZM219.934 175.16H219.574V175.88H219.214V176.6H218.854V177.32H218.494V178.04H218.134V182H217.054V178.04H216.694V177.32H216.334V176.6H215.974V175.88H215.614V175.16H215.254V174.08H216.334V174.8H216.694V175.52H217.054V176.24H217.414V176.96H217.774V176.24H218.134V175.52H218.494V174.8H218.854V174.08H219.934V175.16Z" fill="#D9D9D9"/>
</g>
<rect x="166.5" y="0.5" width="132" height="218" stroke="#4B4B4B"/>
<rect x="151.25" y="23.25" width="14.5" height="0.5" fill="#4B4B4B" stroke="#4B4B4B" stroke-width="0.5"/>
<rect x="-13.75" y="23.25" width="31.5" height="0.5" fill="#4B4B4B" stroke="#4B4B4B" stroke-width="0.5"/>
<defs>
<clipPath id="clip0_3116_5972">
<rect x="18" width="133" height="219" fill="white"/>
</clipPath>
<clipPath id="clip1_3116_5972">
<rect x="166" width="133" height="219" fill="white"/>
</clipPath>
</defs>
</svg>
