<svg width="348" height="232" viewBox="0 0 348 232" fill="none" xmlns="http://www.w3.org/2000/svg">
<rect y="24" width="99" height="1" fill="#4B4B4B"/>
<rect y="142" width="53" height="1" fill="#4B4B4B"/>
<rect y="83" width="16" height="1" fill="#4B4B4B"/>
<rect y="201" width="16" height="1" fill="#4B4B4B"/>
<g clip-path="url(#clip0_3101_7166)">
<path d="M115.68 34.2H115.32V34.56H114.96V34.92H114.6V35.28H114.24V35.64H113.868V36H111V28.08H113.88V28.44H114.24V28.8H114.6V29.16H114.96V29.52H115.32V29.88H115.68V34.2ZM114.6 33.84V30.24H114.24V29.88H113.88V29.52H113.52V29.16H112.08V34.92H113.52V34.56H113.88V34.2H114.24V33.84H114.6ZM120.722 36H116.042V28.08H120.722V29.16H117.122V31.32H120.002V32.4H117.122V34.92H120.722V36ZM125.765 29.16H122.165V31.32H124.685V32.4H122.165V36H121.085V28.08H125.765V29.16ZM130.807 36H126.127V34.92H127.927V29.16H127.207V28.08H129.727V29.16H129.007V34.92H130.807V36ZM135.849 36H134.769V35.64H134.409V34.92H134.049V34.2H133.689V33.48H133.329V32.76H132.969V32.04H132.609V31.32H132.249V36H131.169V28.08H131.889V28.8H132.249V29.52H132.609V30.24H132.969V30.96H133.329V31.68H133.689V32.4H134.049V33.12H134.409V33.84H134.769V28.08H135.849V36ZM140.892 36H136.212V34.92H138.012V29.16H137.292V28.08H139.812V29.16H139.092V34.92H140.892V36ZM145.934 36H144.854V35.64H144.494V34.92H144.134V34.2H143.774V33.48H143.414V32.76H143.054V32.04H142.694V31.32H142.334V36H141.254V28.08H141.974V28.8H142.334V29.52H142.694V30.24H143.054V30.96H143.414V31.68H143.774V32.4H144.134V33.12H144.494V33.84H144.854V28.08H145.934V36ZM150.976 35.28H150.616V35.64H150.256V36H147.736V35.64H147.376V35.28H147.016V34.92H146.656V34.56H146.296V29.52H146.656V29.16H147.016V28.8H147.376V28.44H147.736V28.08H150.256V28.44H150.616V28.8H150.976V29.52H149.896V29.16H148.096V29.52H147.736V29.88H147.376V34.2H147.736V34.56H148.096V34.92H149.896V32.76H149.536V33.12H148.456V31.68H150.976V35.28ZM161.061 29.16H157.461V31.32H159.981V32.4H157.461V36H156.381V28.08H161.061V29.16ZM166.103 36H161.423V28.08H166.103V29.16H162.503V31.32H165.383V32.4H162.503V34.92H166.103V36ZM171.146 36H170.066V34.2H167.546V36H166.466V33.12V32.76V32.04H166.826V31.32H167.186V30.6H167.546V29.88H167.906V29.16H168.266V28.44H168.626V28.08H168.986V28.44H169.346V29.16H169.706V29.88H170.066V30.6H170.426V31.32H170.786V32.04H171.146V32.76V33.12V36ZM170.066 33.12V32.76V32.4H169.706V31.68H169.346V30.96H168.986V30.24H168.626V30.96H168.266V31.68H167.906V32.4H167.546V32.76V33.12H170.066ZM176.188 29.16H174.388V36H173.308V29.16H171.508V28.08H176.188V29.16ZM181.23 34.92H180.87V35.28H180.51V35.64H180.15V36H177.63V35.64H177.27V35.28H176.91V34.92H176.55V28.08H177.63V34.56H177.99V34.92H179.79V34.56H180.15V28.08H181.23V34.92ZM186.273 36H185.193V34.56H184.833V33.84H184.473V33.12H184.113V32.4H182.673V36H181.593V28.08H185.193V28.44H185.553V28.8H185.913V29.16H186.273V31.32H185.913V31.68H185.553V32.04H185.193V32.76H185.553V33.48H185.913V34.2H186.273V36ZM185.193 30.96V29.52H184.833V29.16H182.673V31.32H184.833V30.96H185.193ZM191.315 36H186.635V28.08H191.315V29.16H187.715V31.32H190.595V32.4H187.715V34.92H191.315V36ZM196.357 34.92H195.997V35.28H195.637V35.64H195.277V36H192.757V35.64H192.397V35.28H192.037V34.92H191.677V33.84H192.757V34.56H193.117V34.92H194.917V34.56H195.277V32.76H194.917V32.4H192.757V32.04H192.397V31.68H192.037V31.32H191.677V29.16H192.037V28.8H192.397V28.44H192.757V28.08H195.277V28.44H195.637V28.8H195.997V29.16H196.357V30.24H195.277V29.52H194.917V29.16H193.117V29.52H192.757V30.96H193.117V31.32H195.277V31.68H195.637V32.04H195.997V32.4H196.357V34.92ZM206.442 36H205.362V34.2H202.842V36H201.762V33.12V32.76V32.04H202.122V31.32H202.482V30.6H202.842V29.88H203.202V29.16H203.562V28.44H203.922V28.08H204.282V28.44H204.642V29.16H205.002V29.88H205.362V30.6H205.722V31.32H206.082V32.04H206.442V32.76V33.12V36ZM205.362 33.12V32.76V32.4H205.002V31.68H204.642V30.96H204.282V30.24H203.922V30.96H203.562V31.68H203.202V32.4H202.842V32.76V33.12H205.362ZM211.485 36H210.405V35.64H210.045V34.92H209.685V34.2H209.325V33.48H208.965V32.76H208.605V32.04H208.245V31.32H207.885V36H206.805V28.08H207.525V28.8H207.885V29.52H208.245V30.24H208.605V30.96H208.965V31.68H209.325V32.4H209.685V33.12H210.045V33.84H210.405V28.08H211.485V36ZM216.527 34.2H216.167V34.56H215.807V34.92H215.447V35.28H215.087V35.64H214.715V36H211.847V28.08H214.727V28.44H215.087V28.8H215.447V29.16H215.807V29.52H216.167V29.88H216.527V34.2ZM215.447 33.84V30.24H215.087V29.88H214.727V29.52H214.367V29.16H212.927V34.92H214.367V34.56H214.727V34.2H215.087V33.84H215.447ZM226.612 31.68H226.252V32.04H225.892V32.4H225.532V32.76H223.012V36H221.932V28.08H225.532V28.44H225.892V28.8H226.252V29.16H226.612V31.68ZM225.532 31.32V29.52H225.172V29.16H223.012V31.68H225.172V31.32H225.532ZM231.654 36H230.574V34.56H230.214V33.84H229.854V33.12H229.494V32.4H228.054V36H226.974V28.08H230.574V28.44H230.934V28.8H231.294V29.16H231.654V31.32H231.294V31.68H230.934V32.04H230.574V32.76H230.934V33.48H231.294V34.2H231.654V36ZM230.574 30.96V29.52H230.214V29.16H228.054V31.32H230.214V30.96H230.574ZM236.696 36H232.016V34.92H233.816V29.16H233.096V28.08H235.616V29.16H234.896V34.92H236.696V36ZM241.739 34.56H241.379V34.92H241.019V35.28H240.659V35.64H240.299V36H238.499V35.64H238.139V35.28H237.779V34.92H237.419V34.56H237.059V29.52H237.419V29.16H237.779V28.8H238.139V28.44H238.499V28.08H240.299V28.44H240.659V28.8H241.019V29.16H241.379V29.52H241.739V34.56ZM240.659 34.2V29.88H240.299V29.52H239.939V29.16H238.859V29.52H238.499V29.88H238.139V34.2H238.499V34.56H238.859V34.92H239.939V34.56H240.299V34.2H240.659ZM246.781 36H245.701V34.56H245.341V33.84H244.981V33.12H244.621V32.4H243.181V36H242.101V28.08H245.701V28.44H246.061V28.8H246.421V29.16H246.781V31.32H246.421V31.68H246.061V32.04H245.701V32.76H246.061V33.48H246.421V34.2H246.781V36ZM245.701 30.96V29.52H245.341V29.16H243.181V31.32H245.341V30.96H245.701ZM251.823 36H247.143V34.92H248.943V29.16H248.223V28.08H250.743V29.16H250.023V34.92H251.823V36ZM256.866 29.16H255.066V36H253.986V29.16H252.186V28.08H256.866V29.16ZM261.908 36H257.228V34.92H259.028V29.16H258.308V28.08H260.828V29.16H260.108V34.92H261.908V36ZM266.95 36H262.27V28.08H266.95V29.16H263.35V31.32H266.23V32.4H263.35V34.92H266.95V36ZM271.993 34.92H271.633V35.28H271.273V35.64H270.913V36H268.393V35.64H268.033V35.28H267.673V34.92H267.313V33.84H268.393V34.56H268.753V34.92H270.553V34.56H270.913V32.76H270.553V32.4H268.393V32.04H268.033V31.68H267.673V31.32H267.313V29.16H267.673V28.8H268.033V28.44H268.393V28.08H270.913V28.44H271.273V28.8H271.633V29.16H271.993V30.24H270.913V29.52H270.553V29.16H268.753V29.52H268.393V30.96H268.753V31.32H270.913V31.68H271.273V32.04H271.633V32.4H271.993V34.92Z" fill="#D9D9D9"/>
<path d="M115.68 20H111V18.92H112.8V13.16H112.08V12.08H114.6V13.16H113.88V18.92H115.68V20ZM120.722 18.2H120.362V18.56H120.002V18.92H119.642V19.28H119.282V19.64H118.91V20H116.042V12.08H118.922V12.44H119.282V12.8H119.642V13.16H120.002V13.52H120.362V13.88H120.722V18.2ZM119.642 17.84V14.24H119.282V13.88H118.922V13.52H118.562V13.16H117.122V18.92H118.562V18.56H118.922V18.2H119.282V17.84H119.642ZM123.965 20H122.525V18.56H123.965V20ZM130.807 20H126.127V17.12H126.487V16.76H126.847V16.4H127.207V16.04H127.567V15.68H129.007V15.32H129.367V14.96H129.727V13.52H129.367V13.16H127.567V13.52H127.207V14.24H126.127V13.16H126.487V12.8H126.847V12.44H127.207V12.08H129.727V12.44H130.087V12.8H130.447V13.16H130.807V15.32H130.447V15.68H130.087V16.04H129.727V16.4H129.367V16.76H127.927V17.12H127.567V17.48H127.207V18.92H130.807V20ZM134.049 20H132.609V18.56H134.049V20ZM140.892 18.56H140.532V18.92H140.172V19.28H139.812V19.64H139.452V20H137.652V19.64H137.292V19.28H136.932V18.92H136.572V18.56H136.212V13.52H136.572V13.16H136.932V12.8H137.292V12.44H137.652V12.08H139.452V12.44H139.812V12.8H140.172V13.16H140.532V13.52H140.892V18.56ZM139.452 13.88V13.52V13.16H137.652V13.52H137.292V17.48H137.652V16.76H138.012V16.04H138.372V15.32H138.732V14.6H139.092V13.88H139.452ZM139.812 18.56V14.96H139.452V15.68H139.092V16.4H138.732V17.12H138.372V17.84H138.012V18.56H137.652V18.92H139.452V18.56H139.812ZM145.934 18.56H145.574V18.92H145.214V19.28H144.854V19.64H144.494V20H142.694V19.64H142.334V19.28H141.974V18.92H141.614V18.56H141.254V13.52H141.614V13.16H141.974V12.8H142.334V12.44H142.694V12.08H144.494V12.44H144.854V12.8H145.214V13.16H145.574V13.52H145.934V18.56ZM144.494 13.88V13.52V13.16H142.694V13.52H142.334V17.48H142.694V16.76H143.054V16.04H143.414V15.32H143.774V14.6H144.134V13.88H144.494ZM144.854 18.56V14.96H144.494V15.68H144.134V16.4H143.774V17.12H143.414V17.84H143.054V18.56H142.694V18.92H144.494V18.56H144.854ZM150.976 20H146.296V18.92H148.096V13.16H147.016V12.08H149.176V18.92H150.976V20Z" fill="#4B4B4B"/>
<rect x="99" width="6" height="6" fill="#4B4B4B"/>
<path d="M261 20H257V16H261V20ZM269 16H273V20H265V16H261V12H269V16Z" fill="#4B4B4B"/>
<rect x="279" width="6" height="6" fill="#4B4B4B"/>
<rect x="99" y="42" width="6" height="6" fill="#4B4B4B"/>
<rect x="279" y="42" width="6" height="6" fill="#4B4B4B"/>
</g>
<rect x="99.5" y="0.5" width="185" height="47" stroke="#4B4B4B"/>
<g clip-path="url(#clip1_3101_7166)">
<path d="M69.68 149.68H69.32V150.04H68.96V150.4H68.6V150.76H66.08V154H65V146.08H68.6V146.44H68.96V146.8H69.32V147.16H69.68V149.68ZM68.6 149.32V147.52H68.24V147.16H66.08V149.68H68.24V149.32H68.6ZM74.7223 154H70.0423V152.92H71.8423V147.16H71.1223V146.08H73.6423V147.16H72.9223V152.92H74.7223V154ZM79.7647 152.92H79.4047V153.28H79.0447V153.64H78.6847V154H76.5247V153.64H76.1647V153.28H75.8047V152.92H75.4447V152.56H75.0847V147.52H75.4447V147.16H75.8047V146.8H76.1647V146.44H76.5247V146.08H78.6847V146.44H79.0447V146.8H79.4047V147.16H79.7647V148.24H78.6847V147.52H78.3247V147.16H76.8847V147.52H76.5247V147.88H76.1647V152.2H76.5247V152.56H76.8847V152.92H78.3247V152.56H78.6847V151.84H79.7647V152.92ZM84.807 154H83.727V153.28H83.367V152.56H83.007V151.84H82.647V151.12H82.287V150.4H81.567V150.76H81.207V154H80.127V146.08H81.207V149.32H81.567V148.96H81.927V148.6H82.287V148.24H82.647V147.88H83.007V147.52H83.367V147.148H83.727V146.8H84.087V146.44H84.447V146.08H84.807V147.52H84.447V147.88H84.087V148.24H83.727V148.588H83.367V148.96H83.007V149.32H82.647V149.68H83.007V150.04H83.367V150.76H83.727V151.48H84.087V152.2H84.447V152.92H84.807V154ZM89.8494 154H85.1694V152.92H86.9694V147.16H86.2494V146.08H88.7694V147.16H88.0494V152.92H89.8494V154ZM94.8917 154H93.8117V153.64H93.4517V152.92H93.0917V152.2H92.7317V151.48H92.3717V150.76H92.0117V150.04H91.6517V149.32H91.2917V154H90.2117V146.08H90.9317V146.8H91.2917V147.52H91.6517V148.24H92.0117V148.96H92.3717V149.68H92.7317V150.4H93.0917V151.12H93.4517V151.84H93.8117V146.08H94.8917V154ZM99.9341 153.28H99.5741V153.64H99.2141V154H96.6941V153.64H96.3341V153.28H95.9741V152.92H95.6141V152.56H95.2541V147.52H95.6141V147.16H95.9741V146.8H96.3341V146.44H96.6941V146.08H99.2141V146.44H99.5741V146.8H99.9341V147.52H98.8541V147.16H97.0541V147.52H96.6941V147.88H96.3341V152.2H96.6941V152.56H97.0541V152.92H98.8541V150.76H98.4941V151.12H97.4141V149.68H99.9341V153.28ZM110.019 147.16H108.219V154H107.139V147.16H105.339V146.08H110.019V147.16ZM115.061 154H113.981V150.4H111.461V154H110.381V146.08H111.461V149.32H113.981V146.08H115.061V154ZM120.103 154H115.423V146.08H120.103V147.16H116.503V149.32H119.383V150.4H116.503V152.92H120.103V154ZM130.188 154H129.108V152.56H128.748V151.84H128.388V151.12H128.028V150.4H126.588V154H125.508V146.08H129.108V146.44H129.468V146.8H129.828V147.16H130.188V149.32H129.828V149.68H129.468V150.04H129.108V150.76H129.468V151.48H129.828V152.2H130.188V154ZM129.108 148.96V147.52H128.748V147.16H126.588V149.32H128.748V148.96H129.108ZM135.23 154H130.55V152.92H132.35V147.16H131.63V146.08H134.15V147.16H133.43V152.92H135.23V154ZM140.273 153.28H139.913V153.64H139.553V154H137.033V153.64H136.673V153.28H136.313V152.92H135.953V152.56H135.593V147.52H135.953V147.16H136.313V146.8H136.673V146.44H137.033V146.08H139.553V146.44H139.913V146.8H140.273V147.52H139.193V147.16H137.393V147.52H137.033V147.88H136.673V152.2H137.033V152.56H137.393V152.92H139.193V150.76H138.833V151.12H137.753V149.68H140.273V153.28ZM145.315 154H144.235V150.4H141.715V154H140.635V146.08H141.715V149.32H144.235V146.08H145.315V154ZM150.357 147.16H148.557V154H147.477V147.16H145.677V146.08H150.357V147.16ZM160.442 147.16H158.642V154H157.562V147.16H155.762V146.08H160.442V147.16ZM165.485 152.56H165.125V152.92H164.765V153.28H164.405V153.64H164.045V154H162.245V153.64H161.885V153.28H161.525V152.92H161.165V152.56H160.805V147.52H161.165V147.16H161.525V146.8H161.885V146.44H162.245V146.08H164.045V146.44H164.405V146.8H164.765V147.16H165.125V147.52H165.485V152.56ZM164.405 152.2V147.88H164.045V147.52H163.685V147.16H162.605V147.52H162.245V147.88H161.885V152.2H162.245V152.56H162.605V152.92H163.685V152.56H164.045V152.2H164.405ZM170.527 152.56H170.167V152.92H169.807V153.28H169.447V153.64H169.087V154H167.287V153.64H166.927V153.28H166.567V152.92H166.207V152.56H165.847V147.52H166.207V147.16H166.567V146.8H166.927V146.44H167.287V146.08H169.087V146.44H169.447V146.8H169.807V147.16H170.167V147.52H170.527V152.56ZM169.447 152.2V147.88H169.087V147.52H168.727V147.16H167.647V147.52H167.287V147.88H166.927V152.2H167.287V152.56H167.647V152.92H168.727V152.56H169.087V152.2H169.447ZM175.569 154H170.889V146.08H171.969V152.92H175.569V154ZM180.612 152.92H180.252V153.28H179.892V153.64H179.532V154H177.012V153.64H176.652V153.28H176.292V152.92H175.932V151.84H177.012V152.56H177.372V152.92H179.172V152.56H179.532V150.76H179.172V150.4H177.012V150.04H176.652V149.68H176.292V149.32H175.932V147.16H176.292V146.8H176.652V146.44H177.012V146.08H179.532V146.44H179.892V146.8H180.252V147.16H180.612V148.24H179.532V147.52H179.172V147.16H177.372V147.52H177.012V148.96H177.372V149.32H179.532V149.68H179.892V150.04H180.252V150.4H180.612V152.92ZM182.774 154.72H183.134V154H182.414V152.56H183.854V154.72H183.494V155.08H182.774V154.72ZM195.739 152.92H195.379V153.28H195.019V153.64H194.659V154H192.139V153.64H191.779V153.28H191.419V152.92H191.059V151.84H192.139V152.56H192.499V152.92H194.299V152.56H194.659V150.76H194.299V150.4H192.139V150.04H191.779V149.68H191.419V149.32H191.059V147.16H191.419V146.8H191.779V146.44H192.139V146.08H194.659V146.44H195.019V146.8H195.379V147.16H195.739V148.24H194.659V147.52H194.299V147.16H192.499V147.52H192.139V148.96H192.499V149.32H194.659V149.68H195.019V150.04H195.379V150.4H195.739V152.92ZM200.781 147.16H198.981V154H197.901V147.16H196.101V146.08H200.781V147.16ZM205.823 154H204.743V152.2H202.223V154H201.143V151.12V150.76V150.04H201.503V149.32H201.863V148.6H202.223V147.88H202.583V147.16H202.943V146.44H203.303V146.08H203.663V146.44H204.023V147.16H204.383V147.88H204.743V148.6H205.103V149.32H205.463V150.04H205.823V150.76V151.12V154ZM204.743 151.12V150.76V150.4H204.383V149.68H204.023V148.96H203.663V148.24H203.303V148.96H202.943V149.68H202.583V150.4H202.223V150.76V151.12H204.743ZM210.866 152.92H210.506V153.28H210.146V153.64H209.786V154H207.626V153.64H207.266V153.28H206.906V152.92H206.546V152.56H206.186V147.52H206.546V147.16H206.906V146.8H207.266V146.44H207.626V146.08H209.786V146.44H210.146V146.8H210.506V147.16H210.866V148.24H209.786V147.52H209.426V147.16H207.986V147.52H207.626V147.88H207.266V152.2H207.626V152.56H207.986V152.92H209.426V152.56H209.786V151.84H210.866V152.92ZM215.908 154H214.828V153.28H214.468V152.56H214.108V151.84H213.748V151.12H213.388V150.4H212.668V150.76H212.308V154H211.228V146.08H212.308V149.32H212.668V148.96H213.028V148.6H213.388V148.24H213.748V147.88H214.108V147.52H214.468V147.148H214.828V146.8H215.188V146.44H215.548V146.08H215.908V147.52H215.548V147.88H215.188V148.24H214.828V148.588H214.468V148.96H214.108V149.32H213.748V149.68H214.108V150.04H214.468V150.76H214.828V151.48H215.188V152.2H215.548V152.92H215.908V154ZM218.07 154.72H218.43V154H217.71V152.56H219.15V154.72H218.79V155.08H218.07V154.72ZM231.035 154H229.955V152.2H227.435V154H226.355V151.12V150.76V150.04H226.715V149.32H227.075V148.6H227.435V147.88H227.795V147.16H228.155V146.44H228.515V146.08H228.875V146.44H229.235V147.16H229.595V147.88H229.955V148.6H230.315V149.32H230.675V150.04H231.035V150.76V151.12V154ZM229.955 151.12V150.76V150.4H229.595V149.68H229.235V148.96H228.875V148.24H228.515V148.96H228.155V149.68H227.795V150.4H227.435V150.76V151.12H229.955ZM236.077 154H234.997V153.64H234.637V152.92H234.277V152.2H233.917V151.48H233.557V150.76H233.197V150.04H232.837V149.32H232.477V154H231.397V146.08H232.117V146.8H232.477V147.52H232.837V148.24H233.197V148.96H233.557V149.68H233.917V150.4H234.277V151.12H234.637V151.84H234.997V146.08H236.077V154ZM241.12 152.2H240.76V152.56H240.4V152.92H240.04V153.28H239.68V153.64H239.308V154H236.44V146.08H239.32V146.44H239.68V146.8H240.04V147.16H240.4V147.52H240.76V147.88H241.12V152.2ZM240.04 151.84V148.24H239.68V147.88H239.32V147.52H238.96V147.16H237.52V152.92H238.96V152.56H239.32V152.2H239.68V151.84H240.04ZM251.204 154H246.524V152.92H248.324V147.16H247.604V146.08H250.124V147.16H249.404V152.92H251.204V154ZM256.247 154H255.167V153.64H254.807V152.92H254.447V152.2H254.087V151.48H253.727V150.76H253.367V150.04H253.007V149.32H252.647V154H251.567V146.08H252.287V146.8H252.647V147.52H253.007V148.24H253.367V148.96H253.727V149.68H254.087V150.4H254.447V151.12H254.807V151.84H255.167V146.08H256.247V154ZM261.289 147.16H257.689V149.32H260.209V150.4H257.689V154H256.609V146.08H261.289V147.16ZM266.331 154H265.251V152.56H264.891V151.84H264.531V151.12H264.171V150.4H262.731V154H261.651V146.08H265.251V146.44H265.611V146.8H265.971V147.16H266.331V149.32H265.971V149.68H265.611V150.04H265.251V150.76H265.611V151.48H265.971V152.2H266.331V154ZM265.251 148.96V147.52H264.891V147.16H262.731V149.32H264.891V148.96H265.251ZM271.374 154H270.294V152.2H267.774V154H266.694V151.12V150.76V150.04H267.054V149.32H267.414V148.6H267.774V147.88H268.134V147.16H268.494V146.44H268.854V146.08H269.214V146.44H269.574V147.16H269.934V147.88H270.294V148.6H270.654V149.32H271.014V150.04H271.374V150.76V151.12V154ZM270.294 151.12V150.76V150.4H269.934V149.68H269.574V148.96H269.214V148.24H268.854V148.96H268.494V149.68H268.134V150.4H267.774V150.76V151.12H270.294Z" fill="#D9D9D9"/>
<path d="M265 138H261V134H265V138ZM273 138H269V134H265V130H273V138ZM261 134H257V130H261V134Z" fill="#4B4B4B"/>
<path d="M69.68 138H65V136.92H66.8V131.16H66.08V130.08H68.6V131.16H67.88V136.92H69.68V138ZM74.7223 136.2H74.3623V136.56H74.0023V136.92H73.6423V137.28H73.2823V137.64H72.9103V138H70.0423V130.08H72.9223V130.44H73.2823V130.8H73.6423V131.16H74.0023V131.52H74.3623V131.88H74.7223V136.2ZM73.6423 135.84V132.24H73.2823V131.88H72.9223V131.52H72.5623V131.16H71.1223V136.92H72.5623V136.56H72.9223V136.2H73.2823V135.84H73.6423ZM77.9647 138H76.5247V136.56H77.9647V138ZM84.807 138H80.127V135.12H80.487V134.76H80.847V134.4H81.207V134.04H81.567V133.68H83.007V133.32H83.367V132.96H83.727V131.52H83.367V131.16H81.567V131.52H81.207V132.24H80.127V131.16H80.487V130.8H80.847V130.44H81.207V130.08H83.727V130.44H84.087V130.8H84.447V131.16H84.807V133.32H84.447V133.68H84.087V134.04H83.727V134.4H83.367V134.76H81.927V135.12H81.567V135.48H81.207V136.92H84.807V138ZM88.0494 138H86.6094V136.56H88.0494V138ZM94.8917 136.56H94.5317V136.92H94.1717V137.28H93.8117V137.64H93.4517V138H91.6517V137.64H91.2917V137.28H90.9317V136.92H90.5717V136.56H90.2117V131.52H90.5717V131.16H90.9317V130.8H91.2917V130.44H91.6517V130.08H93.4517V130.44H93.8117V130.8H94.1717V131.16H94.5317V131.52H94.8917V136.56ZM93.4517 131.88V131.52V131.16H91.6517V131.52H91.2917V135.48H91.6517V134.76H92.0117V134.04H92.3717V133.32H92.7317V132.6H93.0917V131.88H93.4517ZM93.8117 136.56V132.96H93.4517V133.68H93.0917V134.4H92.7317V135.12H92.3717V135.84H92.0117V136.56H91.6517V136.92H93.4517V136.56H93.8117ZM99.9341 136.56H99.5741V136.92H99.2141V137.28H98.8541V137.64H98.4941V138H96.6941V137.64H96.3341V137.28H95.9741V136.92H95.6141V136.56H95.2541V131.52H95.6141V131.16H95.9741V130.8H96.3341V130.44H96.6941V130.08H98.4941V130.44H98.8541V130.8H99.2141V131.16H99.5741V131.52H99.9341V136.56ZM98.4941 131.88V131.52V131.16H96.6941V131.52H96.3341V135.48H96.6941V134.76H97.0541V134.04H97.4141V133.32H97.7741V132.6H98.1341V131.88H98.4941ZM98.8541 136.56V132.96H98.4941V133.68H98.1341V134.4H97.7741V135.12H97.4141V135.84H97.0541V136.56H96.6941V136.92H98.4941V136.56H98.8541ZM104.976 136.92H104.616V137.28H104.256V137.64H103.896V138H101.376V137.64H101.016V137.28H100.656V136.92H100.296V135.84H101.376V136.56H101.736V136.92H103.536V136.56H103.896V135.12H103.536V134.76H103.176V134.4H102.816V134.04H102.456V133.68H102.096V133.32H101.736V132.96H102.096V132.6H102.456V132.24H102.816V131.88H103.176V131.52H103.536V131.16H100.296V130.08H104.976V131.52H104.616V131.88H104.256V132.24H103.896V132.6H103.536V132.96H103.176V133.32H103.536V133.68H103.896V134.04H104.256V134.4H104.616V134.76H104.976V136.92Z" fill="#4B4B4B"/>
<rect x="53" y="118" width="6" height="6" fill="#4B4B4B"/>
<rect x="279" y="118" width="6" height="6" fill="#4B4B4B"/>
<rect x="53" y="160" width="6" height="6" fill="#4B4B4B"/>
<rect x="279" y="160" width="6" height="6" fill="#4B4B4B"/>
</g>
<rect x="53.5" y="118.5" width="231" height="47" stroke="#4B4B4B"/>
<g clip-path="url(#clip2_3101_7166)">
<path d="M32.68 86.92H32.32V87.28H31.96V87.64H31.6V88H29.08V87.64H28.72V87.28H28.36V86.92H28V85.84H29.08V86.56H29.44V86.92H31.24V86.56H31.6V84.76H31.24V84.4H29.08V84.04H28.72V83.68H28.36V83.32H28V81.16H28.36V80.8H28.72V80.44H29.08V80.08H31.6V80.44H31.96V80.8H32.32V81.16H32.68V82.24H31.6V81.52H31.24V81.16H29.44V81.52H29.08V82.96H29.44V83.32H31.6V83.68H31.96V84.04H32.32V84.4H32.68V86.92ZM37.7223 88H36.6423V87.28H36.2823V86.56H35.9223V85.84H35.5623V85.12H35.2023V84.4H34.4823V84.76H34.1223V88H33.0423V80.08H34.1223V83.32H34.4823V82.96H34.8423V82.6H35.2023V82.24H35.5623V81.88H35.9223V81.52H36.2823V81.148H36.6423V80.8H37.0023V80.44H37.3623V80.08H37.7223V81.52H37.3623V81.88H37.0023V82.24H36.6423V82.588H36.2823V82.96H35.9223V83.32H35.5623V83.68H35.9223V84.04H36.2823V84.76H36.6423V85.48H37.0023V86.2H37.3623V86.92H37.7223V88ZM42.7647 88H38.0847V80.08H42.7647V81.16H39.1647V83.32H42.0447V84.4H39.1647V86.92H42.7647V88ZM47.807 81.16H46.007V88H44.927V81.16H43.127V80.08H47.807V81.16ZM52.8494 86.92H52.4894V87.28H52.1294V87.64H51.7694V88H49.6094V87.64H49.2494V87.28H48.8894V86.92H48.5294V86.56H48.1694V81.52H48.5294V81.16H48.8894V80.8H49.2494V80.44H49.6094V80.08H51.7694V80.44H52.1294V80.8H52.4894V81.16H52.8494V82.24H51.7694V81.52H51.4094V81.16H49.9694V81.52H49.6094V81.88H49.2494V86.2H49.6094V86.56H49.9694V86.92H51.4094V86.56H51.7694V85.84H52.8494V86.92ZM57.8917 88H56.8117V84.4H54.2917V88H53.2117V80.08H54.2917V83.32H56.8117V80.08H57.8917V88ZM62.9341 88H58.2541V86.92H60.0541V81.16H59.3341V80.08H61.8541V81.16H61.1341V86.92H62.9341V88ZM67.9764 88H66.8964V87.64H66.5364V86.92H66.1764V86.2H65.8164V85.48H65.4564V84.76H65.0964V84.04H64.7364V83.32H64.3764V88H63.2964V80.08H64.0164V80.8H64.3764V81.52H64.7364V82.24H65.0964V82.96H65.4564V83.68H65.8164V84.4H66.1764V85.12H66.5364V85.84H66.8964V80.08H67.9764V88ZM73.0187 87.28H72.6587V87.64H72.2987V88H69.7787V87.64H69.4187V87.28H69.0587V86.92H68.6987V86.56H68.3387V81.52H68.6987V81.16H69.0587V80.8H69.4187V80.44H69.7787V80.08H72.2987V80.44H72.6587V80.8H73.0187V81.52H71.9387V81.16H70.1387V81.52H69.7787V81.88H69.4187V86.2H69.7787V86.56H70.1387V86.92H71.9387V84.76H71.5787V85.12H70.4987V83.68H73.0187V87.28ZM83.1034 81.16H79.5034V83.32H82.0234V84.4H79.5034V88H78.4234V80.08H83.1034V81.16ZM88.1458 88H83.4658V80.08H84.5458V86.92H88.1458V88ZM93.1881 86.56H92.8281V86.92H92.4681V87.28H92.1081V87.64H91.7481V88H89.9481V87.64H89.5881V87.28H89.2281V86.92H88.8681V86.56H88.5081V81.52H88.8681V81.16H89.2281V80.8H89.5881V80.44H89.9481V80.08H91.7481V80.44H92.1081V80.8H92.4681V81.16H92.8281V81.52H93.1881V86.56ZM92.1081 86.2V81.88H91.7481V81.52H91.3881V81.16H90.3081V81.52H89.9481V81.88H89.5881V86.2H89.9481V86.56H90.3081V86.92H91.3881V86.56H91.7481V86.2H92.1081ZM98.2305 88H97.8705V87.28H97.5105V86.56H97.1505V85.84H96.7905V85.12H96.4305V84.4H96.0705V83.68H95.7105V84.4H95.3505V85.12H94.9905V85.84H94.6305V86.56H94.2705V87.28H93.9105V88H93.5505V80.08H94.6305V84.04H94.9905V83.32H95.3505V82.6H95.7105V81.88H96.0705V82.6H96.4305V83.32H96.7905V84.04H97.1505V80.08H98.2305V88ZM103.273 86.92H102.913V87.28H102.553V87.64H102.193V88H99.6728V87.64H99.3128V87.28H98.9528V86.92H98.5928V85.84H99.6728V86.56H100.033V86.92H101.833V86.56H102.193V84.76H101.833V84.4H99.6728V84.04H99.3128V83.68H98.9528V83.32H98.5928V81.16H98.9528V80.8H99.3128V80.44H99.6728V80.08H102.193V80.44H102.553V80.8H102.913V81.16H103.273V82.24H102.193V81.52H101.833V81.16H100.033V81.52H99.6728V82.96H100.033V83.32H102.193V83.68H102.553V84.04H102.913V84.4H103.273V86.92ZM113.357 88H112.277V86.2H109.757V88H108.677V85.12V84.76V84.04H109.037V83.32H109.397V82.6H109.757V81.88H110.117V81.16H110.477V80.44H110.837V80.08H111.197V80.44H111.557V81.16H111.917V81.88H112.277V82.6H112.637V83.32H112.997V84.04H113.357V84.76V85.12V88ZM112.277 85.12V84.76V84.4H111.917V83.68H111.557V82.96H111.197V82.24H110.837V82.96H110.477V83.68H110.117V84.4H109.757V84.76V85.12H112.277ZM118.4 88H117.32V87.64H116.96V86.92H116.6V86.2H116.24V85.48H115.88V84.76H115.52V84.04H115.16V83.32H114.8V88H113.72V80.08H114.44V80.8H114.8V81.52H115.16V82.24H115.52V82.96H115.88V83.68H116.24V84.4H116.6V85.12H116.96V85.84H117.32V80.08H118.4V88ZM123.442 86.2H123.082V86.56H122.722V86.92H122.362V87.28H122.002V87.64H121.63V88H118.762V80.08H121.642V80.44H122.002V80.8H122.362V81.16H122.722V81.52H123.082V81.88H123.442V86.2ZM122.362 85.84V82.24H122.002V81.88H121.642V81.52H121.282V81.16H119.842V86.92H121.282V86.56H121.642V86.2H122.002V85.84H122.362ZM133.527 88H128.847V86.92H130.647V81.16H129.927V80.08H132.447V81.16H131.727V86.92H133.527V88ZM138.569 88H137.489V87.64H137.129V86.92H136.769V86.2H136.409V85.48H136.049V84.76H135.689V84.04H135.329V83.32H134.969V88H133.889V80.08H134.609V80.8H134.969V81.52H135.329V82.24H135.689V82.96H136.049V83.68H136.409V84.4H136.769V85.12H137.129V85.84H137.489V80.08H138.569V88ZM143.612 81.16H141.812V88H140.732V81.16H138.932V80.08H143.612V81.16ZM148.654 88H143.974V80.08H148.654V81.16H145.054V83.32H147.934V84.4H145.054V86.92H148.654V88ZM153.696 88H152.616V86.56H152.256V85.84H151.896V85.12H151.536V84.4H150.096V88H149.016V80.08H152.616V80.44H152.976V80.8H153.336V81.16H153.696V83.32H153.336V83.68H152.976V84.04H152.616V84.76H152.976V85.48H153.336V86.2H153.696V88ZM152.616 82.96V81.52H152.256V81.16H150.096V83.32H152.256V82.96H152.616ZM158.739 81.16H155.139V83.32H157.659V84.4H155.139V88H154.059V80.08H158.739V81.16ZM163.781 88H162.701V86.2H160.181V88H159.101V85.12V84.76V84.04H159.461V83.32H159.821V82.6H160.181V81.88H160.541V81.16H160.901V80.44H161.261V80.08H161.621V80.44H161.981V81.16H162.341V81.88H162.701V82.6H163.061V83.32H163.421V84.04H163.781V84.76V85.12V88ZM162.701 85.12V84.76V84.4H162.341V83.68H161.981V82.96H161.621V82.24H161.261V82.96H160.901V83.68H160.541V84.4H160.181V84.76V85.12H162.701ZM168.823 86.92H168.463V87.28H168.103V87.64H167.743V88H165.583V87.64H165.223V87.28H164.863V86.92H164.503V86.56H164.143V81.52H164.503V81.16H164.863V80.8H165.223V80.44H165.583V80.08H167.743V80.44H168.103V80.8H168.463V81.16H168.823V82.24H167.743V81.52H167.383V81.16H165.943V81.52H165.583V81.88H165.223V86.2H165.583V86.56H165.943V86.92H167.383V86.56H167.743V85.84H168.823V86.92ZM173.866 88H169.186V80.08H173.866V81.16H170.266V83.32H173.146V84.4H170.266V86.92H173.866V88ZM183.95 88H179.27V80.08H180.35V86.92H183.95V88ZM188.993 86.56H188.633V86.92H188.273V87.28H187.913V87.64H187.553V88H185.753V87.64H185.393V87.28H185.033V86.92H184.673V86.56H184.313V81.52H184.673V81.16H185.033V80.8H185.393V80.44H185.753V80.08H187.553V80.44H187.913V80.8H188.273V81.16H188.633V81.52H188.993V86.56ZM187.913 86.2V81.88H187.553V81.52H187.193V81.16H186.113V81.52H185.753V81.88H185.393V86.2H185.753V86.56H186.113V86.92H187.193V86.56H187.553V86.2H187.913ZM194.035 87.28H193.675V87.64H193.315V88H190.795V87.64H190.435V87.28H190.075V86.92H189.715V86.56H189.355V81.52H189.715V81.16H190.075V80.8H190.435V80.44H190.795V80.08H193.315V80.44H193.675V80.8H194.035V81.52H192.955V81.16H191.155V81.52H190.795V81.88H190.435V86.2H190.795V86.56H191.155V86.92H192.955V84.76H192.595V85.12H191.515V83.68H194.035V87.28ZM199.077 88H194.397V86.92H196.197V81.16H195.477V80.08H197.997V81.16H197.277V86.92H199.077V88ZM204.12 86.92H203.76V87.28H203.4V87.64H203.04V88H200.88V87.64H200.52V87.28H200.16V86.92H199.8V86.56H199.44V81.52H199.8V81.16H200.16V80.8H200.52V80.44H200.88V80.08H203.04V80.44H203.4V80.8H203.76V81.16H204.12V82.24H203.04V81.52H202.68V81.16H201.24V81.52H200.88V81.88H200.52V86.2H200.88V86.56H201.24V86.92H202.68V86.56H203.04V85.84H204.12V86.92ZM213.484 88H211.684V87.64H211.324V87.28H210.964V86.56H210.604V81.52H210.964V80.8H211.324V80.44H211.684V80.08H213.484V80.8H212.044V81.16H211.684V86.92H212.044V87.28H213.484V88ZM219.247 88H218.887V87.28H218.527V86.56H218.167V85.84H217.807V85.12H217.447V84.4H217.087V83.68H216.727V84.4H216.367V85.12H216.007V85.84H215.647V86.56H215.287V87.28H214.927V88H214.567V80.08H215.647V84.04H216.007V83.32H216.367V82.6H216.727V81.88H217.087V82.6H217.447V83.32H217.807V84.04H218.167V80.08H219.247V88ZM224.289 88H219.609V80.08H224.289V81.16H220.689V83.32H223.569V84.4H220.689V86.92H224.289V88ZM234.374 86.92H234.014V87.28H233.654V87.64H233.294V88H231.134V87.64H230.774V87.28H230.414V86.92H230.054V86.56H229.694V81.52H230.054V81.16H230.414V80.8H230.774V80.44H231.134V80.08H233.294V80.44H233.654V80.8H234.014V81.16H234.374V82.24H233.294V81.52H232.934V81.16H231.494V81.52H231.134V81.88H230.774V86.2H231.134V86.56H231.494V86.92H232.934V86.56H233.294V85.84H234.374V86.92ZM239.416 88H238.336V86.2H235.816V88H234.736V85.12V84.76V84.04H235.096V83.32H235.456V82.6H235.816V81.88H236.176V81.16H236.536V80.44H236.896V80.08H237.256V80.44H237.616V81.16H237.976V81.88H238.336V82.6H238.696V83.32H239.056V84.04H239.416V84.76V85.12V88ZM238.336 85.12V84.76V84.4H237.976V83.68H237.616V82.96H237.256V82.24H236.896V82.96H236.536V83.68H236.176V84.4H235.816V84.76V85.12H238.336ZM244.458 88H243.378V87.64H243.018V86.92H242.658V86.2H242.298V85.48H241.938V84.76H241.578V84.04H241.218V83.32H240.858V88H239.778V80.08H240.498V80.8H240.858V81.52H241.218V82.24H241.578V82.96H241.938V83.68H242.298V84.4H242.658V85.12H243.018V85.84H243.378V80.08H244.458V88ZM32.68 100.92H32.32V101.28H31.96V101.64H31.6V102H28V94.08H31.6V94.44H31.96V94.8H32.32V95.16H32.68V96.96H32.32V97.32H31.96V97.68H31.6V98.04H31.96V98.4H32.32V98.76H32.68V100.92ZM31.6 96.6V95.52H31.24V95.16H29.08V97.32H30.88V96.96H31.24V96.6H31.6ZM31.6 100.56V99.12H31.24V98.76H30.88V98.4H29.08V100.92H31.24V100.56H31.6ZM37.7223 102H36.6423V100.56H36.2823V99.84H35.9223V99.12H35.5623V98.4H34.1223V102H33.0423V94.08H36.6423V94.44H37.0023V94.8H37.3623V95.16H37.7223V97.32H37.3623V97.68H37.0023V98.04H36.6423V98.76H37.0023V99.48H37.3623V100.2H37.7223V102ZM36.6423 96.96V95.52H36.2823V95.16H34.1223V97.32H36.2823V96.96H36.6423ZM42.7647 102H38.0847V100.92H39.8847V95.16H39.1647V94.08H41.6847V95.16H40.9647V100.92H42.7647V102ZM47.807 102H46.727V101.64H46.367V100.92H46.007V100.2H45.647V99.48H45.287V98.76H44.927V98.04H44.567V97.32H44.207V102H43.127V94.08H43.847V94.8H44.207V95.52H44.567V96.24H44.927V96.96H45.287V97.68H45.647V98.4H46.007V99.12H46.367V99.84H46.727V94.08H47.807V102ZM52.8494 101.28H52.4894V101.64H52.1294V102H49.6094V101.64H49.2494V101.28H48.8894V100.92H48.5294V100.56H48.1694V95.52H48.5294V95.16H48.8894V94.8H49.2494V94.44H49.6094V94.08H52.1294V94.44H52.4894V94.8H52.8494V95.52H51.7694V95.16H49.9694V95.52H49.6094V95.88H49.2494V100.2H49.6094V100.56H49.9694V100.92H51.7694V98.76H51.4094V99.12H50.3294V97.68H52.8494V101.28ZM62.9341 102H58.2541V100.92H60.0541V95.16H59.3341V94.08H61.8541V95.16H61.1341V100.92H62.9341V102ZM67.9764 102H66.8964V101.64H66.5364V100.92H66.1764V100.2H65.8164V99.48H65.4564V98.76H65.0964V98.04H64.7364V97.32H64.3764V102H63.2964V94.08H64.0164V94.8H64.3764V95.52H64.7364V96.24H65.0964V96.96H65.4564V97.68H65.8164V98.4H66.1764V99.12H66.5364V99.84H66.8964V94.08H67.9764V102ZM78.0611 102H76.9811V100.2H74.4611V102H73.3811V99.12V98.76V98.04H73.7411V97.32H74.1011V96.6H74.4611V95.88H74.8211V95.16H75.1811V94.44H75.5411V94.08H75.9011V94.44H76.2611V95.16H76.6211V95.88H76.9811V96.6H77.3411V97.32H77.7011V98.04H78.0611V98.76V99.12V102ZM76.9811 99.12V98.76V98.4H76.6211V97.68H76.2611V96.96H75.9011V96.24H75.5411V96.96H75.1811V97.68H74.8211V98.4H74.4611V98.76V99.12H76.9811ZM88.1458 100.2H87.7858V100.56H87.4258V100.92H87.0658V101.28H86.7058V101.64H86.3338V102H83.4658V94.08H86.3458V94.44H86.7058V94.8H87.0658V95.16H87.4258V95.52H87.7858V95.88H88.1458V100.2ZM87.0658 99.84V96.24H86.7058V95.88H86.3458V95.52H85.9858V95.16H84.5458V100.92H85.9858V100.56H86.3458V100.2H86.7058V99.84H87.0658ZM93.1881 102H88.5081V94.08H93.1881V95.16H89.5881V97.32H92.4681V98.4H89.5881V100.92H93.1881V102ZM98.2305 100.92H97.8705V101.28H97.5105V101.64H97.1505V102H94.6305V101.64H94.2705V101.28H93.9105V100.92H93.5505V99.84H94.6305V100.56H94.9905V100.92H96.7905V100.56H97.1505V98.76H96.7905V98.4H94.6305V98.04H94.2705V97.68H93.9105V97.32H93.5505V95.16H93.9105V94.8H94.2705V94.44H94.6305V94.08H97.1505V94.44H97.5105V94.8H97.8705V95.16H98.2305V96.24H97.1505V95.52H96.7905V95.16H94.9905V95.52H94.6305V96.96H94.9905V97.32H97.1505V97.68H97.5105V98.04H97.8705V98.4H98.2305V100.92ZM103.273 102H98.5928V100.92H100.393V95.16H99.6728V94.08H102.193V95.16H101.473V100.92H103.273V102ZM108.315 101.28H107.955V101.64H107.595V102H105.075V101.64H104.715V101.28H104.355V100.92H103.995V100.56H103.635V95.52H103.995V95.16H104.355V94.8H104.715V94.44H105.075V94.08H107.595V94.44H107.955V94.8H108.315V95.52H107.235V95.16H105.435V95.52H105.075V95.88H104.715V100.2H105.075V100.56H105.435V100.92H107.235V98.76H106.875V99.12H105.795V97.68H108.315V101.28ZM113.357 102H112.277V101.64H111.917V100.92H111.557V100.2H111.197V99.48H110.837V98.76H110.477V98.04H110.117V97.32H109.757V102H108.677V94.08H109.397V94.8H109.757V95.52H110.117V96.24H110.477V96.96H110.837V97.68H111.197V98.4H111.557V99.12H111.917V99.84H112.277V94.08H113.357V102ZM118.4 102H113.72V94.08H118.4V95.16H114.8V97.32H117.68V98.4H114.8V100.92H118.4V102ZM123.442 102H122.362V100.56H122.002V99.84H121.642V99.12H121.282V98.4H119.842V102H118.762V94.08H122.362V94.44H122.722V94.8H123.082V95.16H123.442V97.32H123.082V97.68H122.722V98.04H122.362V98.76H122.722V99.48H123.082V100.2H123.442V102ZM122.362 96.96V95.52H122.002V95.16H119.842V97.32H122.002V96.96H122.362ZM133.527 102H128.847V100.92H130.647V95.16H129.927V94.08H132.447V95.16H131.727V100.92H133.527V102ZM138.569 95.16H134.969V97.32H137.489V98.4H134.969V102H133.889V94.08H138.569V95.16ZM148.654 102H147.574V101.64H147.214V100.92H146.854V100.2H146.494V99.48H146.134V98.76H145.774V98.04H145.414V97.32H145.054V102H143.974V94.08H144.694V94.8H145.054V95.52H145.414V96.24H145.774V96.96H146.134V97.68H146.494V98.4H146.854V99.12H147.214V99.84H147.574V94.08H148.654V102ZM153.696 102H149.016V94.08H153.696V95.16H150.096V97.32H152.976V98.4H150.096V100.92H153.696V102ZM158.739 102H154.059V94.08H158.739V95.16H155.139V97.32H158.019V98.4H155.139V100.92H158.739V102ZM163.781 100.2H163.421V100.56H163.061V100.92H162.701V101.28H162.341V101.64H161.969V102H159.101V94.08H161.981V94.44H162.341V94.8H162.701V95.16H163.061V95.52H163.421V95.88H163.781V100.2ZM162.701 99.84V96.24H162.341V95.88H161.981V95.52H161.621V95.16H160.181V100.92H161.621V100.56H161.981V100.2H162.341V99.84H162.701ZM168.823 102H164.143V94.08H168.823V95.16H165.223V97.32H168.103V98.4H165.223V100.92H168.823V102ZM173.866 100.2H173.506V100.56H173.146V100.92H172.786V101.28H172.426V101.64H172.054V102H169.186V94.08H172.066V94.44H172.426V94.8H172.786V95.16H173.146V95.52H173.506V95.88H173.866V100.2ZM172.786 99.84V96.24H172.426V95.88H172.066V95.52H171.706V95.16H170.266V100.92H171.706V100.56H172.066V100.2H172.426V99.84H172.786ZM177.828 100.56H177.468V101.28H177.108V101.64H176.748V102H174.948V101.28H176.388V100.92H176.748V95.16H176.388V94.8H174.948V94.08H176.748V94.44H177.108V94.8H177.468V95.52H177.828V100.56Z" fill="#D9D9D9"/>
<path d="M261 72H257V68H261V72ZM273 68H269V72H265V68H261V64H273V68Z" fill="#4B4B4B"/>
<path d="M32.68 72H28V70.92H29.8V65.16H29.08V64.08H31.6V65.16H30.88V70.92H32.68V72ZM37.7223 70.2H37.3623V70.56H37.0023V70.92H36.6423V71.28H36.2823V71.64H35.9103V72H33.0423V64.08H35.9223V64.44H36.2823V64.8H36.6423V65.16H37.0023V65.52H37.3623V65.88H37.7223V70.2ZM36.6423 69.84V66.24H36.2823V65.88H35.9223V65.52H35.5623V65.16H34.1223V70.92H35.5623V70.56H35.9223V70.2H36.2823V69.84H36.6423ZM40.9647 72H39.5247V70.56H40.9647V72ZM47.807 72H43.127V69.12H43.487V68.76H43.847V68.4H44.207V68.04H44.567V67.68H46.007V67.32H46.367V66.96H46.727V65.52H46.367V65.16H44.567V65.52H44.207V66.24H43.127V65.16H43.487V64.8H43.847V64.44H44.207V64.08H46.727V64.44H47.087V64.8H47.447V65.16H47.807V67.32H47.447V67.68H47.087V68.04H46.727V68.4H46.367V68.76H44.927V69.12H44.567V69.48H44.207V70.92H47.807V72ZM51.0494 72H49.6094V70.56H51.0494V72ZM57.8917 70.56H57.5317V70.92H57.1717V71.28H56.8117V71.64H56.4517V72H54.6517V71.64H54.2917V71.28H53.9317V70.92H53.5717V70.56H53.2117V65.52H53.5717V65.16H53.9317V64.8H54.2917V64.44H54.6517V64.08H56.4517V64.44H56.8117V64.8H57.1717V65.16H57.5317V65.52H57.8917V70.56ZM56.4517 65.88V65.52V65.16H54.6517V65.52H54.2917V69.48H54.6517V68.76H55.0117V68.04H55.3717V67.32H55.7317V66.6H56.0917V65.88H56.4517ZM56.8117 70.56V66.96H56.4517V67.68H56.0917V68.4H55.7317V69.12H55.3717V69.84H55.0117V70.56H54.6517V70.92H56.4517V70.56H56.8117ZM62.9341 70.56H62.5741V70.92H62.2141V71.28H61.8541V71.64H61.4941V72H59.6941V71.64H59.3341V71.28H58.9741V70.92H58.6141V70.56H58.2541V65.52H58.6141V65.16H58.9741V64.8H59.3341V64.44H59.6941V64.08H61.4941V64.44H61.8541V64.8H62.2141V65.16H62.5741V65.52H62.9341V70.56ZM61.4941 65.88V65.52V65.16H59.6941V65.52H59.3341V69.48H59.6941V68.76H60.0541V68.04H60.4141V67.32H60.7741V66.6H61.1341V65.88H61.4941ZM61.8541 70.56V66.96H61.4941V67.68H61.1341V68.4H60.7741V69.12H60.4141V69.84H60.0541V70.56H59.6941V70.92H61.4941V70.56H61.8541ZM67.9764 72H63.2964V69.12H63.6564V68.76H64.0164V68.4H64.3764V68.04H64.7364V67.68H66.1764V67.32H66.5364V66.96H66.8964V65.52H66.5364V65.16H64.7364V65.52H64.3764V66.24H63.2964V65.16H63.6564V64.8H64.0164V64.44H64.3764V64.08H66.8964V64.44H67.2564V64.8H67.6164V65.16H67.9764V67.32H67.6164V67.68H67.2564V68.04H66.8964V68.4H66.5364V68.76H65.0964V69.12H64.7364V69.48H64.3764V70.92H67.9764V72Z" fill="#4B4B4B"/>
<rect x="16" y="52" width="6" height="6" fill="#4B4B4B"/>
<rect x="279" y="52" width="6" height="6" fill="#4B4B4B"/>
<rect x="16" y="108" width="6" height="6" fill="#4B4B4B"/>
<rect x="279" y="108" width="6" height="6" fill="#4B4B4B"/>
</g>
<rect x="16.5" y="52.5" width="268" height="61" stroke="#4B4B4B"/>
<g clip-path="url(#clip3_3101_7166)">
<path d="M32.68 204.92H32.32V205.28H31.96V205.64H31.6V206H28V198.08H31.6V198.44H31.96V198.8H32.32V199.16H32.68V200.96H32.32V201.32H31.96V201.68H31.6V202.04H31.96V202.4H32.32V202.76H32.68V204.92ZM31.6 200.6V199.52H31.24V199.16H29.08V201.32H30.88V200.96H31.24V200.6H31.6ZM31.6 204.56V203.12H31.24V202.76H30.88V202.4H29.08V204.92H31.24V204.56H31.6ZM37.7223 204.92H37.3623V205.28H37.0023V205.64H36.6423V206H34.1223V205.64H33.7623V205.28H33.4023V204.92H33.0423V198.08H34.1223V204.56H34.4823V204.92H36.2823V204.56H36.6423V198.08H37.7223V204.92ZM42.7647 206H38.0847V204.92H39.8847V199.16H39.1647V198.08H41.6847V199.16H40.9647V204.92H42.7647V206ZM47.807 206H43.127V198.08H44.207V204.92H47.807V206ZM52.8494 204.2H52.4894V204.56H52.1294V204.92H51.7694V205.28H51.4094V205.64H51.0374V206H48.1694V198.08H51.0494V198.44H51.4094V198.8H51.7694V199.16H52.1294V199.52H52.4894V199.88H52.8494V204.2ZM51.7694 203.84V200.24H51.4094V199.88H51.0494V199.52H50.6894V199.16H49.2494V204.92H50.6894V204.56H51.0494V204.2H51.4094V203.84H51.7694ZM57.8917 206H53.2117V204.92H55.0117V199.16H54.2917V198.08H56.8117V199.16H56.0917V204.92H57.8917V206ZM62.9341 206H61.8541V205.64H61.4941V204.92H61.1341V204.2H60.7741V203.48H60.4141V202.76H60.0541V202.04H59.6941V201.32H59.3341V206H58.2541V198.08H58.9741V198.8H59.3341V199.52H59.6941V200.24H60.0541V200.96H60.4141V201.68H60.7741V202.4H61.1341V203.12H61.4941V203.84H61.8541V198.08H62.9341V206ZM67.9764 205.28H67.6164V205.64H67.2564V206H64.7364V205.64H64.3764V205.28H64.0164V204.92H63.6564V204.56H63.2964V199.52H63.6564V199.16H64.0164V198.8H64.3764V198.44H64.7364V198.08H67.2564V198.44H67.6164V198.8H67.9764V199.52H66.8964V199.16H65.0964V199.52H64.7364V199.88H64.3764V204.2H64.7364V204.56H65.0964V204.92H66.8964V202.76H66.5364V203.12H65.4564V201.68H67.9764V205.28ZM78.0611 199.16H74.4611V201.32H76.9811V202.4H74.4611V206H73.3811V198.08H78.0611V199.16ZM83.1034 204.56H82.7434V204.92H82.3834V205.28H82.0234V205.64H81.6634V206H79.8634V205.64H79.5034V205.28H79.1434V204.92H78.7834V204.56H78.4234V199.52H78.7834V199.16H79.1434V198.8H79.5034V198.44H79.8634V198.08H81.6634V198.44H82.0234V198.8H82.3834V199.16H82.7434V199.52H83.1034V204.56ZM82.0234 204.2V199.88H81.6634V199.52H81.3034V199.16H80.2234V199.52H79.8634V199.88H79.5034V204.2H79.8634V204.56H80.2234V204.92H81.3034V204.56H81.6634V204.2H82.0234ZM88.1458 206H87.0658V204.56H86.7058V203.84H86.3458V203.12H85.9858V202.4H84.5458V206H83.4658V198.08H87.0658V198.44H87.4258V198.8H87.7858V199.16H88.1458V201.32H87.7858V201.68H87.4258V202.04H87.0658V202.76H87.4258V203.48H87.7858V204.2H88.1458V206ZM87.0658 200.96V199.52H86.7058V199.16H84.5458V201.32H86.7058V200.96H87.0658ZM98.2305 204.92H97.8705V205.28H97.5105V205.64H97.1505V206H94.9905V205.64H94.6305V205.28H94.2705V204.92H93.9105V204.56H93.5505V199.52H93.9105V199.16H94.2705V198.8H94.6305V198.44H94.9905V198.08H97.1505V198.44H97.5105V198.8H97.8705V199.16H98.2305V200.24H97.1505V199.52H96.7905V199.16H95.3505V199.52H94.9905V199.88H94.6305V204.2H94.9905V204.56H95.3505V204.92H96.7905V204.56H97.1505V203.84H98.2305V204.92ZM103.273 206H102.193V202.4H99.6728V206H98.5928V198.08H99.6728V201.32H102.193V198.08H103.273V206ZM108.315 206H107.235V204.2H104.715V206H103.635V203.12V202.76V202.04H103.995V201.32H104.355V200.6H104.715V199.88H105.075V199.16H105.435V198.44H105.795V198.08H106.155V198.44H106.515V199.16H106.875V199.88H107.235V200.6H107.595V201.32H107.955V202.04H108.315V202.76V203.12V206ZM107.235 203.12V202.76V202.4H106.875V201.68H106.515V200.96H106.155V200.24H105.795V200.96H105.435V201.68H105.075V202.4H104.715V202.76V203.12H107.235ZM113.357 206H112.277V205.64H111.917V204.92H111.557V204.2H111.197V203.48H110.837V202.76H110.477V202.04H110.117V201.32H109.757V206H108.677V198.08H109.397V198.8H109.757V199.52H110.117V200.24H110.477V200.96H110.837V201.68H111.197V202.4H111.557V203.12H111.917V203.84H112.277V198.08H113.357V206ZM118.4 205.28H118.04V205.64H117.68V206H115.16V205.64H114.8V205.28H114.44V204.92H114.08V204.56H113.72V199.52H114.08V199.16H114.44V198.8H114.8V198.44H115.16V198.08H117.68V198.44H118.04V198.8H118.4V199.52H117.32V199.16H115.52V199.52H115.16V199.88H114.8V204.2H115.16V204.56H115.52V204.92H117.32V202.76H116.96V203.12H115.88V201.68H118.4V205.28ZM123.442 206H118.762V198.08H123.442V199.16H119.842V201.32H122.722V202.4H119.842V204.92H123.442V206ZM133.527 203.48H128.847V202.4H133.527V203.48ZM143.612 199.16H140.012V201.32H142.532V202.4H140.012V206H138.932V198.08H143.612V199.16ZM148.654 204.92H148.294V205.28H147.934V205.64H147.574V206H145.054V205.64H144.694V205.28H144.334V204.92H143.974V198.08H145.054V204.56H145.414V204.92H147.214V204.56H147.574V198.08H148.654V204.92ZM153.696 199.16H151.896V206H150.816V199.16H149.016V198.08H153.696V199.16ZM158.739 204.92H158.379V205.28H158.019V205.64H157.659V206H155.139V205.64H154.779V205.28H154.419V204.92H154.059V198.08H155.139V204.56H155.499V204.92H157.299V204.56H157.659V198.08H158.739V204.92ZM163.781 206H162.701V204.56H162.341V203.84H161.981V203.12H161.621V202.4H160.181V206H159.101V198.08H162.701V198.44H163.061V198.8H163.421V199.16H163.781V201.32H163.421V201.68H163.061V202.04H162.701V202.76H163.061V203.48H163.421V204.2H163.781V206ZM162.701 200.96V199.52H162.341V199.16H160.181V201.32H162.341V200.96H162.701ZM168.823 206H164.143V198.08H168.823V199.16H165.223V201.32H168.103V202.4H165.223V204.92H168.823V206ZM173.146 203.48H169.906V202.4H173.146V203.48ZM178.908 201.68H178.548V202.04H178.188V202.4H177.828V202.76H175.308V206H174.228V198.08H177.828V198.44H178.188V198.8H178.548V199.16H178.908V201.68ZM177.828 201.32V199.52H177.468V199.16H175.308V201.68H177.468V201.32H177.828ZM183.95 206H182.87V204.56H182.51V203.84H182.15V203.12H181.79V202.4H180.35V206H179.27V198.08H182.87V198.44H183.23V198.8H183.59V199.16H183.95V201.32H183.59V201.68H183.23V202.04H182.87V202.76H183.23V203.48H183.59V204.2H183.95V206ZM182.87 200.96V199.52H182.51V199.16H180.35V201.32H182.51V200.96H182.87ZM188.993 204.56H188.633V204.92H188.273V205.28H187.913V205.64H187.553V206H185.753V205.64H185.393V205.28H185.033V204.92H184.673V204.56H184.313V199.52H184.673V199.16H185.033V198.8H185.393V198.44H185.753V198.08H187.553V198.44H187.913V198.8H188.273V199.16H188.633V199.52H188.993V204.56ZM187.913 204.2V199.88H187.553V199.52H187.193V199.16H186.113V199.52H185.753V199.88H185.393V204.2H185.753V204.56H186.113V204.92H187.193V204.56H187.553V204.2H187.913ZM194.035 204.56H193.675V204.92H193.315V205.28H192.955V205.64H192.595V206H190.795V205.64H190.435V205.28H190.075V204.92H189.715V204.56H189.355V199.52H189.715V199.16H190.075V198.8H190.435V198.44H190.795V198.08H192.595V198.44H192.955V198.8H193.315V199.16H193.675V199.52H194.035V204.56ZM192.955 204.2V199.88H192.595V199.52H192.235V199.16H191.155V199.52H190.795V199.88H190.435V204.2H190.795V204.56H191.155V204.92H192.235V204.56H192.595V204.2H192.955ZM199.077 199.16H195.477V201.32H197.997V202.4H195.477V206H194.397V198.08H199.077V199.16ZM209.162 206H208.802V205.28H208.442V204.56H208.082V203.84H207.722V203.12H207.362V202.4H207.002V201.68H206.642V202.4H206.282V203.12H205.922V203.84H205.562V204.56H205.202V205.28H204.842V206H204.482V198.08H205.562V202.04H205.922V201.32H206.282V200.6H206.642V199.88H207.002V200.6H207.362V201.32H207.722V202.04H208.082V198.08H209.162V206ZM214.204 206H213.124V202.4H210.604V206H209.524V198.08H210.604V201.32H213.124V198.08H214.204V206ZM219.247 206H214.567V198.08H219.247V199.16H215.647V201.32H218.527V202.4H215.647V204.92H219.247V206ZM224.289 206H223.209V204.56H222.849V203.84H222.489V203.12H222.129V202.4H220.689V206H219.609V198.08H223.209V198.44H223.569V198.8H223.929V199.16H224.289V201.32H223.929V201.68H223.569V202.04H223.209V202.76H223.569V203.48H223.929V204.2H224.289V206ZM223.209 200.96V199.52H222.849V199.16H220.689V201.32H222.849V200.96H223.209ZM229.331 206H224.651V198.08H229.331V199.16H225.731V201.32H228.611V202.4H225.731V204.92H229.331V206ZM239.416 206H234.736V204.92H236.536V199.16H235.816V198.08H238.336V199.16H237.616V204.92H239.416V206ZM244.458 199.16H242.658V206H241.578V199.16H239.778V198.08H244.458V199.16ZM32.68 220H31.6V216.04H31.24V216.76H30.88V217.48H30.52V218.2H30.16V217.48H29.8V216.76H29.44V216.04H29.08V220H28V212.08H28.36V212.8H28.72V213.52H29.08V214.24H29.44V214.96H29.8V215.68H30.16V216.4H30.52V215.68H30.88V214.96H31.24V214.24H31.6V213.52H31.96V212.8H32.32V212.08H32.68V220ZM37.7223 220H36.6423V218.2H34.1223V220H33.0423V217.12V216.76V216.04H33.4023V215.32H33.7623V214.6H34.1223V213.88H34.4823V213.16H34.8423V212.44H35.2023V212.08H35.5623V212.44H35.9223V213.16H36.2823V213.88H36.6423V214.6H37.0023V215.32H37.3623V216.04H37.7223V216.76V217.12V220ZM36.6423 217.12V216.76V216.4H36.2823V215.68H35.9223V214.96H35.5623V214.24H35.2023V214.96H34.8423V215.68H34.4823V216.4H34.1223V216.76V217.12H36.6423ZM42.7647 213.16H40.9647V220H39.8847V213.16H38.0847V212.08H42.7647V213.16ZM47.807 213.16H46.007V220H44.927V213.16H43.127V212.08H47.807V213.16ZM52.8494 220H48.1694V212.08H52.8494V213.16H49.2494V215.32H52.1294V216.4H49.2494V218.92H52.8494V220ZM57.8917 220H56.8117V218.56H56.4517V217.84H56.0917V217.12H55.7317V216.4H54.2917V220H53.2117V212.08H56.8117V212.44H57.1717V212.8H57.5317V213.16H57.8917V215.32H57.5317V215.68H57.1717V216.04H56.8117V216.76H57.1717V217.48H57.5317V218.2H57.8917V220ZM56.8117 214.96V213.52H56.4517V213.16H54.2917V215.32H56.4517V214.96H56.8117ZM62.9341 218.92H62.5741V219.28H62.2141V219.64H61.8541V220H59.3341V219.64H58.9741V219.28H58.6141V218.92H58.2541V217.84H59.3341V218.56H59.6941V218.92H61.4941V218.56H61.8541V216.76H61.4941V216.4H59.3341V216.04H58.9741V215.68H58.6141V215.32H58.2541V213.16H58.6141V212.8H58.9741V212.44H59.3341V212.08H61.8541V212.44H62.2141V212.8H62.5741V213.16H62.9341V214.24H61.8541V213.52H61.4941V213.16H59.6941V213.52H59.3341V214.96H59.6941V215.32H61.8541V215.68H62.2141V216.04H62.5741V216.4H62.9341V218.92ZM65.0964 220.72H65.4564V220H64.7364V218.56H66.1764V220.72H65.8164V221.08H65.0964V220.72ZM78.0611 213.16H74.4611V215.32H76.9811V216.4H74.4611V220H73.3811V212.08H78.0611V213.16ZM83.1034 220H82.0234V218.2H79.5034V220H78.4234V217.12V216.76V216.04H78.7834V215.32H79.1434V214.6H79.5034V213.88H79.8634V213.16H80.2234V212.44H80.5834V212.08H80.9434V212.44H81.3034V213.16H81.6634V213.88H82.0234V214.6H82.3834V215.32H82.7434V216.04H83.1034V216.76V217.12V220ZM82.0234 217.12V216.76V216.4H81.6634V215.68H81.3034V214.96H80.9434V214.24H80.5834V214.96H80.2234V215.68H79.8634V216.4H79.5034V216.76V217.12H82.0234ZM88.1458 218.92H87.7858V219.28H87.4258V219.64H87.0658V220H84.5458V219.64H84.1858V219.28H83.8258V218.92H83.4658V217.84H84.5458V218.56H84.9058V218.92H86.7058V218.56H87.0658V216.76H86.7058V216.4H84.5458V216.04H84.1858V215.68H83.8258V215.32H83.4658V213.16H83.8258V212.8H84.1858V212.44H84.5458V212.08H87.0658V212.44H87.4258V212.8H87.7858V213.16H88.1458V214.24H87.0658V213.52H86.7058V213.16H84.9058V213.52H84.5458V214.96H84.9058V215.32H87.0658V215.68H87.4258V216.04H87.7858V216.4H88.1458V218.92ZM93.1881 213.16H91.3881V220H90.3081V213.16H88.5081V212.08H93.1881V213.16ZM103.273 220H102.913V219.28H102.553V218.56H102.193V217.84H101.833V217.12H101.473V216.4H101.113V215.68H100.753V216.4H100.393V217.12H100.033V217.84H99.6728V218.56H99.3128V219.28H98.9528V220H98.5928V212.08H99.6728V216.04H100.033V215.32H100.393V214.6H100.753V213.88H101.113V214.6H101.473V215.32H101.833V216.04H102.193V212.08H103.273V220ZM108.315 220H107.235V216.4H104.715V220H103.635V212.08H104.715V215.32H107.235V212.08H108.315V220ZM113.357 220H108.677V212.08H113.357V213.16H109.757V215.32H112.637V216.4H109.757V218.92H113.357V220ZM118.4 220H117.32V218.56H116.96V217.84H116.6V217.12H116.24V216.4H114.8V220H113.72V212.08H117.32V212.44H117.68V212.8H118.04V213.16H118.4V215.32H118.04V215.68H117.68V216.04H117.32V216.76H117.68V217.48H118.04V218.2H118.4V220ZM117.32 214.96V213.52H116.96V213.16H114.8V215.32H116.96V214.96H117.32ZM123.442 220H118.762V212.08H123.442V213.16H119.842V215.32H122.722V216.4H119.842V218.92H123.442V220ZM133.527 220H128.847V218.92H130.647V213.16H129.927V212.08H132.447V213.16H131.727V218.92H133.527V220ZM138.569 213.16H136.769V220H135.689V213.16H133.889V212.08H138.569V213.16ZM148.654 218.2H148.294V218.56H147.934V218.92H147.574V219.28H147.214V219.64H146.842V220H143.974V212.08H146.854V212.44H147.214V212.8H147.574V213.16H147.934V213.52H148.294V213.88H148.654V218.2ZM147.574 217.84V214.24H147.214V213.88H146.854V213.52H146.494V213.16H145.054V218.92H146.494V218.56H146.854V218.2H147.214V217.84H147.574ZM153.696 218.56H153.336V218.92H152.976V219.28H152.616V219.64H152.256V220H150.456V219.64H150.096V219.28H149.736V218.92H149.376V218.56H149.016V213.52H149.376V213.16H149.736V212.8H150.096V212.44H150.456V212.08H152.256V212.44H152.616V212.8H152.976V213.16H153.336V213.52H153.696V218.56ZM152.616 218.2V213.88H152.256V213.52H151.896V213.16H150.816V213.52H150.456V213.88H150.096V218.2H150.456V218.56H150.816V218.92H151.896V218.56H152.256V218.2H152.616ZM158.739 220H154.059V212.08H158.739V213.16H155.139V215.32H158.019V216.4H155.139V218.92H158.739V220ZM163.781 218.92H163.421V219.28H163.061V219.64H162.701V220H160.181V219.64H159.821V219.28H159.461V218.92H159.101V217.84H160.181V218.56H160.541V218.92H162.341V218.56H162.701V216.76H162.341V216.4H160.181V216.04H159.821V215.68H159.461V215.32H159.101V213.16H159.461V212.8H159.821V212.44H160.181V212.08H162.701V212.44H163.061V212.8H163.421V213.16H163.781V214.24H162.701V213.52H162.341V213.16H160.541V213.52H160.181V214.96H160.541V215.32H162.701V215.68H163.061V216.04H163.421V216.4H163.781V218.92ZM168.823 220H167.743V219.64H167.383V218.92H167.023V218.2H166.663V217.48H166.303V216.76H165.943V216.04H165.583V215.32H165.223V220H164.143V212.08H164.863V212.8H165.223V213.52H165.583V214.24H165.943V214.96H166.303V215.68H166.663V216.4H167.023V217.12H167.383V217.84H167.743V212.08H168.823V220ZM172.066 213.88H170.986V212.08H172.066V213.88ZM178.908 213.16H177.108V220H176.028V213.16H174.228V212.08H178.908V213.16Z" fill="#D9D9D9"/>
<path d="M273 190H265V186H269V182H273V190ZM265 182V186H257V182H265Z" fill="#4B4B4B"/>
<path d="M32.68 190H28V188.92H29.8V183.16H29.08V182.08H31.6V183.16H30.88V188.92H32.68V190ZM37.7223 188.2H37.3623V188.56H37.0023V188.92H36.6423V189.28H36.2823V189.64H35.9103V190H33.0423V182.08H35.9223V182.44H36.2823V182.8H36.6423V183.16H37.0023V183.52H37.3623V183.88H37.7223V188.2ZM36.6423 187.84V184.24H36.2823V183.88H35.9223V183.52H35.5623V183.16H34.1223V188.92H35.5623V188.56H35.9223V188.2H36.2823V187.84H36.6423ZM40.9647 190H39.5247V188.56H40.9647V190ZM47.807 190H43.127V187.12H43.487V186.76H43.847V186.4H44.207V186.04H44.567V185.68H46.007V185.32H46.367V184.96H46.727V183.52H46.367V183.16H44.567V183.52H44.207V184.24H43.127V183.16H43.487V182.8H43.847V182.44H44.207V182.08H46.727V182.44H47.087V182.8H47.447V183.16H47.807V185.32H47.447V185.68H47.087V186.04H46.727V186.4H46.367V186.76H44.927V187.12H44.567V187.48H44.207V188.92H47.807V190ZM51.0494 190H49.6094V188.56H51.0494V190ZM57.8917 188.56H57.5317V188.92H57.1717V189.28H56.8117V189.64H56.4517V190H54.6517V189.64H54.2917V189.28H53.9317V188.92H53.5717V188.56H53.2117V183.52H53.5717V183.16H53.9317V182.8H54.2917V182.44H54.6517V182.08H56.4517V182.44H56.8117V182.8H57.1717V183.16H57.5317V183.52H57.8917V188.56ZM56.4517 183.88V183.52V183.16H54.6517V183.52H54.2917V187.48H54.6517V186.76H55.0117V186.04H55.3717V185.32H55.7317V184.6H56.0917V183.88H56.4517ZM56.8117 188.56V184.96H56.4517V185.68H56.0917V186.4H55.7317V187.12H55.3717V187.84H55.0117V188.56H54.6517V188.92H56.4517V188.56H56.8117ZM62.9341 188.56H62.5741V188.92H62.2141V189.28H61.8541V189.64H61.4941V190H59.6941V189.64H59.3341V189.28H58.9741V188.92H58.6141V188.56H58.2541V183.52H58.6141V183.16H58.9741V182.8H59.3341V182.44H59.6941V182.08H61.4941V182.44H61.8541V182.8H62.2141V183.16H62.5741V183.52H62.9341V188.56ZM61.4941 183.88V183.52V183.16H59.6941V183.52H59.3341V187.48H59.6941V186.76H60.0541V186.04H60.4141V185.32H60.7741V184.6H61.1341V183.88H61.4941ZM61.8541 188.56V184.96H61.4941V185.68H61.1341V186.4H60.7741V187.12H60.4141V187.84H60.0541V188.56H59.6941V188.92H61.4941V188.56H61.8541ZM67.9764 188.56H67.2564V190H66.1764V188.56H63.2964V188.2V187.84H63.6564V187.12H64.0164V186.4H64.3764V185.68H64.7364V184.96H65.0964V184.24H65.4564V183.52H65.8164V182.8H66.1764V182.08H67.2564V187.48H67.9764V188.56ZM66.1764 187.48V184.6H65.8164V185.32H65.4564V186.04H65.0964V186.76H64.7364V187.48H66.1764Z" fill="#4B4B4B"/>
<rect x="16" y="170" width="6" height="6" fill="#4B4B4B"/>
<rect x="279" y="170" width="6" height="6" fill="#4B4B4B"/>
<rect x="16" y="226" width="6" height="6" fill="#4B4B4B"/>
<rect x="279" y="226" width="6" height="6" fill="#4B4B4B"/>
</g>
<rect x="16.5" y="170.5" width="268" height="61" stroke="#4B4B4B"/>
<rect x="299.5" y="0.5" width="30" height="231" rx="15" stroke="#4B4B4B" stroke-dasharray="2 2"/>
<path d="M317.4 185.284L317.4 185.584L317.7 185.584L317.7 185.884L318 185.884L318 187.984L317.7 187.984L317.7 188.284L317.4 188.284L317.4 188.584L317.1 188.584L317.1 188.884L316.8 188.884L316.8 189.184L312.6 189.184L312.6 188.884L312.3 188.884L312.3 188.584L312 188.584L312 188.284L311.7 188.284L311.7 187.984L311.4 187.984L311.4 185.884L311.7 185.884L311.7 185.584L312 185.584L312 185.284L312.6 185.284L312.6 186.184L312.3 186.184L312.3 187.684L312.6 187.684L312.6 187.984L312.9 187.984L312.9 188.284L316.5 188.284L316.5 187.984L316.8 187.984L316.8 187.684L317.1 187.684L317.1 186.184L315.3 186.184L315.3 186.484L315.6 186.484L315.6 187.384L314.4 187.384L314.4 185.284L317.4 185.284ZM318 181.082L318 184.982L311.4 184.982L311.4 181.082L312.3 181.082L312.3 184.082L314.1 184.082L314.1 181.682L315 181.682L315 184.082L317.1 184.082L317.1 181.082L318 181.082ZM316.8 176.88L316.8 177.18L317.1 177.18L317.1 177.48L317.4 177.48L317.4 177.78L317.7 177.78L317.7 178.08L318 178.08L318 179.58L317.7 179.58L317.7 179.88L317.4 179.88L317.4 180.18L317.1 180.18L317.1 180.48L316.8 180.48L316.8 180.78L312.6 180.78L312.6 180.48L312.3 180.48L312.3 180.18L312 180.18L312 179.88L311.7 179.88L311.7 179.58L311.4 179.58L311.4 178.08L311.7 178.08L311.7 177.78L312 177.78L312 177.48L312.3 177.48L312.3 177.18L312.6 177.18L312.6 176.88L316.8 176.88ZM316.5 177.78L312.9 177.78L312.9 178.08L312.6 178.08L312.6 178.38L312.3 178.38L312.3 179.28L312.6 179.28L312.6 179.58L312.9 179.58L312.9 179.88L316.5 179.88L316.5 179.58L316.8 179.58L316.8 179.28L317.1 179.28L317.1 178.38L316.8 178.38L316.8 178.08L316.5 178.08L316.5 177.78ZM318 172.678L318 173.578L314.7 173.578L314.7 173.878L315.3 173.878L315.3 174.178L315.9 174.178L315.9 174.478L316.5 174.478L316.5 174.778L315.9 174.778L315.9 175.078L315.3 175.078L315.3 175.378L314.7 175.378L314.7 175.678L318 175.678L318 176.578L311.4 176.578L311.4 176.278L312 176.278L312 175.978L312.6 175.978L312.6 175.678L313.2 175.678L313.2 175.378L313.8 175.378L313.8 175.078L314.4 175.078L314.4 174.778L315 174.778L315 174.478L314.4 174.478L314.4 174.178L313.8 174.178L313.8 173.878L313.2 173.878L313.2 173.578L312.6 173.578L312.6 173.278L312 173.278L312 172.978L311.4 172.978L311.4 172.678L318 172.678ZM319.2 168.476L319.2 172.376L318.6 172.376L318.6 168.476L319.2 168.476ZM318 164.274L318 165.174L315 165.174L315 167.274L318 167.274L318 168.174L311.4 168.174L311.4 167.274L314.1 167.274L314.1 165.174L311.4 165.174L311.4 164.274L318 164.274ZM318 160.072L318 160.972L316.5 160.972L316.5 163.072L318 163.072L318 163.972L315.6 163.972L315.3 163.972L314.7 163.972L314.7 163.672L314.1 163.672L314.1 163.372L313.5 163.372L313.5 163.072L312.9 163.072L312.9 162.772L312.3 162.772L312.3 162.472L311.7 162.472L311.7 162.172L311.4 162.172L311.4 161.872L311.7 161.872L311.7 161.572L312.3 161.572L312.3 161.272L312.9 161.272L312.9 160.972L313.5 160.972L313.5 160.672L314.1 160.672L314.1 160.372L314.7 160.372L314.7 160.072L315.3 160.072L315.6 160.072L318 160.072ZM315.6 160.972L315.3 160.972L315 160.972L315 161.272L314.4 161.272L314.4 161.572L313.8 161.572L313.8 161.872L313.2 161.872L313.2 162.172L313.8 162.172L313.8 162.472L314.4 162.472L314.4 162.772L315 162.772L315 163.072L315.3 163.072L315.6 163.072L315.6 160.972ZM317.1 155.871L317.1 156.171L317.4 156.171L317.4 156.471L317.7 156.471L317.7 156.771L318 156.771L318 158.871L317.7 158.871L317.7 159.171L317.4 159.171L317.4 159.471L317.1 159.471L317.1 159.771L316.2 159.771L316.2 158.871L316.8 158.871L316.8 158.571L317.1 158.571L317.1 157.071L316.8 157.071L316.8 156.771L315.3 156.771L315.3 157.071L315 157.071L315 158.871L314.7 158.871L314.7 159.171L314.4 159.171L314.4 159.471L314.1 159.471L314.1 159.771L312.3 159.771L312.3 159.471L312 159.471L312 159.171L311.7 159.171L311.7 158.871L311.4 158.871L311.4 156.771L311.7 156.771L311.7 156.471L312 156.471L312 156.171L312.3 156.171L312.3 155.871L313.2 155.871L313.2 156.771L312.6 156.771L312.6 157.071L312.3 157.071L312.3 158.571L312.6 158.571L312.6 158.871L313.8 158.871L313.8 158.571L314.1 158.571L314.1 156.771L314.4 156.771L314.4 156.471L314.7 156.471L314.7 156.171L315 156.171L315 155.871L317.1 155.871ZM318 151.669L318 152.569L315 152.569L315 154.669L318 154.669L318 155.569L311.4 155.569L311.4 154.669L314.1 154.669L314.1 152.569L311.4 152.569L311.4 151.669L318 151.669ZM315.6 148.967L315.6 150.167L314.4 150.167L314.4 148.967L315.6 148.967ZM318 148.967L318 150.167L316.8 150.167L316.8 148.967L318 148.967ZM317.1 139.063L317.1 139.363L317.4 139.363L317.4 139.663L317.7 139.663L317.7 139.963L318 139.963L318 142.063L317.7 142.063L317.7 142.363L317.4 142.363L317.4 142.663L317.1 142.663L317.1 142.963L315 142.963L315 142.663L314.7 142.663L314.7 142.363L314.4 142.363L314.4 142.663L314.1 142.663L314.1 142.963L312.3 142.963L312.3 142.663L312 142.663L312 142.363L311.7 142.363L311.7 142.063L311.4 142.063L311.4 139.963L311.7 139.963L311.7 139.663L312 139.663L312 139.363L312.3 139.363L312.3 139.063L314.1 139.063L314.1 139.363L314.4 139.363L314.4 139.663L314.7 139.663L314.7 139.363L315 139.363L315 139.063L317.1 139.063ZM313.8 139.963L312.6 139.963L312.6 140.263L312.3 140.263L312.3 141.763L312.6 141.763L312.6 142.063L313.8 142.063L313.8 141.763L314.1 141.763L314.1 140.263L313.8 140.263L313.8 139.963ZM316.8 139.963L315.3 139.963L315.3 140.263L315 140.263L315 141.763L315.3 141.763L315.3 142.063L316.8 142.063L316.8 141.763L317.1 141.763L317.1 140.263L316.8 140.263L316.8 139.963ZM315 134.861L315 135.161L315.6 135.161L315.6 135.461L315.9 135.461L315.9 135.761L316.2 135.761L316.2 136.061L316.5 136.061L316.5 136.361L316.8 136.361L316.8 136.661L317.1 136.661L317.1 136.961L317.4 136.961L317.4 137.261L317.7 137.261L317.7 137.561L318 137.561L318 138.461L317.4 138.461L317.4 138.161L317.1 138.161L317.1 137.861L316.8 137.861L316.8 137.561L316.5 137.561L316.5 137.261L316.2 137.261L316.2 136.961L315.9 136.961L315.9 136.661L315.6 136.661L315.6 136.361L315.3 136.361L315.3 137.861L315 137.861L315 138.161L314.7 138.161L314.7 138.461L314.4 138.461L314.4 138.761L312.3 138.761L312.3 138.461L312 138.461L312 138.161L311.7 138.161L311.7 137.861L311.4 137.861L311.4 135.761L311.7 135.761L311.7 135.461L312 135.461L312 135.161L312.3 135.161L312.3 134.861L315 134.861ZM314.1 135.761L312.6 135.761L312.6 136.061L312.3 136.061L312.3 137.561L312.6 137.561L312.6 137.861L314.1 137.861L314.1 137.561L314.4 137.561L314.4 136.061L314.1 136.061L314.1 135.761ZM316.5 130.659L316.5 130.959L316.8 130.959L316.8 131.259L317.1 131.259L317.1 131.559L317.4 131.559L317.4 131.859L317.7 131.859L317.7 132.169L318 132.169L318 134.559L311.4 134.559L311.4 132.159L311.7 132.159L311.7 131.859L312 131.859L312 131.559L312.3 131.559L312.3 131.259L312.6 131.259L312.6 130.959L312.9 130.959L312.9 130.659L316.5 130.659ZM316.2 131.559L313.2 131.559L313.2 131.859L312.9 131.859L312.9 132.159L312.6 132.159L312.6 132.459L312.3 132.459L312.3 133.659L317.1 133.659L317.1 132.459L316.8 132.459L316.8 132.159L316.5 132.159L316.5 131.859L316.2 131.859L316.2 131.559ZM318 126.457L318 130.357L315.6 130.357L315.6 130.057L315.3 130.057L315.3 129.757L315 129.757L315 129.457L314.7 129.457L314.7 129.157L314.4 129.157L314.4 127.957L314.1 127.957L314.1 127.657L313.8 127.657L313.8 127.357L312.6 127.357L312.6 127.657L312.3 127.657L312.3 129.157L312.6 129.157L312.6 129.457L313.2 129.457L313.2 130.357L312.3 130.357L312.3 130.057L312 130.057L312 129.757L311.7 129.757L311.7 129.457L311.4 129.457L311.4 127.357L311.7 127.357L311.7 127.057L312 127.057L312 126.757L312.3 126.757L312.3 126.457L314.1 126.457L314.1 126.757L314.4 126.757L314.4 127.057L314.7 127.057L314.7 127.357L315 127.357L315 127.657L315.3 127.657L315.3 128.857L315.6 128.857L315.6 129.157L315.9 129.157L315.9 129.457L317.1 129.457L317.1 126.457L318 126.457ZM312.3 122.255L312.3 125.255L314.1 125.255L314.1 123.155L315 123.155L315 125.255L318 125.255L318 126.155L311.4 126.155L311.4 122.255L312.3 122.255ZM318 118.053L318 118.953L316.5 118.953L316.5 121.053L318 121.053L318 121.953L315.6 121.953L315.3 121.953L314.7 121.953L314.7 121.653L314.1 121.653L314.1 121.353L313.5 121.353L313.5 121.053L312.9 121.053L312.9 120.753L312.3 120.753L312.3 120.453L311.7 120.453L311.7 120.153L311.4 120.153L311.4 119.853L311.7 119.853L311.7 119.553L312.3 119.553L312.3 119.253L312.9 119.253L312.9 118.953L313.5 118.953L313.5 118.653L314.1 118.653L314.1 118.353L314.7 118.353L314.7 118.053L315.3 118.053L315.6 118.053L318 118.053ZM315.6 118.953L315.3 118.953L315 118.953L315 119.253L314.4 119.253L314.4 119.553L313.8 119.553L313.8 119.853L313.2 119.853L313.2 120.153L313.8 120.153L313.8 120.453L314.4 120.453L314.4 120.753L315 120.753L315 121.053L315.3 121.053L315.6 121.053L315.6 118.953ZM317.1 92.8412L317.1 93.1412L317.4 93.1412L317.4 93.4412L317.7 93.4412L317.7 93.7412L318 93.7412L318 95.5412L317.7 95.5412L317.7 95.8412L317.4 95.8412L317.4 96.1412L317.1 96.1412L317.1 96.4412L316.8 96.4412L316.8 96.7412L312.6 96.7412L312.6 96.4412L312.3 96.4412L312.3 96.1412L312 96.1412L312 95.8412L311.7 95.8412L311.7 95.5412L311.4 95.5412L311.4 93.7412L311.7 93.7412L311.7 93.4412L312 93.4412L312 93.1412L312.3 93.1412L312.3 92.8412L313.2 92.8412L313.2 93.7412L312.6 93.7412L312.6 94.0412L312.3 94.0412L312.3 95.2412L312.6 95.2412L312.6 95.5412L312.9 95.5412L312.9 95.8412L316.5 95.8412L316.5 95.5412L316.8 95.5412L316.8 95.2412L317.1 95.2412L317.1 94.0412L316.8 94.0412L316.8 93.7412L316.2 93.7412L316.2 92.8412L317.1 92.8412ZM318 88.6393L318 89.5393L315 89.5393L315 91.6393L318 91.6393L318 92.5393L311.4 92.5393L311.4 91.6393L314.1 91.6393L314.1 89.5393L311.4 89.5393L311.4 88.6393L318 88.6393ZM318 84.4373L318 85.3373L317.4 85.3373L317.4 85.6373L316.8 85.6373L316.8 85.9373L316.2 85.9373L316.2 86.2373L315.6 86.2373L315.6 86.5373L315 86.5373L315 87.1373L315.3 87.1373L315.3 87.4373L318 87.4373L318 88.3373L311.4 88.3373L311.4 87.4373L314.1 87.4373L314.1 87.1373L313.8 87.1373L313.8 86.8373L313.5 86.8373L313.5 86.5373L313.2 86.5373L313.2 86.2373L312.9 86.2373L312.9 85.9373L312.6 85.9373L312.6 85.6373L312.29 85.6373L312.29 85.3373L312 85.3373L312 85.0373L311.7 85.0373L311.7 84.7373L311.4 84.7373L311.4 84.4373L312.6 84.4373L312.6 84.7373L312.9 84.7373L312.9 85.0373L313.2 85.0373L313.2 85.3373L313.49 85.3373L313.49 85.6373L313.8 85.6373L313.8 85.9373L314.1 85.9373L314.1 86.2373L314.4 86.2373L314.4 85.9373L314.7 85.9373L314.7 85.6373L315.3 85.6373L315.3 85.3373L315.9 85.3373L315.9 85.0373L316.5 85.0373L316.5 84.7373L317.1 84.7373L317.1 84.4373L318 84.4373ZM315.9 80.8354L315.9 83.5354L315 83.5354L315 80.8354L315.9 80.8354ZM314.4 76.0334L314.4 76.3334L315 76.3334L315 76.6334L315.6 76.6334L315.6 76.9334L316.2 76.9334L316.2 77.2334L316.8 77.2334L316.8 77.5334L317.4 77.5334L317.4 77.8334L318 77.8334L318 78.1334L317.4 78.1334L317.4 78.4334L316.8 78.4334L316.8 78.7334L316.2 78.7334L316.2 79.0334L315.6 79.0334L315.6 79.3334L315 79.3334L315 79.6334L314.4 79.6334L314.4 79.9334L311.4 79.9334L311.4 79.0334L314.1 79.0334L314.1 78.7334L314.7 78.7334L314.7 78.4334L315.3 78.4334L315.3 78.1334L315.9 78.1334L315.9 77.8334L315.3 77.8334L315.3 77.5334L314.7 77.5334L314.7 77.2334L314.1 77.2334L314.1 76.9334L311.4 76.9334L311.4 76.0334L314.4 76.0334ZM318 71.8314L318 72.7314L316.8 72.7314L316.8 73.0314L316.2 73.0314L316.2 73.3314L315.6 73.3314L315.6 73.6314L315 73.6314L315 74.8314L318 74.8314L318 75.7314L311.4 75.7314L311.4 72.7314L311.7 72.7314L311.7 72.4314L312 72.4314L312 72.1314L312.3 72.1314L312.3 71.8314L314.1 71.8314L314.1 72.1314L314.4 72.1314L314.4 72.4314L314.7 72.4314L314.7 72.7314L315.3 72.7314L315.3 72.4314L315.9 72.4314L315.9 72.1314L316.5 72.1314L316.5 71.8314L318 71.8314ZM313.8 72.7314L312.6 72.7314L312.6 73.0314L312.3 73.0314L312.3 74.8314L314.1 74.8314L314.1 73.0314L313.8 73.0314L313.8 72.7314ZM312.3 67.6295L312.3 69.1295L318 69.1295L318 70.0295L312.3 70.0295L312.3 71.5295L311.4 71.5295L311.4 67.6295L312.3 67.6295ZM317.1 63.4275L317.1 63.7275L317.4 63.7275L317.4 64.0275L317.7 64.0275L317.7 64.3275L318 64.3275L318 66.4275L317.7 66.4275L317.7 66.7275L317.4 66.7275L317.4 67.0275L317.1 67.0275L317.1 67.3275L316.2 67.3275L316.2 66.4275L316.8 66.4275L316.8 66.1275L317.1 66.1275L317.1 64.6275L316.8 64.6275L316.8 64.3275L315.3 64.3275L315.3 64.6275L315 64.6275L315 66.4275L314.7 66.4275L314.7 66.7275L314.4 66.7275L314.4 67.0275L314.1 67.0275L314.1 67.3275L312.3 67.3275L312.3 67.0275L312 67.0275L312 66.7275L311.7 66.7275L311.7 66.4275L311.4 66.4275L311.4 64.3275L311.7 64.3275L311.7 64.0275L312 64.0275L312 63.7275L312.3 63.7275L312.3 63.4275L313.2 63.4275L313.2 64.3275L312.6 64.3275L312.6 64.6275L312.3 64.6275L312.3 66.1275L312.6 66.1275L312.6 66.4275L313.8 66.4275L313.8 66.1275L314.1 66.1275L314.1 64.3275L314.4 64.3275L314.4 64.0275L314.7 64.0275L314.7 63.7275L315 63.7275L315 63.4275L317.1 63.4275ZM315.6 60.7256L315.6 61.9256L314.4 61.9256L314.4 60.7256L315.6 60.7256ZM318 60.7256L318 61.9256L316.8 61.9256L316.8 60.7256L318 60.7256ZM317.1 50.8217L317.1 51.1217L317.4 51.1217L317.4 51.4217L317.7 51.4217L317.7 51.7217L318 51.7217L318 53.8217L317.7 53.8217L317.7 54.1217L317.4 54.1217L317.4 54.4217L317.1 54.4217L317.1 54.7217L315 54.7217L315 54.4217L314.7 54.4217L314.7 54.1217L314.4 54.1217L314.4 54.4217L314.1 54.4217L314.1 54.7217L312.3 54.7217L312.3 54.4217L312 54.4217L312 54.1217L311.7 54.1217L311.7 53.8217L311.4 53.8217L311.4 51.7217L311.7 51.7217L311.7 51.4217L312 51.4217L312 51.1217L312.3 51.1217L312.3 50.8217L314.1 50.8217L314.1 51.1217L314.4 51.1217L314.4 51.4217L314.7 51.4217L314.7 51.1217L315 51.1217L315 50.8217L317.1 50.8217ZM313.8 51.7217L312.6 51.7217L312.6 52.0217L312.3 52.0217L312.3 53.5217L312.6 53.5217L312.6 53.8217L313.8 53.8217L313.8 53.5217L314.1 53.5217L314.1 52.0217L313.8 52.0217L313.8 51.7217ZM316.8 51.7217L315.3 51.7217L315.3 52.0217L315 52.0217L315 53.5217L315.3 53.5217L315.3 53.8217L316.8 53.8217L316.8 53.5217L317.1 53.5217L317.1 52.0217L316.8 52.0217L316.8 51.7217ZM316.8 46.6197L316.8 47.2197L318 47.2197L318 48.1197L316.8 48.1197L316.8 50.5197L316.5 50.5197L316.2 50.5197L316.2 50.2197L315.6 50.2197L315.6 49.9197L315 49.9197L315 49.6197L314.4 49.6197L314.4 49.3197L313.8 49.3197L313.8 49.0197L313.2 49.0197L313.2 48.7197L312.6 48.7197L312.6 48.4197L312 48.4197L312 48.1197L311.4 48.1197L311.4 47.2197L315.9 47.2197L315.9 46.6197L316.8 46.6197ZM315.9 48.1197L313.5 48.1197L313.5 48.4197L314.1 48.4197L314.1 48.7197L314.7 48.7197L314.7 49.0197L315.3 49.0197L315.3 49.3197L315.9 49.3197L315.9 48.1197ZM318 42.4178L318 46.3178L315.6 46.3178L315.6 46.0178L315.3 46.0178L315.3 45.7178L315 45.7178L315 45.4178L314.7 45.4178L314.7 45.1178L314.4 45.1178L314.4 43.9178L314.1 43.9178L314.1 43.6178L313.8 43.6178L313.8 43.3178L312.6 43.3178L312.6 43.6178L312.3 43.6178L312.3 45.1178L312.6 45.1178L312.6 45.4178L313.2 45.4178L313.2 46.3178L312.3 46.3178L312.3 46.0178L312 46.0178L312 45.7178L311.7 45.7178L311.7 45.4178L311.4 45.4178L311.4 43.3178L311.7 43.3178L311.7 43.0178L312 43.0178L312 42.7178L312.3 42.7178L312.3 42.4178L314.1 42.4178L314.1 42.7178L314.4 42.7178L314.4 43.0178L314.7 43.0178L314.7 43.3178L315 43.3178L315 43.6178L315.3 43.6178L315.3 44.8178L315.6 44.8178L315.6 45.1178L315.9 45.1178L315.9 45.4178L317.1 45.4178L317.1 42.4178L318 42.4178Z" fill="#4B4B4B"/>
<defs>
<clipPath id="clip0_3101_7166">
<rect x="99" width="186" height="48" fill="white"/>
</clipPath>
<clipPath id="clip1_3101_7166">
<rect x="53" y="118" width="232" height="48" fill="white"/>
</clipPath>
<clipPath id="clip2_3101_7166">
<rect x="16" y="52" width="269" height="62" fill="white"/>
</clipPath>
<clipPath id="clip3_3101_7166">
<rect x="16" y="170" width="269" height="62" fill="white"/>
</clipPath>
</defs>
</svg>
