<svg width="350" height="323" viewBox="0 0 350 323" fill="none" xmlns="http://www.w3.org/2000/svg">
<g clip-path="url(#clip0_3101_7236)">
<path d="M39.68 58H39.32V57.28H38.96V56.56H38.6V55.84H38.24V55.12H37.88V54.4H37.52V53.68H37.16V54.4H36.8V55.12H36.44V55.84H36.08V56.56H35.72V57.28H35.36V58H35V50.08H36.08V54.04H36.44V53.32H36.8V52.6H37.16V51.88H37.52V52.6H37.88V53.32H38.24V54.04H38.6V50.08H39.68V58ZM44.7223 58H40.0423V50.08H44.7223V51.16H41.1223V53.32H44.0023V54.4H41.1223V56.92H44.7223V58ZM49.7647 58H45.0847V50.08H49.7647V51.16H46.1647V53.32H49.0447V54.4H46.1647V56.92H49.7647V58ZM54.807 58H53.727V57.28H53.367V56.56H53.007V55.84H52.647V55.12H52.287V54.4H51.567V54.76H51.207V58H50.127V50.08H51.207V53.32H51.567V52.96H51.927V52.6H52.287V52.24H52.647V51.88H53.007V51.52H53.367V51.148H53.727V50.8H54.087V50.44H54.447V50.08H54.807V51.52H54.447V51.88H54.087V52.24H53.727V52.588H53.367V52.96H53.007V53.32H52.647V53.68H53.007V54.04H53.367V54.76H53.727V55.48H54.087V56.2H54.447V56.92H54.807V58ZM59.8494 58H55.1694V50.08H56.2494V56.92H59.8494V58ZM64.8917 51.16H64.5317V51.88H64.1717V52.6H63.8117V53.32H63.4517V54.04H63.0917V58H62.0117V54.04H61.6517V53.32H61.2917V52.6H60.9317V51.88H60.5717V51.16H60.2117V50.08H61.2917V50.8H61.6517V51.52H62.0117V52.24H62.3717V52.96H62.7317V52.24H63.0917V51.52H63.4517V50.8H63.8117V50.08H64.8917V51.16ZM74.9764 56.92H74.6164V57.28H74.2564V57.64H73.8964V58H71.7364V57.64H71.3764V57.28H71.0164V56.92H70.6564V56.56H70.2964V51.52H70.6564V51.16H71.0164V50.8H71.3764V50.44H71.7364V50.08H73.8964V50.44H74.2564V50.8H74.6164V51.16H74.9764V52.24H73.8964V51.52H73.5364V51.16H72.0964V51.52H71.7364V51.88H71.3764V56.2H71.7364V56.56H72.0964V56.92H73.5364V56.56H73.8964V55.84H74.9764V56.92ZM80.0187 58H78.9387V54.4H76.4187V58H75.3387V50.08H76.4187V53.32H78.9387V50.08H80.0187V58ZM85.0611 58H80.3811V50.08H85.0611V51.16H81.4611V53.32H84.3411V54.4H81.4611V56.92H85.0611V58ZM90.1034 56.92H89.7434V57.28H89.3834V57.64H89.0234V58H86.8634V57.64H86.5034V57.28H86.1434V56.92H85.7834V56.56H85.4234V51.52H85.7834V51.16H86.1434V50.8H86.5034V50.44H86.8634V50.08H89.0234V50.44H89.3834V50.8H89.7434V51.16H90.1034V52.24H89.0234V51.52H88.6634V51.16H87.2234V51.52H86.8634V51.88H86.5034V56.2H86.8634V56.56H87.2234V56.92H88.6634V56.56H89.0234V55.84H90.1034V56.92ZM95.1458 58H94.0658V57.28H93.7058V56.56H93.3458V55.84H92.9858V55.12H92.6258V54.4H91.9058V54.76H91.5458V58H90.4658V50.08H91.5458V53.32H91.9058V52.96H92.2658V52.6H92.6258V52.24H92.9858V51.88H93.3458V51.52H93.7058V51.148H94.0658V50.8H94.4258V50.44H94.7858V50.08H95.1458V51.52H94.7858V51.88H94.4258V52.24H94.0658V52.588H93.7058V52.96H93.3458V53.32H92.9858V53.68H93.3458V54.04H93.7058V54.76H94.0658V55.48H94.4258V56.2H94.7858V56.92H95.1458V58ZM99.4681 55.48H96.2281V54.4H99.4681V55.48ZM105.23 58H100.55V56.92H102.35V51.16H101.63V50.08H104.15V51.16H103.43V56.92H105.23V58ZM110.273 58H109.193V57.64H108.833V56.92H108.473V56.2H108.113V55.48H107.753V54.76H107.393V54.04H107.033V53.32H106.673V58H105.593V50.08H106.313V50.8H106.673V51.52H107.033V52.24H107.393V52.96H107.753V53.68H108.113V54.4H108.473V55.12H108.833V55.84H109.193V50.08H110.273V58ZM115.315 56.92H114.955V57.28H114.595V57.64H114.235V58H111.715V57.64H111.355V57.28H110.995V56.92H110.635V55.84H111.715V56.56H112.075V56.92H113.875V56.56H114.235V54.76H113.875V54.4H111.715V54.04H111.355V53.68H110.995V53.32H110.635V51.16H110.995V50.8H111.355V50.44H111.715V50.08H114.235V50.44H114.595V50.8H114.955V51.16H115.315V52.24H114.235V51.52H113.875V51.16H112.075V51.52H111.715V52.96H112.075V53.32H114.235V53.68H114.595V54.04H114.955V54.4H115.315V56.92ZM125.4 56.56H125.04V56.92H124.68V57.28H124.32V57.64H123.96V58H122.16V57.64H121.8V57.28H121.44V56.92H121.08V56.56H120.72V51.52H121.08V51.16H121.44V50.8H121.8V50.44H122.16V50.08H123.96V50.44H124.32V50.8H124.68V51.16H125.04V51.52H125.4V56.56ZM124.32 56.2V51.88H123.96V51.52H123.6V51.16H122.52V51.52H122.16V51.88H121.8V56.2H122.16V56.56H122.52V56.92H123.6V56.56H123.96V56.2H124.32ZM130.442 58H129.362V56.56H129.002V55.84H128.642V55.12H128.282V54.4H126.842V58H125.762V50.08H129.362V50.44H129.722V50.8H130.082V51.16H130.442V53.32H130.082V53.68H129.722V54.04H129.362V54.76H129.722V55.48H130.082V56.2H130.442V58ZM129.362 52.96V51.52H129.002V51.16H126.842V53.32H129.002V52.96H129.362ZM39.68 72H38.6V70.2H36.08V72H35V69.12V68.76V68.04H35.36V67.32H35.72V66.6H36.08V65.88H36.44V65.16H36.8V64.44H37.16V64.08H37.52V64.44H37.88V65.16H38.24V65.88H38.6V66.6H38.96V67.32H39.32V68.04H39.68V68.76V69.12V72ZM38.6 69.12V68.76V68.4H38.24V67.68H37.88V66.96H37.52V66.24H37.16V66.96H36.8V67.68H36.44V68.4H36.08V68.76V69.12H38.6ZM44.7223 70.92H44.3623V71.28H44.0023V71.64H43.6423V72H41.1223V71.64H40.7623V71.28H40.4023V70.92H40.0423V69.84H41.1223V70.56H41.4823V70.92H43.2823V70.56H43.6423V68.76H43.2823V68.4H41.1223V68.04H40.7623V67.68H40.4023V67.32H40.0423V65.16H40.4023V64.8H40.7623V64.44H41.1223V64.08H43.6423V64.44H44.0023V64.8H44.3623V65.16H44.7223V66.24H43.6423V65.52H43.2823V65.16H41.4823V65.52H41.1223V66.96H41.4823V67.32H43.6423V67.68H44.0023V68.04H44.3623V68.4H44.7223V70.92ZM49.7647 65.16H49.4047V65.88H49.0447V66.6H48.6847V67.32H48.3247V68.04H47.9647V72H46.8847V68.04H46.5247V67.32H46.1647V66.6H45.8047V65.88H45.4447V65.16H45.0847V64.08H46.1647V64.8H46.5247V65.52H46.8847V66.24H47.2447V66.96H47.6047V66.24H47.9647V65.52H48.3247V64.8H48.6847V64.08H49.7647V65.16ZM54.807 72H53.727V71.64H53.367V70.92H53.007V70.2H52.647V69.48H52.287V68.76H51.927V68.04H51.567V67.32H51.207V72H50.127V64.08H50.847V64.8H51.207V65.52H51.567V66.24H51.927V66.96H52.287V67.68H52.647V68.4H53.007V69.12H53.367V69.84H53.727V64.08H54.807V72ZM59.8494 70.92H59.4894V71.28H59.1294V71.64H58.7694V72H56.6094V71.64H56.2494V71.28H55.8894V70.92H55.5294V70.56H55.1694V65.52H55.5294V65.16H55.8894V64.8H56.2494V64.44H56.6094V64.08H58.7694V64.44H59.1294V64.8H59.4894V65.16H59.8494V66.24H58.7694V65.52H58.4094V65.16H56.9694V65.52H56.6094V65.88H56.2494V70.2H56.6094V70.56H56.9694V70.92H58.4094V70.56H58.7694V69.84H59.8494V70.92ZM69.9341 70.92H69.5741V71.28H69.2141V71.64H68.8541V72H66.3341V71.64H65.9741V71.28H65.6141V70.92H65.2541V64.08H66.3341V70.56H66.6941V70.92H68.4941V70.56H68.8541V64.08H69.9341V70.92ZM74.9764 67.68H74.6164V68.04H74.2564V68.4H73.8964V68.76H71.3764V72H70.2964V64.08H73.8964V64.44H74.2564V64.8H74.6164V65.16H74.9764V67.68ZM73.8964 67.32V65.52H73.5364V65.16H71.3764V67.68H73.5364V67.32H73.8964ZM80.0187 70.2H79.6587V70.56H79.2987V70.92H78.9387V71.28H78.5787V71.64H78.2067V72H75.3387V64.08H78.2187V64.44H78.5787V64.8H78.9387V65.16H79.2987V65.52H79.6587V65.88H80.0187V70.2ZM78.9387 69.84V66.24H78.5787V65.88H78.2187V65.52H77.8587V65.16H76.4187V70.92H77.8587V70.56H78.2187V70.2H78.5787V69.84H78.9387ZM85.0611 72H83.9811V70.2H81.4611V72H80.3811V69.12V68.76V68.04H80.7411V67.32H81.1011V66.6H81.4611V65.88H81.8211V65.16H82.1811V64.44H82.5411V64.08H82.9011V64.44H83.2611V65.16H83.6211V65.88H83.9811V66.6H84.3411V67.32H84.7011V68.04H85.0611V68.76V69.12V72ZM83.9811 69.12V68.76V68.4H83.6211V67.68H83.2611V66.96H82.9011V66.24H82.5411V66.96H82.1811V67.68H81.8211V68.4H81.4611V68.76V69.12H83.9811ZM90.1034 65.16H88.3034V72H87.2234V65.16H85.4234V64.08H90.1034V65.16ZM95.1458 72H90.4658V64.08H95.1458V65.16H91.5458V67.32H94.4258V68.4H91.5458V70.92H95.1458V72ZM100.188 70.92H99.8281V71.28H99.4681V71.64H99.1081V72H96.5881V71.64H96.2281V71.28H95.8681V70.92H95.5081V69.84H96.5881V70.56H96.9481V70.92H98.7481V70.56H99.1081V68.76H98.7481V68.4H96.5881V68.04H96.2281V67.68H95.8681V67.32H95.5081V65.16H95.8681V64.8H96.2281V64.44H96.5881V64.08H99.1081V64.44H99.4681V64.8H99.8281V65.16H100.188V66.24H99.1081V65.52H98.7481V65.16H96.9481V65.52H96.5881V66.96H96.9481V67.32H99.1081V67.68H99.4681V68.04H99.8281V68.4H100.188V70.92ZM109.553 72H107.753V71.64H107.393V71.28H107.033V70.56H106.673V65.52H107.033V64.8H107.393V64.44H107.753V64.08H109.553V64.8H108.113V65.16H107.753V70.92H108.113V71.28H109.553V72ZM115.315 65.16H114.955V65.88H114.595V66.6H114.235V67.32H113.875V68.04H113.515V72H112.435V68.04H112.075V67.32H111.715V66.6H111.355V65.88H110.995V65.16H110.635V64.08H111.715V64.8H112.075V65.52H112.435V66.24H112.795V66.96H113.155V66.24H113.515V65.52H113.875V64.8H114.235V64.08H115.315V65.16ZM120.357 70.56H119.997V70.92H119.637V71.28H119.277V71.64H118.917V72H117.117V71.64H116.757V71.28H116.397V70.92H116.037V70.56H115.677V65.52H116.037V65.16H116.397V64.8H116.757V64.44H117.117V64.08H118.917V64.44H119.277V64.8H119.637V65.16H119.997V65.52H120.357V70.56ZM119.277 70.2V65.88H118.917V65.52H118.557V65.16H117.477V65.52H117.117V65.88H116.757V70.2H117.117V70.56H117.477V70.92H118.557V70.56H118.917V70.2H119.277ZM125.4 70.92H125.04V71.28H124.68V71.64H124.32V72H121.8V71.64H121.44V71.28H121.08V70.92H120.72V64.08H121.8V70.56H122.16V70.92H123.96V70.56H124.32V64.08H125.4V70.92ZM130.442 72H129.362V70.56H129.002V69.84H128.642V69.12H128.282V68.4H126.842V72H125.762V64.08H129.362V64.44H129.722V64.8H130.082V65.16H130.442V67.32H130.082V67.68H129.722V68.04H129.362V68.76H129.722V69.48H130.082V70.2H130.442V72ZM129.362 66.96V65.52H129.002V65.16H126.842V67.32H129.002V66.96H129.362ZM39.68 84.92H39.32V85.28H38.96V85.64H38.6V86H36.44V85.64H36.08V85.28H35.72V84.92H35.36V84.56H35V79.52H35.36V79.16H35.72V78.8H36.08V78.44H36.44V78.08H38.6V78.44H38.96V78.8H39.32V79.16H39.68V80.24H38.6V79.52H38.24V79.16H36.8V79.52H36.44V79.88H36.08V84.2H36.44V84.56H36.8V84.92H38.24V84.56H38.6V83.84H39.68V84.92ZM44.7223 86H43.6423V84.2H41.1223V86H40.0423V83.12V82.76V82.04H40.4023V81.32H40.7623V80.6H41.1223V79.88H41.4823V79.16H41.8423V78.44H42.2023V78.08H42.5623V78.44H42.9223V79.16H43.2823V79.88H43.6423V80.6H44.0023V81.32H44.3623V82.04H44.7223V82.76V83.12V86ZM43.6423 83.12V82.76V82.4H43.2823V81.68H42.9223V80.96H42.5623V80.24H42.2023V80.96H41.8423V81.68H41.4823V82.4H41.1223V82.76V83.12H43.6423ZM49.7647 86H45.0847V78.08H46.1647V84.92H49.7647V86ZM54.807 86H50.127V78.08H51.207V84.92H54.807V86ZM58.7694 84.56H58.4094V85.28H58.0494V85.64H57.6894V86H55.8894V85.28H57.3294V84.92H57.6894V79.16H57.3294V78.8H55.8894V78.08H57.6894V78.44H58.0494V78.8H58.4094V79.52H58.7694V84.56Z" fill="#D9D9D9"/>
<path d="M39.68 25H35V23.92H36.8V18.16H36.08V17.08H38.6V18.16H37.88V23.92H39.68V25ZM44.7223 23.2H44.3623V23.56H44.0023V23.92H43.6423V24.28H43.2823V24.64H42.9103V25H40.0423V17.08H42.9223V17.44H43.2823V17.8H43.6423V18.16H44.0023V18.52H44.3623V18.88H44.7223V23.2ZM43.6423 22.84V19.24H43.2823V18.88H42.9223V18.52H42.5623V18.16H41.1223V23.92H42.5623V23.56H42.9223V23.2H43.2823V22.84H43.6423ZM47.9647 25H46.5247V23.56H47.9647V25ZM54.807 23.92H54.447V24.28H54.087V24.64H53.727V25H51.207V24.64H50.847V24.28H50.487V23.92H50.127V22.84H51.207V23.56H51.567V23.92H53.367V23.56H53.727V22.12H53.367V21.76H53.007V21.4H52.647V21.04H52.287V20.68H51.927V20.32H51.567V19.96H51.927V19.6H52.287V19.24H52.647V18.88H53.007V18.52H53.367V18.16H50.127V17.08H54.807V18.52H54.447V18.88H54.087V19.24H53.727V19.6H53.367V19.96H53.007V20.32H53.367V20.68H53.727V21.04H54.087V21.4H54.447V21.76H54.807V23.92ZM58.0494 25H56.6094V23.56H58.0494V25ZM64.8917 23.56H64.5317V23.92H64.1717V24.28H63.8117V24.64H63.4517V25H61.6517V24.64H61.2917V24.28H60.9317V23.92H60.5717V23.56H60.2117V18.52H60.5717V18.16H60.9317V17.8H61.2917V17.44H61.6517V17.08H63.4517V17.44H63.8117V17.8H64.1717V18.16H64.5317V18.52H64.8917V23.56ZM63.4517 18.88V18.52V18.16H61.6517V18.52H61.2917V22.48H61.6517V21.76H62.0117V21.04H62.3717V20.32H62.7317V19.6H63.0917V18.88H63.4517ZM63.8117 23.56V19.96H63.4517V20.68H63.0917V21.4H62.7317V22.12H62.3717V22.84H62.0117V23.56H61.6517V23.92H63.4517V23.56H63.8117ZM69.9341 23.56H69.5741V23.92H69.2141V24.28H68.8541V24.64H68.4941V25H66.6941V24.64H66.3341V24.28H65.9741V23.92H65.6141V23.56H65.2541V18.52H65.6141V18.16H65.9741V17.8H66.3341V17.44H66.6941V17.08H68.4941V17.44H68.8541V17.8H69.2141V18.16H69.5741V18.52H69.9341V23.56ZM68.4941 18.88V18.52V18.16H66.6941V18.52H66.3341V22.48H66.6941V21.76H67.0541V21.04H67.4141V20.32H67.7741V19.6H68.1341V18.88H68.4941ZM68.8541 23.56V19.96H68.4941V20.68H68.1341V21.4H67.7741V22.12H67.4141V22.84H67.0541V23.56H66.6941V23.92H68.4941V23.56H68.8541ZM74.9764 25H70.2964V23.92H72.0964V18.16H71.0164V17.08H73.1764V23.92H74.9764V25Z" fill="#4B4B4B"/>
<rect x="18" width="6" height="6" fill="#4B4B4B"/>
<path d="M142 29H138V21H146V25H142V29ZM150 29H146V25H150V29ZM150 21H146V17H150V21Z" fill="#4B4B4B"/>
<rect x="161" width="6" height="6" fill="#4B4B4B"/>
<rect x="18" y="98" width="6" height="6" fill="#4B4B4B"/>
<rect x="161" y="98" width="6" height="6" fill="#4B4B4B"/>
</g>
<rect x="18.5" y="0.5" width="148" height="103" stroke="#4B4B4B"/>
<g clip-path="url(#clip1_3101_7236)">
<path d="M39.68 185.16H36.08V187.32H38.6V188.4H36.08V192H35V184.08H39.68V185.16ZM44.7223 192H43.6423V190.2H41.1223V192H40.0423V189.12V188.76V188.04H40.4023V187.32H40.7623V186.6H41.1223V185.88H41.4823V185.16H41.8423V184.44H42.2023V184.08H42.5623V184.44H42.9223V185.16H43.2823V185.88H43.6423V186.6H44.0023V187.32H44.3623V188.04H44.7223V188.76V189.12V192ZM43.6423 189.12V188.76V188.4H43.2823V187.68H42.9223V186.96H42.5623V186.24H42.2023V186.96H41.8423V187.68H41.4823V188.4H41.1223V188.76V189.12H43.6423ZM49.7647 190.92H49.4047V191.28H49.0447V191.64H48.6847V192H46.1647V191.64H45.8047V191.28H45.4447V190.92H45.0847V189.84H46.1647V190.56H46.5247V190.92H48.3247V190.56H48.6847V188.76H48.3247V188.4H46.1647V188.04H45.8047V187.68H45.4447V187.32H45.0847V185.16H45.4447V184.8H45.8047V184.44H46.1647V184.08H48.6847V184.44H49.0447V184.8H49.4047V185.16H49.7647V186.24H48.6847V185.52H48.3247V185.16H46.5247V185.52H46.1647V186.96H46.5247V187.32H48.6847V187.68H49.0447V188.04H49.4047V188.4H49.7647V190.92ZM54.807 185.16H53.007V192H51.927V185.16H50.127V184.08H54.807V185.16ZM64.8917 185.16H61.2917V187.32H63.8117V188.4H61.2917V192H60.2117V184.08H64.8917V185.16ZM69.9341 192H65.2541V184.08H69.9341V185.16H66.3341V187.32H69.2141V188.4H66.3341V190.92H69.9341V192ZM74.9764 192H70.2964V184.08H74.9764V185.16H71.3764V187.32H74.2564V188.4H71.3764V190.92H74.9764V192ZM80.0187 190.2H79.6587V190.56H79.2987V190.92H78.9387V191.28H78.5787V191.64H78.2067V192H75.3387V184.08H78.2187V184.44H78.5787V184.8H78.9387V185.16H79.2987V185.52H79.6587V185.88H80.0187V190.2ZM78.9387 189.84V186.24H78.5787V185.88H78.2187V185.52H77.8587V185.16H76.4187V190.92H77.8587V190.56H78.2187V190.2H78.5787V189.84H78.9387ZM85.0611 190.92H84.7011V191.28H84.3411V191.64H83.9811V192H80.3811V184.08H83.9811V184.44H84.3411V184.8H84.7011V185.16H85.0611V186.96H84.7011V187.32H84.3411V187.68H83.9811V188.04H84.3411V188.4H84.7011V188.76H85.0611V190.92ZM83.9811 186.6V185.52H83.6211V185.16H81.4611V187.32H83.2611V186.96H83.6211V186.6H83.9811ZM83.9811 190.56V189.12H83.6211V188.76H83.2611V188.4H81.4611V190.92H83.6211V190.56H83.9811ZM90.1034 192H89.0234V190.2H86.5034V192H85.4234V189.12V188.76V188.04H85.7834V187.32H86.1434V186.6H86.5034V185.88H86.8634V185.16H87.2234V184.44H87.5834V184.08H87.9434V184.44H88.3034V185.16H88.6634V185.88H89.0234V186.6H89.3834V187.32H89.7434V188.04H90.1034V188.76V189.12V192ZM89.0234 189.12V188.76V188.4H88.6634V187.68H88.3034V186.96H87.9434V186.24H87.5834V186.96H87.2234V187.68H86.8634V188.4H86.5034V188.76V189.12H89.0234ZM95.1458 190.92H94.7858V191.28H94.4258V191.64H94.0658V192H91.9058V191.64H91.5458V191.28H91.1858V190.92H90.8258V190.56H90.4658V185.52H90.8258V185.16H91.1858V184.8H91.5458V184.44H91.9058V184.08H94.0658V184.44H94.4258V184.8H94.7858V185.16H95.1458V186.24H94.0658V185.52H93.7058V185.16H92.2658V185.52H91.9058V185.88H91.5458V190.2H91.9058V190.56H92.2658V190.92H93.7058V190.56H94.0658V189.84H95.1458V190.92ZM100.188 192H99.1081V191.28H98.7481V190.56H98.3881V189.84H98.0281V189.12H97.6681V188.4H96.9481V188.76H96.5881V192H95.5081V184.08H96.5881V187.32H96.9481V186.96H97.3081V186.6H97.6681V186.24H98.0281V185.88H98.3881V185.52H98.7481V185.148H99.1081V184.8H99.4681V184.44H99.8281V184.08H100.188V185.52H99.8281V185.88H99.4681V186.24H99.1081V186.588H98.7481V186.96H98.3881V187.32H98.0281V187.68H98.3881V188.04H98.7481V188.76H99.1081V189.48H99.4681V190.2H99.8281V190.92H100.188V192ZM110.273 192H105.593V184.08H106.673V190.92H110.273V192ZM115.315 190.56H114.955V190.92H114.595V191.28H114.235V191.64H113.875V192H112.075V191.64H111.715V191.28H111.355V190.92H110.995V190.56H110.635V185.52H110.995V185.16H111.355V184.8H111.715V184.44H112.075V184.08H113.875V184.44H114.235V184.8H114.595V185.16H114.955V185.52H115.315V190.56ZM114.235 190.2V185.88H113.875V185.52H113.515V185.16H112.435V185.52H112.075V185.88H111.715V190.2H112.075V190.56H112.435V190.92H113.515V190.56H113.875V190.2H114.235ZM120.357 190.56H119.997V190.92H119.637V191.28H119.277V191.64H118.917V192H117.117V191.64H116.757V191.28H116.397V190.92H116.037V190.56H115.677V185.52H116.037V185.16H116.397V184.8H116.757V184.44H117.117V184.08H118.917V184.44H119.277V184.8H119.637V185.16H119.997V185.52H120.357V190.56ZM119.277 190.2V185.88H118.917V185.52H118.557V185.16H117.477V185.52H117.117V185.88H116.757V190.2H117.117V190.56H117.477V190.92H118.557V190.56H118.917V190.2H119.277ZM125.4 187.68H125.04V188.04H124.68V188.4H124.32V188.76H121.8V192H120.72V184.08H124.32V184.44H124.68V184.8H125.04V185.16H125.4V187.68ZM124.32 187.32V185.52H123.96V185.16H121.8V187.68H123.96V187.32H124.32ZM130.442 190.92H130.082V191.28H129.722V191.64H129.362V192H126.842V191.64H126.482V191.28H126.122V190.92H125.762V189.84H126.842V190.56H127.202V190.92H129.002V190.56H129.362V188.76H129.002V188.4H126.842V188.04H126.482V187.68H126.122V187.32H125.762V185.16H126.122V184.8H126.482V184.44H126.842V184.08H129.362V184.44H129.722V184.8H130.082V185.16H130.442V186.24H129.362V185.52H129.002V185.16H127.202V185.52H126.842V186.96H127.202V187.32H129.362V187.68H129.722V188.04H130.082V188.4H130.442V190.92ZM39.68 206H39.32V205.28H38.96V204.56H38.6V203.84H38.24V203.12H37.88V202.4H37.52V201.68H37.16V202.4H36.8V203.12H36.44V203.84H36.08V204.56H35.72V205.28H35.36V206H35V198.08H36.08V202.04H36.44V201.32H36.8V200.6H37.16V199.88H37.52V200.6H37.88V201.32H38.24V202.04H38.6V198.08H39.68V206ZM44.7223 206H40.0423V204.92H41.8423V199.16H41.1223V198.08H43.6423V199.16H42.9223V204.92H44.7223V206ZM49.7647 199.16H47.9647V206H46.8847V199.16H45.0847V198.08H49.7647V199.16ZM54.807 206H53.727V202.4H51.207V206H50.127V198.08H51.207V201.32H53.727V198.08H54.807V206ZM64.8917 206H63.8117V204.56H63.4517V203.84H63.0917V203.12H62.7317V202.4H61.2917V206H60.2117V198.08H63.8117V198.44H64.1717V198.8H64.5317V199.16H64.8917V201.32H64.5317V201.68H64.1717V202.04H63.8117V202.76H64.1717V203.48H64.5317V204.2H64.8917V206ZM63.8117 200.96V199.52H63.4517V199.16H61.2917V201.32H63.4517V200.96H63.8117ZM69.9341 204.56H69.5741V204.92H69.2141V205.28H68.8541V205.64H68.4941V206H66.6941V205.64H66.3341V205.28H65.9741V204.92H65.6141V204.56H65.2541V199.52H65.6141V199.16H65.9741V198.8H66.3341V198.44H66.6941V198.08H68.4941V198.44H68.8541V198.8H69.2141V199.16H69.5741V199.52H69.9341V204.56ZM68.8541 204.2V199.88H68.4941V199.52H68.1341V199.16H67.0541V199.52H66.6941V199.88H66.3341V204.2H66.6941V204.56H67.0541V204.92H68.1341V204.56H68.4941V204.2H68.8541ZM74.9764 204.56H74.6164V204.92H74.2564V205.28H73.8964V205.64H73.5364V206H71.7364V205.64H71.3764V205.28H71.0164V204.92H70.6564V204.56H70.2964V199.52H70.6564V199.16H71.0164V198.8H71.3764V198.44H71.7364V198.08H73.5364V198.44H73.8964V198.8H74.2564V199.16H74.6164V199.52H74.9764V204.56ZM73.8964 204.2V199.88H73.5364V199.52H73.1764V199.16H72.0964V199.52H71.7364V199.88H71.3764V204.2H71.7364V204.56H72.0964V204.92H73.1764V204.56H73.5364V204.2H73.8964ZM80.0187 206H78.9387V202.04H78.5787V202.76H78.2187V203.48H77.8587V204.2H77.4987V203.48H77.1387V202.76H76.7787V202.04H76.4187V206H75.3387V198.08H75.6987V198.8H76.0587V199.52H76.4187V200.24H76.7787V200.96H77.1387V201.68H77.4987V202.4H77.8587V201.68H78.2187V200.96H78.5787V200.24H78.9387V199.52H79.2987V198.8H79.6587V198.08H80.0187V206ZM90.1034 199.16H88.3034V206H87.2234V199.16H85.4234V198.08H90.1034V199.16ZM95.1458 204.56H94.7858V204.92H94.4258V205.28H94.0658V205.64H93.7058V206H91.9058V205.64H91.5458V205.28H91.1858V204.92H90.8258V204.56H90.4658V199.52H90.8258V199.16H91.1858V198.8H91.5458V198.44H91.9058V198.08H93.7058V198.44H94.0658V198.8H94.4258V199.16H94.7858V199.52H95.1458V204.56ZM94.0658 204.2V199.88H93.7058V199.52H93.3458V199.16H92.2658V199.52H91.9058V199.88H91.5458V204.2H91.9058V204.56H92.2658V204.92H93.3458V204.56H93.7058V204.2H94.0658ZM105.23 206H104.15V204.2H101.63V206H100.55V203.12V202.76V202.04H100.91V201.32H101.27V200.6H101.63V199.88H101.99V199.16H102.35V198.44H102.71V198.08H103.07V198.44H103.43V199.16H103.79V199.88H104.15V200.6H104.51V201.32H104.87V202.04H105.23V202.76V203.12V206ZM104.15 203.12V202.76V202.4H103.79V201.68H103.43V200.96H103.07V200.24H102.71V200.96H102.35V201.68H101.99V202.4H101.63V202.76V203.12H104.15ZM110.273 204.2H109.913V204.56H109.553V204.92H109.193V205.28H108.833V205.64H108.461V206H105.593V198.08H108.473V198.44H108.833V198.8H109.193V199.16H109.553V199.52H109.913V199.88H110.273V204.2ZM109.193 203.84V200.24H108.833V199.88H108.473V199.52H108.113V199.16H106.673V204.92H108.113V204.56H108.473V204.2H108.833V203.84H109.193ZM115.315 204.56H114.955V204.92H114.595V205.28H114.235V205.64H113.875V206H111.715V205.64H111.355V205.28H110.995V204.92H110.635V203.48H111.715V204.56H112.075V204.92H113.515V204.56H113.875V204.2H114.235V199.16H112.075V198.08H115.315V204.56ZM120.357 204.92H119.997V205.28H119.637V205.64H119.277V206H116.757V205.64H116.397V205.28H116.037V204.92H115.677V198.08H116.757V204.56H117.117V204.92H118.917V204.56H119.277V198.08H120.357V204.92ZM125.4 204.92H125.04V205.28H124.68V205.64H124.32V206H121.8V205.64H121.44V205.28H121.08V204.92H120.72V203.84H121.8V204.56H122.16V204.92H123.96V204.56H124.32V202.76H123.96V202.4H121.8V202.04H121.44V201.68H121.08V201.32H120.72V199.16H121.08V198.8H121.44V198.44H121.8V198.08H124.32V198.44H124.68V198.8H125.04V199.16H125.4V200.24H124.32V199.52H123.96V199.16H122.16V199.52H121.8V200.96H122.16V201.32H124.32V201.68H124.68V202.04H125.04V202.4H125.4V204.92ZM130.442 199.16H128.642V206H127.562V199.16H125.762V198.08H130.442V199.16Z" fill="#D9D9D9"/>
<path d="M39.68 145H35V143.92H36.8V138.16H36.08V137.08H38.6V138.16H37.88V143.92H39.68V145ZM44.7223 143.2H44.3623V143.56H44.0023V143.92H43.6423V144.28H43.2823V144.64H42.9103V145H40.0423V137.08H42.9223V137.44H43.2823V137.8H43.6423V138.16H44.0023V138.52H44.3623V138.88H44.7223V143.2ZM43.6423 142.84V139.24H43.2823V138.88H42.9223V138.52H42.5623V138.16H41.1223V143.92H42.5623V143.56H42.9223V143.2H43.2823V142.84H43.6423ZM47.9647 145H46.5247V143.56H47.9647V145ZM54.807 143.92H54.447V144.28H54.087V144.64H53.727V145H51.207V144.64H50.847V144.28H50.487V143.92H50.127V142.84H51.207V143.56H51.567V143.92H53.367V143.56H53.727V142.12H53.367V141.76H53.007V141.4H52.647V141.04H52.287V140.68H51.927V140.32H51.567V139.96H51.927V139.6H52.287V139.24H52.647V138.88H53.007V138.52H53.367V138.16H50.127V137.08H54.807V138.52H54.447V138.88H54.087V139.24H53.727V139.6H53.367V139.96H53.007V140.32H53.367V140.68H53.727V141.04H54.087V141.4H54.447V141.76H54.807V143.92ZM58.0494 145H56.6094V143.56H58.0494V145ZM64.8917 143.56H64.5317V143.92H64.1717V144.28H63.8117V144.64H63.4517V145H61.6517V144.64H61.2917V144.28H60.9317V143.92H60.5717V143.56H60.2117V138.52H60.5717V138.16H60.9317V137.8H61.2917V137.44H61.6517V137.08H63.4517V137.44H63.8117V137.8H64.1717V138.16H64.5317V138.52H64.8917V143.56ZM63.4517 138.88V138.52V138.16H61.6517V138.52H61.2917V142.48H61.6517V141.76H62.0117V141.04H62.3717V140.32H62.7317V139.6H63.0917V138.88H63.4517ZM63.8117 143.56V139.96H63.4517V140.68H63.0917V141.4H62.7317V142.12H62.3717V142.84H62.0117V143.56H61.6517V143.92H63.4517V143.56H63.8117ZM69.9341 143.56H69.5741V143.92H69.2141V144.28H68.8541V144.64H68.4941V145H66.6941V144.64H66.3341V144.28H65.9741V143.92H65.6141V143.56H65.2541V138.52H65.6141V138.16H65.9741V137.8H66.3341V137.44H66.6941V137.08H68.4941V137.44H68.8541V137.8H69.2141V138.16H69.5741V138.52H69.9341V143.56ZM68.4941 138.88V138.52V138.16H66.6941V138.52H66.3341V142.48H66.6941V141.76H67.0541V141.04H67.4141V140.32H67.7741V139.6H68.1341V138.88H68.4941ZM68.8541 143.56V139.96H68.4941V140.68H68.1341V141.4H67.7741V142.12H67.4141V142.84H67.0541V143.56H66.6941V143.92H68.4941V143.56H68.8541ZM74.9764 143.92H74.6164V144.28H74.2564V144.64H73.8964V145H71.3764V144.64H71.0164V144.28H70.6564V143.92H70.2964V142.84H71.3764V143.56H71.7364V143.92H73.5364V143.56H73.8964V142.12H73.5364V141.76H73.1764V141.4H72.8164V141.04H72.4564V140.68H72.0964V140.32H71.7364V139.96H72.0964V139.6H72.4564V139.24H72.8164V138.88H73.1764V138.52H73.5364V138.16H70.2964V137.08H74.9764V138.52H74.6164V138.88H74.2564V139.24H73.8964V139.6H73.5364V139.96H73.1764V140.32H73.5364V140.68H73.8964V141.04H74.2564V141.4H74.6164V141.76H74.9764V143.92Z" fill="#4B4B4B"/>
<rect x="18" y="120" width="6" height="6" fill="#4B4B4B"/>
<path d="M150 149H146V145H150V149ZM142 141H146V145H138V137H142V141ZM150 141H146V137H150V141Z" fill="#4B4B4B"/>
<rect x="161" y="120" width="6" height="6" fill="#4B4B4B"/>
<rect x="18" y="218" width="6" height="6" fill="#4B4B4B"/>
<rect x="161" y="218" width="6" height="6" fill="#4B4B4B"/>
</g>
<rect x="18.5" y="120.5" width="148" height="103" stroke="#4B4B4B"/>
<g clip-path="url(#clip2_3101_7236)">
<path d="M204.68 58H203.6V56.56H203.24V55.84H202.88V55.12H202.52V54.4H201.08V58H200V50.08H203.6V50.44H203.96V50.8H204.32V51.16H204.68V53.32H204.32V53.68H203.96V54.04H203.6V54.76H203.96V55.48H204.32V56.2H204.68V58ZM203.6 52.96V51.52H203.24V51.16H201.08V53.32H203.24V52.96H203.6ZM209.722 58H205.042V50.08H209.722V51.16H206.122V53.32H209.002V54.4H206.122V56.92H209.722V58ZM214.765 58H213.685V56.2H211.165V58H210.085V55.12V54.76V54.04H210.445V53.32H210.805V52.6H211.165V51.88H211.525V51.16H211.885V50.44H212.245V50.08H212.605V50.44H212.965V51.16H213.325V51.88H213.685V52.6H214.045V53.32H214.405V54.04H214.765V54.76V55.12V58ZM213.685 55.12V54.76V54.4H213.325V53.68H212.965V52.96H212.605V52.24H212.245V52.96H211.885V53.68H211.525V54.4H211.165V54.76V55.12H213.685ZM219.807 58H215.127V50.08H216.207V56.92H219.807V58ZM229.892 56.92H229.532V57.28H229.172V57.64H228.812V58H226.652V57.64H226.292V57.28H225.932V56.92H225.572V56.56H225.212V51.52H225.572V51.16H225.932V50.8H226.292V50.44H226.652V50.08H228.812V50.44H229.172V50.8H229.532V51.16H229.892V52.24H228.812V51.52H228.452V51.16H227.012V51.52H226.652V51.88H226.292V56.2H226.652V56.56H227.012V56.92H228.452V56.56H228.812V55.84H229.892V56.92ZM234.934 56.56H234.574V56.92H234.214V57.28H233.854V57.64H233.494V58H231.694V57.64H231.334V57.28H230.974V56.92H230.614V56.56H230.254V51.52H230.614V51.16H230.974V50.8H231.334V50.44H231.694V50.08H233.494V50.44H233.854V50.8H234.214V51.16H234.574V51.52H234.934V56.56ZM233.854 56.2V51.88H233.494V51.52H233.134V51.16H232.054V51.52H231.694V51.88H231.334V56.2H231.694V56.56H232.054V56.92H233.134V56.56H233.494V56.2H233.854ZM239.976 56.2H239.616V56.56H239.256V56.92H238.896V57.28H238.536V57.64H238.164V58H235.296V50.08H238.176V50.44H238.536V50.8H238.896V51.16H239.256V51.52H239.616V51.88H239.976V56.2ZM238.896 55.84V52.24H238.536V51.88H238.176V51.52H237.816V51.16H236.376V56.92H237.816V56.56H238.176V56.2H238.536V55.84H238.896ZM245.019 58H240.339V50.08H245.019V51.16H241.419V53.32H244.299V54.4H241.419V56.92H245.019V58ZM255.103 58H250.423V56.92H252.223V51.16H251.503V50.08H254.023V51.16H253.303V56.92H255.103V58ZM260.146 58H259.066V57.64H258.706V56.92H258.346V56.2H257.986V55.48H257.626V54.76H257.266V54.04H256.906V53.32H256.546V58H255.466V50.08H256.186V50.8H256.546V51.52H256.906V52.24H257.266V52.96H257.626V53.68H257.986V54.4H258.346V55.12H258.706V55.84H259.066V50.08H260.146V58ZM270.23 56.92H269.87V57.28H269.51V57.64H269.15V58H266.63V57.64H266.27V57.28H265.91V56.92H265.55V55.84H266.63V56.56H266.99V56.92H268.79V56.56H269.15V54.76H268.79V54.4H266.63V54.04H266.27V53.68H265.91V53.32H265.55V51.16H265.91V50.8H266.27V50.44H266.63V50.08H269.15V50.44H269.51V50.8H269.87V51.16H270.23V52.24H269.15V51.52H268.79V51.16H266.99V51.52H266.63V52.96H266.99V53.32H269.15V53.68H269.51V54.04H269.87V54.4H270.23V56.92ZM275.273 51.16H273.473V58H272.393V51.16H270.593V50.08H275.273V51.16ZM280.315 58H279.235V56.2H276.715V58H275.635V55.12V54.76V54.04H275.995V53.32H276.355V52.6H276.715V51.88H277.075V51.16H277.435V50.44H277.795V50.08H278.155V50.44H278.515V51.16H278.875V51.88H279.235V52.6H279.595V53.32H279.955V54.04H280.315V54.76V55.12V58ZM279.235 55.12V54.76V54.4H278.875V53.68H278.515V52.96H278.155V52.24H277.795V52.96H277.435V53.68H277.075V54.4H276.715V54.76V55.12H279.235ZM285.357 57.28H284.997V57.64H284.637V58H282.117V57.64H281.757V57.28H281.397V56.92H281.037V56.56H280.677V51.52H281.037V51.16H281.397V50.8H281.757V50.44H282.117V50.08H284.637V50.44H284.997V50.8H285.357V51.52H284.277V51.16H282.477V51.52H282.117V51.88H281.757V56.2H282.117V56.56H282.477V56.92H284.277V54.76H283.917V55.12H282.837V53.68H285.357V57.28ZM290.4 58H285.72V56.92H287.52V51.16H286.8V50.08H289.32V51.16H288.6V56.92H290.4V58ZM295.442 58H294.362V57.64H294.002V56.92H293.642V56.2H293.282V55.48H292.922V54.76H292.562V54.04H292.202V53.32H291.842V58H290.762V50.08H291.482V50.8H291.842V51.52H292.202V52.24H292.562V52.96H292.922V53.68H293.282V54.4H293.642V55.12H294.002V55.84H294.362V50.08H295.442V58ZM300.485 57.28H300.125V57.64H299.765V58H297.245V57.64H296.885V57.28H296.525V56.92H296.165V56.56H295.805V51.52H296.165V51.16H296.525V50.8H296.885V50.44H297.245V50.08H299.765V50.44H300.125V50.8H300.485V51.52H299.405V51.16H297.605V51.52H297.245V51.88H296.885V56.2H297.245V56.56H297.605V56.92H299.405V54.76H299.045V55.12H297.965V53.68H300.485V57.28ZM204.68 65.16H201.08V67.32H203.6V68.4H201.08V72H200V64.08H204.68V65.16ZM209.722 72H208.642V70.2H206.122V72H205.042V69.12V68.76V68.04H205.402V67.32H205.762V66.6H206.122V65.88H206.482V65.16H206.842V64.44H207.202V64.08H207.562V64.44H207.922V65.16H208.282V65.88H208.642V66.6H209.002V67.32H209.362V68.04H209.722V68.76V69.12V72ZM208.642 69.12V68.76V68.4H208.282V67.68H207.922V66.96H207.562V66.24H207.202V66.96H206.842V67.68H206.482V68.4H206.122V68.76V69.12H208.642ZM214.765 70.92H214.405V71.28H214.045V71.64H213.685V72H211.165V71.64H210.805V71.28H210.445V70.92H210.085V69.84H211.165V70.56H211.525V70.92H213.325V70.56H213.685V68.76H213.325V68.4H211.165V68.04H210.805V67.68H210.445V67.32H210.085V65.16H210.445V64.8H210.805V64.44H211.165V64.08H213.685V64.44H214.045V64.8H214.405V65.16H214.765V66.24H213.685V65.52H213.325V65.16H211.525V65.52H211.165V66.96H211.525V67.32H213.685V67.68H214.045V68.04H214.405V68.4H214.765V70.92ZM219.807 65.16H218.007V72H216.927V65.16H215.127V64.08H219.807V65.16ZM229.892 69.48H225.212V68.4H229.892V69.48ZM239.976 72H238.896V71.64H238.536V70.92H238.176V70.2H237.816V69.48H237.456V68.76H237.096V68.04H236.736V67.32H236.376V72H235.296V64.08H236.016V64.8H236.376V65.52H236.736V66.24H237.096V66.96H237.456V67.68H237.816V68.4H238.176V69.12H238.536V69.84H238.896V64.08H239.976V72ZM245.019 70.56H244.659V70.92H244.299V71.28H243.939V71.64H243.579V72H241.779V71.64H241.419V71.28H241.059V70.92H240.699V70.56H240.339V65.52H240.699V65.16H241.059V64.8H241.419V64.44H241.779V64.08H243.579V64.44H243.939V64.8H244.299V65.16H244.659V65.52H245.019V70.56ZM243.939 70.2V65.88H243.579V65.52H243.219V65.16H242.139V65.52H241.779V65.88H241.419V70.2H241.779V70.56H242.139V70.92H243.219V70.56H243.579V70.2H243.939ZM255.103 72H250.423V64.08H251.503V70.92H255.103V72ZM260.146 70.56H259.786V70.92H259.426V71.28H259.066V71.64H258.706V72H256.906V71.64H256.546V71.28H256.186V70.92H255.826V70.56H255.466V65.52H255.826V65.16H256.186V64.8H256.546V64.44H256.906V64.08H258.706V64.44H259.066V64.8H259.426V65.16H259.786V65.52H260.146V70.56ZM259.066 70.2V65.88H258.706V65.52H258.346V65.16H257.266V65.52H256.906V65.88H256.546V70.2H256.906V70.56H257.266V70.92H258.346V70.56H258.706V70.2H259.066ZM265.188 72H264.108V71.64H263.748V70.92H263.388V70.2H263.028V69.48H262.668V68.76H262.308V68.04H261.948V67.32H261.588V72H260.508V64.08H261.228V64.8H261.588V65.52H261.948V66.24H262.308V66.96H262.668V67.68H263.028V68.4H263.388V69.12H263.748V69.84H264.108V64.08H265.188V72ZM270.23 71.28H269.87V71.64H269.51V72H266.99V71.64H266.63V71.28H266.27V70.92H265.91V70.56H265.55V65.52H265.91V65.16H266.27V64.8H266.63V64.44H266.99V64.08H269.51V64.44H269.87V64.8H270.23V65.52H269.15V65.16H267.35V65.52H266.99V65.88H266.63V70.2H266.99V70.56H267.35V70.92H269.15V68.76H268.79V69.12H267.71V67.68H270.23V71.28ZM204.68 84.92H204.32V85.28H203.96V85.64H203.6V86H201.08V85.64H200.72V85.28H200.36V84.92H200V83.84H201.08V84.56H201.44V84.92H203.24V84.56H203.6V82.76H203.24V82.4H201.08V82.04H200.72V81.68H200.36V81.32H200V79.16H200.36V78.8H200.72V78.44H201.08V78.08H203.6V78.44H203.96V78.8H204.32V79.16H204.68V80.24H203.6V79.52H203.24V79.16H201.44V79.52H201.08V80.96H201.44V81.32H203.6V81.68H203.96V82.04H204.32V82.4H204.68V84.92ZM209.722 86H205.042V84.92H206.842V79.16H206.122V78.08H208.642V79.16H207.922V84.92H209.722V86ZM214.765 86H210.085V78.08H211.165V84.92H214.765V86ZM219.807 86H215.127V78.08H219.807V79.16H216.207V81.32H219.087V82.4H216.207V84.92H219.807V86ZM224.849 86H223.769V85.64H223.409V84.92H223.049V84.2H222.689V83.48H222.329V82.76H221.969V82.04H221.609V81.32H221.249V86H220.169V78.08H220.889V78.8H221.249V79.52H221.609V80.24H221.969V80.96H222.329V81.68H222.689V82.4H223.049V83.12H223.409V83.84H223.769V78.08H224.849V86ZM229.892 84.92H229.532V85.28H229.172V85.64H228.812V86H226.652V85.64H226.292V85.28H225.932V84.92H225.572V84.56H225.212V79.52H225.572V79.16H225.932V78.8H226.292V78.44H226.652V78.08H228.812V78.44H229.172V78.8H229.532V79.16H229.892V80.24H228.812V79.52H228.452V79.16H227.012V79.52H226.652V79.88H226.292V84.2H226.652V84.56H227.012V84.92H228.452V84.56H228.812V83.84H229.892V84.92ZM234.934 86H230.254V78.08H234.934V79.16H231.334V81.32H234.214V82.4H231.334V84.92H234.934V86ZM239.976 84.92H239.616V85.28H239.256V85.64H238.896V86H236.376V85.64H236.016V85.28H235.656V84.92H235.296V83.84H236.376V84.56H236.736V84.92H238.536V84.56H238.896V82.76H238.536V82.4H236.376V82.04H236.016V81.68H235.656V81.32H235.296V79.16H235.656V78.8H236.016V78.44H236.376V78.08H238.896V78.44H239.256V78.8H239.616V79.16H239.976V80.24H238.896V79.52H238.536V79.16H236.736V79.52H236.376V80.96H236.736V81.32H238.896V81.68H239.256V82.04H239.616V82.4H239.976V84.92Z" fill="#D9D9D9"/>
<path d="M204.68 25H200V23.92H201.8V18.16H201.08V17.08H203.6V18.16H202.88V23.92H204.68V25ZM209.722 23.2H209.362V23.56H209.002V23.92H208.642V24.28H208.282V24.64H207.91V25H205.042V17.08H207.922V17.44H208.282V17.8H208.642V18.16H209.002V18.52H209.362V18.88H209.722V23.2ZM208.642 22.84V19.24H208.282V18.88H207.922V18.52H207.562V18.16H206.122V23.92H207.562V23.56H207.922V23.2H208.282V22.84H208.642ZM212.965 25H211.525V23.56H212.965V25ZM219.807 23.92H219.447V24.28H219.087V24.64H218.727V25H216.207V24.64H215.847V24.28H215.487V23.92H215.127V22.84H216.207V23.56H216.567V23.92H218.367V23.56H218.727V22.12H218.367V21.76H218.007V21.4H217.647V21.04H217.287V20.68H216.927V20.32H216.567V19.96H216.927V19.6H217.287V19.24H217.647V18.88H218.007V18.52H218.367V18.16H215.127V17.08H219.807V18.52H219.447V18.88H219.087V19.24H218.727V19.6H218.367V19.96H218.007V20.32H218.367V20.68H218.727V21.04H219.087V21.4H219.447V21.76H219.807V23.92ZM223.049 25H221.609V23.56H223.049V25ZM229.892 23.56H229.532V23.92H229.172V24.28H228.812V24.64H228.452V25H226.652V24.64H226.292V24.28H225.932V23.92H225.572V23.56H225.212V18.52H225.572V18.16H225.932V17.8H226.292V17.44H226.652V17.08H228.452V17.44H228.812V17.8H229.172V18.16H229.532V18.52H229.892V23.56ZM228.452 18.88V18.52V18.16H226.652V18.52H226.292V22.48H226.652V21.76H227.012V21.04H227.372V20.32H227.732V19.6H228.092V18.88H228.452ZM228.812 23.56V19.96H228.452V20.68H228.092V21.4H227.732V22.12H227.372V22.84H227.012V23.56H226.652V23.92H228.452V23.56H228.812ZM234.934 23.56H234.574V23.92H234.214V24.28H233.854V24.64H233.494V25H231.694V24.64H231.334V24.28H230.974V23.92H230.614V23.56H230.254V18.52H230.614V18.16H230.974V17.8H231.334V17.44H231.694V17.08H233.494V17.44H233.854V17.8H234.214V18.16H234.574V18.52H234.934V23.56ZM233.494 18.88V18.52V18.16H231.694V18.52H231.334V22.48H231.694V21.76H232.054V21.04H232.414V20.32H232.774V19.6H233.134V18.88H233.494ZM233.854 23.56V19.96H233.494V20.68H233.134V21.4H232.774V22.12H232.414V22.84H232.054V23.56H231.694V23.92H233.494V23.56H233.854ZM239.976 25H235.296V22.12H235.656V21.76H236.016V21.4H236.376V21.04H236.736V20.68H238.176V20.32H238.536V19.96H238.896V18.52H238.536V18.16H236.736V18.52H236.376V19.24H235.296V18.16H235.656V17.8H236.016V17.44H236.376V17.08H238.896V17.44H239.256V17.8H239.616V18.16H239.976V20.32H239.616V20.68H239.256V21.04H238.896V21.4H238.536V21.76H237.096V22.12H236.736V22.48H236.376V23.92H239.976V25Z" fill="#4B4B4B"/>
<rect x="183" width="6" height="6" fill="#4B4B4B"/>
<path d="M311 29H307V25H311V29ZM311 21H307V25H303V17H311V21ZM315 25H311V21H315V25Z" fill="#4B4B4B"/>
<rect x="326" width="6" height="6" fill="#4B4B4B"/>
<rect x="183" y="98" width="6" height="6" fill="#4B4B4B"/>
<rect x="326" y="98" width="6" height="6" fill="#4B4B4B"/>
</g>
<rect x="183.5" y="0.5" width="148" height="103" stroke="#4B4B4B"/>
<g clip-path="url(#clip3_3101_7236)">
<path d="M204.68 178H204.32V177.28H203.96V176.56H203.6V175.84H203.24V175.12H202.88V174.4H202.52V173.68H202.16V174.4H201.8V175.12H201.44V175.84H201.08V176.56H200.72V177.28H200.36V178H200V170.08H201.08V174.04H201.44V173.32H201.8V172.6H202.16V171.88H202.52V172.6H202.88V173.32H203.24V174.04H203.6V170.08H204.68V178ZM209.722 178H205.042V170.08H209.722V171.16H206.122V173.32H209.002V174.4H206.122V176.92H209.722V178ZM219.807 176.92H219.447V177.28H219.087V177.64H218.727V178H216.207V177.64H215.847V177.28H215.487V176.92H215.127V175.84H216.207V176.56H216.567V176.92H218.367V176.56H218.727V174.76H218.367V174.4H216.207V174.04H215.847V173.68H215.487V173.32H215.127V171.16H215.487V170.8H215.847V170.44H216.207V170.08H218.727V170.44H219.087V170.8H219.447V171.16H219.807V172.24H218.727V171.52H218.367V171.16H216.567V171.52H216.207V172.96H216.567V173.32H218.727V173.68H219.087V174.04H219.447V174.4H219.807V176.92ZM224.849 178H223.769V174.4H221.249V178H220.169V170.08H221.249V173.32H223.769V170.08H224.849V178ZM229.892 178H225.212V176.92H227.012V171.16H226.292V170.08H228.812V171.16H228.092V176.92H229.892V178ZM234.934 173.68H234.574V174.04H234.214V174.4H233.854V174.76H231.334V178H230.254V170.08H233.854V170.44H234.214V170.8H234.574V171.16H234.934V173.68ZM233.854 173.32V171.52H233.494V171.16H231.334V173.68H233.494V173.32H233.854ZM245.019 178H240.339V170.08H245.019V171.16H241.419V173.32H244.299V174.4H241.419V176.92H245.019V178ZM250.061 178H248.981V176.2H246.461V178H245.381V175.12V174.76V174.04H245.741V173.32H246.101V172.6H246.461V171.88H246.821V171.16H247.181V170.44H247.541V170.08H247.901V170.44H248.261V171.16H248.621V171.88H248.981V172.6H249.341V173.32H249.701V174.04H250.061V174.76V175.12V178ZM248.981 175.12V174.76V174.4H248.621V173.68H248.261V172.96H247.901V172.24H247.541V172.96H247.181V173.68H246.821V174.4H246.461V174.76V175.12H248.981ZM255.103 178H254.023V176.56H253.663V175.84H253.303V175.12H252.943V174.4H251.503V178H250.423V170.08H254.023V170.44H254.383V170.8H254.743V171.16H255.103V173.32H254.743V173.68H254.383V174.04H254.023V174.76H254.383V175.48H254.743V176.2H255.103V178ZM254.023 172.96V171.52H253.663V171.16H251.503V173.32H253.663V172.96H254.023ZM260.146 178H255.466V170.08H256.546V176.92H260.146V178ZM265.188 171.16H264.828V171.88H264.468V172.6H264.108V173.32H263.748V174.04H263.388V178H262.308V174.04H261.948V173.32H261.588V172.6H261.228V171.88H260.868V171.16H260.508V170.08H261.588V170.8H261.948V171.52H262.308V172.24H262.668V172.96H263.028V172.24H263.388V171.52H263.748V170.8H264.108V170.08H265.188V171.16ZM275.273 178H274.193V176.2H271.673V178H270.593V175.12V174.76V174.04H270.953V173.32H271.313V172.6H271.673V171.88H272.033V171.16H272.393V170.44H272.753V170.08H273.113V170.44H273.473V171.16H273.833V171.88H274.193V172.6H274.553V173.32H274.913V174.04H275.273V174.76V175.12V178ZM274.193 175.12V174.76V174.4H273.833V173.68H273.473V172.96H273.113V172.24H272.753V172.96H272.393V173.68H272.033V174.4H271.673V174.76V175.12H274.193ZM280.315 178H279.235V177.64H278.875V176.92H278.515V176.2H278.155V175.48H277.795V174.76H277.435V174.04H277.075V173.32H276.715V178H275.635V170.08H276.355V170.8H276.715V171.52H277.075V172.24H277.435V172.96H277.795V173.68H278.155V174.4H278.515V175.12H278.875V175.84H279.235V170.08H280.315V178ZM285.357 176.2H284.997V176.56H284.637V176.92H284.277V177.28H283.917V177.64H283.545V178H280.677V170.08H283.557V170.44H283.917V170.8H284.277V171.16H284.637V171.52H284.997V171.88H285.357V176.2ZM284.277 175.84V172.24H283.917V171.88H283.557V171.52H283.197V171.16H281.757V176.92H283.197V176.56H283.557V176.2H283.917V175.84H284.277ZM204.68 190.56H204.32V190.92H203.96V191.28H203.6V191.64H203.24V192H201.44V191.64H201.08V191.28H200.72V190.92H200.36V190.56H200V185.52H200.36V185.16H200.72V184.8H201.08V184.44H201.44V184.08H203.24V184.44H203.6V184.8H203.96V185.16H204.32V185.52H204.68V190.56ZM203.6 190.2V185.88H203.24V185.52H202.88V185.16H201.8V185.52H201.44V185.88H201.08V190.2H201.44V190.56H201.8V190.92H202.88V190.56H203.24V190.2H203.6ZM209.722 185.16H206.122V187.32H208.642V188.4H206.122V192H205.042V184.08H209.722V185.16ZM214.765 185.16H212.965V192H211.885V185.16H210.085V184.08H214.765V185.16ZM219.807 192H215.127V184.08H219.807V185.16H216.207V187.32H219.087V188.4H216.207V190.92H219.807V192ZM224.849 192H223.769V191.64H223.409V190.92H223.049V190.2H222.689V189.48H222.329V188.76H221.969V188.04H221.609V187.32H221.249V192H220.169V184.08H220.889V184.8H221.249V185.52H221.609V186.24H221.969V186.96H222.329V187.68H222.689V188.4H223.049V189.12H223.409V189.84H223.769V184.08H224.849V192ZM228.092 192H226.652V190.56H228.092V192ZM239.976 192H238.896V191.64H238.536V190.92H238.176V190.2H237.816V189.48H237.456V188.76H237.096V188.04H236.736V187.32H236.376V192H235.296V184.08H236.016V184.8H236.376V185.52H236.736V186.24H237.096V186.96H237.456V187.68H237.816V188.4H238.176V189.12H238.536V189.84H238.896V184.08H239.976V192ZM245.019 190.56H244.659V190.92H244.299V191.28H243.939V191.64H243.579V192H241.779V191.64H241.419V191.28H241.059V190.92H240.699V190.56H240.339V185.52H240.699V185.16H241.059V184.8H241.419V184.44H241.779V184.08H243.579V184.44H243.939V184.8H244.299V185.16H244.659V185.52H245.019V190.56ZM243.939 190.2V185.88H243.579V185.52H243.219V185.16H242.139V185.52H241.779V185.88H241.419V190.2H241.779V190.56H242.139V190.92H243.219V190.56H243.579V190.2H243.939ZM254.383 185.88H253.303V184.08H254.383V185.88ZM252.583 185.88H251.503V184.08H252.583V185.88ZM260.146 190.92H259.786V191.28H259.426V191.64H259.066V192H255.466V184.08H259.066V184.44H259.426V184.8H259.786V185.16H260.146V186.96H259.786V187.32H259.426V187.68H259.066V188.04H259.426V188.4H259.786V188.76H260.146V190.92ZM259.066 186.6V185.52H258.706V185.16H256.546V187.32H258.346V186.96H258.706V186.6H259.066ZM259.066 190.56V189.12H258.706V188.76H258.346V188.4H256.546V190.92H258.706V190.56H259.066ZM265.188 192H260.508V190.92H262.308V185.16H261.588V184.08H264.108V185.16H263.388V190.92H265.188V192ZM270.23 191.28H269.87V191.64H269.51V192H266.99V191.64H266.63V191.28H266.27V190.92H265.91V190.56H265.55V185.52H265.91V185.16H266.27V184.8H266.63V184.44H266.99V184.08H269.51V184.44H269.87V184.8H270.23V185.52H269.15V185.16H267.35V185.52H266.99V185.88H266.63V190.2H266.99V190.56H267.35V190.92H269.15V188.76H268.79V189.12H267.71V187.68H270.23V191.28ZM280.315 192H279.235V190.56H278.875V189.84H278.515V189.12H278.155V188.4H276.715V192H275.635V184.08H279.235V184.44H279.595V184.8H279.955V185.16H280.315V187.32H279.955V187.68H279.595V188.04H279.235V188.76H279.595V189.48H279.955V190.2H280.315V192ZM279.235 186.96V185.52H278.875V185.16H276.715V187.32H278.875V186.96H279.235ZM285.357 192H280.677V184.08H285.357V185.16H281.757V187.32H284.637V188.4H281.757V190.92H285.357V192ZM290.4 187.68H290.04V188.4H289.68V189.12H289.32V189.84H288.96V190.56H288.6V191.28H288.24V192H287.88V191.28H287.52V190.56H287.16V189.84H286.8V189.12H286.44V188.4H286.08V187.68H285.72V184.08H286.8V187.32H287.16V188.04H287.52V188.76H287.88V189.48H288.24V188.76H288.6V188.04H288.96V187.32H289.32V184.08H290.4V187.68ZM295.442 192H290.762V184.08H295.442V185.16H291.842V187.32H294.722V188.4H291.842V190.92H295.442V192ZM300.485 192H299.405V190.2H296.885V192H295.805V189.12V188.76V188.04H296.165V187.32H296.525V186.6H296.885V185.88H297.245V185.16H297.605V184.44H297.965V184.08H298.325V184.44H298.685V185.16H299.045V185.88H299.405V186.6H299.765V187.32H300.125V188.04H300.485V188.76V189.12V192ZM299.405 189.12V188.76V188.4H299.045V187.68H298.685V186.96H298.325V186.24H297.965V186.96H297.605V187.68H297.245V188.4H296.885V188.76V189.12H299.405ZM305.527 192H300.847V184.08H301.927V190.92H305.527V192ZM309.849 185.88H308.769V184.08H309.849V185.88ZM308.049 185.88H306.969V184.08H308.049V185.88ZM204.68 206H203.6V205.64H203.24V204.92H202.88V204.2H202.52V203.48H202.16V202.76H201.8V202.04H201.44V201.32H201.08V206H200V198.08H200.72V198.8H201.08V199.52H201.44V200.24H201.8V200.96H202.16V201.68H202.52V202.4H202.88V203.12H203.24V203.84H203.6V198.08H204.68V206ZM209.722 204.56H209.362V204.92H209.002V205.28H208.642V205.64H208.282V206H206.482V205.64H206.122V205.28H205.762V204.92H205.402V204.56H205.042V199.52H205.402V199.16H205.762V198.8H206.122V198.44H206.482V198.08H208.282V198.44H208.642V198.8H209.002V199.16H209.362V199.52H209.722V204.56ZM208.642 204.2V199.88H208.282V199.52H207.922V199.16H206.842V199.52H206.482V199.88H206.122V204.2H206.482V204.56H206.842V204.92H207.922V204.56H208.282V204.2H208.642ZM214.765 206H213.685V205.64H213.325V204.92H212.965V204.2H212.605V203.48H212.245V202.76H211.885V202.04H211.525V201.32H211.165V206H210.085V198.08H210.805V198.8H211.165V199.52H211.525V200.24H211.885V200.96H212.245V201.68H212.605V202.4H212.965V203.12H213.325V203.84H213.685V198.08H214.765V206ZM219.807 204.92H219.447V205.28H219.087V205.64H218.727V206H216.207V205.64H215.847V205.28H215.487V204.92H215.127V203.84H216.207V204.56H216.567V204.92H218.367V204.56H218.727V202.76H218.367V202.4H216.207V202.04H215.847V201.68H215.487V201.32H215.127V199.16H215.487V198.8H215.847V198.44H216.207V198.08H218.727V198.44H219.087V198.8H219.447V199.16H219.807V200.24H218.727V199.52H218.367V199.16H216.567V199.52H216.207V200.96H216.567V201.32H218.727V201.68H219.087V202.04H219.447V202.4H219.807V204.92ZM224.849 206H220.169V198.08H224.849V199.16H221.249V201.32H224.129V202.4H221.249V204.92H224.849V206ZM229.892 206H228.812V205.64H228.452V204.92H228.092V204.2H227.732V203.48H227.372V202.76H227.012V202.04H226.652V201.32H226.292V206H225.212V198.08H225.932V198.8H226.292V199.52H226.652V200.24H227.012V200.96H227.372V201.68H227.732V202.4H228.092V203.12H228.452V203.84H228.812V198.08H229.892V206ZM234.934 204.92H234.574V205.28H234.214V205.64H233.854V206H231.334V205.64H230.974V205.28H230.614V204.92H230.254V203.84H231.334V204.56H231.694V204.92H233.494V204.56H233.854V202.76H233.494V202.4H231.334V202.04H230.974V201.68H230.614V201.32H230.254V199.16H230.614V198.8H230.974V198.44H231.334V198.08H233.854V198.44H234.214V198.8H234.574V199.16H234.934V200.24H233.854V199.52H233.494V199.16H231.694V199.52H231.334V200.96H231.694V201.32H233.854V201.68H234.214V202.04H234.574V202.4H234.934V204.92ZM239.976 206H235.296V198.08H239.976V199.16H236.376V201.32H239.256V202.4H236.376V204.92H239.976V206ZM243.219 206H241.779V204.56H243.219V206Z" fill="#D9D9D9"/>
<path d="M204.68 145H200V143.92H201.8V138.16H201.08V137.08H203.6V138.16H202.88V143.92H204.68V145ZM209.722 143.2H209.362V143.56H209.002V143.92H208.642V144.28H208.282V144.64H207.91V145H205.042V137.08H207.922V137.44H208.282V137.8H208.642V138.16H209.002V138.52H209.362V138.88H209.722V143.2ZM208.642 142.84V139.24H208.282V138.88H207.922V138.52H207.562V138.16H206.122V143.92H207.562V143.56H207.922V143.2H208.282V142.84H208.642ZM212.965 145H211.525V143.56H212.965V145ZM219.807 143.92H219.447V144.28H219.087V144.64H218.727V145H216.207V144.64H215.847V144.28H215.487V143.92H215.127V142.84H216.207V143.56H216.567V143.92H218.367V143.56H218.727V142.12H218.367V141.76H218.007V141.4H217.647V141.04H217.287V140.68H216.927V140.32H216.567V139.96H216.927V139.6H217.287V139.24H217.647V138.88H218.007V138.52H218.367V138.16H215.127V137.08H219.807V138.52H219.447V138.88H219.087V139.24H218.727V139.6H218.367V139.96H218.007V140.32H218.367V140.68H218.727V141.04H219.087V141.4H219.447V141.76H219.807V143.92ZM223.049 145H221.609V143.56H223.049V145ZM229.892 143.56H229.532V143.92H229.172V144.28H228.812V144.64H228.452V145H226.652V144.64H226.292V144.28H225.932V143.92H225.572V143.56H225.212V138.52H225.572V138.16H225.932V137.8H226.292V137.44H226.652V137.08H228.452V137.44H228.812V137.8H229.172V138.16H229.532V138.52H229.892V143.56ZM228.452 138.88V138.52V138.16H226.652V138.52H226.292V142.48H226.652V141.76H227.012V141.04H227.372V140.32H227.732V139.6H228.092V138.88H228.452ZM228.812 143.56V139.96H228.452V140.68H228.092V141.4H227.732V142.12H227.372V142.84H227.012V143.56H226.652V143.92H228.452V143.56H228.812ZM234.934 143.56H234.574V143.92H234.214V144.28H233.854V144.64H233.494V145H231.694V144.64H231.334V144.28H230.974V143.92H230.614V143.56H230.254V138.52H230.614V138.16H230.974V137.8H231.334V137.44H231.694V137.08H233.494V137.44H233.854V137.8H234.214V138.16H234.574V138.52H234.934V143.56ZM233.494 138.88V138.52V138.16H231.694V138.52H231.334V142.48H231.694V141.76H232.054V141.04H232.414V140.32H232.774V139.6H233.134V138.88H233.494ZM233.854 143.56V139.96H233.494V140.68H233.134V141.4H232.774V142.12H232.414V142.84H232.054V143.56H231.694V143.92H233.494V143.56H233.854ZM239.976 143.56H239.256V145H238.176V143.56H235.296V143.2V142.84H235.656V142.12H236.016V141.4H236.376V140.68H236.736V139.96H237.096V139.24H237.456V138.52H237.816V137.8H238.176V137.08H239.256V142.48H239.976V143.56ZM238.176 142.48V139.6H237.816V140.32H237.456V141.04H237.096V141.76H236.736V142.48H238.176Z" fill="#4B4B4B"/>
<rect x="183" y="120" width="6" height="6" fill="#4B4B4B"/>
<path d="M307 149H303V145H307V149ZM311 141H315V149H311V145H307V137H311V141Z" fill="#4B4B4B"/>
<rect x="326" y="120" width="6" height="6" fill="#4B4B4B"/>
<rect x="183" y="218" width="6" height="6" fill="#4B4B4B"/>
<rect x="326" y="218" width="6" height="6" fill="#4B4B4B"/>
</g>
<rect x="183.5" y="120.5" width="148" height="103" stroke="#4B4B4B"/>
<rect x="167.25" y="52.25" width="15.5" height="0.5" fill="#4B4B4B" stroke="#4B4B4B" stroke-width="0.5"/>
<rect x="167.25" y="172.25" width="15.5" height="0.5" fill="#4B4B4B" stroke="#4B4B4B" stroke-width="0.5"/>
<rect x="257.75" y="104.25" width="15.5" height="0.5" transform="rotate(90 257.75 104.25)" fill="#4B4B4B" stroke="#4B4B4B" stroke-width="0.5"/>
<rect x="92.75" y="104.25" width="15.5" height="0.5" transform="rotate(90 92.75 104.25)" fill="#4B4B4B" stroke="#4B4B4B" stroke-width="0.5"/>
<g clip-path="url(#clip4_3101_7236)">
<path d="M63.0383 269.4H62.7383V269.7H62.4383V270H62.1383V270.3H60.0383V273H59.1383V266.4H62.1383V266.7H62.4383V267H62.7383V267.3H63.0383V269.4ZM62.1383 269.1V267.6H61.8383V267.3H60.0383V269.4H61.8383V269.1H62.1383ZM67.2402 273H66.3402V272.7H66.0402V272.1H65.7402V271.5H65.4402V270.9H65.1402V270.3H64.8402V269.7H64.5402V269.1H64.2402V273H63.3402V266.4H63.9402V267H64.2402V267.6H64.5402V268.2H64.8402V268.8H65.1402V269.4H65.4402V270H65.7402V270.6H66.0402V271.2H66.3402V266.4H67.2402V273ZM69.9422 270.6H68.7422V269.4H69.9422V270.6ZM69.9422 273H68.7422V271.8H69.9422V273ZM79.8461 273H75.9461V270.6H76.2461V270.3H76.5461V270H76.8461V269.7H77.1461V269.4H78.3461V269.1H78.6461V268.8H78.9461V267.6H78.6461V267.3H77.1461V267.6H76.8461V268.2H75.9461V267.3H76.2461V267H76.5461V266.7H76.8461V266.4H78.9461V266.7H79.2461V267H79.5461V267.3H79.8461V269.1H79.5461V269.4H79.2461V269.7H78.9461V270H78.6461V270.3H77.4461V270.6H77.1461V270.9H76.8461V272.1H79.8461V273ZM84.048 271.8H83.448V273H82.548V271.8H80.148V271.5V271.2H80.448V270.6H80.748V270H81.048V269.4H81.348V268.8H81.648V268.2H81.948V267.6H82.248V267H82.548V266.4H83.448V270.9H84.048V271.8ZM82.548 270.9V268.5H82.248V269.1H81.948V269.7H81.648V270.3H81.348V270.9H82.548ZM88.25 272.1H87.95V272.4H87.65V272.7H87.35V273H85.25V272.7H84.95V272.4H84.65V272.1H84.35V270H84.65V269.7H84.95V269.4H84.65V269.1H84.35V267.3H84.65V267H84.95V266.7H85.25V266.4H87.35V266.7H87.65V267H87.95V267.3H88.25V269.1H87.95V269.4H87.65V269.7H87.95V270H88.25V272.1ZM87.35 268.8V267.6H87.05V267.3H85.55V267.6H85.25V268.8H85.55V269.1H87.05V268.8H87.35ZM87.35 271.8V270.3H87.05V270H85.55V270.3H85.25V271.8H85.55V272.1H87.05V271.8H87.35ZM92.452 272.1H92.152V272.4H91.852V272.7H91.552V273H89.452V272.7H89.152V272.4H88.852V272.1H88.552V271.2H89.452V271.8H89.752V272.1H91.252V271.8H91.552V270.6H91.252V270.3H90.952V270H90.652V269.7H90.352V269.4H90.052V269.1H89.752V268.8H90.052V268.5H90.352V268.2H90.652V267.9H90.952V267.6H91.252V267.3H88.552V266.4H92.452V267.6H92.152V267.9H91.852V268.2H91.552V268.5H91.252V268.8H90.952V269.1H91.252V269.4H91.552V269.7H91.852V270H92.152V270.3H92.452V272.1ZM96.0539 270.9H93.3539V270H96.0539V270.9ZM100.856 273H99.9559V271.5H97.8559V273H96.9559V270.6V270.3V269.7H97.2559V269.1H97.5559V268.5H97.8559V267.9H98.1559V267.3H98.4559V266.7H98.7559V266.4H99.0559V266.7H99.3559V267.3H99.6559V267.9H99.9559V268.5H100.256V269.1H100.556V269.7H100.856V270.3V270.6V273ZM99.9559 270.6V270.3V270H99.6559V269.4H99.3559V268.8H99.0559V268.2H98.7559V268.8H98.4559V269.4H98.1559V270H97.8559V270.3V270.6H99.9559ZM105.058 273H104.158V272.1H103.858V271.2H103.558V270.6H103.258V270.3H102.958V270.6H102.658V271.2H102.358V272.1H102.058V273H101.158V272.1H101.458V271.2H101.758V270.6H102.058V270H102.358V269.4H102.058V268.8H101.758V268.2H101.458V267.3H101.158V266.4H102.058V267.3H102.358V268.2H102.658V268.8H102.958V269.1H103.258V268.8H103.558V268.2H103.858V267.3H104.158V266.4H105.058V267.3H104.758V268.2H104.458V268.8H104.158V269.4H103.858V270H104.158V270.6H104.458V271.2H104.758V272.1H105.058V273ZM109.26 270H108.96V270.6H108.66V270.9H108.36V271.2H108.06V271.5H107.76V271.8H107.46V272.1H107.16V272.4H106.86V272.7H106.56V273H105.66V272.4H105.96V272.1H106.26V271.8H106.56V271.5H106.86V271.2H107.16V270.9H107.46V270.6H107.76V270.3H106.26V270H105.96V269.7H105.66V269.4H105.36V267.3H105.66V267H105.96V266.7H106.26V266.4H108.36V266.7H108.66V267H108.96V267.3H109.26V270ZM108.36 269.1V267.6H108.06V267.3H106.56V267.6H106.26V269.1H106.56V269.4H108.06V269.1H108.36ZM60.9373 283.5H60.6373V283.8H60.3373V284.1H60.0373V284.4H59.7373V284.7H59.4273V285H57.0373V278.4H59.4373V278.7H59.7373V279H60.0373V279.3H60.3373V279.6H60.6373V279.9H60.9373V283.5ZM60.0373 283.2V280.2H59.7373V279.9H59.4373V279.6H59.1373V279.3H57.9373V284.1H59.1373V283.8H59.4373V283.5H59.7373V283.2H60.0373ZM65.1393 283.8H64.8393V284.1H64.5393V284.4H64.2393V284.7H63.9393V285H62.4393V284.7H62.1393V284.4H61.8393V284.1H61.5393V283.8H61.2393V279.6H61.5393V279.3H61.8393V279H62.1393V278.7H62.4393V278.4H63.9393V278.7H64.2393V279H64.5393V279.3H64.8393V279.6H65.1393V283.8ZM64.2393 283.5V279.9H63.9393V279.6H63.6393V279.3H62.7393V279.6H62.4393V279.9H62.1393V283.5H62.4393V283.8H62.7393V284.1H63.6393V283.8H63.9393V283.5H64.2393ZM73.5432 285H72.6432V284.7H72.3432V284.1H72.0432V283.5H71.7432V282.9H71.4432V282.3H71.1432V281.7H70.8432V281.1H70.5432V285H69.6432V278.4H70.2432V279H70.5432V279.6H70.8432V280.2H71.1432V280.8H71.4432V281.4H71.7432V282H72.0432V282.6H72.3432V283.2H72.6432V278.4H73.5432V285ZM77.7451 283.8H77.4451V284.1H77.1451V284.4H76.8451V284.7H76.5451V285H75.0451V284.7H74.7451V284.4H74.4451V284.1H74.1451V283.8H73.8451V279.6H74.1451V279.3H74.4451V279H74.7451V278.7H75.0451V278.4H76.5451V278.7H76.8451V279H77.1451V279.3H77.4451V279.6H77.7451V283.8ZM76.8451 283.5V279.9H76.5451V279.6H76.2451V279.3H75.3451V279.6H75.0451V279.9H74.7451V283.5H75.0451V283.8H75.3451V284.1H76.2451V283.8H76.5451V283.5H76.8451ZM81.9471 279.3H80.4471V285H79.5471V279.3H78.0471V278.4H81.9471V279.3ZM90.351 285H89.451V283.8H89.151V283.2H88.851V282.6H88.551V282H87.351V285H86.451V278.4H89.451V278.7H89.751V279H90.051V279.3H90.351V281.1H90.051V281.4H89.751V281.7H89.451V282.3H89.751V282.9H90.051V283.5H90.351V285ZM89.451 280.8V279.6H89.151V279.3H87.351V281.1H89.151V280.8H89.451ZM94.5529 285H90.6529V278.4H94.5529V279.3H91.5529V281.1H93.9529V282H91.5529V284.1H94.5529V285ZM98.7549 285H97.8549V281.7H97.5549V282.3H97.2549V282.9H96.9549V283.5H96.6549V282.9H96.3549V282.3H96.0549V281.7H95.7549V285H94.8549V278.4H95.1549V279H95.4549V279.6H95.7549V280.2H96.0549V280.8H96.3549V281.4H96.6549V282H96.9549V281.4H97.2549V280.8H97.5549V280.2H97.8549V279.6H98.1549V279H98.4549V278.4H98.7549V285ZM102.957 283.8H102.657V284.1H102.357V284.4H102.057V284.7H101.757V285H100.257V284.7H99.9568V284.4H99.6568V284.1H99.3568V283.8H99.0568V279.6H99.3568V279.3H99.6568V279H99.9568V278.7H100.257V278.4H101.757V278.7H102.057V279H102.357V279.3H102.657V279.6H102.957V283.8ZM102.057 283.5V279.9H101.757V279.6H101.457V279.3H100.557V279.6H100.257V279.9H99.9568V283.5H100.257V283.8H100.557V284.1H101.457V283.8H101.757V283.5H102.057ZM107.159 281.4H106.859V282H106.559V282.6H106.259V283.2H105.959V283.8H105.659V284.4H105.359V285H105.059V284.4H104.759V283.8H104.459V283.2H104.159V282.6H103.859V282H103.559V281.4H103.259V278.4H104.159V281.1H104.459V281.7H104.759V282.3H105.059V282.9H105.359V282.3H105.659V281.7H105.959V281.1H106.259V278.4H107.159V281.4ZM111.361 285H107.461V278.4H111.361V279.3H108.361V281.1H110.761V282H108.361V284.1H111.361V285ZM54.6344 295.5H54.3344V295.8H54.0344V296.1H53.7344V296.4H53.4344V296.7H53.1244V297H50.7344V290.4H53.1344V290.7H53.4344V291H53.7344V291.3H54.0344V291.6H54.3344V291.9H54.6344V295.5ZM53.7344 295.2V292.2H53.4344V291.9H53.1344V291.6H52.8344V291.3H51.6344V296.1H52.8344V295.8H53.1344V295.5H53.4344V295.2H53.7344ZM58.8363 296.1H58.5363V296.4H58.2363V296.7H57.9363V297H55.8363V296.7H55.5363V296.4H55.2363V296.1H54.9363V290.4H55.8363V295.8H56.1363V296.1H57.6363V295.8H57.9363V290.4H58.8363V296.1ZM63.0383 297H62.1383V295.8H61.8383V295.2H61.5383V294.6H61.2383V294H60.0383V297H59.1383V290.4H62.1383V290.7H62.4383V291H62.7383V291.3H63.0383V293.1H62.7383V293.4H62.4383V293.7H62.1383V294.3H62.4383V294.9H62.7383V295.5H63.0383V297ZM62.1383 292.8V291.6H61.8383V291.3H60.0383V293.1H61.8383V292.8H62.1383ZM67.2402 297H63.3402V296.1H64.8402V291.3H64.2402V290.4H66.3402V291.3H65.7402V296.1H67.2402V297ZM71.4422 297H70.5422V296.7H70.2422V296.1H69.9422V295.5H69.6422V294.9H69.3422V294.3H69.0422V293.7H68.7422V293.1H68.4422V297H67.5422V290.4H68.1422V291H68.4422V291.6H68.7422V292.2H69.0422V292.8H69.3422V293.4H69.6422V294H69.9422V294.6H70.2422V295.2H70.5422V290.4H71.4422V297ZM75.6441 296.4H75.3441V296.7H75.0441V297H72.9441V296.7H72.6441V296.4H72.3441V296.1H72.0441V295.8H71.7441V291.6H72.0441V291.3H72.3441V291H72.6441V290.7H72.9441V290.4H75.0441V290.7H75.3441V291H75.6441V291.6H74.7441V291.3H73.2441V291.6H72.9441V291.9H72.6441V295.5H72.9441V295.8H73.2441V296.1H74.7441V294.3H74.4441V294.6H73.5441V293.4H75.6441V296.4ZM84.048 295.8H83.748V296.1H83.448V296.4H83.148V296.7H82.848V297H81.348V296.7H81.048V296.4H80.748V296.1H80.448V295.8H80.148V291.6H80.448V291.3H80.748V291H81.048V290.7H81.348V290.4H82.848V290.7H83.148V291H83.448V291.3H83.748V291.6H84.048V295.8ZM83.148 295.5V291.9H82.848V291.6H82.548V291.3H81.648V291.6H81.348V291.9H81.048V295.5H81.348V295.8H81.648V296.1H82.548V295.8H82.848V295.5H83.148ZM88.25 293.4H87.95V293.7H87.65V294H87.35V294.3H85.25V297H84.35V290.4H87.35V290.7H87.65V291H87.95V291.3H88.25V293.4ZM87.35 293.1V291.6H87.05V291.3H85.25V293.4H87.05V293.1H87.35ZM92.452 297H88.552V290.4H92.452V291.3H89.452V293.1H91.852V294H89.452V296.1H92.452V297ZM96.6539 297H95.7539V295.8H95.4539V295.2H95.1539V294.6H94.8539V294H93.6539V297H92.7539V290.4H95.7539V290.7H96.0539V291H96.3539V291.3H96.6539V293.1H96.3539V293.4H96.0539V293.7H95.7539V294.3H96.0539V294.9H96.3539V295.5H96.6539V297ZM95.7539 292.8V291.6H95.4539V291.3H93.6539V293.1H95.4539V292.8H95.7539ZM100.856 297H99.9559V295.5H97.8559V297H96.9559V294.6V294.3V293.7H97.2559V293.1H97.5559V292.5H97.8559V291.9H98.1559V291.3H98.4559V290.7H98.7559V290.4H99.0559V290.7H99.3559V291.3H99.6559V291.9H99.9559V292.5H100.256V293.1H100.556V293.7H100.856V294.3V294.6V297ZM99.9559 294.6V294.3V294H99.6559V293.4H99.3559V292.8H99.0559V292.2H98.7559V292.8H98.4559V293.4H98.1559V294H97.8559V294.3V294.6H99.9559ZM105.058 291.3H103.558V297H102.658V291.3H101.158V290.4H105.058V291.3ZM109.26 297H105.36V296.1H106.86V291.3H106.26V290.4H108.36V291.3H107.76V296.1H109.26V297ZM113.462 295.8H113.162V296.1H112.862V296.4H112.562V296.7H112.262V297H110.762V296.7H110.462V296.4H110.162V296.1H109.862V295.8H109.562V291.6H109.862V291.3H110.162V291H110.462V290.7H110.762V290.4H112.262V290.7H112.562V291H112.862V291.3H113.162V291.6H113.462V295.8ZM112.562 295.5V291.9H112.262V291.6H111.962V291.3H111.062V291.6H110.762V291.9H110.462V295.5H110.762V295.8H111.062V296.1H111.962V295.8H112.262V295.5H112.562ZM117.664 297H116.764V296.7H116.464V296.1H116.164V295.5H115.864V294.9H115.564V294.3H115.264V293.7H114.964V293.1H114.664V297H113.764V290.4H114.364V291H114.664V291.6H114.964V292.2H115.264V292.8H115.564V293.4H115.864V294H116.164V294.6H116.464V295.2H116.764V290.4H117.664V297Z" fill="#4B4B4B"/>
<path d="M151.491 282.62C151.871 282.52 152.325 282.39 152.851 282.23C153.385 282.063 153.918 281.893 154.451 281.72L154.641 282.78C154.155 282.953 153.661 283.127 153.161 283.3C152.661 283.473 152.198 283.633 151.771 283.78L151.491 282.62ZM151.631 279.4H154.561V280.5H151.631V279.4ZM152.601 277.5H153.721V285.57C153.721 285.83 153.695 286.037 153.641 286.19C153.595 286.35 153.498 286.473 153.351 286.56C153.211 286.653 153.041 286.713 152.841 286.74C152.641 286.773 152.401 286.79 152.121 286.79C152.108 286.637 152.071 286.457 152.011 286.25C151.951 286.05 151.888 285.873 151.821 285.72C151.955 285.727 152.081 285.73 152.201 285.73C152.328 285.73 152.415 285.73 152.461 285.73C152.555 285.73 152.601 285.68 152.601 285.58V277.5ZM156.811 278.71V279.37H158.631V278.71H156.811ZM155.791 277.88H159.721V280.21H155.791V277.88ZM155.781 281.37V282.11H156.601V281.37H155.781ZM154.881 280.55H157.541V282.93H154.881V280.55ZM158.851 281.37V282.11H159.711V281.37H158.851ZM157.941 280.55H160.681V282.93H157.941V280.55ZM154.751 283.53H160.841V284.5H154.751V283.53ZM157.171 282.88H158.321V286.91H157.171V282.88ZM157.061 284.02L157.991 284.37C157.751 284.717 157.461 285.047 157.121 285.36C156.781 285.667 156.408 285.94 156.001 286.18C155.601 286.42 155.185 286.61 154.751 286.75C154.665 286.61 154.548 286.447 154.401 286.26C154.261 286.08 154.131 285.933 154.011 285.82C154.425 285.713 154.825 285.57 155.211 285.39C155.598 285.203 155.951 284.997 156.271 284.77C156.598 284.537 156.861 284.287 157.061 284.02ZM158.501 284.14C158.681 284.367 158.905 284.587 159.171 284.8C159.445 285.007 159.741 285.193 160.061 285.36C160.381 285.52 160.708 285.653 161.041 285.76C160.961 285.827 160.871 285.913 160.771 286.02C160.678 286.127 160.588 286.237 160.501 286.35C160.415 286.47 160.341 286.577 160.281 286.67C159.948 286.523 159.615 286.337 159.281 286.11C158.955 285.883 158.651 285.627 158.371 285.34C158.098 285.053 157.865 284.757 157.671 284.45L158.501 284.14ZM165.881 279.14H170.671V280.28H165.311L165.881 279.14ZM167.191 281.33H170.421V282.43H167.191V281.33ZM167.181 283.55H170.551V284.67H167.181V283.55ZM166.581 279.52H167.821V286.89H166.581V279.52ZM166.111 277.6L167.261 277.9C167.075 278.44 166.855 278.977 166.601 279.51C166.355 280.043 166.085 280.543 165.791 281.01C165.498 281.47 165.198 281.877 164.891 282.23C164.831 282.15 164.745 282.057 164.631 281.95C164.518 281.843 164.401 281.74 164.281 281.64C164.168 281.533 164.065 281.45 163.971 281.39C164.271 281.09 164.551 280.737 164.811 280.33C165.078 279.923 165.321 279.487 165.541 279.02C165.768 278.547 165.958 278.073 166.111 277.6ZM163.461 277.54L164.621 277.91C164.408 278.477 164.155 279.047 163.861 279.62C163.568 280.193 163.248 280.737 162.901 281.25C162.555 281.757 162.198 282.2 161.831 282.58C161.791 282.48 161.731 282.35 161.651 282.19C161.578 282.03 161.498 281.867 161.411 281.7C161.325 281.533 161.245 281.4 161.171 281.3C161.478 280.993 161.771 280.64 162.051 280.24C162.338 279.84 162.601 279.41 162.841 278.95C163.088 278.49 163.295 278.02 163.461 277.54ZM162.451 280.31L163.661 279.1V279.11V286.88H162.451V280.31ZM171.531 279.24H179.791V284.26H178.531V280.42H172.731V284.31H171.531V279.24ZM172.151 282.58H179.231V283.76H172.151V282.58ZM174.991 277.5H176.261V286.89H174.991V277.5ZM184.261 279.86C184.548 279.887 184.835 279.91 185.121 279.93C185.415 279.943 185.711 279.95 186.011 279.95C186.625 279.95 187.235 279.923 187.841 279.87C188.448 279.817 189.008 279.733 189.521 279.62V280.87C189.001 280.943 188.438 281.003 187.831 281.05C187.225 281.09 186.618 281.11 186.011 281.11C185.718 281.11 185.425 281.107 185.131 281.1C184.845 281.087 184.555 281.07 184.261 281.05V279.86ZM188.061 278.17C188.048 278.263 188.035 278.367 188.021 278.48C188.015 278.593 188.008 278.707 188.001 278.82C187.995 278.927 187.988 279.07 187.981 279.25C187.975 279.43 187.971 279.633 187.971 279.86C187.971 280.08 187.971 280.313 187.971 280.56C187.971 281.013 187.978 281.44 187.991 281.84C188.005 282.233 188.021 282.6 188.041 282.94C188.061 283.273 188.078 283.58 188.091 283.86C188.111 284.14 188.121 284.4 188.121 284.64C188.121 284.9 188.085 285.14 188.011 285.36C187.945 285.58 187.835 285.773 187.681 285.94C187.528 286.107 187.325 286.233 187.071 286.32C186.825 286.413 186.521 286.46 186.161 286.46C185.468 286.46 184.921 286.32 184.521 286.04C184.121 285.76 183.921 285.357 183.921 284.83C183.921 284.49 184.011 284.193 184.191 283.94C184.371 283.68 184.628 283.48 184.961 283.34C185.295 283.193 185.688 283.12 186.141 283.12C186.615 283.12 187.045 283.17 187.431 283.27C187.818 283.37 188.171 283.503 188.491 283.67C188.811 283.837 189.095 284.02 189.341 284.22C189.595 284.413 189.821 284.6 190.021 284.78L189.331 285.83C188.951 285.47 188.581 285.16 188.221 284.9C187.861 284.64 187.501 284.44 187.141 284.3C186.788 284.16 186.421 284.09 186.041 284.09C185.761 284.09 185.531 284.143 185.351 284.25C185.178 284.357 185.091 284.507 185.091 284.7C185.091 284.9 185.181 285.047 185.361 285.14C185.541 285.233 185.761 285.28 186.021 285.28C186.228 285.28 186.391 285.247 186.511 285.18C186.631 285.107 186.715 285.003 186.761 284.87C186.815 284.73 186.841 284.563 186.841 284.37C186.841 284.197 186.835 283.97 186.821 283.69C186.808 283.41 186.791 283.097 186.771 282.75C186.758 282.403 186.745 282.043 186.731 281.67C186.718 281.29 186.711 280.92 186.711 280.56C186.711 280.18 186.708 279.837 186.701 279.53C186.701 279.217 186.701 278.983 186.701 278.83C186.701 278.757 186.695 278.653 186.681 278.52C186.668 278.387 186.651 278.27 186.631 278.17H188.061ZM183.181 278.28C183.161 278.347 183.131 278.44 183.091 278.56C183.058 278.68 183.028 278.797 183.001 278.91C182.981 279.023 182.965 279.11 182.951 279.17C182.918 279.31 182.881 279.5 182.841 279.74C182.801 279.973 182.758 280.24 182.711 280.54C182.671 280.833 182.631 281.137 182.591 281.45C182.551 281.757 182.521 282.05 182.501 282.33C182.481 282.603 182.471 282.84 182.471 283.04C182.471 283.14 182.471 283.25 182.471 283.37C182.478 283.483 182.491 283.59 182.511 283.69C182.558 283.57 182.605 283.453 182.651 283.34C182.705 283.227 182.758 283.113 182.811 283C182.865 282.887 182.915 282.773 182.961 282.66L183.571 283.16C183.478 283.433 183.381 283.72 183.281 284.02C183.188 284.32 183.101 284.603 183.021 284.87C182.948 285.137 182.891 285.36 182.851 285.54C182.838 285.607 182.825 285.687 182.811 285.78C182.805 285.873 182.801 285.95 182.801 286.01C182.801 286.063 182.801 286.127 182.801 286.2C182.808 286.28 182.815 286.353 182.821 286.42L181.691 286.51C181.585 286.157 181.491 285.707 181.411 285.16C181.331 284.607 181.291 283.99 181.291 283.31C181.291 282.937 181.308 282.547 181.341 282.14C181.375 281.727 181.411 281.33 181.451 280.95C181.498 280.57 181.545 280.223 181.591 279.91C181.638 279.59 181.675 279.333 181.701 279.14C181.721 279 181.741 278.843 181.761 278.67C181.781 278.49 181.795 278.32 181.801 278.16L183.181 278.28ZM195.241 278.79H198.651V279.96H195.241V278.79ZM190.481 278.07H195.531V279.18H190.481V278.07ZM191.801 280.13H194.201V281.2H191.801V280.13ZM191.801 282.21H194.201V283.28H191.801V282.21ZM198.321 278.79H198.531L198.741 278.75L199.521 278.95C199.395 280.303 199.161 281.483 198.821 282.49C198.488 283.497 198.051 284.357 197.511 285.07C196.971 285.783 196.321 286.37 195.561 286.83C195.475 286.677 195.355 286.5 195.201 286.3C195.055 286.107 194.915 285.957 194.781 285.85C195.448 285.497 196.025 285 196.511 284.36C196.998 283.713 197.395 282.943 197.701 282.05C198.015 281.15 198.221 280.15 198.321 279.05V278.79ZM196.421 279.99C196.581 280.85 196.811 281.66 197.111 282.42C197.411 283.18 197.791 283.853 198.251 284.44C198.711 285.027 199.261 285.493 199.901 285.84C199.815 285.913 199.715 286.007 199.601 286.12C199.495 286.24 199.395 286.36 199.301 286.48C199.208 286.607 199.131 286.723 199.071 286.83C198.371 286.403 197.775 285.867 197.281 285.22C196.795 284.573 196.391 283.827 196.071 282.98C195.751 282.133 195.485 281.21 195.271 280.21L196.421 279.99ZM191.171 278.52H192.311V285.06H191.171V278.52ZM193.741 278.52H194.891V286.89H193.741V278.52ZM190.241 284.62C190.575 284.587 190.951 284.543 191.371 284.49C191.798 284.437 192.248 284.377 192.721 284.31C193.201 284.243 193.675 284.177 194.141 284.11L194.201 285.21C193.555 285.323 192.901 285.433 192.241 285.54C191.581 285.64 190.991 285.733 190.471 285.82L190.241 284.62ZM203.361 277.97C203.328 278.09 203.291 278.24 203.251 278.42C203.211 278.6 203.171 278.79 203.131 278.99C203.091 279.183 203.055 279.373 203.021 279.56C202.995 279.747 202.975 279.91 202.961 280.05C203.081 279.85 203.225 279.657 203.391 279.47C203.558 279.277 203.745 279.103 203.951 278.95C204.165 278.79 204.395 278.663 204.641 278.57C204.895 278.477 205.161 278.43 205.441 278.43C205.908 278.43 206.328 278.573 206.701 278.86C207.075 279.147 207.368 279.557 207.581 280.09C207.801 280.623 207.911 281.257 207.911 281.99C207.911 282.697 207.808 283.317 207.601 283.85C207.395 284.377 207.098 284.827 206.711 285.2C206.325 285.573 205.861 285.877 205.321 286.11C204.788 286.35 204.191 286.53 203.531 286.65L202.771 285.49C203.325 285.403 203.831 285.287 204.291 285.14C204.758 284.987 205.158 284.78 205.491 284.52C205.831 284.26 206.091 283.927 206.271 283.52C206.458 283.107 206.551 282.6 206.551 282C206.551 281.487 206.498 281.053 206.391 280.7C206.285 280.34 206.128 280.067 205.921 279.88C205.721 279.693 205.481 279.6 205.201 279.6C204.908 279.6 204.628 279.697 204.361 279.89C204.095 280.083 203.855 280.337 203.641 280.65C203.435 280.957 203.268 281.29 203.141 281.65C203.021 282.01 202.955 282.357 202.941 282.69C202.935 282.83 202.931 282.983 202.931 283.15C202.938 283.317 202.958 283.517 202.991 283.75L201.761 283.83C201.735 283.637 201.705 283.397 201.671 283.11C201.645 282.817 201.631 282.5 201.631 282.16C201.631 281.927 201.638 281.677 201.651 281.41C201.671 281.143 201.691 280.873 201.711 280.6C201.738 280.32 201.768 280.04 201.801 279.76C201.841 279.48 201.878 279.213 201.911 278.96C201.938 278.767 201.958 278.577 201.971 278.39C201.985 278.203 201.991 278.043 201.991 277.91L203.361 277.97ZM211.841 278.96H214.291V280.1H211.841V278.96ZM216.021 277.53H217.271V286.88H216.021V277.53ZM210.731 281.93L211.341 281.03C211.588 281.163 211.848 281.32 212.121 281.5C212.401 281.68 212.665 281.86 212.911 282.04C213.158 282.22 213.358 282.393 213.511 282.56L212.861 283.57C212.721 283.403 212.531 283.223 212.291 283.03C212.051 282.83 211.795 282.633 211.521 282.44C211.248 282.247 210.985 282.077 210.731 281.93ZM211.961 277.49L213.161 277.74C212.988 278.413 212.771 279.06 212.511 279.68C212.258 280.3 211.968 280.873 211.641 281.4C211.321 281.92 210.975 282.373 210.601 282.76C210.535 282.687 210.438 282.603 210.311 282.51C210.191 282.41 210.068 282.313 209.941 282.22C209.815 282.12 209.701 282.043 209.601 281.99C209.975 281.65 210.311 281.247 210.611 280.78C210.911 280.313 211.175 279.8 211.401 279.24C211.628 278.673 211.815 278.09 211.961 277.49ZM215.401 279.93C215.601 280.297 215.841 280.66 216.121 281.02C216.408 281.373 216.725 281.71 217.071 282.03C217.418 282.35 217.785 282.64 218.171 282.9C218.565 283.16 218.961 283.383 219.361 283.57C219.275 283.65 219.175 283.753 219.061 283.88C218.948 284 218.841 284.127 218.741 284.26C218.641 284.387 218.558 284.503 218.491 284.61C218.071 284.39 217.665 284.127 217.271 283.82C216.885 283.513 216.515 283.173 216.161 282.8C215.808 282.427 215.481 282.03 215.181 281.61C214.888 281.19 214.625 280.757 214.391 280.31L215.401 279.93ZM213.951 278.96H214.181L214.391 278.92L215.181 279.19C214.981 280.477 214.678 281.617 214.271 282.61C213.871 283.603 213.381 284.45 212.801 285.15C212.221 285.843 211.571 286.397 210.851 286.81C210.785 286.723 210.695 286.62 210.581 286.5C210.468 286.387 210.348 286.273 210.221 286.16C210.101 286.053 209.991 285.97 209.891 285.91C210.605 285.537 211.238 285.047 211.791 284.44C212.345 283.827 212.805 283.087 213.171 282.22C213.538 281.353 213.798 280.357 213.951 279.23V278.96ZM224.221 278.9C224.181 278.787 224.135 278.647 224.081 278.48C224.028 278.313 223.968 278.147 223.901 277.98L225.251 277.82C225.305 278.08 225.365 278.34 225.431 278.6C225.498 278.853 225.571 279.103 225.651 279.35C225.731 279.59 225.811 279.817 225.891 280.03C226.045 280.443 226.225 280.85 226.431 281.25C226.645 281.643 226.831 281.953 226.991 282.18C227.078 282.307 227.165 282.427 227.251 282.54C227.345 282.647 227.438 282.75 227.531 282.85L226.911 283.75C226.771 283.723 226.595 283.697 226.381 283.67C226.168 283.637 225.935 283.607 225.681 283.58C225.435 283.553 225.185 283.527 224.931 283.5C224.685 283.473 224.458 283.453 224.251 283.44L224.351 282.38C224.518 282.393 224.695 282.41 224.881 282.43C225.068 282.443 225.241 282.457 225.401 282.47C225.568 282.483 225.705 282.493 225.811 282.5C225.691 282.307 225.565 282.087 225.431 281.84C225.298 281.593 225.168 281.337 225.041 281.07C224.915 280.797 224.798 280.523 224.691 280.25C224.585 279.97 224.491 279.717 224.411 279.49C224.338 279.263 224.275 279.067 224.221 278.9ZM220.581 279.37C221.201 279.443 221.785 279.493 222.331 279.52C222.878 279.547 223.388 279.553 223.861 279.54C224.335 279.527 224.768 279.497 225.161 279.45C225.468 279.41 225.765 279.367 226.051 279.32C226.345 279.273 226.631 279.217 226.911 279.15C227.198 279.083 227.468 279.01 227.721 278.93L227.881 280.19C227.661 280.25 227.421 280.307 227.161 280.36C226.908 280.413 226.645 280.463 226.371 280.51C226.098 280.55 225.828 280.587 225.561 280.62C224.888 280.693 224.148 280.737 223.341 280.75C222.535 280.763 221.621 280.73 220.601 280.65L220.581 279.37ZM222.581 282.78C222.428 283.013 222.308 283.243 222.221 283.47C222.135 283.69 222.091 283.91 222.091 284.13C222.091 284.55 222.275 284.857 222.641 285.05C223.008 285.237 223.531 285.33 224.211 285.33C224.758 285.33 225.251 285.307 225.691 285.26C226.138 285.213 226.538 285.157 226.891 285.09L226.821 286.35C226.541 286.403 226.175 286.457 225.721 286.51C225.275 286.563 224.745 286.59 224.131 286.59C223.458 286.583 222.871 286.493 222.371 286.32C221.871 286.153 221.485 285.903 221.211 285.57C220.938 285.23 220.801 284.823 220.801 284.35C220.801 284.043 220.845 283.743 220.931 283.45C221.025 283.15 221.158 282.83 221.331 282.49L222.581 282.78ZM229.681 279.45C229.895 279.477 230.121 279.497 230.361 279.51C230.608 279.517 230.825 279.52 231.011 279.52C231.425 279.52 231.841 279.497 232.261 279.45C232.688 279.403 233.098 279.343 233.491 279.27C233.885 279.19 234.241 279.1 234.561 279L234.601 280.16C234.315 280.233 233.971 280.31 233.571 280.39C233.178 280.463 232.761 280.527 232.321 280.58C231.881 280.627 231.448 280.65 231.021 280.65C230.821 280.65 230.618 280.647 230.411 280.64C230.205 280.633 229.991 280.623 229.771 280.61L229.681 279.45ZM233.571 277.95C233.531 278.117 233.478 278.333 233.411 278.6C233.345 278.867 233.268 279.147 233.181 279.44C233.101 279.733 233.015 280.023 232.921 280.31C232.775 280.79 232.581 281.3 232.341 281.84C232.101 282.38 231.841 282.907 231.561 283.42C231.281 283.933 230.998 284.39 230.711 284.79L229.501 284.17C229.728 283.89 229.951 283.58 230.171 283.24C230.391 282.9 230.598 282.55 230.791 282.19C230.985 281.83 231.158 281.483 231.311 281.15C231.471 280.81 231.598 280.503 231.691 280.23C231.818 279.877 231.928 279.483 232.021 279.05C232.121 278.61 232.178 278.197 232.191 277.81L233.571 277.95ZM235.911 281.06C235.898 281.273 235.891 281.487 235.891 281.7C235.898 281.907 235.905 282.12 235.911 282.34C235.918 282.493 235.925 282.69 235.931 282.93C235.945 283.163 235.958 283.413 235.971 283.68C235.985 283.94 235.995 284.19 236.001 284.43C236.015 284.663 236.021 284.85 236.021 284.99C236.021 285.297 235.958 285.577 235.831 285.83C235.705 286.077 235.501 286.273 235.221 286.42C234.948 286.567 234.571 286.64 234.091 286.64C233.678 286.64 233.305 286.577 232.971 286.45C232.638 286.33 232.371 286.15 232.171 285.91C231.971 285.663 231.871 285.357 231.871 284.99C231.871 284.663 231.958 284.37 232.131 284.11C232.305 283.843 232.555 283.637 232.881 283.49C233.215 283.337 233.615 283.26 234.081 283.26C234.668 283.26 235.208 283.343 235.701 283.51C236.195 283.67 236.638 283.877 237.031 284.13C237.425 284.383 237.761 284.637 238.041 284.89L237.371 285.96C237.191 285.8 236.985 285.62 236.751 285.42C236.525 285.22 236.268 285.033 235.981 284.86C235.701 284.687 235.395 284.543 235.061 284.43C234.735 284.317 234.381 284.26 234.001 284.26C233.715 284.26 233.485 284.317 233.311 284.43C233.138 284.543 233.051 284.69 233.051 284.87C233.051 285.057 233.125 285.207 233.271 285.32C233.425 285.433 233.638 285.49 233.911 285.49C234.138 285.49 234.318 285.453 234.451 285.38C234.585 285.3 234.678 285.19 234.731 285.05C234.785 284.903 234.811 284.74 234.811 284.56C234.811 284.407 234.805 284.19 234.791 283.91C234.778 283.63 234.761 283.32 234.741 282.98C234.728 282.64 234.715 282.3 234.701 281.96C234.688 281.62 234.675 281.32 234.661 281.06H235.911ZM237.631 281.59C237.438 281.43 237.198 281.26 236.911 281.08C236.625 280.9 236.328 280.73 236.021 280.57C235.721 280.403 235.458 280.27 235.231 280.17L235.871 279.18C236.051 279.26 236.255 279.36 236.481 279.48C236.715 279.593 236.948 279.713 237.181 279.84C237.421 279.967 237.641 280.093 237.841 280.22C238.048 280.34 238.215 280.447 238.341 280.54L237.631 281.59ZM241.151 278.85C241.125 278.97 241.101 279.107 241.081 279.26C241.068 279.413 241.055 279.563 241.041 279.71C241.035 279.857 241.031 279.977 241.031 280.07C241.025 280.29 241.021 280.517 241.021 280.75C241.028 280.983 241.035 281.223 241.041 281.47C241.055 281.71 241.071 281.95 241.091 282.19C241.138 282.67 241.205 283.093 241.291 283.46C241.378 283.827 241.491 284.113 241.631 284.32C241.771 284.52 241.948 284.62 242.161 284.62C242.275 284.62 242.385 284.557 242.491 284.43C242.605 284.303 242.705 284.14 242.791 283.94C242.885 283.733 242.965 283.517 243.031 283.29C243.105 283.063 243.168 282.85 243.221 282.65L244.221 283.87C244.001 284.45 243.781 284.913 243.561 285.26C243.348 285.6 243.125 285.847 242.891 286C242.658 286.147 242.405 286.22 242.131 286.22C241.771 286.22 241.428 286.1 241.101 285.86C240.781 285.62 240.508 285.233 240.281 284.7C240.055 284.16 239.895 283.443 239.801 282.55C239.768 282.243 239.741 281.92 239.721 281.58C239.708 281.24 239.698 280.917 239.691 280.61C239.691 280.303 239.691 280.05 239.691 279.85C239.691 279.71 239.685 279.543 239.671 279.35C239.658 279.157 239.638 278.983 239.611 278.83L241.151 278.85ZM246.151 279.08C246.338 279.307 246.518 279.583 246.691 279.91C246.865 280.237 247.025 280.587 247.171 280.96C247.318 281.333 247.448 281.717 247.561 282.11C247.675 282.497 247.765 282.877 247.831 283.25C247.905 283.617 247.951 283.953 247.971 284.26L246.651 284.77C246.618 284.363 246.558 283.92 246.471 283.44C246.385 282.96 246.268 282.477 246.121 281.99C245.975 281.503 245.798 281.043 245.591 280.61C245.391 280.177 245.155 279.803 244.881 279.49L246.151 279.08ZM248.639 279.14C248.839 279.133 249.029 279.127 249.209 279.12C249.389 279.107 249.525 279.097 249.619 279.09C249.825 279.077 250.079 279.057 250.379 279.03C250.685 278.997 251.025 278.963 251.399 278.93C251.779 278.897 252.182 278.863 252.609 278.83C253.035 278.797 253.479 278.76 253.939 278.72C254.285 278.687 254.629 278.66 254.969 278.64C255.315 278.613 255.642 278.593 255.949 278.58C256.262 278.56 256.535 278.547 256.769 278.54L256.779 279.82C256.599 279.82 256.392 279.823 256.159 279.83C255.925 279.837 255.692 279.85 255.459 279.87C255.232 279.883 255.029 279.913 254.849 279.96C254.549 280.04 254.269 280.177 254.009 280.37C253.749 280.557 253.522 280.78 253.329 281.04C253.142 281.293 252.995 281.57 252.889 281.87C252.782 282.163 252.729 282.46 252.729 282.76C252.729 283.087 252.785 283.377 252.899 283.63C253.019 283.877 253.179 284.09 253.379 284.27C253.585 284.443 253.825 284.59 254.099 284.71C254.372 284.823 254.665 284.91 254.979 284.97C255.299 285.03 255.629 285.07 255.969 285.09L255.499 286.46C255.079 286.433 254.669 286.367 254.269 286.26C253.875 286.153 253.505 286.007 253.159 285.82C252.812 285.633 252.509 285.407 252.249 285.14C251.995 284.867 251.792 284.557 251.639 284.21C251.492 283.857 251.419 283.463 251.419 283.03C251.419 282.55 251.495 282.11 251.649 281.71C251.802 281.303 251.992 280.95 252.219 280.65C252.452 280.343 252.682 280.107 252.909 279.94C252.722 279.967 252.495 279.993 252.229 280.02C251.969 280.047 251.685 280.08 251.379 280.12C251.079 280.153 250.772 280.19 250.459 280.23C250.145 280.27 249.842 280.317 249.549 280.37C249.262 280.417 249.002 280.463 248.769 280.51L248.639 279.14ZM255.349 280.8C255.435 280.92 255.525 281.063 255.619 281.23C255.719 281.39 255.815 281.553 255.909 281.72C256.002 281.88 256.082 282.027 256.149 282.16L255.389 282.5C255.262 282.22 255.139 281.973 255.019 281.76C254.905 281.547 254.769 281.33 254.609 281.11L255.349 280.8ZM256.469 280.34C256.555 280.46 256.649 280.6 256.749 280.76C256.855 280.913 256.959 281.073 257.059 281.24C257.159 281.4 257.242 281.543 257.309 281.67L256.559 282.03C256.425 281.763 256.295 281.527 256.169 281.32C256.049 281.113 255.905 280.9 255.739 280.68L256.469 280.34ZM264.989 278.79C264.829 278.903 264.672 279.023 264.519 279.15C264.365 279.27 264.232 279.38 264.119 279.48C263.952 279.607 263.752 279.763 263.519 279.95C263.292 280.13 263.052 280.32 262.799 280.52C262.552 280.713 262.312 280.903 262.079 281.09C261.845 281.277 261.645 281.443 261.479 281.59C261.305 281.743 261.189 281.87 261.129 281.97C261.069 282.063 261.069 282.157 261.129 282.25C261.195 282.343 261.319 282.47 261.499 282.63C261.645 282.757 261.832 282.913 262.059 283.1C262.292 283.287 262.542 283.493 262.809 283.72C263.082 283.94 263.359 284.17 263.639 284.41C263.925 284.643 264.199 284.877 264.459 285.11C264.725 285.337 264.962 285.55 265.169 285.75L263.999 286.82C263.719 286.507 263.429 286.197 263.129 285.89C262.975 285.737 262.775 285.55 262.529 285.33C262.289 285.103 262.025 284.867 261.739 284.62C261.459 284.373 261.179 284.13 260.899 283.89C260.619 283.643 260.365 283.423 260.139 283.23C259.805 282.95 259.589 282.693 259.489 282.46C259.395 282.227 259.409 281.997 259.529 281.77C259.655 281.537 259.885 281.283 260.219 281.01C260.419 280.857 260.645 280.677 260.899 280.47C261.152 280.257 261.412 280.04 261.679 279.82C261.945 279.593 262.199 279.377 262.439 279.17C262.679 278.957 262.882 278.77 263.049 278.61C263.195 278.463 263.342 278.313 263.489 278.16C263.635 278.007 263.745 277.873 263.819 277.76L264.989 278.79ZM271.789 278.13C271.749 278.27 271.705 278.437 271.659 278.63C271.619 278.817 271.589 278.967 271.569 279.08C271.522 279.307 271.462 279.583 271.389 279.91C271.322 280.237 271.249 280.583 271.169 280.95C271.089 281.31 271.005 281.66 270.919 282C270.825 282.347 270.715 282.727 270.589 283.14C270.469 283.553 270.335 283.97 270.189 284.39C270.049 284.81 269.905 285.213 269.759 285.6C269.612 285.987 269.469 286.33 269.329 286.63L267.929 286.16C268.082 285.907 268.239 285.597 268.399 285.23C268.565 284.863 268.729 284.473 268.889 284.06C269.049 283.64 269.195 283.223 269.329 282.81C269.462 282.39 269.575 282.007 269.669 281.66C269.729 281.42 269.789 281.177 269.849 280.93C269.909 280.683 269.962 280.443 270.009 280.21C270.062 279.977 270.105 279.76 270.139 279.56C270.179 279.353 270.209 279.177 270.229 279.03C270.249 278.843 270.262 278.657 270.269 278.47C270.275 278.283 270.272 278.13 270.259 278.01L271.789 278.13ZM269.239 279.63C269.645 279.63 270.069 279.61 270.509 279.57C270.949 279.53 271.392 279.473 271.839 279.4C272.285 279.32 272.729 279.23 273.169 279.13V280.38C272.755 280.48 272.315 280.563 271.849 280.63C271.382 280.697 270.922 280.75 270.469 280.79C270.015 280.823 269.599 280.84 269.219 280.84C268.979 280.84 268.762 280.837 268.569 280.83C268.375 280.817 268.189 280.807 268.009 280.8L267.979 279.55C268.239 279.577 268.462 279.597 268.649 279.61C268.835 279.623 269.032 279.63 269.239 279.63ZM272.379 281.16C272.659 281.127 272.969 281.103 273.309 281.09C273.649 281.07 273.979 281.06 274.299 281.06C274.585 281.06 274.875 281.067 275.169 281.08C275.469 281.093 275.765 281.117 276.059 281.15L276.029 282.35C275.782 282.317 275.509 282.287 275.209 282.26C274.915 282.233 274.615 282.22 274.309 282.22C273.962 282.22 273.632 282.23 273.319 282.25C273.005 282.263 272.692 282.29 272.379 282.33V281.16ZM272.919 283.67C272.879 283.81 272.845 283.957 272.819 284.11C272.792 284.263 272.779 284.393 272.779 284.5C272.779 284.613 272.802 284.717 272.849 284.81C272.895 284.903 272.969 284.987 273.069 285.06C273.169 285.127 273.305 285.18 273.479 285.22C273.659 285.253 273.882 285.27 274.149 285.27C274.482 285.27 274.822 285.253 275.169 285.22C275.515 285.187 275.869 285.137 276.229 285.07L276.179 286.34C275.899 286.38 275.589 286.413 275.249 286.44C274.909 286.473 274.539 286.49 274.139 286.49C273.299 286.49 272.655 286.35 272.209 286.07C271.769 285.79 271.549 285.4 271.549 284.9C271.549 284.667 271.565 284.433 271.599 284.2C271.639 283.967 271.679 283.753 271.719 283.56L272.919 283.67ZM274.989 278.42C275.075 278.54 275.165 278.683 275.259 278.85C275.359 279.017 275.455 279.183 275.549 279.35C275.642 279.517 275.719 279.663 275.779 279.79L274.979 280.14C274.912 280 274.835 279.847 274.749 279.68C274.662 279.513 274.572 279.347 274.479 279.18C274.385 279.013 274.292 278.87 274.199 278.75L274.989 278.42ZM276.169 277.97C276.262 278.09 276.359 278.237 276.459 278.41C276.559 278.577 276.655 278.743 276.749 278.91C276.849 279.07 276.925 279.21 276.979 279.33L276.189 279.67C276.082 279.457 275.955 279.22 275.809 278.96C275.662 278.7 275.519 278.477 275.379 278.29L276.169 277.97ZM282.119 278.9C282.079 278.787 282.032 278.647 281.979 278.48C281.925 278.313 281.865 278.147 281.799 277.98L283.149 277.82C283.202 278.08 283.262 278.34 283.329 278.6C283.395 278.853 283.469 279.103 283.549 279.35C283.629 279.59 283.709 279.817 283.789 280.03C283.942 280.443 284.122 280.85 284.329 281.25C284.542 281.643 284.729 281.953 284.889 282.18C284.975 282.307 285.062 282.427 285.149 282.54C285.242 282.647 285.335 282.75 285.429 282.85L284.809 283.75C284.669 283.723 284.492 283.697 284.279 283.67C284.065 283.637 283.832 283.607 283.579 283.58C283.332 283.553 283.082 283.527 282.829 283.5C282.582 283.473 282.355 283.453 282.149 283.44L282.249 282.38C282.415 282.393 282.592 282.41 282.779 282.43C282.965 282.443 283.139 282.457 283.299 282.47C283.465 282.483 283.602 282.493 283.709 282.5C283.589 282.307 283.462 282.087 283.329 281.84C283.195 281.593 283.065 281.337 282.939 281.07C282.812 280.797 282.695 280.523 282.589 280.25C282.482 279.97 282.389 279.717 282.309 279.49C282.235 279.263 282.172 279.067 282.119 278.9ZM278.479 279.37C279.099 279.443 279.682 279.493 280.229 279.52C280.775 279.547 281.285 279.553 281.759 279.54C282.232 279.527 282.665 279.497 283.059 279.45C283.365 279.41 283.662 279.367 283.949 279.32C284.242 279.273 284.529 279.217 284.809 279.15C285.095 279.083 285.365 279.01 285.619 278.93L285.779 280.19C285.559 280.25 285.319 280.307 285.059 280.36C284.805 280.413 284.542 280.463 284.269 280.51C283.995 280.55 283.725 280.587 283.459 280.62C282.785 280.693 282.045 280.737 281.239 280.75C280.432 280.763 279.519 280.73 278.499 280.65L278.479 279.37ZM280.479 282.78C280.325 283.013 280.205 283.243 280.119 283.47C280.032 283.69 279.989 283.91 279.989 284.13C279.989 284.55 280.172 284.857 280.539 285.05C280.905 285.237 281.429 285.33 282.109 285.33C282.655 285.33 283.149 285.307 283.589 285.26C284.035 285.213 284.435 285.157 284.789 285.09L284.719 286.35C284.439 286.403 284.072 286.457 283.619 286.51C283.172 286.563 282.642 286.59 282.029 286.59C281.355 286.583 280.769 286.493 280.269 286.32C279.769 286.153 279.382 285.903 279.109 285.57C278.835 285.23 278.699 284.823 278.699 284.35C278.699 284.043 278.742 283.743 278.829 283.45C278.922 283.15 279.055 282.83 279.229 282.49L280.479 282.78ZM289.349 278.85C289.322 278.97 289.299 279.107 289.279 279.26C289.265 279.413 289.252 279.563 289.239 279.71C289.232 279.857 289.229 279.977 289.229 280.07C289.222 280.29 289.219 280.517 289.219 280.75C289.225 280.983 289.232 281.223 289.239 281.47C289.252 281.71 289.269 281.95 289.289 282.19C289.335 282.67 289.402 283.093 289.489 283.46C289.575 283.827 289.689 284.113 289.829 284.32C289.969 284.52 290.145 284.62 290.359 284.62C290.472 284.62 290.582 284.557 290.689 284.43C290.802 284.303 290.902 284.14 290.989 283.94C291.082 283.733 291.162 283.517 291.229 283.29C291.302 283.063 291.365 282.85 291.419 282.65L292.419 283.87C292.199 284.45 291.979 284.913 291.759 285.26C291.545 285.6 291.322 285.847 291.089 286C290.855 286.147 290.602 286.22 290.329 286.22C289.969 286.22 289.625 286.1 289.299 285.86C288.979 285.62 288.705 285.233 288.479 284.7C288.252 284.16 288.092 283.443 287.999 282.55C287.965 282.243 287.939 281.92 287.919 281.58C287.905 281.24 287.895 280.917 287.889 280.61C287.889 280.303 287.889 280.05 287.889 279.85C287.889 279.71 287.882 279.543 287.869 279.35C287.855 279.157 287.835 278.983 287.809 278.83L289.349 278.85ZM294.349 279.08C294.535 279.307 294.715 279.583 294.889 279.91C295.062 280.237 295.222 280.587 295.369 280.96C295.515 281.333 295.645 281.717 295.759 282.11C295.872 282.497 295.962 282.877 296.029 283.25C296.102 283.617 296.149 283.953 296.169 284.26L294.849 284.77C294.815 284.363 294.755 283.92 294.669 283.44C294.582 282.96 294.465 282.477 294.319 281.99C294.172 281.503 293.995 281.043 293.789 280.61C293.589 280.177 293.352 279.803 293.079 279.49L294.349 279.08Z" fill="#4B4B4B"/>
</g>
<rect x="331.5" y="240.5" width="82" height="313" rx="41" transform="rotate(90 331.5 240.5)" stroke="#4B4B4B" stroke-dasharray="2 2"/>
<defs>
<clipPath id="clip0_3101_7236">
<rect x="18" width="149" height="104" fill="white"/>
</clipPath>
<clipPath id="clip1_3101_7236">
<rect x="18" y="120" width="149" height="104" fill="white"/>
</clipPath>
<clipPath id="clip2_3101_7236">
<rect x="183" width="149" height="104" fill="white"/>
</clipPath>
<clipPath id="clip3_3101_7236">
<rect x="183" y="120" width="149" height="104" fill="white"/>
</clipPath>
<clipPath id="clip4_3101_7236">
<rect x="332" y="240" width="83" height="314" rx="41.5" transform="rotate(90 332 240)" fill="white"/>
</clipPath>
</defs>
</svg>
