<svg width="350" height="339" viewBox="0 0 350 339" fill="none" xmlns="http://www.w3.org/2000/svg">
<g clip-path="url(#clip0_3101_7373)">
<path d="M44.36 232H43.64V230.56H42.92V229.12H42.2V227.68H41.48V226.24H40.76V224.8H40.04V223.36H39.32V224.8H38.6V226.24H37.88V227.68H37.16V229.12H36.44V230.56H35.72V232H35V216.16H37.16V224.08H37.88V222.64H38.6V221.2H39.32V219.76H40.04V221.2H40.76V222.64H41.48V224.08H42.2V216.16H44.36V232ZM54.4447 232H45.0847V216.16H54.4447V218.32H47.2447V222.64H53.0047V224.8H47.2447V229.84H54.4447V232ZM60.9294 219.76H58.7694V216.16H60.9294V219.76ZM74.6141 232H72.4541V229.12H71.7341V227.68H71.0141V226.24H70.2941V224.8H67.4141V232H65.2541V216.16H72.4541V216.88H73.1741V217.6H73.8941V218.32H74.6141V222.64H73.8941V223.36H73.1741V224.08H72.4541V225.52H73.1741V226.96H73.8941V228.4H74.6141V232ZM72.4541 221.92V219.04H71.7341V218.32H67.4141V222.64H71.7341V221.92H72.4541ZM84.6987 232H75.3387V216.16H84.6987V218.32H77.4987V222.64H83.2587V224.8H77.4987V229.84H84.6987V232ZM104.868 229.84H104.148V230.56H103.428V231.28H102.708V232H95.5081V216.16H102.708V216.88H103.428V217.6H104.148V218.32H104.868V221.92H104.148V222.64H103.428V223.36H102.708V224.08H103.428V224.8H104.148V225.52H104.868V229.84ZM102.708 221.2V219.04H101.988V218.32H97.6681V222.64H101.268V221.92H101.988V221.2H102.708ZM102.708 229.12V226.24H101.988V225.52H101.268V224.8H97.6681V229.84H101.988V229.12H102.708ZM114.953 229.84H114.233V230.56H113.513V231.28H112.793V232H107.753V231.28H107.033V230.56H106.313V229.84H105.593V216.16H107.753V229.12H108.473V229.84H112.073V229.12H112.793V216.16H114.953V229.84ZM125.037 232H115.677V229.84H119.277V218.32H117.837V216.16H122.877V218.32H121.437V229.84H125.037V232ZM135.122 232H125.762V216.16H127.922V229.84H135.122V232ZM145.207 218.32H141.607V232H139.447V218.32H135.847V216.16H145.207V218.32ZM165.376 218.32H158.176V222.64H163.216V224.8H158.176V232H156.016V216.16H165.376V218.32ZM175.461 229.12H174.741V229.84H174.021V230.56H173.301V231.28H172.581V232H168.981V231.28H168.261V230.56H167.541V229.84H166.821V229.12H166.101V219.04H166.821V218.32H167.541V217.6H168.261V216.88H168.981V216.16H172.581V216.88H173.301V217.6H174.021V218.32H174.741V219.04H175.461V229.12ZM173.301 228.4V219.76H172.581V219.04H171.861V218.32H169.701V219.04H168.981V219.76H168.261V228.4H168.981V229.12H169.701V229.84H171.861V229.12H172.581V228.4H173.301ZM185.546 232H183.386V229.12H182.666V227.68H181.946V226.24H181.226V224.8H178.346V232H176.186V216.16H183.386V216.88H184.106V217.6H184.826V218.32H185.546V222.64H184.826V223.36H184.106V224.08H183.386V225.52H184.106V226.96H184.826V228.4H185.546V232ZM183.386 221.92V219.04H182.666V218.32H178.346V222.64H182.666V221.92H183.386ZM175.461 270.96H166.101V268.8H175.461V270.96ZM44.36 298H42.2V297.28H41.48V295.84H40.76V294.4H40.04V292.96H39.32V291.52H38.6V290.08H37.88V288.64H37.16V298H35V282.16H36.44V283.6H37.16V285.04H37.88V286.48H38.6V287.92H39.32V289.36H40.04V290.8H40.76V292.24H41.48V293.68H42.2V282.16H44.36V298ZM54.4447 295.12H53.7247V295.84H53.0047V296.56H52.2847V297.28H51.5647V298H47.9647V297.28H47.2447V296.56H46.5247V295.84H45.8047V295.12H45.0847V285.04H45.8047V284.32H46.5247V283.6H47.2447V282.88H47.9647V282.16H51.5647V282.88H52.2847V283.6H53.0047V284.32H53.7247V285.04H54.4447V295.12ZM52.2847 294.4V285.76H51.5647V285.04H50.8447V284.32H48.6847V285.04H47.9647V285.76H47.2447V294.4H47.9647V295.12H48.6847V295.84H50.8447V295.12H51.5647V294.4H52.2847ZM64.5294 284.32H60.9294V298H58.7694V284.32H55.1694V282.16H64.5294V284.32ZM84.6987 295.12H83.9787V295.84H83.2587V296.56H82.5387V297.28H81.8187V298H77.4987V297.28H76.7787V296.56H76.0587V295.84H75.3387V292.96H77.4987V295.12H78.2187V295.84H81.0987V295.12H81.8187V294.4H82.5387V284.32H78.2187V282.16H84.6987V295.12ZM94.7834 295.84H94.0634V296.56H93.3434V297.28H92.6234V298H87.5834V297.28H86.8634V296.56H86.1434V295.84H85.4234V282.16H87.5834V295.12H88.3034V295.84H91.9034V295.12H92.6234V282.16H94.7834V295.84ZM104.868 295.84H104.148V296.56H103.428V297.28H102.708V298H97.6681V297.28H96.9481V296.56H96.2281V295.84H95.5081V293.68H97.6681V295.12H98.3881V295.84H101.988V295.12H102.708V291.52H101.988V290.8H97.6681V290.08H96.9481V289.36H96.2281V288.64H95.5081V284.32H96.2281V283.6H96.9481V282.88H97.6681V282.16H102.708V282.88H103.428V283.6H104.148V284.32H104.868V286.48H102.708V285.04H101.988V284.32H98.3881V285.04H97.6681V287.92H98.3881V288.64H102.708V289.36H103.428V290.08H104.148V290.8H104.868V295.84ZM114.953 284.32H111.353V298H109.193V284.32H105.593V282.16H114.953V284.32ZM135.122 295.12H134.402V295.84H133.682V296.56H132.962V297.28H132.242V298H128.642V297.28H127.922V296.56H127.202V295.84H126.482V295.12H125.762V285.04H126.482V284.32H127.202V283.6H127.922V282.88H128.642V282.16H132.242V282.88H132.962V283.6H133.682V284.32H134.402V285.04H135.122V295.12ZM132.962 294.4V285.76H132.242V285.04H131.522V284.32H129.362V285.04H128.642V285.76H127.922V294.4H128.642V295.12H129.362V295.84H131.522V295.12H132.242V294.4H132.962ZM145.207 298H143.047V297.28H142.327V295.84H141.607V294.4H140.887V292.96H140.167V291.52H139.447V290.08H138.727V288.64H138.007V298H135.847V282.16H137.287V283.6H138.007V285.04H138.727V286.48H139.447V287.92H140.167V289.36H140.887V290.8H141.607V292.24H142.327V293.68H143.047V282.16H145.207V298ZM155.292 298H145.932V282.16H155.292V284.32H148.092V288.64H153.852V290.8H148.092V295.84H155.292V298ZM163.936 292.96H157.456V290.8H163.936V292.96ZM175.461 295.12H174.741V295.84H174.021V296.56H173.301V297.28H172.581V298H168.981V297.28H168.261V296.56H167.541V295.84H166.821V295.12H166.101V285.04H166.821V284.32H167.541V283.6H168.261V282.88H168.981V282.16H172.581V282.88H173.301V283.6H174.021V284.32H174.741V285.04H175.461V295.12ZM173.301 294.4V285.76H172.581V285.04H171.861V284.32H169.701V285.04H168.981V285.76H168.261V294.4H168.981V295.12H169.701V295.84H171.861V295.12H172.581V294.4H173.301ZM185.546 284.32H178.346V288.64H183.386V290.8H178.346V298H176.186V282.16H185.546V284.32ZM195.63 284.32H188.43V288.64H193.47V290.8H188.43V298H186.27V282.16H195.63V284.32ZM44.36 317.84H43.64V318.56H42.92V319.28H42.2V320H35V304.16H42.2V304.88H42.92V305.6H43.64V306.32H44.36V309.92H43.64V310.64H42.92V311.36H42.2V312.08H42.92V312.8H43.64V313.52H44.36V317.84ZM42.2 309.2V307.04H41.48V306.32H37.16V310.64H40.76V309.92H41.48V309.2H42.2ZM42.2 317.12V314.24H41.48V313.52H40.76V312.8H37.16V317.84H41.48V317.12H42.2ZM54.4447 317.84H53.7247V318.56H53.0047V319.28H52.2847V320H47.2447V319.28H46.5247V318.56H45.8047V317.84H45.0847V304.16H47.2447V317.12H47.9647V317.84H51.5647V317.12H52.2847V304.16H54.4447V317.84ZM64.5294 320H55.1694V317.84H58.7694V306.32H57.3294V304.16H62.3694V306.32H60.9294V317.84H64.5294V320ZM74.6141 320H65.2541V304.16H67.4141V317.84H74.6141V320ZM84.6987 316.4H83.9787V317.12H83.2587V317.84H82.5387V318.56H81.8187V319.28H81.0747V320H75.3387V304.16H81.0987V304.88H81.8187V305.6H82.5387V306.32H83.2587V307.04H83.9787V307.76H84.6987V316.4ZM82.5387 315.68V308.48H81.8187V307.76H81.0987V307.04H80.3787V306.32H77.4987V317.84H80.3787V317.12H81.0987V316.4H81.8187V315.68H82.5387ZM94.7834 317.84H94.0634V318.56H93.3434V319.28H92.6234V320H87.5834V319.28H86.8634V318.56H86.1434V317.84H85.4234V315.68H87.5834V317.12H88.3034V317.84H91.9034V317.12H92.6234V313.52H91.9034V312.8H87.5834V312.08H86.8634V311.36H86.1434V310.64H85.4234V306.32H86.1434V305.6H86.8634V304.88H87.5834V304.16H92.6234V304.88H93.3434V305.6H94.0634V306.32H94.7834V308.48H92.6234V307.04H91.9034V306.32H88.3034V307.04H87.5834V309.92H88.3034V310.64H92.6234V311.36H93.3434V312.08H94.0634V312.8H94.7834V317.84ZM101.268 320H98.3881V317.12H101.268V320Z" fill="#D9D9D9"/>
<path d="M44.36 254H35V238.16H37.16V251.84H44.36V254ZM54.4447 251.12H53.7247V251.84H53.0047V252.56H52.2847V253.28H51.5647V254H47.9647V253.28H47.2447V252.56H46.5247V251.84H45.8047V251.12H45.0847V241.04H45.8047V240.32H46.5247V239.6H47.2447V238.88H47.9647V238.16H51.5647V238.88H52.2847V239.6H53.0047V240.32H53.7247V241.04H54.4447V251.12ZM52.2847 250.4V241.76H51.5647V241.04H50.8447V240.32H48.6847V241.04H47.9647V241.76H47.2447V250.4H47.9647V251.12H48.6847V251.84H50.8447V251.12H51.5647V250.4H52.2847ZM64.5294 254H62.3694V253.28H61.6494V251.84H60.9294V250.4H60.2094V248.96H59.4894V247.52H58.7694V246.08H58.0494V244.64H57.3294V254H55.1694V238.16H56.6094V239.6H57.3294V241.04H58.0494V242.48H58.7694V243.92H59.4894V245.36H60.2094V246.8H60.9294V248.24H61.6494V249.68H62.3694V238.16H64.5294V254ZM74.6141 252.56H73.8941V253.28H73.1741V254H68.1341V253.28H67.4141V252.56H66.6941V251.84H65.9741V251.12H65.2541V241.04H65.9741V240.32H66.6941V239.6H67.4141V238.88H68.1341V238.16H73.1741V238.88H73.8941V239.6H74.6141V241.04H72.4541V240.32H68.8541V241.04H68.1341V241.76H67.4141V250.4H68.1341V251.12H68.8541V251.84H72.4541V247.52H71.7341V248.24H69.5741V245.36H74.6141V252.56ZM83.2587 248.96H76.7787V246.8H83.2587V248.96ZM94.7834 240.32H91.1834V254H89.0234V240.32H85.4234V238.16H94.7834V240.32ZM104.868 254H95.5081V238.16H104.868V240.32H97.6681V244.64H103.428V246.8H97.6681V251.84H104.868V254ZM114.953 254H112.793V251.12H112.073V249.68H111.353V248.24H110.633V246.8H107.753V254H105.593V238.16H112.793V238.88H113.513V239.6H114.233V240.32H114.953V244.64H114.233V245.36H113.513V246.08H112.793V247.52H113.513V248.96H114.233V250.4H114.953V254ZM112.793 243.92V241.04H112.073V240.32H107.753V244.64H112.073V243.92H112.793ZM125.037 254H122.877V246.08H122.157V247.52H121.437V248.96H120.717V250.4H119.997V248.96H119.277V247.52H118.557V246.08H117.837V254H115.677V238.16H116.397V239.6H117.117V241.04H117.837V242.48H118.557V243.92H119.277V245.36H119.997V246.8H120.717V245.36H121.437V243.92H122.157V242.48H122.877V241.04H123.597V239.6H124.317V238.16H125.037V254ZM44.36 267.36H43.64V268.08H42.92V268.8H42.2V269.52H37.16V276H35V260.16H42.2V260.88H42.92V261.6H43.64V262.32H44.36V267.36ZM42.2 266.64V263.04H41.48V262.32H37.16V267.36H41.48V266.64H42.2ZM54.4447 276H52.2847V272.4H47.2447V276H45.0847V270.24V269.52V268.08H45.8047V266.64H46.5247V265.2H47.2447V263.76H47.9647V262.32H48.6847V260.88H49.4047V260.16H50.1247V260.88H50.8447V262.32H51.5647V263.76H52.2847V265.2H53.0047V266.64H53.7247V268.08H54.4447V269.52V270.24V276ZM52.2847 270.24V269.52V268.8H51.5647V267.36H50.8447V265.92H50.1247V264.48H49.4047V265.92H48.6847V267.36H47.9647V268.8H47.2447V269.52V270.24H52.2847ZM64.5294 276H62.3694V273.12H61.6494V271.68H60.9294V270.24H60.2094V268.8H57.3294V276H55.1694V260.16H62.3694V260.88H63.0894V261.6H63.8094V262.32H64.5294V266.64H63.8094V267.36H63.0894V268.08H62.3694V269.52H63.0894V270.96H63.8094V272.4H64.5294V276ZM62.3694 265.92V263.04H61.6494V262.32H57.3294V266.64H61.6494V265.92H62.3694ZM74.6141 262.32H71.0141V276H68.8541V262.32H65.2541V260.16H74.6141V262.32ZM84.6987 276H82.5387V275.28H81.8187V273.84H81.0987V272.4H80.3787V270.96H79.6587V269.52H78.9387V268.08H78.2187V266.64H77.4987V276H75.3387V260.16H76.7787V261.6H77.4987V263.04H78.2187V264.48H78.9387V265.92H79.6587V267.36H80.3787V268.8H81.0987V270.24H81.8187V271.68H82.5387V260.16H84.6987V276ZM94.7834 276H85.4234V260.16H94.7834V262.32H87.5834V266.64H93.3434V268.8H87.5834V273.84H94.7834V276ZM104.868 276H102.708V273.12H101.988V271.68H101.268V270.24H100.548V268.8H97.6681V276H95.5081V260.16H102.708V260.88H103.428V261.6H104.148V262.32H104.868V266.64H104.148V267.36H103.428V268.08H102.708V269.52H103.428V270.96H104.148V272.4H104.868V276ZM102.708 265.92V263.04H101.988V262.32H97.6681V266.64H101.988V265.92H102.708ZM114.953 273.84H114.233V274.56H113.513V275.28H112.793V276H107.753V275.28H107.033V274.56H106.313V273.84H105.593V271.68H107.753V273.12H108.473V273.84H112.073V273.12H112.793V269.52H112.073V268.8H107.753V268.08H107.033V267.36H106.313V266.64H105.593V262.32H106.313V261.6H107.033V260.88H107.753V260.16H112.793V260.88H113.513V261.6H114.233V262.32H114.953V264.48H112.793V263.04H112.073V262.32H108.473V263.04H107.753V265.92H108.473V266.64H112.793V267.36H113.513V268.08H114.233V268.8H114.953V273.84ZM125.037 276H122.877V268.8H117.837V276H115.677V260.16H117.837V266.64H122.877V260.16H125.037V276ZM135.122 276H125.762V273.84H129.362V262.32H127.922V260.16H132.962V262.32H131.522V273.84H135.122V276ZM145.207 267.36H144.487V268.08H143.767V268.8H143.047V269.52H138.007V276H135.847V260.16H143.047V260.88H143.767V261.6H144.487V262.32H145.207V267.36ZM143.047 266.64V263.04H142.327V262.32H138.007V267.36H142.327V266.64H143.047ZM155.292 273.84H154.572V274.56H153.852V275.28H153.132V276H148.092V275.28H147.372V274.56H146.652V273.84H145.932V271.68H148.092V273.12H148.812V273.84H152.412V273.12H153.132V269.52H152.412V268.8H148.092V268.08H147.372V267.36H146.652V266.64H145.932V262.32H146.652V261.6H147.372V260.88H148.092V260.16H153.132V260.88H153.852V261.6H154.572V262.32H155.292V264.48H153.132V263.04H152.412V262.32H148.812V263.04H148.092V265.92H148.812V266.64H153.132V267.36H153.852V268.08H154.572V268.8H155.292V273.84Z" fill="#0000FF"/>
<path d="M39.68 25H35V23.92H36.8V18.16H36.08V17.08H38.6V18.16H37.88V23.92H39.68V25ZM44.7223 23.2H44.3623V23.56H44.0023V23.92H43.6423V24.28H43.2823V24.64H42.9103V25H40.0423V17.08H42.9223V17.44H43.2823V17.8H43.6423V18.16H44.0023V18.52H44.3623V18.88H44.7223V23.2ZM43.6423 22.84V19.24H43.2823V18.88H42.9223V18.52H42.5623V18.16H41.1223V23.92H42.5623V23.56H42.9223V23.2H43.2823V22.84H43.6423ZM47.9647 25H46.5247V23.56H47.9647V25ZM54.807 23.92H54.447V24.28H54.087V24.64H53.727V25H50.847V24.64H50.487V24.28H50.127V23.56H51.207V23.92H53.367V23.56H53.727V21.4H53.367V21.04H50.127V17.08H54.807V18.16H51.207V19.96H53.727V20.32H54.087V20.68H54.447V21.04H54.807V23.92ZM58.0494 25H56.6094V23.56H58.0494V25ZM64.8917 23.56H64.5317V23.92H64.1717V24.28H63.8117V24.64H63.4517V25H61.6517V24.64H61.2917V24.28H60.9317V23.92H60.5717V23.56H60.2117V18.52H60.5717V18.16H60.9317V17.8H61.2917V17.44H61.6517V17.08H63.4517V17.44H63.8117V17.8H64.1717V18.16H64.5317V18.52H64.8917V23.56ZM63.4517 18.88V18.52V18.16H61.6517V18.52H61.2917V22.48H61.6517V21.76H62.0117V21.04H62.3717V20.32H62.7317V19.6H63.0917V18.88H63.4517ZM63.8117 23.56V19.96H63.4517V20.68H63.0917V21.4H62.7317V22.12H62.3717V22.84H62.0117V23.56H61.6517V23.92H63.4517V23.56H63.8117ZM69.9341 23.56H69.5741V23.92H69.2141V24.28H68.8541V24.64H68.4941V25H66.6941V24.64H66.3341V24.28H65.9741V23.92H65.6141V23.56H65.2541V18.52H65.6141V18.16H65.9741V17.8H66.3341V17.44H66.6941V17.08H68.4941V17.44H68.8541V17.8H69.2141V18.16H69.5741V18.52H69.9341V23.56ZM68.4941 18.88V18.52V18.16H66.6941V18.52H66.3341V22.48H66.6941V21.76H67.0541V21.04H67.4141V20.32H67.7741V19.6H68.1341V18.88H68.4941ZM68.8541 23.56V19.96H68.4941V20.68H68.1341V21.4H67.7741V22.12H67.4141V22.84H67.0541V23.56H66.6941V23.92H68.4941V23.56H68.8541ZM74.9764 25H70.2964V23.92H72.0964V18.16H71.0164V17.08H73.1764V23.92H74.9764V25Z" fill="#4B4B4B"/>
<path d="M83.564 20.476H94.448V21.748H83.564V20.476ZM86.36 17.02H92.852V18.136H86.36V17.02ZM86.36 18.748H92.852V19.864H86.36V18.748ZM84.092 24.688C84.564 24.632 85.104 24.564 85.712 24.484C86.328 24.396 86.972 24.304 87.644 24.208C88.324 24.112 88.992 24.016 89.648 23.92L89.72 25.18C89.104 25.276 88.48 25.376 87.848 25.48C87.216 25.584 86.608 25.676 86.024 25.756C85.44 25.844 84.904 25.928 84.416 26.008L84.092 24.688ZM89.504 20.836C89.896 21.884 90.516 22.744 91.364 23.416C92.212 24.088 93.316 24.548 94.676 24.796C94.572 24.9 94.46 25.028 94.34 25.18C94.228 25.332 94.12 25.488 94.016 25.648C93.912 25.808 93.828 25.956 93.764 26.092C92.78 25.86 91.932 25.524 91.22 25.084C90.508 24.652 89.904 24.108 89.408 23.452C88.92 22.796 88.512 22.028 88.184 21.148L89.504 20.836ZM92.912 21.592L94.076 22.396C93.78 22.612 93.468 22.824 93.14 23.032C92.82 23.232 92.496 23.42 92.168 23.596C91.84 23.772 91.536 23.928 91.256 24.064L90.296 23.32C90.576 23.176 90.876 23.008 91.196 22.816C91.516 22.616 91.824 22.408 92.12 22.192C92.424 21.976 92.688 21.776 92.912 21.592ZM85.568 15.22H93.176V16.396H87.044V21.004H85.568V15.22ZM85.568 20.86H87.044V24.844L85.568 25V20.86ZM102.02 15.34H105.116V16.648H102.02V15.34ZM102.02 18.052H105.116V19.324H102.02V18.052ZM102.008 20.8H105.128V22.084H102.008V20.8ZM104.504 15.34H105.884V24.484C105.884 24.836 105.844 25.112 105.764 25.312C105.684 25.52 105.54 25.684 105.332 25.804C105.124 25.916 104.86 25.988 104.54 26.02C104.228 26.052 103.848 26.064 103.4 26.056C103.376 25.864 103.324 25.632 103.244 25.36C103.164 25.096 103.08 24.872 102.992 24.688C103.248 24.704 103.5 24.712 103.748 24.712C104.004 24.712 104.176 24.712 104.264 24.712C104.352 24.712 104.412 24.696 104.444 24.664C104.484 24.624 104.504 24.56 104.504 24.472V15.34ZM101.42 15.34H102.776V19.756C102.776 20.228 102.76 20.744 102.728 21.304C102.704 21.864 102.648 22.432 102.56 23.008C102.48 23.576 102.364 24.128 102.212 24.664C102.06 25.2 101.852 25.68 101.588 26.104C101.516 26.016 101.408 25.916 101.264 25.804C101.12 25.7 100.976 25.6 100.832 25.504C100.688 25.408 100.56 25.336 100.448 25.288C100.752 24.768 100.972 24.188 101.108 23.548C101.244 22.908 101.328 22.26 101.36 21.604C101.4 20.94 101.42 20.324 101.42 19.756V15.34ZM95.144 16.216H101.024V17.476H95.144V16.216ZM96.704 18.184H99.572V19.276H96.704V18.184ZM96.704 20.044H99.572V21.148H96.704V20.044ZM95 21.952H100.94V23.212H95V21.952ZM96.08 14.944H97.376V22.408H96.08V14.944ZM98.876 14.944H100.196V22.408H98.876V14.944ZM96.488 23.296L97.856 23.692C97.632 24.132 97.356 24.568 97.028 25C96.7 25.44 96.376 25.808 96.056 26.104C95.976 26.016 95.864 25.92 95.72 25.816C95.584 25.712 95.44 25.608 95.288 25.504C95.144 25.4 95.016 25.316 94.904 25.252C95.224 25.012 95.524 24.716 95.804 24.364C96.092 24.012 96.32 23.656 96.488 23.296ZM98.276 23.836L99.368 23.236C99.528 23.404 99.692 23.596 99.86 23.812C100.036 24.02 100.2 24.228 100.352 24.436C100.512 24.636 100.64 24.82 100.736 24.988L99.572 25.66C99.492 25.5 99.376 25.312 99.224 25.096C99.08 24.888 98.924 24.672 98.756 24.448C98.588 24.224 98.428 24.02 98.276 23.836ZM107.996 16.756H111.68V24.832H107.996V23.572H110.384V18.004H107.996V16.756ZM107.156 16.756H108.464V25.72H107.156V16.756ZM107.948 19.96H111.008V21.208H107.948V19.96ZM108.872 14.8L110.432 15.028C110.304 15.436 110.164 15.84 110.012 16.24C109.868 16.64 109.736 16.98 109.616 17.26L108.464 16.996C108.52 16.788 108.572 16.556 108.62 16.3C108.676 16.044 108.728 15.784 108.776 15.52C108.824 15.256 108.856 15.016 108.872 14.8ZM113.264 16.66H116.78V17.98H113.264V16.66ZM116.276 16.66H117.608C117.608 16.66 117.608 16.704 117.608 16.792C117.608 16.872 117.608 16.964 117.608 17.068C117.608 17.172 117.604 17.252 117.596 17.308C117.564 18.66 117.524 19.808 117.476 20.752C117.436 21.688 117.384 22.464 117.32 23.08C117.264 23.688 117.196 24.164 117.116 24.508C117.036 24.852 116.932 25.104 116.804 25.264C116.644 25.496 116.472 25.656 116.288 25.744C116.104 25.832 115.892 25.896 115.652 25.936C115.42 25.968 115.132 25.98 114.788 25.972C114.452 25.972 114.108 25.968 113.756 25.96C113.748 25.76 113.7 25.524 113.612 25.252C113.524 24.988 113.416 24.756 113.288 24.556C113.672 24.588 114.028 24.608 114.356 24.616C114.692 24.624 114.936 24.628 115.088 24.628C115.208 24.628 115.304 24.616 115.376 24.592C115.456 24.56 115.532 24.504 115.604 24.424C115.708 24.32 115.792 24.108 115.856 23.788C115.928 23.46 115.988 23 116.036 22.408C116.084 21.816 116.128 21.068 116.168 20.164C116.208 19.26 116.244 18.184 116.276 16.936V16.66ZM113.3 14.812L114.692 15.136C114.54 15.72 114.352 16.304 114.128 16.888C113.912 17.472 113.672 18.024 113.408 18.544C113.152 19.056 112.888 19.504 112.616 19.888C112.536 19.808 112.42 19.716 112.268 19.612C112.124 19.5 111.976 19.392 111.824 19.288C111.68 19.184 111.552 19.104 111.44 19.048C111.704 18.704 111.952 18.308 112.184 17.86C112.424 17.404 112.636 16.916 112.82 16.396C113.012 15.868 113.172 15.34 113.3 14.812ZM112.712 20.128L113.84 19.492C114.04 19.764 114.252 20.064 114.476 20.392C114.7 20.72 114.912 21.04 115.112 21.352C115.312 21.664 115.476 21.94 115.604 22.18L114.38 22.924C114.268 22.676 114.116 22.392 113.924 22.072C113.74 21.752 113.54 21.424 113.324 21.088C113.116 20.744 112.912 20.424 112.712 20.128ZM118.916 17.14C119.172 17.172 119.444 17.196 119.732 17.212C120.028 17.22 120.288 17.224 120.512 17.224C121.008 17.224 121.508 17.196 122.012 17.14C122.524 17.084 123.016 17.012 123.488 16.924C123.96 16.828 124.388 16.72 124.772 16.6L124.82 17.992C124.476 18.08 124.064 18.172 123.584 18.268C123.112 18.356 122.612 18.432 122.084 18.496C121.556 18.552 121.036 18.58 120.524 18.58C120.284 18.58 120.04 18.576 119.792 18.568C119.544 18.56 119.288 18.548 119.024 18.532L118.916 17.14ZM123.584 15.34C123.536 15.54 123.472 15.8 123.392 16.12C123.312 16.44 123.22 16.776 123.116 17.128C123.02 17.48 122.916 17.828 122.804 18.172C122.628 18.748 122.396 19.36 122.108 20.008C121.82 20.656 121.508 21.288 121.172 21.904C120.836 22.52 120.496 23.068 120.152 23.548L118.7 22.804C118.972 22.468 119.24 22.096 119.504 21.688C119.768 21.28 120.016 20.86 120.248 20.428C120.48 19.996 120.688 19.58 120.872 19.18C121.064 18.772 121.216 18.404 121.328 18.076C121.48 17.652 121.612 17.18 121.724 16.66C121.844 16.132 121.912 15.636 121.928 15.172L123.584 15.34ZM126.392 19.072C126.376 19.328 126.368 19.584 126.368 19.84C126.376 20.088 126.384 20.344 126.392 20.608C126.4 20.792 126.408 21.028 126.416 21.316C126.432 21.596 126.448 21.896 126.464 22.216C126.48 22.528 126.492 22.828 126.5 23.116C126.516 23.396 126.524 23.62 126.524 23.788C126.524 24.156 126.448 24.492 126.296 24.796C126.144 25.092 125.9 25.328 125.564 25.504C125.236 25.68 124.784 25.768 124.208 25.768C123.712 25.768 123.264 25.692 122.864 25.54C122.464 25.396 122.144 25.18 121.904 24.892C121.664 24.596 121.544 24.228 121.544 23.788C121.544 23.396 121.648 23.044 121.856 22.732C122.064 22.412 122.364 22.164 122.756 21.988C123.156 21.804 123.636 21.712 124.196 21.712C124.9 21.712 125.548 21.812 126.14 22.012C126.732 22.204 127.264 22.452 127.736 22.756C128.208 23.06 128.612 23.364 128.948 23.668L128.144 24.952C127.928 24.76 127.68 24.544 127.4 24.304C127.128 24.064 126.82 23.84 126.476 23.632C126.14 23.424 125.772 23.252 125.372 23.116C124.98 22.98 124.556 22.912 124.1 22.912C123.756 22.912 123.48 22.98 123.272 23.116C123.064 23.252 122.96 23.428 122.96 23.644C122.96 23.868 123.048 24.048 123.224 24.184C123.408 24.32 123.664 24.388 123.992 24.388C124.264 24.388 124.48 24.344 124.64 24.256C124.8 24.16 124.912 24.028 124.976 23.86C125.04 23.684 125.072 23.488 125.072 23.272C125.072 23.088 125.064 22.828 125.048 22.492C125.032 22.156 125.012 21.784 124.988 21.376C124.972 20.968 124.956 20.56 124.94 20.152C124.924 19.744 124.908 19.384 124.892 19.072H126.392ZM128.456 19.708C128.224 19.516 127.936 19.312 127.592 19.096C127.248 18.88 126.892 18.676 126.524 18.484C126.164 18.284 125.848 18.124 125.576 18.004L126.344 16.816C126.56 16.912 126.804 17.032 127.076 17.176C127.356 17.312 127.636 17.456 127.916 17.608C128.204 17.76 128.468 17.912 128.708 18.064C128.956 18.208 129.156 18.336 129.308 18.448L128.456 19.708ZM139.172 16.372C139.172 16.564 139.24 16.728 139.376 16.864C139.512 16.992 139.676 17.056 139.868 17.056C140.06 17.056 140.224 16.992 140.36 16.864C140.496 16.728 140.564 16.564 140.564 16.372C140.564 16.18 140.496 16.016 140.36 15.88C140.224 15.744 140.06 15.676 139.868 15.676C139.676 15.676 139.512 15.744 139.376 15.88C139.24 16.016 139.172 16.18 139.172 16.372ZM138.428 16.372C138.428 16.108 138.492 15.868 138.62 15.652C138.756 15.428 138.932 15.252 139.148 15.124C139.364 14.996 139.604 14.932 139.868 14.932C140.132 14.932 140.372 14.996 140.588 15.124C140.804 15.252 140.976 15.428 141.104 15.652C141.24 15.868 141.308 16.108 141.308 16.372C141.308 16.628 141.24 16.864 141.104 17.08C140.976 17.296 140.804 17.472 140.588 17.608C140.372 17.736 140.132 17.8 139.868 17.8C139.604 17.8 139.364 17.736 139.148 17.608C138.932 17.472 138.756 17.296 138.62 17.08C138.492 16.864 138.428 16.628 138.428 16.372ZM131.864 21.268C132 20.932 132.128 20.58 132.248 20.212C132.376 19.836 132.488 19.452 132.584 19.06C132.68 18.66 132.764 18.264 132.836 17.872C132.916 17.48 132.972 17.092 133.004 16.708L134.756 17.068C134.724 17.18 134.688 17.312 134.648 17.464C134.608 17.616 134.572 17.764 134.54 17.908C134.508 18.052 134.484 18.172 134.468 18.268C134.428 18.476 134.372 18.728 134.3 19.024C134.228 19.32 134.144 19.636 134.048 19.972C133.952 20.3 133.852 20.632 133.748 20.968C133.652 21.296 133.552 21.6 133.448 21.88C133.304 22.264 133.132 22.664 132.932 23.08C132.74 23.496 132.532 23.896 132.308 24.28C132.092 24.664 131.88 25.008 131.672 25.312L129.992 24.604C130.376 24.108 130.732 23.56 131.06 22.96C131.396 22.36 131.664 21.796 131.864 21.268ZM137.792 21.016C137.672 20.696 137.54 20.356 137.396 19.996C137.252 19.636 137.1 19.276 136.94 18.916C136.78 18.556 136.624 18.216 136.472 17.896C136.32 17.576 136.18 17.3 136.052 17.068L137.648 16.552C137.768 16.784 137.908 17.064 138.068 17.392C138.228 17.72 138.388 18.068 138.548 18.436C138.708 18.796 138.864 19.156 139.016 19.516C139.168 19.876 139.304 20.2 139.424 20.488C139.528 20.752 139.64 21.064 139.76 21.424C139.888 21.784 140.016 22.16 140.144 22.552C140.28 22.936 140.404 23.312 140.516 23.68C140.636 24.048 140.736 24.38 140.816 24.676L139.04 25.252C138.936 24.78 138.816 24.3 138.68 23.812C138.544 23.324 138.4 22.844 138.248 22.372C138.104 21.9 137.952 21.448 137.792 21.016ZM142.304 19.444C142.448 19.452 142.632 19.464 142.856 19.48C143.08 19.488 143.312 19.496 143.552 19.504C143.8 19.512 144.028 19.516 144.236 19.516C144.436 19.516 144.684 19.516 144.98 19.516C145.276 19.516 145.596 19.516 145.94 19.516C146.292 19.516 146.652 19.516 147.02 19.516C147.396 19.516 147.768 19.516 148.136 19.516C148.504 19.516 148.852 19.516 149.18 19.516C149.508 19.516 149.8 19.516 150.056 19.516C150.32 19.516 150.528 19.516 150.68 19.516C150.96 19.516 151.224 19.508 151.472 19.492C151.72 19.468 151.924 19.452 152.084 19.444V21.328C151.948 21.32 151.744 21.308 151.472 21.292C151.2 21.276 150.936 21.268 150.68 21.268C150.528 21.268 150.32 21.268 150.056 21.268C149.792 21.268 149.496 21.268 149.168 21.268C148.84 21.268 148.492 21.268 148.124 21.268C147.764 21.268 147.396 21.268 147.02 21.268C146.644 21.268 146.28 21.268 145.928 21.268C145.584 21.268 145.264 21.268 144.968 21.268C144.68 21.268 144.436 21.268 144.236 21.268C143.892 21.268 143.54 21.276 143.18 21.292C142.82 21.3 142.528 21.312 142.304 21.328V19.444ZM156.608 23.848C156.608 23.696 156.608 23.448 156.608 23.104C156.608 22.752 156.608 22.348 156.608 21.892C156.608 21.428 156.608 20.944 156.608 20.44C156.608 19.936 156.608 19.452 156.608 18.988C156.608 18.516 156.608 18.1 156.608 17.74C156.608 17.38 156.608 17.116 156.608 16.948C156.608 16.74 156.596 16.5 156.572 16.228C156.556 15.956 156.528 15.716 156.488 15.508H158.36C158.336 15.716 158.312 15.948 158.288 16.204C158.264 16.452 158.252 16.7 158.252 16.948C158.252 17.172 158.252 17.476 158.252 17.86C158.252 18.244 158.252 18.672 158.252 19.144C158.252 19.608 158.252 20.084 158.252 20.572C158.252 21.052 158.252 21.516 158.252 21.964C158.252 22.412 158.252 22.804 158.252 23.14C158.252 23.468 158.252 23.704 158.252 23.848C158.252 23.96 158.256 24.12 158.264 24.328C158.272 24.528 158.288 24.736 158.312 24.952C158.336 25.168 158.352 25.36 158.36 25.528H156.488C156.52 25.288 156.548 25.008 156.572 24.688C156.596 24.368 156.608 24.088 156.608 23.848ZM157.892 18.616C158.292 18.72 158.74 18.856 159.236 19.024C159.732 19.184 160.232 19.356 160.736 19.54C161.24 19.724 161.712 19.908 162.152 20.092C162.6 20.268 162.972 20.432 163.268 20.584L162.584 22.24C162.248 22.064 161.876 21.888 161.468 21.712C161.06 21.528 160.644 21.352 160.22 21.184C159.804 21.016 159.392 20.86 158.984 20.716C158.584 20.572 158.22 20.444 157.892 20.332V18.616ZM169.976 16.912C169.976 16.712 169.964 16.476 169.94 16.204C169.916 15.924 169.876 15.692 169.82 15.508H171.728C171.696 15.692 171.672 15.928 171.656 16.216C171.64 16.496 171.632 16.732 171.632 16.924C171.632 17.148 171.632 17.392 171.632 17.656C171.632 17.92 171.632 18.192 171.632 18.472C171.632 18.752 171.632 19.024 171.632 19.288C171.632 19.944 171.58 20.568 171.476 21.16C171.372 21.744 171.192 22.304 170.936 22.84C170.688 23.376 170.34 23.88 169.892 24.352C169.452 24.824 168.888 25.264 168.2 25.672L166.712 24.568C167.344 24.28 167.868 23.948 168.284 23.572C168.708 23.196 169.044 22.784 169.292 22.336C169.54 21.888 169.716 21.408 169.82 20.896C169.924 20.384 169.976 19.848 169.976 19.288C169.976 19.024 169.976 18.752 169.976 18.472C169.976 18.184 169.976 17.908 169.976 17.644C169.976 17.372 169.976 17.128 169.976 16.912ZM165.524 18.148C165.708 18.164 165.916 18.184 166.148 18.208C166.38 18.224 166.616 18.232 166.856 18.232C166.96 18.232 167.156 18.232 167.444 18.232C167.74 18.232 168.096 18.232 168.512 18.232C168.928 18.232 169.376 18.232 169.856 18.232C170.336 18.232 170.816 18.232 171.296 18.232C171.784 18.232 172.236 18.232 172.652 18.232C173.068 18.232 173.424 18.232 173.72 18.232C174.016 18.232 174.22 18.232 174.332 18.232C174.612 18.232 174.868 18.224 175.1 18.208C175.34 18.192 175.52 18.176 175.64 18.16V19.792C175.52 19.784 175.328 19.776 175.064 19.768C174.808 19.752 174.56 19.744 174.32 19.744C174.208 19.744 174.004 19.744 173.708 19.744C173.42 19.744 173.064 19.744 172.64 19.744C172.224 19.744 171.776 19.744 171.296 19.744C170.824 19.744 170.348 19.744 169.868 19.744C169.388 19.744 168.94 19.744 168.524 19.744C168.108 19.744 167.756 19.744 167.468 19.744C167.18 19.744 166.992 19.744 166.904 19.744C166.64 19.744 166.392 19.752 166.16 19.768C165.928 19.776 165.716 19.788 165.524 19.804V18.148ZM177.224 19.444C177.368 19.452 177.552 19.464 177.776 19.48C178 19.488 178.232 19.496 178.472 19.504C178.72 19.512 178.948 19.516 179.156 19.516C179.356 19.516 179.604 19.516 179.9 19.516C180.196 19.516 180.516 19.516 180.86 19.516C181.212 19.516 181.572 19.516 181.94 19.516C182.316 19.516 182.688 19.516 183.056 19.516C183.424 19.516 183.772 19.516 184.1 19.516C184.428 19.516 184.72 19.516 184.976 19.516C185.24 19.516 185.448 19.516 185.6 19.516C185.88 19.516 186.144 19.508 186.392 19.492C186.64 19.468 186.844 19.452 187.004 19.444V21.328C186.868 21.32 186.664 21.308 186.392 21.292C186.12 21.276 185.856 21.268 185.6 21.268C185.448 21.268 185.24 21.268 184.976 21.268C184.712 21.268 184.416 21.268 184.088 21.268C183.76 21.268 183.412 21.268 183.044 21.268C182.684 21.268 182.316 21.268 181.94 21.268C181.564 21.268 181.2 21.268 180.848 21.268C180.504 21.268 180.184 21.268 179.888 21.268C179.6 21.268 179.356 21.268 179.156 21.268C178.812 21.268 178.46 21.276 178.1 21.292C177.74 21.3 177.448 21.312 177.224 21.328V19.444ZM191.234 15.496C191.426 15.608 191.646 15.74 191.894 15.892C192.142 16.044 192.394 16.2 192.65 16.36C192.914 16.52 193.158 16.676 193.382 16.828C193.614 16.972 193.81 17.1 193.97 17.212L193.07 18.544C192.91 18.424 192.714 18.288 192.482 18.136C192.25 17.984 192.01 17.828 191.762 17.668C191.514 17.508 191.266 17.356 191.018 17.212C190.778 17.06 190.558 16.928 190.358 16.816L191.234 15.496ZM189.002 24.016C189.458 23.936 189.914 23.84 190.37 23.728C190.834 23.608 191.294 23.46 191.75 23.284C192.214 23.108 192.662 22.904 193.094 22.672C193.774 22.288 194.406 21.856 194.99 21.376C195.582 20.896 196.11 20.384 196.574 19.84C197.046 19.296 197.442 18.74 197.762 18.172L198.686 19.804C198.126 20.636 197.434 21.42 196.61 22.156C195.794 22.892 194.894 23.544 193.91 24.112C193.502 24.344 193.054 24.56 192.566 24.76C192.086 24.96 191.61 25.132 191.138 25.276C190.674 25.428 190.262 25.536 189.902 25.6L189.002 24.016ZM189.386 18.232C189.586 18.344 189.81 18.476 190.058 18.628C190.314 18.772 190.57 18.924 190.826 19.084C191.082 19.244 191.322 19.396 191.546 19.54C191.778 19.684 191.97 19.812 192.122 19.924L191.246 21.268C191.07 21.148 190.87 21.016 190.646 20.872C190.422 20.72 190.182 20.564 189.926 20.404C189.678 20.236 189.43 20.08 189.182 19.936C188.942 19.792 188.718 19.668 188.51 19.564L189.386 18.232ZM205.226 17.872C205.282 18 205.354 18.184 205.442 18.424C205.538 18.656 205.638 18.908 205.742 19.18C205.846 19.444 205.938 19.696 206.018 19.936C206.098 20.176 206.162 20.364 206.21 20.5L204.77 21.004C204.738 20.852 204.682 20.66 204.602 20.428C204.522 20.196 204.434 19.952 204.338 19.696C204.242 19.432 204.146 19.18 204.05 18.94C203.954 18.7 203.87 18.5 203.798 18.34L205.226 17.872ZM209.654 18.748C209.59 18.94 209.534 19.104 209.486 19.24C209.446 19.376 209.406 19.504 209.366 19.624C209.214 20.232 209.006 20.84 208.742 21.448C208.478 22.048 208.142 22.612 207.734 23.14C207.174 23.86 206.538 24.472 205.826 24.976C205.122 25.472 204.418 25.852 203.714 26.116L202.454 24.832C202.894 24.712 203.358 24.536 203.846 24.304C204.334 24.064 204.806 23.776 205.262 23.44C205.718 23.104 206.11 22.732 206.438 22.324C206.71 21.98 206.95 21.588 207.158 21.148C207.374 20.7 207.55 20.224 207.686 19.72C207.83 19.208 207.926 18.704 207.974 18.208L209.654 18.748ZM202.442 18.508C202.522 18.66 202.61 18.856 202.706 19.096C202.81 19.336 202.914 19.588 203.018 19.852C203.122 20.116 203.222 20.372 203.318 20.62C203.422 20.868 203.502 21.076 203.558 21.244L202.094 21.796C202.046 21.636 201.974 21.428 201.878 21.172C201.79 20.916 201.69 20.648 201.578 20.368C201.466 20.08 201.358 19.816 201.254 19.576C201.158 19.336 201.074 19.152 201.002 19.024L202.442 18.508ZM220.454 16.204C220.454 16.396 220.522 16.56 220.658 16.696C220.794 16.824 220.954 16.888 221.138 16.888C221.33 16.888 221.494 16.824 221.63 16.696C221.766 16.56 221.834 16.396 221.834 16.204C221.834 16.012 221.766 15.848 221.63 15.712C221.494 15.576 221.33 15.508 221.138 15.508C220.954 15.508 220.794 15.576 220.658 15.712C220.522 15.848 220.454 16.012 220.454 16.204ZM219.71 16.204C219.71 15.94 219.774 15.7 219.902 15.484C220.038 15.26 220.214 15.084 220.43 14.956C220.646 14.828 220.882 14.764 221.138 14.764C221.402 14.764 221.642 14.828 221.858 14.956C222.082 15.084 222.258 15.26 222.386 15.484C222.514 15.7 222.578 15.94 222.578 16.204C222.578 16.46 222.514 16.696 222.386 16.912C222.258 17.128 222.082 17.304 221.858 17.44C221.642 17.568 221.402 17.632 221.138 17.632C220.882 17.632 220.646 17.568 220.43 17.44C220.214 17.304 220.038 17.128 219.902 16.912C219.774 16.696 219.71 16.46 219.71 16.204ZM221.162 17.152C221.106 17.264 221.058 17.4 221.018 17.56C220.978 17.712 220.938 17.852 220.898 17.98C220.834 18.276 220.75 18.608 220.646 18.976C220.542 19.336 220.418 19.712 220.274 20.104C220.13 20.496 219.958 20.884 219.758 21.268C219.566 21.652 219.346 22.012 219.098 22.348C218.738 22.828 218.318 23.276 217.838 23.692C217.358 24.108 216.822 24.484 216.23 24.82C215.638 25.156 214.986 25.44 214.274 25.672L212.966 24.232C213.766 24.04 214.454 23.804 215.03 23.524C215.606 23.244 216.106 22.924 216.53 22.564C216.962 22.204 217.342 21.82 217.67 21.412C217.934 21.076 218.158 20.712 218.342 20.32C218.534 19.928 218.69 19.536 218.81 19.144C218.938 18.744 219.026 18.372 219.074 18.028C218.954 18.028 218.754 18.028 218.474 18.028C218.202 18.028 217.878 18.028 217.502 18.028C217.134 18.028 216.746 18.028 216.338 18.028C215.938 18.028 215.55 18.028 215.174 18.028C214.798 18.028 214.458 18.028 214.154 18.028C213.858 18.028 213.638 18.028 213.494 18.028C213.214 18.028 212.942 18.032 212.678 18.04C212.422 18.048 212.218 18.06 212.066 18.076V16.384C212.186 16.4 212.33 16.416 212.498 16.432C212.674 16.448 212.85 16.46 213.026 16.468C213.21 16.476 213.366 16.48 213.494 16.48C213.622 16.48 213.802 16.48 214.034 16.48C214.274 16.48 214.55 16.48 214.862 16.48C215.174 16.48 215.498 16.48 215.834 16.48C216.178 16.48 216.518 16.48 216.854 16.48C217.198 16.48 217.518 16.48 217.814 16.48C218.11 16.48 218.366 16.48 218.582 16.48C218.798 16.48 218.954 16.48 219.05 16.48C219.17 16.48 219.314 16.476 219.482 16.468C219.658 16.46 219.826 16.432 219.986 16.384L221.162 17.152Z" fill="#4B4B4B"/>
<path d="M39.68 45.76H39.32V46.12H38.6V46.48H37.88V46.84H37.16V47.2H36.44V47.56H35.72V47.92H35V47.2H35.36V46.84H36.08V46.48H36.8V46.12H37.52V45.76H38.24V45.4H37.52V45.04H36.8V44.68H36.08V44.32H35.36V43.96H35V43.24H35.72V43.6H36.44V43.96H37.16V44.32H37.88V44.68H38.6V45.04H39.32V45.4H39.68V45.76ZM49.7647 49H48.6847V48.64H48.3247V47.92H47.9647V47.2H47.6047V46.48H47.2447V45.76H46.8847V45.04H46.5247V44.32H46.1647V49H45.0847V41.08H45.8047V41.8H46.1647V42.52H46.5247V43.24H46.8847V43.96H47.2447V44.68H47.6047V45.4H47.9647V46.12H48.3247V46.84H48.6847V41.08H49.7647V49ZM54.807 49H50.127V41.08H54.807V42.16H51.207V44.32H54.087V45.4H51.207V47.92H54.807V49ZM59.8494 49H55.1694V41.08H59.8494V42.16H56.2494V44.32H59.1294V45.4H56.2494V47.92H59.8494V49ZM64.8917 47.2H64.5317V47.56H64.1717V47.92H63.8117V48.28H63.4517V48.64H63.0797V49H60.2117V41.08H63.0917V41.44H63.4517V41.8H63.8117V42.16H64.1717V42.52H64.5317V42.88H64.8917V47.2ZM63.8117 46.84V43.24H63.4517V42.88H63.0917V42.52H62.7317V42.16H61.2917V47.92H62.7317V47.56H63.0917V47.2H63.4517V46.84H63.8117ZM74.9764 49H70.2964V41.08H71.3764V47.92H74.9764V49ZM80.0187 47.56H79.6587V47.92H79.2987V48.28H78.9387V48.64H78.5787V49H76.7787V48.64H76.4187V48.28H76.0587V47.92H75.6987V47.56H75.3387V42.52H75.6987V42.16H76.0587V41.8H76.4187V41.44H76.7787V41.08H78.5787V41.44H78.9387V41.8H79.2987V42.16H79.6587V42.52H80.0187V47.56ZM78.9387 47.2V42.88H78.5787V42.52H78.2187V42.16H77.1387V42.52H76.7787V42.88H76.4187V47.2H76.7787V47.56H77.1387V47.92H78.2187V47.56H78.5787V47.2H78.9387ZM85.0611 49H83.9811V48.64H83.6211V47.92H83.2611V47.2H82.9011V46.48H82.5411V45.76H82.1811V45.04H81.8211V44.32H81.4611V49H80.3811V41.08H81.1011V41.8H81.4611V42.52H81.8211V43.24H82.1811V43.96H82.5411V44.68H82.9011V45.4H83.2611V46.12H83.6211V46.84H83.9811V41.08H85.0611V49ZM90.1034 48.28H89.7434V48.64H89.3834V49H86.8634V48.64H86.5034V48.28H86.1434V47.92H85.7834V47.56H85.4234V42.52H85.7834V42.16H86.1434V41.8H86.5034V41.44H86.8634V41.08H89.3834V41.44H89.7434V41.8H90.1034V42.52H89.0234V42.16H87.2234V42.52H86.8634V42.88H86.5034V47.2H86.8634V47.56H87.2234V47.92H89.0234V45.76H88.6634V46.12H87.5834V44.68H90.1034V48.28ZM94.4258 46.48H91.1858V45.4H94.4258V46.48ZM100.188 42.16H98.3881V49H97.3081V42.16H95.5081V41.08H100.188V42.16ZM105.23 49H100.55V41.08H105.23V42.16H101.63V44.32H104.51V45.4H101.63V47.92H105.23V49ZM110.273 49H109.193V47.56H108.833V46.84H108.473V46.12H108.113V45.4H106.673V49H105.593V41.08H109.193V41.44H109.553V41.8H109.913V42.16H110.273V44.32H109.913V44.68H109.553V45.04H109.193V45.76H109.553V46.48H109.913V47.2H110.273V49ZM109.193 43.96V42.52H108.833V42.16H106.673V44.32H108.833V43.96H109.193ZM115.315 49H114.235V45.04H113.875V45.76H113.515V46.48H113.155V47.2H112.795V46.48H112.435V45.76H112.075V45.04H111.715V49H110.635V41.08H110.995V41.8H111.355V42.52H111.715V43.24H112.075V43.96H112.435V44.68H112.795V45.4H113.155V44.68H113.515V43.96H113.875V43.24H114.235V42.52H114.595V41.8H114.955V41.08H115.315V49ZM125.4 47.2H125.04V47.56H124.68V47.92H124.32V48.28H123.96V48.64H123.588V49H120.72V41.08H123.6V41.44H123.96V41.8H124.32V42.16H124.68V42.52H125.04V42.88H125.4V47.2ZM124.32 46.84V43.24H123.96V42.88H123.6V42.52H123.24V42.16H121.8V47.92H123.24V47.56H123.6V47.2H123.96V46.84H124.32ZM130.442 49H125.762V41.08H130.442V42.16H126.842V44.32H129.722V45.4H126.842V47.92H130.442V49ZM135.485 44.68H135.125V45.4H134.765V46.12H134.405V46.84H134.045V47.56H133.685V48.28H133.325V49H132.965V48.28H132.605V47.56H132.245V46.84H131.885V46.12H131.525V45.4H131.165V44.68H130.805V41.08H131.885V44.32H132.245V45.04H132.605V45.76H132.965V46.48H133.325V45.76H133.685V45.04H134.045V44.32H134.405V41.08H135.485V44.68ZM145.569 47.92H145.209V48.28H144.849V48.64H144.489V49H141.969V48.64H141.609V48.28H141.249V47.92H140.889V46.84H141.969V47.56H142.329V47.92H144.129V47.56H144.489V45.76H144.129V45.4H141.969V45.04H141.609V44.68H141.249V44.32H140.889V42.16H141.249V41.8H141.609V41.44H141.969V41.08H144.489V41.44H144.849V41.8H145.209V42.16H145.569V43.24H144.489V42.52H144.129V42.16H142.329V42.52H141.969V43.96H142.329V44.32H144.489V44.68H144.849V45.04H145.209V45.4H145.569V47.92ZM150.612 47.92H150.252V48.28H149.892V48.64H149.532V49H147.012V48.64H146.652V48.28H146.292V47.92H145.932V41.08H147.012V47.56H147.372V47.92H149.172V47.56H149.532V41.08H150.612V47.92ZM155.654 44.68H155.294V45.04H154.934V45.4H154.574V45.76H152.054V49H150.974V41.08H154.574V41.44H154.934V41.8H155.294V42.16H155.654V44.68ZM154.574 44.32V42.52H154.214V42.16H152.054V44.68H154.214V44.32H154.574ZM160.696 44.68H160.336V45.04H159.976V45.4H159.616V45.76H157.096V49H156.016V41.08H159.616V41.44H159.976V41.8H160.336V42.16H160.696V44.68ZM159.616 44.32V42.52H159.256V42.16H157.096V44.68H159.256V44.32H159.616ZM165.739 47.56H165.379V47.92H165.019V48.28H164.659V48.64H164.299V49H162.499V48.64H162.139V48.28H161.779V47.92H161.419V47.56H161.059V42.52H161.419V42.16H161.779V41.8H162.139V41.44H162.499V41.08H164.299V41.44H164.659V41.8H165.019V42.16H165.379V42.52H165.739V47.56ZM164.659 47.2V42.88H164.299V42.52H163.939V42.16H162.859V42.52H162.499V42.88H162.139V47.2H162.499V47.56H162.859V47.92H163.939V47.56H164.299V47.2H164.659ZM170.781 49H169.701V47.56H169.341V46.84H168.981V46.12H168.621V45.4H167.181V49H166.101V41.08H169.701V41.44H170.061V41.8H170.421V42.16H170.781V44.32H170.421V44.68H170.061V45.04H169.701V45.76H170.061V46.48H170.421V47.2H170.781V49ZM169.701 43.96V42.52H169.341V42.16H167.181V44.32H169.341V43.96H169.701ZM175.823 42.16H174.023V49H172.943V42.16H171.143V41.08H175.823V42.16ZM180.866 43.96H180.506V44.32H180.146V44.68H179.786V45.04H179.426V45.4H179.066V45.76H178.706V46.12H178.346V46.84H177.266V45.76H177.626V45.4H177.986V45.04H178.346V44.68H178.706V44.32H179.066V43.96H179.426V43.6H179.786V42.52H179.426V42.16H177.626V42.52H177.266V43.24H176.186V42.16H176.546V41.8H176.906V41.44H177.266V41.08H179.786V41.44H180.146V41.8H180.506V42.16H180.866V43.96ZM178.346 49H177.266V47.92H178.346V49ZM39.68 59.76H39.32V60.12H38.6V60.48H37.88V60.84H37.16V61.2H36.44V61.56H35.72V61.92H35V61.2H35.36V60.84H36.08V60.48H36.8V60.12H37.52V59.76H38.24V59.4H37.52V59.04H36.8V58.68H36.08V58.32H35.36V57.96H35V57.24H35.72V57.6H36.44V57.96H37.16V58.32H37.88V58.68H38.6V59.04H39.32V59.4H39.68V59.76ZM49.7647 63H48.6847V61.2H46.1647V63H45.0847V60.12V59.76V59.04H45.4447V58.32H45.8047V57.6H46.1647V56.88H46.5247V56.16H46.8847V55.44H47.2447V55.08H47.6047V55.44H47.9647V56.16H48.3247V56.88H48.6847V57.6H49.0447V58.32H49.4047V59.04H49.7647V59.76V60.12V63ZM48.6847 60.12V59.76V59.4H48.3247V58.68H47.9647V57.96H47.6047V57.24H47.2447V57.96H46.8847V58.68H46.5247V59.4H46.1647V59.76V60.12H48.6847ZM59.8494 58.68H59.4894V59.04H59.1294V59.4H58.7694V59.76H56.2494V63H55.1694V55.08H58.7694V55.44H59.1294V55.8H59.4894V56.16H59.8494V58.68ZM58.7694 58.32V56.52H58.4094V56.16H56.2494V58.68H58.4094V58.32H58.7694ZM64.8917 63H63.8117V61.2H61.2917V63H60.2117V60.12V59.76V59.04H60.5717V58.32H60.9317V57.6H61.2917V56.88H61.6517V56.16H62.0117V55.44H62.3717V55.08H62.7317V55.44H63.0917V56.16H63.4517V56.88H63.8117V57.6H64.1717V58.32H64.5317V59.04H64.8917V59.76V60.12V63ZM63.8117 60.12V59.76V59.4H63.4517V58.68H63.0917V57.96H62.7317V57.24H62.3717V57.96H62.0117V58.68H61.6517V59.4H61.2917V59.76V60.12H63.8117ZM69.9341 63H68.8541V61.56H68.4941V60.84H68.1341V60.12H67.7741V59.4H66.3341V63H65.2541V55.08H68.8541V55.44H69.2141V55.8H69.5741V56.16H69.9341V58.32H69.5741V58.68H69.2141V59.04H68.8541V59.76H69.2141V60.48H69.5741V61.2H69.9341V63ZM68.8541 57.96V56.52H68.4941V56.16H66.3341V58.32H68.4941V57.96H68.8541ZM74.9764 56.16H73.1764V63H72.0964V56.16H70.2964V55.08H74.9764V56.16ZM79.2987 60.48H76.0587V59.4H79.2987V60.48ZM85.0611 56.16H83.2611V63H82.1811V56.16H80.3811V55.08H85.0611V56.16ZM90.1034 63H85.4234V61.92H87.2234V56.16H86.5034V55.08H89.0234V56.16H88.3034V61.92H90.1034V63ZM95.1458 63H94.0658V59.04H93.7058V59.76H93.3458V60.48H92.9858V61.2H92.6258V60.48H92.2658V59.76H91.9058V59.04H91.5458V63H90.4658V55.08H90.8258V55.8H91.1858V56.52H91.5458V57.24H91.9058V57.96H92.2658V58.68H92.6258V59.4H92.9858V58.68H93.3458V57.96H93.7058V57.24H94.0658V56.52H94.4258V55.8H94.7858V55.08H95.1458V63ZM100.188 63H95.5081V55.08H100.188V56.16H96.5881V58.32H99.4681V59.4H96.5881V61.92H100.188V63ZM110.273 61.92H109.913V62.28H109.553V62.64H109.193V63H107.033V62.64H106.673V62.28H106.313V61.92H105.953V61.56H105.593V56.52H105.953V56.16H106.313V55.8H106.673V55.44H107.033V55.08H109.193V55.44H109.553V55.8H109.913V56.16H110.273V57.24H109.193V56.52H108.833V56.16H107.393V56.52H107.033V56.88H106.673V61.2H107.033V61.56H107.393V61.92H108.833V61.56H109.193V60.84H110.273V61.92ZM115.315 56.16H113.515V63H112.435V56.16H110.635V55.08H115.315V56.16ZM120.357 61.56H119.997V61.92H119.637V62.28H119.277V62.64H118.917V63H117.117V62.64H116.757V62.28H116.397V61.92H116.037V61.56H115.677V56.52H116.037V56.16H116.397V55.8H116.757V55.44H117.117V55.08H118.917V55.44H119.277V55.8H119.637V56.16H119.997V56.52H120.357V61.56ZM119.277 61.2V56.88H118.917V56.52H118.557V56.16H117.477V56.52H117.117V56.88H116.757V61.2H117.117V61.56H117.477V61.92H118.557V61.56H118.917V61.2H119.277ZM125.4 57.96H125.04V58.32H124.68V58.68H124.32V59.04H123.96V59.4H123.6V59.76H123.24V60.12H122.88V60.84H121.8V59.76H122.16V59.4H122.52V59.04H122.88V58.68H123.24V58.32H123.6V57.96H123.96V57.6H124.32V56.52H123.96V56.16H122.16V56.52H121.8V57.24H120.72V56.16H121.08V55.8H121.44V55.44H121.8V55.08H124.32V55.44H124.68V55.8H125.04V56.16H125.4V57.96ZM122.88 63H121.8V61.92H122.88V63ZM39.68 73.76H39.32V74.12H38.6V74.48H37.88V74.84H37.16V75.2H36.44V75.56H35.72V75.92H35V75.2H35.36V74.84H36.08V74.48H36.8V74.12H37.52V73.76H38.24V73.4H37.52V73.04H36.8V72.68H36.08V72.32H35.36V71.96H35V71.24H35.72V71.6H36.44V71.96H37.16V72.32H37.88V72.68H38.6V73.04H39.32V73.4H39.68V73.76ZM49.7647 77H48.6847V75.2H46.1647V77H45.0847V74.12V73.76V73.04H45.4447V72.32H45.8047V71.6H46.1647V70.88H46.5247V70.16H46.8847V69.44H47.2447V69.08H47.6047V69.44H47.9647V70.16H48.3247V70.88H48.6847V71.6H49.0447V72.32H49.4047V73.04H49.7647V73.76V74.12V77ZM48.6847 74.12V73.76V73.4H48.3247V72.68H47.9647V71.96H47.6047V71.24H47.2447V71.96H46.8847V72.68H46.5247V73.4H46.1647V73.76V74.12H48.6847ZM59.8494 75.92H59.4894V76.28H59.1294V76.64H58.7694V77H56.2494V76.64H55.8894V76.28H55.5294V75.92H55.1694V74.84H56.2494V75.56H56.6094V75.92H58.4094V75.56H58.7694V73.76H58.4094V73.4H56.2494V73.04H55.8894V72.68H55.5294V72.32H55.1694V70.16H55.5294V69.8H55.8894V69.44H56.2494V69.08H58.7694V69.44H59.1294V69.8H59.4894V70.16H59.8494V71.24H58.7694V70.52H58.4094V70.16H56.6094V70.52H56.2494V71.96H56.6094V72.32H58.7694V72.68H59.1294V73.04H59.4894V73.4H59.8494V75.92ZM64.8917 77H64.1717V76.64H63.8117H63.4517V77H61.6517V76.64H61.2917V76.28H60.9317V75.92H60.5717V75.56H60.2117V70.52H60.5717V70.16H60.9317V69.8H61.2917V69.44H61.6517V69.08H63.4517V69.44H63.8117V69.8H64.1717V70.16H64.5317V70.52H64.8917V75.56H64.5317V75.92V76.28H64.8917V77ZM63.8117 75.2V70.88H63.4517V70.52H63.0917V70.16H62.0117V70.52H61.6517V70.88H61.2917V75.2H61.6517V75.56H62.0117V75.92H63.0917V75.56H62.7317V75.2H62.3717V74.84H62.0117V74.48H62.3717H62.7317H63.0917V74.84H63.4517V75.2H63.8117ZM69.9341 75.92H69.5741V76.28H69.2141V76.64H68.8541V77H66.3341V76.64H65.9741V76.28H65.6141V75.92H65.2541V69.08H66.3341V75.56H66.6941V75.92H68.4941V75.56H68.8541V69.08H69.9341V75.92ZM74.9764 77H73.8964V75.2H71.3764V77H70.2964V74.12V73.76V73.04H70.6564V72.32H71.0164V71.6H71.3764V70.88H71.7364V70.16H72.0964V69.44H72.4564V69.08H72.8164V69.44H73.1764V70.16H73.5364V70.88H73.8964V71.6H74.2564V72.32H74.6164V73.04H74.9764V73.76V74.12V77ZM73.8964 74.12V73.76V73.4H73.5364V72.68H73.1764V71.96H72.8164V71.24H72.4564V71.96H72.0964V72.68H71.7364V73.4H71.3764V73.76V74.12H73.8964ZM80.0187 75.2H79.6587V75.56H79.2987V75.92H78.9387V76.28H78.5787V76.64H78.2067V77H75.3387V69.08H78.2187V69.44H78.5787V69.8H78.9387V70.16H79.2987V70.52H79.6587V70.88H80.0187V75.2ZM78.9387 74.84V71.24H78.5787V70.88H78.2187V70.52H77.8587V70.16H76.4187V75.92H77.8587V75.56H78.2187V75.2H78.5787V74.84H78.9387ZM90.1034 70.16H88.3034V77H87.2234V70.16H85.4234V69.08H90.1034V70.16ZM95.1458 75.56H94.7858V75.92H94.4258V76.28H94.0658V76.64H93.7058V77H91.9058V76.64H91.5458V76.28H91.1858V75.92H90.8258V75.56H90.4658V70.52H90.8258V70.16H91.1858V69.8H91.5458V69.44H91.9058V69.08H93.7058V69.44H94.0658V69.8H94.4258V70.16H94.7858V70.52H95.1458V75.56ZM94.0658 75.2V70.88H93.7058V70.52H93.3458V70.16H92.2658V70.52H91.9058V70.88H91.5458V75.2H91.9058V75.56H92.2658V75.92H93.3458V75.56H93.7058V75.2H94.0658ZM105.23 70.16H103.43V77H102.35V70.16H100.55V69.08H105.23V70.16ZM110.273 77H109.193V75.2H106.673V77H105.593V74.12V73.76V73.04H105.953V72.32H106.313V71.6H106.673V70.88H107.033V70.16H107.393V69.44H107.753V69.08H108.113V69.44H108.473V70.16H108.833V70.88H109.193V71.6H109.553V72.32H109.913V73.04H110.273V73.76V74.12V77ZM109.193 74.12V73.76V73.4H108.833V72.68H108.473V71.96H108.113V71.24H107.753V71.96H107.393V72.68H107.033V73.4H106.673V73.76V74.12H109.193ZM115.315 75.92H114.955V76.28H114.595V76.64H114.235V77H112.075V76.64H111.715V76.28H111.355V75.92H110.995V75.56H110.635V70.52H110.995V70.16H111.355V69.8H111.715V69.44H112.075V69.08H114.235V69.44H114.595V69.8H114.955V70.16H115.315V71.24H114.235V70.52H113.875V70.16H112.435V70.52H112.075V70.88H111.715V75.2H112.075V75.56H112.435V75.92H113.875V75.56H114.235V74.84H115.315V75.92ZM120.357 77H119.277V76.28H118.917V75.56H118.557V74.84H118.197V74.12H117.837V73.4H117.117V73.76H116.757V77H115.677V69.08H116.757V72.32H117.117V71.96H117.477V71.6H117.837V71.24H118.197V70.88H118.557V70.52H118.917V70.148H119.277V69.8H119.637V69.44H119.997V69.08H120.357V70.52H119.997V70.88H119.637V71.24H119.277V71.588H118.917V71.96H118.557V72.32H118.197V72.68H118.557V73.04H118.917V73.76H119.277V74.48H119.637V75.2H119.997V75.92H120.357V77ZM125.4 77H120.72V69.08H121.8V75.92H125.4V77ZM130.442 77H125.762V69.08H130.442V70.16H126.842V72.32H129.722V73.4H126.842V75.92H130.442V77ZM140.527 72.68H140.167V73.4H139.807V74.12H139.447V74.84H139.087V75.56H138.727V76.28H138.367V77H138.007V76.28H137.647V75.56H137.287V74.84H136.927V74.12H136.567V73.4H136.207V72.68H135.847V69.08H136.927V72.32H137.287V73.04H137.647V73.76H138.007V74.48H138.367V73.76H138.727V73.04H139.087V72.32H139.447V69.08H140.527V72.68ZM145.569 77H140.889V74.12H141.249V73.76H141.609V73.4H141.969V73.04H142.329V72.68H143.769V72.32H144.129V71.96H144.489V70.52H144.129V70.16H142.329V70.52H141.969V71.24H140.889V70.16H141.249V69.8H141.609V69.44H141.969V69.08H144.489V69.44H144.849V69.8H145.209V70.16H145.569V72.32H145.209V72.68H144.849V73.04H144.489V73.4H144.129V73.76H142.689V74.12H142.329V74.48H141.969V75.92H145.569V77ZM150.612 71.96H150.252V72.32H149.892V72.68H149.532V73.04H149.172V73.4H148.812V73.76H148.452V74.12H148.092V74.84H147.012V73.76H147.372V73.4H147.732V73.04H148.092V72.68H148.452V72.32H148.812V71.96H149.172V71.6H149.532V70.52H149.172V70.16H147.372V70.52H147.012V71.24H145.932V70.16H146.292V69.8H146.652V69.44H147.012V69.08H149.532V69.44H149.892V69.8H150.252V70.16H150.612V71.96ZM148.092 77H147.012V75.92H148.092V77Z" fill="#4B4B4B"/>
<path d="M218.473 131.16H214.873V133.32H217.393V134.4H214.873V138H213.793V130.08H218.473V131.16ZM223.515 138H222.435V136.2H219.915V138H218.835V135.12V134.76V134.04H219.195V133.32H219.555V132.6H219.915V131.88H220.275V131.16H220.635V130.44H220.995V130.08H221.355V130.44H221.715V131.16H222.075V131.88H222.435V132.6H222.795V133.32H223.155V134.04H223.515V134.76V135.12V138ZM222.435 135.12V134.76V134.4H222.075V133.68H221.715V132.96H221.355V132.24H220.995V132.96H220.635V133.68H220.275V134.4H219.915V134.76V135.12H222.435ZM228.558 136.92H228.198V137.28H227.838V137.64H227.478V138H223.878V130.08H227.478V130.44H227.838V130.8H228.198V131.16H228.558V132.96H228.198V133.32H227.838V133.68H227.478V134.04H227.838V134.4H228.198V134.76H228.558V136.92ZM227.478 132.6V131.52H227.118V131.16H224.958V133.32H226.758V132.96H227.118V132.6H227.478ZM227.478 136.56V135.12H227.118V134.76H226.758V134.4H224.958V136.92H227.118V136.56H227.478ZM231.8 135.12H230.36V133.68H231.8V135.12ZM231.8 138H230.36V136.56H231.8V138ZM243.685 136.92H243.325V137.28H242.965V137.64H242.605V138H239.005V130.08H242.605V130.44H242.965V130.8H243.325V131.16H243.685V132.96H243.325V133.32H242.965V133.68H242.605V134.04H242.965V134.4H243.325V134.76H243.685V136.92ZM242.605 132.6V131.52H242.245V131.16H240.085V133.32H241.885V132.96H242.245V132.6H242.605ZM242.605 136.56V135.12H242.245V134.76H241.885V134.4H240.085V136.92H242.245V136.56H242.605ZM248.727 131.16H248.367V131.88H248.007V132.6H247.647V133.32H247.287V134.04H246.927V138H245.847V134.04H245.487V133.32H245.127V132.6H244.767V131.88H244.407V131.16H244.047V130.08H245.127V130.8H245.487V131.52H245.847V132.24H246.207V132.96H246.567V132.24H246.927V131.52H247.287V130.8H247.647V130.08H248.727V131.16ZM253.77 138H249.09V130.08H250.17V136.92H253.77V138ZM258.812 136.2H258.452V136.56H258.092V136.92H257.732V137.28H257.372V137.64H257V138H254.132V130.08H257.012V130.44H257.372V130.8H257.732V131.16H258.092V131.52H258.452V131.88H258.812V136.2ZM257.732 135.84V132.24H257.372V131.88H257.012V131.52H256.652V131.16H255.212V136.92H256.652V136.56H257.012V136.2H257.372V135.84H257.732ZM268.897 138H264.217V136.92H266.017V131.16H265.297V130.08H267.817V131.16H267.097V136.92H268.897V138ZM273.939 138H272.859V137.64H272.499V136.92H272.139V136.2H271.779V135.48H271.419V134.76H271.059V134.04H270.699V133.32H270.339V138H269.259V130.08H269.979V130.8H270.339V131.52H270.699V132.24H271.059V132.96H271.419V133.68H271.779V134.4H272.139V135.12H272.499V135.84H272.859V130.08H273.939V138ZM278.981 136.2H278.621V136.56H278.261V136.92H277.901V137.28H277.541V137.64H277.169V138H274.301V130.08H277.181V130.44H277.541V130.8H277.901V131.16H278.261V131.52H278.621V131.88H278.981V136.2ZM277.901 135.84V132.24H277.541V131.88H277.181V131.52H276.821V131.16H275.381V136.92H276.821V136.56H277.181V136.2H277.541V135.84H277.901ZM284.024 136.92H283.664V137.28H283.304V137.64H282.944V138H280.424V137.64H280.064V137.28H279.704V136.92H279.344V130.08H280.424V136.56H280.784V136.92H282.584V136.56H282.944V130.08H284.024V136.92ZM289.066 136.92H288.706V137.28H288.346V137.64H287.986V138H285.466V137.64H285.106V137.28H284.746V136.92H284.386V135.84H285.466V136.56H285.826V136.92H287.626V136.56H287.986V134.76H287.626V134.4H285.466V134.04H285.106V133.68H284.746V133.32H284.386V131.16H284.746V130.8H285.106V130.44H285.466V130.08H287.986V130.44H288.346V130.8H288.706V131.16H289.066V132.24H287.986V131.52H287.626V131.16H285.826V131.52H285.466V132.96H285.826V133.32H287.986V133.68H288.346V134.04H288.706V134.4H289.066V136.92ZM294.108 131.16H292.308V138H291.228V131.16H289.428V130.08H294.108V131.16ZM299.151 138H298.071V136.56H297.711V135.84H297.351V135.12H296.991V134.4H295.551V138H294.471V130.08H298.071V130.44H298.431V130.8H298.791V131.16H299.151V133.32H298.791V133.68H298.431V134.04H298.071V134.76H298.431V135.48H298.791V136.2H299.151V138ZM298.071 132.96V131.52H297.711V131.16H295.551V133.32H297.711V132.96H298.071ZM304.193 138H299.513V136.92H301.313V131.16H300.593V130.08H303.113V131.16H302.393V136.92H304.193V138ZM309.235 138H304.555V130.08H309.235V131.16H305.635V133.32H308.515V134.4H305.635V136.92H309.235V138ZM314.278 136.92H313.918V137.28H313.558V137.64H313.198V138H310.678V137.64H310.318V137.28H309.958V136.92H309.598V135.84H310.678V136.56H311.038V136.92H312.838V136.56H313.198V134.76H312.838V134.4H310.678V134.04H310.318V133.68H309.958V133.32H309.598V131.16H309.958V130.8H310.318V130.44H310.678V130.08H313.198V130.44H313.558V130.8H313.918V131.16H314.278V132.24H313.198V131.52H312.838V131.16H311.038V131.52H310.678V132.96H311.038V133.32H313.198V133.68H313.558V134.04H313.918V134.4H314.278V136.92ZM228.558 152H223.878V150.92H225.678V145.16H224.958V144.08H227.478V145.16H226.758V150.92H228.558V152ZM233.6 152H232.52V151.64H232.16V150.92H231.8V150.2H231.44V149.48H231.08V148.76H230.72V148.04H230.36V147.32H230V152H228.92V144.08H229.64V144.8H230V145.52H230.36V146.24H230.72V146.96H231.08V147.68H231.44V148.4H231.8V149.12H232.16V149.84H232.52V144.08H233.6V152ZM238.643 150.92H238.283V151.28H237.923V151.64H237.563V152H235.043V151.64H234.683V151.28H234.323V150.92H233.963V149.84H235.043V150.56H235.403V150.92H237.203V150.56H237.563V148.76H237.203V148.4H235.043V148.04H234.683V147.68H234.323V147.32H233.963V145.16H234.323V144.8H234.683V144.44H235.043V144.08H237.563V144.44H237.923V144.8H238.283V145.16H238.643V146.24H237.563V145.52H237.203V145.16H235.403V145.52H235.043V146.96H235.403V147.32H237.563V147.68H237.923V148.04H238.283V148.4H238.643V150.92ZM243.685 147.68H243.325V148.04H242.965V148.4H242.605V148.76H240.085V152H239.005V144.08H242.605V144.44H242.965V144.8H243.325V145.16H243.685V147.68ZM242.605 147.32V145.52H242.245V145.16H240.085V147.68H242.245V147.32H242.605ZM248.727 152H244.047V144.08H248.727V145.16H245.127V147.32H248.007V148.4H245.127V150.92H248.727V152ZM253.77 150.92H253.41V151.28H253.05V151.64H252.69V152H250.53V151.64H250.17V151.28H249.81V150.92H249.45V150.56H249.09V145.52H249.45V145.16H249.81V144.8H250.17V144.44H250.53V144.08H252.69V144.44H253.05V144.8H253.41V145.16H253.77V146.24H252.69V145.52H252.33V145.16H250.89V145.52H250.53V145.88H250.17V150.2H250.53V150.56H250.89V150.92H252.33V150.56H252.69V149.84H253.77V150.92ZM258.812 145.16H257.012V152H255.932V145.16H254.132V144.08H258.812V145.16ZM268.897 150.92H268.537V151.28H268.177V151.64H267.817V152H264.217V144.08H267.817V144.44H268.177V144.8H268.537V145.16H268.897V146.96H268.537V147.32H268.177V147.68H267.817V148.04H268.177V148.4H268.537V148.76H268.897V150.92ZM267.817 146.6V145.52H267.457V145.16H265.297V147.32H267.097V146.96H267.457V146.6H267.817ZM267.817 150.56V149.12H267.457V148.76H267.097V148.4H265.297V150.92H267.457V150.56H267.817ZM273.939 152H269.259V144.08H273.939V145.16H270.339V147.32H273.219V148.4H270.339V150.92H273.939V152ZM278.981 145.16H275.381V147.32H277.901V148.4H275.381V152H274.301V144.08H278.981V145.16ZM284.024 150.56H283.664V150.92H283.304V151.28H282.944V151.64H282.584V152H280.784V151.64H280.424V151.28H280.064V150.92H279.704V150.56H279.344V145.52H279.704V145.16H280.064V144.8H280.424V144.44H280.784V144.08H282.584V144.44H282.944V144.8H283.304V145.16H283.664V145.52H284.024V150.56ZM282.944 150.2V145.88H282.584V145.52H282.224V145.16H281.144V145.52H280.784V145.88H280.424V150.2H280.784V150.56H281.144V150.92H282.224V150.56H282.584V150.2H282.944ZM289.066 152H287.986V150.56H287.626V149.84H287.266V149.12H286.906V148.4H285.466V152H284.386V144.08H287.986V144.44H288.346V144.8H288.706V145.16H289.066V147.32H288.706V147.68H288.346V148.04H287.986V148.76H288.346V149.48H288.706V150.2H289.066V152ZM287.986 146.96V145.52H287.626V145.16H285.466V147.32H287.626V146.96H287.986ZM294.108 152H289.428V144.08H294.108V145.16H290.508V147.32H293.388V148.4H290.508V150.92H294.108V152ZM304.193 150.92H303.833V151.28H303.473V151.64H303.113V152H300.593V151.64H300.233V151.28H299.873V150.92H299.513V144.08H300.593V150.56H300.953V150.92H302.753V150.56H303.113V144.08H304.193V150.92ZM309.235 150.92H308.875V151.28H308.515V151.64H308.155V152H305.635V151.64H305.275V151.28H304.915V150.92H304.555V149.84H305.635V150.56H305.995V150.92H307.795V150.56H308.155V148.76H307.795V148.4H305.635V148.04H305.275V147.68H304.915V147.32H304.555V145.16H304.915V144.8H305.275V144.44H305.635V144.08H308.155V144.44H308.515V144.8H308.875V145.16H309.235V146.24H308.155V145.52H307.795V145.16H305.995V145.52H305.635V146.96H305.995V147.32H308.155V147.68H308.515V148.04H308.875V148.4H309.235V150.92ZM314.278 152H309.598V144.08H314.278V145.16H310.678V147.32H313.558V148.4H310.678V150.92H314.278V152ZM258.812 178.92H258.452V179.28H258.092V179.64H257.732V180H255.212V179.64H254.852V179.28H254.492V178.92H254.132V177.84H255.212V178.56H255.572V178.92H257.372V178.56H257.732V176.76H257.372V176.4H255.212V176.04H254.852V175.68H254.492V175.32H254.132V173.16H254.492V172.8H254.852V172.44H255.212V172.08H257.732V172.44H258.092V172.8H258.452V173.16H258.812V174.24H257.732V173.52H257.372V173.16H255.572V173.52H255.212V174.96H255.572V175.32H257.732V175.68H258.092V176.04H258.452V176.4H258.812V178.92ZM263.854 180H262.774V179.64H262.414V178.92H262.054V178.2H261.694V177.48H261.334V176.76H260.974V176.04H260.614V175.32H260.254V180H259.174V172.08H259.894V172.8H260.254V173.52H260.614V174.24H260.974V174.96H261.334V175.68H261.694V176.4H262.054V177.12H262.414V177.84H262.774V172.08H263.854V180ZM267.097 177.12H265.657V175.68H267.097V177.12ZM267.097 180H265.657V178.56H267.097V180ZM278.981 178.56H278.621V178.92H278.261V179.28H277.901V179.64H277.541V180H275.741V179.64H275.381V179.28H275.021V178.92H274.661V178.56H274.301V173.52H274.661V173.16H275.021V172.8H275.381V172.44H275.741V172.08H277.541V172.44H277.901V172.8H278.261V173.16H278.621V173.52H278.981V178.56ZM277.541 173.88V173.52V173.16H275.741V173.52H275.381V177.48H275.741V176.76H276.101V176.04H276.461V175.32H276.821V174.6H277.181V173.88H277.541ZM277.901 178.56V174.96H277.541V175.68H277.181V176.4H276.821V177.12H276.461V177.84H276.101V178.56H275.741V178.92H277.541V178.56H277.901ZM284.024 178.56H283.664V178.92H283.304V179.28H282.944V179.64H282.584V180H280.784V179.64H280.424V179.28H280.064V178.92H279.704V178.56H279.344V173.52H279.704V173.16H280.064V172.8H280.424V172.44H280.784V172.08H282.584V172.44H282.944V172.8H283.304V173.16H283.664V173.52H284.024V178.56ZM282.584 173.88V173.52V173.16H280.784V173.52H280.424V177.48H280.784V176.76H281.144V176.04H281.504V175.32H281.864V174.6H282.224V173.88H282.584ZM282.944 178.56V174.96H282.584V175.68H282.224V176.4H281.864V177.12H281.504V177.84H281.144V178.56H280.784V178.92H282.584V178.56H282.944ZM289.066 180H284.386V177.12H284.746V176.76H285.106V176.4H285.466V176.04H285.826V175.68H287.266V175.32H287.626V174.96H287.986V173.52H287.626V173.16H285.826V173.52H285.466V174.24H284.386V173.16H284.746V172.8H285.106V172.44H285.466V172.08H287.986V172.44H288.346V172.8H288.706V173.16H289.066V175.32H288.706V175.68H288.346V176.04H287.986V176.4H287.626V176.76H286.186V177.12H285.826V177.48H285.466V178.92H289.066V180ZM294.108 180H289.428V178.92H291.228V173.16H290.148V172.08H292.308V178.92H294.108V180ZM299.151 176.4H298.791V177.12H298.431V177.48H298.071V177.84H297.711V178.2H297.351V178.56H296.991V178.92H296.631V179.28H296.271V179.64H295.911V180H294.831V179.28H295.191V178.92H295.551V178.56H295.911V178.2H296.271V177.84H296.631V177.48H296.991V177.12H297.351V176.76H295.551V176.4H295.191V176.04H294.831V175.68H294.471V173.16H294.831V172.8H295.191V172.44H295.551V172.08H298.071V172.44H298.431V172.8H298.791V173.16H299.151V176.4ZM298.071 175.32V173.52H297.711V173.16H295.911V173.52H295.551V175.32H295.911V175.68H297.711V175.32H298.071ZM304.193 178.56H303.473V180H302.393V178.56H299.513V178.2V177.84H299.873V177.12H300.233V176.4H300.593V175.68H300.953V174.96H301.313V174.24H301.673V173.52H302.033V172.8H302.393V172.08H303.473V177.48H304.193V178.56ZM302.393 177.48V174.6H302.033V175.32H301.673V176.04H301.313V176.76H300.953V177.48H302.393ZM308.515 177.48H305.275V176.4H308.515V177.48ZM314.278 178.92H313.918V179.28H313.558V179.64H313.198V180H311.038V179.64H310.678V179.28H310.318V178.92H309.958V178.56H309.598V173.52H309.958V173.16H310.318V172.8H310.678V172.44H311.038V172.08H313.198V172.44H313.558V172.8H313.918V173.16H314.278V174.24H313.198V173.52H312.838V173.16H311.398V173.52H311.038V173.88H310.678V178.2H311.038V178.56H311.398V178.92H312.838V178.56H313.198V177.84H314.278V178.92ZM248.727 194H247.647V190.04H247.287V190.76H246.927V191.48H246.567V192.2H246.207V191.48H245.847V190.76H245.487V190.04H245.127V194H244.047V186.08H244.407V186.8H244.767V187.52H245.127V188.24H245.487V188.96H245.847V189.68H246.207V190.4H246.567V189.68H246.927V188.96H247.287V188.24H247.647V187.52H248.007V186.8H248.367V186.08H248.727V194ZM253.77 194H252.69V192.2H250.17V194H249.09V191.12V190.76V190.04H249.45V189.32H249.81V188.6H250.17V187.88H250.53V187.16H250.89V186.44H251.25V186.08H251.61V186.44H251.97V187.16H252.33V187.88H252.69V188.6H253.05V189.32H253.41V190.04H253.77V190.76V191.12V194ZM252.69 191.12V190.76V190.4H252.33V189.68H251.97V188.96H251.61V188.24H251.25V188.96H250.89V189.68H250.53V190.4H250.17V190.76V191.12H252.69ZM258.812 187.16H257.012V194H255.932V187.16H254.132V186.08H258.812V187.16ZM262.054 191.12H260.614V189.68H262.054V191.12ZM262.054 194H260.614V192.56H262.054V194ZM273.939 194H272.859V192.2H270.339V194H269.259V191.12V190.76V190.04H269.619V189.32H269.979V188.6H270.339V187.88H270.699V187.16H271.059V186.44H271.419V186.08H271.779V186.44H272.139V187.16H272.499V187.88H272.859V188.6H273.219V189.32H273.579V190.04H273.939V190.76V191.12V194ZM272.859 191.12V190.76V190.4H272.499V189.68H272.139V188.96H271.779V188.24H271.419V188.96H271.059V189.68H270.699V190.4H270.339V190.76V191.12H272.859ZM278.981 194H274.301V186.08H275.381V192.92H278.981V194ZM284.024 192.92H283.664V193.28H283.304V193.64H282.944V194H280.424V193.64H280.064V193.28H279.704V192.92H279.344V189.68H279.704V188.96H280.064V188.6H280.424V188.24H280.784V187.88H281.144V187.52H281.504V187.16H281.864V186.8H282.224V186.44H282.584V186.08H283.664V186.8H283.304V187.16H282.944V187.52H282.584V187.88H282.224V188.24H281.864V188.6H281.504V188.96H281.144V189.32H282.944V189.68H283.304V190.04H283.664V190.4H284.024V192.92ZM282.944 192.56V190.76H282.584V190.4H280.784V190.76H280.424V192.56H280.784V192.92H282.584V192.56H282.944ZM289.066 192.56H288.706V192.92H288.346V193.28H287.986V193.64H287.626V194H285.826V193.64H285.466V193.28H285.106V192.92H284.746V192.56H284.386V187.52H284.746V187.16H285.106V186.8H285.466V186.44H285.826V186.08H287.626V186.44H287.986V186.8H288.346V187.16H288.706V187.52H289.066V192.56ZM287.626 187.88V187.52V187.16H285.826V187.52H285.466V191.48H285.826V190.76H286.186V190.04H286.546V189.32H286.906V188.6H287.266V187.88H287.626ZM287.986 192.56V188.96H287.626V189.68H287.266V190.4H286.906V191.12H286.546V191.84H286.186V192.56H285.826V192.92H287.626V192.56H287.986ZM294.108 192.92H293.748V193.28H293.388V193.64H293.028V194H290.508V193.64H290.148V193.28H289.788V192.92H289.428V189.68H289.788V188.96H290.148V188.6H290.508V188.24H290.868V187.88H291.228V187.52H291.588V187.16H291.948V186.8H292.308V186.44H292.668V186.08H293.748V186.8H293.388V187.16H293.028V187.52H292.668V187.88H292.308V188.24H291.948V188.6H291.588V188.96H291.228V189.32H293.028V189.68H293.388V190.04H293.748V190.4H294.108V192.92ZM293.028 192.56V190.76H292.668V190.4H290.868V190.76H290.508V192.56H290.868V192.92H292.668V192.56H293.028ZM299.151 194H294.471V192.92H296.271V187.16H295.191V186.08H297.351V192.92H299.151V194ZM303.473 191.48H300.233V190.4H303.473V191.48ZM309.235 187.16H307.435V194H306.355V187.16H304.555V186.08H309.235V187.16ZM314.278 192.92H313.918V193.28H313.558V193.64H313.198V194H310.678V193.64H310.318V193.28H309.958V192.92H309.598V189.68H309.958V188.96H310.318V188.6H310.678V188.24H311.038V187.88H311.398V187.52H311.758V187.16H312.118V186.8H312.478V186.44H312.838V186.08H313.918V186.8H313.558V187.16H313.198V187.52H312.838V187.88H312.478V188.24H312.118V188.6H311.758V188.96H311.398V189.32H313.198V189.68H313.558V190.04H313.918V190.4H314.278V192.92ZM313.198 192.56V190.76H312.838V190.4H311.038V190.76H310.678V192.56H311.038V192.92H312.838V192.56H313.198ZM233.6 221.28H233.24V221.64H232.88V222H230.36V221.64H230V221.28H229.64V220.92H229.28V220.56H228.92V215.52H229.28V215.16H229.64V214.8H230V214.44H230.36V214.08H232.88V214.44H233.24V214.8H233.6V215.52H232.52V215.16H230.72V215.52H230.36V215.88H230V220.2H230.36V220.56H230.72V220.92H232.52V218.76H232.16V219.12H231.08V217.68H233.6V221.28ZM238.643 222H233.963V214.08H238.643V215.16H235.043V217.32H237.923V218.4H235.043V220.92H238.643V222ZM243.685 220.56H243.325V220.92H242.965V221.28H242.605V221.64H242.245V222H240.445V221.64H240.085V221.28H239.725V220.92H239.365V220.56H239.005V215.52H239.365V215.16H239.725V214.8H240.085V214.44H240.445V214.08H242.245V214.44H242.605V214.8H242.965V215.16H243.325V215.52H243.685V220.56ZM242.605 220.2V215.88H242.245V215.52H241.885V215.16H240.805V215.52H240.445V215.88H240.085V220.2H240.445V220.56H240.805V220.92H241.885V220.56H242.245V220.2H242.605ZM248.727 222H247.647V218.04H247.287V218.76H246.927V219.48H246.567V220.2H246.207V219.48H245.847V218.76H245.487V218.04H245.127V222H244.047V214.08H244.407V214.8H244.767V215.52H245.127V216.24H245.487V216.96H245.847V217.68H246.207V218.4H246.567V217.68H246.927V216.96H247.287V216.24H247.647V215.52H248.007V214.8H248.367V214.08H248.727V222ZM253.77 223.44H249.09V222.72H253.77V223.44ZM258.812 222H257.732V218.4H255.212V222H254.132V214.08H255.212V217.32H257.732V214.08H258.812V222ZM263.854 222H262.774V220.2H260.254V222H259.174V219.12V218.76V218.04H259.534V217.32H259.894V216.6H260.254V215.88H260.614V215.16H260.974V214.44H261.334V214.08H261.694V214.44H262.054V215.16H262.414V215.88H262.774V216.6H263.134V217.32H263.494V218.04H263.854V218.76V219.12V222ZM262.774 219.12V218.76V218.4H262.414V217.68H262.054V216.96H261.694V216.24H261.334V216.96H260.974V217.68H260.614V218.4H260.254V218.76V219.12H262.774ZM268.897 220.92H268.537V221.28H268.177V221.64H267.817V222H265.297V221.64H264.937V221.28H264.577V220.92H264.217V219.84H265.297V220.56H265.657V220.92H267.457V220.56H267.817V218.76H267.457V218.4H265.297V218.04H264.937V217.68H264.577V217.32H264.217V215.16H264.577V214.8H264.937V214.44H265.297V214.08H267.817V214.44H268.177V214.8H268.537V215.16H268.897V216.24H267.817V215.52H267.457V215.16H265.657V215.52H265.297V216.96H265.657V217.32H267.817V217.68H268.177V218.04H268.537V218.4H268.897V220.92ZM273.939 222H272.859V218.4H270.339V222H269.259V214.08H270.339V217.32H272.859V214.08H273.939V222ZM277.181 219.12H275.741V217.68H277.181V219.12ZM277.181 222H275.741V220.56H277.181V222ZM289.066 220.92H288.706V221.28H288.346V221.64H287.986V222H285.466V221.64H285.106V221.28H284.746V220.92H284.386V218.4H284.746V218.04H285.106V217.68H284.746V217.32H284.386V215.16H284.746V214.8H285.106V214.44H285.466V214.08H287.986V214.44H288.346V214.8H288.706V215.16H289.066V217.32H288.706V217.68H288.346V218.04H288.706V218.4H289.066V220.92ZM287.986 216.96V215.52H287.626V215.16H285.826V215.52H285.466V216.96H285.826V217.32H287.626V216.96H287.986ZM287.986 220.56V218.76H287.626V218.4H285.826V218.76H285.466V220.56H285.826V220.92H287.626V220.56H287.986ZM294.108 218.4H293.748V219.12H293.388V219.48H293.028V219.84H292.668V220.2H292.308V220.56H291.948V220.92H291.588V221.28H291.228V221.64H290.868V222H289.788V221.28H290.148V220.92H290.508V220.56H290.868V220.2H291.228V219.84H291.588V219.48H291.948V219.12H292.308V218.76H290.508V218.4H290.148V218.04H289.788V217.68H289.428V215.16H289.788V214.8H290.148V214.44H290.508V214.08H293.028V214.44H293.388V214.8H293.748V215.16H294.108V218.4ZM293.028 217.32V215.52H292.668V215.16H290.868V215.52H290.508V217.32H290.868V217.68H292.668V217.32H293.028ZM299.151 220.2H298.791V220.56H298.431V220.92H298.071V221.28H297.711V221.64H297.339V222H294.471V214.08H297.351V214.44H297.711V214.8H298.071V215.16H298.431V215.52H298.791V215.88H299.151V220.2ZM298.071 219.84V216.24H297.711V215.88H297.351V215.52H296.991V215.16H295.551V220.92H296.991V220.56H297.351V220.2H297.711V219.84H298.071ZM304.193 222H299.513V219.12H299.873V218.76H300.233V218.4H300.593V218.04H300.953V217.68H302.393V217.32H302.753V216.96H303.113V215.52H302.753V215.16H300.953V215.52H300.593V216.24H299.513V215.16H299.873V214.8H300.233V214.44H300.593V214.08H303.113V214.44H303.473V214.8H303.833V215.16H304.193V217.32H303.833V217.68H303.473V218.04H303.113V218.4H302.753V218.76H301.313V219.12H300.953V219.48H300.593V220.92H304.193V222ZM309.235 215.16H305.635V217.32H308.155V218.4H305.635V222H304.555V214.08H309.235V215.16ZM314.278 222H313.198V220.2H310.678V222H309.598V219.12V218.76V218.04H309.958V217.32H310.318V216.6H310.678V215.88H311.038V215.16H311.398V214.44H311.758V214.08H312.118V214.44H312.478V215.16H312.838V215.88H313.198V216.6H313.558V217.32H313.918V218.04H314.278V218.76V219.12V222ZM313.198 219.12V218.76V218.4H312.838V217.68H312.478V216.96H312.118V216.24H311.758V216.96H311.398V217.68H311.038V218.4H310.678V218.76V219.12H313.198ZM253.77 234.92H253.41V235.28H253.05V235.64H252.69V236H250.53V235.64H250.17V235.28H249.81V234.92H249.45V234.56H249.09V229.52H249.45V229.16H249.81V228.8H250.17V228.44H250.53V228.08H252.69V228.44H253.05V228.8H253.41V229.16H253.77V230.24H252.69V229.52H252.33V229.16H250.89V229.52H250.53V229.88H250.17V234.2H250.53V234.56H250.89V234.92H252.33V234.56H252.69V233.84H253.77V234.92ZM258.812 236H257.732V232.4H255.212V236H254.132V228.08H255.212V231.32H257.732V228.08H258.812V236ZM263.854 236H262.774V235.28H262.414V234.56H262.054V233.84H261.694V233.12H261.334V232.4H260.614V232.76H260.254V236H259.174V228.08H260.254V231.32H260.614V230.96H260.974V230.6H261.334V230.24H261.694V229.88H262.054V229.52H262.414V229.148H262.774V228.8H263.134V228.44H263.494V228.08H263.854V229.52H263.494V229.88H263.134V230.24H262.774V230.588H262.414V230.96H262.054V231.32H261.694V231.68H262.054V232.04H262.414V232.76H262.774V233.48H263.134V234.2H263.494V234.92H263.854V236ZM268.177 233.48H264.937V232.4H268.177V233.48ZM273.939 231.68H273.579V232.4H273.219V233.12H272.859V233.84H272.499V234.56H272.139V235.28H271.779V236H271.419V235.28H271.059V234.56H270.699V233.84H270.339V233.12H269.979V232.4H269.619V231.68H269.259V228.08H270.339V231.32H270.699V232.04H271.059V232.76H271.419V233.48H271.779V232.76H272.139V232.04H272.499V231.32H272.859V228.08H273.939V231.68ZM278.981 236H277.901V234.56H277.541V233.84H277.181V233.12H276.821V232.4H275.381V236H274.301V228.08H277.901V228.44H278.261V228.8H278.621V229.16H278.981V231.32H278.621V231.68H278.261V232.04H277.901V232.76H278.261V233.48H278.621V234.2H278.981V236ZM277.901 230.96V229.52H277.541V229.16H275.381V231.32H277.541V230.96H277.901ZM284.024 229.16H282.224V236H281.144V229.16H279.344V228.08H284.024V229.16ZM289.066 234.92H288.706V235.28H288.346V235.64H287.986V236H285.466V235.64H285.106V235.28H284.746V234.92H284.386V233.84H285.466V234.56H285.826V234.92H287.626V234.56H287.986V232.76H287.626V232.4H285.466V232.04H285.106V231.68H284.746V231.32H284.386V229.16H284.746V228.8H285.106V228.44H285.466V228.08H287.986V228.44H288.346V228.8H288.706V229.16H289.066V230.24H287.986V229.52H287.626V229.16H285.826V229.52H285.466V230.96H285.826V231.32H287.986V231.68H288.346V232.04H288.706V232.4H289.066V234.92ZM292.308 233.12H290.868V231.68H292.308V233.12ZM292.308 236H290.868V234.56H292.308V236ZM304.193 234.92H303.833V235.28H303.473V235.64H303.113V236H300.593V235.64H300.233V235.28H299.873V234.92H299.513V232.4H299.873V232.04H300.233V231.68H299.873V231.32H299.513V229.16H299.873V228.8H300.233V228.44H300.593V228.08H303.113V228.44H303.473V228.8H303.833V229.16H304.193V231.32H303.833V231.68H303.473V232.04H303.833V232.4H304.193V234.92ZM303.113 230.96V229.52H302.753V229.16H300.953V229.52H300.593V230.96H300.953V231.32H302.753V230.96H303.113ZM303.113 234.56V232.76H302.753V232.4H300.953V232.76H300.593V234.56H300.953V234.92H302.753V234.56H303.113ZM309.235 234.56H308.515V236H307.435V234.56H304.555V234.2V233.84H304.915V233.12H305.275V232.4H305.635V231.68H305.995V230.96H306.355V230.24H306.715V229.52H307.075V228.8H307.435V228.08H308.515V233.48H309.235V234.56ZM307.435 233.48V230.6H307.075V231.32H306.715V232.04H306.355V232.76H305.995V233.48H307.435ZM314.278 236H309.598V233.12H309.958V232.76H310.318V232.4H310.678V232.04H311.038V231.68H312.478V231.32H312.838V230.96H313.198V229.52H312.838V229.16H311.038V229.52H310.678V230.24H309.598V229.16H309.958V228.8H310.318V228.44H310.678V228.08H313.198V228.44H313.558V228.8H313.918V229.16H314.278V231.32H313.918V231.68H313.558V232.04H313.198V232.4H312.838V232.76H311.398V233.12H311.038V233.48H310.678V234.92H314.278V236ZM258.812 257.16H257.012V264H255.932V257.16H254.132V256.08H258.812V257.16ZM263.854 262.56H263.494V262.92H263.134V263.28H262.774V263.64H262.414V264H260.614V263.64H260.254V263.28H259.894V262.92H259.534V262.56H259.174V257.52H259.534V257.16H259.894V256.8H260.254V256.44H260.614V256.08H262.414V256.44H262.774V256.8H263.134V257.16H263.494V257.52H263.854V262.56ZM262.774 262.2V257.88H262.414V257.52H262.054V257.16H260.974V257.52H260.614V257.88H260.254V262.2H260.614V262.56H260.974V262.92H262.054V262.56H262.414V262.2H262.774ZM268.897 264H264.217V256.08H265.297V262.92H268.897V264ZM272.139 261.12H270.699V259.68H272.139V261.12ZM272.139 264H270.699V262.56H272.139V264ZM284.024 260.04H282.224V261.84H281.144V260.04H279.344V258.96H281.144V257.16H282.224V258.96H284.024V260.04ZM284.024 263.64H279.344V262.56H284.024V263.64ZM289.066 262.56H288.706V262.92H288.346V263.28H287.986V263.64H287.626V264H285.826V263.64H285.466V263.28H285.106V262.92H284.746V262.56H284.386V257.52H284.746V257.16H285.106V256.8H285.466V256.44H285.826V256.08H287.626V256.44H287.986V256.8H288.346V257.16H288.706V257.52H289.066V262.56ZM287.626 257.88V257.52V257.16H285.826V257.52H285.466V261.48H285.826V260.76H286.186V260.04H286.546V259.32H286.906V258.6H287.266V257.88H287.626ZM287.986 262.56V258.96H287.626V259.68H287.266V260.4H286.906V261.12H286.546V261.84H286.186V262.56H285.826V262.92H287.626V262.56H287.986ZM292.308 264H290.868V262.56H292.308V264ZM299.151 262.56H298.791V262.92H298.431V263.28H298.071V263.64H297.711V264H295.911V263.64H295.551V263.28H295.191V262.92H294.831V262.56H294.471V257.52H294.831V257.16H295.191V256.8H295.551V256.44H295.911V256.08H297.711V256.44H298.071V256.8H298.431V257.16H298.791V257.52H299.151V262.56ZM297.711 257.88V257.52V257.16H295.911V257.52H295.551V261.48H295.911V260.76H296.271V260.04H296.631V259.32H296.991V258.6H297.351V257.88H297.711ZM298.071 262.56V258.96H297.711V259.68H297.351V260.4H296.991V261.12H296.631V261.84H296.271V262.56H295.911V262.92H297.711V262.56H298.071ZM304.193 264H299.513V261.12H299.873V260.76H300.233V260.4H300.593V260.04H300.953V259.68H302.393V259.32H302.753V258.96H303.113V257.52H302.753V257.16H300.953V257.52H300.593V258.24H299.513V257.16H299.873V256.8H300.233V256.44H300.593V256.08H303.113V256.44H303.473V256.8H303.833V257.16H304.193V259.32H303.833V259.68H303.473V260.04H303.113V260.4H302.753V260.76H301.313V261.12H300.953V261.48H300.593V262.92H304.193V264ZM309.235 264H308.155V260.04H307.795V260.76H307.435V261.48H307.075V262.2H306.715V261.48H306.355V260.76H305.995V260.04H305.635V264H304.555V256.08H304.915V256.8H305.275V257.52H305.635V258.24H305.995V258.96H306.355V259.68H306.715V260.4H307.075V259.68H307.435V258.96H307.795V258.24H308.155V257.52H308.515V256.8H308.875V256.08H309.235V264ZM314.278 264H313.198V260.04H312.838V260.76H312.478V261.48H312.118V262.2H311.758V261.48H311.398V260.76H311.038V260.04H310.678V264H309.598V256.08H309.958V256.8H310.318V257.52H310.678V258.24H311.038V258.96H311.398V259.68H311.758V260.4H312.118V259.68H312.478V258.96H312.838V258.24H313.198V257.52H313.558V256.8H313.918V256.08H314.278V264ZM258.812 287.68H258.452V288.04H258.092V288.4H257.732V288.76H255.212V292H254.132V284.08H257.732V284.44H258.092V284.8H258.452V285.16H258.812V287.68ZM257.732 287.32V285.52H257.372V285.16H255.212V287.68H257.372V287.32H257.732ZM263.854 292H262.774V291.64H262.414V290.92H262.054V290.2H261.694V289.48H261.334V288.76H260.974V288.04H260.614V287.32H260.254V292H259.174V284.08H259.894V284.8H260.254V285.52H260.614V286.24H260.974V286.96H261.334V287.68H261.694V288.4H262.054V289.12H262.414V289.84H262.774V284.08H263.854V292ZM267.097 289.12H265.657V287.68H267.097V289.12ZM267.097 292H265.657V290.56H267.097V292ZM278.981 292H274.301V289.12H274.661V288.76H275.021V288.4H275.381V288.04H275.741V287.68H277.181V287.32H277.541V286.96H277.901V285.52H277.541V285.16H275.741V285.52H275.381V286.24H274.301V285.16H274.661V284.8H275.021V284.44H275.381V284.08H277.901V284.44H278.261V284.8H278.621V285.16H278.981V287.32H278.621V287.68H278.261V288.04H277.901V288.4H277.541V288.76H276.101V289.12H275.741V289.48H275.381V290.92H278.981V292ZM284.024 290.56H283.304V292H282.224V290.56H279.344V290.2V289.84H279.704V289.12H280.064V288.4H280.424V287.68H280.784V286.96H281.144V286.24H281.504V285.52H281.864V284.8H282.224V284.08H283.304V289.48H284.024V290.56ZM282.224 289.48V286.6H281.864V287.32H281.504V288.04H281.144V288.76H280.784V289.48H282.224ZM289.066 290.92H288.706V291.28H288.346V291.64H287.986V292H285.466V291.64H285.106V291.28H284.746V290.92H284.386V288.4H284.746V288.04H285.106V287.68H284.746V287.32H284.386V285.16H284.746V284.8H285.106V284.44H285.466V284.08H287.986V284.44H288.346V284.8H288.706V285.16H289.066V287.32H288.706V287.68H288.346V288.04H288.706V288.4H289.066V290.92ZM287.986 286.96V285.52H287.626V285.16H285.826V285.52H285.466V286.96H285.826V287.32H287.626V286.96H287.986ZM287.986 290.56V288.76H287.626V288.4H285.826V288.76H285.466V290.56H285.826V290.92H287.626V290.56H287.986ZM294.108 290.92H293.748V291.28H293.388V291.64H293.028V292H290.508V291.64H290.148V291.28H289.788V290.92H289.428V289.84H290.508V290.56H290.868V290.92H292.668V290.56H293.028V289.12H292.668V288.76H292.308V288.4H291.948V288.04H291.588V287.68H291.228V287.32H290.868V286.96H291.228V286.6H291.588V286.24H291.948V285.88H292.308V285.52H292.668V285.16H289.428V284.08H294.108V285.52H293.748V285.88H293.388V286.24H293.028V286.6H292.668V286.96H292.308V287.32H292.668V287.68H293.028V288.04H293.388V288.4H293.748V288.76H294.108V290.92ZM298.431 289.48H295.191V288.4H298.431V289.48ZM304.193 292H303.113V290.2H300.593V292H299.513V289.12V288.76V288.04H299.873V287.32H300.233V286.6H300.593V285.88H300.953V285.16H301.313V284.44H301.673V284.08H302.033V284.44H302.393V285.16H302.753V285.88H303.113V286.6H303.473V287.32H303.833V288.04H304.193V288.76V289.12V292ZM303.113 289.12V288.76V288.4H302.753V287.68H302.393V286.96H302.033V286.24H301.673V286.96H301.313V287.68H300.953V288.4H300.593V288.76V289.12H303.113ZM309.235 292H308.155V290.92H307.795V289.84H307.435V289.12H307.075V288.76H306.715V289.12H306.355V289.84H305.995V290.92H305.635V292H304.555V290.92H304.915V289.84H305.275V289.12H305.635V288.4H305.995V287.68H305.635V286.96H305.275V286.24H304.915V285.16H304.555V284.08H305.635V285.16H305.995V286.24H306.355V286.96H306.715V287.32H307.075V286.96H307.435V286.24H307.795V285.16H308.155V284.08H309.235V285.16H308.875V286.24H308.515V286.96H308.155V287.68H307.795V288.4H308.155V289.12H308.515V289.84H308.875V290.92H309.235V292ZM314.278 288.4H313.918V289.12H313.558V289.48H313.198V289.84H312.838V290.2H312.478V290.56H312.118V290.92H311.758V291.28H311.398V291.64H311.038V292H309.958V291.28H310.318V290.92H310.678V290.56H311.038V290.2H311.398V289.84H311.758V289.48H312.118V289.12H312.478V288.76H310.678V288.4H310.318V288.04H309.958V287.68H309.598V285.16H309.958V284.8H310.318V284.44H310.678V284.08H313.198V284.44H313.558V284.8H313.918V285.16H314.278V288.4ZM313.198 287.32V285.52H312.838V285.16H311.038V285.52H310.678V287.32H311.038V287.68H312.838V287.32H313.198ZM218.473 304.2H218.113V304.56H217.753V304.92H217.393V305.28H217.033V305.64H216.661V306H213.793V298.08H216.673V298.44H217.033V298.8H217.393V299.16H217.753V299.52H218.113V299.88H218.473V304.2ZM217.393 303.84V300.24H217.033V299.88H216.673V299.52H216.313V299.16H214.873V304.92H216.313V304.56H216.673V304.2H217.033V303.84H217.393ZM223.515 304.56H223.155V304.92H222.795V305.28H222.435V305.64H222.075V306H220.275V305.64H219.915V305.28H219.555V304.92H219.195V304.56H218.835V299.52H219.195V299.16H219.555V298.8H219.915V298.44H220.275V298.08H222.075V298.44H222.435V298.8H222.795V299.16H223.155V299.52H223.515V304.56ZM222.435 304.2V299.88H222.075V299.52H221.715V299.16H220.635V299.52H220.275V299.88H219.915V304.2H220.275V304.56H220.635V304.92H221.715V304.56H222.075V304.2H222.435ZM233.6 306H232.52V305.64H232.16V304.92H231.8V304.2H231.44V303.48H231.08V302.76H230.72V302.04H230.36V301.32H230V306H228.92V298.08H229.64V298.8H230V299.52H230.36V300.24H230.72V300.96H231.08V301.68H231.44V302.4H231.8V303.12H232.16V303.84H232.52V298.08H233.6V306ZM238.643 304.56H238.283V304.92H237.923V305.28H237.563V305.64H237.203V306H235.403V305.64H235.043V305.28H234.683V304.92H234.323V304.56H233.963V299.52H234.323V299.16H234.683V298.8H235.043V298.44H235.403V298.08H237.203V298.44H237.563V298.8H237.923V299.16H238.283V299.52H238.643V304.56ZM237.563 304.2V299.88H237.203V299.52H236.843V299.16H235.763V299.52H235.403V299.88H235.043V304.2H235.403V304.56H235.763V304.92H236.843V304.56H237.203V304.2H237.563ZM243.685 299.16H241.885V306H240.805V299.16H239.005V298.08H243.685V299.16ZM253.77 306H252.69V304.56H252.33V303.84H251.97V303.12H251.61V302.4H250.17V306H249.09V298.08H252.69V298.44H253.05V298.8H253.41V299.16H253.77V301.32H253.41V301.68H253.05V302.04H252.69V302.76H253.05V303.48H253.41V304.2H253.77V306ZM252.69 300.96V299.52H252.33V299.16H250.17V301.32H252.33V300.96H252.69ZM258.812 306H254.132V298.08H258.812V299.16H255.212V301.32H258.092V302.4H255.212V304.92H258.812V306ZM263.854 306H262.774V302.04H262.414V302.76H262.054V303.48H261.694V304.2H261.334V303.48H260.974V302.76H260.614V302.04H260.254V306H259.174V298.08H259.534V298.8H259.894V299.52H260.254V300.24H260.614V300.96H260.974V301.68H261.334V302.4H261.694V301.68H262.054V300.96H262.414V300.24H262.774V299.52H263.134V298.8H263.494V298.08H263.854V306ZM268.897 304.56H268.537V304.92H268.177V305.28H267.817V305.64H267.457V306H265.657V305.64H265.297V305.28H264.937V304.92H264.577V304.56H264.217V299.52H264.577V299.16H264.937V298.8H265.297V298.44H265.657V298.08H267.457V298.44H267.817V298.8H268.177V299.16H268.537V299.52H268.897V304.56ZM267.817 304.2V299.88H267.457V299.52H267.097V299.16H266.017V299.52H265.657V299.88H265.297V304.2H265.657V304.56H266.017V304.92H267.097V304.56H267.457V304.2H267.817ZM273.939 301.68H273.579V302.4H273.219V303.12H272.859V303.84H272.499V304.56H272.139V305.28H271.779V306H271.419V305.28H271.059V304.56H270.699V303.84H270.339V303.12H269.979V302.4H269.619V301.68H269.259V298.08H270.339V301.32H270.699V302.04H271.059V302.76H271.419V303.48H271.779V302.76H272.139V302.04H272.499V301.32H272.859V298.08H273.939V301.68ZM278.981 306H274.301V298.08H278.981V299.16H275.381V301.32H278.261V302.4H275.381V304.92H278.981V306ZM289.066 304.2H288.706V304.56H288.346V304.92H287.986V305.28H287.626V305.64H287.254V306H284.386V298.08H287.266V298.44H287.626V298.8H287.986V299.16H288.346V299.52H288.706V299.88H289.066V304.2ZM287.986 303.84V300.24H287.626V299.88H287.266V299.52H286.906V299.16H285.466V304.92H286.906V304.56H287.266V304.2H287.626V303.84H287.986ZM294.108 304.92H293.748V305.28H293.388V305.64H293.028V306H290.508V305.64H290.148V305.28H289.788V304.92H289.428V298.08H290.508V304.56H290.868V304.92H292.668V304.56H293.028V298.08H294.108V304.92ZM299.151 306H298.071V304.56H297.711V303.84H297.351V303.12H296.991V302.4H295.551V306H294.471V298.08H298.071V298.44H298.431V298.8H298.791V299.16H299.151V301.32H298.791V301.68H298.431V302.04H298.071V302.76H298.431V303.48H298.791V304.2H299.151V306ZM298.071 300.96V299.52H297.711V299.16H295.551V301.32H297.711V300.96H298.071ZM304.193 306H299.513V304.92H301.313V299.16H300.593V298.08H303.113V299.16H302.393V304.92H304.193V306ZM309.235 306H308.155V305.64H307.795V304.92H307.435V304.2H307.075V303.48H306.715V302.76H306.355V302.04H305.995V301.32H305.635V306H304.555V298.08H305.275V298.8H305.635V299.52H305.995V300.24H306.355V300.96H306.715V301.68H307.075V302.4H307.435V303.12H307.795V303.84H308.155V298.08H309.235V306ZM314.278 305.28H313.918V305.64H313.558V306H311.038V305.64H310.678V305.28H310.318V304.92H309.958V304.56H309.598V299.52H309.958V299.16H310.318V298.8H310.678V298.44H311.038V298.08H313.558V298.44H313.918V298.8H314.278V299.52H313.198V299.16H311.398V299.52H311.038V299.88H310.678V304.2H311.038V304.56H311.398V304.92H313.198V302.76H312.838V303.12H311.758V301.68H314.278V305.28ZM273.939 318.56H273.579V318.92H273.219V319.28H272.859V319.64H272.499V320H270.699V319.64H270.339V319.28H269.979V318.92H269.619V318.56H269.259V313.52H269.619V313.16H269.979V312.8H270.339V312.44H270.699V312.08H272.499V312.44H272.859V312.8H273.219V313.16H273.579V313.52H273.939V318.56ZM272.859 318.2V313.88H272.499V313.52H272.139V313.16H271.059V313.52H270.699V313.88H270.339V318.2H270.699V318.56H271.059V318.92H272.139V318.56H272.499V318.2H272.859ZM278.981 315.68H278.621V316.04H278.261V316.4H277.901V316.76H275.381V320H274.301V312.08H277.901V312.44H278.261V312.8H278.621V313.16H278.981V315.68ZM277.901 315.32V313.52H277.541V313.16H275.381V315.68H277.541V315.32H277.901ZM284.024 320H279.344V312.08H284.024V313.16H280.424V315.32H283.304V316.4H280.424V318.92H284.024V320ZM289.066 320H287.986V318.56H287.626V317.84H287.266V317.12H286.906V316.4H285.466V320H284.386V312.08H287.986V312.44H288.346V312.8H288.706V313.16H289.066V315.32H288.706V315.68H288.346V316.04H287.986V316.76H288.346V317.48H288.706V318.2H289.066V320ZM287.986 314.96V313.52H287.626V313.16H285.466V315.32H287.626V314.96H287.986ZM294.108 320H293.028V318.2H290.508V320H289.428V317.12V316.76V316.04H289.788V315.32H290.148V314.6H290.508V313.88H290.868V313.16H291.228V312.44H291.588V312.08H291.948V312.44H292.308V313.16H292.668V313.88H293.028V314.6H293.388V315.32H293.748V316.04H294.108V316.76V317.12V320ZM293.028 317.12V316.76V316.4H292.668V315.68H292.308V314.96H291.948V314.24H291.588V314.96H291.228V315.68H290.868V316.4H290.508V316.76V317.12H293.028ZM299.151 313.16H297.351V320H296.271V313.16H294.471V312.08H299.151V313.16ZM304.193 320H299.513V318.92H301.313V313.16H300.593V312.08H303.113V313.16H302.393V318.92H304.193V320ZM309.235 318.56H308.875V318.92H308.515V319.28H308.155V319.64H307.795V320H305.995V319.64H305.635V319.28H305.275V318.92H304.915V318.56H304.555V313.52H304.915V313.16H305.275V312.8H305.635V312.44H305.995V312.08H307.795V312.44H308.155V312.8H308.515V313.16H308.875V313.52H309.235V318.56ZM308.155 318.2V313.88H307.795V313.52H307.435V313.16H306.355V313.52H305.995V313.88H305.635V318.2H305.995V318.56H306.355V318.92H307.435V318.56H307.795V318.2H308.155ZM314.278 320H313.198V319.64H312.838V318.92H312.478V318.2H312.118V317.48H311.758V316.76H311.398V316.04H311.038V315.32H310.678V320H309.598V312.08H310.318V312.8H310.678V313.52H311.038V314.24H311.398V314.96H311.758V315.68H312.118V316.4H312.478V317.12H312.838V317.84H313.198V312.08H314.278V320Z" fill="#4B4B4B"/>
<rect x="18" width="6" height="6" fill="#4B4B4B"/>
<path d="M315 29H311V25H315V29ZM311 25H303V17H307V21H311V25ZM315 21H311V17H315V21Z" fill="#4B4B4B"/>
<rect x="326" width="6" height="6" fill="#4B4B4B"/>
<rect x="18" y="333" width="6" height="6" fill="#4B4B4B"/>
<rect x="326" y="333" width="6" height="6" fill="#4B4B4B"/>
</g>
<rect x="18.5" y="0.5" width="313" height="338" stroke="#4B4B4B"/>
<defs>
<clipPath id="clip0_3101_7373">
<rect x="18" width="314" height="339" fill="white"/>
</clipPath>
</defs>
</svg>
