<svg width="76" height="35" viewBox="0 0 76 35" fill="none" xmlns="http://www.w3.org/2000/svg">
<path d="M6.81337 34H5.24105V28H4.71695V29.0909H4.19284V30.1818H3.66874V31.2727H3.14463V30.1818H2.62053V29.0909H2.09642V28H1.57232V34H0V22H0.524105V23.0909H1.04821V24.1818H1.57232V25.2727H2.09642V26.3636H2.62053V27.4545H3.14463V28.5455H3.66874V27.4545H4.19284V26.3636H4.71695V25.2727H5.24105V24.1818H5.76516V23.0909H6.28926V22H6.81337V34Z" fill="white"/>
<path d="M14.1543 34H12.5819V31.2727H8.9132V34H7.34089V28H7.86499V26.9091H8.3891V25.8182H8.9132V24.7273H9.43731V23.6364H9.96141V22.5455H10.4855V22H11.0096V22.5455H11.5337V23.6364H12.0578V24.7273H12.5819V25.8182H13.106V26.9091H13.6302V28H14.1543V34ZM12.5819 29.6364V28.5455H12.0578V27.4545H11.5337V26.3636H11.0096V25.2727H10.4855V26.3636H9.96141V27.4545H9.43731V28.5455H8.9132V29.6364H12.5819Z" fill="white"/>
<path d="M21.4951 31.2727H20.971V31.8182H20.4469V32.3636H19.9228V32.9091H19.3987V33.4545H18.8571V34H14.6818V22H18.8746V22.5455H19.3987V23.0909H19.9228V23.6364H20.4469V24.1818H20.971V24.7273H21.4951V31.2727ZM19.9228 30.7273V25.2727H19.3987V24.7273H18.8746V24.1818H18.3505V23.6364H16.2541V32.3636H18.3505V31.8182H18.8746V31.2727H19.3987V30.7273H19.9228Z" fill="white"/>
<path d="M28.836 34H22.0227V22H28.836V23.6364H23.595V26.9091H27.7878V28.5455H23.595V32.3636H28.836V34Z" fill="white"/>
<path d="M41.4067 32.3636H40.8826V32.9091H40.3585V33.4545H39.8344V34H34.5933V22H39.8344V22.5455H40.3585V23.0909H40.8826V23.6364H41.4067V26.3636H40.8826V26.9091H40.3585V27.4545H39.8344V28H40.3585V28.5455H40.8826V29.0909H41.4067V32.3636ZM39.8344 25.8182V24.1818H39.3103V23.6364H36.1656V26.9091H38.7862V26.3636H39.3103V25.8182H39.8344ZM39.8344 31.8182V29.6364H39.3103V29.0909H38.7862V28.5455H36.1656V32.3636H39.3103V31.8182H39.8344Z" fill="white"/>
<path d="M48.7476 23.6364H48.2235V24.7273H47.6994V25.8182H47.1753V26.9091H46.6512V28H46.1271V34H44.5547V28H44.0306V26.9091H43.5065V25.8182H42.9824V24.7273H42.4583V23.6364H41.9342V22H43.5065V23.0909H44.0306V24.1818H44.5547V25.2727H45.0788V26.3636H45.6029V25.2727H46.1271V24.1818H46.6512V23.0909H47.1753V22H48.7476V23.6364Z" fill="white"/>
<path d="M61.3182 34H59.7459V31.2727H56.0772V34H54.5049V28H55.029V26.9091H55.5531V25.8182H56.0772V24.7273H56.6013V23.6364H57.1254V22.5455H57.6495V22H58.1736V22.5455H58.6977V23.6364H59.2218V24.7273H59.7459V25.8182H60.27V26.9091H60.7941V28H61.3182V34ZM59.7459 29.6364V28.5455H59.2218V27.4545H58.6977V26.3636H58.1736V25.2727H57.6495V26.3636H57.1254V27.4545H56.6013V28.5455H56.0772V29.6364H59.7459Z" fill="white"/>
<path d="M68.6591 34H67.0868V31.8182H66.5627V30.7273H66.0386V29.6364H65.5145V28.5455H63.4181V34H61.8458V22H67.0868V22.5455H67.6109V23.0909H68.135V23.6364H68.6591V26.9091H68.135V27.4545H67.6109V28H67.0868V29.0909H67.6109V30.1818H68.135V31.2727H68.6591V34ZM67.0868 26.3636V24.1818H66.5627V23.6364H63.4181V26.9091H66.5627V26.3636H67.0868Z" fill="white"/>
<path d="M76 34H74.4277V32.9091H73.9036V31.8182H73.3795V30.7273H72.8554V29.6364H72.3313V28.5455H71.2831V29.0909H70.759V34H69.1866V22H70.759V26.9091H71.2831V26.3636H71.8072V25.8182H72.3313V25.2727H72.8554V24.7273H73.3795V24.1818H73.9036V23.6182H74.4277V23.0909H74.9518V22.5455H75.4759V22H76V24.1818H75.4759V24.7273H74.9518V25.2727H74.4277V25.8H73.9036V26.3636H73.3795V26.9091H72.8554V27.4545H73.3795V28H73.9036V29.0909H74.4277V30.1818H74.9518V31.2727H75.4759V32.3636H76V34Z" fill="white"/>
<path d="M19.1335 0L0 19H36.3981L44.3185 11.2191V19H76V0H19.1335Z" fill="white"/>
<rect width="5" height="2" transform="translate(0 17)" fill="white"/>
<rect width="5" height="2" transform="translate(6 11)" fill="white"/>
<rect width="5" height="2" transform="translate(12 5)" fill="white"/>
<rect width="5" height="4" transform="translate(35 15)" fill="white"/>
<rect width="5" height="4" transform="translate(37 13)" fill="white"/>
<rect width="5" height="4" transform="translate(40 11)" fill="white"/>
<rect width="5" height="4" transform="translate(40 10)" fill="white"/>
<rect width="5" height="4" transform="translate(2 15)" fill="white"/>
<rect width="5" height="4" transform="translate(8 9)" fill="white"/>
<rect width="5" height="4" transform="translate(14 3)" fill="white"/>
<rect width="5" height="5" transform="translate(4 13)" fill="white"/>
<rect width="5" height="5" transform="translate(10 7)" fill="white"/>
<rect width="5" height="5" transform="translate(16 1)" fill="white"/>
<rect width="5" height="5" transform="translate(18)" fill="white"/>
</svg>
