<?xml version="1.0" standalone="no"?>
<!DOCTYPE svg PUBLIC "-//W3C//DTD SVG 1.1//EN" "http://www.w3.org/Graphics/SVG/1.1/DTD/svg11.dtd" >
<svg xmlns="http://www.w3.org/2000/svg" xmlns:xlink="http://www.w3.org/1999/xlink" version="1.1">
<metadata>
Created by FontForge 20201107 at Mon Jun 10 03:52:44 2024
 By 
(c) 2010 Klim Type Foundry. All rights reserved.
</metadata>
<defs>
<font id="FoundersGrotesk-Regular" horiz-adv-x="1024" >
  <font-face 
    font-family="Founders Grotesk Regular"
    font-weight="400"
    font-stretch="normal"
    units-per-em="2048"
    panose-1="2 11 5 3 3 2 2 6 2 3"
    ascent="1290"
    descent="-758"
    x-height="895"
    cap-height="1290"
    bbox="-152 -395 2263 1907"
    underline-thickness="81"
    underline-position="-142"
    unicode-range="U+0020-FB04"
  />
<missing-glyph horiz-adv-x="1245" 
 />
    <glyph glyph-name="ff" unicode="ff" horiz-adv-x="1124" 
d="M692 772h-373v-772h-167v772h-138v123h138v96q0 139 78 221t208 82q120 0 217 -65l-45 -113q-71 51 -149 51q-71 0 -106.5 -45.5t-35.5 -128.5v-98h373v100q0 145 79 232.5t218 87.5q115 0 182.5 -51t98.5 -154l-117 -41q-18 56 -57.5 89.5t-98.5 33.5q-69 0 -103 -46
t-34 -128v-123h252v-123h-252v-772h-168v772z" />
    <glyph glyph-name="fi" unicode="fi" horiz-adv-x="976" 
d="M152 772h-138v123h138v63q0 164 91.5 260.5t254.5 96.5q131 0 208.5 -54t116.5 -165l-137 -47q-20 62 -66 98.5t-116 36.5q-86 0 -135.5 -54t-49.5 -155v-80h543v-895h-170v772h-373v-772h-167v772z" />
    <glyph glyph-name="fl" unicode="fl" horiz-adv-x="976" 
d="M616 1264l-38 -117q-55 39 -119 39q-70 0 -105 -46t-35 -128v-117h240v-123h-240v-772h-167v772h-138v123h138v113q0 143 74.5 225t207.5 82q105 0 182 -51zM692 1290h170v-1290h-170v1290z" />
    <glyph glyph-name="ffi" unicode="ffi" horiz-adv-x="1517" 
d="M692 772h-373v-772h-167v772h-138v123h138v96q0 139 78 221t208 82q120 0 217 -65l-45 -113q-71 51 -149 51q-71 0 -106.5 -45.5t-35.5 -128.5v-98h373v63q0 164 91.5 260.5t254.5 96.5q131 0 209 -54t117 -165l-135 -47q-21 62 -68 98.5t-117 36.5q-86 0 -135 -54
t-49 -155v-80h543v-895h-170v772h-373v-772h-168v772z" />
    <glyph glyph-name="ffl" unicode="ffl" horiz-adv-x="1517" 
d="M692 772h-373v-772h-167v772h-138v123h138v96q0 139 78 221t208 82q120 0 217 -65l-45 -113q-71 51 -149 51q-71 0 -106.5 -45.5t-35.5 -128.5v-98h373v113q0 143 75.5 225t207.5 82q105 0 182 -51l-39 -117q-55 39 -119 39q-70 0 -104.5 -46t-34.5 -128v-117h240v-123
h-240v-772h-168v772zM1233 1290h170v-1290h-170v1290z" />
    <glyph glyph-name="f_b" unicode="fb" horiz-adv-x="1652" 
d="M858 473v-51q0 -144 81 -227.5t206 -83.5q131 0 202.5 89.5t71.5 245.5t-72 246t-202 90q-125 0 -206 -83t-81 -226zM858 186l-37 -186h-129v1290h170v-583q31 90 117 151.5t205 61.5q128 0 222 -64t140.5 -170t46.5 -240q0 -206 -109 -338.5t-302 -132.5
q-119 0 -205 60.5t-119 150.5zM616 1264l-38 -117q-55 39 -119 39q-70 0 -105 -46t-35 -128v-117h240v-123h-240v-772h-167v772h-138v123h138v113q0 143 74.5 225t207.5 82q105 0 182 -51z" />
    <glyph glyph-name="f_f_b" unicode="ffb" horiz-adv-x="2193" 
d="M1399 473v-51q0 -144 81 -227.5t206 -83.5q130 0 202 89.5t72 245.5t-72 246t-202 90q-125 0 -206 -83t-81 -226zM1399 186l-37 -186h-129v1290h170v-583q33 90 117.5 151.5t203.5 61.5q128 0 222.5 -64t141 -170t46.5 -240q0 -205 -109.5 -338t-302.5 -133
q-119 0 -204.5 60.5t-118.5 150.5zM692 772h-373v-772h-167v772h-138v123h138v96q0 139 78 221t208 82q120 0 217 -65l-45 -113q-71 51 -149 51q-71 0 -106.5 -45.5t-35.5 -128.5v-98h373v113q0 143 75.5 225t207.5 82q105 0 182 -51l-39 -117q-55 39 -119 39
q-70 0 -104.5 -46t-34.5 -128v-117h240v-123h-240v-772h-168v772z" />
    <glyph glyph-name="f_h" unicode="fh" horiz-adv-x="1591" 
d="M862 514v-514h-170v1290h170v-555q32 82 114.5 133.5t182.5 51.5q169 0 248.5 -99t79.5 -266v-555h-170v541q0 115 -54.5 179t-158.5 64q-103 0 -172.5 -74.5t-69.5 -195.5zM616 1264l-38 -117q-55 39 -119 39q-70 0 -105 -46t-35 -128v-117h240v-123h-240v-772h-167v772
h-138v123h138v113q0 143 74.5 225t207.5 82q105 0 182 -51z" />
    <glyph glyph-name="f_f_h" unicode="ffh" horiz-adv-x="2131" 
d="M1403 514v-514h-170v1290h170v-555q34 82 116 133.5t181 51.5q169 0 248.5 -99t79.5 -266v-555h-170v541q0 115 -54.5 179t-158.5 64q-103 0 -172.5 -74.5t-69.5 -195.5zM692 772h-373v-772h-167v772h-138v123h138v96q0 139 78 221t208 82q120 0 217 -65l-45 -113
q-71 51 -149 51q-71 0 -106.5 -45.5t-35.5 -128.5v-98h373v113q0 143 75.5 225t207.5 82q105 0 182 -51l-39 -117q-55 39 -119 39q-70 0 -104.5 -46t-34.5 -128v-117h240v-123h-240v-772h-168v772z" />
    <glyph glyph-name="f_idieresis" unicode="f&#xef;" horiz-adv-x="976" 
d="M152 772h-138v123h138v102q0 143 81 230.5t222 87.5q220 0 282 -205l-133 -47q-40 125 -145 125q-68 0 -104 -44.5t-36 -125.5v-123h543v-895h-170v772h-373v-772h-167v772zM834 1081v193h167v-193h-167z" />
    <glyph glyph-name="f_f_idieresis" unicode="ff&#xef;" horiz-adv-x="1517" 
d="M692 772h-373v-772h-167v772h-138v123h138v96q0 139 78 221t208 82q120 0 217 -65l-45 -113q-71 51 -149 51q-71 0 -106.5 -45.5t-35.5 -128.5v-98h373v102q0 143 81 230.5t222 87.5q221 0 283 -205l-133 -47q-16 57 -53 91t-93 34q-68 0 -103.5 -44.5t-35.5 -125.5v-123
h543v-895h-170v772h-373v-772h-168v772zM1374 1081v193h168v-193h-168z" />
    <glyph glyph-name="f_j" unicode="fj" horiz-adv-x="976" 
d="M692 -135v907h-373v-772h-167v772h-138v123h138v63q0 164 91.5 260.5t254.5 96.5q131 0 208.5 -54t116.5 -165l-137 -47q-20 62 -66 98.5t-116 36.5q-86 0 -135.5 -54t-49.5 -155v-80h543v-1018q0 -120 -60 -183t-177 -63t-201 66l41 108q68 -45 141 -45q86 0 86 105z
" />
    <glyph glyph-name="f_f_j" unicode="ffj" horiz-adv-x="1517" 
d="M1233 -135v907h-373v-772h-168v772h-373v-772h-167v772h-138v123h138v96q0 139 78 221t208 82q120 0 217 -65l-45 -113q-71 51 -149 51q-71 0 -106.5 -45.5t-35.5 -128.5v-98h373v63q0 164 91.5 260.5t254.5 96.5q131 0 209 -54t117 -165l-135 -47q-21 62 -68 98.5
t-117 36.5q-86 0 -135 -54t-49 -155v-80h543v-1018q0 -119 -60 -182.5t-178 -63.5q-116 0 -200 66l43 108q68 -45 139 -45q86 0 86 105z" />
    <glyph glyph-name="f_k" unicode="fk" horiz-adv-x="1556" 
d="M862 324v-324h-170v1290h170v-801l451 406h213l-412 -367l430 -528h-198l-359 434zM616 1264l-38 -117q-55 39 -119 39q-70 0 -105 -46t-35 -128v-117h240v-123h-240v-772h-167v772h-138v123h138v113q0 143 74.5 225t207.5 82q105 0 182 -51z" />
    <glyph glyph-name="f_f_k" unicode="ffk" horiz-adv-x="2097" 
d="M1403 324v-324h-170v1290h170v-801l450 406h213l-411 -367l430 -528h-199l-356 434zM692 772h-373v-772h-167v772h-138v123h138v96q0 139 78 221t208 82q120 0 217 -65l-45 -113q-71 51 -149 51q-71 0 -106.5 -45.5t-35.5 -128.5v-98h373v113q0 143 75.5 225t207.5 82
q105 0 182 -51l-39 -117q-55 39 -119 39q-70 0 -104.5 -46t-34.5 -128v-117h240v-123h-240v-772h-168v772z" />
    <glyph glyph-name=".notdef" horiz-adv-x="1245" 
 />
    <glyph glyph-name=".null" horiz-adv-x="0" 
 />
    <glyph glyph-name="nonmarkingreturn" horiz-adv-x="682" 
 />
    <glyph glyph-name="space" unicode=" " horiz-adv-x="368" 
 />
    <glyph glyph-name="exclam" unicode="!" horiz-adv-x="391" 
d="M94 0v205h205v-205h-205zM104 1290h183v-360l-49 -592h-82l-52 592v360z" />
    <glyph glyph-name="quotedbl" unicode="&#x22;" horiz-adv-x="591" 
d="M94 834v456h146v-456h-146zM352 834v456h146v-456h-146z" />
    <glyph glyph-name="numbersign" unicode="#" horiz-adv-x="1245" 
d="M1118 461l-22 -119h-248l-82 -342h-145l81 342h-303l-82 -342h-143l82 342h-215l22 119h222l86 368h-244l23 121h249l82 340h144l-82 -340h303l82 340h145l-82 -340h213l-22 -121h-219l-86 -368h241zM514 829l-86 -368h303l86 368h-303z" />
    <glyph glyph-name="dollar" unicode="$" horiz-adv-x="1134" 
d="M45 461l158 10q6 -151 89 -242t218 -112v458l-109 23q-148 28 -233.5 113.5t-85.5 230.5q0 165 115 266t313 107v178h115v-184q195 -23 303.5 -142.5t109.5 -314.5l-157 -8q-4 134 -71 218t-185 107v-452l88 -17q180 -35 266 -117t86 -233q0 -167 -121.5 -266
t-318.5 -107v-186h-115v189q-210 21 -337.5 147t-127.5 334zM655 549l-30 6v-444q124 8 198 68t74 159q0 88 -57.5 137t-184.5 74zM248 952q0 -92 58 -138t177 -69l27 -6v441q-127 -4 -194.5 -63t-67.5 -165z" />
    <glyph glyph-name="percent" unicode="%" horiz-adv-x="1499" 
d="M203 975q0 -227 155 -227q158 0 158 227t-158 227q-155 0 -155 -227zM57 975q0 156 85.5 248t215.5 92q131 0 217.5 -92t86.5 -248t-86.5 -248t-217.5 -92q-130 0 -215.5 92t-85.5 248zM1296 315q0 228 -155 228q-156 0 -156 -228q0 -227 156 -227q155 0 155 227z
M1149 1290l-660 -1290h-139l662 1290h137zM1444 315q0 -156 -86.5 -248t-216.5 -92t-216.5 92t-86.5 248t86.5 248t216.5 92t216.5 -92t86.5 -248z" />
    <glyph glyph-name="ampersand" unicode="&#x26;" horiz-adv-x="1273" 
d="M1030 653l148 -8q-61 -245 -205 -420q50 -56 94 -82t102 -26q54 0 101 12v-111q-55 -34 -140 -34q-69 0 -128.5 30t-137.5 105q-174 -144 -389 -144q-182 0 -301 96t-119 259q0 124 70 210t209 160q-66 78 -100.5 147t-34.5 150q0 141 96.5 229.5t247.5 88.5t235 -79.5
t84 -207.5q0 -117 -71 -195t-224 -155l316 -350q105 136 147 325zM479 113q157 0 293 102l-4 6l-348 383q-98 -51 -145.5 -112t-47.5 -158q0 -100 71.5 -160.5t180.5 -60.5zM360 999q0 -59 30.5 -109.5t92.5 -117.5q129 59 178.5 113t49.5 139q0 68 -43.5 116t-124.5 48
q-79 0 -131 -49.5t-52 -139.5z" />
    <glyph glyph-name="quotesingle" unicode="'" horiz-adv-x="337" 
d="M94 834v456h150v-456h-150z" />
    <glyph glyph-name="parenleft" unicode="(" horiz-adv-x="591" 
d="M84 590q0 211 74.5 412.5t210.5 349.5h170q-151 -173 -214 -361.5t-63 -400.5t63 -400.5t214 -361.5h-170q-136 148 -210.5 349.5t-74.5 412.5z" />
    <glyph glyph-name="parenright" unicode=")" horiz-adv-x="591" 
d="M508 590q0 -211 -74.5 -412.5t-210.5 -349.5h-170q151 173 214 361.5t63 400.5t-63 400.5t-214 361.5h170q136 -148 210.5 -349.5t74.5 -412.5z" />
    <glyph glyph-name="asterisk" unicode="*" horiz-adv-x="733" 
d="M29 1020l39 113l239 -84v260h119v-258l244 84l37 -113l-246 -78l153 -207l-96 -69l-149 204l-150 -208l-94 73l149 203z" />
    <glyph glyph-name="plus" unicode="+" horiz-adv-x="1265" 
d="M561 1163h144v-452h452v-144h-452v-452h-144v452h-450v144h450v452z" />
    <glyph glyph-name="comma" unicode="," horiz-adv-x="360" 
d="M78 0v205h205v-201q0 -115 -44 -171.5t-161 -57.5v100q57 4 76.5 30.5t19.5 94.5h-96z" />
    <glyph glyph-name="hyphen" unicode="-" horiz-adv-x="704" 
d="M117 446v152h471v-152h-471z" />
    <glyph glyph-name="period" unicode="." horiz-adv-x="360" 
d="M78 0v205h205v-205h-205z" />
    <glyph glyph-name="slash" unicode="/" horiz-adv-x="649" 
d="M-41 -170l524 1520h160l-522 -1520h-162z" />
    <glyph glyph-name="zero" unicode="0" horiz-adv-x="1204" 
d="M1139 645q0 -320 -141.5 -495t-395.5 -175t-394 175t-140 495t140 495t394 175t395.5 -175t141.5 -495zM952 645q0 264 -86 395t-264 131t-264 -131t-86 -395t86 -395t264 -131t264 131t86 395z" />
    <glyph glyph-name="one" unicode="1" horiz-adv-x="591" 
d="M20 987v115q132 0 200 46t104 150h116v-1298h-178v987h-242z" />
    <glyph glyph-name="two" unicode="2" horiz-adv-x="1034" 
d="M328 154h673v-154h-948v102l365 314q57 49 84.5 73.5t73 67.5t68 69.5t52 65.5t43 70.5t23.5 70t10 78.5q0 118 -66 188t-190 70q-131 0 -202.5 -79.5t-71.5 -221.5q0 -61 14 -116l-176 8q-14 72 -14 121q0 198 123 316t329 118q110 0 195 -30.5t137.5 -85t79 -125
t26.5 -154.5q0 -67 -23.5 -134.5t-57 -120.5t-90 -113.5t-102 -101t-112.5 -96.5z" />
    <glyph glyph-name="three" unicode="3" horiz-adv-x="1056" 
d="M827 354q0 107 -79.5 167.5t-204.5 60.5q-69 0 -123 -7v146q43 -6 123 -6q72 0 128 19.5t94 71t38 130.5q0 107 -69 171t-199 64q-137 0 -216 -85t-79 -238l-172 6q0 203 127 332t342 129q210 0 326 -99.5t116 -265.5q0 -119 -74.5 -201t-175.5 -98q121 -18 199 -102
t78 -207q0 -163 -126.5 -265t-338.5 -102q-231 0 -363.5 123t-132.5 338l174 -8q3 -151 89 -230t235 -79q129 0 206.5 61t77.5 174z" />
    <glyph glyph-name="four" unicode="4" horiz-adv-x="1120" 
d="M885 1290v-801h221v-145h-221v-344h-174v344h-678v168l637 778h215zM711 1130l-525 -641h525v641z" />
    <glyph glyph-name="five" unicode="5" horiz-adv-x="1075" 
d="M934 1290v-160h-619q-1 -52 -18.5 -200.5t-28.5 -198.5q48 58 126.5 94.5t180.5 36.5q211 0 328 -123.5t117 -310.5q0 -202 -129.5 -327.5t-339.5 -125.5q-231 0 -358.5 132t-116.5 350l172 -15q0 -150 79 -237.5t228 -87.5q136 0 214.5 83.5t78.5 225.5
q0 130 -79.5 212.5t-213.5 82.5q-101 0 -172.5 -46t-110.5 -118l-176 12q27 148 52.5 360t29.5 361h756z" />
    <glyph glyph-name="six" unicode="6" horiz-adv-x="1122" 
d="M598 1174q-127 0 -212.5 -75t-123.5 -202t-37 -301q35 118 134.5 191t250.5 73q207 0 330 -121.5t123 -314.5q0 -201 -128 -325t-343 -124q-254 0 -389 172t-135 474q0 153 32.5 278.5t97 219t167 145t235.5 51.5q192 0 313 -104t138 -285l-170 -6q-18 120 -87.5 187
t-195.5 67zM276 418q0 -135 85 -217t229 -82q141 0 222 81.5t81 217.5q0 138 -81.5 219.5t-227.5 81.5q-145 0 -226.5 -81.5t-81.5 -219.5z" />
    <glyph glyph-name="seven" unicode="7" horiz-adv-x="987" 
d="M748 1130h-709v160h909v-108q-156 -162 -253 -359.5t-136 -394.5t-41 -428h-192q4 339 115 631t307 499z" />
    <glyph glyph-name="eight" unicode="8" horiz-adv-x="1079" 
d="M541 1184q-124 0 -196.5 -61.5t-72.5 -178.5q0 -108 73.5 -168.5t195.5 -60.5q121 0 194.5 60.5t73.5 168.5q0 117 -73 178.5t-195 61.5zM541 582q-148 0 -226.5 -59t-78.5 -173q0 -115 79 -178t226 -63q146 0 224.5 63t78.5 178q0 114 -78 173t-225 59zM541 -25
q-228 0 -359 99t-131 268q0 120 77.5 204t188.5 105q-104 38 -161.5 115.5t-57.5 189.5q0 164 124.5 261.5t318.5 97.5q193 0 316.5 -97.5t123.5 -261.5q0 -112 -57.5 -189.5t-161.5 -115.5q110 -21 187 -104.5t77 -204.5q0 -170 -129.5 -268.5t-355.5 -98.5z" />
    <glyph glyph-name="nine" unicode="9" horiz-adv-x="1122" 
d="M524 117q96 0 168.5 42t117 120t66.5 182t21 233q-35 -118 -134.5 -191t-250.5 -73q-207 0 -330 121.5t-123 314.5q0 201 128 325t343 124q254 0 389.5 -172t135.5 -473q0 -153 -33 -279t-97.5 -219.5t-167 -145t-235.5 -51.5q-192 0 -312.5 104.5t-137.5 285.5l170 6
q18 -120 87.5 -187t194.5 -67zM846 872q0 135 -85 217t-229 82q-141 0 -222 -81.5t-81 -217.5q0 -138 82 -219.5t228 -81.5q145 0 226 81.5t81 219.5z" />
    <glyph glyph-name="colon" unicode=":" horiz-adv-x="360" 
d="M78 0v205h205v-205h-205zM78 649v205h205v-205h-205z" />
    <glyph glyph-name="semicolon" unicode=";" horiz-adv-x="360" 
d="M78 0v205h205v-201q0 -115 -44 -171.5t-161 -57.5v100q57 4 76.5 30.5t19.5 94.5h-96zM78 649v205h205v-205h-205z" />
    <glyph glyph-name="less" unicode="&#x3c;" horiz-adv-x="948" 
d="M82 543v184l799 426v-166l-668 -352l668 -352v-168z" />
    <glyph glyph-name="equal" unicode="=" horiz-adv-x="1294" 
d="M123 401v140h1048v-140h-1048zM123 731v139h1048v-139h-1048z" />
    <glyph glyph-name="greater" unicode="&#x3e;" horiz-adv-x="948" 
d="M864 727v-184l-796 -428v168l665 352l-665 352v166z" />
    <glyph glyph-name="question" unicode="?" horiz-adv-x="999" 
d="M565 344h-159q0 88 34 152.5t115 130.5q8 6 28.5 23t29.5 24t27.5 23.5t27.5 26t24 26t22.5 29.5t17.5 31.5t14.5 35.5t8 38.5t3.5 43.5q0 106 -64.5 173.5t-185.5 67.5q-133 0 -205 -79.5t-72 -221.5q0 -57 15 -116l-176 8q-13 67 -13 121q0 198 122.5 316t328.5 118
q214 0 324 -108.5t110 -274.5q0 -64 -20 -119.5t-63 -107.5t-81.5 -87.5t-105.5 -89.5q-59 -47 -82.5 -86t-24.5 -98zM377 0v205h205v-205h-205z" />
    <glyph glyph-name="at" unicode="@" horiz-adv-x="1556" 
d="M1137 182q104 0 168.5 95t64.5 284q0 218 -139 353t-383 135q-145 0 -267 -49.5t-206 -137t-131 -211t-47 -268.5q0 -128 45.5 -234.5t124.5 -177t186 -109t231 -38.5q234 0 422 92l45 -88q-195 -117 -469 -117q-151 0 -281 45t-226.5 129.5t-151.5 213.5t-55 288
q0 219 95.5 395t274 277.5t410.5 101.5q301 0 476 -167.5t175 -432.5q0 -122 -32 -218t-86.5 -154.5t-122.5 -88.5t-144 -30q-83 0 -134 40t-67 105q-38 -68 -102.5 -106.5t-148.5 -38.5q-120 0 -191.5 76t-71.5 210q0 112 44 212.5t133 167.5t204 67q82 0 142 -36t82 -93
l30 112h152l-123 -485q-16 -64 4 -91.5t70 -27.5zM936 414l12 49q23 101 -18 164t-129 63q-72 0 -128 -50t-84 -125t-28 -157q0 -84 33.5 -124.5t103.5 -40.5q78 0 144 57t94 164z" />
    <glyph glyph-name="A" unicode="A" horiz-adv-x="1306" 
d="M551 1290h194l537 -1290h-188l-156 379h-588l-151 -379h-174zM637 1094l-231 -574h475l-236 574h-8z" />
    <glyph glyph-name="B" unicode="B" horiz-adv-x="1210" 
d="M1139 354q0 -168 -120.5 -261t-344.5 -93h-549v1290h526q230 0 340.5 -91.5t110.5 -252.5q0 -109 -68.5 -183t-175.5 -93q125 -21 203 -102.5t78 -213.5zM670 596h-373v-451h373q143 0 218 59t75 165q0 107 -75 167t-218 60zM297 1145v-412h360q135 0 201 54t66 151
q0 96 -66 151.5t-201 55.5h-360z" />
    <glyph glyph-name="C" unicode="C" horiz-adv-x="1363" 
d="M66 645q0 195 83.5 348.5t227.5 237.5t321 84q270 0 426.5 -151.5t175.5 -407.5l-172 -8q-11 185 -123.5 300t-306.5 115q-199 0 -324.5 -141.5t-125.5 -376.5t125.5 -376.5t324.5 -141.5q194 0 306.5 115.5t123.5 300.5l172 -8q-19 -256 -175.5 -408t-426.5 -152
q-177 0 -321 84t-227.5 237.5t-83.5 348.5z" />
    <glyph glyph-name="D" unicode="D" horiz-adv-x="1316" 
d="M303 145h279q234 0 360.5 131.5t126.5 368.5t-126.5 368.5t-360.5 131.5h-279v-1000zM125 0v1290h467q306 0 483.5 -172t177.5 -473t-177.5 -473t-483.5 -172h-467z" />
    <glyph glyph-name="E" unicode="E" horiz-adv-x="1122" 
d="M1044 147v-147h-919v1290h901v-147h-729v-406h580v-145h-580v-445h747z" />
    <glyph glyph-name="F" unicode="F" horiz-adv-x="1056" 
d="M301 0h-176v1290h881v-147h-705v-428h553v-148h-553v-567z" />
    <glyph glyph-name="G" unicode="G" horiz-adv-x="1409" 
d="M694 -25q-136 0 -252 48.5t-199 135.5t-130 212.5t-47 273.5q0 195 83 348.5t226.5 237.5t320.5 84q271 0 426 -141t172 -392l-170 -10q-11 180 -122.5 285.5t-303.5 105.5q-200 0 -325 -141.5t-125 -378.5q0 -238 128 -378t339 -140q179 0 290.5 102t129.5 271h-394v139
h555v-637h-161v229q-42 -120 -163.5 -187t-277.5 -67z" />
    <glyph glyph-name="H" unicode="H" horiz-adv-x="1347" 
d="M303 0h-178v1290h178v-553h741v553h179v-1290h-179v592h-741v-592z" />
    <glyph glyph-name="I" unicode="I" horiz-adv-x="428" 
d="M125 1290h178v-1290h-178v1290z" />
    <glyph glyph-name="J" unicode="J" horiz-adv-x="1044" 
d="M762 1290h176v-850q0 -227 -120.5 -346t-330.5 -119q-207 0 -330 121t-132 348l168 11q11 -160 86.5 -247t212.5 -87q136 0 203 80t67 243v846z" />
    <glyph glyph-name="K" unicode="K" horiz-adv-x="1196" 
d="M1200 0h-215l-532 612l-150 -151v-461h-178v1290h178v-637l625 637h211l-555 -567z" />
    <glyph glyph-name="L" unicode="L" horiz-adv-x="1073" 
d="M125 1290h178v-1143h719v-147h-897v1290z" />
    <glyph glyph-name="M" unicode="M" horiz-adv-x="1527" 
d="M840 0h-150l-391 1110h-8v-1110h-166v1290h285l362 -1050h6l344 1050h281v-1290h-178v1110h-8z" />
    <glyph glyph-name="N" unicode="N" horiz-adv-x="1306" 
d="M309 1290l707 -987v987h166v-1290h-142l-749 1036v-1036h-166v1290h184z" />
    <glyph glyph-name="O" unicode="O" horiz-adv-x="1411" 
d="M1348 645q0 -147 -47.5 -272t-132 -212.5t-203.5 -136.5t-258 -49q-283 0 -462 186.5t-179 483.5t179 483.5t462 186.5q139 0 258 -49t203.5 -136.5t132 -212.5t47.5 -272zM1163 645q0 237 -123.5 377.5t-332.5 140.5t-334 -141t-125 -377t125 -377t334 -141t332.5 140.5
t123.5 377.5z" />
    <glyph glyph-name="P" unicode="P" horiz-adv-x="1138" 
d="M301 627h289q167 0 250.5 66.5t83.5 193.5q0 126 -83.5 192t-250.5 66h-289v-518zM301 481v-481h-176v1290h469q238 0 370 -106.5t132 -296.5q0 -191 -132 -298.5t-370 -107.5h-293z" />
    <glyph glyph-name="Q" unicode="Q" horiz-adv-x="1411" 
d="M1348 645q0 -279 -164 -467l125 -137l-103 -88l-125 135q-160 -113 -374 -113q-283 0 -462 186.5t-179 483.5t179 483.5t462 186.5q139 0 258 -49t203.5 -136.5t132 -212.5t47.5 -272zM1163 645q0 237 -123.5 377.5t-332.5 140.5t-334 -141t-125 -377t125 -378t334 -142
q160 0 270 78l-148 164l105 90l139 -156q90 131 90 344z" />
    <glyph glyph-name="R" unicode="R" horiz-adv-x="1226" 
d="M1153 0h-184q-39 55 -54 281q-13 239 -251 239h-365v-520h-174v1290h524q240 0 363 -102t123 -279q0 -142 -83 -224.5t-210 -96.5q226 -44 245 -279q13 -158 24.5 -217t41.5 -92zM299 662h340q163 0 240 60t77 181q0 114 -78.5 178t-238.5 64h-340v-483z" />
    <glyph glyph-name="S" unicode="S" horiz-adv-x="1148" 
d="M45 461l160 10q7 -172 113.5 -264t275.5 -92q146 0 229.5 59t83.5 164q0 88 -58 136t-187 73l-256 49q-322 63 -322 340q0 170 125 274.5t336 104.5q242 0 376 -122t136 -341l-162 -8q-4 159 -96 246.5t-252 87.5q-138 0 -214.5 -62t-76.5 -170q0 -90 55.5 -131
t177.5 -65l234 -45q181 -34 267.5 -118.5t86.5 -236.5q0 -175 -134.5 -275t-348.5 -100q-244 0 -396.5 129t-152.5 357z" />
    <glyph glyph-name="T" unicode="T" horiz-adv-x="1208" 
d="M688 0h-176v1143h-469v147h1122v-147h-477v-1143z" />
    <glyph glyph-name="U" unicode="U" horiz-adv-x="1261" 
d="M631 -25q-113 0 -205 29t-164.5 88.5t-112.5 162t-40 239.5v796h176v-798q0 -183 88 -275t258 -92q171 0 260.5 91.5t89.5 272.5v801h174v-796q0 -137 -40.5 -239.5t-113 -162t-165 -88.5t-205.5 -29z" />
    <glyph glyph-name="V" unicode="V" horiz-adv-x="1280" 
d="M735 0h-192l-518 1290h182l436 -1085h8l424 1085h180z" />
    <glyph glyph-name="W" unicode="W" horiz-adv-x="1671" 
d="M922 1290l286 -1073h9l264 1073h166l-330 -1290h-207l-268 1030h-8l-275 -1030h-205l-329 1290h172l270 -1069h8l281 1069h166z" />
    <glyph glyph-name="X" unicode="X" horiz-adv-x="1245" 
d="M1176 1290l-455 -614l500 -676h-209l-398 535l-391 -535h-198l497 664l-454 626h208l351 -489l350 489h199z" />
    <glyph glyph-name="Y" unicode="Y" horiz-adv-x="1224" 
d="M623 672l389 618h188l-502 -784v-506h-170v506l-503 784h194z" />
    <glyph glyph-name="Z" unicode="Z" horiz-adv-x="1146" 
d="M287 147h798v-147h-1024v125l779 1018h-768v147h993v-131z" />
    <glyph glyph-name="bracketleft" unicode="[" horiz-adv-x="569" 
d="M295 1223v-1266h184v-129h-344v1524h344v-129h-184z" />
    <glyph glyph-name="backslash" unicode="\" horiz-adv-x="649" 
d="M168 1350l522 -1520h-160l-524 1520h162z" />
    <glyph glyph-name="bracketright" unicode="]" horiz-adv-x="569" 
d="M272 -43v1266h-184v129h346v-1524h-346v129h184z" />
    <glyph glyph-name="asciicircum" unicode="^" horiz-adv-x="772" 
d="M305 1290h160l287 -413h-170l-197 286l-197 -286h-168z" />
    <glyph glyph-name="underscore" unicode="_" horiz-adv-x="780" 
d="M41 -246v133h698v-133h-698z" />
    <glyph glyph-name="grave" unicode="`" 
d="M670 1032h-119l-199 258h207z" />
    <glyph glyph-name="a" unicode="a" horiz-adv-x="1001" 
d="M674 399v43l-201 -43q-50 -11 -79 -19t-62 -21.5t-50 -29t-28.5 -40t-11.5 -56.5q0 -59 39.5 -96t113.5 -37q120 0 199.5 83t79.5 216zM838 578v-402q0 -70 69 -70q41 0 78 21v-92q-53 -53 -137 -53q-69 0 -114.5 48t-53.5 128q-37 -80 -126 -131.5t-196 -51.5
q-131 0 -208.5 66.5t-77.5 181.5q0 62 25 109.5t75 80t112 54.5t148 39l242 49v35q0 93 -52 145.5t-145 52.5q-178 0 -225 -180l-152 21q27 131 126.5 211t252.5 80q171 0 265 -87t94 -255z" />
    <glyph glyph-name="b" unicode="b" horiz-adv-x="1077" 
d="M283 473v-51q0 -144 80.5 -227.5t205.5 -83.5q130 0 201.5 89.5t71.5 245.5t-71.5 246t-201.5 90q-125 0 -205.5 -83t-80.5 -226zM283 186l-37 -186h-129v1290h170v-583q32 90 117 151.5t204 61.5q128 0 222.5 -64t141 -170t46.5 -240q0 -205 -109.5 -338t-302.5 -133
q-119 0 -204.5 60.5t-118.5 150.5z" />
    <glyph glyph-name="c" unicode="c" horiz-adv-x="997" 
d="M59 446q0 213 127.5 343.5t331.5 130.5q188 0 298 -111t124 -281l-149 -10q-11 122 -82 193t-193 71q-127 0 -205 -91t-78 -245t78 -244.5t205 -90.5q121 0 192.5 74t82.5 196l149 -14q-14 -172 -124 -282t-298 -110q-204 0 -331.5 129.5t-127.5 341.5z" />
    <glyph glyph-name="d" unicode="d" horiz-adv-x="1075" 
d="M793 422v51q0 143 -80 226t-205 83q-131 0 -203 -90t-72 -246q0 -155 72 -245t203 -90q125 0 205 83.5t80 227.5zM791 0v186q-33 -90 -118 -150.5t-204 -60.5q-193 0 -301.5 132.5t-108.5 338.5q0 134 46 240t140.5 170t223.5 64q119 0 204 -61.5t118 -151.5v583h170
v-1290h-170z" />
    <glyph glyph-name="e" unicode="e" horiz-adv-x="1001" 
d="M797 317l141 -16q-34 -154 -143 -240t-275 -86q-202 0 -331.5 126t-129.5 333q0 211 129 348.5t324 137.5q138 0 237 -61.5t146 -161t47 -224.5v-67h-713q6 -130 89 -213.5t204 -83.5q219 0 275 208zM233 516h535q-5 116 -70.5 195.5t-185.5 79.5q-116 0 -189.5 -79
t-89.5 -196z" />
    <glyph glyph-name="f" unicode="f" horiz-adv-x="583" 
d="M152 772h-138v123h138v104q0 144 79 230t218 86q114 0 181.5 -51t98.5 -154l-117 -41q-18 56 -57 89.5t-98 33.5q-69 0 -103.5 -46t-34.5 -128v-123h252v-123h-252v-772h-167v772z" />
    <glyph glyph-name="g" unicode="g" horiz-adv-x="983" 
d="M854 614q0 -138 -105.5 -220.5t-273.5 -82.5q-115 0 -196 37q-60 -35 -60 -88q0 -78 109 -78h350q142 0 219.5 -66.5t77.5 -174.5q0 -81 -42.5 -142t-116.5 -97t-163.5 -53.5t-193.5 -17.5q-125 0 -222.5 25t-159 81t-61.5 136q0 75 50 124t135 64q-59 20 -89 60.5
t-30 93.5q0 109 135 168q-117 84 -117 231q0 139 104.5 222.5t270.5 83.5q170 0 281 -93q36 56 96.5 89.5t130.5 33.5v-147q-100 0 -172 -37q43 -68 43 -152zM178 -94q0 -82 75.5 -122t205.5 -40q164 0 258 43t94 135q0 111 -172 111h-289q-77 0 -124.5 -30t-47.5 -97z
M682 612q0 94 -54.5 145.5t-150.5 51.5q-95 0 -149 -51.5t-54 -145.5q0 -91 54 -141.5t149 -50.5q96 0 150.5 50t54.5 142z" />
    <glyph glyph-name="h" unicode="h" horiz-adv-x="1015" 
d="M287 514v-514h-170v1290h170v-555q32 82 114.5 133.5t182.5 51.5q113 0 187.5 -48.5t107 -128.5t32.5 -188v-555h-170v541q0 115 -54.5 179t-158.5 64q-103 0 -172 -74.5t-69 -195.5z" />
    <glyph glyph-name="i" unicode="i" horiz-adv-x="401" 
d="M117 895h170v-895h-170v895zM113 1098v192h176v-192h-176z" />
    <glyph glyph-name="j" unicode="j" horiz-adv-x="401" 
d="M287 895v-1018q0 -120 -60.5 -183t-179.5 -63q-55 0 -108.5 18.5t-90.5 47.5l41 108q68 -45 140 -45q88 0 88 105v1030h170zM113 1098v192h176v-192h-176z" />
    <glyph glyph-name="k" unicode="k" horiz-adv-x="980" 
d="M287 324v-324h-170v1290h170v-801l450 406h213l-411 -367l430 -528h-201l-356 434z" />
    <glyph glyph-name="l" unicode="l" horiz-adv-x="401" 
d="M117 1290h170v-1290h-170v1290z" />
    <glyph glyph-name="m" unicode="m" horiz-adv-x="1587" 
d="M864 725q37 86 117 140.5t184 54.5q85 0 147.5 -28t98.5 -79t53 -115t17 -143v-555h-170v541q0 116 -49.5 179.5t-149.5 63.5q-97 0 -163 -74.5t-66 -195.5v-514h-170v541q0 116 -49.5 179.5t-149.5 63.5q-97 0 -162 -74.5t-65 -195.5v-514h-170v895h170v-160
q33 84 108 134.5t176 50.5q116 0 189 -51.5t104 -143.5z" />
    <glyph glyph-name="n" unicode="n" horiz-adv-x="1015" 
d="M287 514v-514h-170v895h170v-160q32 82 114.5 133.5t182.5 51.5q113 0 187.5 -48.5t107 -128.5t32.5 -188v-555h-170v541q0 115 -54.5 179t-158.5 64q-103 0 -172 -74.5t-69 -195.5z" />
    <glyph glyph-name="o" unicode="o" horiz-adv-x="1032" 
d="M233 446q0 -153 74.5 -246.5t206.5 -93.5q134 0 209.5 93.5t75.5 246.5q0 154 -75.5 247t-209.5 93q-133 0 -207 -93t-74 -247zM973 446q0 -208 -130 -339.5t-329 -131.5q-198 0 -326.5 131.5t-128.5 339.5t128.5 341t326.5 133q199 0 329 -133t130 -341z" />
    <glyph glyph-name="p" unicode="p" horiz-adv-x="1077" 
d="M283 473v-51q0 -144 80.5 -227.5t205.5 -83.5q130 0 201.5 89.5t71.5 245.5t-71.5 246t-201.5 90q-125 0 -205.5 -83t-80.5 -226zM287 186v-530h-170v1239h170v-188q32 90 117 151.5t204 61.5q128 0 222.5 -64t141 -170t46.5 -240q0 -205 -109 -338t-301 -133
q-120 0 -205 61t-116 150z" />
    <glyph glyph-name="q" unicode="q" horiz-adv-x="1075" 
d="M793 422v51q0 143 -80 226t-205 83q-131 0 -203 -90t-72 -246q0 -155 72 -245t203 -90q125 0 205 83.5t80 227.5zM791 -344v530q-33 -90 -118 -150.5t-204 -60.5q-193 0 -301.5 132.5t-108.5 338.5q0 134 46 240t140.5 170t223.5 64q119 0 204 -61.5t118 -151.5v188h170
v-1239h-170z" />
    <glyph glyph-name="r" unicode="r" horiz-adv-x="677" 
d="M668 879l-17 -154q-67 37 -139 37q-98 0 -161.5 -80.5t-63.5 -208.5v-473h-170v895h170v-182q27 84 95 145.5t159 61.5q80 0 127 -41z" />
    <glyph glyph-name="s" unicode="s" horiz-adv-x="886" 
d="M51 301l144 10q12 -102 81 -156.5t185 -54.5q93 0 150 34t57 99q0 60 -40.5 89t-129.5 45l-152 26q-132 21 -200 81t-68 171q0 123 94.5 199t249.5 76q179 0 280 -81.5t113 -236.5l-137 -8q-29 201 -256 201q-85 0 -135.5 -36t-50.5 -97q0 -53 33.5 -83t103.5 -42
l168 -27q143 -25 214.5 -84.5t71.5 -175.5q0 -130 -102 -202.5t-264 -72.5q-175 0 -286.5 83t-123.5 243z" />
    <glyph glyph-name="t" unicode="t" horiz-adv-x="626" 
d="M147 209v563h-135v92l58 10q59 11 83 42t40 102l26 125h96v-248h252v-123h-252v-543q0 -60 26.5 -88t84.5 -28q75 0 168 53v-115q-102 -76 -229 -76q-218 0 -218 234z" />
    <glyph glyph-name="u" unicode="u" horiz-adv-x="1005" 
d="M719 381v514h170v-895h-170v158q-33 -81 -113 -132t-180 -51q-166 0 -243 97.5t-77 265.5v557h170v-541q0 -116 52 -180.5t155 -64.5q102 0 169 75t67 197z" />
    <glyph glyph-name="v" unicode="v" horiz-adv-x="931" 
d="M549 0h-166l-369 895h179l278 -688h8l273 688h166z" />
    <glyph glyph-name="w" unicode="w" horiz-adv-x="1314" 
d="M735 895l193 -678h8l207 678h157l-284 -895h-164l-190 668h-9l-188 -668h-164l-287 895h170l211 -678h8l189 678h143z" />
    <glyph glyph-name="x" unicode="x" horiz-adv-x="956" 
d="M897 895l-330 -426l373 -469h-197l-274 348l-270 -348h-185l367 461l-338 434h197l239 -309l236 309h182z" />
    <glyph glyph-name="y" unicode="y" horiz-adv-x="942" 
d="M412 -344h-166l145 346l-377 893h179l284 -688h8l275 688h168z" />
    <glyph glyph-name="z" unicode="z" horiz-adv-x="876" 
d="M588 764h-510v131h727v-117l-537 -647h549v-131h-756v117z" />
    <glyph glyph-name="braceleft" unicode="{" horiz-adv-x="600" 
d="M55 524v131h51q61 0 79 31t18 119v340q0 207 186 207h121v-129h-82q-63 0 -63 -76v-348q0 -92 -32 -143.5t-112 -65.5q80 -14 112 -66t32 -145v-346q0 -76 63 -76h82v-129h-121q-186 0 -186 207v340q0 88 -18 118.5t-79 30.5h-51z" />
    <glyph glyph-name="bar" unicode="|" horiz-adv-x="403" 
d="M125 -170v1520h154v-1520h-154z" />
    <glyph glyph-name="braceright" unicode="}" horiz-adv-x="600" 
d="M545 655v-131h-51q-61 0 -79 -30.5t-18 -118.5v-340q0 -207 -186 -207h-123v129h82q35 0 49 19t14 57v346q0 92 33 144.5t113 66.5q-80 14 -113 66t-33 143v348q0 38 -14 57t-49 19h-82v129h123q186 0 186 -207v-340q0 -88 18 -119t79 -31h51z" />
    <glyph glyph-name="asciitilde" unicode="~" horiz-adv-x="802" 
d="M201 424h-105q0 118 43.5 185t130.5 67q37 0 75 -19t63.5 -41.5t57.5 -41.5t58 -19q41 0 58 28t20 87h107q0 -117 -44 -184.5t-130 -67.5q-38 0 -76.5 19t-64 41.5t-57.5 41.5t-58 19q-41 0 -58 -28t-20 -87z" />
    <glyph glyph-name="exclamdown" unicode="&#xa1;" horiz-adv-x="391" 
d="M94 856v205h205v-205h-205zM287 -229h-183v360l52 592h82l49 -592v-360z" />
    <glyph glyph-name="cent" unicode="&#xa2;" 
d="M473 -201v181q-183 18 -298.5 144.5t-115.5 321.5t116 322.5t298 146.5v195h115v-195q168 -17 266 -124t111 -263l-146 -10q-11 107 -71 177t-160 87v-669q101 15 161 83.5t74 182.5l142 -12q-13 -157 -110.5 -263.5t-266.5 -123.5v-181h-115zM227 446q0 -138 66 -226
t180 -107v667q-114 -19 -180 -107t-66 -227z" />
    <glyph glyph-name="sterling" unicode="&#xa3;" horiz-adv-x="1157" 
d="M401 920q0 -98 43 -215h320v-117h-275q48 -128 48 -232q0 -50 -9 -100q44 -33 68 -49.5t64 -39t78.5 -32.5t80.5 -10q87 0 125.5 60.5t38.5 174.5l139 -6q4 -179 -72 -279t-216 -100q-101 0 -181 40.5t-164 111.5q-79 -152 -245 -152q-95 0 -157 54t-62 149
q0 90 63 147.5t162 57.5q64 0 139 -35q-2 112 -61 240h-209v117h155q-47 110 -47 217q0 177 107.5 285t294.5 108q198 0 310 -113.5t112 -314.5l-156 -8q-1 145 -68.5 220t-191.5 75q-119 0 -176.5 -70t-57.5 -184zM246 86q105 0 131 133q-70 53 -127 53q-48 0 -75.5 -25
t-27.5 -69q0 -42 28.5 -67t70.5 -25z" />
    <glyph glyph-name="yen" unicode="&#xa5;" horiz-adv-x="1177" 
d="M154 547v121h270l-408 622h195l387 -598l375 598h188l-409 -622h272v-121h-350v-146h350v-120h-350v-281h-170v281h-350v120h350v146h-350z" />
    <glyph glyph-name="section" unicode="&#xa7;" horiz-adv-x="913" 
d="M872 489q0 -70 -40.5 -130t-106.5 -97q78 -75 78 -186q0 -117 -96 -195t-250 -78q-161 0 -266 83.5t-117 234.5l135 8q14 -99 85 -151t165 -52q83 0 135.5 37t52.5 107q0 48 -21.5 78.5t-82.5 58.5l-262 117q-121 53 -181.5 123t-60.5 182q0 71 40.5 131.5t106.5 95.5
q-77 74 -77 188q0 116 96 193.5t250 77.5q161 0 266 -83.5t117 -234.5l-136 -8q-14 99 -84.5 151t-164.5 52q-84 0 -136.5 -36t-52.5 -105q0 -48 22.5 -79.5t82.5 -58.5l262 -118q121 -53 181 -123.5t60 -182.5zM315 776q-4 0 -8 4q-117 -46 -117 -143q0 -62 37 -99t117 -75
l252 -119q4 -4 8 -4q117 40 117 143q0 60 -37 97t-117 75z" />
    <glyph glyph-name="dieresis" unicode="&#xa8;" 
d="M287 1081v193h168v-193h-168zM569 1081v193h166v-193h-166z" />
    <glyph glyph-name="copyright" unicode="&#xa9;" horiz-adv-x="1482" 
d="M72 645q0 190 90 344.5t243 240t336 85.5t336 -85.5t243.5 -240t90.5 -344.5t-90.5 -344.5t-243.5 -240t-336 -85.5t-336 85.5t-243 240t-90 344.5zM354 643q0 180 110.5 294t276.5 114q167 0 263.5 -93.5t107.5 -248.5l-131 -7q-6 101 -67 163.5t-166 62.5
q-111 0 -177.5 -77t-66.5 -208q0 -129 66.5 -205t177.5 -76q105 0 166 62.5t67 161.5l131 -8q-11 -155 -107.5 -248.5t-263.5 -93.5q-166 0 -276.5 114.5t-110.5 292.5zM168 645q0 -163 77.5 -295.5t208.5 -206t287 -73.5t287.5 73.5t209 206t77.5 295.5t-77.5 296
t-209 206.5t-287.5 73.5t-287 -73.5t-208.5 -206.5t-77.5 -296z" />
    <glyph glyph-name="ordfeminine" unicode="&#xaa;" horiz-adv-x="796" 
d="M518 909v33l-145 -31q-87 -20 -125.5 -43.5t-38.5 -74.5q0 -43 28.5 -71t81.5 -28q86 0 142.5 59.5t56.5 155.5zM668 1051v-297q0 -54 51 -54q23 0 61 15v-82q-50 -43 -116 -43q-57 0 -96 37.5t-46 101.5q-30 -63 -96 -103t-150 -40q-101 0 -160 51t-59 141
q0 92 69.5 141t203.5 74l188 37v29q0 65 -36 102t-103 37q-129 0 -160 -129l-139 16q19 105 98.5 168.5t204.5 63.5q135 0 210 -67t75 -199z" />
    <glyph glyph-name="guillemotleft" unicode="&#xab;" horiz-adv-x="831" 
d="M94 379v135l307 264v-166l-190 -166l190 -163v-168zM430 379v135l307 264v-166l-190 -166l190 -163v-168z" />
    <glyph glyph-name="registered" unicode="&#xae;" horiz-adv-x="825" 
d="M590 762h-88q-11 14 -17 76q-1 33 -15.5 46t-47.5 13h-78v-135h-84v381h178q71 0 108.5 -31t37.5 -86q0 -40 -24 -66.5t-62 -29.5q65 -12 71 -78q5 -74 21 -90zM344 963h78q76 0 76 57t-76 57h-78v-114zM776 948q0 -157 -105.5 -260.5t-258.5 -103.5q-151 0 -257 104
t-106 260q0 158 106 262.5t257 104.5q153 0 258.5 -104.5t105.5 -262.5zM709 948q0 132 -85.5 218.5t-211.5 86.5t-211.5 -86.5t-85.5 -218.5q0 -131 85.5 -217t211.5 -86t211.5 86t85.5 217z" />
    <glyph glyph-name="macron" unicode="&#xaf;" 
d="M248 1055v131h526v-131h-526z" />
    <glyph glyph-name="degree" unicode="&#xb0;" horiz-adv-x="694" 
d="M186 1036q0 -70 44.5 -118t115.5 -48q72 0 117 47.5t45 118.5q0 69 -45 116.5t-117 47.5q-71 0 -115.5 -47.5t-44.5 -116.5zM61 1036q0 117 82.5 198t202.5 81q121 0 204 -81t83 -198q0 -119 -83 -199.5t-204 -80.5q-120 0 -202.5 81t-82.5 199z" />
    <glyph glyph-name="plusminus" unicode="&#xb1;" horiz-adv-x="1265" 
d="M561 1241h141v-383h455v-141h-455v-383h-141v383h-452v141h452v383zM109 80v143h1048v-143h-1048z" />
    <glyph glyph-name="twosuperior" unicode="&#xb2;" horiz-adv-x="679" 
d="M266 614h377v-122h-594v94l221 186q55 46 85.5 74t60.5 63t42.5 68t12.5 70q0 62 -33.5 98.5t-99.5 36.5q-69 0 -106 -43t-37 -119q0 -24 8 -70l-144 6q-8 50 -8 74q0 124 79.5 198.5t209.5 74.5q136 0 208.5 -69.5t72.5 -178.5q0 -51 -17 -97t-51.5 -88.5t-68.5 -74.5
t-87 -74z" />
    <glyph glyph-name="threesuperior" unicode="&#xb3;" horiz-adv-x="694" 
d="M508 715q0 58 -42.5 90.5t-109.5 32.5q-33 0 -69 -4v110q16 -2 69 -2q60 0 99 28.5t39 90.5q0 58 -36.5 91.5t-105.5 33.5q-72 0 -112.5 -47t-40.5 -129l-140 4q0 127 80 208t217 81q133 0 207 -62.5t74 -167.5q0 -70 -45 -120t-105 -60q76 -11 122 -61.5t46 -126.5
q0 -104 -80.5 -166t-214.5 -62q-147 0 -231 76.5t-84 208.5l143 -4q3 -81 48.5 -122.5t123.5 -41.5q66 0 107 32t41 89z" />
    <glyph glyph-name="acute" unicode="&#xb4;" 
d="M471 1032h-119l111 258h207z" />
    <glyph glyph-name="paragraph" unicode="&#xb6;" horiz-adv-x="1028" 
d="M498 0v561q-218 0 -337.5 97.5t-119.5 267.5t119.5 267t337.5 97h403v-1290h-133v1159h-137v-1159h-133z" />
    <glyph glyph-name="periodcentered" unicode="&#xb7;" horiz-adv-x="374" 
d="M84 420v205h205v-205h-205z" />
    <glyph glyph-name="cedilla" unicode="&#xb8;" horiz-adv-x="1173" 
d="M813 -209q0 -77 -65.5 -113t-163.5 -36q-68 0 -129 23t-97 54l35 66q86 -66 185 -66q102 0 102 62q0 28 -17.5 44.5t-44 19t-56.5 -3t-56 -17.5l-41 22l121 177h80l-86 -115q60 13 111.5 8.5t86.5 -38t35 -87.5z" />
    <glyph glyph-name="onesuperior" unicode="&#xb9;" horiz-adv-x="409" 
d="M16 1075v94q82 0 124.5 29t66.5 94h104v-800h-145v583h-150z" />
    <glyph glyph-name="ordmasculine" unicode="&#xba;" horiz-adv-x="815" 
d="M207 950q0 -111 52.5 -178t148.5 -67t149 67t53 178q0 112 -53 180t-149 68t-148.5 -68t-52.5 -180zM768 950q0 -160 -102 -262t-258 -102t-257.5 102t-101.5 262q0 162 101.5 264.5t257.5 102.5t258 -102.5t102 -264.5z" />
    <glyph glyph-name="guillemotright" unicode="&#xbb;" horiz-adv-x="831" 
d="M401 514v-135l-307 -264v168l191 163l-191 166v166zM737 514v-135l-307 -264v168l191 163l-191 166v166z" />
    <glyph glyph-name="onequarter" unicode="&#xbc;" horiz-adv-x="1452" 
d="M55 1079v95q82 0 124.5 28t64.5 92h104v-798h-143v583h-150zM1272 795v-482h123v-116h-123v-197h-144v197h-407v131l375 467h176zM1128 668l-282 -355h282v355zM1143 1290l-832 -1290h-139l832 1290h139z" />
    <glyph glyph-name="onehalf" unicode="&#xbd;" horiz-adv-x="1517" 
d="M55 1079v95q82 0 124.5 28t64.5 92h104v-798h-143v583h-150zM1143 1290l-832 -1290h-139l832 1290h139zM1077 123h379v-123h-596v94l223 187q55 46 85 74t60 62.5t42 67.5t12 70q0 63 -33 99t-100 36q-69 0 -106 -43.5t-37 -118.5q0 -29 10 -71l-144 8q-10 62 -10 74
q0 124 80 198t211 74q136 0 208.5 -69.5t72.5 -178.5q0 -51 -17 -97t-51.5 -88.5t-68.5 -74.5t-87 -74z" />
    <glyph glyph-name="threequarters" unicode="&#xbe;" horiz-adv-x="1671" 
d="M1491 795v-482h123v-116h-123v-197h-143v197h-408v131l375 467h176zM1348 668l-283 -355h283v355zM516 717q0 58 -42 89.5t-109 31.5q-52 0 -70 -2v110q14 -2 70 -2q60 0 98.5 28.5t38.5 88.5q0 59 -36.5 93t-105.5 34q-72 0 -112.5 -47t-40.5 -129l-141 4q0 127 81 208
t218 81q132 0 206 -63t74 -167q0 -72 -44 -121t-105 -59q76 -11 122 -61.5t46 -126.5q0 -104 -80.5 -166t-214.5 -62q-147 0 -231.5 76.5t-84.5 208.5l144 -4q1 -81 47 -122.5t125 -41.5q66 0 106.5 32t40.5 89zM1362 1290l-832 -1290h-141l834 1290h139z" />
    <glyph glyph-name="questiondown" unicode="&#xbf;" horiz-adv-x="999" 
d="M434 717h160q0 -88 -34 -152.5t-116 -130.5q-5 -4 -31.5 -25t-33.5 -27.5t-29.5 -26t-30 -29.5t-24 -30t-23 -35.5t-15.5 -36.5t-12 -43.5t-3 -47.5q0 -106 64.5 -174t185.5 -68q132 0 204 80t72 222q0 61 -14 116l176 -8q12 -61 12 -121q0 -198 -122.5 -316t-327.5 -118
q-214 0 -324.5 108.5t-110.5 274.5q0 52 15.5 100t37 84t61.5 78.5t71.5 70t85.5 70.5q58 47 81.5 86.5t24.5 98.5zM623 1061v-205h-205v205h205z" />
    <glyph glyph-name="Agrave" unicode="&#xc0;" horiz-adv-x="1306" 
d="M551 1290h194l537 -1290h-188l-156 379h-588l-151 -379h-174zM637 1094l-231 -574h475l-236 574h-8zM715 1384h-119l-199 258h207z" />
    <glyph glyph-name="Aacute" unicode="&#xc1;" horiz-adv-x="1306" 
d="M551 1290h194l537 -1290h-188l-156 379h-588l-151 -379h-174zM637 1094l-231 -574h475l-236 574h-8zM696 1384h-118l110 258h207z" />
    <glyph glyph-name="Acircumflex" unicode="&#xc2;" horiz-adv-x="1306" 
d="M551 1290h194l537 -1290h-188l-156 379h-588l-151 -379h-174zM637 1094l-231 -574h475l-236 574h-8zM539 1642h196l164 -258h-123l-139 152l-139 -152h-123z" />
    <glyph glyph-name="Atilde" unicode="&#xc3;" horiz-adv-x="1306" 
d="M551 1290h194l537 -1290h-188l-156 379h-588l-151 -379h-174zM637 1094l-231 -574h475l-236 574h-8zM455 1382h-103q0 115 43.5 180.5t126.5 65.5q37 0 74.5 -18.5t63 -41t57 -41t57.5 -18.5q40 0 56.5 27.5t19.5 85.5h102q0 -114 -43 -180t-127 -66q-37 0 -74.5 18.5
t-63 41t-57 41t-57.5 18.5q-39 0 -55.5 -27.5t-19.5 -85.5z" />
    <glyph glyph-name="Adieresis" unicode="&#xc4;" horiz-adv-x="1306" 
d="M551 1290h194l537 -1290h-188l-156 379h-588l-151 -379h-174zM637 1094l-231 -574h475l-236 574h-8zM414 1395v192h168v-192h-168zM696 1395v192h166v-192h-166z" />
    <glyph glyph-name="Aring" unicode="&#xc5;" horiz-adv-x="1306" 
d="M551 1290h194l537 -1290h-188l-156 379h-588l-151 -379h-174zM637 1094l-231 -574h475l-236 574h-8zM457 1524q0 73 50 122.5t130 49.5t130 -49.5t50 -122.5q0 -75 -50 -124.5t-130 -49.5t-130 49.5t-50 124.5zM549 1524q0 -41 23 -65.5t65 -24.5t65 24.5t23 65.5
q0 39 -23 63.5t-65 24.5t-65 -24.5t-23 -63.5z" />
    <glyph glyph-name="AE" unicode="&#xc6;" horiz-adv-x="2004" 
d="M905 1290h1004v-147h-729v-406h579v-145h-579v-445h747v-147h-919v389h-531l-264 -389h-188zM999 1155l-426 -625h435v625h-9z" />
    <glyph glyph-name="Ccedilla" unicode="&#xc7;" horiz-adv-x="1363" 
d="M944 -209q0 -77 -65.5 -113t-163.5 -36q-68 0 -129 23t-97 54l35 66q86 -66 185 -66q102 0 102 62q0 28 -17.5 44.5t-44 19t-56.5 -3t-56 -17.5l-41 22l88 129q-174 4 -314.5 88.5t-222 236.5t-81.5 345q0 195 83.5 348.5t227.5 237.5t321 84q270 0 426.5 -151.5
t175.5 -407.5l-172 -8q-11 185 -123.5 300t-306.5 115q-199 0 -324.5 -141.5t-125.5 -376.5t125.5 -376.5t324.5 -141.5q194 0 306.5 115.5t123.5 300.5l172 -8q-19 -239 -157 -388t-379 -167l-53 -72q60 13 111.5 8.5t86.5 -38t35 -87.5z" />
    <glyph glyph-name="Egrave" unicode="&#xc8;" horiz-adv-x="1122" 
d="M666 1384h-119l-199 258h207zM1044 147v-147h-919v1290h901v-147h-729v-406h580v-145h-580v-445h747z" />
    <glyph glyph-name="Eacute" unicode="&#xc9;" horiz-adv-x="1122" 
d="M647 1384h-119l111 258h207zM1044 147v-147h-919v1290h901v-147h-729v-406h580v-145h-580v-445h747z" />
    <glyph glyph-name="Ecircumflex" unicode="&#xca;" horiz-adv-x="1122" 
d="M1044 147v-147h-919v1290h901v-147h-729v-406h580v-145h-580v-445h747zM489 1642h197l164 -258h-123l-139 152l-139 -152h-123z" />
    <glyph glyph-name="Edieresis" unicode="&#xcb;" horiz-adv-x="1122" 
d="M365 1395v192h167v-192h-167zM647 1395v192h166v-192h-166zM1044 147v-147h-919v1290h901v-147h-729v-406h580v-145h-580v-445h747z" />
    <glyph glyph-name="Igrave" unicode="&#xcc;" horiz-adv-x="428" 
d="M125 1290h178v-1290h-178v1290zM291 1384h-119l-199 258h207z" />
    <glyph glyph-name="Iacute" unicode="&#xcd;" horiz-adv-x="428" 
d="M125 1290h178v-1290h-178v1290zM272 1384h-118l110 258h207z" />
    <glyph glyph-name="Icircumflex" unicode="&#xce;" horiz-adv-x="428" 
d="M125 1290h178v-1290h-178v1290zM115 1642h196l164 -258h-123l-139 152l-139 -152h-123z" />
    <glyph glyph-name="Idieresis" unicode="&#xcf;" horiz-adv-x="428" 
d="M125 1290h178v-1290h-178v1290zM-10 1395v192h168v-192h-168zM272 1395v192h166v-192h-166z" />
    <glyph glyph-name="Eth" unicode="&#xd0;" horiz-adv-x="1355" 
d="M16 592v145h146v553h467q306 0 483.5 -172t177.5 -473t-177.5 -473t-483.5 -172h-467v592h-146zM340 145h278q235 0 361.5 131.5t126.5 368.5t-126.5 368.5t-361.5 131.5h-278v-408h350v-145h-350v-447z" />
    <glyph glyph-name="Ntilde" unicode="&#xd1;" horiz-adv-x="1306" 
d="M473 1382h-102q0 115 43.5 180.5t126.5 65.5q37 0 74.5 -18.5t63 -41t57 -41t57.5 -18.5q40 0 56 27t19 86h103q0 -114 -43 -180t-127 -66q-37 0 -74.5 18.5t-63 41t-57 41t-57.5 18.5q-39 0 -56 -27.5t-20 -85.5zM309 1290l707 -987v987h166v-1290h-142l-749 1036v-1036
h-166v1290h184z" />
    <glyph glyph-name="Ograve" unicode="&#xd2;" horiz-adv-x="1411" 
d="M782 1384h-118l-199 258h207zM1348 645q0 -147 -47.5 -272t-132 -212.5t-203.5 -136.5t-258 -49q-283 0 -462 186.5t-179 483.5t179 483.5t462 186.5q139 0 258 -49t203.5 -136.5t132 -212.5t47.5 -272zM1163 645q0 237 -123.5 377.5t-332.5 140.5t-334 -141t-125 -377
t125 -377t334 -141t332.5 140.5t123.5 377.5z" />
    <glyph glyph-name="Oacute" unicode="&#xd3;" horiz-adv-x="1411" 
d="M764 1384h-119l111 258h207zM1348 645q0 -147 -47.5 -272t-132 -212.5t-203.5 -136.5t-258 -49q-283 0 -462 186.5t-179 483.5t179 483.5t462 186.5q139 0 258 -49t203.5 -136.5t132 -212.5t47.5 -272zM1163 645q0 237 -123.5 377.5t-332.5 140.5t-334 -141t-125 -377
t125 -377t334 -141t332.5 140.5t123.5 377.5z" />
    <glyph glyph-name="Ocircumflex" unicode="&#xd4;" horiz-adv-x="1411" 
d="M1348 645q0 -147 -47.5 -272t-132 -212.5t-203.5 -136.5t-258 -49q-283 0 -462 186.5t-179 483.5t179 483.5t462 186.5q139 0 258 -49t203.5 -136.5t132 -212.5t47.5 -272zM1163 645q0 237 -123.5 377.5t-332.5 140.5t-334 -141t-125 -377t125 -377t334 -141t332.5 140.5
t123.5 377.5zM608 1642h197l164 -258h-123l-139 152l-140 -152h-123z" />
    <glyph glyph-name="Otilde" unicode="&#xd5;" horiz-adv-x="1411" 
d="M508 1382h-102q0 115 43 180.5t126 65.5q37 0 74.5 -18.5t63 -41t57 -41t57.5 -18.5q40 0 56.5 27.5t19.5 85.5h103q0 -114 -43 -180t-127 -66q-37 0 -74.5 18.5t-63 41t-57 41t-57.5 18.5q-39 0 -56 -27.5t-20 -85.5zM1348 645q0 -147 -47.5 -272t-132 -212.5
t-203.5 -136.5t-258 -49q-283 0 -462 186.5t-179 483.5t179 483.5t462 186.5q139 0 258 -49t203.5 -136.5t132 -212.5t47.5 -272zM1163 645q0 237 -123.5 377.5t-332.5 140.5t-334 -141t-125 -377t125 -377t334 -141t332.5 140.5t123.5 377.5z" />
    <glyph glyph-name="Odieresis" unicode="&#xd6;" horiz-adv-x="1411" 
d="M481 1395v192h168v-192h-168zM764 1395v192h166v-192h-166zM1348 645q0 -147 -47.5 -272t-132 -212.5t-203.5 -136.5t-258 -49q-283 0 -462 186.5t-179 483.5t179 483.5t462 186.5q139 0 258 -49t203.5 -136.5t132 -212.5t47.5 -272zM1163 645q0 237 -123.5 377.5
t-332.5 140.5t-334 -141t-125 -377t125 -377t334 -141t332.5 140.5t123.5 377.5z" />
    <glyph glyph-name="multiply" unicode="&#xd7;" horiz-adv-x="1083" 
d="M442 631l-329 332l100 100l326 -336l327 336l101 -100l-330 -332l330 -330l-101 -100l-327 334l-326 -334l-100 100z" />
    <glyph glyph-name="Oslash" unicode="&#xd8;" horiz-adv-x="1411" 
d="M1348 645q0 -147 -47.5 -272t-132 -212.5t-203.5 -136.5t-258 -49q-214 0 -373 109l-121 -152l-94 72l125 158q-178 184 -178 483q0 297 179 483.5t462 186.5q212 0 372 -113l111 137l94 -71l-115 -142q179 -189 179 -481zM248 645q0 -214 102 -350l629 782
q-113 86 -272 86q-209 0 -334 -141t-125 -377zM1163 645q0 206 -100 346l-629 -780q113 -84 273 -84q209 0 332.5 140.5t123.5 377.5z" />
    <glyph glyph-name="Ugrave" unicode="&#xd9;" horiz-adv-x="1261" 
d="M709 1384h-119l-199 258h207zM631 -25q-113 0 -205 29t-164.5 88.5t-112.5 162t-40 239.5v796h176v-798q0 -183 88 -275t258 -92q171 0 260.5 91.5t89.5 272.5v801h174v-796q0 -137 -40.5 -239.5t-113 -162t-165 -88.5t-205.5 -29z" />
    <glyph glyph-name="Uacute" unicode="&#xda;" horiz-adv-x="1261" 
d="M690 1384h-119l111 258h207zM631 -25q-113 0 -205 29t-164.5 88.5t-112.5 162t-40 239.5v796h176v-798q0 -183 88 -275t258 -92q171 0 260.5 91.5t89.5 272.5v801h174v-796q0 -137 -40.5 -239.5t-113 -162t-165 -88.5t-205.5 -29z" />
    <glyph glyph-name="Ucircumflex" unicode="&#xdb;" horiz-adv-x="1261" 
d="M631 -25q-113 0 -205 29t-164.5 88.5t-112.5 162t-40 239.5v796h176v-798q0 -183 88 -275t258 -92q171 0 260.5 91.5t89.5 272.5v801h174v-796q0 -137 -40.5 -239.5t-113 -162t-165 -88.5t-205.5 -29zM532 1642h197l164 -258h-123l-139 152l-139 -152h-123z" />
    <glyph glyph-name="Udieresis" unicode="&#xdc;" horiz-adv-x="1261" 
d="M408 1395v192h167v-192h-167zM690 1395v192h166v-192h-166zM631 -25q-113 0 -205 29t-164.5 88.5t-112.5 162t-40 239.5v796h176v-798q0 -183 88 -275t258 -92q171 0 260.5 91.5t89.5 272.5v801h174v-796q0 -137 -40.5 -239.5t-113 -162t-165 -88.5t-205.5 -29z" />
    <glyph glyph-name="Yacute" unicode="&#xdd;" horiz-adv-x="1224" 
d="M623 672l389 618h188l-502 -784v-506h-170v506l-503 784h194zM672 1384h-119l111 258h206z" />
    <glyph glyph-name="Thorn" unicode="&#xde;" horiz-adv-x="1122" 
d="M301 410h272q167 0 250.5 66t83.5 192t-83.5 192t-250.5 66h-272v-516zM301 264v-264h-176v1290h176v-219h277q238 0 369.5 -106.5t131.5 -296.5q0 -191 -131 -297.5t-370 -106.5h-277z" />
    <glyph glyph-name="germandbls" unicode="&#xdf;" horiz-adv-x="995" 
d="M864 995q0 -111 -57 -181.5t-145 -90.5q128 -22 202 -114t74 -228q0 -123 -53.5 -213t-138.5 -133t-189 -43q-59 0 -137 24v131q71 -22 115 -22q106 0 172.5 68t66.5 196q0 120 -73.5 190t-196.5 68q-49 0 -82 -2v137q25 -4 78 -4q99 0 150.5 54.5t51.5 156.5
q0 88 -52 143.5t-148 55.5q-106 0 -160.5 -74t-54.5 -211v-903h-170v911q0 180 102 292t283 112q167 0 264.5 -86t97.5 -234z" />
    <glyph glyph-name="agrave" unicode="&#xe0;" horiz-adv-x="1001" 
d="M674 399v43l-201 -43q-50 -11 -79 -19t-62 -21.5t-50 -29t-28.5 -40t-11.5 -56.5q0 -59 39.5 -96t113.5 -37q120 0 199.5 83t79.5 216zM838 578v-402q0 -70 69 -70q41 0 78 21v-92q-53 -53 -137 -53q-69 0 -114.5 48t-53.5 128q-37 -80 -126 -131.5t-196 -51.5
q-131 0 -208.5 66.5t-77.5 181.5q0 62 25 109.5t75 80t112 54.5t148 39l242 49v35q0 93 -52 145.5t-145 52.5q-178 0 -225 -180l-152 21q27 131 126.5 211t252.5 80q171 0 265 -87t94 -255zM565 1032h-119l-198 258h207z" />
    <glyph glyph-name="aacute" unicode="&#xe1;" horiz-adv-x="1001" 
d="M674 399v43l-201 -43q-50 -11 -79 -19t-62 -21.5t-50 -29t-28.5 -40t-11.5 -56.5q0 -59 39.5 -96t113.5 -37q120 0 199.5 83t79.5 216zM838 578v-402q0 -70 69 -70q41 0 78 21v-92q-53 -53 -137 -53q-69 0 -114.5 48t-53.5 128q-37 -80 -126 -131.5t-196 -51.5
q-131 0 -208.5 66.5t-77.5 181.5q0 62 25 109.5t75 80t112 54.5t148 39l242 49v35q0 93 -52 145.5t-145 52.5q-178 0 -225 -180l-152 21q27 131 126.5 211t252.5 80q171 0 265 -87t94 -255zM553 1032h-119l111 258h207z" />
    <glyph glyph-name="acircumflex" unicode="&#xe2;" horiz-adv-x="1001" 
d="M674 399v43l-201 -43q-50 -11 -79 -19t-62 -21.5t-50 -29t-28.5 -40t-11.5 -56.5q0 -59 39.5 -96t113.5 -37q120 0 199.5 83t79.5 216zM838 578v-402q0 -70 69 -70q41 0 78 21v-92q-53 -53 -137 -53q-69 0 -114.5 48t-53.5 128q-37 -80 -126 -131.5t-196 -51.5
q-131 0 -208.5 66.5t-77.5 181.5q0 62 25 109.5t75 80t112 54.5t148 39l242 49v35q0 93 -52 145.5t-145 52.5q-178 0 -225 -180l-152 21q27 131 126.5 211t252.5 80q171 0 265 -87t94 -255zM391 1290h197l164 -258h-123l-140 152l-139 -152h-123z" />
    <glyph glyph-name="atilde" unicode="&#xe3;" horiz-adv-x="1001" 
d="M674 399v43l-201 -43q-50 -11 -79 -19t-62 -21.5t-50 -29t-28.5 -40t-11.5 -56.5q0 -59 39.5 -96t113.5 -37q120 0 199.5 83t79.5 216zM838 578v-402q0 -70 69 -70q41 0 78 21v-92q-53 -53 -137 -53q-69 0 -114.5 48t-53.5 128q-37 -80 -126 -131.5t-196 -51.5
q-131 0 -208.5 66.5t-77.5 181.5q0 62 25 109.5t75 80t112 54.5t148 39l242 49v35q0 93 -52 145.5t-145 52.5q-178 0 -225 -180l-152 21q27 131 126.5 211t252.5 80q171 0 265 -87t94 -255zM299 1036h-102q0 113 43.5 179.5t126.5 66.5q37 0 74.5 -18.5t62.5 -41t56.5 -41
t57.5 -18.5q40 0 56.5 27.5t19.5 85.5h103q0 -116 -43 -181t-127 -65q-37 0 -74.5 18.5t-63 41t-57 41t-57.5 18.5q-39 0 -56 -27.5t-20 -85.5z" />
    <glyph glyph-name="adieresis" unicode="&#xe4;" horiz-adv-x="1001" 
d="M674 399v43l-201 -43q-50 -11 -79 -19t-62 -21.5t-50 -29t-28.5 -40t-11.5 -56.5q0 -59 39.5 -96t113.5 -37q120 0 199.5 83t79.5 216zM838 578v-402q0 -70 69 -70q41 0 78 21v-92q-53 -53 -137 -53q-69 0 -114.5 48t-53.5 128q-37 -80 -126 -131.5t-196 -51.5
q-131 0 -208.5 66.5t-77.5 181.5q0 62 25 109.5t75 80t112 54.5t148 39l242 49v35q0 93 -52 145.5t-145 52.5q-178 0 -225 -180l-152 21q27 131 126.5 211t252.5 80q171 0 265 -87t94 -255zM266 1081v193h168v-193h-168zM549 1081v193h166v-193h-166z" />
    <glyph glyph-name="aring" unicode="&#xe5;" horiz-adv-x="1001" 
d="M674 399v43l-201 -43q-50 -11 -79 -19t-62 -21.5t-50 -29t-28.5 -40t-11.5 -56.5q0 -59 39.5 -96t113.5 -37q120 0 199.5 83t79.5 216zM838 578v-402q0 -70 69 -70q41 0 78 21v-92q-53 -53 -137 -53q-69 0 -114.5 48t-53.5 128q-37 -80 -126 -131.5t-196 -51.5
q-131 0 -208.5 66.5t-77.5 181.5q0 62 25 109.5t75 80t112 54.5t148 39l242 49v35q0 93 -52 145.5t-145 52.5q-178 0 -225 -180l-152 21q27 131 126.5 211t252.5 80q171 0 265 -87t94 -255zM401 1171q0 -41 23 -65.5t65 -24.5t65.5 24.5t23.5 65.5q0 39 -23.5 64t-65.5 25
t-65 -25t-23 -64zM309 1171q0 73 50 122.5t130 49.5t130.5 -49.5t50.5 -122.5q0 -75 -50 -124.5t-131 -49.5q-80 0 -130 49.5t-50 124.5z" />
    <glyph glyph-name="ae" unicode="&#xe6;" horiz-adv-x="1589" 
d="M473 920q224 0 299 -160q57 74 143 117t185 43q138 0 236.5 -61.5t145 -161t46.5 -224.5v-67h-713q9 -138 92.5 -217.5t202.5 -79.5q221 0 274 210l142 -16q-32 -154 -142.5 -241t-275.5 -87q-254 0 -373 207q-44 -88 -136 -147.5t-218 -59.5q-146 0 -227.5 67.5
t-81.5 184.5q0 289 460 289h148v59q0 102 -54 157.5t-149 55.5q-92 0 -150 -48.5t-79 -129.5l-146 21q25 129 125 209t246 80zM399 98q116 0 198.5 74.5t82.5 204.5v29h-141q-165 0 -231 -41t-66 -127q0 -62 40.5 -101t116.5 -39zM1100 791q-108 0 -185 -76t-96 -199h537
q-7 117 -72 196t-184 79z" />
    <glyph glyph-name="ccedilla" unicode="&#xe7;" horiz-adv-x="997" 
d="M733 -209q0 -77 -65.5 -113t-163.5 -36q-68 0 -128 23t-97 54l34 66q86 -66 185 -66q102 0 102 62q0 28 -17.5 44.5t-44 19t-56.5 -3t-56 -17.5l-41 22l88 131q-186 14 -300 141t-114 328q0 213 127.5 343.5t331.5 130.5q188 0 298 -111t124 -281l-149 -10
q-11 122 -82 193t-193 71q-127 0 -205 -91t-78 -245t78 -244.5t205 -90.5q121 0 192.5 74t82.5 196l149 -14q-9 -107 -54 -191t-131.5 -138t-203.5 -61l-51 -69q60 13 111.5 8.5t86.5 -38t35 -87.5z" />
    <glyph glyph-name="egrave" unicode="&#xe8;" horiz-adv-x="1001" 
d="M797 317l141 -16q-34 -154 -143 -240t-275 -86q-202 0 -331.5 126t-129.5 333q0 211 129 348.5t324 137.5q138 0 237 -61.5t146 -161t47 -224.5v-67h-713q6 -130 89 -213.5t204 -83.5q219 0 275 208zM233 516h535q-5 116 -70.5 195.5t-185.5 79.5q-116 0 -189.5 -79
t-89.5 -196zM592 1032h-119l-199 258h207z" />
    <glyph glyph-name="eacute" unicode="&#xe9;" horiz-adv-x="1001" 
d="M565 1032h-119l111 258h207zM797 317l141 -16q-34 -154 -143 -240t-275 -86q-202 0 -331.5 126t-129.5 333q0 211 129 348.5t324 137.5q138 0 237 -61.5t146 -161t47 -224.5v-67h-713q6 -130 89 -213.5t204 -83.5q219 0 275 208zM233 516h535q-5 116 -70.5 195.5
t-185.5 79.5q-116 0 -189.5 -79t-89.5 -196z" />
    <glyph glyph-name="ecircumflex" unicode="&#xea;" horiz-adv-x="1001" 
d="M416 1290h196l164 -258h-123l-139 152l-139 -152h-123zM797 317l141 -16q-34 -154 -143 -240t-275 -86q-202 0 -331.5 126t-129.5 333q0 211 129 348.5t324 137.5q138 0 237 -61.5t146 -161t47 -224.5v-67h-713q6 -130 89 -213.5t204 -83.5q219 0 275 208zM233 516h535
q-5 116 -70.5 195.5t-185.5 79.5q-116 0 -189.5 -79t-89.5 -196z" />
    <glyph glyph-name="edieresis" unicode="&#xeb;" horiz-adv-x="1001" 
d="M291 1081v193h168v-193h-168zM573 1081v193h166v-193h-166zM797 317l141 -16q-34 -154 -143 -240t-275 -86q-202 0 -331.5 126t-129.5 333q0 211 129 348.5t324 137.5q138 0 237 -61.5t146 -161t47 -224.5v-67h-713q6 -130 89 -213.5t204 -83.5q219 0 275 208zM233 516
h535q-5 116 -70.5 195.5t-185.5 79.5q-116 0 -189.5 -79t-89.5 -196z" />
    <glyph glyph-name="igrave" unicode="&#xec;" horiz-adv-x="401" 
d="M117 895h170v-895h-170v895zM274 1032h-118l-199 258h207z" />
    <glyph glyph-name="iacute" unicode="&#xed;" horiz-adv-x="401" 
d="M262 1032h-119l111 258h207zM117 895h170v-895h-170v895z" />
    <glyph glyph-name="icircumflex" unicode="&#xee;" horiz-adv-x="401" 
d="M102 1290h197l164 -258h-123l-139 152l-140 -152h-122zM117 895h170v-895h-170v895z" />
    <glyph glyph-name="idieresis" unicode="&#xef;" horiz-adv-x="401" 
d="M-25 1081v193h168v-193h-168zM258 1081v193h166v-193h-166zM117 895h170v-895h-170v895z" />
    <glyph glyph-name="eth" unicode="&#xf0;" 
d="M293 950l-41 90l213 78q-74 55 -176 117l112 82q121 -65 215 -141l164 61l45 -90l-125 -47q267 -261 267 -629q0 -236 -124.5 -366t-328.5 -130q-199 0 -328 127t-129 332t127.5 330t317.5 125q85 0 158.5 -41t125.5 -115q-62 163 -233 314zM514 109q133 0 209 89t76 236
q0 148 -76 238t-209 90q-132 0 -207.5 -90t-75.5 -238q0 -147 75.5 -236t207.5 -89z" />
    <glyph glyph-name="ntilde" unicode="&#xf1;" horiz-adv-x="1015" 
d="M287 514v-514h-170v895h170v-160q32 82 114.5 133.5t182.5 51.5q113 0 187.5 -48.5t107 -128.5t32.5 -188v-555h-170v541q0 115 -54.5 179t-158.5 64q-103 0 -172 -74.5t-69 -195.5zM328 1036h-103q0 113 43.5 179.5t126.5 66.5q37 0 74.5 -18.5t63 -41t57 -41
t57.5 -18.5q40 0 56.5 27.5t19.5 85.5h102q0 -116 -43 -181t-127 -65q-37 0 -74.5 18.5t-63 41t-57 41t-57.5 18.5q-39 0 -55.5 -27.5t-19.5 -85.5z" />
    <glyph glyph-name="ograve" unicode="&#xf2;" horiz-adv-x="1032" 
d="M233 446q0 -153 74.5 -246.5t206.5 -93.5q134 0 209.5 93.5t75.5 246.5q0 154 -75.5 247t-209.5 93q-133 0 -207 -93t-74 -247zM973 446q0 -208 -130 -339.5t-329 -131.5q-198 0 -326.5 131.5t-128.5 339.5t128.5 341t326.5 133q199 0 329 -133t130 -341zM590 1032h-119
l-199 258h207z" />
    <glyph glyph-name="oacute" unicode="&#xf3;" horiz-adv-x="1032" 
d="M578 1032h-119l110 258h207zM233 446q0 -153 74.5 -246.5t206.5 -93.5q134 0 209.5 93.5t75.5 246.5q0 154 -75.5 247t-209.5 93q-133 0 -207 -93t-74 -247zM973 446q0 -208 -130 -339.5t-329 -131.5q-198 0 -326.5 131.5t-128.5 339.5t128.5 341t326.5 133
q199 0 329 -133t130 -341z" />
    <glyph glyph-name="ocircumflex" unicode="&#xf4;" horiz-adv-x="1032" 
d="M416 1290h196l164 -258h-123l-139 152l-139 -152h-123zM233 446q0 -153 74.5 -246.5t206.5 -93.5q134 0 209.5 93.5t75.5 246.5q0 154 -75.5 247t-209.5 93q-133 0 -207 -93t-74 -247zM973 446q0 -208 -130 -339.5t-329 -131.5q-198 0 -326.5 131.5t-128.5 339.5
t128.5 341t326.5 133q199 0 329 -133t130 -341z" />
    <glyph glyph-name="otilde" unicode="&#xf5;" horiz-adv-x="1032" 
d="M233 446q0 -153 74.5 -246.5t206.5 -93.5q134 0 209.5 93.5t75.5 246.5q0 154 -75.5 247t-209.5 93q-133 0 -207 -93t-74 -247zM973 446q0 -208 -130 -339.5t-329 -131.5q-198 0 -326.5 131.5t-128.5 339.5t128.5 341t326.5 133q199 0 329 -133t130 -341zM328 1036h-103
q0 113 43.5 179.5t126.5 66.5q37 0 74.5 -18.5t63 -41t57 -41t57.5 -18.5q40 0 56.5 27.5t19.5 85.5h102q0 -116 -43 -181t-127 -65q-37 0 -74.5 18.5t-63 41t-57 41t-57.5 18.5q-39 0 -55.5 -27.5t-19.5 -85.5z" />
    <glyph glyph-name="odieresis" unicode="&#xf6;" horiz-adv-x="1032" 
d="M291 1081v193h168v-193h-168zM573 1081v193h166v-193h-166zM233 446q0 -153 74.5 -246.5t206.5 -93.5q134 0 209.5 93.5t75.5 246.5q0 154 -75.5 247t-209.5 93q-133 0 -207 -93t-74 -247zM973 446q0 -208 -130 -339.5t-329 -131.5q-198 0 -326.5 131.5t-128.5 339.5
t128.5 341t326.5 133q199 0 329 -133t130 -341z" />
    <glyph glyph-name="divide" unicode="&#xf7;" horiz-adv-x="1265" 
d="M111 567v144h1046v-144h-1046zM528 961v208h213v-208h-213zM528 109v206h213v-206h-213z" />
    <glyph glyph-name="oslash" unicode="&#xf8;" horiz-adv-x="1032" 
d="M973 446q0 -208 -130 -339.5t-329 -131.5q-152 0 -262 78l-102 -121l-80 66l104 123q-115 127 -115 325q0 208 128.5 341t326.5 133q147 0 266 -82l105 123l80 -64l-107 -127q115 -131 115 -324zM229 446q0 -121 47 -204l412 487q-69 57 -174 57q-134 0 -209.5 -93
t-75.5 -247zM803 446q0 120 -47 203l-412 -487q72 -56 170 -56q135 0 212 94t77 246z" />
    <glyph glyph-name="ugrave" unicode="&#xf9;" horiz-adv-x="1005" 
d="M719 381v514h170v-895h-170v158q-33 -81 -113 -132t-180 -51q-166 0 -243 97.5t-77 265.5v557h170v-541q0 -116 52 -180.5t155 -64.5q102 0 169 75t67 197zM578 1032h-119l-199 258h207z" />
    <glyph glyph-name="uacute" unicode="&#xfa;" horiz-adv-x="1005" 
d="M565 1032h-119l111 258h207zM719 381v514h170v-895h-170v158q-33 -81 -113 -132t-180 -51q-166 0 -243 97.5t-77 265.5v557h170v-541q0 -116 52 -180.5t155 -64.5q102 0 169 75t67 197z" />
    <glyph glyph-name="ucircumflex" unicode="&#xfb;" horiz-adv-x="1005" 
d="M406 1290h196l164 -258h-123l-139 152l-139 -152h-123zM719 381v514h170v-895h-170v158q-33 -81 -113 -132t-180 -51q-166 0 -243 97.5t-77 265.5v557h170v-541q0 -116 52 -180.5t155 -64.5q102 0 169 75t67 197z" />
    <glyph glyph-name="udieresis" unicode="&#xfc;" horiz-adv-x="1005" 
d="M279 1081v193h167v-193h-167zM561 1081v193h166v-193h-166zM719 381v514h170v-895h-170v158q-33 -81 -113 -132t-180 -51q-166 0 -243 97.5t-77 265.5v557h170v-541q0 -116 52 -180.5t155 -64.5q102 0 169 75t67 197z" />
    <glyph glyph-name="yacute" unicode="&#xfd;" horiz-adv-x="942" 
d="M412 -344h-166l145 346l-377 893h179l284 -688h8l275 688h168zM532 1032h-118l110 258h207z" />
    <glyph glyph-name="thorn" unicode="&#xfe;" horiz-adv-x="1077" 
d="M283 473v-51q0 -144 80.5 -227.5t205.5 -83.5q130 0 201.5 89.5t71.5 245.5t-71.5 246t-201.5 90q-125 0 -205.5 -83t-80.5 -226zM287 186v-530h-170v1634h170v-583q32 90 117 151.5t204 61.5q128 0 222.5 -64t141 -170t46.5 -240q0 -205 -109 -338t-301 -133
q-120 0 -205 61t-116 150z" />
    <glyph glyph-name="ydieresis" unicode="&#xff;" horiz-adv-x="942" 
d="M412 -344h-166l145 346l-377 893h179l284 -688h8l275 688h168zM246 1081v193h168v-193h-168zM528 1081v193h166v-193h-166z" />
    <glyph glyph-name="Amacron" unicode="&#x100;" horiz-adv-x="1306" 
d="M551 1290h194l537 -1290h-188l-156 379h-588l-151 -379h-174zM637 1094l-231 -574h475l-236 574h-8zM373 1399v129h530v-129h-530z" />
    <glyph glyph-name="amacron" unicode="&#x101;" horiz-adv-x="1001" 
d="M674 399v43l-201 -43q-50 -11 -79 -19t-62 -21.5t-50 -29t-28.5 -40t-11.5 -56.5q0 -59 39.5 -96t113.5 -37q120 0 199.5 83t79.5 216zM838 578v-402q0 -70 69 -70q41 0 78 21v-92q-53 -53 -137 -53q-69 0 -114.5 48t-53.5 128q-37 -80 -126 -131.5t-196 -51.5
q-131 0 -208.5 66.5t-77.5 181.5q0 62 25 109.5t75 80t112 54.5t148 39l242 49v35q0 93 -52 145.5t-145 52.5q-178 0 -225 -180l-152 21q27 131 126.5 211t252.5 80q171 0 265 -87t94 -255zM227 1055v131h527v-131h-527z" />
    <glyph glyph-name="Abreve" unicode="&#x102;" horiz-adv-x="1306" 
d="M551 1290h194l537 -1290h-188l-156 379h-588l-151 -379h-174zM637 1094l-231 -574h475l-236 574h-8zM637 1378q-114 0 -176 67t-62 197h119q0 -143 119 -143t119 143h118q0 -130 -61.5 -197t-175.5 -67z" />
    <glyph glyph-name="abreve" unicode="&#x103;" horiz-adv-x="1001" 
d="M674 399v43l-201 -43q-50 -11 -79 -19t-62 -21.5t-50 -29t-28.5 -40t-11.5 -56.5q0 -59 39.5 -96t113.5 -37q120 0 199.5 83t79.5 216zM838 578v-402q0 -70 69 -70q41 0 78 21v-92q-53 -53 -137 -53q-69 0 -114.5 48t-53.5 128q-37 -80 -126 -131.5t-196 -51.5
q-131 0 -208.5 66.5t-77.5 181.5q0 62 25 109.5t75 80t112 54.5t148 39l242 49v35q0 93 -52 145.5t-145 52.5q-178 0 -225 -180l-152 21q27 131 126.5 211t252.5 80q171 0 265 -87t94 -255zM489 1026q-114 0 -175.5 67t-61.5 197h119q0 -143 118 -143q119 0 119 143h119
q0 -130 -62 -197t-176 -67z" />
    <glyph glyph-name="Aogonek" unicode="&#x104;" horiz-adv-x="1306" 
d="M551 1290h194l537 -1290q-98 -59 -142 -103.5t-44 -86.5q0 -62 73 -62q41 0 109 33v-94q-68 -45 -154 -45q-70 0 -112.5 35.5t-42.5 101.5q0 61 40.5 114t112.5 107l-28 4l-156 375h-588l-151 -379h-174zM637 1094l-229 -574h473l-236 574h-8z" />
    <glyph glyph-name="aogonek" unicode="&#x105;" horiz-adv-x="1001" 
d="M838 578v-402q0 -70 69 -70q41 0 78 21v-96q-8 -6 -39.5 -31t-43.5 -35t-36 -33.5t-34.5 -39t-19.5 -38t-9 -44.5q0 -62 74 -62q40 0 108 33v-94q-68 -45 -154 -45q-70 0 -112.5 35.5t-42.5 101.5q0 111 135 207q-55 10 -90 56.5t-41 115.5q-38 -80 -127 -131.5
t-197 -51.5q-130 0 -207 66t-77 182q0 119 91.5 183.5t268.5 99.5l242 49v35q0 93 -52 145.5t-145 52.5q-178 0 -225 -180l-152 21q27 131 126.5 211t252.5 80q171 0 265 -87t94 -255zM674 399v43l-201 -43q-123 -26 -177 -60t-54 -106q0 -60 40 -96.5t113 -36.5
q120 0 199.5 83t79.5 216z" />
    <glyph glyph-name="Cacute" unicode="&#x106;" horiz-adv-x="1363" 
d="M66 645q0 195 83.5 348.5t227.5 237.5t321 84q270 0 426.5 -151.5t175.5 -407.5l-172 -8q-11 185 -123.5 300t-306.5 115q-199 0 -324.5 -141.5t-125.5 -376.5t125.5 -376.5t324.5 -141.5q194 0 306.5 115.5t123.5 300.5l172 -8q-19 -256 -175.5 -408t-426.5 -152
q-177 0 -321 84t-227.5 237.5t-83.5 348.5zM774 1384h-119l111 258h207z" />
    <glyph glyph-name="cacute" unicode="&#x107;" horiz-adv-x="997" 
d="M580 1032h-119l110 258h207zM59 446q0 213 127.5 343.5t331.5 130.5q188 0 298 -111t124 -281l-149 -10q-11 122 -82 193t-193 71q-127 0 -205 -91t-78 -245t78 -244.5t205 -90.5q121 0 192.5 74t82.5 196l149 -14q-14 -172 -124 -282t-298 -110q-204 0 -331.5 129.5
t-127.5 341.5z" />
    <glyph glyph-name="Ccircumflex" unicode="&#x108;" horiz-adv-x="1363" 
d="M66 645q0 195 83.5 348.5t227.5 237.5t321 84q270 0 426.5 -151.5t175.5 -407.5l-172 -8q-11 185 -123.5 300t-306.5 115q-199 0 -324.5 -141.5t-125.5 -376.5t125.5 -376.5t324.5 -141.5q194 0 306.5 115.5t123.5 300.5l172 -8q-19 -256 -175.5 -408t-426.5 -152
q-177 0 -321 84t-227.5 237.5t-83.5 348.5zM614 1642h197l164 -258h-123l-139 152l-140 -152h-122z" />
    <glyph glyph-name="ccircumflex" unicode="&#x109;" horiz-adv-x="997" 
d="M420 1290h196l164 -258h-123l-139 152l-139 -152h-123zM59 446q0 213 127.5 343.5t331.5 130.5q188 0 298 -111t124 -281l-149 -10q-11 122 -82 193t-193 71q-127 0 -205 -91t-78 -245t78 -244.5t205 -90.5q121 0 192.5 74t82.5 196l149 -14q-14 -172 -124 -282
t-298 -110q-204 0 -331.5 129.5t-127.5 341.5z" />
    <glyph glyph-name="Cdotaccent" unicode="&#x10a;" horiz-adv-x="1363" 
d="M625 1395v192h178v-192h-178zM66 645q0 195 83.5 348.5t227.5 237.5t321 84q270 0 426.5 -151.5t175.5 -407.5l-172 -8q-11 185 -123.5 300t-306.5 115q-199 0 -324.5 -141.5t-125.5 -376.5t125.5 -376.5t324.5 -141.5q194 0 306.5 115.5t123.5 300.5l172 -8
q-19 -256 -175.5 -408t-426.5 -152q-177 0 -321 84t-227.5 237.5t-83.5 348.5z" />
    <glyph glyph-name="cdotaccent" unicode="&#x10b;" horiz-adv-x="997" 
d="M59 446q0 213 127.5 343.5t331.5 130.5q188 0 298 -111t124 -281l-149 -10q-11 122 -82 193t-193 71q-127 0 -205 -91t-78 -245t78 -244.5t205 -90.5q121 0 192.5 74t82.5 196l149 -14q-14 -172 -124 -282t-298 -110q-204 0 -331.5 129.5t-127.5 341.5zM428 1098v192h178
v-192h-178z" />
    <glyph glyph-name="Ccaron" unicode="&#x10c;" horiz-adv-x="1363" 
d="M66 645q0 195 83.5 348.5t227.5 237.5t321 84q270 0 426.5 -151.5t175.5 -407.5l-172 -8q-11 185 -123.5 300t-306.5 115q-199 0 -324.5 -141.5t-125.5 -376.5t125.5 -376.5t324.5 -141.5q194 0 306.5 115.5t123.5 300.5l172 -8q-19 -256 -175.5 -408t-426.5 -152
q-177 0 -321 84t-227.5 237.5t-83.5 348.5zM811 1384h-197l-163 258h122l140 -151l139 151h123z" />
    <glyph glyph-name="ccaron" unicode="&#x10d;" horiz-adv-x="997" 
d="M616 1032h-196l-164 258h123l139 -153l139 153h123zM59 446q0 213 127.5 343.5t331.5 130.5q188 0 298 -111t124 -281l-149 -10q-11 122 -82 193t-193 71q-127 0 -205 -91t-78 -245t78 -244.5t205 -90.5q121 0 192.5 74t82.5 196l149 -14q-14 -172 -124 -282t-298 -110
q-204 0 -331.5 129.5t-127.5 341.5z" />
    <glyph glyph-name="Dcaron" unicode="&#x10e;" horiz-adv-x="1316" 
d="M709 1384h-197l-164 258h123l139 -151l140 151h122zM303 145h279q234 0 360.5 131.5t126.5 368.5t-126.5 368.5t-360.5 131.5h-279v-1000zM125 0v1290h467q306 0 483.5 -172t177.5 -473t-177.5 -473t-483.5 -172h-467z" />
    <glyph glyph-name="dcaron" unicode="&#x10f;" horiz-adv-x="1075" 
d="M1141 1020h-97l31 270h189zM793 422v51q0 143 -80 226t-205 83q-131 0 -203 -90t-72 -246q0 -155 72 -245t203 -90q125 0 205 83.5t80 227.5zM791 0v186q-33 -90 -118 -150.5t-204 -60.5q-193 0 -301.5 132.5t-108.5 338.5q0 134 46 240t140.5 170t223.5 64
q119 0 204 -61.5t118 -151.5v583h170v-1290h-170z" />
    <glyph glyph-name="Dcroat" unicode="&#x110;" horiz-adv-x="1355" 
d="M16 592v145h146v553h467q306 0 483.5 -172t177.5 -473t-177.5 -473t-483.5 -172h-467v592h-146zM340 145h278q235 0 361.5 131.5t126.5 368.5t-126.5 368.5t-361.5 131.5h-278v-408h350v-145h-350v-447z" />
    <glyph glyph-name="dcroat" unicode="&#x111;" horiz-adv-x="1075" 
d="M791 0v184q-33 -89 -117.5 -149t-204.5 -60q-129 0 -223.5 63t-140.5 167.5t-46 236.5q0 204 108.5 336.5t301.5 132.5q120 0 204.5 -61t117.5 -152v312h-295v114h295v166h170v-166h120v-114h-120v-1010h-170zM793 420v51q0 142 -80 224.5t-205 82.5q-131 0 -203 -89.5
t-72 -244.5q0 -154 72 -242.5t203 -88.5q125 0 205 82t80 225z" />
    <glyph glyph-name="Emacron" unicode="&#x112;" horiz-adv-x="1122" 
d="M324 1399v129h530v-129h-530zM1044 147v-147h-919v1290h901v-147h-729v-406h580v-145h-580v-445h747z" />
    <glyph glyph-name="emacron" unicode="&#x113;" horiz-adv-x="1001" 
d="M797 317l141 -16q-34 -154 -143 -240t-275 -86q-202 0 -331.5 126t-129.5 333q0 211 129 348.5t324 137.5q138 0 237 -61.5t146 -161t47 -224.5v-67h-713q6 -130 89 -213.5t204 -83.5q219 0 275 208zM233 516h535q-5 116 -70.5 195.5t-185.5 79.5q-116 0 -189.5 -79
t-89.5 -196zM252 1055v131h526v-131h-526z" />
    <glyph glyph-name="Ebreve" unicode="&#x114;" horiz-adv-x="1122" 
d="M588 1378q-114 0 -176 67t-62 197h119q0 -143 119 -143t119 143h118q0 -130 -61.5 -197t-175.5 -67zM1044 147v-147h-919v1290h901v-147h-729v-406h580v-145h-580v-445h747z" />
    <glyph glyph-name="ebreve" unicode="&#x115;" horiz-adv-x="1001" 
d="M797 317l141 -16q-34 -154 -143 -240t-275 -86q-202 0 -331.5 126t-129.5 333q0 211 129 348.5t324 137.5q138 0 237 -61.5t146 -161t47 -224.5v-67h-713q6 -130 89 -213.5t204 -83.5q219 0 275 208zM233 516h535q-5 116 -70.5 195.5t-185.5 79.5q-116 0 -189.5 -79
t-89.5 -196zM512 1026q-114 0 -176 67t-62 197h119q0 -143 119 -143t119 143h119q0 -130 -62 -197t-176 -67z" />
    <glyph glyph-name="Edotaccent" unicode="&#x116;" horiz-adv-x="1122" 
d="M500 1395v192h178v-192h-178zM1044 147v-147h-919v1290h901v-147h-729v-406h580v-145h-580v-445h747z" />
    <glyph glyph-name="edotaccent" unicode="&#x117;" horiz-adv-x="1001" 
d="M797 317l141 -16q-34 -154 -143 -240t-275 -86q-202 0 -331.5 126t-129.5 333q0 211 129 348.5t324 137.5q138 0 237 -61.5t146 -161t47 -224.5v-67h-713q6 -130 89 -213.5t204 -83.5q219 0 275 208zM233 516h535q-5 116 -70.5 195.5t-185.5 79.5q-116 0 -189.5 -79
t-89.5 -196zM426 1098v192h178v-192h-178z" />
    <glyph glyph-name="Eogonek" unicode="&#x118;" horiz-adv-x="1122" 
d="M1044 147v-147h-114q-76 -68 -106.5 -108.5t-30.5 -81.5q0 -62 73 -62q41 0 109 33v-94q-68 -45 -154 -45q-70 0 -112.5 35.5t-42.5 101.5q0 61 40.5 114t112.5 107h-694v1290h901v-147h-729v-406h580v-145h-580v-445h747z" />
    <glyph glyph-name="eogonek" unicode="&#x119;" horiz-adv-x="1001" 
d="M797 317l141 -16q-37 -164 -195 -272q-170 -116 -170 -219q0 -62 76 -62q41 0 109 33v-94q-68 -45 -154 -45q-71 0 -114.5 35.5t-43.5 101.5q0 99 132 201q-45 -5 -58 -5q-202 0 -331.5 126t-129.5 333q0 211 129 348.5t324 137.5q138 0 237 -61.5t146 -161t47 -224.5
v-67h-713q6 -130 89 -213.5t204 -83.5q220 0 275 208zM233 516h535q-5 116 -70.5 195.5t-185.5 79.5q-116 0 -189.5 -79t-89.5 -196z" />
    <glyph glyph-name="Ecaron" unicode="&#x11a;" horiz-adv-x="1122" 
d="M686 1384h-197l-163 258h123l139 -151l139 151h123zM1044 147v-147h-919v1290h901v-147h-729v-406h580v-145h-580v-445h747z" />
    <glyph glyph-name="ecaron" unicode="&#x11b;" horiz-adv-x="1001" 
d="M612 1032h-196l-164 258h123l139 -153l139 153h123zM797 317l141 -16q-34 -154 -143 -240t-275 -86q-202 0 -331.5 126t-129.5 333q0 211 129 348.5t324 137.5q138 0 237 -61.5t146 -161t47 -224.5v-67h-713q6 -130 89 -213.5t204 -83.5q219 0 275 208zM233 516h535
q-5 116 -70.5 195.5t-185.5 79.5q-116 0 -189.5 -79t-89.5 -196z" />
    <glyph glyph-name="Gcircumflex" unicode="&#x11c;" horiz-adv-x="1409" 
d="M694 -25q-136 0 -252 48.5t-199 135.5t-130 212.5t-47 273.5q0 195 83 348.5t226.5 237.5t320.5 84q271 0 426 -141t172 -392l-170 -10q-11 180 -122.5 285.5t-303.5 105.5q-200 0 -325 -141.5t-125 -378.5q0 -238 128 -378t339 -140q179 0 290.5 102t129.5 271h-394v139
h555v-637h-161v229q-42 -120 -163.5 -187t-277.5 -67zM618 1642h197l164 -258h-123l-139 152l-139 -152h-123z" />
    <glyph glyph-name="gcircumflex" unicode="&#x11d;" horiz-adv-x="983" 
d="M854 614q0 -138 -105.5 -220.5t-273.5 -82.5q-115 0 -196 37q-60 -35 -60 -88q0 -78 109 -78h350q142 0 219.5 -66.5t77.5 -174.5q0 -81 -42.5 -142t-116.5 -97t-163.5 -53.5t-193.5 -17.5q-125 0 -222.5 25t-159 81t-61.5 136q0 75 50 124t135 64q-59 20 -89 60.5
t-30 93.5q0 109 135 168q-117 84 -117 231q0 139 104.5 222.5t270.5 83.5q170 0 281 -93q36 56 96.5 89.5t130.5 33.5v-147q-100 0 -172 -37q43 -68 43 -152zM178 -94q0 -82 75.5 -122t205.5 -40q164 0 258 43t94 135q0 111 -172 111h-289q-77 0 -124.5 -30t-47.5 -97z
M682 612q0 94 -54.5 145.5t-150.5 51.5q-95 0 -149 -51.5t-54 -145.5q0 -91 54 -141.5t149 -50.5q96 0 150.5 50t54.5 142zM401 1290h197l164 -258h-123l-139 152l-140 -152h-122z" />
    <glyph glyph-name="Gbreve" unicode="&#x11e;" horiz-adv-x="1409" 
d="M717 1378q-114 0 -176 67t-62 197h119q0 -143 119 -143t119 143h118q0 -130 -61.5 -197t-175.5 -67zM694 -25q-136 0 -252 48.5t-199 135.5t-130 212.5t-47 273.5q0 195 83 348.5t226.5 237.5t320.5 84q271 0 426 -141t172 -392l-170 -10q-11 180 -122.5 285.5
t-303.5 105.5q-200 0 -325 -141.5t-125 -378.5q0 -238 128 -378t339 -140q179 0 290.5 102t129.5 271h-394v139h555v-637h-161v229q-42 -120 -163.5 -187t-277.5 -67z" />
    <glyph glyph-name="gbreve" unicode="&#x11f;" horiz-adv-x="983" 
d="M854 614q0 -138 -105.5 -220.5t-273.5 -82.5q-115 0 -196 37q-60 -35 -60 -88q0 -78 109 -78h350q142 0 219.5 -66.5t77.5 -174.5q0 -81 -42.5 -142t-116.5 -97t-163.5 -53.5t-193.5 -17.5q-125 0 -222.5 25t-159 81t-61.5 136q0 75 50 124t135 64q-59 20 -89 60.5
t-30 93.5q0 109 135 168q-117 84 -117 231q0 139 104.5 222.5t270.5 83.5q170 0 281 -93q36 56 96.5 89.5t130.5 33.5v-147q-100 0 -172 -37q43 -68 43 -152zM178 -94q0 -82 75.5 -122t205.5 -40q164 0 258 43t94 135q0 111 -172 111h-289q-77 0 -124.5 -30t-47.5 -97z
M682 612q0 94 -54.5 145.5t-150.5 51.5q-95 0 -149 -51.5t-54 -145.5q0 -91 54 -141.5t149 -50.5q96 0 150.5 50t54.5 142zM500 1026q-114 0 -176 67t-62 197h119q0 -143 119 -143q118 0 118 143h119q0 -130 -61.5 -197t-175.5 -67z" />
    <glyph glyph-name="Gdotaccent" unicode="&#x120;" horiz-adv-x="1409" 
d="M629 1395v192h178v-192h-178zM694 -25q-136 0 -252 48.5t-199 135.5t-130 212.5t-47 273.5q0 195 83 348.5t226.5 237.5t320.5 84q271 0 426 -141t172 -392l-170 -10q-11 180 -122.5 285.5t-303.5 105.5q-200 0 -325 -141.5t-125 -378.5q0 -238 128 -378t339 -140
q179 0 290.5 102t129.5 271h-394v139h555v-637h-161v229q-42 -120 -163.5 -187t-277.5 -67z" />
    <glyph glyph-name="gdotaccent" unicode="&#x121;" horiz-adv-x="983" 
d="M854 614q0 -138 -105.5 -220.5t-273.5 -82.5q-115 0 -196 37q-60 -35 -60 -88q0 -78 109 -78h350q142 0 219.5 -66.5t77.5 -174.5q0 -81 -42.5 -142t-116.5 -97t-163.5 -53.5t-193.5 -17.5q-125 0 -222.5 25t-159 81t-61.5 136q0 75 50 124t135 64q-59 20 -89 60.5
t-30 93.5q0 109 135 168q-117 84 -117 231q0 139 104.5 222.5t270.5 83.5q170 0 281 -93q36 56 96.5 89.5t130.5 33.5v-147q-100 0 -172 -37q43 -68 43 -152zM178 -94q0 -82 75.5 -122t205.5 -40q164 0 258 43t94 135q0 111 -172 111h-289q-77 0 -124.5 -30t-47.5 -97z
M682 612q0 94 -54.5 145.5t-150.5 51.5q-95 0 -149 -51.5t-54 -145.5q0 -91 54 -141.5t149 -50.5q96 0 150.5 50t54.5 142zM412 1098v192h178v-192h-178z" />
    <glyph glyph-name="Gcommaaccent" unicode="&#x122;" horiz-adv-x="1409" 
d="M627 -246v142h184v-111q0 -85 -42 -132.5t-142 -47.5v71q42 0 60 18t20 60h-80zM694 -25q-136 0 -252 48.5t-199 135.5t-130 212.5t-47 273.5q0 195 83 348.5t226.5 237.5t320.5 84q271 0 426 -141t172 -392l-170 -10q-11 180 -122.5 285.5t-303.5 105.5
q-200 0 -325 -141.5t-125 -378.5q0 -238 128 -378t339 -140q179 0 290.5 102t129.5 271h-394v139h555v-637h-161v229q-42 -120 -163.5 -187t-277.5 -67z" />
    <glyph glyph-name="gcommaaccent" unicode="&#x123;" horiz-adv-x="983" 
d="M854 614q0 -138 -105.5 -220.5t-273.5 -82.5q-115 0 -196 37q-60 -35 -60 -88q0 -78 109 -78h350q142 0 219.5 -66.5t77.5 -174.5q0 -81 -42.5 -142t-116.5 -97t-163.5 -53.5t-193.5 -17.5q-125 0 -222.5 25t-159 81t-61.5 136q0 75 50 124t135 64q-59 20 -89 60.5
t-30 93.5q0 109 135 168q-117 84 -117 231q0 139 104.5 222.5t270.5 83.5q170 0 281 -93q36 56 96.5 89.5t130.5 33.5v-147q-100 0 -172 -37q43 -68 43 -152zM178 -94q0 -82 75.5 -122t205.5 -40q164 0 258 43t94 135q0 111 -172 111h-289q-77 0 -124.5 -30t-47.5 -97z
M682 612q0 94 -54.5 145.5t-150.5 51.5q-95 0 -149 -51.5t-54 -145.5q0 -91 54 -141.5t149 -50.5q96 0 150.5 50t54.5 142zM592 1206v-141h-184v111q0 85 42 132.5t142 47.5v-72q-42 0 -60 -18t-20 -60h80z" />
    <glyph glyph-name="Hcircumflex" unicode="&#x124;" horiz-adv-x="1347" 
d="M303 0h-178v1290h178v-553h741v553h179v-1290h-179v592h-741v-592zM575 1642h197l164 -258h-123l-139 152l-139 -152h-123z" />
    <glyph glyph-name="hcircumflex" unicode="&#x125;" horiz-adv-x="1015" 
d="M287 514v-514h-170v1290h170v-555q32 82 114.5 133.5t182.5 51.5q113 0 187.5 -48.5t107 -128.5t32.5 -188v-555h-170v541q0 115 -54.5 179t-158.5 64q-103 0 -172 -74.5t-69 -195.5zM414 1642h196l164 -258h-123l-139 152l-139 -152h-123z" />
    <glyph glyph-name="Hbar" unicode="&#x126;" horiz-adv-x="1423" 
d="M16 895v145h148v250h176v-250h743v250h177v-250h147v-145h-147v-895h-177v537h-743v-537h-176v895h-148zM340 684h743v211h-743v-211z" />
    <glyph glyph-name="hbar" unicode="&#x127;" horiz-adv-x="1015" 
d="M-4 1010v114h121v166h170v-166h293v-114h-293v-281q32 80 115 131t182 51q167 0 247 -98.5t80 -263.5v-549h-170v532q0 115 -54.5 179.5t-158.5 64.5t-172.5 -74t-68.5 -196v-506h-170v1010h-121z" />
    <glyph glyph-name="Itilde" unicode="&#x128;" horiz-adv-x="428" 
d="M43 1380h-102q0 116 39.5 182t117.5 66q34 0 68 -19t57 -41.5t52 -41.5t53 -19q34 0 46 26.5t15 88.5h103q0 -115 -40 -181.5t-116 -66.5q-34 0 -68.5 18.5t-58 41t-52.5 41t-53 18.5q-36 0 -47.5 -26t-13.5 -87zM125 1290h178v-1290h-178v1290z" />
    <glyph glyph-name="itilde" unicode="&#x129;" horiz-adv-x="401" 
d="M35 1049h-98q0 117 38 182t113 65q33 0 65.5 -18.5t54 -40.5t48 -40.5t49.5 -18.5q35 0 47 25.5t15 86.5h98q0 -114 -39 -181t-113 -67q-33 0 -65 19t-53.5 41.5t-48 41.5t-50.5 19q-35 0 -46.5 -25.5t-14.5 -88.5zM117 895h170v-895h-170v895z" />
    <glyph glyph-name="Imacron" unicode="&#x12a;" horiz-adv-x="428" 
d="M125 1290h178v-1290h-178v1290zM-33 1399v129h494v-129h-494z" />
    <glyph glyph-name="imacron" unicode="&#x12b;" horiz-adv-x="401" 
d="M117 895h170v-895h-170v895zM-20 1055v131h442v-131h-442z" />
    <glyph glyph-name="Ibreve" unicode="&#x12c;" horiz-adv-x="428" 
d="M125 1290h178v-1290h-178v1290zM213 1378q-114 0 -176 67t-62 197h119q0 -143 119 -143t119 143h119q0 -130 -62 -197t-176 -67z" />
    <glyph glyph-name="ibreve" unicode="&#x12d;" horiz-adv-x="401" 
d="M117 895h170v-895h-170v895zM201 1026q-114 0 -176 67t-62 197h119q0 -143 119 -143q118 0 118 143h119q0 -130 -61.5 -197t-175.5 -67z" />
    <glyph glyph-name="Iogonek" unicode="&#x12e;" horiz-adv-x="428" 
d="M125 1290h178v-1290q-103 -64 -142.5 -105.5t-39.5 -84.5q0 -62 76 -62q42 0 106 33v-94q-68 -45 -151 -45q-71 0 -114.5 35.5t-43.5 101.5q0 61 41.5 113.5t114.5 107.5l-25 4v1286z" />
    <glyph glyph-name="iogonek" unicode="&#x12f;" horiz-adv-x="401" 
d="M117 895h170v-895q-101 -64 -139.5 -105.5t-38.5 -84.5q0 -62 73 -62q41 0 109 33v-94q-68 -45 -154 -45q-70 0 -112.5 35.5t-42.5 101.5q0 61 40.5 114t112.5 107l-18 4v891zM113 1098v192h176v-192h-176z" />
    <glyph glyph-name="Idotaccent" unicode="&#x130;" horiz-adv-x="428" 
d="M125 1290h178v-1290h-178v1290zM125 1395v192h178v-192h-178z" />
    <glyph glyph-name="dotlessi" unicode="&#x131;" horiz-adv-x="401" 
d="M117 895h170v-895h-170v895z" />
    <glyph glyph-name="IJ" unicode="&#x132;" horiz-adv-x="1468" 
d="M125 1290h178v-1290h-178v1290zM1186 1290h176v-850q0 -227 -120.5 -346t-330.5 -119q-207 0 -330 121t-132 348l167 11q11 -160 86.5 -247t212.5 -87q271 0 271 323v846z" />
    <glyph glyph-name="ij" unicode="&#x133;" horiz-adv-x="802" 
d="M117 895h170v-895h-170v895zM113 1098v192h176v-192h-176zM688 895v-1018q0 -120 -60 -183t-179 -63q-55 0 -108.5 18.5t-90.5 47.5l41 108q68 -45 139 -45q88 0 88 105v1030h170zM514 1098v192h176v-192h-176z" />
    <glyph glyph-name="Jcircumflex" unicode="&#x134;" horiz-adv-x="1044" 
d="M762 1290h176v-850q0 -227 -120.5 -346t-330.5 -119q-207 0 -330 121t-132 348l168 11q11 -160 86.5 -247t212.5 -87q136 0 203 80t67 243v846zM754 1642h196l164 -258h-123l-139 152l-139 -152h-123z" />
    <glyph glyph-name="jcircumflex" unicode="&#x135;" horiz-adv-x="401" 
d="M287 895v-1018q0 -120 -60.5 -183t-179.5 -63q-55 0 -108.5 18.5t-90.5 47.5l41 108q68 -45 140 -45q88 0 88 105v1030h170zM100 1290h197l164 -258h-123l-139 152l-140 -152h-122z" />
    <glyph glyph-name="Kcommaaccent" unicode="&#x136;" horiz-adv-x="1196" 
d="M516 -246v142h184v-111q0 -85 -42 -132.5t-142 -47.5v71q42 0 60 18t20 60h-80zM1200 0h-215l-532 612l-150 -151v-461h-178v1290h178v-637l625 637h211l-555 -567z" />
    <glyph glyph-name="kcommaaccent" unicode="&#x137;" horiz-adv-x="980" 
d="M414 -246v142h184v-111q0 -85 -42 -132.5t-142 -47.5v71q42 0 60 18t20 60h-80zM287 324v-324h-170v1290h170v-801l450 406h213l-411 -367l430 -528h-201l-356 434z" />
    <glyph glyph-name="kgreenlandic" unicode="&#x138;" horiz-adv-x="980" 
d="M287 324v-324h-170v895h170v-406l450 406h213l-411 -367l430 -528h-201l-356 434z" />
    <glyph glyph-name="Lacute" unicode="&#x139;" horiz-adv-x="1073" 
d="M276 1384h-118l110 258h207zM125 1290h178v-1143h719v-147h-897v1290z" />
    <glyph glyph-name="lacute" unicode="&#x13a;" horiz-adv-x="401" 
d="M258 1384h-119l111 258h207zM117 1290h170v-1290h-170v1290z" />
    <glyph glyph-name="Lcommaaccent" unicode="&#x13b;" horiz-adv-x="1073" 
d="M481 -246v142h185v-111q0 -180 -185 -180v71q42 0 60 18t20 60h-80zM125 1290h178v-1143h719v-147h-897v1290z" />
    <glyph glyph-name="lcommaaccent" unicode="&#x13c;" horiz-adv-x="401" 
d="M109 -246v142h184v-111q0 -85 -42 -132.5t-142 -47.5v71q42 0 59.5 18t19.5 60h-79zM117 1290h170v-1290h-170v1290z" />
    <glyph glyph-name="Lcaron" unicode="&#x13d;" horiz-adv-x="1073" 
d="M664 1020h-97l31 270h188zM125 1290h178v-1143h719v-147h-897v1290z" />
    <glyph glyph-name="lcaron" unicode="&#x13e;" horiz-adv-x="401" 
d="M461 1020h-96l30 270h189zM117 1290h170v-1290h-170v1290z" />
    <glyph glyph-name="Ldot" unicode="&#x13f;" horiz-adv-x="1073" 
d="M125 1290h178v-1143h719v-147h-897v1290zM725 586v192h178v-192h-178z" />
    <glyph glyph-name="ldot" unicode="&#x140;" horiz-adv-x="630" 
d="M117 1290h170v-1290h-170v1290zM420 551v192h178v-192h-178z" />
    <glyph glyph-name="Lslash" unicode="&#x141;" horiz-adv-x="1081" 
d="M154 1290h178v-602l373 168v-147l-373 -168v-394h719v-147h-897v469l-148 -66v150l148 65v672z" />
    <glyph glyph-name="lslash" unicode="&#x142;" horiz-adv-x="483" 
d="M158 1290h170v-473l137 82v-139l-137 -84v-676h-170v592l-140 -84v139l140 84v559z" />
    <glyph glyph-name="Nacute" unicode="&#x143;" horiz-adv-x="1306" 
d="M729 1384h-119l111 258h207zM309 1290l707 -987v987h166v-1290h-142l-749 1036v-1036h-166v1290h184z" />
    <glyph glyph-name="nacute" unicode="&#x144;" horiz-adv-x="1015" 
d="M578 1032h-119l110 258h207zM287 514v-514h-170v895h170v-160q32 82 114.5 133.5t182.5 51.5q113 0 187.5 -48.5t107 -128.5t32.5 -188v-555h-170v541q0 115 -54.5 179t-158.5 64q-103 0 -172 -74.5t-69 -195.5z" />
    <glyph glyph-name="Ncommaaccent" unicode="&#x145;" horiz-adv-x="1306" 
d="M578 -246v142h184v-111q0 -85 -42 -132.5t-142 -47.5v71q42 0 59.5 18t19.5 60h-79zM309 1290l707 -987v987h166v-1290h-142l-749 1036v-1036h-166v1290h184z" />
    <glyph glyph-name="ncommaaccent" unicode="&#x146;" horiz-adv-x="1015" 
d="M440 -246v142h185v-111q0 -180 -185 -180v71q42 0 60 18t20 60h-80zM287 514v-514h-170v895h170v-160q32 82 114.5 133.5t182.5 51.5q113 0 187.5 -48.5t107 -128.5t32.5 -188v-555h-170v541q0 115 -54.5 179t-158.5 64q-103 0 -172 -74.5t-69 -195.5z" />
    <glyph glyph-name="Ncaron" unicode="&#x147;" horiz-adv-x="1306" 
d="M768 1384h-197l-163 258h122l140 -151l139 151h123zM309 1290l707 -987v987h166v-1290h-142l-749 1036v-1036h-166v1290h184z" />
    <glyph glyph-name="ncaron" unicode="&#x148;" horiz-adv-x="1015" 
d="M618 1032h-196l-164 258h123l139 -153l139 153h123zM287 514v-514h-170v895h170v-160q32 82 114.5 133.5t182.5 51.5q113 0 187.5 -48.5t107 -128.5t32.5 -188v-555h-170v541q0 115 -54.5 179t-158.5 64q-103 0 -172 -74.5t-69 -195.5z" />
    <glyph glyph-name="Eng" unicode="&#x14a;" horiz-adv-x="1306" 
d="M557 -207l98 96q39 -55 86.5 -84.5t116.5 -29.5q90 0 124 54t34 189l-725 1018v-1036h-166v1290h184l707 -1003v1003h166v-1310q0 -180 -83.5 -264.5t-230.5 -84.5q-106 0 -187 44t-124 118z" />
    <glyph glyph-name="eng" unicode="&#x14b;" horiz-adv-x="1015" 
d="M741 -135v676q0 115 -54.5 179t-158.5 64q-103 0 -172 -74.5t-69 -195.5v-514h-170v895h170v-160q32 82 114.5 133.5t182.5 51.5q113 0 187.5 -48.5t107 -128.5t32.5 -188v-678q0 -120 -60 -183t-179 -63q-55 0 -108.5 18.5t-90.5 47.5l41 108q68 -45 139 -45
q88 0 88 105z" />
    <glyph glyph-name="Omacron" unicode="&#x14c;" horiz-adv-x="1411" 
d="M442 1399v129h531v-129h-531zM1348 645q0 -147 -47.5 -272t-132 -212.5t-203.5 -136.5t-258 -49q-283 0 -462 186.5t-179 483.5t179 483.5t462 186.5q139 0 258 -49t203.5 -136.5t132 -212.5t47.5 -272zM1163 645q0 237 -123.5 377.5t-332.5 140.5t-334 -141t-125 -377
t125 -377t334 -141t332.5 140.5t123.5 377.5z" />
    <glyph glyph-name="omacron" unicode="&#x14d;" horiz-adv-x="1032" 
d="M252 1055v131h526v-131h-526zM233 446q0 -153 74.5 -246.5t206.5 -93.5q134 0 209.5 93.5t75.5 246.5q0 154 -75.5 247t-209.5 93q-133 0 -207 -93t-74 -247zM973 446q0 -208 -130 -339.5t-329 -131.5q-198 0 -326.5 131.5t-128.5 339.5t128.5 341t326.5 133
q199 0 329 -133t130 -341z" />
    <glyph glyph-name="Obreve" unicode="&#x14e;" horiz-adv-x="1411" 
d="M707 1378q-114 0 -176 67t-62 197h119q0 -143 119 -143q118 0 118 143h119q0 -130 -61.5 -197t-175.5 -67zM1348 645q0 -147 -47.5 -272t-132 -212.5t-203.5 -136.5t-258 -49q-283 0 -462 186.5t-179 483.5t179 483.5t462 186.5q139 0 258 -49t203.5 -136.5t132 -212.5
t47.5 -272zM1163 645q0 237 -123.5 377.5t-332.5 140.5t-334 -141t-125 -377t125 -377t334 -141t332.5 140.5t123.5 377.5z" />
    <glyph glyph-name="obreve" unicode="&#x14f;" horiz-adv-x="1032" 
d="M233 446q0 -153 74.5 -246.5t206.5 -93.5q134 0 209.5 93.5t75.5 246.5q0 154 -75.5 247t-209.5 93q-133 0 -207 -93t-74 -247zM973 446q0 -208 -130 -339.5t-329 -131.5q-198 0 -326.5 131.5t-128.5 339.5t128.5 341t326.5 133q199 0 329 -133t130 -341zM514 1026
q-114 0 -176 67t-62 197h119q0 -143 119 -143t119 143h119q0 -130 -62 -197t-176 -67z" />
    <glyph glyph-name="Ohungarumlaut" unicode="&#x150;" horiz-adv-x="1411" 
d="M1348 645q0 -147 -47.5 -272t-132 -212.5t-203.5 -136.5t-258 -49q-283 0 -462 186.5t-179 483.5t179 483.5t462 186.5q139 0 258 -49t203.5 -136.5t132 -212.5t47.5 -272zM1163 645q0 237 -123.5 377.5t-332.5 140.5t-334 -141t-125 -377t125 -377t334 -141t332.5 140.5
t123.5 377.5zM631 1384h-107l105 258h194zM901 1384h-106l104 258h195z" />
    <glyph glyph-name="ohungarumlaut" unicode="&#x151;" horiz-adv-x="1032" 
d="M430 1032h-106l104 258h195zM700 1032h-106l104 258h195zM233 446q0 -153 74.5 -246.5t206.5 -93.5q134 0 209.5 93.5t75.5 246.5q0 154 -75.5 247t-209.5 93q-133 0 -207 -93t-74 -247zM973 446q0 -208 -130 -339.5t-329 -131.5q-198 0 -326.5 131.5t-128.5 339.5
t128.5 341t326.5 133q199 0 329 -133t130 -341z" />
    <glyph glyph-name="OE" unicode="&#x152;" horiz-adv-x="1947" 
d="M1870 147v-147h-1145q-306 0 -482.5 172t-176.5 473t176.5 473t482.5 172h1126v-147h-729v-406h580v-145h-580v-445h748zM950 1145h-215q-234 0 -360.5 -131.5t-126.5 -368.5t126.5 -368.5t360.5 -131.5h215v1000z" />
    <glyph glyph-name="oe" unicode="&#x153;" horiz-adv-x="1728" 
d="M1247 -25q-120 0 -215.5 48.5t-154.5 136.5q-134 -185 -363 -185q-198 0 -326.5 131.5t-128.5 339.5t128.5 341t326.5 133q116 0 211 -50.5t158 -140.5q60 90 152 140.5t204 50.5q138 0 237 -61.5t146 -161t47 -224.5v-67h-713q6 -130 89 -213.5t204 -83.5q219 0 275 208
l141 -16q-34 -154 -143 -240t-275 -86zM233 446q0 -153 74.5 -246.5t206.5 -93.5q134 0 209.5 93.5t75.5 246.5q0 154 -75.5 247t-209.5 93q-133 0 -207 -93t-74 -247zM961 516h534q-5 116 -70.5 195.5t-185.5 79.5q-116 0 -189 -79t-89 -196z" />
    <glyph glyph-name="Racute" unicode="&#x154;" horiz-adv-x="1226" 
d="M1153 0h-184q-39 55 -54 281q-13 239 -251 239h-365v-520h-174v1290h524q240 0 363 -102t123 -279q0 -142 -83 -224.5t-210 -96.5q226 -44 245 -279q13 -158 24.5 -217t41.5 -92zM299 662h340q163 0 240 60t77 181q0 114 -78.5 178t-238.5 64h-340v-483zM672 1384h-119
l111 258h206z" />
    <glyph glyph-name="racute" unicode="&#x155;" horiz-adv-x="677" 
d="M446 1032h-118l110 258h207zM668 879l-17 -154q-67 37 -139 37q-98 0 -161.5 -80.5t-63.5 -208.5v-473h-170v895h170v-182q27 84 95 145.5t159 61.5q80 0 127 -41z" />
    <glyph glyph-name="Rcommaaccent" unicode="&#x156;" horiz-adv-x="1226" 
d="M522 -246v142h185v-111q0 -180 -185 -180v71q42 0 60 18t20 60h-80zM1153 0h-184q-39 55 -54 281q-13 239 -251 239h-365v-520h-174v1290h524q240 0 363 -102t123 -279q0 -142 -83 -224.5t-210 -96.5q226 -44 245 -279q13 -158 24.5 -217t41.5 -92zM299 662h340
q163 0 240 60t77 181q0 114 -78.5 178t-238.5 64h-340v-483z" />
    <glyph glyph-name="rcommaaccent" unicode="&#x157;" horiz-adv-x="677" 
d="M109 -246v142h184v-111q0 -85 -42 -132.5t-142 -47.5v71q42 0 59.5 18t19.5 60h-79zM668 879l-17 -154q-67 37 -139 37q-98 0 -161.5 -80.5t-63.5 -208.5v-473h-170v895h170v-182q27 84 95 145.5t159 61.5q80 0 127 -41z" />
    <glyph glyph-name="Rcaron" unicode="&#x158;" horiz-adv-x="1226" 
d="M713 1384h-197l-164 258h123l139 -151l140 151h123zM1153 0h-184q-39 55 -54 281q-13 239 -251 239h-365v-520h-174v1290h524q240 0 363 -102t123 -279q0 -142 -83 -224.5t-210 -96.5q226 -44 245 -279q13 -158 24.5 -217t41.5 -92zM299 662h340q163 0 240 60t77 181
q0 114 -78.5 178t-238.5 64h-340v-483z" />
    <glyph glyph-name="rcaron" unicode="&#x159;" horiz-adv-x="677" 
d="M483 1032h-196l-164 258h123l139 -153l139 153h123zM668 879l-17 -154q-67 37 -139 37q-98 0 -161.5 -80.5t-63.5 -208.5v-473h-170v895h170v-182q27 84 95 145.5t159 61.5q80 0 127 -41z" />
    <glyph glyph-name="Sacute" unicode="&#x15a;" horiz-adv-x="1148" 
d="M45 461l160 10q7 -172 113.5 -264t275.5 -92q146 0 229.5 59t83.5 164q0 88 -58 136t-187 73l-256 49q-322 63 -322 340q0 170 125 274.5t336 104.5q242 0 376 -122t136 -341l-162 -8q-4 159 -96 246.5t-252 87.5q-138 0 -214.5 -62t-76.5 -170q0 -90 55.5 -131
t177.5 -65l234 -45q181 -34 267.5 -118.5t86.5 -236.5q0 -175 -134.5 -275t-348.5 -100q-244 0 -396.5 129t-152.5 357zM631 1384h-119l111 258h206z" />
    <glyph glyph-name="sacute" unicode="&#x15b;" horiz-adv-x="886" 
d="M498 1032h-119l110 258h207zM51 301l144 10q12 -102 81 -156.5t185 -54.5q93 0 150 34t57 99q0 60 -40.5 89t-129.5 45l-152 26q-132 21 -200 81t-68 171q0 123 94.5 199t249.5 76q179 0 280 -81.5t113 -236.5l-137 -8q-29 201 -256 201q-85 0 -135.5 -36t-50.5 -97
q0 -53 33.5 -83t103.5 -42l168 -27q143 -25 214.5 -84.5t71.5 -175.5q0 -130 -102 -202.5t-264 -72.5q-175 0 -286.5 83t-123.5 243z" />
    <glyph glyph-name="Scircumflex" unicode="&#x15c;" horiz-adv-x="1148" 
d="M45 461l160 10q7 -172 113.5 -264t275.5 -92q146 0 229.5 59t83.5 164q0 88 -58 136t-187 73l-256 49q-322 63 -322 340q0 170 125 274.5t336 104.5q242 0 376 -122t136 -341l-162 -8q-4 159 -96 246.5t-252 87.5q-138 0 -214.5 -62t-76.5 -170q0 -90 55.5 -131
t177.5 -65l234 -45q181 -34 267.5 -118.5t86.5 -236.5q0 -175 -134.5 -275t-348.5 -100q-244 0 -396.5 129t-152.5 357zM475 1642h197l164 -258h-123l-140 152l-139 -152h-123z" />
    <glyph glyph-name="scircumflex" unicode="&#x15d;" horiz-adv-x="886" 
d="M352 1290h197l164 -258h-123l-139 152l-140 -152h-123zM51 301l144 10q12 -102 81 -156.5t185 -54.5q93 0 150 34t57 99q0 60 -40.5 89t-129.5 45l-152 26q-132 21 -200 81t-68 171q0 123 94.5 199t249.5 76q179 0 280 -81.5t113 -236.5l-137 -8q-29 201 -256 201
q-85 0 -135.5 -36t-50.5 -97q0 -53 33.5 -83t103.5 -42l168 -27q143 -25 214.5 -84.5t71.5 -175.5q0 -130 -102 -202.5t-264 -72.5q-175 0 -286.5 83t-123.5 243z" />
    <glyph glyph-name="Scedilla" unicode="&#x15e;" horiz-adv-x="1148" 
d="M801 -209q0 -77 -65.5 -113t-164.5 -36q-68 0 -128 23t-97 54l35 66q86 -66 184 -66q103 0 103 62q0 28 -17.5 44.5t-44 19t-56.5 -3t-56 -17.5l-41 22l88 131q-224 14 -360 141t-136 343l160 10q7 -172 113.5 -264t275.5 -92q146 0 229.5 59t83.5 164q0 88 -58 136
t-187 73l-256 49q-322 63 -322 340q0 170 125 274.5t336 104.5q242 0 376 -122t136 -341l-162 -8q-4 159 -96 246.5t-252 87.5q-138 0 -214.5 -62t-76.5 -170q0 -90 55.5 -131t177.5 -65l234 -45q181 -34 267.5 -118.5t86.5 -236.5q0 -169 -127 -269t-332 -106l-51 -67
q60 13 112 8.5t87 -38t35 -87.5z" />
    <glyph glyph-name="scedilla" unicode="&#x15f;" horiz-adv-x="886" 
d="M680 -209q0 -77 -65.5 -113t-163.5 -36q-68 0 -129 23t-97 54l35 66q86 -66 184 -66q103 0 103 62q0 28 -17.5 44.5t-44 19t-56.5 -3t-56 -17.5l-41 22l88 131q-159 9 -259 91t-110 233l144 10q12 -102 81 -156.5t185 -54.5q93 0 150 34t57 99q0 60 -40.5 89t-129.5 45
l-152 26q-132 21 -200 81t-68 171q0 123 94.5 199t249.5 76q179 0 280 -81.5t113 -236.5l-137 -8q-29 201 -256 201q-85 0 -135.5 -36t-50.5 -97q0 -53 33.5 -83t103.5 -42l168 -27q143 -25 214.5 -84.5t71.5 -175.5q0 -122 -91 -193.5t-238 -79.5l-52 -69q60 13 112 8.5
t87 -38t35 -87.5z" />
    <glyph glyph-name="Scaron" unicode="&#x160;" horiz-adv-x="1148" 
d="M45 461l160 10q7 -172 113.5 -264t275.5 -92q146 0 229.5 59t83.5 164q0 88 -58 136t-187 73l-256 49q-322 63 -322 340q0 170 125 274.5t336 104.5q242 0 376 -122t136 -341l-162 -8q-4 159 -96 246.5t-252 87.5q-138 0 -214.5 -62t-76.5 -170q0 -90 55.5 -131
t177.5 -65l234 -45q181 -34 267.5 -118.5t86.5 -236.5q0 -175 -134.5 -275t-348.5 -100q-244 0 -396.5 129t-152.5 357zM672 1384h-197l-164 258h123l139 -151l140 151h123z" />
    <glyph glyph-name="scaron" unicode="&#x161;" horiz-adv-x="886" 
d="M543 1032h-197l-164 258h123l139 -153l140 153h123zM51 301l144 10q12 -102 81 -156.5t185 -54.5q93 0 150 34t57 99q0 60 -40.5 89t-129.5 45l-152 26q-132 21 -200 81t-68 171q0 123 94.5 199t249.5 76q179 0 280 -81.5t113 -236.5l-137 -8q-29 201 -256 201
q-85 0 -135.5 -36t-50.5 -97q0 -53 33.5 -83t103.5 -42l168 -27q143 -25 214.5 -84.5t71.5 -175.5q0 -130 -102 -202.5t-264 -72.5q-175 0 -286.5 83t-123.5 243z" />
    <glyph glyph-name="Tcedilla" unicode="&#x162;" horiz-adv-x="1208" 
d="M512 -246v142h184v-111q0 -85 -42 -132.5t-142 -47.5v71q42 0 60 18t20 60h-80zM688 0h-176v1143h-469v147h1122v-147h-477v-1143z" />
    <glyph glyph-name="tcedilla" unicode="&#x163;" horiz-adv-x="626" 
d="M279 -246v142h184v-111q0 -85 -42 -132.5t-142 -47.5v71q42 0 59.5 18t19.5 60h-79zM147 209v563h-135v92l58 10q59 11 83 42t40 102l26 125h96v-248h252v-123h-252v-543q0 -60 26.5 -88t84.5 -28q75 0 168 53v-115q-102 -76 -229 -76q-218 0 -218 234z" />
    <glyph glyph-name="Tcaron" unicode="&#x164;" horiz-adv-x="1208" 
d="M702 1384h-196l-164 258h123l139 -151l139 151h123zM688 0h-176v1143h-469v147h1122v-147h-477v-1143z" />
    <glyph glyph-name="tcaron" unicode="&#x165;" horiz-adv-x="626" 
d="M543 1020h-97l31 270h189zM147 209v563h-135v92l58 10q59 11 83 42t40 102l26 125h96v-248h252v-123h-252v-543q0 -60 26.5 -88t84.5 -28q75 0 168 53v-115q-102 -76 -229 -76q-218 0 -218 234z" />
    <glyph glyph-name="Tbar" unicode="&#x166;" horiz-adv-x="1208" 
d="M233 586v143h279v414h-469v147h1122v-147h-477v-414h281v-143h-281v-586h-176v586h-279z" />
    <glyph glyph-name="tbar" unicode="&#x167;" horiz-adv-x="653" 
d="M31 434v115h135v223h-135v92l57 10q59 11 83 42t40 102l27 125h96v-248h252v-123h-252v-223h235v-115h-235v-205q0 -60 26 -88t84 -28q75 0 168 53v-115q-102 -76 -229 -76q-217 0 -217 234v225h-135z" />
    <glyph glyph-name="Utilde" unicode="&#x168;" horiz-adv-x="1261" 
d="M434 1382h-102q0 115 43.5 180.5t126.5 65.5q37 0 74.5 -18.5t63 -41t57 -41t57.5 -18.5q40 0 56 27t19 86h103q0 -114 -43 -180t-127 -66q-37 0 -74.5 18.5t-63 41t-57 41t-57.5 18.5q-39 0 -56 -27.5t-20 -85.5zM631 -25q-113 0 -205 29t-164.5 88.5t-112.5 162
t-40 239.5v796h176v-798q0 -183 88 -275t258 -92q171 0 260.5 91.5t89.5 272.5v801h174v-796q0 -137 -40.5 -239.5t-113 -162t-165 -88.5t-205.5 -29z" />
    <glyph glyph-name="utilde" unicode="&#x169;" horiz-adv-x="1005" 
d="M719 381v514h170v-895h-170v158q-33 -81 -113 -132t-180 -51q-166 0 -243 97.5t-77 265.5v557h170v-541q0 -116 52 -180.5t155 -64.5q102 0 169 75t67 197zM307 1036h-102q0 113 43.5 179.5t126.5 66.5q37 0 74.5 -18.5t63 -41t57 -41t57.5 -18.5q40 0 56 27t19 86h103
q0 -116 -43 -181t-127 -65q-37 0 -74.5 18.5t-63 41t-57 41t-57.5 18.5q-39 0 -56 -27.5t-20 -85.5z" />
    <glyph glyph-name="Umacron" unicode="&#x16a;" horiz-adv-x="1261" 
d="M367 1399v129h530v-129h-530zM631 -25q-113 0 -205 29t-164.5 88.5t-112.5 162t-40 239.5v796h176v-798q0 -183 88 -275t258 -92q171 0 260.5 91.5t89.5 272.5v801h174v-796q0 -137 -40.5 -239.5t-113 -162t-165 -88.5t-205.5 -29z" />
    <glyph glyph-name="umacron" unicode="&#x16b;" horiz-adv-x="1005" 
d="M719 381v514h170v-895h-170v158q-33 -81 -113 -132t-180 -51q-166 0 -243 97.5t-77 265.5v557h170v-541q0 -116 52 -180.5t155 -64.5q102 0 169 75t67 197zM242 1055v131h526v-131h-526z" />
    <glyph glyph-name="Ubreve" unicode="&#x16c;" horiz-adv-x="1261" 
d="M631 1378q-114 0 -176 67t-62 197h119q0 -143 119 -143t119 143h118q0 -130 -61.5 -197t-175.5 -67zM631 -25q-113 0 -205 29t-164.5 88.5t-112.5 162t-40 239.5v796h176v-798q0 -183 88 -275t258 -92q171 0 260.5 91.5t89.5 272.5v801h174v-796q0 -137 -40.5 -239.5
t-113 -162t-165 -88.5t-205.5 -29z" />
    <glyph glyph-name="ubreve" unicode="&#x16d;" horiz-adv-x="1005" 
d="M719 381v514h170v-895h-170v158q-33 -81 -113 -132t-180 -51q-166 0 -243 97.5t-77 265.5v557h170v-541q0 -116 52 -180.5t155 -64.5q102 0 169 75t67 197zM504 1026q-114 0 -176 67t-62 197h119q0 -143 119 -143t119 143h118q0 -130 -61.5 -197t-175.5 -67z" />
    <glyph glyph-name="Uring" unicode="&#x16e;" horiz-adv-x="1261" 
d="M631 -25q-113 0 -205 29t-164.5 88.5t-112.5 162t-40 239.5v796h176v-798q0 -183 88 -275t258 -92q171 0 260.5 91.5t89.5 272.5v801h174v-796q0 -137 -40.5 -239.5t-113 -162t-165 -88.5t-205.5 -29zM543 1524q0 -41 23 -65.5t65 -24.5t65 24.5t23 65.5q0 39 -23 63.5
t-65 24.5t-65 -24.5t-23 -63.5zM451 1524q0 73 50 122.5t130 49.5t130 -49.5t50 -122.5q0 -75 -50 -124.5t-130 -49.5t-130 49.5t-50 124.5z" />
    <glyph glyph-name="uring" unicode="&#x16f;" horiz-adv-x="1005" 
d="M416 1171q0 -41 23 -65.5t65 -24.5t65 24.5t23 65.5q0 39 -23 64t-65 25t-65 -25t-23 -64zM324 1171q0 73 50 122.5t130 49.5t130 -49.5t50 -122.5q0 -75 -50 -124.5t-130 -49.5t-130 49.5t-50 124.5zM719 381v514h170v-895h-170v158q-33 -81 -113 -132t-180 -51
q-166 0 -243 97.5t-77 265.5v557h170v-541q0 -116 52 -180.5t155 -64.5q102 0 169 75t67 197z" />
    <glyph glyph-name="Uhungarumlaut" unicode="&#x170;" horiz-adv-x="1261" 
d="M631 -25q-113 0 -205 29t-164.5 88.5t-112.5 162t-40 239.5v796h176v-798q0 -183 88 -275t258 -92q171 0 260.5 91.5t89.5 272.5v801h174v-796q0 -137 -40.5 -239.5t-113 -162t-165 -88.5t-205.5 -29zM557 1384h-106l104 258h195zM827 1384h-106l104 258h195z" />
    <glyph glyph-name="uhungarumlaut" unicode="&#x171;" horiz-adv-x="1005" 
d="M719 381v514h170v-895h-170v158q-33 -81 -113 -132t-180 -51q-166 0 -243 97.5t-77 265.5v557h170v-541q0 -116 52 -180.5t155 -64.5q102 0 169 75t67 197zM418 1032h-107l105 258h194zM688 1032h-106l104 258h195z" />
    <glyph glyph-name="Uogonek" unicode="&#x172;" horiz-adv-x="1261" 
d="M631 -25q-113 0 -205 29t-164.5 88.5t-112.5 162t-40 239.5v796h176v-798q0 -183 88 -275t258 -92q171 0 260.5 91.5t89.5 272.5v801h174v-796q0 -361 -270 -474q-91 -78 -126.5 -122t-35.5 -88q0 -62 74 -62q40 0 108 33v-94q-68 -45 -153 -45q-70 0 -113 35.5
t-43 101.5q0 97 129 203q-54 -7 -94 -7z" />
    <glyph glyph-name="uogonek" unicode="&#x173;" horiz-adv-x="1005" 
d="M719 381v514h170v-895q-100 -64 -138 -105.5t-38 -84.5q0 -62 73 -62q41 0 109 33v-94q-68 -45 -154 -45q-70 0 -112.5 35.5t-42.5 101.5q0 61 40.5 114t112.5 107l-20 4v154q-33 -81 -113 -132t-180 -51q-166 0 -243 97.5t-77 265.5v557h170v-541q0 -116 52 -180.5
t155 -64.5q102 0 169 75t67 197z" />
    <glyph glyph-name="Wcircumflex" unicode="&#x174;" horiz-adv-x="1671" 
d="M922 1290l286 -1073h9l264 1073h166l-330 -1290h-207l-268 1030h-8l-275 -1030h-205l-329 1290h172l270 -1069h8l281 1069h166zM737 1642h197l164 -258h-123l-139 152l-140 -152h-123z" />
    <glyph glyph-name="wcircumflex" unicode="&#x175;" horiz-adv-x="1314" 
d="M559 1290h197l164 -258h-123l-140 152l-139 -152h-123zM735 895l193 -678h8l207 678h157l-284 -895h-164l-190 668h-9l-188 -668h-164l-287 895h170l211 -678h8l189 678h143z" />
    <glyph glyph-name="Ycircumflex" unicode="&#x176;" horiz-adv-x="1224" 
d="M623 672l389 618h188l-502 -784v-506h-170v506l-503 784h194zM514 1642h197l163 -258h-122l-140 152l-139 -152h-123z" />
    <glyph glyph-name="ycircumflex" unicode="&#x177;" horiz-adv-x="942" 
d="M412 -344h-166l145 346l-377 893h179l284 -688h8l275 688h168zM373 1290h196l164 -258h-123l-139 152l-139 -152h-123z" />
    <glyph glyph-name="Ydieresis" unicode="&#x178;" horiz-adv-x="1224" 
d="M623 672l389 618h188l-502 -784v-506h-170v506l-503 784h194zM389 1395v192h168v-192h-168zM672 1395v192h166v-192h-166z" />
    <glyph glyph-name="Zacute" unicode="&#x179;" horiz-adv-x="1146" 
d="M287 147h798v-147h-1024v125l779 1018h-768v147h993v-131zM651 1384h-119l111 258h207z" />
    <glyph glyph-name="zacute" unicode="&#x17a;" horiz-adv-x="876" 
d="M510 1032h-119l111 258h207zM588 764h-510v131h727v-117l-537 -647h549v-131h-756v117z" />
    <glyph glyph-name="Zdotaccent" unicode="&#x17b;" horiz-adv-x="1146" 
d="M504 1395v192h178v-192h-178zM287 147h798v-147h-1024v125l779 1018h-768v147h993v-131z" />
    <glyph glyph-name="zdotaccent" unicode="&#x17c;" horiz-adv-x="876" 
d="M588 764h-510v131h727v-117l-537 -647h549v-131h-756v117zM360 1098v192h179v-192h-179z" />
    <glyph glyph-name="Zcaron" unicode="&#x17d;" horiz-adv-x="1146" 
d="M690 1384h-196l-164 258h123l139 -151l139 151h123zM287 147h798v-147h-1024v125l779 1018h-768v147h993v-131z" />
    <glyph glyph-name="zcaron" unicode="&#x17e;" horiz-adv-x="876" 
d="M547 1032h-197l-164 258h123l140 -153l139 153h123zM588 764h-510v131h727v-117l-537 -647h549v-131h-756v117z" />
    <glyph glyph-name="florin" unicode="&#x192;" horiz-adv-x="845" 
d="M575 995l-47 -225h207v-125h-233l-119 -571q-58 -285 -299 -285q-26 0 -84 8v129q30 -6 53 -6q72 0 111 46t59 140l111 539h-160v125h186l54 258q27 128 105.5 205.5t197.5 77.5q34 0 100 -15v-125q-56 9 -67 9q-72 0 -113.5 -47t-61.5 -138z" />
    <glyph glyph-name="Aringacute" unicode="&#x1fa;" horiz-adv-x="1306" 
d="M551 1290h194l537 -1290h-188l-156 379h-588l-151 -379h-174zM637 1094l-231 -574h475l-236 574h-8zM469 1501q0 70 50 117t130 47q82 0 132 -47t50 -117t-50 -116t-132 -46q-81 0 -130.5 46t-49.5 116zM711 1708h-119l84 199h207zM561 1501q0 -38 22.5 -60t65.5 -22
t66.5 22t23.5 60t-23.5 60t-66.5 22t-65.5 -22t-22.5 -60z" />
    <glyph glyph-name="aringacute" unicode="&#x1fb;" horiz-adv-x="1001" 
d="M553 1346h-119l84 200h207zM401 1128q0 -37 23 -59t65 -22q45 0 69 21.5t24 59.5t-24 60t-69 22q-42 0 -65 -22t-23 -60zM311 1128q0 70 50 117t128 47q82 0 132.5 -47t50.5 -117t-50.5 -115.5t-132.5 -45.5q-79 0 -128.5 45.5t-49.5 115.5zM674 399v43l-201 -43
q-50 -11 -79 -19t-62 -21.5t-50 -29t-28.5 -40t-11.5 -56.5q0 -59 39.5 -96t113.5 -37q120 0 199.5 83t79.5 216zM838 578v-402q0 -70 69 -70q41 0 78 21v-92q-53 -53 -137 -53q-69 0 -114.5 48t-53.5 128q-37 -80 -126 -131.5t-196 -51.5q-131 0 -208.5 66.5t-77.5 181.5
q0 62 25 109.5t75 80t112 54.5t148 39l242 49v35q0 93 -52 145.5t-145 52.5q-178 0 -225 -180l-152 21q27 131 126.5 211t252.5 80q171 0 265 -87t94 -255z" />
    <glyph glyph-name="AEacute" unicode="&#x1fc;" horiz-adv-x="2004" 
d="M905 1290h1004v-147h-729v-406h579v-145h-579v-445h747v-147h-919v389h-531l-264 -389h-188zM999 1155l-426 -625h435v625h-9zM1421 1384h-118l110 258h207z" />
    <glyph glyph-name="aeacute" unicode="&#x1fd;" horiz-adv-x="1589" 
d="M860 1032h-119l111 258h207zM473 920q224 0 299 -160q57 74 143 117t185 43q138 0 236.5 -61.5t145 -161t46.5 -224.5v-67h-713q9 -138 92.5 -217.5t202.5 -79.5q221 0 274 210l142 -16q-32 -154 -142.5 -241t-275.5 -87q-254 0 -373 207q-44 -88 -136 -147.5t-218 -59.5
q-146 0 -227.5 67.5t-81.5 184.5q0 289 460 289h148v59q0 102 -54 157.5t-149 55.5q-92 0 -150 -48.5t-79 -129.5l-146 21q25 129 125 209t246 80zM399 98q116 0 198.5 74.5t82.5 204.5v29h-141q-165 0 -231 -41t-66 -127q0 -62 40.5 -101t116.5 -39zM1100 791
q-108 0 -185 -76t-96 -199h537q-7 117 -72 196t-184 79z" />
    <glyph glyph-name="Oslashacute" unicode="&#x1fe;" horiz-adv-x="1411" 
d="M1348 645q0 -147 -47.5 -272t-132 -212.5t-203.5 -136.5t-258 -49q-214 0 -373 109l-121 -152l-94 72l125 158q-178 184 -178 483q0 297 179 483.5t462 186.5q212 0 372 -113l111 137l94 -71l-115 -142q179 -189 179 -481zM248 645q0 -214 102 -350l629 782
q-113 86 -272 86q-209 0 -334 -141t-125 -377zM1163 645q0 206 -100 346l-629 -780q113 -84 273 -84q209 0 332.5 140.5t123.5 377.5zM764 1384h-119l111 258h207z" />
    <glyph glyph-name="oslashacute" unicode="&#x1ff;" horiz-adv-x="1032" 
d="M973 446q0 -208 -130 -339.5t-329 -131.5q-152 0 -262 78l-102 -121l-80 66l104 123q-115 127 -115 325q0 208 128.5 341t326.5 133q147 0 266 -82l105 123l80 -64l-107 -127q115 -131 115 -324zM229 446q0 -121 47 -204l412 487q-69 57 -174 57q-134 0 -209.5 -93
t-75.5 -247zM803 446q0 120 -47 203l-412 -487q72 -56 170 -56q135 0 212 94t77 246zM578 1032h-119l110 258h207z" />
    <glyph glyph-name="Scommaaccent" unicode="&#x218;" horiz-adv-x="1148" 
d="M481 -246v142h185v-111q0 -180 -185 -180v71q42 0 60 18t20 60h-80zM45 461l160 10q7 -172 113.5 -264t275.5 -92q146 0 229.5 59t83.5 164q0 88 -58 136t-187 73l-256 49q-322 63 -322 340q0 170 125 274.5t336 104.5q242 0 376 -122t136 -341l-162 -8q-4 159 -96 246.5
t-252 87.5q-138 0 -214.5 -62t-76.5 -170q0 -90 55.5 -131t177.5 -65l234 -45q181 -34 267.5 -118.5t86.5 -236.5q0 -175 -134.5 -275t-348.5 -100q-244 0 -396.5 129t-152.5 357z" />
    <glyph glyph-name="scommaaccent" unicode="&#x219;" horiz-adv-x="886" 
d="M369 -246v142h184v-111q0 -85 -42 -132.5t-142 -47.5v71q42 0 60 18t20 60h-80zM51 301l144 10q12 -102 81 -156.5t185 -54.5q93 0 150 34t57 99q0 60 -40.5 89t-129.5 45l-152 26q-132 21 -200 81t-68 171q0 123 94.5 199t249.5 76q179 0 280 -81.5t113 -236.5l-137 -8
q-29 201 -256 201q-85 0 -135.5 -36t-50.5 -97q0 -53 33.5 -83t103.5 -42l168 -27q143 -25 214.5 -84.5t71.5 -175.5q0 -130 -102 -202.5t-264 -72.5q-175 0 -286.5 83t-123.5 243z" />
    <glyph glyph-name="uni0237" unicode="&#x237;" horiz-adv-x="401" 
d="M287 895v-1018q0 -120 -60.5 -183t-179.5 -63q-55 0 -108.5 18.5t-90.5 47.5l41 108q68 -45 140 -45q88 0 88 105v1030h170z" />
    <glyph glyph-name="circumflex" unicode="&#x2c6;" 
d="M414 1290h196l164 -258h-123l-139 152l-139 -152h-123z" />
    <glyph glyph-name="caron" unicode="&#x2c7;" 
d="M610 1032h-196l-164 258h123l139 -153l139 153h123z" />
    <glyph glyph-name="breve" unicode="&#x2d8;" 
d="M512 1026q-114 0 -176 67t-62 197h119q0 -143 119 -143t119 143h119q0 -130 -62 -197t-176 -67z" />
    <glyph glyph-name="dotaccent" unicode="&#x2d9;" 
d="M422 1098v192h178v-192h-178z" />
    <glyph glyph-name="ring" unicode="&#x2da;" 
d="M424 1171q0 -41 23 -65.5t65 -24.5t65 24.5t23 65.5q0 39 -23 64t-65 25t-65 -25t-23 -64zM332 1171q0 73 50 122.5t130 49.5t130 -49.5t50 -122.5q0 -75 -50 -124.5t-130 -49.5t-130 49.5t-50 124.5z" />
    <glyph glyph-name="ogonek" unicode="&#x2db;" 
d="M543 25h106q-94 -82 -130 -126.5t-36 -88.5q0 -62 74 -62q41 0 109 33v-94q-68 -45 -154 -45q-70 0 -113 35.5t-43 101.5q0 35 14.5 68.5t44 65.5t57.5 56t71 56z" />
    <glyph glyph-name="tilde" unicode="&#x2dc;" 
d="M313 1036h-102q0 113 43.5 179.5t126.5 66.5q37 0 74.5 -18.5t63 -41t57 -41t57.5 -18.5q40 0 56.5 27.5t19.5 85.5h102q0 -116 -43 -181t-127 -65q-37 0 -74.5 18.5t-63 41t-57 41t-57.5 18.5q-39 0 -56 -27.5t-20 -85.5z" />
    <glyph glyph-name="hungarumlaut" unicode="&#x2dd;" 
d="M334 1032h-107l105 258h194zM604 1032h-106l104 258h195z" />
    <glyph glyph-name="Wgrave" unicode="&#x1e80;" horiz-adv-x="1671" 
d="M913 1384h-118l-199 258h207zM922 1290l286 -1073h9l264 1073h166l-330 -1290h-207l-268 1030h-8l-275 -1030h-205l-329 1290h172l270 -1069h8l281 1069h166z" />
    <glyph glyph-name="wgrave" unicode="&#x1e81;" horiz-adv-x="1314" 
d="M735 895l193 -678h8l207 678h157l-284 -895h-164l-190 668h-9l-188 -668h-164l-287 895h170l211 -678h8l189 678h143zM731 1032h-119l-198 258h207z" />
    <glyph glyph-name="Wacute" unicode="&#x1e82;" horiz-adv-x="1671" 
d="M895 1384h-119l111 258h207zM922 1290l286 -1073h9l264 1073h166l-330 -1290h-207l-268 1030h-8l-275 -1030h-205l-329 1290h172l270 -1069h8l281 1069h166z" />
    <glyph glyph-name="wacute" unicode="&#x1e83;" horiz-adv-x="1314" 
d="M719 1032h-119l111 258h207zM735 895l193 -678h8l207 678h157l-284 -895h-164l-190 668h-9l-188 -668h-164l-287 895h170l211 -678h8l189 678h143z" />
    <glyph glyph-name="Wdieresis" unicode="&#x1e84;" horiz-adv-x="1671" 
d="M612 1395v192h168v-192h-168zM895 1395v192h166v-192h-166zM922 1290l286 -1073h9l264 1073h166l-330 -1290h-207l-268 1030h-8l-275 -1030h-205l-329 1290h172l270 -1069h8l281 1069h166z" />
    <glyph glyph-name="wdieresis" unicode="&#x1e85;" horiz-adv-x="1314" 
d="M434 1081v193h168v-193h-168zM717 1081v193h166v-193h-166zM735 895l193 -678h8l207 678h157l-284 -895h-164l-190 668h-9l-188 -668h-164l-287 895h170l211 -678h8l189 678h143z" />
    <glyph glyph-name="Ygrave" unicode="&#x1ef2;" horiz-adv-x="1224" 
d="M623 672l389 618h188l-502 -784v-506h-170v506l-503 784h194zM690 1384h-119l-198 258h207z" />
    <glyph glyph-name="ygrave" unicode="&#x1ef3;" horiz-adv-x="942" 
d="M412 -344h-166l145 346l-377 893h179l284 -688h8l275 688h168zM545 1032h-119l-199 258h207z" />
    <glyph glyph-name="endash" unicode="&#x2013;" 
d="M117 459v125h790v-125h-790z" />
    <glyph glyph-name="emdash" unicode="&#x2014;" horiz-adv-x="2048" 
d="M117 459v125h1814v-125h-1814z" />
    <glyph glyph-name="quoteleft" unicode="&#x2018;" horiz-adv-x="358" 
d="M281 1087v-194h-203v190q0 116 42.5 171t160.5 55v-99q-58 -4 -77.5 -29.5t-19.5 -93.5h97z" />
    <glyph glyph-name="quoteright" unicode="&#x2019;" horiz-adv-x="358" 
d="M78 1096v194h203v-192q0 -116 -42.5 -170.5t-160.5 -55.5v101q58 4 77 29.5t19 93.5h-96z" />
    <glyph glyph-name="quotesinglbase" unicode="&#x201a;" horiz-adv-x="358" 
d="M78 0v195h203v-193q0 -114 -42.5 -169t-160.5 -56v100q58 4 77 29.5t19 93.5h-96z" />
    <glyph glyph-name="quotedblleft" unicode="&#x201c;" horiz-adv-x="661" 
d="M281 1087v-194h-203v190q0 116 42.5 171t160.5 55v-99q-58 -4 -77.5 -29.5t-19.5 -93.5h97zM584 1087v-194h-203v190q0 116 43.5 171t159.5 55v-99q-57 -4 -77 -29.5t-20 -93.5h97z" />
    <glyph glyph-name="quotedblright" unicode="&#x201d;" horiz-adv-x="661" 
d="M381 1096v194h203v-192q0 -116 -42.5 -170.5t-160.5 -55.5v101q58 4 77 29.5t19 93.5h-96zM78 1096v194h203v-192q0 -116 -42.5 -170.5t-160.5 -55.5v101q58 4 77 29.5t19 93.5h-96z" />
    <glyph glyph-name="quotedblbase" unicode="&#x201e;" horiz-adv-x="661" 
d="M381 0v195h203v-193q0 -114 -42.5 -169t-160.5 -56v100q58 4 77 29.5t19 93.5h-96zM78 0v195h203v-193q0 -114 -42.5 -169t-160.5 -56v100q58 4 77 29.5t19 93.5h-96z" />
    <glyph glyph-name="dagger" unicode="&#x2020;" horiz-adv-x="641" 
d="M45 989v119h215v201h123v-201h213v-119h-213v-467h-123v467h-215z" />
    <glyph glyph-name="daggerdbl" unicode="&#x2021;" horiz-adv-x="661" 
d="M55 715v114h215v175h-215v112h215v193h121v-193h215v-112h-215v-175h215v-114h-215v-193h-121v193h-215z" />
    <glyph glyph-name="bullet" unicode="&#x2022;" horiz-adv-x="684" 
d="M590 524q0 -108 -72 -178t-178 -70q-104 0 -175 70t-71 178q0 106 71 177t175 71q105 0 177.5 -71t72.5 -177z" />
    <glyph glyph-name="ellipsis" unicode="&#x2026;" horiz-adv-x="1079" 
d="M78 0v205h205v-205h-205zM438 0v205h205v-205h-205zM797 0v205h204v-205h-204z" />
    <glyph glyph-name="perthousand" unicode="&#x2030;" horiz-adv-x="2174" 
d="M203 975q0 -227 155 -227q158 0 158 227t-158 227q-155 0 -155 -227zM57 975q0 156 85.5 248t215.5 92q131 0 217.5 -92t86.5 -248t-86.5 -248t-217.5 -92q-130 0 -215.5 92t-85.5 248zM1296 315q0 228 -155 228q-156 0 -156 -228q0 -227 156 -227q155 0 155 227z
M1444 315q0 -156 -86.5 -248t-216.5 -92t-216.5 92t-86.5 248t86.5 248t216.5 92t216.5 -92t86.5 -248zM1978 315q0 228 -155 228q-156 0 -156 -228q0 -227 156 -227q155 0 155 227zM2126 315q0 -156 -86 -248t-217 -92q-130 0 -215.5 92t-85.5 248t85.5 248t215.5 92
q131 0 217 -92t86 -248zM1149 1290l-660 -1290h-139l662 1290h137z" />
    <glyph glyph-name="guilsinglleft" unicode="&#x2039;" horiz-adv-x="495" 
d="M94 379v135l307 264v-166l-190 -166l190 -163v-168z" />
    <glyph glyph-name="guilsinglright" unicode="&#x203a;" horiz-adv-x="495" 
d="M401 514v-135l-307 -264v168l191 163l-191 166v166z" />
    <glyph glyph-name="fraction" unicode="&#x2044;" horiz-adv-x="1003" 
d="M991 1290l-831 -1290h-140l832 1290h139z" />
    <glyph glyph-name="Euro" unicode="&#x20ac;" horiz-adv-x="1255" 
d="M31 459v110h123q-2 25 -2 76q0 47 2 70h-123v110h135q40 227 176.5 358.5t341.5 131.5q226 0 358 -149.5t146 -389.5l-166 -8q-11 177 -97.5 287t-240.5 110q-139 0 -225.5 -89t-116.5 -251h395l-20 -110h-387q-2 -23 -2 -70q0 -51 2 -76h368l-20 -110h-334
q30 -159 116 -246.5t224 -87.5q156 0 241 106t97 291l166 -8q-10 -159 -70.5 -279.5t-172 -190t-261.5 -69.5q-204 0 -340 129.5t-176 354.5h-137z" />
    <glyph glyph-name="uni2117" unicode="&#x2117;" horiz-adv-x="1482" 
d="M72 645q0 190 90 344.5t243 240t336 85.5t336 -85.5t243.5 -240t90.5 -344.5t-90.5 -344.5t-243.5 -240t-336 -85.5t-336 85.5t-243 240t-90 344.5zM168 645q0 -163 77.5 -295.5t208.5 -206t287 -73.5t287.5 73.5t209 206t77.5 295.5t-77.5 296t-209 206.5t-287.5 73.5
t-287 -73.5t-208.5 -206.5t-77.5 -296zM621 643h153q182 0 182 135t-182 135h-153v-270zM621 530v-270h-134v766h308q142 0 219.5 -68t77.5 -180t-77.5 -180t-219.5 -68h-174z" />
    <glyph glyph-name="trademark" unicode="&#x2122;" horiz-adv-x="1292" 
d="M340 758h-115v434h-184v98h487v-98h-188v-434zM922 758h-91l-129 420h-4v-420h-104v532h172l115 -391h4l114 391h166v-532h-112v420h-4z" />
    <glyph glyph-name="uni2153" unicode="&#x2153;" horiz-adv-x="1505" 
d="M55 1079v95q82 0 124.5 28t64.5 92h104v-798h-143v583h-150zM1294 223q0 58 -41 90.5t-108 32.5q-34 0 -70 -4v111q14 -2 70 -2q60 0 97.5 28t37.5 90q0 57 -35.5 91t-103.5 34q-72 0 -114 -47t-42 -129l-139 4q0 127 81 208t218 81q132 0 206 -62.5t74 -166.5
q0 -71 -44.5 -121.5t-104.5 -59.5q75 -11 121.5 -62t46.5 -126q0 -104 -80.5 -165.5t-214.5 -61.5q-147 0 -231 76t-84 208l141 -4q3 -81 49 -122.5t125 -41.5q66 0 105.5 32t39.5 89zM1143 1290l-832 -1290h-139l832 1290h139z" />
    <glyph glyph-name="uni2154" unicode="&#x2154;" horiz-adv-x="1740" 
d="M1532 223q0 58 -42 90.5t-110 32.5q-29 0 -69 -4v111q16 -2 71 -2q59 0 97.5 28.5t38.5 89.5q0 57 -36.5 91t-103.5 34q-72 0 -113.5 -47t-41.5 -129l-140 4q0 127 80.5 208t216.5 81q133 0 208 -62.5t75 -166.5q0 -70 -45 -121t-105 -60q74 -11 120 -61.5t46 -126.5
q0 -104 -80 -165.5t-215 -61.5q-146 0 -229.5 76t-83.5 208l141 -4q3 -81 48.5 -122.5t123.5 -41.5q66 0 107 32t41 89zM276 614h377v-122h-594v94l224 186q107 89 152.5 146.5t45.5 128.5q0 63 -33 99t-100 36q-69 0 -106 -43t-37 -119q0 -32 10 -70l-145 6q-9 56 -9 74
q0 124 80 198.5t211 74.5q136 0 208.5 -69.5t72.5 -178.5q0 -51 -17 -97t-52 -88.5t-68 -74t-86 -74.5zM1380 1290l-831 -1290h-141l831 1290h141z" />
    <glyph glyph-name="uni215B" unicode="&#x215b;" horiz-adv-x="1529" 
d="M55 1079v95q82 0 124.5 28t64.5 92h104v-798h-143v583h-150zM1159 705q-64 0 -101.5 -32.5t-37.5 -94.5q0 -59 37.5 -91t101.5 -32q66 0 105 32t39 91q0 62 -39 94.5t-105 32.5zM1159 352q-77 0 -119.5 -32.5t-42.5 -94.5q0 -63 42.5 -97t119.5 -34q78 0 121 34t43 97
q0 62 -42.5 94.5t-121.5 32.5zM1159 -14q-145 0 -227 61t-82 166q0 74 45 126t113 64q-131 51 -131 187q0 101 78.5 161t203.5 60q126 0 205.5 -60t79.5 -161q0 -133 -131 -187q67 -12 111 -64t44 -126q0 -105 -81.5 -166t-227.5 -61zM1143 1290l-832 -1290h-139l832 1290
h139z" />
    <glyph glyph-name="uni215C" unicode="&#x215c;" horiz-adv-x="1753" 
d="M1382 705q-65 0 -103 -32.5t-38 -94.5q0 -59 38.5 -91t102.5 -32q66 0 104 32t38 91q0 62 -38 94.5t-104 32.5zM1382 352q-77 0 -119 -32.5t-42 -94.5q0 -63 42 -97t119 -34t119.5 34t42.5 97q0 62 -42.5 94.5t-119.5 32.5zM1382 -14q-145 0 -228 61t-83 166q0 74 46 126
t114 64q-131 51 -131 187q0 101 78.5 161t203.5 60t204 -60t79 -161q0 -134 -131 -187q68 -12 113 -64t45 -126q0 -105 -82.5 -166t-227.5 -61zM518 717q0 58 -41 89.5t-108 31.5q-52 0 -70 -2v110q14 -2 70 -2q59 0 97 28.5t38 88.5q0 59 -35 93t-104 34q-72 0 -114 -47
t-42 -129l-139 4q0 127 81 208t218 81q132 0 206 -63t74 -167q0 -72 -44 -121t-105 -59q75 -11 121.5 -62t46.5 -126q0 -104 -80.5 -166t-214.5 -62q-147 0 -231.5 76.5t-84.5 208.5l142 -4q3 -82 48.5 -123t125.5 -41q66 0 105.5 32t39.5 89zM1366 1290l-831 -1290h-142
l832 1290h141z" />
    <glyph glyph-name="uni215D" unicode="&#x215d;" horiz-adv-x="1724" 
d="M1354 705q-66 0 -104 -32.5t-38 -94.5q0 -59 38 -91t104 -32t103.5 32t37.5 91q0 62 -37.5 94.5t-103.5 32.5zM1354 352q-77 0 -119.5 -32.5t-42.5 -94.5q0 -63 42.5 -97t119.5 -34t119.5 34t42.5 97q0 62 -42.5 94.5t-119.5 32.5zM1354 -14q-146 0 -229 61t-83 166
q0 74 46 126t114 64q-131 51 -131 187q0 101 79 161t204 60t203.5 -60t78.5 -161q0 -134 -131 -187q68 -12 113 -64t45 -126q0 -105 -82 -166t-227 -61zM600 1290v-123h-367q-6 -114 -24 -204q60 67 172 67q131 0 202.5 -76t71.5 -194q0 -127 -81.5 -204t-213.5 -77
q-146 0 -225.5 80.5t-73.5 216.5l140 -10q0 -78 42 -124t119 -46q72 0 115 44t43 120q0 69 -43 113.5t-115 44.5q-98 0 -147 -82l-141 8q46 278 51 446h475zM1337 1290l-833 -1290h-139l831 1290h141z" />
    <glyph glyph-name="uni215E" unicode="&#x215e;" horiz-adv-x="1554" 
d="M1184 705q-66 0 -104 -32.5t-38 -94.5q0 -59 38 -91t104 -32t103.5 32t37.5 91q0 62 -37.5 94.5t-103.5 32.5zM1184 352q-79 0 -121.5 -32.5t-42.5 -94.5q0 -63 43 -97t121 -34q77 0 119.5 34t42.5 97q0 62 -42.5 94.5t-119.5 32.5zM1184 -14q-147 0 -229.5 61t-82.5 166
q0 74 46 126t114 64q-133 52 -133 187q0 101 79.5 161t205.5 60q125 0 203.5 -60t78.5 -161q0 -134 -131 -187q67 -12 112.5 -64t45.5 -126q0 -105 -82 -166t-227 -61zM455 1161h-418v129h577v-100q-141 -145 -194 -311t-55 -383h-158q6 408 248 665zM1167 1290l-833 -1290
h-139l831 1290h141z" />
    <glyph glyph-name="minus" unicode="&#x2212;" horiz-adv-x="1265" 
d="M111 567v144h1046v-144h-1046z" />
    <glyph glyph-name="approxequal" unicode="&#x2248;" horiz-adv-x="1294" 
d="M123 674v141q145 94 283 94q90 0 239 -45t238 -45q145 0 288 92v-141q-142 -94 -288 -94q-89 0 -238 45t-239 45q-141 0 -283 -92zM123 367v141q141 94 283 94q90 0 239 -46t238 -46q141 0 288 94v-141q-147 -94 -288 -94q-89 0 -238 46t-239 46q-138 0 -283 -94z" />
    <glyph glyph-name="notequal" unicode="&#x2260;" horiz-adv-x="1294" 
d="M123 731v137h622l195 256h147l-194 -256h278v-137h-380l-146 -190h526v-138h-628l-189 -249h-147l188 249h-272v138h375l145 190h-520z" />
    <glyph glyph-name="lessequal" unicode="&#x2264;" horiz-adv-x="960" 
d="M80 80v143h801v-143h-801zM80 690v168l801 363v-156l-648 -291l648 -293v-155z" />
    <glyph glyph-name="greaterequal" unicode="&#x2265;" horiz-adv-x="960" 
d="M881 223v-143h-801v143h801zM881 858v-168l-801 -364v155l647 293l-647 291v156z" />
    <glyph glyph-name="i.dot" horiz-adv-x="401" 
d="M117 895h170v-895h-170v895zM111 1098v192h178v-192h-178z" />
    <glyph glyph-name="space_uni0326" 
d="M420 -246v142h184v-111q0 -85 -42 -132.5t-142 -47.5v71q42 0 60 18t20 60h-80z" />
    <glyph glyph-name="space_uni0326.alt" 
d="M604 1206v-141h-184v111q0 85 42 132.5t142 47.5v-72q-42 0 -60 -18t-20 -60h80z" />
    <glyph glyph-name="space_dotbelowcomb" 
d="M422 -352v194h178v-194h-178z" />
    <glyph glyph-name="caron.Slovak" 
d="M498 1020h-97l31 270h189z" />
    <glyph glyph-name="cedilla.alt" horiz-adv-x="1173" 
d="M813 -209q0 -77 -65.5 -113t-163.5 -36q-68 0 -129 23t-97 54l35 66q86 -66 185 -66q102 0 102 62q0 28 -17.5 44.5t-44 19t-56.5 -3t-56 -17.5l-41 22l121 177h80l-86 -115q60 13 111.5 8.5t86.5 -38t35 -87.5z" />
    <glyph glyph-name="grave.cap" 
d="M670 1384h-119l-199 258h207z" />
    <glyph glyph-name="acute.cap" 
d="M471 1384h-119l111 258h207z" />
    <glyph glyph-name="circumflex.cap" 
d="M414 1642h196l164 -258h-123l-139 152l-139 -152h-123z" />
    <glyph glyph-name="caron.cap" 
d="M610 1384h-196l-164 258h123l139 -151l139 151h123z" />
    <glyph glyph-name="tilde.cap" 
d="M313 1382h-102q0 115 43.5 180.5t126.5 65.5q37 0 74.5 -18.5t63 -41t57 -41t57.5 -18.5q40 0 56.5 27.5t19.5 85.5h102q0 -114 -43 -180t-127 -66q-37 0 -74.5 18.5t-63 41t-57 41t-57.5 18.5q-39 0 -56 -27.5t-20 -85.5z" />
    <glyph glyph-name="macron.cap" 
d="M246 1399v129h530v-129h-530z" />
    <glyph glyph-name="breve.cap" 
d="M512 1378q-114 0 -176 67t-62 197h119q0 -143 119 -143t119 143h119q0 -130 -62 -197t-176 -67z" />
    <glyph glyph-name="dotaccent.cap" 
d="M422 1395v192h178v-192h-178z" />
    <glyph glyph-name="dieresis.cap" 
d="M287 1395v192h168v-192h-168zM569 1395v192h166v-192h-166z" />
    <glyph glyph-name="ring.cap" 
d="M424 1524q0 -41 23 -65.5t65 -24.5t65 24.5t23 65.5q0 39 -23 63.5t-65 24.5t-65 -24.5t-23 -63.5zM332 1524q0 73 50 122.5t130 49.5t130 -49.5t50 -122.5q0 -75 -50 -124.5t-130 -49.5t-130 49.5t-50 124.5z" />
    <glyph glyph-name="hungarumlaut.cap" 
d="M334 1384h-107l105 258h194zM604 1384h-106l104 258h195z" />
    <glyph glyph-name="exclamdown.cap" horiz-adv-x="391" 
d="M94 1085v205h205v-205h-205zM287 0h-183v360l52 592h82l49 -592v-360z" />
    <glyph glyph-name="questiondown.cap" horiz-adv-x="999" 
d="M434 946h160q0 -88 -34 -152t-116 -130q-6 -5 -28.5 -23l-30 -24t-27 -23.5t-27.5 -26t-23.5 -26.5t-22.5 -30t-17 -31t-14.5 -36t-8 -38.5t-3.5 -43.5q0 -106 64.5 -173.5t185.5 -67.5q132 0 204 79.5t72 221.5q0 62 -14 117l176 -9q12 -62 12 -120
q0 -198 -122.5 -316.5t-327.5 -118.5q-214 0 -324.5 108.5t-110.5 274.5q0 64 20 119.5t63.5 107.5t82 87.5t105.5 89.5q58 47 81.5 86t24.5 98zM623 1290v-205h-205v205h205z" />
    <glyph glyph-name="guilsinglleft.cap" horiz-adv-x="495" 
d="M94 559v135l307 264v-165l-190 -166l190 -166v-166z" />
    <glyph glyph-name="guilsinglright.cap" horiz-adv-x="495" 
d="M401 694v-135l-307 -264v166l191 166l-191 166v165z" />
    <glyph glyph-name="guillemotleft.cap" horiz-adv-x="831" 
d="M94 559v135l307 264v-165l-190 -166l190 -166v-166zM430 559v135l307 264v-165l-190 -166l190 -166v-166z" />
    <glyph glyph-name="guillemotright.cap" horiz-adv-x="831" 
d="M401 694v-135l-307 -264v166l191 166l-191 166v165zM737 694v-135l-307 -264v166l191 166l-191 166v165z" />
    <glyph glyph-name="slash.cap" horiz-adv-x="667" 
d="M0 0l506 1290h162l-506 -1290h-162z" />
    <glyph glyph-name="backslash.cap" horiz-adv-x="667" 
d="M162 1290l506 -1290h-162l-506 1290h162z" />
    <glyph glyph-name="bar.cap" horiz-adv-x="403" 
d="M125 0v1290h154v-1290h-154z" />
    <glyph glyph-name="periodcentered.cap" horiz-adv-x="374" 
d="M84 543v205h205v-205h-205z" />
    <glyph glyph-name="bullet.cap" horiz-adv-x="684" 
d="M590 647q0 -108 -72 -178t-178 -70q-104 0 -175 70t-71 178q0 106 71 177t175 71q105 0 177.5 -71t72.5 -177z" />
    <glyph glyph-name="hyphen.cap" horiz-adv-x="704" 
d="M117 569v152h471v-152h-471z" />
    <glyph glyph-name="endash.cap" 
d="M117 582v125h790v-125h-790z" />
    <glyph glyph-name="emdash.cap" horiz-adv-x="2048" 
d="M117 582v125h1814v-125h-1814z" />
    <glyph glyph-name="parenleft.cap" horiz-adv-x="591" 
d="M84 623q0 211 74.5 412t210.5 349h170q-151 -173 -214 -361.5t-63 -399.5q0 -212 63 -400.5t214 -361.5h-170q-136 148 -210.5 349.5t-74.5 412.5z" />
    <glyph glyph-name="parenright.cap" horiz-adv-x="591" 
d="M508 623q0 -211 -74.5 -412.5t-210.5 -349.5h-170q151 173 214 361.5t63 400.5q0 211 -63 399.5t-214 361.5h170q136 -148 210.5 -349t74.5 -412z" />
    <glyph glyph-name="bracketleft.cap" horiz-adv-x="569" 
d="M295 1255v-1265h184v-129h-344v1523h344v-129h-184z" />
    <glyph glyph-name="bracketright.cap" horiz-adv-x="569" 
d="M272 -10v1265h-184v129h346v-1523h-346v129h184z" />
    <glyph glyph-name="braceleft.cap" horiz-adv-x="600" 
d="M55 559v129h51q61 0 79 31t18 119v340q0 206 186 206h121v-129h-82q-63 0 -63 -75v-349q0 -91 -32 -142.5t-112 -65.5q80 -14 112 -65.5t32 -143.5v-348q0 -76 63 -76h82v-129h-121q-186 0 -186 207v342q0 88 -18 118.5t-79 30.5h-51z" />
    <glyph glyph-name="braceright.cap" horiz-adv-x="600" 
d="M545 688v-129h-51q-61 0 -79 -30.5t-18 -118.5v-342q0 -207 -186 -207h-123v129h82q35 0 49 19t14 57v348q0 91 33 143t113 66q-80 14 -113 65.5t-33 142.5v349q0 38 -14 56.5t-49 18.5h-82v129h123q186 0 186 -206v-340q0 -88 18 -119t79 -31h51z" />
    <glyph glyph-name="at.cap" horiz-adv-x="1556" 
d="M1137 391q104 0 168.5 95t64.5 284q0 218 -139 352.5t-383 134.5q-194 0 -342.5 -84.5t-228.5 -235.5t-80 -345q0 -128 45.5 -234.5t124.5 -177t186 -109t231 -38.5q234 0 422 92l45 -88q-195 -117 -469 -117q-151 0 -281 45t-226.5 129.5t-151.5 213.5t-55 288
q0 219 95.5 395t274 277.5t410.5 101.5q301 0 476 -167.5t175 -432.5q0 -122 -32 -218t-86.5 -154.5t-122.5 -88.5t-144 -30q-83 0 -134 40t-67 105q-38 -68 -102.5 -106.5t-148.5 -38.5q-120 0 -191.5 76t-71.5 210q0 112 44 212.5t133 167.5t204 67q82 0 142 -36t82 -93
l30 112h152l-123 -485q-16 -64 4 -91.5t70 -27.5zM936 623l12 49q23 101 -18 164t-129 63q-72 0 -128 -50t-84 -125t-28 -157q0 -166 137 -166q78 0 144 57.5t94 164.5z" />
    <glyph glyph-name="Euro.lt" horiz-adv-x="1228" 
d="M41 459v110h121q-2 25 -2 76q0 47 2 70h-121v110h133q40 228 175 359t339 131q151 0 262.5 -71t170 -191t67.5 -277l-166 -8q-11 177 -95.5 287t-238.5 110q-139 0 -223 -88.5t-113 -251.5h389l-20 -110h-381q-2 -23 -2 -70q0 -51 2 -76h362l-20 -110h-330
q30 -160 114 -247t222 -87q155 0 237.5 105t96.5 292l166 -8q-15 -244 -145.5 -391.5t-354.5 -147.5q-203 0 -337.5 129.5t-174.5 354.5h-135z" />
    <glyph glyph-name="dollar.lt" horiz-adv-x="1228" 
d="M104 461l158 10q6 -151 89 -242t218 -112v458l-108 23q-148 28 -234 113.5t-86 230.5q0 165 115 266t313 107v178h115v-184q195 -23 304 -142.5t110 -314.5l-158 -8q-4 134 -71 218t-185 107v-452l88 -17q180 -35 266 -117t86 -233q0 -166 -122 -265t-318 -108v-186h-115
v189q-210 21 -337.5 147t-127.5 334zM715 549l-31 6v-444q124 8 197 68t73 159q0 88 -56.5 137t-182.5 74zM307 952q0 -91 58.5 -137t177.5 -70l26 -6v441q-127 -4 -194.5 -63t-67.5 -165z" />
    <glyph glyph-name="cent.lt" horiz-adv-x="1228" 
d="M573 -201v181q-181 18 -296 144.5t-115 321.5t115.5 322.5t295.5 146.5v195h117v-195q168 -17 266 -124t111 -263l-145 -10q-11 107 -71.5 177t-160.5 87v-669q101 15 161.5 83.5t72.5 182.5l143 -12q-13 -157 -110.5 -263.5t-266.5 -123.5v-181h-117zM330 446
q0 -138 64.5 -225.5t178.5 -107.5v667q-113 -19 -178 -107t-65 -227z" />
    <glyph glyph-name="sterling.lt" horiz-adv-x="1228" 
d="M444 920q0 -93 45 -215h318v-117h-272q47 -135 47 -232q0 -50 -9 -100q44 -33 68 -49.5t64 -39t78.5 -32.5t80.5 -10q162 0 162 235l137 -6q6 -179 -70 -279t-216 -100q-101 0 -180 41t-162 113q-79 -154 -244 -154q-95 0 -157 54t-62 149q0 90 62.5 147.5t162.5 57.5
q62 0 137 -35q-2 112 -61 240h-209v117h155q-47 110 -47 217q0 177 108.5 285t293.5 108q197 0 308.5 -113.5t111.5 -314.5l-156 -8q-1 145 -68 220t-190 75q-119 0 -177.5 -70t-58.5 -184zM293 86q103 0 129 133q-70 53 -125 53q-49 0 -76.5 -25t-27.5 -69q0 -42 28.5 -67
t71.5 -25z" />
    <glyph glyph-name="yen.lt" horiz-adv-x="1228" 
d="M184 547v121h269l-394 622h193l373 -596l358 596h186l-393 -622h268v-121h-344v-146h344v-120h-344v-281h-170v281h-346v120h346v146h-346z" />
    <glyph glyph-name="florin.lt" horiz-adv-x="1228" 
d="M780 995l-47 -225h207v-125h-233l-119 -571q-30 -137 -101 -211t-198 -74q-26 0 -84 8v129q30 -6 53 -6q72 0 111 46t57 140l113 539h-160v125h184l55 258q27 128 105.5 205.5t198.5 77.5q34 0 100 -15v-125q-56 9 -68 9q-72 0 -113 -47t-61 -138z" />
    <glyph glyph-name="zero.lt" horiz-adv-x="1228" 
d="M1145 645q0 -321 -138.5 -495.5t-392.5 -174.5t-392 174.5t-138 495.5t138 495.5t392 174.5t392.5 -174.5t138.5 -495.5zM961 645q0 264 -85.5 395t-261.5 131t-261 -131t-85 -395t85 -395t261 -131t261.5 131t85.5 395z" />
    <glyph glyph-name="one.lt" horiz-adv-x="1228" 
d="M229 0v147h326v838h-303v121h51q111 0 171 17t91.5 56.5t50.5 118.5h117v-1151h311v-147h-815z" />
    <glyph glyph-name="two.lt" horiz-adv-x="1228" 
d="M416 154h674v-154h-949v102l365 314q77 67 116.5 102.5t93 92t79 97.5t44.5 94.5t19 108.5q0 118 -65.5 188t-190.5 70q-130 0 -201 -79.5t-71 -221.5q0 -61 14 -116l-178 8q-12 62 -12 121q0 198 123 316t329 118q109 0 194 -30.5t137.5 -85t79.5 -125t27 -154.5
q0 -67 -24 -134.5t-57 -120t-90.5 -114t-101.5 -101t-112 -96.5z" />
    <glyph glyph-name="three.lt" horiz-adv-x="1228" 
d="M905 354q0 107 -79.5 167.5t-204.5 60.5q-69 0 -123 -7v146q44 -6 123 -6q72 0 128 19.5t94 71t38 130.5q0 107 -69.5 171t-199.5 64q-137 0 -216 -85t-79 -238l-172 6q0 203 127.5 332t341.5 129q210 0 326.5 -99.5t116.5 -265.5q0 -119 -74.5 -201t-175.5 -98
q121 -18 198.5 -101.5t77.5 -207.5q0 -163 -126.5 -265t-338.5 -102q-230 0 -362.5 123t-132.5 338l174 -8q4 -151 89.5 -230t234.5 -79q129 0 206.5 61t77.5 174z" />
    <glyph glyph-name="four.lt" horiz-adv-x="1228" 
d="M930 1290v-801h235v-145h-235v-344h-174v344h-684v168l643 778h215zM756 1130l-525 -641h525v641z" />
    <glyph glyph-name="five.lt" horiz-adv-x="1228" 
d="M1001 1290v-160h-618q-1 -52 -18.5 -200.5t-28.5 -198.5q48 58 126.5 94.5t180.5 36.5q142 0 244 -59.5t151 -156t49 -218.5q0 -202 -129.5 -327.5t-339.5 -125.5q-231 0 -358.5 132t-116.5 350l172 -15q0 -150 79.5 -237.5t228.5 -87.5q136 0 214 83.5t78 225.5
q0 130 -79 212.5t-213 82.5q-101 0 -172.5 -46t-110.5 -118l-176 12q27 148 52.5 360t29.5 361h755z" />
    <glyph glyph-name="six.lt" horiz-adv-x="1228" 
d="M659 1174q-189 0 -282 -156.5t-90 -421.5q35 118 134.5 191t248.5 73q208 0 331 -121.5t123 -314.5q0 -201 -128 -325t-343 -124q-254 0 -390 172.5t-136 473.5q0 153 33 279t98 219t168 144.5t236 51.5q192 0 312.5 -104t135.5 -285l-168 -6q-18 119 -88.5 186.5
t-194.5 67.5zM338 418q0 -135 84 -217t229 -82q141 0 221 81t80 218q0 139 -80.5 220t-226.5 81t-226.5 -81t-80.5 -220z" />
    <glyph glyph-name="seven.lt" horiz-adv-x="1228" 
d="M877 1130h-746v160h946v-108q-229 -239 -330 -534.5t-104 -647.5h-192q4 337 116.5 629.5t309.5 500.5z" />
    <glyph glyph-name="eight.lt" horiz-adv-x="1228" 
d="M614 1184q-122 0 -195 -61.5t-73 -178.5q0 -108 73.5 -168.5t194.5 -60.5q122 0 195.5 60.5t73.5 168.5q0 117 -72.5 178.5t-196.5 61.5zM614 582q-147 0 -226 -59.5t-79 -172.5q0 -114 79.5 -177.5t225.5 -63.5t225 63.5t79 177.5q0 113 -78.5 172.5t-225.5 59.5z
M614 -25q-228 0 -357.5 98.5t-129.5 268.5q0 121 77 204.5t187 104.5q-104 38 -161.5 115.5t-57.5 189.5q0 164 124 261.5t318 97.5t318.5 -97.5t124.5 -261.5q0 -112 -57.5 -189.5t-161.5 -115.5q110 -21 187 -104.5t77 -204.5q0 -170 -130 -268.5t-358 -98.5z" />
    <glyph glyph-name="nine.lt" horiz-adv-x="1228" 
d="M569 117q96 0 169 42.5t117.5 120t66.5 181.5t20 233q-35 -118 -134.5 -191t-248.5 -73q-208 0 -331.5 121.5t-123.5 314.5q0 201 128 325t343 124q254 0 390.5 -172t136.5 -473q0 -153 -33 -279t-98 -219.5t-168 -145t-236 -51.5q-192 0 -312.5 104.5t-135.5 285.5
l168 6q18 -119 88 -186.5t194 -67.5zM891 872q0 135 -84 217t-229 82q-141 0 -221.5 -81.5t-80.5 -217.5q0 -138 81 -219.5t227 -81.5t226.5 81t80.5 220z" />
    <glyph glyph-name="period.tab" horiz-adv-x="614" 
d="M205 0v205h205v-205h-205z" />
    <glyph glyph-name="comma.tab" horiz-adv-x="614" 
d="M205 0v205h205v-201q0 -115 -44 -171.5t-161 -57.5v100q58 4 77 30t19 95h-96z" />
    <glyph glyph-name="colon.tab" horiz-adv-x="614" 
d="M205 0v205h205v-205h-205zM205 649v205h205v-205h-205z" />
    <glyph glyph-name="semicolon.tab" horiz-adv-x="614" 
d="M205 0v205h205v-201q0 -115 -44 -171.5t-161 -57.5v100q58 4 77 30t19 95h-96zM205 649v205h205v-205h-205z" />
    <glyph glyph-name="space.tab" horiz-adv-x="614" 
 />
    <glyph glyph-name="percent.lt" horiz-adv-x="1638" 
d="M272 975q0 -227 156 -227q158 0 158 227t-158 227q-156 0 -156 -227zM127 975q0 156 85.5 248t215.5 92q131 0 217 -92t86 -248t-86 -248t-217 -92q-130 0 -215.5 92t-85.5 248zM1366 315q0 228 -156 228q-155 0 -155 -228q0 -227 155 -227q156 0 156 227zM1219 1290
l-660 -1290h-139l661 1290h138zM1513 315q0 -156 -86.5 -248t-216.5 -92t-215.5 92t-85.5 248t85.5 248t215.5 92t216.5 -92t86.5 -248z" />
    <glyph glyph-name="perthousand.lt" horiz-adv-x="2457" 
d="M340 975q0 -227 156 -227q157 0 157 227t-157 227q-156 0 -156 -227zM195 975q0 156 85.5 248t215.5 92q131 0 217 -92t86 -248t-86 -248t-217 -92q-130 0 -215.5 92t-85.5 248zM1434 315q0 228 -156 228t-156 -228q0 -227 156 -227t156 227zM1581 315q0 -156 -86.5 -248
t-216.5 -92t-216.5 92t-86.5 248t86.5 248t216.5 92t216.5 -92t86.5 -248zM2116 315q0 228 -156 228t-156 -228q0 -227 156 -227t156 227zM2263 315q0 -156 -86 -248t-217 -92q-130 0 -215.5 92t-85.5 248t85.5 248t215.5 92q131 0 217 -92t86 -248zM1286 1290l-659 -1290
h-140l662 1290h137z" />
    <glyph glyph-name="plus.lt" horiz-adv-x="1228" 
d="M541 1163h143v-452h453v-144h-453v-452h-143v452h-451v144h451v452z" />
    <glyph glyph-name="minus.lt" horiz-adv-x="1228" 
d="M90 567v144h1047v-144h-1047z" />
    <glyph glyph-name="multiply.lt" horiz-adv-x="1228" 
d="M516 631l-330 332l101 100l325 -336l328 336l100 -100l-329 -332l329 -330l-100 -100l-328 334l-325 -334l-101 100z" />
    <glyph glyph-name="divide.lt" horiz-adv-x="1228" 
d="M90 567v144h1047v-144h-1047zM510 961v208h211v-208h-211zM510 109v206h211v-206h-211z" />
    <glyph glyph-name="equal.lt" horiz-adv-x="1228" 
d="M90 401v140h1047v-140h-1047zM90 731v139h1047v-139h-1047z" />
    <glyph glyph-name="less.lt" horiz-adv-x="1228" 
d="M215 543v184l799 426v-166l-668 -352l668 -352v-168z" />
    <glyph glyph-name="greater.lt" horiz-adv-x="1228" 
d="M1014 727v-184l-799 -428v168l668 352l-668 352v166z" />
    <glyph glyph-name="plusminus.lt" horiz-adv-x="1228" 
d="M543 1241h141v-383h455v-141h-455v-383h-141v383h-453v141h453v383zM90 80v143h1049v-143h-1049z" />
    <glyph glyph-name="lessequal.lt" horiz-adv-x="1228" 
d="M215 80v143h799v-143h-799zM215 690v168l799 363v-156l-647 -291l647 -293v-155z" />
    <glyph glyph-name="greaterequal.lt" horiz-adv-x="1228" 
d="M1014 223v-143h-799v143h799zM1014 858v-168l-799 -364v155l645 293l-645 291v156z" />
    <glyph glyph-name="notequal.lt" horiz-adv-x="1228" 
d="M90 731v137h621l194 256h148l-193 -256h277v-137h-381l-144 -190h525v-138h-627l-188 -249h-150l188 249h-270v138h373l145 190h-518z" />
    <glyph glyph-name="approxequal.lt" horiz-adv-x="1228" 
d="M90 674v141q145 94 283 94q89 0 238 -45t239 -45q146 0 287 92v-141q-140 -94 -287 -94q-90 0 -239 45t-238 45q-141 0 -283 -92zM90 367v141q141 94 283 94q89 0 238 -46t239 -46q143 0 287 94v-141q-144 -94 -287 -94q-90 0 -239 46t-238 46q-138 0 -283 -94z" />
    </font>
</defs>
</svg>
