<svg width="50" height="16" viewBox="0 0 50 16" fill="none" xmlns="http://www.w3.org/2000/svg">
<path d="M5.48387 1.5H8.47312L14 15.5H11.1398L9.78495 12.0333L8.96774 9.9H4.83871L4.02151 12.0333L2.70968 15.5H0L5.48387 1.5ZM6.83871 4.65556L4.83871 9.9H8.96774L6.92473 4.65556H6.83871Z" fill="black"/>
<path d="M27 15.5H24.1236C23.8315 15.1222 23.6517 14.1667 23.5393 12.6111C23.427 11.0333 22.7079 10.3222 21.0899 10.3222H17.764V15.5H15V1.5H21.4045C25.0225 1.5 26.7978 3.16667 26.7978 5.76667C26.7978 7.87778 25.4045 9.1 23.6742 9.32222C25.2921 9.63333 26.1236 10.5667 26.2809 12.2111C26.4607 14.2778 26.5281 14.9889 27 15.5ZM17.764 8.14444H21.0225C23.0674 8.14444 24.0112 7.47778 24.0112 5.96667C24.0112 4.56667 23.0674 3.74444 21.0225 3.74444H17.764V8.14444Z" fill="black"/>
<path d="M41 15.5H37.7914L33.0642 9.36667L31.6738 10.8556V15.5H29V1.5H31.6738V7.83333L37.4278 1.5H40.5508L35.0321 7.56667L41 15.5Z" fill="black"/>
<path d="M42 4.50915C42 2.25744 43.6998 0.5 45.9908 0.5C48.3002 0.5 50 2.25744 50 4.50915C50 6.76087 48.3002 8.5 45.9908 8.5C43.6998 8.5 42 6.76087 42 4.50915ZM45.9908 7.80435C47.8199 7.80435 49.1871 6.39474 49.1871 4.50915C49.1871 2.62357 47.8199 1.19565 45.9908 1.19565C44.1617 1.19565 42.8129 2.62357 42.8129 4.50915C42.8129 6.39474 44.1617 7.80435 45.9908 7.80435ZM45.3626 4.12471H46.0462C46.4711 4.12471 46.7483 3.94165 46.7483 3.50229C46.7483 3.13616 46.4896 2.93478 46.0647 2.93478H45.3626V4.12471ZM45.3626 4.78375V6.43135H44.5127V2.31236H46.2125C46.933 2.31236 47.6351 2.64188 47.6351 3.50229C47.6351 4.28947 47.1363 4.56407 46.7483 4.65561L47.6905 6.43135H46.7298L45.8799 4.78375H45.3626Z" fill="black"/>
</svg>
