<svg width="1738" height="312" viewBox="0 0 1738 312" fill="none" xmlns="http://www.w3.org/2000/svg">
<g filter="url(#filter0_d_2506_1479)">
<path d="M17.268 140.596C17.268 142.572 17.736 144.21 18.672 145.51C19.608 146.81 20.856 147.928 22.416 148.864C23.976 149.748 25.718 150.528 27.642 151.204C29.618 151.828 31.646 152.478 33.726 153.154C35.806 153.778 37.808 154.454 39.732 155.182C41.708 155.91 43.476 156.846 45.036 157.99C46.596 159.082 47.844 160.434 48.78 162.046C49.716 163.606 50.184 165.53 50.184 167.818C50.184 169.586 49.846 171.302 49.17 172.966C48.494 174.63 47.376 176.112 45.816 177.412C44.256 178.712 42.202 179.778 39.654 180.61C37.106 181.39 33.96 181.78 30.216 181.78C26.524 181.78 23.43 181.598 20.934 181.234C18.49 180.87 16.488 180.48 14.928 180.064C13.108 179.544 11.652 178.972 10.56 178.348L11.574 172.654C12.354 174.214 13.576 175.618 15.24 176.866C16.644 177.906 18.542 178.868 20.934 179.752C23.378 180.584 26.472 181 30.216 181C32.972 181 35.286 180.584 37.158 179.752C39.03 178.92 40.512 177.906 41.604 176.71C42.748 175.462 43.554 174.162 44.022 172.81C44.542 171.406 44.802 170.158 44.802 169.066C44.802 166.674 43.996 164.776 42.384 163.372C40.772 161.916 38.744 160.694 36.3 159.706C33.856 158.666 31.23 157.73 28.422 156.898C25.614 156.066 22.988 155.026 20.544 153.778C18.1 152.478 16.072 150.866 14.46 148.942C12.848 147.018 12.042 144.47 12.042 141.298C12.042 139.582 12.406 137.918 13.134 136.306C13.862 134.642 14.98 133.186 16.488 131.938C17.996 130.638 19.894 129.598 22.182 128.818C24.522 127.986 27.304 127.57 30.528 127.57C33.492 127.57 36.014 127.752 38.094 128.116C40.226 128.48 41.968 128.87 43.32 129.286C44.88 129.806 46.18 130.378 47.22 131.002L46.206 136.696C45.374 135.188 44.256 133.81 42.852 132.562C41.656 131.522 40.044 130.56 38.016 129.676C35.988 128.792 33.492 128.35 30.528 128.35C27.876 128.35 25.692 128.792 23.976 129.676C22.312 130.508 20.96 131.574 19.92 132.874C18.932 134.122 18.23 135.448 17.814 136.852C17.45 138.256 17.268 139.504 17.268 140.596ZM78.0184 127.57C81.7624 127.57 85.2724 128.298 88.5484 129.754C91.8244 131.158 94.6844 133.082 97.1284 135.526C99.6244 137.97 101.574 140.83 102.978 144.106C104.382 147.382 105.084 150.892 105.084 154.636C105.084 158.38 104.382 161.916 102.978 165.244C101.574 168.52 99.6244 171.38 97.1284 173.824C94.6844 176.268 91.8244 178.218 88.5484 179.674C85.2724 181.078 81.7624 181.78 78.0184 181.78C74.2744 181.78 70.7644 181.078 67.4884 179.674C64.2124 178.218 61.3264 176.268 58.8304 173.824C56.3864 171.38 54.4624 168.52 53.0584 165.244C51.6544 161.916 50.9524 158.38 50.9524 154.636C50.9524 150.892 51.6544 147.382 53.0584 144.106C54.4624 140.83 56.3864 137.97 58.8304 135.526C61.3264 133.082 64.2124 131.158 67.4884 129.754C70.7644 128.298 74.2744 127.57 78.0184 127.57ZM78.0184 181C80.8784 181 83.5564 180.324 86.0524 178.972C88.6004 177.568 90.8104 175.67 92.6824 173.278C94.5544 170.886 96.0364 168.104 97.1284 164.932C98.2204 161.708 98.7664 158.276 98.7664 154.636C98.7664 150.996 98.2204 147.59 97.1284 144.418C96.0364 141.246 94.5544 138.464 92.6824 136.072C90.8104 133.68 88.6004 131.808 86.0524 130.456C83.5564 129.052 80.8784 128.35 78.0184 128.35C75.1584 128.35 72.4544 129.052 69.9064 130.456C67.4104 131.808 65.2264 133.68 63.3544 136.072C61.4824 138.464 60.0004 141.246 58.9084 144.418C57.8164 147.59 57.2704 150.996 57.2704 154.636C57.2704 158.276 57.8164 161.708 58.9084 164.932C60.0004 168.104 61.4824 170.886 63.3544 173.278C65.2264 175.67 67.4104 177.568 69.9064 178.972C72.4544 180.324 75.1584 181 78.0184 181ZM141.287 128.038V136.618L140.351 135.292C139.051 133.472 137.413 132.068 135.437 131.08C133.513 130.04 131.433 129.52 129.197 129.52H115.781V148.318H132.005L135.749 145.12V152.92L132.005 149.722H115.781V173.278V175.618C115.781 176.918 116.197 178.062 117.029 179.05L117.263 179.362C118.147 180.246 119.187 180.766 120.383 180.922V181H105.251V180.922C106.499 180.766 107.513 180.246 108.293 179.362L108.605 179.05C109.437 178.062 109.853 176.918 109.853 175.618V132.952C109.749 131.756 109.255 130.716 108.371 129.832C107.487 128.948 106.447 128.402 105.251 128.194V128.038H106.811H109.931H115.625H141.287ZM177.429 134.59C176.909 133.706 176.025 132.952 174.777 132.328C173.529 131.704 172.125 131.21 170.565 130.846C169.057 130.43 167.497 130.118 165.885 129.91C164.273 129.702 162.843 129.572 161.595 129.52H162.063V173.278V175.618C162.063 176.918 162.479 178.062 163.311 179.05L163.623 179.44C164.455 180.272 165.469 180.766 166.665 180.922V181H151.533V180.922C152.729 180.766 153.769 180.246 154.653 179.362L154.887 179.05C155.719 178.062 156.135 176.892 156.135 175.54V174.526V173.278V129.52H156.603C155.303 129.572 153.847 129.702 152.235 129.91C150.623 130.118 149.063 130.43 147.555 130.846C146.047 131.21 144.669 131.704 143.421 132.328C142.173 132.952 141.289 133.706 140.769 134.59L142.329 128.038H159.099H175.869L177.429 134.59ZM253.154 128.038V128.116C253.154 128.116 253.024 128.194 252.764 128.35C252.556 128.506 252.296 128.662 251.984 128.818C251.672 128.974 251.36 129.13 251.048 129.286C250.788 129.39 250.632 129.468 250.58 129.52C249.8 130.144 249.098 130.846 248.474 131.626C247.746 132.51 247.174 133.42 246.758 134.356C246.394 135.292 246.004 136.28 245.588 137.32C244.86 139.14 244.158 140.934 243.482 142.702C242.806 144.418 242.104 146.16 241.376 147.928C240.492 150.164 239.608 152.4 238.724 154.636C237.892 156.82 237.034 159.03 236.15 161.266C235.422 163.138 234.668 165.036 233.888 166.96C233.16 168.832 232.406 170.704 231.626 172.576C231.522 172.836 231.444 173.07 231.392 173.278C231.34 173.486 231.262 173.694 231.158 173.902L232.484 177.724L227.882 181L215.792 147.85L215.714 147.928C214.83 150.164 213.946 152.4 213.062 154.636C212.23 156.82 211.372 159.03 210.488 161.266L205.964 172.576L205.496 173.902L206.822 177.724L202.22 181L185.294 134.512C185.242 134.304 185.164 134.096 185.06 133.888L184.592 132.718C184.02 131.366 183.136 130.274 181.94 129.442C180.796 128.61 179.47 128.194 177.962 128.194V128.116H195.044V128.194C194.316 128.194 193.64 128.376 193.016 128.74C192.444 129.052 191.95 129.468 191.534 129.988C191.17 130.508 190.91 131.132 190.754 131.86C190.65 132.536 190.702 133.212 190.91 133.888L204.794 172.03C205.106 171.146 205.418 170.314 205.73 169.534C206.094 168.702 206.432 167.844 206.744 166.96C207.628 164.828 208.46 162.722 209.24 160.642C210.072 158.51 210.93 156.378 211.814 154.246C212.386 152.842 212.932 151.464 213.452 150.112C213.972 148.708 214.518 147.304 215.09 145.9L210.956 134.512C210.904 134.304 210.826 134.096 210.722 133.888L210.254 132.718C209.682 131.366 208.798 130.274 207.602 129.442C206.458 128.61 205.132 128.194 203.624 128.194V128.116H220.706V128.194C219.978 128.194 219.302 128.376 218.678 128.74C218.106 129.052 217.612 129.468 217.196 129.988C216.832 130.508 216.572 131.132 216.416 131.86C216.312 132.536 216.364 133.212 216.572 133.888L230.456 172.03C230.768 171.146 231.08 170.314 231.392 169.534C231.756 168.702 232.094 167.844 232.406 166.96C233.29 164.828 234.122 162.722 234.902 160.642C235.734 158.51 236.592 156.378 237.476 154.246C238.308 152.114 239.114 150.008 239.894 147.928C240.726 145.848 241.584 143.768 242.468 141.688C242.78 140.908 243.066 140.128 243.326 139.348C243.638 138.568 243.95 137.788 244.262 137.008C244.678 136.072 245.068 135.084 245.432 134.044C245.848 133.004 245.926 131.964 245.666 130.924C245.562 130.404 245.302 129.858 244.886 129.286C244.834 129.234 244.73 129.13 244.574 128.974C244.418 128.818 244.262 128.688 244.106 128.584L243.482 128.116V127.96L253.154 128.038ZM279.338 176.398C279.91 177.75 280.794 178.842 281.99 179.674C283.186 180.506 284.512 180.922 285.968 180.922V181H267.872V180.922C268.652 180.922 269.328 180.766 269.9 180.454C270.524 180.09 271.018 179.622 271.382 179.05C271.798 178.478 272.058 177.854 272.162 177.178C272.266 176.45 272.188 175.722 271.928 174.994L269.276 168.598L269.198 168.208H245.642L242.444 174.76C241.976 175.956 241.95 177.152 242.366 178.348C242.782 179.492 243.562 180.35 244.706 180.922V181H235.112V180.922C236.672 180.246 237.972 179.232 239.012 177.88C240.104 176.528 240.988 175.046 241.664 173.434L243.458 169.144L247.514 159.628L256.796 137.71L254.534 130.846L255.002 130.612L260.384 128.038L278.636 174.526L279.338 176.398ZM268.808 167.038L268.652 166.648L267.482 163.684L257.654 139.036L248.606 160.33L245.72 167.038H268.808ZM308.608 155.026C310.116 155.598 311.416 156.456 312.508 157.6C313.652 158.744 314.692 160.044 315.628 161.5C316.564 162.956 317.448 164.542 318.28 166.258C319.164 167.922 320.048 169.612 320.932 171.328C321.868 173.044 322.856 174.734 323.896 176.398C324.988 178.062 326.236 179.596 327.64 181H319.606C319.19 180.584 318.696 179.674 318.124 178.27C317.552 176.814 316.902 175.124 316.174 173.2C315.446 171.276 314.614 169.274 313.678 167.194C312.794 165.062 311.806 163.112 310.714 161.344C309.622 159.576 308.426 158.12 307.126 156.976C305.826 155.78 304.422 155.182 302.914 155.182C301.458 155.182 299.898 155.182 298.234 155.182C296.622 155.13 295.374 155.104 294.49 155.104V173.278V175.618C294.49 176.294 294.594 176.944 294.802 177.568C295.062 178.14 295.4 178.66 295.816 179.128L295.972 179.284C296.804 180.22 297.844 180.766 299.092 180.922V181H283.96V180.922C285.156 180.766 286.17 180.272 287.002 179.44L287.392 178.972C288.172 178.036 288.562 176.918 288.562 175.618V132.874C288.458 131.678 287.964 130.664 287.08 129.832C286.248 128.948 285.208 128.402 283.96 128.194V128.038H285.52H288.64H294.334H306.814C310.194 128.038 313.028 128.662 315.316 129.91C317.604 131.158 319.346 132.744 320.542 134.668C321.738 136.592 322.388 138.698 322.492 140.986C322.596 143.222 322.154 145.354 321.166 147.382C320.178 149.358 318.618 151.074 316.486 152.53C314.406 153.934 311.78 154.766 308.608 155.026ZM305.8 154.09C308.244 154.09 310.272 153.466 311.884 152.218C313.548 150.97 314.796 149.436 315.628 147.616C316.46 145.744 316.876 143.742 316.876 141.61C316.876 139.426 316.46 137.424 315.628 135.604C314.796 133.732 313.548 132.172 311.884 130.924C310.272 129.676 308.244 129.052 305.8 129.052H294.49V154.09H303.85H303.928H305.8ZM362.998 181H334.138H326.104V180.922C327.3 180.766 328.34 180.246 329.224 179.362L329.536 179.05C329.952 178.582 330.238 178.062 330.394 177.49C330.602 176.866 330.732 176.242 330.784 175.618V132.952C330.628 131.756 330.108 130.716 329.224 129.832C328.392 128.948 327.352 128.402 326.104 128.194V128.038H327.742H330.784H336.478H362.218V136.618L361.282 135.292C359.982 133.472 358.344 132.068 356.368 131.08C354.392 130.04 352.286 129.52 350.05 129.52H336.634V148.318H352.858L356.602 145.12V152.92L352.858 149.722H336.634V179.518L353.56 179.596C356.472 179.596 359.15 178.738 361.594 177.022L364.714 174.76L362.998 181ZM418.793 134.59C418.273 133.706 417.389 132.952 416.141 132.328C414.893 131.704 413.489 131.21 411.929 130.846C410.421 130.43 408.861 130.118 407.249 129.91C405.637 129.702 404.207 129.572 402.959 129.52H403.427V173.278V175.618C403.427 176.918 403.843 178.062 404.675 179.05L404.987 179.44C405.819 180.272 406.833 180.766 408.029 180.922V181H392.897V180.922C394.093 180.766 395.133 180.246 396.017 179.362L396.251 179.05C397.083 178.062 397.499 176.892 397.499 175.54V174.526V173.278V129.52H397.967C396.667 129.572 395.211 129.702 393.599 129.91C391.987 130.118 390.427 130.43 388.919 130.846C387.411 131.21 386.033 131.704 384.785 132.328C383.537 132.952 382.653 133.706 382.133 134.59L383.693 128.038H400.463H417.233L418.793 134.59ZM461.04 173.278V175.618C461.092 176.918 461.508 178.062 462.288 179.05L462.6 179.362C463.484 180.246 464.524 180.766 465.72 180.922V181H450.588V180.922C451.732 180.766 452.746 180.246 453.63 179.362L453.942 179.05C454.774 178.062 455.19 176.892 455.19 175.54V155.26H427.266V175.618C427.266 176.918 427.682 178.062 428.514 179.05L428.904 179.44C429.736 180.272 430.724 180.766 431.868 180.922V181H416.736V180.922C418.036 180.766 419.076 180.246 419.856 179.362L420.168 179.05C420.532 178.582 420.818 178.062 421.026 177.49C421.286 176.866 421.416 176.216 421.416 175.54V174.526V173.278V135.76V134.512V133.498C421.416 132.822 421.286 132.198 421.026 131.626C420.818 131.002 420.506 130.456 420.09 129.988L419.934 129.754C419.518 129.338 419.024 129 418.452 128.74C417.932 128.428 417.36 128.246 416.736 128.194V128.038H418.374H430.308H431.868V128.194C430.672 128.298 429.658 128.792 428.826 129.676L428.514 129.988C427.682 130.976 427.266 132.12 427.266 133.42V153.778H455.19V133.498C455.19 132.146 454.774 130.976 453.942 129.988L453.63 129.676C453.214 129.26 452.746 128.922 452.226 128.662C451.706 128.402 451.16 128.246 450.588 128.194V128.038H452.148H464.082H465.72V128.194C465.096 128.246 464.524 128.402 464.004 128.662C463.484 128.922 463.016 129.26 462.6 129.676L462.288 129.988C461.508 130.976 461.092 132.12 461.04 133.42V135.76V173.278ZM507.906 176.398C508.478 177.75 509.362 178.842 510.558 179.674C511.754 180.506 513.08 180.922 514.536 180.922V181H496.44V180.922C497.22 180.922 497.896 180.766 498.468 180.454C499.092 180.09 499.586 179.622 499.95 179.05C500.366 178.478 500.626 177.854 500.73 177.178C500.834 176.45 500.756 175.722 500.496 174.994L497.844 168.598L497.766 168.208H474.21L471.012 174.76C470.544 175.956 470.518 177.152 470.934 178.348C471.35 179.492 472.13 180.35 473.274 180.922V181H463.68V180.922C465.24 180.246 466.54 179.232 467.58 177.88C468.672 176.528 469.556 175.046 470.232 173.434L472.026 169.144L476.082 159.628L485.364 137.71L483.102 130.846L483.57 130.612L488.952 128.038L507.204 174.526L507.906 176.398ZM497.376 167.038L497.22 166.648L496.05 163.684L486.222 139.036L477.174 160.33L474.288 167.038H497.376ZM538.295 134.59C537.775 133.706 536.891 132.952 535.643 132.328C534.395 131.704 532.991 131.21 531.431 130.846C529.923 130.43 528.363 130.118 526.751 129.91C525.139 129.702 523.709 129.572 522.461 129.52H522.929V173.278V175.618C522.929 176.918 523.345 178.062 524.177 179.05L524.489 179.44C525.321 180.272 526.335 180.766 527.531 180.922V181H512.399V180.922C513.595 180.766 514.635 180.246 515.519 179.362L515.753 179.05C516.585 178.062 517.001 176.892 517.001 175.54V174.526V173.278V129.52H517.469C516.169 129.572 514.713 129.702 513.101 129.91C511.489 130.118 509.929 130.43 508.421 130.846C506.913 131.21 505.535 131.704 504.287 132.328C503.039 132.952 502.155 133.706 501.635 134.59L503.195 128.038H519.965H536.735L538.295 134.59ZM573.504 151.828C575.532 151.672 577.638 151.828 579.822 152.296C582.006 152.712 583.982 153.466 585.75 154.558C587.57 155.65 589.052 157.106 590.196 158.926C591.34 160.694 591.912 162.852 591.912 165.4C591.912 170.444 590.3 174.318 587.076 177.022C583.852 179.674 578.86 181 572.1 181H562.116H554.16V180.922C555.408 180.766 556.422 180.246 557.202 179.362L557.514 179.05C558.346 178.062 558.762 176.918 558.762 175.618V132.952C558.658 131.756 558.164 130.716 557.28 129.832C556.448 128.948 555.408 128.402 554.16 128.194V128.038H555.72H558.84H564.534H574.128C575.896 128.038 577.664 128.298 579.432 128.818C581.252 129.286 582.89 130.014 584.346 131.002C585.802 131.938 586.972 133.134 587.856 134.59C588.792 136.046 589.26 137.71 589.26 139.582C589.26 141.818 588.766 143.638 587.778 145.042C586.79 146.394 585.542 147.486 584.034 148.318C582.526 149.15 580.836 149.826 578.964 150.346C577.092 150.814 575.272 151.308 573.504 151.828ZM564.69 155.728C565.314 154.688 566.224 153.856 567.42 153.232C568.668 152.556 569.994 151.932 571.398 151.36C572.854 150.788 574.336 150.216 575.844 149.644C577.352 149.02 578.704 148.292 579.9 147.46C581.148 146.576 582.162 145.51 582.942 144.262C583.722 142.962 584.112 141.324 584.112 139.348C584.112 136.124 583.02 133.602 580.836 131.782C578.704 129.962 575.974 129.052 572.646 129.052H564.69V155.728ZM572.412 180.064C574.804 180.064 576.884 179.674 578.652 178.894C580.472 178.062 581.98 176.996 583.176 175.696C584.372 174.344 585.256 172.836 585.828 171.172C586.4 169.456 586.686 167.714 586.686 165.946C586.686 163.502 586.218 161.396 585.282 159.628C584.346 157.86 583.124 156.43 581.616 155.338C580.16 154.194 578.548 153.414 576.78 152.998C575.012 152.53 573.322 152.426 571.71 152.686C570.098 152.946 568.642 153.57 567.342 154.558C566.042 155.546 565.158 156.898 564.69 158.614V180.064H572.412ZM639.405 128.038V128.194C637.741 128.87 636.441 129.962 635.505 131.47C634.569 132.978 634.101 134.642 634.101 136.462V164.23L634.023 164.308C634.023 167.324 633.477 169.95 632.385 172.186C631.293 174.37 629.837 176.19 628.017 177.646C626.249 179.05 624.221 180.09 621.933 180.766C619.645 181.442 617.305 181.754 614.913 181.702C612.521 181.65 610.181 181.234 607.893 180.454C605.605 179.622 603.551 178.426 601.731 176.866C599.963 175.306 598.533 173.408 597.441 171.172C596.349 168.884 595.803 166.258 595.803 163.294V135.76V134.512V133.498C595.803 132.146 595.387 130.976 594.555 129.988L594.321 129.754C593.905 129.338 593.437 129 592.917 128.74C592.397 128.428 591.825 128.246 591.201 128.194V128.038H592.761H604.773H606.333V128.194C605.137 128.298 604.123 128.792 603.291 129.676L602.979 129.988C602.147 130.976 601.731 132.12 601.731 133.42V162.436C601.731 166.44 602.485 169.768 603.993 172.42C605.553 175.072 607.477 177.074 609.765 178.426C612.053 179.726 614.523 180.402 617.175 180.454C619.827 180.454 622.297 179.856 624.585 178.66C626.873 177.412 628.771 175.592 630.279 173.2C631.839 170.808 632.619 167.818 632.619 164.23V136.54C632.619 134.72 632.177 133.056 631.293 131.548C630.461 129.988 629.213 128.87 627.549 128.194V128.038H633.165H633.789H639.405ZM647.912 173.278V175.618C647.912 176.918 648.328 178.062 649.16 179.05L649.472 179.44C650.304 180.272 651.318 180.766 652.514 180.922V181H637.382V180.922C638.578 180.766 639.618 180.246 640.502 179.362L640.736 179.05C641.568 178.062 641.984 176.892 641.984 175.54V174.526V173.278V135.76V134.512V133.498C641.984 132.146 641.568 130.976 640.736 129.988L640.502 129.754C640.086 129.338 639.618 129 639.098 128.74C638.578 128.428 638.006 128.246 637.382 128.194V128.038H638.942H650.954H652.514V128.194C651.318 128.298 650.304 128.792 649.472 129.676L649.16 129.988C648.328 130.976 647.912 132.12 647.912 133.42V135.76V173.278ZM682.407 181H658.539H650.583V180.922C651.727 180.766 652.715 180.272 653.547 179.44L653.937 178.972C654.665 178.14 655.081 177.022 655.185 175.618V135.76V134.512V133.498C655.185 132.822 655.055 132.198 654.795 131.626C654.587 131.002 654.275 130.456 653.859 129.988L653.703 129.754C653.287 129.338 652.793 129 652.221 128.74C651.701 128.428 651.129 128.246 650.505 128.194V128.038H652.143H664.077H665.637V128.194C664.545 128.246 663.531 128.74 662.595 129.676L662.283 129.988C661.451 130.976 661.035 132.12 661.035 133.42V179.518L661.113 179.596H669.537C672.137 179.596 674.633 179.232 677.025 178.504C679.469 177.724 681.783 176.606 683.967 175.15L684.591 174.76L682.407 181ZM703.858 128.038C708.226 128.038 712.048 128.792 715.324 130.3C718.6 131.808 721.33 133.81 723.514 136.306C725.698 138.802 727.336 141.636 728.428 144.808C729.52 147.98 730.066 151.23 730.066 154.558C730.066 157.834 729.52 161.058 728.428 164.23C727.336 167.402 725.698 170.236 723.514 172.732C721.33 175.228 718.6 177.23 715.324 178.738C712.048 180.246 708.226 181 703.858 181H691.846H683.89V180.922C684.982 180.766 685.996 180.272 686.932 179.44L687.322 178.972C688.102 178.036 688.492 176.918 688.492 175.618V132.952C688.388 131.704 687.894 130.664 687.01 129.832C686.126 128.948 685.086 128.402 683.89 128.194V128.038H685.45H688.57H694.264H703.858ZM702.376 180.064C705.964 180.064 709.084 179.336 711.736 177.88C714.44 176.424 716.676 174.5 718.444 172.108C720.212 169.716 721.538 166.986 722.422 163.918C723.306 160.85 723.748 157.73 723.748 154.558C723.748 151.386 723.306 148.266 722.422 145.198C721.538 142.13 720.212 139.4 718.444 137.008C716.676 134.616 714.44 132.692 711.736 131.236C709.084 129.78 705.964 129.052 702.376 129.052H694.42V180.064H702.376ZM737.574 140.596C737.574 142.572 738.042 144.21 738.978 145.51C739.914 146.81 741.162 147.928 742.722 148.864C744.282 149.748 746.024 150.528 747.948 151.204C749.924 151.828 751.952 152.478 754.032 153.154C756.112 153.778 758.114 154.454 760.038 155.182C762.014 155.91 763.782 156.846 765.342 157.99C766.902 159.082 768.15 160.434 769.086 162.046C770.022 163.606 770.49 165.53 770.49 167.818C770.49 169.586 770.152 171.302 769.476 172.966C768.8 174.63 767.682 176.112 766.122 177.412C764.562 178.712 762.508 179.778 759.96 180.61C757.412 181.39 754.266 181.78 750.522 181.78C746.83 181.78 743.736 181.598 741.24 181.234C738.796 180.87 736.794 180.48 735.234 180.064C733.414 179.544 731.958 178.972 730.866 178.348L731.88 172.654C732.66 174.214 733.882 175.618 735.546 176.866C736.95 177.906 738.848 178.868 741.24 179.752C743.684 180.584 746.778 181 750.522 181C753.278 181 755.592 180.584 757.464 179.752C759.336 178.92 760.818 177.906 761.91 176.71C763.054 175.462 763.86 174.162 764.328 172.81C764.848 171.406 765.108 170.158 765.108 169.066C765.108 166.674 764.302 164.776 762.69 163.372C761.078 161.916 759.05 160.694 756.606 159.706C754.162 158.666 751.536 157.73 748.728 156.898C745.92 156.066 743.294 155.026 740.85 153.778C738.406 152.478 736.378 150.866 734.766 148.942C733.154 147.018 732.348 144.47 732.348 141.298C732.348 139.582 732.712 137.918 733.44 136.306C734.168 134.642 735.286 133.186 736.794 131.938C738.302 130.638 740.2 129.598 742.488 128.818C744.828 127.986 747.61 127.57 750.834 127.57C753.798 127.57 756.32 127.752 758.4 128.116C760.532 128.48 762.274 128.87 763.626 129.286C765.186 129.806 766.486 130.378 767.526 131.002L766.512 136.696C765.68 135.188 764.562 133.81 763.158 132.562C761.962 131.522 760.35 130.56 758.322 129.676C756.294 128.792 753.798 128.35 750.834 128.35C748.182 128.35 745.998 128.792 744.282 129.676C742.618 130.508 741.266 131.574 740.226 132.874C739.238 134.122 738.536 135.448 738.12 136.852C737.756 138.256 737.574 139.504 737.574 140.596ZM824.436 134.59C823.916 133.706 823.032 132.952 821.784 132.328C820.536 131.704 819.132 131.21 817.572 130.846C816.064 130.43 814.504 130.118 812.892 129.91C811.28 129.702 809.85 129.572 808.602 129.52H809.07V173.278V175.618C809.07 176.918 809.486 178.062 810.318 179.05L810.63 179.44C811.462 180.272 812.476 180.766 813.672 180.922V181H798.54V180.922C799.736 180.766 800.776 180.246 801.66 179.362L801.894 179.05C802.726 178.062 803.142 176.892 803.142 175.54V174.526V173.278V129.52H803.61C802.31 129.572 800.854 129.702 799.242 129.91C797.63 130.118 796.07 130.43 794.562 130.846C793.054 131.21 791.676 131.704 790.428 132.328C789.18 132.952 788.296 133.706 787.776 134.59L789.336 128.038H806.106H822.876L824.436 134.59ZM847.027 155.026C848.535 155.598 849.835 156.456 850.927 157.6C852.071 158.744 853.111 160.044 854.047 161.5C854.983 162.956 855.867 164.542 856.699 166.258C857.583 167.922 858.467 169.612 859.351 171.328C860.287 173.044 861.275 174.734 862.315 176.398C863.407 178.062 864.655 179.596 866.059 181H858.025C857.609 180.584 857.115 179.674 856.543 178.27C855.971 176.814 855.321 175.124 854.593 173.2C853.865 171.276 853.033 169.274 852.097 167.194C851.213 165.062 850.225 163.112 849.133 161.344C848.041 159.576 846.845 158.12 845.545 156.976C844.245 155.78 842.841 155.182 841.333 155.182C839.877 155.182 838.317 155.182 836.653 155.182C835.041 155.13 833.793 155.104 832.909 155.104V173.278V175.618C832.909 176.294 833.013 176.944 833.221 177.568C833.481 178.14 833.819 178.66 834.235 179.128L834.391 179.284C835.223 180.22 836.263 180.766 837.511 180.922V181H822.379V180.922C823.575 180.766 824.589 180.272 825.421 179.44L825.811 178.972C826.591 178.036 826.981 176.918 826.981 175.618V132.874C826.877 131.678 826.383 130.664 825.499 129.832C824.667 128.948 823.627 128.402 822.379 128.194V128.038H823.939H827.059H832.753H845.233C848.613 128.038 851.447 128.662 853.735 129.91C856.023 131.158 857.765 132.744 858.961 134.668C860.157 136.592 860.807 138.698 860.911 140.986C861.015 143.222 860.573 145.354 859.585 147.382C858.597 149.358 857.037 151.074 854.905 152.53C852.825 153.934 850.199 154.766 847.027 155.026ZM844.219 154.09C846.663 154.09 848.691 153.466 850.303 152.218C851.967 150.97 853.215 149.436 854.047 147.616C854.879 145.744 855.295 143.742 855.295 141.61C855.295 139.426 854.879 137.424 854.047 135.604C853.215 133.732 851.967 132.172 850.303 130.924C848.691 129.676 846.663 129.052 844.219 129.052H832.909V154.09H842.269H842.347H844.219ZM909.681 128.038V128.194C908.017 128.87 906.717 129.962 905.781 131.47C904.845 132.978 904.377 134.642 904.377 136.462V164.23L904.299 164.308C904.299 167.324 903.753 169.95 902.661 172.186C901.569 174.37 900.113 176.19 898.293 177.646C896.525 179.05 894.497 180.09 892.209 180.766C889.921 181.442 887.581 181.754 885.189 181.702C882.797 181.65 880.457 181.234 878.169 180.454C875.881 179.622 873.827 178.426 872.007 176.866C870.239 175.306 868.809 173.408 867.717 171.172C866.625 168.884 866.079 166.258 866.079 163.294V135.76V134.512V133.498C866.079 132.146 865.663 130.976 864.831 129.988L864.597 129.754C864.181 129.338 863.713 129 863.193 128.74C862.673 128.428 862.101 128.246 861.477 128.194V128.038H863.037H875.049H876.609V128.194C875.413 128.298 874.399 128.792 873.567 129.676L873.255 129.988C872.423 130.976 872.007 132.12 872.007 133.42V162.436C872.007 166.44 872.761 169.768 874.269 172.42C875.829 175.072 877.753 177.074 880.041 178.426C882.329 179.726 884.799 180.402 887.451 180.454C890.103 180.454 892.573 179.856 894.861 178.66C897.149 177.412 899.047 175.592 900.555 173.2C902.115 170.808 902.895 167.818 902.895 164.23V136.54C902.895 134.72 902.453 133.056 901.569 131.548C900.737 129.988 899.489 128.87 897.825 128.194V128.038H903.441H904.065H909.681ZM914.247 140.596C914.247 142.572 914.715 144.21 915.651 145.51C916.587 146.81 917.835 147.928 919.395 148.864C920.955 149.748 922.697 150.528 924.621 151.204C926.597 151.828 928.625 152.478 930.705 153.154C932.785 153.778 934.787 154.454 936.711 155.182C938.687 155.91 940.455 156.846 942.015 157.99C943.575 159.082 944.823 160.434 945.759 162.046C946.695 163.606 947.163 165.53 947.163 167.818C947.163 169.586 946.825 171.302 946.149 172.966C945.473 174.63 944.355 176.112 942.795 177.412C941.235 178.712 939.181 179.778 936.633 180.61C934.085 181.39 930.939 181.78 927.195 181.78C923.503 181.78 920.409 181.598 917.913 181.234C915.469 180.87 913.467 180.48 911.907 180.064C910.087 179.544 908.631 178.972 907.539 178.348L908.553 172.654C909.333 174.214 910.555 175.618 912.219 176.866C913.623 177.906 915.521 178.868 917.913 179.752C920.357 180.584 923.451 181 927.195 181C929.951 181 932.265 180.584 934.137 179.752C936.009 178.92 937.491 177.906 938.583 176.71C939.727 175.462 940.533 174.162 941.001 172.81C941.521 171.406 941.781 170.158 941.781 169.066C941.781 166.674 940.975 164.776 939.363 163.372C937.751 161.916 935.723 160.694 933.279 159.706C930.835 158.666 928.209 157.73 925.401 156.898C922.593 156.066 919.967 155.026 917.523 153.778C915.079 152.478 913.051 150.866 911.439 148.942C909.827 147.018 909.021 144.47 909.021 141.298C909.021 139.582 909.385 137.918 910.113 136.306C910.841 134.642 911.959 133.186 913.467 131.938C914.975 130.638 916.873 129.598 919.161 128.818C921.501 127.986 924.283 127.57 927.507 127.57C930.471 127.57 932.993 127.752 935.073 128.116C937.205 128.48 938.947 128.87 940.299 129.286C941.859 129.806 943.159 130.378 944.199 131.002L943.185 136.696C942.353 135.188 941.235 133.81 939.831 132.562C938.635 131.522 937.023 130.56 934.995 129.676C932.967 128.792 930.471 128.35 927.507 128.35C924.855 128.35 922.671 128.792 920.955 129.676C919.291 130.508 917.939 131.574 916.899 132.874C915.911 134.122 915.209 135.448 914.793 136.852C914.429 138.256 914.247 139.504 914.247 140.596ZM983.187 134.59C982.667 133.706 981.783 132.952 980.535 132.328C979.287 131.704 977.883 131.21 976.323 130.846C974.815 130.43 973.255 130.118 971.643 129.91C970.031 129.702 968.601 129.572 967.353 129.52H967.821V173.278V175.618C967.821 176.918 968.237 178.062 969.069 179.05L969.381 179.44C970.213 180.272 971.227 180.766 972.423 180.922V181H957.291V180.922C958.487 180.766 959.527 180.246 960.411 179.362L960.645 179.05C961.477 178.062 961.893 176.892 961.893 175.54V174.526V173.278V129.52H962.361C961.061 129.572 959.605 129.702 957.993 129.91C956.381 130.118 954.821 130.43 953.313 130.846C951.805 131.21 950.427 131.704 949.179 132.328C947.931 132.952 947.047 133.706 946.527 134.59L948.087 128.038H964.857H981.627L983.187 134.59Z" fill="white"/>
</g>
<g filter="url(#filter1_ddd_2506_1479)">
<path d="M1278.55 153.928V132.976H1283.37V128.62L1300.26 128.656V133.84L1283.73 133.804V144.352L1288.45 148.744H1299.14V153.928H1286.4V153.856L1286.36 153.892L1283.73 151.516V153.928H1278.55ZM1322.51 153.964H1305.99C1305.84 153.82 1305.53 153.52 1305.05 153.064C1304.57 152.608 1304.05 152.128 1303.5 151.624C1302.95 151.12 1302.43 150.64 1301.95 150.184C1301.47 149.728 1301.16 149.428 1301.02 149.284V132.976H1305.84V128.62C1305.99 128.62 1306.3 128.62 1306.78 128.62C1307.28 128.62 1307.81 128.62 1308.36 128.62C1308.91 128.62 1309.43 128.632 1309.91 128.656C1310.41 128.656 1310.74 128.656 1310.88 128.656V133.84C1310.74 133.84 1310.44 133.84 1309.98 133.84C1309.53 133.84 1309.05 133.84 1308.54 133.84C1308.04 133.816 1307.56 133.804 1307.1 133.804C1306.65 133.804 1306.35 133.804 1306.2 133.804V147.016C1306.51 147.304 1306.83 147.592 1307.14 147.88C1307.45 148.168 1307.76 148.468 1308.07 148.78H1322.55C1322.55 149.644 1322.55 150.508 1322.55 151.372C1322.55 152.236 1322.53 153.1 1322.51 153.964ZM1339.6 153.964V145.216L1328.26 133.948V145.288H1336.04V150.472H1328.26V153.928H1323.08V132.976H1327.9V128.62L1344.78 128.656V133.84L1335.64 133.804L1344.78 142.876V153.964H1339.6ZM1368.28 153.964H1363.09V150.472H1351.75V153.928H1346.57V132.976H1351.39V128.62C1351.63 128.62 1352.03 128.62 1352.58 128.62C1353.16 128.62 1353.82 128.62 1354.56 128.62C1355.31 128.62 1356.09 128.62 1356.9 128.62C1357.74 128.62 1358.53 128.62 1359.28 128.62C1360.02 128.62 1360.67 128.632 1361.22 128.656C1361.8 128.656 1362.19 128.656 1362.41 128.656V133.66C1363.37 132.82 1364.32 131.992 1365.25 131.176C1366.19 130.336 1367.14 129.496 1368.1 128.656V135.568C1366.25 137.2 1364.41 138.82 1362.59 140.428C1360.77 142.036 1358.94 143.656 1357.12 145.288C1357.36 145.288 1357.77 145.288 1358.34 145.288C1358.92 145.288 1359.58 145.288 1360.32 145.288C1361.07 145.288 1361.86 145.288 1362.7 145.288C1363.54 145.264 1364.33 145.252 1365.07 145.252C1365.82 145.252 1366.48 145.252 1367.05 145.252C1367.65 145.252 1368.06 145.252 1368.28 145.252V153.964ZM1351.75 133.804V143.092C1353.51 141.532 1355.25 139.984 1356.97 138.448C1358.73 136.912 1360.49 135.376 1362.27 133.84C1360.49 133.84 1358.73 133.84 1356.97 133.84C1355.25 133.816 1353.51 133.804 1351.75 133.804ZM1377.77 153.928H1372.59V147.484C1372.06 146.956 1371.53 146.44 1371 145.936C1370.47 145.408 1369.95 144.88 1369.42 144.352C1369.42 144.112 1369.42 143.704 1369.42 143.128C1369.42 142.552 1369.42 141.88 1369.42 141.112C1369.42 140.344 1369.42 139.528 1369.42 138.664C1369.42 137.8 1369.42 136.984 1369.42 136.216C1369.42 135.448 1369.42 134.776 1369.42 134.2C1369.44 133.6 1369.45 133.18 1369.45 132.94H1372.3V128.584C1372.44 128.584 1372.75 128.584 1373.23 128.584C1373.74 128.584 1374.27 128.584 1374.82 128.584C1375.39 128.584 1375.92 128.596 1376.4 128.62C1376.91 128.62 1377.24 128.62 1377.41 128.62V133.804C1377.31 133.804 1377.13 133.804 1376.87 133.804C1376.61 133.804 1376.32 133.804 1376.01 133.804C1375.69 133.78 1375.41 133.768 1375.14 133.768C1374.88 133.768 1374.71 133.768 1374.64 133.768V142.156L1377.77 145.288V153.928ZM1399.88 153.964H1394.69V145.216C1392.8 143.344 1390.9 141.472 1389 139.6C1387.13 137.728 1385.25 135.844 1383.35 133.948V139.672H1378.17V132.976H1382.99V128.62C1383.33 128.62 1383.93 128.62 1384.79 128.62C1385.68 128.62 1386.69 128.62 1387.82 128.62C1388.97 128.62 1390.17 128.62 1391.42 128.62C1392.69 128.62 1393.89 128.62 1395.02 128.62C1396.17 128.62 1397.18 128.632 1398.04 128.656C1398.93 128.656 1399.54 128.656 1399.88 128.656V133.84C1399.59 133.84 1399 133.84 1398.11 133.84C1397.25 133.84 1396.31 133.84 1395.3 133.84C1394.3 133.816 1393.35 133.804 1392.46 133.804C1391.6 133.804 1391.02 133.804 1390.73 133.804C1390.92 133.996 1391.25 134.332 1391.7 134.812C1392.18 135.268 1392.72 135.808 1393.32 136.432C1393.95 137.032 1394.61 137.668 1395.3 138.34C1396 139.012 1396.65 139.66 1397.25 140.284C1397.87 140.884 1398.41 141.424 1398.87 141.904C1399.35 142.36 1399.68 142.684 1399.88 142.876V153.964ZM1412.27 148.96V154.144C1412.06 154.144 1411.66 154.144 1411.09 154.144C1410.53 154.144 1409.9 154.144 1409.18 154.144C1408.46 154.144 1407.69 154.132 1406.87 154.108C1406.06 154.108 1405.29 154.108 1404.57 154.108C1403.85 154.108 1403.21 154.108 1402.66 154.108C1402.11 154.108 1401.73 154.108 1401.51 154.108V147.16C1402.61 146.2 1403.71 145.24 1404.79 144.28C1405.89 143.32 1406.99 142.348 1408.1 141.364C1406.95 140.38 1405.81 139.408 1404.68 138.448C1403.55 137.488 1402.41 136.504 1401.26 135.496V128.584C1402.17 129.4 1403.08 130.204 1403.99 130.996C1404.93 131.788 1405.87 132.58 1406.8 133.372V128.512C1407.11 128.512 1407.68 128.512 1408.49 128.512C1409.31 128.512 1410.25 128.512 1411.3 128.512C1412.36 128.512 1413.47 128.524 1414.65 128.548C1415.85 128.548 1416.98 128.548 1418.03 128.548C1419.09 128.548 1420.03 128.548 1420.84 128.548C1421.66 128.548 1422.23 128.548 1422.57 128.548C1422.59 128.548 1422.61 128.584 1422.61 128.656C1422.63 128.656 1422.64 128.656 1422.64 128.656V135.568C1420.03 137.776 1417.46 139.996 1414.94 142.228C1412.42 144.436 1409.89 146.668 1407.34 148.924C1407.49 148.924 1407.8 148.924 1408.28 148.924C1408.76 148.924 1409.26 148.936 1409.79 148.96C1410.34 148.96 1410.86 148.96 1411.34 148.96C1411.82 148.96 1412.13 148.96 1412.27 148.96ZM1407.16 133.696C1407.98 134.392 1408.78 135.088 1409.57 135.784C1410.37 136.456 1411.16 137.14 1411.95 137.836C1412.77 137.14 1413.57 136.456 1414.36 135.784C1415.15 135.112 1415.95 134.428 1416.74 133.732C1415.15 133.732 1413.56 133.732 1411.95 133.732C1410.37 133.708 1408.77 133.696 1407.16 133.696ZM1295.07 182.964V174.216L1283.73 162.948V174.288H1291.51V179.472H1283.73V182.928H1278.55V161.976H1283.37V157.62L1300.26 157.656V162.84L1291.11 162.804L1300.26 171.876V182.964H1295.07ZM1302.04 182.928V161.976H1306.87V157.62L1323.75 157.656V162.84L1307.23 162.804V173.352L1311.94 177.744H1322.63V182.928H1309.89V182.856L1309.85 182.892L1307.23 180.516V182.928H1302.04ZM1324.73 182.928V161.976H1329.55V157.62L1346.44 157.656V162.84L1329.91 162.804V173.352L1334.63 177.744H1345.32V182.928H1332.58V182.856L1332.54 182.892L1329.91 180.516V182.928H1324.73ZM1368.87 157.584V182.928C1368.53 182.928 1367.93 182.928 1367.07 182.928C1366.21 182.928 1365.2 182.928 1364.05 182.928C1362.92 182.928 1361.73 182.928 1360.48 182.928C1359.23 182.928 1358.03 182.928 1356.88 182.928C1355.75 182.928 1354.76 182.928 1353.89 182.928C1353.03 182.928 1352.43 182.928 1352.09 182.928C1351.95 182.784 1351.64 182.484 1351.16 182.028C1350.68 181.548 1350.17 181.044 1349.65 180.516C1349.12 179.988 1348.61 179.496 1348.13 179.04C1347.65 178.56 1347.34 178.248 1347.2 178.104V161.94H1352.02V157.584H1368.87ZM1354.79 178.284H1363.69V162.768H1352.38V175.872C1352.79 176.28 1353.19 176.688 1353.57 177.096C1353.98 177.48 1354.39 177.876 1354.79 178.284ZM1392.61 157.584V182.928C1392.27 182.928 1391.67 182.928 1390.81 182.928C1389.95 182.928 1388.94 182.928 1387.79 182.928C1386.66 182.928 1385.47 182.928 1384.22 182.928C1382.97 182.928 1381.77 182.928 1380.62 182.928C1379.49 182.928 1378.5 182.928 1377.63 182.928C1376.77 182.928 1376.17 182.928 1375.83 182.928C1375.69 182.784 1375.38 182.484 1374.9 182.028C1374.42 181.548 1373.91 181.044 1373.39 180.516C1372.86 179.988 1372.35 179.496 1371.87 179.04C1371.39 178.56 1371.08 178.248 1370.94 178.104V161.94H1375.76V157.584H1380.87V162.768H1376.12V175.872C1376.53 176.28 1376.93 176.688 1377.31 177.096C1377.72 177.48 1378.13 177.876 1378.53 178.284H1387.43V157.584H1392.61ZM1416.6 182.892H1411.42V174.18C1409.52 172.284 1407.63 170.4 1405.73 168.528C1403.86 166.656 1401.97 164.784 1400.08 162.912V182.892H1394.89V161.904H1399.72V157.584C1400.08 157.584 1400.69 157.584 1401.55 157.584C1402.44 157.584 1403.45 157.584 1404.58 157.584C1405.73 157.584 1406.93 157.584 1408.18 157.584C1409.45 157.584 1410.66 157.584 1411.81 157.584C1412.97 157.584 1413.97 157.584 1414.84 157.584C1415.73 157.584 1416.34 157.584 1416.67 157.584C1416.67 158.448 1416.66 159.312 1416.64 160.176C1416.64 161.04 1416.64 161.904 1416.64 162.768H1407.46C1407.65 162.936 1407.97 163.26 1408.43 163.74C1408.91 164.196 1409.45 164.736 1410.05 165.36C1410.67 165.96 1411.33 166.608 1412.03 167.304C1412.73 167.976 1413.37 168.624 1413.97 169.248C1414.6 169.848 1415.14 170.388 1415.59 170.868C1416.07 171.324 1416.41 171.636 1416.6 171.804V182.892ZM1438.98 182.964H1433.79V174.216C1431.9 172.344 1430 170.472 1428.11 168.6C1426.23 166.728 1424.35 164.844 1422.45 162.948V168.672H1417.27V161.976H1422.09V157.62C1422.43 157.62 1423.03 157.62 1423.89 157.62C1424.78 157.62 1425.79 157.62 1426.92 157.62C1428.07 157.62 1429.27 157.62 1430.52 157.62C1431.79 157.62 1432.99 157.62 1434.12 157.62C1435.27 157.62 1436.28 157.632 1437.14 157.656C1438.03 157.656 1438.64 157.656 1438.98 157.656V162.84C1438.69 162.84 1438.1 162.84 1437.21 162.84C1436.35 162.84 1435.41 162.84 1434.41 162.84C1433.4 162.816 1432.45 162.804 1431.56 162.804C1430.7 162.804 1430.12 162.804 1429.83 162.804C1430.03 162.996 1430.35 163.332 1430.81 163.812C1431.29 164.268 1431.83 164.808 1432.43 165.432C1433.05 166.032 1433.71 166.668 1434.41 167.34C1435.1 168.012 1435.75 168.66 1436.35 169.284C1436.97 169.884 1437.51 170.424 1437.97 170.904C1438.45 171.36 1438.79 171.684 1438.98 171.876V182.964ZM1457.32 182.964V174.216L1445.98 162.948V174.288H1453.75V179.472H1445.98V182.928H1440.79V161.976H1445.62V157.62L1462.5 157.656V162.84L1453.36 162.804L1462.5 171.876V182.964H1457.32ZM1464.29 182.892V161.94H1469.11V157.584H1482.54V162.768H1476.81L1486.07 172.092L1482.65 175.98L1469.47 175.944V177.744H1485.96V182.928L1464.29 182.892ZM1477.28 170.796L1469.47 162.948V170.76L1477.28 170.796ZM1494.96 182.928H1489.78V176.484C1489.25 175.956 1488.72 175.44 1488.19 174.936C1487.66 174.408 1487.14 173.88 1486.61 173.352C1486.61 173.112 1486.61 172.704 1486.61 172.128C1486.61 171.552 1486.61 170.88 1486.61 170.112C1486.61 169.344 1486.61 168.528 1486.61 167.664C1486.61 166.8 1486.61 165.984 1486.61 165.216C1486.61 164.448 1486.61 163.776 1486.61 163.2C1486.63 162.6 1486.64 162.18 1486.64 161.94H1489.49V157.584C1489.63 157.584 1489.94 157.584 1490.42 157.584C1490.93 157.584 1491.46 157.584 1492.01 157.584C1492.58 157.584 1493.11 157.596 1493.59 157.62C1494.1 157.62 1494.43 157.62 1494.6 157.62V162.804C1494.5 162.804 1494.32 162.804 1494.06 162.804C1493.8 162.804 1493.51 162.804 1493.2 162.804C1492.88 162.78 1492.6 162.768 1492.33 162.768C1492.07 162.768 1491.9 162.768 1491.83 162.768V171.156L1494.96 174.288V182.928ZM1517.82 182.964H1501.3C1501.15 182.82 1500.84 182.52 1500.36 182.064C1499.88 181.608 1499.36 181.128 1498.81 180.624C1498.26 180.12 1497.74 179.64 1497.26 179.184C1496.78 178.728 1496.47 178.428 1496.33 178.284V161.976H1501.15V157.62C1501.3 157.62 1501.61 157.62 1502.09 157.62C1502.59 157.62 1503.12 157.62 1503.67 157.62C1504.22 157.62 1504.74 157.632 1505.22 157.656C1505.72 157.656 1506.05 157.656 1506.19 157.656V162.84C1506.05 162.84 1505.75 162.84 1505.29 162.84C1504.84 162.84 1504.36 162.84 1503.85 162.84C1503.35 162.816 1502.87 162.804 1502.41 162.804C1501.96 162.804 1501.66 162.804 1501.51 162.804V176.016C1501.82 176.304 1502.14 176.592 1502.45 176.88C1502.76 177.168 1503.07 177.468 1503.38 177.78H1517.86C1517.86 178.644 1517.86 179.508 1517.86 180.372C1517.86 181.236 1517.84 182.1 1517.82 182.964ZM1524.55 182.928H1519.36V176.484C1518.83 175.956 1518.31 175.44 1517.78 174.936C1517.25 174.408 1516.72 173.88 1516.19 173.352C1516.19 173.112 1516.19 172.704 1516.19 172.128C1516.19 171.552 1516.19 170.88 1516.19 170.112C1516.19 169.344 1516.19 168.528 1516.19 167.664C1516.19 166.8 1516.19 165.984 1516.19 165.216C1516.19 164.448 1516.19 163.776 1516.19 163.2C1516.22 162.6 1516.23 162.18 1516.23 161.94H1519.07V157.584C1519.22 157.584 1519.53 157.584 1520.01 157.584C1520.51 157.584 1521.04 157.584 1521.59 157.584C1522.17 157.584 1522.7 157.596 1523.18 157.62C1523.68 157.62 1524.02 157.62 1524.19 157.62V162.804C1524.09 162.804 1523.91 162.804 1523.65 162.804C1523.38 162.804 1523.09 162.804 1522.78 162.804C1522.47 162.78 1522.18 162.768 1521.92 162.768C1521.65 162.768 1521.49 162.768 1521.41 162.768V171.156L1524.55 174.288V182.928ZM1546.65 182.964H1541.47V174.216C1539.57 172.344 1537.67 170.472 1535.78 168.6C1533.91 166.728 1532.02 164.844 1530.13 162.948V168.672H1524.94V161.976H1529.77V157.62C1530.1 157.62 1530.7 157.62 1531.57 157.62C1532.45 157.62 1533.46 157.62 1534.59 157.62C1535.74 157.62 1536.94 157.62 1538.19 157.62C1539.46 157.62 1540.66 157.62 1541.79 157.62C1542.94 157.62 1543.95 157.632 1544.81 157.656C1545.7 157.656 1546.31 157.656 1546.65 157.656V162.84C1546.36 162.84 1545.77 162.84 1544.89 162.84C1544.02 162.84 1543.09 162.84 1542.08 162.84C1541.07 162.816 1540.12 162.804 1539.23 162.804C1538.37 162.804 1537.79 162.804 1537.51 162.804C1537.7 162.996 1538.02 163.332 1538.48 163.812C1538.96 164.268 1539.5 164.808 1540.1 165.432C1540.72 166.032 1541.38 166.668 1542.08 167.34C1542.77 168.012 1543.42 168.66 1544.02 169.284C1544.65 169.884 1545.19 170.424 1545.64 170.904C1546.12 171.36 1546.46 171.684 1546.65 171.876V182.964ZM1559.05 177.96V183.144C1558.83 183.144 1558.44 183.144 1557.86 183.144C1557.31 183.144 1556.67 183.144 1555.95 183.144C1555.23 183.144 1554.47 183.132 1553.65 183.108C1552.83 183.108 1552.07 183.108 1551.35 183.108C1550.63 183.108 1549.99 183.108 1549.44 183.108C1548.89 183.108 1548.5 183.108 1548.29 183.108V176.16C1549.39 175.2 1550.48 174.24 1551.56 173.28C1552.67 172.32 1553.77 171.348 1554.87 170.364C1553.72 169.38 1552.58 168.408 1551.45 167.448C1550.33 166.488 1549.19 165.504 1548.03 164.496V157.584C1548.95 158.4 1549.86 159.204 1550.77 159.996C1551.71 160.788 1552.64 161.58 1553.58 162.372V157.512C1553.89 157.512 1554.45 157.512 1555.27 157.512C1556.09 157.512 1557.02 157.512 1558.08 157.512C1559.13 157.512 1560.25 157.524 1561.43 157.548C1562.63 157.548 1563.75 157.548 1564.81 157.548C1565.87 157.548 1566.8 157.548 1567.62 157.548C1568.43 157.548 1569.01 157.548 1569.35 157.548C1569.37 157.548 1569.38 157.584 1569.38 157.656C1569.41 157.656 1569.42 157.656 1569.42 157.656V164.568C1566.8 166.776 1564.23 168.996 1561.71 171.228C1559.19 173.436 1556.66 175.668 1554.12 177.924C1554.26 177.924 1554.57 177.924 1555.05 177.924C1555.53 177.924 1556.04 177.936 1556.57 177.96C1557.12 177.96 1557.63 177.96 1558.11 177.96C1558.59 177.96 1558.91 177.96 1559.05 177.96ZM1553.94 162.696C1554.75 163.392 1555.56 164.088 1556.35 164.784C1557.14 165.456 1557.93 166.14 1558.73 166.836C1559.54 166.14 1560.35 165.456 1561.14 164.784C1561.93 164.112 1562.72 163.428 1563.51 162.732C1561.93 162.732 1560.33 162.732 1558.73 162.732C1557.14 162.708 1555.55 162.696 1553.94 162.696Z" fill="white"/>
</g>
<g filter="url(#filter2_d_2506_1479)">
<rect x="995.998" y="128" width="268" height="52" stroke="#FF4000" stroke-width="2" shape-rendering="crispEdges"/>
</g>
<g filter="url(#filter3_d_2506_1479)">
<rect x="1006" y="138" width="248" height="32" stroke="#FF4000" stroke-width="2" shape-rendering="crispEdges"/>
</g>
<g filter="url(#filter4_d_2506_1479)">
<rect x="1017" y="147" width="226" height="14" stroke="#FF4000" stroke-width="2" shape-rendering="crispEdges"/>
</g>
<g filter="url(#filter5_d_2506_1479)">
<path d="M997 129L1017 147" stroke="#FF4000" stroke-width="2"/>
</g>
<g filter="url(#filter6_d_2506_1479)">
<path d="M997 179L1017 161" stroke="#FF4000" stroke-width="2"/>
</g>
<g filter="url(#filter7_d_2506_1479)">
<path d="M1263 129L1243 147" stroke="#FF4000" stroke-width="2"/>
</g>
<g filter="url(#filter8_d_2506_1479)">
<path d="M1263 179L1243 161" stroke="#FF4000" stroke-width="2"/>
</g>
<g filter="url(#filter9_d_2506_1479)">
<path d="M1563 153H1425V127H1563V153ZM1569 153H1565V127H1569V153Z" fill="#FF4000"/>
</g>
<defs>
<filter id="filter0_d_2506_1479" x="0.560547" y="117.57" width="992.627" height="74.21" filterUnits="userSpaceOnUse" color-interpolation-filters="sRGB">
<feFlood flood-opacity="0" result="BackgroundImageFix"/>
<feColorMatrix in="SourceAlpha" type="matrix" values="0 0 0 0 0 0 0 0 0 0 0 0 0 0 0 0 0 0 127 0" result="hardAlpha"/>
<feOffset/>
<feGaussianBlur stdDeviation="5"/>
<feComposite in2="hardAlpha" operator="out"/>
<feColorMatrix type="matrix" values="0 0 0 0 1 0 0 0 0 1 0 0 0 0 1 0 0 0 1 0"/>
<feBlend mode="normal" in2="BackgroundImageFix" result="effect1_dropShadow_2506_1479"/>
<feBlend mode="normal" in="SourceGraphic" in2="effect1_dropShadow_2506_1479" result="shape"/>
</filter>
<filter id="filter1_ddd_2506_1479" x="1110.55" y="0.511963" width="626.869" height="310.632" filterUnits="userSpaceOnUse" color-interpolation-filters="sRGB">
<feFlood flood-opacity="0" result="BackgroundImageFix"/>
<feColorMatrix in="SourceAlpha" type="matrix" values="0 0 0 0 0 0 0 0 0 0 0 0 0 0 0 0 0 0 127 0" result="hardAlpha"/>
<feOffset dx="-40"/>
<feGaussianBlur stdDeviation="64"/>
<feComposite in2="hardAlpha" operator="out"/>
<feColorMatrix type="matrix" values="0 0 0 0 0 0 0 0 0 0 0 0 0 0 1 0 0 0 1 0"/>
<feBlend mode="normal" in2="BackgroundImageFix" result="effect1_dropShadow_2506_1479"/>
<feColorMatrix in="SourceAlpha" type="matrix" values="0 0 0 0 0 0 0 0 0 0 0 0 0 0 0 0 0 0 127 0" result="hardAlpha"/>
<feOffset dx="40"/>
<feGaussianBlur stdDeviation="64"/>
<feComposite in2="hardAlpha" operator="out"/>
<feColorMatrix type="matrix" values="0 0 0 0 0.468938 0 0 0 0 0.0497607 0 0 0 0 0.49888 0 0 0 1 0"/>
<feBlend mode="normal" in2="effect1_dropShadow_2506_1479" result="effect2_dropShadow_2506_1479"/>
<feColorMatrix in="SourceAlpha" type="matrix" values="0 0 0 0 0 0 0 0 0 0 0 0 0 0 0 0 0 0 127 0" result="hardAlpha"/>
<feOffset/>
<feGaussianBlur stdDeviation="5"/>
<feComposite in2="hardAlpha" operator="out"/>
<feColorMatrix type="matrix" values="0 0 0 0 1 0 0 0 0 1 0 0 0 0 1 0 0 0 1 0"/>
<feBlend mode="normal" in2="effect2_dropShadow_2506_1479" result="effect3_dropShadow_2506_1479"/>
<feBlend mode="normal" in="SourceGraphic" in2="effect3_dropShadow_2506_1479" result="shape"/>
</filter>
<filter id="filter2_d_2506_1479" x="990.998" y="123" width="278" height="62" filterUnits="userSpaceOnUse" color-interpolation-filters="sRGB">
<feFlood flood-opacity="0" result="BackgroundImageFix"/>
<feColorMatrix in="SourceAlpha" type="matrix" values="0 0 0 0 0 0 0 0 0 0 0 0 0 0 0 0 0 0 127 0" result="hardAlpha"/>
<feOffset/>
<feGaussianBlur stdDeviation="2"/>
<feComposite in2="hardAlpha" operator="out"/>
<feColorMatrix type="matrix" values="0 0 0 0 1 0 0 0 0 0.25098 0 0 0 0 0 0 0 0 1 0"/>
<feBlend mode="normal" in2="BackgroundImageFix" result="effect1_dropShadow_2506_1479"/>
<feBlend mode="normal" in="SourceGraphic" in2="effect1_dropShadow_2506_1479" result="shape"/>
</filter>
<filter id="filter3_d_2506_1479" x="1001" y="133" width="258" height="42" filterUnits="userSpaceOnUse" color-interpolation-filters="sRGB">
<feFlood flood-opacity="0" result="BackgroundImageFix"/>
<feColorMatrix in="SourceAlpha" type="matrix" values="0 0 0 0 0 0 0 0 0 0 0 0 0 0 0 0 0 0 127 0" result="hardAlpha"/>
<feOffset/>
<feGaussianBlur stdDeviation="2"/>
<feComposite in2="hardAlpha" operator="out"/>
<feColorMatrix type="matrix" values="0 0 0 0 1 0 0 0 0 0.25098 0 0 0 0 0 0 0 0 1 0"/>
<feBlend mode="normal" in2="BackgroundImageFix" result="effect1_dropShadow_2506_1479"/>
<feBlend mode="normal" in="SourceGraphic" in2="effect1_dropShadow_2506_1479" result="shape"/>
</filter>
<filter id="filter4_d_2506_1479" x="1012" y="142" width="236" height="24" filterUnits="userSpaceOnUse" color-interpolation-filters="sRGB">
<feFlood flood-opacity="0" result="BackgroundImageFix"/>
<feColorMatrix in="SourceAlpha" type="matrix" values="0 0 0 0 0 0 0 0 0 0 0 0 0 0 0 0 0 0 127 0" result="hardAlpha"/>
<feOffset/>
<feGaussianBlur stdDeviation="2"/>
<feComposite in2="hardAlpha" operator="out"/>
<feColorMatrix type="matrix" values="0 0 0 0 1 0 0 0 0 0.25098 0 0 0 0 0 0 0 0 1 0"/>
<feBlend mode="normal" in2="BackgroundImageFix" result="effect1_dropShadow_2506_1479"/>
<feBlend mode="normal" in="SourceGraphic" in2="effect1_dropShadow_2506_1479" result="shape"/>
</filter>
<filter id="filter5_d_2506_1479" x="992.33" y="124.257" width="29.3398" height="27.4868" filterUnits="userSpaceOnUse" color-interpolation-filters="sRGB">
<feFlood flood-opacity="0" result="BackgroundImageFix"/>
<feColorMatrix in="SourceAlpha" type="matrix" values="0 0 0 0 0 0 0 0 0 0 0 0 0 0 0 0 0 0 127 0" result="hardAlpha"/>
<feOffset/>
<feGaussianBlur stdDeviation="2"/>
<feComposite in2="hardAlpha" operator="out"/>
<feColorMatrix type="matrix" values="0 0 0 0 1 0 0 0 0 0.25098 0 0 0 0 0 0 0 0 1 0"/>
<feBlend mode="normal" in2="BackgroundImageFix" result="effect1_dropShadow_2506_1479"/>
<feBlend mode="normal" in="SourceGraphic" in2="effect1_dropShadow_2506_1479" result="shape"/>
</filter>
<filter id="filter6_d_2506_1479" x="992.33" y="156.257" width="29.3398" height="27.4868" filterUnits="userSpaceOnUse" color-interpolation-filters="sRGB">
<feFlood flood-opacity="0" result="BackgroundImageFix"/>
<feColorMatrix in="SourceAlpha" type="matrix" values="0 0 0 0 0 0 0 0 0 0 0 0 0 0 0 0 0 0 127 0" result="hardAlpha"/>
<feOffset/>
<feGaussianBlur stdDeviation="2"/>
<feComposite in2="hardAlpha" operator="out"/>
<feColorMatrix type="matrix" values="0 0 0 0 1 0 0 0 0 0.25098 0 0 0 0 0 0 0 0 1 0"/>
<feBlend mode="normal" in2="BackgroundImageFix" result="effect1_dropShadow_2506_1479"/>
<feBlend mode="normal" in="SourceGraphic" in2="effect1_dropShadow_2506_1479" result="shape"/>
</filter>
<filter id="filter7_d_2506_1479" x="1238.33" y="124.257" width="29.3398" height="27.4868" filterUnits="userSpaceOnUse" color-interpolation-filters="sRGB">
<feFlood flood-opacity="0" result="BackgroundImageFix"/>
<feColorMatrix in="SourceAlpha" type="matrix" values="0 0 0 0 0 0 0 0 0 0 0 0 0 0 0 0 0 0 127 0" result="hardAlpha"/>
<feOffset/>
<feGaussianBlur stdDeviation="2"/>
<feComposite in2="hardAlpha" operator="out"/>
<feColorMatrix type="matrix" values="0 0 0 0 1 0 0 0 0 0.25098 0 0 0 0 0 0 0 0 1 0"/>
<feBlend mode="normal" in2="BackgroundImageFix" result="effect1_dropShadow_2506_1479"/>
<feBlend mode="normal" in="SourceGraphic" in2="effect1_dropShadow_2506_1479" result="shape"/>
</filter>
<filter id="filter8_d_2506_1479" x="1238.33" y="156.257" width="29.3398" height="27.4868" filterUnits="userSpaceOnUse" color-interpolation-filters="sRGB">
<feFlood flood-opacity="0" result="BackgroundImageFix"/>
<feColorMatrix in="SourceAlpha" type="matrix" values="0 0 0 0 0 0 0 0 0 0 0 0 0 0 0 0 0 0 127 0" result="hardAlpha"/>
<feOffset/>
<feGaussianBlur stdDeviation="2"/>
<feComposite in2="hardAlpha" operator="out"/>
<feColorMatrix type="matrix" values="0 0 0 0 1 0 0 0 0 0.25098 0 0 0 0 0 0 0 0 1 0"/>
<feBlend mode="normal" in2="BackgroundImageFix" result="effect1_dropShadow_2506_1479"/>
<feBlend mode="normal" in="SourceGraphic" in2="effect1_dropShadow_2506_1479" result="shape"/>
</filter>
<filter id="filter9_d_2506_1479" x="1415" y="117" width="164" height="46" filterUnits="userSpaceOnUse" color-interpolation-filters="sRGB">
<feFlood flood-opacity="0" result="BackgroundImageFix"/>
<feColorMatrix in="SourceAlpha" type="matrix" values="0 0 0 0 0 0 0 0 0 0 0 0 0 0 0 0 0 0 127 0" result="hardAlpha"/>
<feOffset/>
<feGaussianBlur stdDeviation="5"/>
<feComposite in2="hardAlpha" operator="out"/>
<feColorMatrix type="matrix" values="0 0 0 0 1 0 0 0 0 0.25098 0 0 0 0 0 0 0 0 1 0"/>
<feBlend mode="normal" in2="BackgroundImageFix" result="effect1_dropShadow_2506_1479"/>
<feBlend mode="normal" in="SourceGraphic" in2="effect1_dropShadow_2506_1479" result="shape"/>
</filter>
</defs>
</svg>
