<svg width="373" height="437" viewBox="0 0 373 437" fill="none" xmlns="http://www.w3.org/2000/svg">
<g filter="url(#filter0_n_2685_15541)">
<rect x="5.5" y="5.5" width="362" height="426" rx="35.5" fill="black" stroke="#FF4000" stroke-width="11"/>
<circle cx="39" cy="150" r="12" fill="#FF4000"/>
<circle cx="39" cy="398" r="12" fill="#FF4000"/>
<circle cx="39" cy="39" r="12" fill="#FF4000"/>
<circle cx="334" cy="83" r="12" fill="#FF4000"/>
<circle cx="334" cy="398" r="12" fill="#FF4000"/>
<g filter="url(#filter1_di_2685_15541)">
<path fill-rule="evenodd" clip-rule="evenodd" d="M119.336 271C121.177 271 122.739 271 124.282 271L147.148 271C148.414 271 149.601 271.614 150.33 272.646L157.94 283.419C159.492 285.615 162.757 285.613 164.306 283.414L171.887 272.651C172.616 271.616 173.804 271 175.072 271H202.408C204.558 271 206.3 272.738 206.3 274.882V302.725C206.3 304.869 208.043 306.607 210.192 306.607H225.786C227.935 306.607 229.678 304.869 229.678 302.725V274.882C229.678 272.738 231.42 271 233.569 271H264.516C276.476 271 285.38 273.024 291.228 277.072C297.076 281.119 300 287.251 300 295.465V296.536C300 304.75 297.064 310.881 291.192 314.928C285.344 318.976 276.452 321 264.516 321H187.956C185.807 321 184.064 319.262 184.064 317.118V299.77C184.064 296.059 179.345 294.463 177.083 297.409L172.741 303.063C172.221 303.74 171.939 304.57 171.939 305.423V317.118C171.939 319.262 170.197 321 168.047 321H153.596C151.447 321 149.704 319.262 149.704 317.118V305.492C149.704 304.64 149.423 303.812 148.905 303.135L139.857 291.327C139.045 290.267 137.338 290.466 136.451 291.465C135.085 293.003 135.238 297.642 136.772 299.014C136.986 299.205 137.189 299.403 137.382 299.608C139.267 301.56 140.211 304.167 140.211 307.429V308.179C140.211 312.441 138.504 315.643 135.09 317.786C131.701 319.929 126.688 321 120.052 321H75.8919C73.7425 321 72 319.262 72 317.118V274.882C72 272.738 73.7425 271 75.8919 271H119.336ZM93.9492 304.857C93.9492 306.968 95.6644 308.679 97.7803 308.679H112.676C114.729 308.679 116.196 308.393 117.08 307.822C117.987 307.227 118.44 306.31 118.44 305.072V304.715C118.44 303.453 117.999 302.524 117.116 301.929C116.233 301.334 114.753 301.036 112.676 301.036H97.7803C95.6644 301.036 93.9492 302.747 93.9492 304.857ZM251.949 302.833C251.949 304.977 253.691 306.715 255.841 306.715H262.691C267.321 306.715 270.759 305.953 273.003 304.429C275.246 302.905 276.369 300.584 276.369 297.465V294.536C276.369 291.417 275.246 289.096 273.003 287.572C270.759 286.048 267.321 285.286 262.691 285.286H255.841C253.691 285.286 251.949 287.024 251.949 289.168V302.833ZM93.9492 286.804C93.9492 288.747 95.5283 290.322 97.4762 290.322H111.996C113.905 290.322 115.266 290.048 116.078 289.5C116.889 288.952 117.295 288.119 117.295 287V286.643C117.295 285.501 116.889 284.655 116.078 284.108C115.266 283.56 113.893 283.286 111.96 283.286H97.4762C95.5283 283.286 93.9492 284.861 93.9492 286.804Z" fill="#FF4000"/>
</g>
<line x1="15" y1="178.5" x2="358" y2="178.5" stroke="#FF4000"/>
<line x1="186.5" y1="15" x2="186.5" y2="179" stroke="#FF4000"/>
<rect x="15.5" y="15.5" width="342" height="406" rx="26.5" stroke="#FF4000"/>
<path d="M43.5962 34.4038C44.1347 34.9423 44.1347 35.8155 43.5962 36.354L42.7607 37.1895C41.7608 38.1894 41.7608 39.8106 42.7607 40.8105L43.5962 41.646C44.1347 42.1845 44.1347 43.0577 43.5962 43.5962V43.5962C43.0577 44.1347 42.1845 44.1347 41.646 43.5962L40.8105 42.7607C39.8106 41.7608 38.1894 41.7608 37.1895 42.7607L36.354 43.5962C35.8155 44.1347 34.9423 44.1347 34.4038 43.5962V43.5962C33.8653 43.0577 33.8653 42.1845 34.4038 41.646L35.2393 40.8105C36.2392 39.8106 36.2392 38.1894 35.2393 37.1895L34.4038 36.354C33.8653 35.8155 33.8653 34.9423 34.4038 34.4038V34.4038C34.9423 33.8653 35.8155 33.8653 36.354 34.4038L37.1895 35.2393C38.1894 36.2392 39.8106 36.2392 40.8105 35.2393L41.646 34.4038C42.1845 33.8653 43.0577 33.8653 43.5962 34.4038V34.4038Z" fill="black"/>
<path d="M43.5962 145.404C44.1347 145.942 44.1347 146.815 43.5962 147.354L42.7607 148.189C41.7608 149.189 41.7608 150.811 42.7607 151.811L43.5962 152.646C44.1347 153.185 44.1347 154.058 43.5962 154.596V154.596C43.0577 155.135 42.1845 155.135 41.646 154.596L40.8105 153.761C39.8106 152.761 38.1894 152.761 37.1895 153.761L36.354 154.596C35.8155 155.135 34.9423 155.135 34.4038 154.596V154.596C33.8653 154.058 33.8653 153.185 34.4038 152.646L35.2393 151.811C36.2392 150.811 36.2392 149.189 35.2393 148.189L34.4038 147.354C33.8653 146.815 33.8653 145.942 34.4038 145.404V145.404C34.9423 144.865 35.8155 144.865 36.354 145.404L37.1895 146.239C38.1894 147.239 39.8106 147.239 40.8105 146.239L41.646 145.404C42.1845 144.865 43.0577 144.865 43.5962 145.404V145.404Z" fill="black"/>
<path d="M43.5962 393.404C44.1347 393.942 44.1347 394.815 43.5962 395.354L42.7607 396.189C41.7608 397.189 41.7608 398.811 42.7607 399.811L43.5962 400.646C44.1347 401.185 44.1347 402.058 43.5962 402.596V402.596C43.0577 403.135 42.1845 403.135 41.646 402.596L40.8105 401.761C39.8106 400.761 38.1894 400.761 37.1895 401.761L36.354 402.596C35.8155 403.135 34.9423 403.135 34.4038 402.596V402.596C33.8653 402.058 33.8653 401.185 34.4038 400.646L35.2393 399.811C36.2392 398.811 36.2392 397.189 35.2393 396.189L34.4038 395.354C33.8653 394.815 33.8653 393.942 34.4038 393.404V393.404C34.9423 392.865 35.8155 392.865 36.354 393.404L37.1895 394.239C38.1894 395.239 39.8106 395.239 40.8105 394.239L41.646 393.404C42.1845 392.865 43.0577 392.865 43.5962 393.404V393.404Z" fill="black"/>
<path d="M338.596 393.404C339.135 393.942 339.135 394.815 338.596 395.354L337.761 396.189C336.761 397.189 336.761 398.811 337.761 399.811L338.596 400.646C339.135 401.185 339.135 402.058 338.596 402.596V402.596C338.058 403.135 337.185 403.135 336.646 402.596L335.811 401.761C334.811 400.761 333.189 400.761 332.189 401.761L331.354 402.596C330.815 403.135 329.942 403.135 329.404 402.596V402.596C328.865 402.058 328.865 401.185 329.404 400.646L330.239 399.811C331.239 398.811 331.239 397.189 330.239 396.189L329.404 395.354C328.865 394.815 328.865 393.942 329.404 393.404V393.404C329.942 392.865 330.815 392.865 331.354 393.404L332.189 394.239C333.189 395.239 334.811 395.239 335.811 394.239L336.646 393.404C337.185 392.865 338.058 392.865 338.596 393.404V393.404Z" fill="black"/>
<path d="M338.596 78.4038C339.135 78.9423 339.135 79.8155 338.596 80.354L337.761 81.1895C336.761 82.1894 336.761 83.8106 337.761 84.8105L338.596 85.646C339.135 86.1845 339.135 87.0577 338.596 87.5962V87.5962C338.058 88.1347 337.185 88.1347 336.646 87.5962L335.811 86.7607C334.811 85.7608 333.189 85.7608 332.189 86.7607L331.354 87.5962C330.815 88.1347 329.942 88.1347 329.404 87.5962V87.5962C328.865 87.0577 328.865 86.1845 329.404 85.646L330.239 84.8105C331.239 83.8106 331.239 82.1894 330.239 81.1895L329.404 80.354C328.865 79.8155 328.865 78.9423 329.404 78.4038V78.4038C329.942 77.8653 330.815 77.8653 331.354 78.4038L332.189 79.2393C333.189 80.2392 334.811 80.2392 335.811 79.2393L336.646 78.4038C337.185 77.8653 338.058 77.8653 338.596 78.4038V78.4038Z" fill="black"/>
<path d="M30.12 197H29.4V195.8H27.72V197H27V195.08V194.84V194.36H27.24V193.88H27.48V193.4H27.72V192.92H27.96V192.44H28.2V191.96H28.44V191.72H28.68V191.96H28.92V192.44H29.16V192.92H29.4V193.4H29.64V193.88H29.88V194.36H30.12V194.84V195.08V197ZM29.4 195.08V194.84V194.6H29.16V194.12H28.92V193.64H28.68V193.16H28.44V193.64H28.2V194.12H27.96V194.6H27.72V194.84V195.08H29.4ZM33.7216 196.28H33.4816V196.52H33.2416V196.76H33.0016V197H31.5616V196.76H31.3216V196.52H31.0816V196.28H30.8416V196.04H30.6016V192.68H30.8416V192.44H31.0816V192.2H31.3216V191.96H31.5616V191.72H33.0016V191.96H33.2416V192.2H33.4816V192.44H33.7216V193.16H33.0016V192.68H32.7616V192.44H31.8016V192.68H31.5616V192.92H31.3216V195.8H31.5616V196.04H31.8016V196.28H32.7616V196.04H33.0016V195.56H33.7216V196.28ZM37.3231 196.28H37.0831V196.52H36.8431V196.76H36.6031V197H35.1631V196.76H34.9231V196.52H34.6831V196.28H34.4431V196.04H34.2031V192.68H34.4431V192.44H34.6831V192.2H34.9231V191.96H35.1631V191.72H36.6031V191.96H36.8431V192.2H37.0831V192.44H37.3231V193.16H36.6031V192.68H36.3631V192.44H35.4031V192.68H35.1631V192.92H34.9231V195.8H35.1631V196.04H35.4031V196.28H36.3631V196.04H36.6031V195.56H37.3231V196.28ZM40.9247 197H37.8047V191.72H40.9247V192.44H38.5247V193.88H40.4447V194.6H38.5247V196.28H40.9247V197ZM44.5263 196.28H44.2863V196.52H44.0463V196.76H43.8063V197H42.1263V196.76H41.8863V196.52H41.6463V196.28H41.4062V195.56H42.1263V196.04H42.3663V196.28H43.5663V196.04H43.8063V194.84H43.5663V194.6H42.1263V194.36H41.8863V194.12H41.6463V193.88H41.4062V192.44H41.6463V192.2H41.8863V191.96H42.1263V191.72H43.8063V191.96H44.0463V192.2H44.2863V192.44H44.5263V193.16H43.8063V192.68H43.5663V192.44H42.3663V192.68H42.1263V193.64H42.3663V193.88H43.8063V194.12H44.0463V194.36H44.2863V194.6H44.5263V196.28ZM48.1278 196.28H47.8878V196.52H47.6478V196.76H47.4078V197H45.7278V196.76H45.4878V196.52H45.2478V196.28H45.0078V195.56H45.7278V196.04H45.9678V196.28H47.1678V196.04H47.4078V194.84H47.1678V194.6H45.7278V194.36H45.4878V194.12H45.2478V193.88H45.0078V192.44H45.2478V192.2H45.4878V191.96H45.7278V191.72H47.4078V191.96H47.6478V192.2H47.8878V192.44H48.1278V193.16H47.4078V192.68H47.1678V192.44H45.9678V192.68H45.7278V193.64H45.9678V193.88H47.4078V194.12H47.6478V194.36H47.8878V194.6H48.1278V196.28ZM55.3309 194.12H55.0909V194.36H54.8509V194.6H54.6109V194.84H52.9309V197H52.2109V191.72H54.6109V191.96H54.8509V192.2H55.0909V192.44H55.3309V194.12ZM54.6109 193.88V192.68H54.3709V192.44H52.9309V194.12H54.3709V193.88H54.6109ZM58.9325 197H58.2125V195.8H56.5325V197H55.8125V195.08V194.84V194.36H56.0525V193.88H56.2925V193.4H56.5325V192.92H56.7725V192.44H57.0125V191.96H57.2525V191.72H57.4925V191.96H57.7325V192.44H57.9725V192.92H58.2125V193.4H58.4525V193.88H58.6925V194.36H58.9325V194.84V195.08V197ZM58.2125 195.08V194.84V194.6H57.9725V194.12H57.7325V193.64H57.4925V193.16H57.2525V193.64H57.0125V194.12H56.7725V194.6H56.5325V194.84V195.08H58.2125ZM62.5341 197H61.8141V196.76H61.5741V196.28H61.3341V195.8H61.0941V195.32H60.8541V194.84H60.6141V194.36H60.3741V193.88H60.1341V197H59.4141V191.72H59.8941V192.2H60.1341V192.68H60.3741V193.16H60.6141V193.64H60.8541V194.12H61.0941V194.6H61.3341V195.08H61.5741V195.56H61.8141V191.72H62.5341V197ZM66.1356 197H63.0156V191.72H66.1356V192.44H63.7356V193.88H65.6556V194.6H63.7356V196.28H66.1356V197ZM69.7372 197H66.6172V191.72H67.3372V196.28H69.7372V197ZM30.12 205H29.4V204.04H29.16V203.56H28.92V203.08H28.68L28.68 202.6H27.72V205H27L27 199.72H29.4V199.96H29.64V200.2H29.88V200.44H30.12V201.88H29.88V202.12H29.64V202.36H29.4V202.84H29.64V203.32H29.88L29.88 203.8H30.12V205ZM29.4 201.64V200.68H29.16V200.44H27.72V201.88H29.16V201.64H29.4ZM33.7216 205H30.6016L30.6016 199.72H33.7216V200.44H31.3216V201.88H33.2416V202.6H31.3216V204.28H33.7216V205ZM37.3231 205H36.6031V202.36H36.3631V202.84H36.1231V203.32H35.8831V203.8H35.6431V203.32H35.4031V202.84H35.1631V202.36H34.9231V205H34.2031V199.72H34.4431V200.2H34.6831V200.68H34.9231V201.16H35.1631V201.64H35.4031V202.12H35.6431V202.6H35.8831V202.12H36.1231V201.64H36.3631V201.16H36.6031V200.68H36.8431V200.2H37.0831V199.72H37.3231V205ZM40.9247 204.04H40.6847V204.28H40.4447V204.52H40.2047V204.76H39.9647V205H38.7647V204.76H38.5247V204.52H38.2847V204.28H38.0447V204.04H37.8047V200.68H38.0447V200.44H38.2847V200.2H38.5247V199.96H38.7647V199.72H39.9647V199.96H40.2047V200.2H40.4447V200.44H40.6847V200.68H40.9247V204.04ZM40.2047 203.8V200.92H39.9647V200.68H39.7247V200.44H39.0047V200.68H38.7647V200.92H38.5247V203.8H38.7647V204.04H39.0047V204.28H39.7247V204.04H39.9647V203.8H40.2047ZM44.5263 202.12H44.2863V202.6H44.0463V203.08H43.8063V203.56H43.5663V204.04H43.3263V204.52H43.0863V205H42.8463V204.52H42.6063V204.04H42.3663V203.56H42.1263V203.08H41.8863V202.6H41.6463V202.12H41.4062V199.72H42.1263V201.88H42.3663V202.36H42.6063V202.84H42.8463V203.32H43.0863V202.84H43.3263V202.36H43.5663V201.88H43.8063V199.72H44.5263V202.12ZM48.1278 205H45.0078V199.72H48.1278V200.44H45.7278V201.88H47.6478V202.6H45.7278V204.28H48.1278V205ZM55.3309 200.44H52.9309V201.88H54.6109V202.6H52.9309V205H52.2109V199.72H55.3309V200.44ZM58.9325 204.04H58.6925V204.28H58.4525V204.52H58.2125V204.76H57.9725V205H56.7725V204.76H56.5325V204.52H56.2925V204.28H56.0525V204.04H55.8125V200.68H56.0525V200.44H56.2925V200.2H56.5325V199.96H56.7725V199.72H57.9725V199.96H58.2125V200.2H58.4525V200.44H58.6925V200.68H58.9325V204.04ZM58.2125 203.8V200.92H57.9725V200.68H57.7325V200.44H57.0125V200.68H56.7725V200.92H56.5325V203.8H56.7725V204.04H57.0125V204.28H57.7325V204.04H57.9725V203.8H58.2125ZM62.5341 205H61.8141V204.04H61.5741V203.56H61.3341V203.08H61.0941V202.6H60.1341V205H59.4141V199.72H61.8141V199.96H62.0541V200.2H62.2941V200.44H62.5341V201.88H62.2941V202.12H62.0541V202.36H61.8141V202.84H62.0541V203.32H62.2941V203.8H62.5341V205ZM61.8141 201.64V200.68H61.5741V200.44H60.1341V201.88H61.5741V201.64H61.8141ZM69.7372 205H69.0172V202.36H68.7772V202.84H68.5372V203.32H68.2972V203.8H68.0572V203.32H67.8172V202.84H67.5772V202.36H67.3372V205H66.6172V199.72H66.8572V200.2H67.0972V200.68H67.3372V201.16H67.5772V201.64H67.8172V202.12H68.0572V202.6H68.2972V202.12H68.5372V201.64H68.7772V201.16H69.0172V200.68H69.2572V200.2H69.4972V199.72H69.7372V205ZM73.3388 205H72.6188V203.8H70.9388V205H70.2188V203.08V202.84V202.36H70.4588V201.88H70.6988V201.4H70.9388V200.92H71.1788V200.44H71.4188V199.96H71.6588V199.72H71.8988V199.96H72.1388V200.44H72.3788V200.92H72.6188V201.4H72.8588V201.88H73.0988V202.36H73.3388V202.84V203.08V205ZM72.6188 203.08V202.84V202.6H72.3788V202.12H72.1388V201.64H71.8988V201.16H71.6588V201.64H71.4188V202.12H71.1788V202.6H70.9388V202.84V203.08H72.6188ZM76.9403 205H73.8203V204.28H75.0203V200.44H74.5403V199.72H76.2203V200.44H75.7403V204.28H76.9403V205ZM80.5419 205H79.8219V204.76H79.5819V204.28H79.3419V203.8H79.1019V203.32H78.8619V202.84H78.6219V202.36H78.3819V201.88H78.1419V205H77.4219V199.72H77.9019V200.2H78.1419V200.68H78.3819V201.16H78.6219V201.64H78.8619V202.12H79.1019V202.6H79.3419V203.08H79.5819V203.56H79.8219V199.72H80.5419V205ZM84.1434 200.44H82.9434V205H82.2234V200.44H81.0234V199.72H84.1434V200.44ZM87.745 205H84.625V199.72H87.745V200.44H85.345V201.88H87.265V202.6H85.345V204.28H87.745V205ZM91.3466 205H90.6266V204.76H90.3866V204.28H90.1466V203.8H89.9066V203.32H89.6666V202.84H89.4266V202.36H89.1866V201.88H88.9466V205H88.2266V199.72H88.7066V200.2H88.9466V200.68H89.1866V201.16H89.4266V201.64H89.6666V202.12H89.9066V202.6H90.1466V203.08H90.3866V203.56H90.6266V199.72H91.3466V205ZM94.9481 205H94.2281V203.8H92.5481V205H91.8281V203.08V202.84V202.36H92.0681V201.88H92.3081V201.4H92.5481V200.92H92.7881V200.44H93.0281V199.96H93.2681V199.72H93.5081V199.96H93.7481V200.44H93.9881V200.92H94.2281V201.4H94.4681V201.88H94.7081V202.36H94.9481V202.84V203.08V205ZM94.2281 203.08V202.84V202.6H93.9881V202.12H93.7481V201.64H93.5081V201.16H93.2681V201.64H93.0281V202.12H92.7881V202.6H92.5481V202.84V203.08H94.2281ZM98.5497 205H97.8297V204.76H97.5897V204.28H97.3497V203.8H97.1097V203.32H96.8697V202.84H96.6297V202.36H96.3897V201.88H96.1497V205H95.4297V199.72H95.9097V200.2H96.1497V200.68H96.3897V201.16H96.6297V201.64H96.8697V202.12H97.1097V202.6H97.3497V203.08H97.5897V203.56H97.8297V199.72H98.5497V205ZM102.151 204.28H101.911V204.52H101.671V204.76H101.431V205H99.9913V204.76H99.7513V204.52H99.5113V204.28H99.2713V204.04H99.0312V200.68H99.2713V200.44H99.5113V200.2H99.7513V199.96H99.9913V199.72H101.431V199.96H101.671V200.2H101.911V200.44H102.151V201.16H101.431V200.68H101.191V200.44H100.231V200.68H99.9913V200.92H99.7513V203.8H99.9913V204.04H100.231V204.28H101.191V204.04H101.431V203.56H102.151V204.28ZM105.753 205H102.633V199.72H105.753V200.44H103.353V201.88H105.273V202.6H103.353V204.28H105.753V205Z" fill="#FF4000"/>
<path d="M124.12 400.52H123.88V400.76H123.64V401H121.96V400.76H121.72V400.52H121.48V400.28H121.24V400.04H121V396.68H121.24V396.44H121.48V396.2H121.72V395.96H121.96V395.72H123.64V395.96H123.88V396.2H124.12V396.68H123.4V396.44H122.2V396.68H121.96V396.92H121.72V399.8H121.96V400.04H122.2V400.28H123.4V398.84H123.16V399.08H122.44V398.12H124.12V400.52ZM127.722 401H124.602V395.72H127.722V396.44H125.322V397.88H127.242V398.6H125.322V400.28H127.722V401ZM131.323 400.04H131.083V400.28H130.843V400.52H130.603V400.76H130.363V401H129.163V400.76H128.923V400.52H128.683V400.28H128.443V400.04H128.203V396.68H128.443V396.44H128.683V396.2H128.923V395.96H129.163V395.72H130.363V395.96H130.603V396.2H130.843V396.44H131.083V396.68H131.323V400.04ZM130.603 399.8V396.92H130.363V396.68H130.123V396.44H129.403V396.68H129.163V396.92H128.923V399.8H129.163V400.04H129.403V400.28H130.123V400.04H130.363V399.8H130.603ZM134.925 401H134.205V398.36H133.965V398.84H133.725V399.32H133.485V399.8H133.245V399.32H133.005V398.84H132.765V398.36H132.525V401H131.805V395.72H132.045V396.2H132.285V396.68H132.525V397.16H132.765V397.64H133.005V398.12H133.245V398.6H133.485V398.12H133.725V397.64H133.965V397.16H134.205V396.68H134.445V396.2H134.685V395.72H134.925V401ZM138.526 401.96H135.406V401.48H138.526V401.96ZM142.128 401H141.408V398.6H139.728V401H139.008V395.72H139.728V397.88H141.408V395.72H142.128V401ZM145.729 401H145.009V399.8H143.329V401H142.609V399.08V398.84V398.36H142.849V397.88H143.089V397.4H143.329V396.92H143.569V396.44H143.809V395.96H144.049V395.72H144.289V395.96H144.529V396.44H144.769V396.92H145.009V397.4H145.249V397.88H145.489V398.36H145.729V398.84V399.08V401ZM145.009 399.08V398.84V398.6H144.769V398.12H144.529V397.64H144.289V397.16H144.049V397.64H143.809V398.12H143.569V398.6H143.329V398.84V399.08H145.009ZM149.331 400.28H149.091V400.52H148.851V400.76H148.611V401H146.931V400.76H146.691V400.52H146.451V400.28H146.211V399.56H146.931V400.04H147.171V400.28H148.371V400.04H148.611V398.84H148.371V398.6H146.931V398.36H146.691V398.12H146.451V397.88H146.211V396.44H146.451V396.2H146.691V395.96H146.931V395.72H148.611V395.96H148.851V396.2H149.091V396.44H149.331V397.16H148.611V396.68H148.371V396.44H147.171V396.68H146.931V397.64H147.171V397.88H148.611V398.12H148.851V398.36H149.091V398.6H149.331V400.28ZM152.933 401H152.213V398.6H150.533V401H149.812V395.72H150.533V397.88H152.213V395.72H152.933V401ZM155.334 399.08H154.374V398.12H155.334V399.08ZM155.334 401H154.374V400.04H155.334V401ZM163.737 400.28H163.497V400.52H163.257V400.76H163.017V401H161.337V400.76H161.097V400.52H160.857V400.28H160.617V398.6H160.857V398.36H161.097V398.12H160.857V397.88H160.617V396.44H160.857V396.2H161.097V395.96H161.337V395.72H163.017V395.96H163.257V396.2H163.497V396.44H163.737V397.88H163.497V398.12H163.257V398.36H163.497V398.6H163.737V400.28ZM163.017 397.64V396.68H162.777V396.44H161.577V396.68H161.337V397.64H161.577V397.88H162.777V397.64H163.017ZM163.017 400.04V398.84H162.777V398.6H161.577V398.84H161.337V400.04H161.577V400.28H162.777V400.04H163.017ZM167.339 398.6H167.099V399.08H166.859V399.32H166.619V399.56H166.379V399.8H166.139V400.04H165.899V400.28H165.659V400.52H165.419V400.76H165.179V401H164.459V400.52H164.699V400.28H164.939V400.04H165.179V399.8H165.419V399.56H165.659V399.32H165.899V399.08H166.139V398.84H164.939V398.6H164.699V398.36H164.459V398.12H164.219V396.44H164.459V396.2H164.699V395.96H164.939V395.72H166.619V395.96H166.859V396.2H167.099V396.44H167.339V398.6ZM166.619 397.88V396.68H166.379V396.44H165.179V396.68H164.939V397.88H165.179V398.12H166.379V397.88H166.619ZM170.94 399.8H170.7V400.04H170.46V400.28H170.22V400.52H169.98V400.76H169.732V401H167.82V395.72H169.74V395.96H169.98V396.2H170.22V396.44H170.46V396.68H170.7V396.92H170.94V399.8ZM170.22 399.56V397.16H169.98V396.92H169.74V396.68H169.5V396.44H168.54V400.28H169.5V400.04H169.74V399.8H169.98V399.56H170.22ZM174.542 401H171.422V399.08H171.662V398.84H171.902V398.6H172.142V398.36H172.382V398.12H173.342V397.88H173.582V397.64H173.822V396.68H173.582V396.44H172.382V396.68H172.142V397.16H171.422V396.44H171.662V396.2H171.902V395.96H172.142V395.72H173.822V395.96H174.062V396.2H174.302V396.44H174.542V397.88H174.302V398.12H174.062V398.36H173.822V398.6H173.582V398.84H172.622V399.08H172.382V399.32H172.142V400.28H174.542V401ZM178.143 396.44H175.743V397.88H177.423V398.6H175.743V401H175.023V395.72H178.143V396.44ZM181.745 401H181.025V399.8H179.345V401H178.625V399.08V398.84V398.36H178.865V397.88H179.105V397.4H179.345V396.92H179.585V396.44H179.825V395.96H180.065V395.72H180.305V395.96H180.545V396.44H180.785V396.92H181.025V397.4H181.265V397.88H181.505V398.36H181.745V398.84V399.08V401ZM181.025 399.08V398.84V398.6H180.785V398.12H180.545V397.64H180.305V397.16H180.065V397.64H179.825V398.12H179.585V398.6H179.345V398.84V399.08H181.025Z" fill="#FF4000"/>
<path d="M202.12 400.28H201.88V400.52H201.64V400.76H201.4V401H199.96V400.76H199.72V400.52H199.48V400.28H199.24V400.04H199V396.68H199.24V396.44H199.48V396.2H199.72V395.96H199.96V395.72H201.4V395.96H201.64V396.2H201.88V396.44H202.12V397.16H201.4V396.68H201.16V396.44H200.2V396.68H199.96V396.92H199.72V399.8H199.96V400.04H200.2V400.28H201.16V400.04H201.4V399.56H202.12V400.28ZM205.722 401H205.002V398.6H203.322V401H202.602V395.72H203.322V397.88H205.002V395.72H205.722V401ZM209.323 401H208.603V400.52H208.363V400.04H208.123V399.56H207.883V399.08H207.643V398.6H207.163V398.84H206.923V401H206.203V395.72H206.923V397.88H207.163V397.64H207.403V397.4H207.643V397.16H207.883V396.92H208.123V396.68H208.363V396.432H208.603V396.2H208.843V395.96H209.083V395.72H209.323V396.68H209.083V396.92H208.843V397.16H208.603V397.392H208.363V397.64H208.123V397.88H207.883V398.12H208.123V398.36H208.363V398.84H208.603V399.32H208.843V399.8H209.083V400.28H209.323V401ZM212.445 399.32H210.285V398.6H212.445V399.32ZM216.526 398.12H216.286V398.6H216.046V399.08H215.806V399.56H215.566V400.04H215.326V400.52H215.086V401H214.846V400.52H214.606V400.04H214.366V399.56H214.126V399.08H213.886V398.6H213.646V398.12H213.406V395.72H214.126V397.88H214.366V398.36H214.606V398.84H214.846V399.32H215.086V398.84H215.326V398.36H215.566V397.88H215.806V395.72H216.526V398.12ZM220.128 401H219.408V400.04H219.168V399.56H218.928V399.08H218.688V398.6H217.728V401H217.008V395.72H219.408V395.96H219.648V396.2H219.888V396.44H220.128V397.88H219.888V398.12H219.648V398.36H219.408V398.84H219.648V399.32H219.888V399.8H220.128V401ZM219.408 397.64V396.68H219.168V396.44H217.728V397.88H219.168V397.64H219.408ZM223.729 396.44H222.529V401H221.809V396.44H220.609V395.72H223.729V396.44ZM227.331 400.28H227.091V400.52H226.851V400.76H226.611V401H224.931V400.76H224.691V400.52H224.451V400.28H224.211V399.56H224.931V400.04H225.171V400.28H226.371V400.04H226.611V398.84H226.371V398.6H224.931V398.36H224.691V398.12H224.451V397.88H224.211V396.44H224.451V396.2H224.691V395.96H224.931V395.72H226.611V395.96H226.851V396.2H227.091V396.44H227.331V397.16H226.611V396.68H226.371V396.44H225.171V396.68H224.931V397.64H225.171V397.88H226.611V398.12H226.851V398.36H227.091V398.6H227.331V400.28ZM229.733 399.08H228.773V398.12H229.733V399.08ZM229.733 401H228.773V400.04H229.733V401ZM238.136 400.28H237.896V400.52H237.656V400.76H237.416V401H235.736V400.76H235.496V400.52H235.256V400.28H235.016V398.6H235.256V398.36H235.496V398.12H235.256V397.88H235.016V396.44H235.256V396.2H235.496V395.96H235.736V395.72H237.416V395.96H237.656V396.2H237.896V396.44H238.136V397.88H237.896V398.12H237.656V398.36H237.896V398.6H238.136V400.28ZM237.416 397.64V396.68H237.176V396.44H235.976V396.68H235.736V397.64H235.976V397.88H237.176V397.64H237.416ZM237.416 400.04V398.84H237.176V398.6H235.976V398.84H235.736V400.04H235.976V400.28H237.176V400.04H237.416ZM241.737 400.04H241.257V401H240.537V400.04H238.617V399.8V399.56H238.857V399.08H239.097V398.6H239.337V398.12H239.577V397.64H239.817V397.16H240.057V396.68H240.297V396.2H240.537V395.72H241.257V399.32H241.737V400.04ZM240.537 399.32V397.4H240.297V397.88H240.057V398.36H239.817V398.84H239.577V399.32H240.537ZM245.339 401H242.219V399.08H242.459V398.84H242.699V398.6H242.939V398.36H243.179V398.12H244.139V397.88H244.379V397.64H244.619V396.68H244.379V396.44H243.179V396.68H242.939V397.16H242.219V396.44H242.459V396.2H242.699V395.96H242.939V395.72H244.619V395.96H244.859V396.2H245.099V396.44H245.339V397.88H245.099V398.12H244.859V398.36H244.619V398.6H244.379V398.84H243.419V399.08H243.179V399.32H242.939V400.28H245.339V401Z" fill="#FF4000"/>
<path d="M338 236.46L338 235.2L339.26 235.2L339.26 234.78L340.52 234.78L340.52 234.36L341.36 234.36L341.36 233.94L341.78 233.94L341.78 233.52L341.36 233.52L341.36 233.1L340.52 233.1L340.52 232.68L339.26 232.68L339.26 232.26L338 232.26L338 231L339.26 231L339.26 231.42L340.52 231.42L340.52 231.84L341.36 231.84L341.36 232.26L342.2 232.26L342.2 232.68L343.04 232.68L343.04 232.26L343.88 232.26L343.88 231.84L344.72 231.84L344.72 231.42L345.98 231.42L345.98 231L347.24 231L347.24 232.26L345.98 232.26L345.98 232.68L344.72 232.68L344.72 233.1L343.88 233.1L343.88 233.52L343.46 233.52L343.46 233.94L343.88 233.94L343.88 234.36L344.72 234.36L344.72 234.78L345.98 234.78L345.98 235.2L347.24 235.2L347.24 236.46L345.98 236.46L345.98 236.04L344.72 236.04L344.72 235.62L343.88 235.62L343.88 235.2L343.04 235.2L343.04 234.78L342.2 234.78L342.2 235.2L341.36 235.2L341.36 235.62L340.52 235.62L340.52 236.04L339.26 236.04L339.26 236.46L338 236.46ZM339.26 242.763L339.26 242.343L338.84 242.343L338.84 241.923L338.42 241.923L338.42 241.503L338 241.503L338 238.563L338.42 238.563L338.42 238.143L338.84 238.143L338.84 237.723L339.26 237.723L339.26 237.303L342.2 237.303L342.2 237.723L342.62 237.723L342.62 238.143L343.04 238.143L343.04 237.723L343.46 237.723L343.46 237.303L345.98 237.303L345.98 237.723L346.4 237.723L346.4 238.143L346.82 238.143L346.82 238.563L347.24 238.563L347.24 241.503L346.82 241.503L346.82 241.923L346.4 241.923L346.4 242.343L345.98 242.343L345.98 242.763L343.46 242.763L343.46 242.343L343.04 242.343L343.04 241.923L342.62 241.923L342.62 242.343L342.2 242.343L342.2 242.763L339.26 242.763ZM343.88 241.503L345.56 241.503L345.56 241.083L345.98 241.083L345.98 238.983L345.56 238.983L345.56 238.563L343.88 238.563L343.88 238.983L343.46 238.983L343.46 241.083L343.88 241.083L343.88 241.503ZM339.68 241.503L341.78 241.503L341.78 241.083L342.2 241.083L342.2 238.983L341.78 238.983L341.78 238.563L339.68 238.563L339.68 238.983L339.26 238.983L339.26 241.083L339.68 241.083L339.68 241.503ZM339.68 249.065L339.68 248.225L338 248.225L338 246.965L339.68 246.965L339.68 243.605L340.1 243.605L340.52 243.605L340.52 244.025L341.36 244.025L341.36 244.445L342.2 244.445L342.2 244.865L343.04 244.865L343.04 245.285L343.88 245.285L343.88 245.705L344.72 245.705L344.72 246.125L345.56 246.125L345.56 246.545L346.4 246.545L346.4 246.965L347.24 246.965L347.24 248.225L340.94 248.225L340.94 249.065L339.68 249.065ZM340.94 246.965L344.3 246.965L344.3 246.545L343.46 246.545L343.46 246.125L342.62 246.125L342.62 245.705L341.78 245.705L341.78 245.285L340.94 245.285L340.94 246.965ZM339.26 255.368L339.26 254.948L338.84 254.948L338.84 254.528L338.42 254.528L338.42 254.108L338 254.108L338 251.588L338.42 251.588L338.42 251.168L338.84 251.168L338.84 250.748L339.26 250.748L339.26 250.328L339.68 250.328L339.68 249.908L345.56 249.908L345.56 250.328L345.98 250.328L345.98 250.748L346.4 250.748L346.4 251.168L346.82 251.168L346.82 251.588L347.24 251.588L347.24 254.108L346.82 254.108L346.82 254.528L346.4 254.528L346.4 254.948L345.98 254.948L345.98 255.368L344.72 255.368L344.72 254.108L345.56 254.108L345.56 253.688L345.98 253.688L345.98 252.008L345.56 252.008L345.56 251.588L345.14 251.588L345.14 251.168L340.1 251.168L340.1 251.588L339.68 251.588L339.68 252.008L339.26 252.008L339.26 253.688L339.68 253.688L339.68 254.108L340.52 254.108L340.52 255.368L339.26 255.368ZM340.94 260.831L340.94 257.051L342.2 257.051L342.2 260.831L340.94 260.831ZM338 267.974L338 266.714L342.62 266.714L342.62 266.294L341.78 266.294L341.78 265.874L340.94 265.874L340.94 265.454L340.1 265.454L340.1 265.034L340.94 265.034L340.94 264.614L341.78 264.614L341.78 264.194L342.62 264.194L342.62 263.774L338 263.774L338 262.514L347.24 262.514L347.24 262.934L346.4 262.934L346.4 263.354L345.56 263.354L345.56 263.774L344.72 263.774L344.72 264.194L343.88 264.194L343.88 264.614L343.04 264.614L343.04 265.034L342.2 265.034L342.2 265.454L343.04 265.454L343.04 265.874L343.88 265.874L343.88 266.294L344.72 266.294L344.72 266.714L345.56 266.714L345.56 267.134L346.4 267.134L346.4 267.554L347.24 267.554L347.24 267.974L338 267.974ZM338 274.276L338 268.816L347.24 268.816L347.24 274.276L345.98 274.276L345.98 270.076L343.46 270.076L343.46 273.436L342.2 273.436L342.2 270.076L339.26 270.076L339.26 274.276L338 274.276ZM339.26 280.579L339.26 280.159L338.84 280.159L338.84 279.739L338.42 279.739L338.42 279.319L338 279.319L338 276.799L338.42 276.799L338.42 276.379L338.84 276.379L338.84 275.959L339.26 275.959L339.26 275.539L339.68 275.539L339.68 275.119L345.56 275.119L345.56 275.539L345.98 275.539L345.98 275.959L346.4 275.959L346.4 276.379L346.82 276.379L346.82 276.799L347.24 276.799L347.24 279.319L346.82 279.319L346.82 279.739L346.4 279.739L346.4 280.159L345.98 280.159L345.98 280.579L344.72 280.579L344.72 279.319L345.56 279.319L345.56 278.899L345.98 278.899L345.98 277.219L345.56 277.219L345.56 276.799L345.14 276.799L345.14 276.379L340.1 276.379L340.1 276.799L339.68 276.799L339.68 277.219L339.26 277.219L339.26 278.899L339.68 278.899L339.68 279.319L340.52 279.319L340.52 280.579L339.26 280.579ZM338 286.882L338 285.622L342.2 285.622L342.2 282.682L338 282.682L338 281.422L347.24 281.422L347.24 282.682L343.46 282.682L343.46 285.622L347.24 285.622L347.24 286.882L338 286.882ZM338 291.085L338 289.405L339.68 289.405L339.68 291.085L338 291.085ZM339.26 299.487L339.26 299.067L338.84 299.067L338.84 298.647L338.42 298.647L338.42 298.227L338 298.227L338 294.027L347.24 294.027L347.24 298.227L346.82 298.227L346.82 298.647L346.4 298.647L346.4 299.067L345.98 299.067L345.98 299.487L343.88 299.487L343.88 299.067L343.46 299.067L343.46 298.647L343.04 298.647L343.04 298.227L342.62 298.227L342.62 298.647L342.2 298.647L342.2 299.067L341.78 299.067L341.78 299.487L339.26 299.487ZM344.3 298.227L345.56 298.227L345.56 297.807L345.98 297.807L345.98 295.287L343.46 295.287L343.46 297.387L343.88 297.387L343.88 297.807L344.3 297.807L344.3 298.227ZM339.68 298.227L341.36 298.227L341.36 297.807L341.78 297.807L341.78 297.387L342.2 297.387L342.2 295.287L339.26 295.287L339.26 297.807L339.68 297.807L339.68 298.227ZM338 305.79L338 300.33L347.24 300.33L347.24 301.59L339.26 301.59L339.26 305.79L338 305.79ZM338 312.093L338 310.833L338.84 310.833L338.84 310.413L339.68 310.413L339.68 309.993L340.52 309.993L340.52 309.573L341.36 309.573L341.36 309.153L342.2 309.153L342.2 308.313L341.78 308.313L341.78 307.893L338 307.893L338 306.633L347.24 306.633L347.24 307.893L343.46 307.893L343.46 308.313L343.88 308.313L343.88 308.733L344.3 308.733L344.3 309.153L344.72 309.153L344.72 309.573L345.14 309.573L345.14 309.993L345.56 309.993L345.56 310.413L345.994 310.413L345.994 310.833L346.4 310.833L346.4 311.253L346.82 311.253L346.82 311.673L347.24 311.673L347.24 312.093L345.56 312.093L345.56 311.673L345.14 311.673L345.14 311.253L344.72 311.253L344.72 310.833L344.314 310.833L344.314 310.413L343.88 310.413L343.88 309.993L343.46 309.993L343.46 309.573L343.04 309.573L343.04 309.993L342.62 309.993L342.62 310.413L341.78 310.413L341.78 310.833L340.94 310.833L340.94 311.253L340.1 311.253L340.1 311.673L339.26 311.673L339.26 312.093L338 312.093ZM340.94 317.556L340.94 313.776L342.2 313.776L342.2 317.556L340.94 317.556ZM338 324.698L338 319.238L341.36 319.238L341.36 319.658L341.78 319.658L341.78 320.078L342.2 320.078L342.2 320.498L342.62 320.498L342.62 320.918L343.04 320.918L343.04 322.598L343.46 322.598L343.46 323.018L343.88 323.018L343.88 323.438L345.56 323.438L345.56 323.018L345.98 323.018L345.98 320.918L345.56 320.918L345.56 320.498L344.72 320.498L344.72 319.238L345.98 319.238L345.98 319.658L346.4 319.658L346.4 320.078L346.82 320.078L346.82 320.498L347.24 320.498L347.24 323.438L346.82 323.438L346.82 323.858L346.4 323.858L346.4 324.278L345.98 324.278L345.98 324.698L343.46 324.698L343.46 324.278L343.04 324.278L343.04 323.858L342.62 323.858L342.62 323.438L342.2 323.438L342.2 323.018L341.78 323.018L341.78 321.338L341.36 321.338L341.36 320.918L340.94 320.918L340.94 320.498L339.26 320.498L339.26 324.698L338 324.698ZM339.26 331.001L339.26 330.581L338.84 330.581L338.84 330.161L338.42 330.161L338.42 329.741L338 329.741L338 326.801L338.42 326.801L338.42 326.381L338.84 326.381L338.84 325.961L339.26 325.961L339.26 325.541L342.2 325.541L342.2 325.961L342.62 325.961L342.62 326.381L343.04 326.381L343.04 325.961L343.46 325.961L343.46 325.541L345.98 325.541L345.98 325.961L346.4 325.961L346.4 326.381L346.82 326.381L346.82 326.801L347.24 326.801L347.24 329.741L346.82 329.741L346.82 330.161L346.4 330.161L346.4 330.581L345.98 330.581L345.98 331.001L343.46 331.001L343.46 330.581L343.04 330.581L343.04 330.161L342.62 330.161L342.62 330.581L342.2 330.581L342.2 331.001L339.26 331.001ZM343.88 329.741L345.56 329.741L345.56 329.321L345.98 329.321L345.98 327.221L345.56 327.221L345.56 326.801L343.88 326.801L343.88 327.221L343.46 327.221L343.46 329.321L343.88 329.321L343.88 329.741ZM339.68 329.741L341.78 329.741L341.78 329.321L342.2 329.321L342.2 327.221L341.78 327.221L341.78 326.801L339.68 326.801L339.68 327.221L339.26 327.221L339.26 329.321L339.68 329.321L339.68 329.741ZM342.2 337.304L342.2 336.884L341.36 336.884L341.36 336.464L340.94 336.464L340.94 336.044L340.52 336.044L340.52 335.624L340.1 335.624L340.1 335.204L339.68 335.204L339.68 334.784L339.26 334.784L339.26 334.364L338.84 334.364L338.84 333.944L338.42 333.944L338.42 333.524L338 333.524L338 332.264L338.84 332.264L338.84 332.684L339.26 332.684L339.26 333.104L339.68 333.104L339.68 333.524L340.1 333.524L340.1 333.944L340.52 333.944L340.52 334.364L340.94 334.364L340.94 334.784L341.36 334.784L341.36 335.204L341.78 335.204L341.78 333.104L342.2 333.104L342.2 332.684L342.62 332.684L342.62 332.264L343.04 332.264L343.04 331.844L345.98 331.844L345.98 332.264L346.4 332.264L346.4 332.684L346.82 332.684L346.82 333.104L347.24 333.104L347.24 336.044L346.82 336.044L346.82 336.464L346.4 336.464L346.4 336.884L345.98 336.884L345.98 337.304L342.2 337.304ZM343.46 336.044L345.56 336.044L345.56 335.624L345.98 335.624L345.98 333.524L345.56 333.524L345.56 333.104L343.46 333.104L343.46 333.524L343.04 333.524L343.04 335.624L343.46 335.624L343.46 336.044ZM345.98 343.606L345.98 339.406L343.46 339.406L343.46 342.346L342.2 342.346L342.2 339.406L338 339.406L338 338.146L347.24 338.146L347.24 343.606L345.98 343.606Z" fill="#FF4000"/>
</g>
<defs>
<filter id="filter0_n_2685_15541" x="0" y="0" width="373" height="437" filterUnits="userSpaceOnUse" color-interpolation-filters="sRGB">
<feFlood flood-opacity="0" result="BackgroundImageFix"/>
<feBlend mode="normal" in="SourceGraphic" in2="BackgroundImageFix" result="shape"/>
<feTurbulence type="fractalNoise" baseFrequency="1 1" stitchTiles="stitch" numOctaves="3" result="noise" seed="6265" />
<feColorMatrix in="noise" type="luminanceToAlpha" result="alphaNoise" />
<feComponentTransfer in="alphaNoise" result="coloredNoise1">
<feFuncA type="discrete" tableValues="1 1 1 1 1 1 1 1 1 1 1 1 1 1 1 1 1 1 1 1 1 1 1 1 1 1 1 1 1 1 1 1 1 1 1 1 1 1 1 1 1 1 1 1 1 1 1 1 1 1 1 0 0 0 0 0 0 0 0 0 0 0 0 0 0 0 0 0 0 0 0 0 0 0 0 0 0 0 0 0 0 0 0 0 0 0 0 0 0 0 0 0 0 0 0 0 0 0 0 0 "/>
</feComponentTransfer>
<feComposite operator="in" in2="shape" in="coloredNoise1" result="noise1Clipped" />
<feFlood flood-color="rgba(0, 0, 0, 0.1)" result="color1Flood" />
<feComposite operator="in" in2="noise1Clipped" in="color1Flood" result="color1" />
<feMerge result="effect1_noise_2685_15541">
<feMergeNode in="shape" />
<feMergeNode in="color1" />
</feMerge>
</filter>
<filter id="filter1_di_2685_15541" x="70" y="270" width="232" height="54" filterUnits="userSpaceOnUse" color-interpolation-filters="sRGB">
<feFlood flood-opacity="0" result="BackgroundImageFix"/>
<feColorMatrix in="SourceAlpha" type="matrix" values="0 0 0 0 0 0 0 0 0 0 0 0 0 0 0 0 0 0 127 0" result="hardAlpha"/>
<feOffset dy="1"/>
<feGaussianBlur stdDeviation="1"/>
<feComposite in2="hardAlpha" operator="out"/>
<feColorMatrix type="matrix" values="0 0 0 0 0 0 0 0 0 0 0 0 0 0 0 0 0 0 0.25 0"/>
<feBlend mode="normal" in2="BackgroundImageFix" result="effect1_dropShadow_2685_15541"/>
<feBlend mode="normal" in="SourceGraphic" in2="effect1_dropShadow_2685_15541" result="shape"/>
<feColorMatrix in="SourceAlpha" type="matrix" values="0 0 0 0 0 0 0 0 0 0 0 0 0 0 0 0 0 0 127 0" result="hardAlpha"/>
<feOffset dy="1"/>
<feGaussianBlur stdDeviation="1"/>
<feComposite in2="hardAlpha" operator="arithmetic" k2="-1" k3="1"/>
<feColorMatrix type="matrix" values="0 0 0 0 1 0 0 0 0 1 0 0 0 0 1 0 0 0 0.25 0"/>
<feBlend mode="normal" in2="shape" result="effect2_innerShadow_2685_15541"/>
</filter>
</defs>
</svg>
